<?xml version="1.0" encoding="UTF-8"?>
<svg id="Layer_1" xmlns="http://www.w3.org/2000/svg" xmlns:xlink="http://www.w3.org/1999/xlink" version="1.1" viewBox="0 0 1080 1080">
  <!-- Generator: Adobe Illustrator 29.0.0, SVG Export Plug-In . SVG Version: 2.1.0 Build 186)  -->
  <defs>
    <style>
      .st0 {
        fill: url(#linear-gradient2);
      }

      .st1 {
        fill: url(#linear-gradient1);
      }

      .st2 {
        fill: #1d44cd;
      }

      .st3 {
        fill: url(#linear-gradient);
      }

      .st4 {
        fill: #fe5a02;
      }

      .st5 {
        fill: #fff;
      }

      .st6 {
        fill: #0083ea;
      }

      .st7 {
        fill: #065fda;
      }
    </style>
    <linearGradient id="linear-gradient" x1="371.1" y1="1454.1" x2="765.2" y2="1454.1" gradientTransform="translate(0 -745.9)" gradientUnits="userSpaceOnUse">
      <stop offset="0" stop-color="#eb1f1d"/>
      <stop offset="1" stop-color="#ff4802"/>
    </linearGradient>
    <linearGradient id="linear-gradient1" x1="316.4" y1="1459" x2="514" y2="1116.5" gradientTransform="translate(0 -745.9)" gradientUnits="userSpaceOnUse">
      <stop offset="0" stop-color="#026de1"/>
      <stop offset="1" stop-color="#2236c6"/>
    </linearGradient>
    <linearGradient id="linear-gradient2" x1="536.3" y1="1068.3" x2="733.6" y2="1410.1" gradientTransform="translate(0 -745.9)" gradientUnits="userSpaceOnUse">
      <stop offset="0" stop-color="#026de1"/>
      <stop offset="1" stop-color="#2236c6"/>
    </linearGradient>
  </defs>
  <path class="st5" d="M540,0h0c298.2,0,540,241.8,540,540h0c0,298.2-241.8,540-540,540h0C241.8,1080,0,838.2,0,540h0C0,241.8,241.8,0,540,0Z"/>
  <path class="st3" d="M764.9,802.5h-318.4c-32.7,0-57.5-14.3-74.2-42.3-.4-.7-.9-1.3-1.3-1.9,1.6-3.3,3.2-6.6,4.9-10.1.3-.4.6-.9.9-1.4h0c.9-1.4,1.9-2.7,2.7-4.2,9.5-16.4,19-33,28.5-49.4,14.8-25.6,29.5-51.4,44.4-77,.6-.9.6-2.6,2.5-2.3-.3,4.8.6,9.2,2.9,13.2,4.9,8.5,12.7,11.8,22.5,11.8,32.5-.1,65.2,0,97.8,0s17,0,25.3.1c1.3.4,2.6.6,3.7,0,.4,0,.9-.3,1.4-.4l1.4.4c1.7,0,3.5.4,5.2.4h140.8c1.6,0,3.6-.9,5.3,1.3-2.5.9-4.5,1.6-6.5,2.3-10.4,3.3-19.6,8.8-27.4,16-22.3,20.6-31.5,46.2-26.1,76,5.9,32.4,25.6,53.7,57,64.2,2.3.7,5.5.3,6.8,3.2h-.3,0Z"/>
  <path class="st1" d="M554,491.3c-12.1-7.5-24.6-6-31.2,4-6.5,9.9-12.2,20.3-18.1,30.5-7.8,13.4-15.7,26.8-23.5,40-4.6,8.2-9.5,16.3-13.8,24.6-4.2,7.9-10.7,14.5-12.8,23.5-1.9-.4-1.9,1.3-2.5,2.3-14.8,25.6-29.5,51.4-44.4,77-9.5,16.4-19,33-28.5,49.4-.9,1.4-1.9,2.9-2.7,4.3,0-1.9.1-3.6.6-5.6,3-11.4,4-23,1.7-34.7-3.5-18.3-11.8-33.7-25.3-46.5-13.8-13-30.1-20.2-48.7-21.6-25.5-1.9-47.8,6-65.8,24.6-1.1,1.2-2.2,2.7-4.3,2.6,11.5-20,22.9-40,34.4-60,22-38.3,44.1-76.6,66-114.8,1.4-2.5,3-4.8,4.6-7.1,11.8-20.6,23.6-41.3,35.6-61.9,6.3-11.1,12.8-22.3,19.3-33.4,16.9-28.7,41.9-43.1,75.3-42.9.3,0,.6,0,.9-.1,2.2,3.5,4.5,6.9,6.6,10.2.3.3.6.7.9,1,4.9,8.9,9.8,17.7,14.8,26.5,13.1,22.8,26.4,45.4,39.5,68,6.5,11.2,13.1,22.5,19.6,33.7,1.2,1.9,3,3.7,1.9,6.5h.1c0-.1,0-.1,0-.1Z"/>
  <path class="st0" d="M779.5,635.6c-.6,1-1,2-1.4,2.9-3.9,0-7.8.3-11.8.3h-151.5c-1.7,0-3.5.1-5.2.3-.4,0-.9-.3-1.3-.4,0-1,1-1,1.6-1.2,14.1-5.6,18.9-19.3,11.4-32.4-1.6-2.7-3.2-5.5-4.8-8.1-12.5-21.6-24.9-43.3-37.4-64.9-.7-1.2-1.6-2.3-2.3-3.5-6.8-11.7-13.7-23.3-20.5-35-.3-.3-.6-.7-1-1,0-.9,0-1.9-1.4-1.1h0c1.2-2.6-.7-4.5-1.9-6.5-6.5-11.2-13-22.5-19.6-33.7-13.2-22.8-26.4-45.4-39.5-68-5-8.8-9.9-17.7-14.8-26.5,2,0,3,1.6,4.2,2.7,4.3,4.8,9.4,8.8,14.8,12.1,17.7,10.8,36.7,14.4,57.2,10.8,20.2-3.6,37-13.2,49.7-29.4,15.3-19.4,21.2-41.3,16.8-66-.7-4-3.5-7.9-2-12.4,11.4,19.6,22.9,39.2,34.3,58.8,14.4,25.1,28.9,50,43.3,75,7.8,13.5,15.4,27.1,23.2,40.6,8.8,15,17.6,30,26.2,44.9,6.3,10.9,12.7,21.9,19,32.8,4.6,7.9,9.1,16,13.8,23.8,16.7,28.1,16.3,56.5.7,84.8h.1c0,.1,0,.1,0,.1Z"/>
  <path class="st4" d="M609.7,639.2c1.7,0,3.5-.3,5.2-.3h151.5c3.9,0,7.8-.3,11.8-.3,22.8-.1,43.1,6.6,59.6,22.6,24.3,23.6,32.1,52.4,22.2,84.4-10.2,32.4-33.5,51-67.1,56.5-9.2,1.4-18.4.7-27.8.7-1.4-2.9-4.5-2.3-6.8-3.2-31.4-10.5-51.1-31.8-57-64.2-5.5-29.7,3.7-55.4,26.1-76,7.8-7.2,17.1-12.7,27.4-16,2-.7,4-1.4,6.5-2.3-1.7-2-3.7-1.3-5.3-1.3h-140.8c-1.7,0-3.5-.3-5.2-.4h-.1c0-.1,0-.2,0-.2Z"/>
  <path class="st6" d="M619.1,274.6c-1.4,4.5,1.3,8.4,2,12.4,4.3,24.6-1.6,46.5-16.8,66-12.7,16.3-29.5,25.8-49.7,29.4-20.3,3.6-39.5,0-57-10.8-5.5-3.3-10.5-7.3-14.8-12.1-1.1-1.3-2.2-2.7-4.2-2.7h0s-.6-.7-.9-1c-2.2-3.5-4.5-6.9-6.6-10.2-17.9-31.5-17.6-62.9,3.6-92.4,33.3-46.5,104.3-43.9,134.9,4.5,2.7,4.3,5,8.9,7.6,13.5,0,.7.3,1.4,1,1.7.9.4,1,1.1,1.2,1.9h-.3Z"/>
  <path class="st6" d="M234.7,665.9c2,.3,3-1.3,4.3-2.6,18-18.6,40.3-26.5,65.8-24.6,18.6,1.4,35,8.6,48.7,21.6,13.5,12.8,22,28.2,25.3,46.5,2.2,11.7,1.1,23.3-1.7,34.7-.4,1.9-.7,3.6-.6,5.6h0l-.9,1.3c-1.6,3.3-3.2,6.6-4.9,10.1-7.3,12.4-16.4,23.3-28.9,31-26.8,16.3-54.7,18-82.4,3.3-28.2-15-42.6-39.3-43.6-71.3-.6-19.6,6.3-36.7,17.1-52.7.3-.4.6-1,.9-1.4,0-.6,0-1.2.7-1.4h.1Z"/>
  <path class="st7" d="M617.9,272.7c-.7-.3-1-1-1-1.7.3.6.7,1.1,1,1.7Z"/>
  <path class="st7" d="M234,667.3s-.6,1-.9,1.4c.3-.4.6-1,.9-1.4Z"/>
  <path class="st4" d="M603.1,639.2c1.3-.6,2.6-.6,3.7,0-1.3.7-2.6.4-3.7,0Z"/>
  <path class="st7" d="M375.7,748.4s.6-.9.9-1.4c-.3.4-.6.9-.9,1.4Z"/>
  <path class="st7" d="M477.4,355.7s.6.7.9,1c-.3-.3-.6-.7-.9-1Z"/>
  <path class="st2" d="M555.5,492.6s-1-.9-1.4-1.1c1.4-.7,1.3.4,1.4,1.1Z"/>
  <path class="st2" d="M556.6,493.6s-.7-.7-1-1.1c.3.4.7.7,1,1.1Z"/>
</svg>