<?xml version="1.0" encoding="UTF-8"?>
<svg id="Layer_1" xmlns="http://www.w3.org/2000/svg" xmlns:xlink="http://www.w3.org/1999/xlink" version="1.1" viewBox="0 0 1080 1080">
  <!-- Generator: Adobe Illustrator 29.0.0, SVG Export Plug-In . SVG Version: 2.1.0 Build 186)  -->
  <defs>
    <style>
      .st0 {
        fill: url(#linear-gradient2);
      }

      .st1 {
        fill: url(#linear-gradient1);
      }

      .st2 {
        fill: url(#linear-gradient9);
      }

      .st3 {
        fill: url(#linear-gradient3);
      }

      .st4 {
        fill: url(#linear-gradient6);
      }

      .st5 {
        fill: url(#linear-gradient8);
      }

      .st6 {
        fill: url(#linear-gradient7);
      }

      .st7 {
        fill: url(#linear-gradient5);
      }

      .st8 {
        fill: url(#linear-gradient4);
      }

      .st9 {
        fill: url(#linear-gradient13);
      }

      .st10 {
        fill: url(#linear-gradient12);
      }

      .st11 {
        fill: url(#linear-gradient11);
      }

      .st12 {
        fill: url(#linear-gradient10);
      }

      .st13 {
        fill: url(#linear-gradient14);
      }

      .st14 {
        fill: url(#linear-gradient);
      }

      .st15 {
        fill: #fff;
      }
    </style>
    <linearGradient id="linear-gradient" x1="365.4" y1="-1209.1" x2="319.9" y2="-776.1" gradientTransform="translate(0 -416) scale(1 -1)" gradientUnits="userSpaceOnUse">
      <stop offset="0" stop-color="#c3c4c3"/>
      <stop offset="0" stop-color="#d8d8d8"/>
      <stop offset=".2" stop-color="#e9eae9"/>
      <stop offset=".3" stop-color="#f6f6f6"/>
      <stop offset=".6" stop-color="#fdfdfd"/>
      <stop offset="1" stop-color="#fff"/>
    </linearGradient>
    <linearGradient id="linear-gradient1" x1="788.9" y1="-1077" x2="438" y2="-1331.9" gradientTransform="translate(0 -416) scale(1 -1)" gradientUnits="userSpaceOnUse">
      <stop offset="0" stop-color="#c3c4c3"/>
      <stop offset="0" stop-color="#d8d8d8"/>
      <stop offset=".2" stop-color="#e9eae9"/>
      <stop offset=".3" stop-color="#f6f6f6"/>
      <stop offset=".6" stop-color="#fdfdfd"/>
      <stop offset="1" stop-color="#fff"/>
    </linearGradient>
    <linearGradient id="linear-gradient2" x1="460.9" y1="-775.2" x2="862.3" y2="-954" gradientTransform="translate(0 -416) scale(1 -1)" gradientUnits="userSpaceOnUse">
      <stop offset="0" stop-color="#c3c4c3"/>
      <stop offset="0" stop-color="#d8d8d8"/>
      <stop offset=".2" stop-color="#e9eae9"/>
      <stop offset=".3" stop-color="#f6f6f6"/>
      <stop offset=".6" stop-color="#fdfdfd"/>
      <stop offset="1" stop-color="#fff"/>
    </linearGradient>
    <linearGradient id="linear-gradient3" x1="414" y1="-1204" x2="378.3" y2="-863.3" gradientTransform="translate(0 -416) scale(1 -1)" gradientUnits="userSpaceOnUse">
      <stop offset="0" stop-color="#b7b8b8"/>
      <stop offset=".1" stop-color="#c9caca"/>
      <stop offset=".3" stop-color="#e1e1e1"/>
      <stop offset=".5" stop-color="#f2f2f2"/>
      <stop offset=".7" stop-color="#fcfcfc"/>
      <stop offset="1" stop-color="#fff"/>
    </linearGradient>
    <linearGradient id="linear-gradient4" x1="440.3" y1="-821.4" x2="758.3" y2="-963" gradientTransform="translate(0 -416) scale(1 -1)" gradientUnits="userSpaceOnUse">
      <stop offset="0" stop-color="#b7b8b8"/>
      <stop offset=".1" stop-color="#c9caca"/>
      <stop offset=".3" stop-color="#e1e1e1"/>
      <stop offset=".5" stop-color="#f2f2f2"/>
      <stop offset=".7" stop-color="#fcfcfc"/>
      <stop offset="1" stop-color="#fff"/>
    </linearGradient>
    <linearGradient id="linear-gradient5" x1="760.8" y1="-1038.4" x2="482.3" y2="-1240.8" gradientTransform="translate(0 -416) scale(1 -1)" gradientUnits="userSpaceOnUse">
      <stop offset="0" stop-color="#b7b8b8"/>
      <stop offset=".1" stop-color="#c9caca"/>
      <stop offset=".3" stop-color="#e1e1e1"/>
      <stop offset=".5" stop-color="#f2f2f2"/>
      <stop offset=".7" stop-color="#fcfcfc"/>
      <stop offset="1" stop-color="#fff"/>
    </linearGradient>
    <linearGradient id="linear-gradient6" x1="476.9" y1="-1176.6" x2="408.1" y2="-936.4" gradientTransform="translate(0 -416) scale(1 -1)" gradientUnits="userSpaceOnUse">
      <stop offset="0" stop-color="#b7b8b8"/>
      <stop offset=".2" stop-color="#cecece"/>
      <stop offset=".5" stop-color="#e9e9e9"/>
      <stop offset=".8" stop-color="#f9f9f9"/>
      <stop offset="1" stop-color="#fff"/>
    </linearGradient>
    <linearGradient id="linear-gradient7" x1="704.5" y1="-998" x2="531.4" y2="-1177.3" gradientTransform="translate(0 -416) scale(1 -1)" gradientUnits="userSpaceOnUse">
      <stop offset="0" stop-color="#b7b8b8"/>
      <stop offset=".2" stop-color="#cecece"/>
      <stop offset=".5" stop-color="#e9e9e9"/>
      <stop offset=".8" stop-color="#f9f9f9"/>
      <stop offset="1" stop-color="#fff"/>
    </linearGradient>
    <linearGradient id="linear-gradient8" x1="433.4" y1="-892" x2="679.1" y2="-953.2" gradientTransform="translate(0 -416) scale(1 -1)" gradientUnits="userSpaceOnUse">
      <stop offset="0" stop-color="#b7b8b8"/>
      <stop offset=".2" stop-color="#cecece"/>
      <stop offset=".5" stop-color="#e9e9e9"/>
      <stop offset=".8" stop-color="#f9f9f9"/>
      <stop offset="1" stop-color="#fff"/>
    </linearGradient>
    <linearGradient id="linear-gradient9" x1="440.4" y1="-950.2" x2="623" y2="-964.6" gradientTransform="translate(0 -416) scale(1 -1)" gradientUnits="userSpaceOnUse">
      <stop offset="0" stop-color="#abacac"/>
      <stop offset=".2" stop-color="#bdbdbd"/>
      <stop offset=".7" stop-color="#ededed"/>
      <stop offset="1" stop-color="#fff"/>
    </linearGradient>
    <linearGradient id="linear-gradient10" x1="525.3" y1="-1141.5" x2="446.6" y2="-979.9" gradientTransform="translate(0 -416) scale(1 -1)" gradientUnits="userSpaceOnUse">
      <stop offset="0" stop-color="#abacac"/>
      <stop offset=".2" stop-color="#bdbdbd"/>
      <stop offset=".7" stop-color="#ededed"/>
      <stop offset="1" stop-color="#fff"/>
    </linearGradient>
    <linearGradient id="linear-gradient11" x1="650.8" y1="-975.4" x2="550.1" y2="-1124.8" gradientTransform="translate(0 -416) scale(1 -1)" gradientUnits="userSpaceOnUse">
      <stop offset="0" stop-color="#abacac"/>
      <stop offset=".2" stop-color="#bdbdbd"/>
      <stop offset=".7" stop-color="#ededed"/>
      <stop offset="1" stop-color="#fff"/>
    </linearGradient>
    <linearGradient id="linear-gradient12" x1="463.9" y1="-996.9" x2="579.2" y2="-953.7" gradientTransform="translate(0 -416) scale(1 -1)" gradientUnits="userSpaceOnUse">
      <stop offset="0" stop-color="#9fa0a0"/>
      <stop offset=".2" stop-color="#a5a6a6"/>
      <stop offset=".4" stop-color="#b6b6b6"/>
      <stop offset=".7" stop-color="#d1d1d1"/>
      <stop offset=".9" stop-color="#f6f6f6"/>
      <stop offset="1" stop-color="#fff"/>
    </linearGradient>
    <linearGradient id="linear-gradient13" x1="553.2" y1="-1100.9" x2="460.3" y2="-1023" gradientTransform="translate(0 -416) scale(1 -1)" gradientUnits="userSpaceOnUse">
      <stop offset="0" stop-color="#9fa0a0"/>
      <stop offset=".2" stop-color="#a5a6a6"/>
      <stop offset=".4" stop-color="#b6b6b6"/>
      <stop offset=".7" stop-color="#d1d1d1"/>
      <stop offset=".9" stop-color="#f6f6f6"/>
      <stop offset="1" stop-color="#fff"/>
    </linearGradient>
    <linearGradient id="linear-gradient14" x1="600.1" y1="-971.7" x2="579.1" y2="-1091.5" gradientTransform="translate(0 -416) scale(1 -1)" gradientUnits="userSpaceOnUse">
      <stop offset="0" stop-color="#9fa0a0"/>
      <stop offset=".2" stop-color="#a5a6a6"/>
      <stop offset=".4" stop-color="#b6b6b6"/>
      <stop offset=".7" stop-color="#d1d1d1"/>
      <stop offset=".9" stop-color="#f6f6f6"/>
      <stop offset="1" stop-color="#fff"/>
    </linearGradient>
  </defs>
  <path class="st15" d="M540,0h0c298.2,0,540,241.8,540,540h0c0,298.2-241.8,540-540,540h0C241.8,1080,0,838.2,0,540h0C0,241.8,241.8,0,540,0Z"/>
  <path class="st15" d="M543,230.8c-2.3-4.2-8.5-4.2-10.9,0L216.7,785.4c-2.3,4.2.7,9.4,5.5,9.4h635.2c4.9,0,8.1-5.2,5.5-9.7L543,230.8h0ZM474.3,590.5h0l113-30.8-30.5,111.9h0l-82.4-81.1"/>
  <g id="_5">
    <path class="st15" d="M222.2,794.7h127.7l117.4-450.1-250.6,440.8c-2.3,4.2.7,9.4,5.5,9.4h0Z"/>
    <path class="st15" d="M800.3,676.8l-450.4,117.9h507.6c4.9,0,8.1-5.2,5.5-9.7,0,0-62.8-108.3-62.6-108.3Z"/>
    <path class="st15" d="M731.2,607.8l69.3,69-257.3-446c-2.3-4.2-8.5-4.2-10.9,0l-64.8,113.8,263.5,262.9.3.3h0Z"/>
  </g>
  <g id="_4">
    <polygon class="st15" points="350.1 794.7 442.8 770.4 442.2 440.6 350.1 794.7"/>
    <polygon class="st15" points="442.2 440.6 731.2 607.8 467.4 344.6 467.4 344.6 442.2 440.6"/>
    <polygon class="st15" points="442.8 770.4 800.3 676.8 800.3 676.8 731.2 607.8 442.8 770.4"/>
  </g>
  <g id="_3">
    <polygon class="st15" points="442.8 770.4 504.7 735.5 442.2 510.6 442.8 770.4"/>
    <polygon class="st15" points="731.2 607.8 670.3 572.5 504.7 735.5 731.2 607.8"/>
    <polygon class="st15" points="442.2 510.6 670.3 572.5 442.2 440.6 442.2 510.6"/>
  </g>
  <g id="_2">
    <polygon class="st15" points="587.4 559.4 622.4 559.6 442.2 510.6 455.8 559.2 586.8 559.4 587.4 559.4"/>
    <polygon class="st15" points="473.9 589.7 455.8 559.2 504.7 735.5 539.1 701.4 474.3 590.5 473.9 589.7"/>
    <polygon class="st15" points="622.4 559.6 539.1 701.4 670.3 572.5 622.4 559.6"/>
  </g>
  <g id="_1">
    <polygon class="st15" points="587.4 559.4 455.8 559.2 474.3 590.5 587.4 559.4"/>
    <polygon class="st15" points="556.8 671.6 474.3 590.5 539.1 701.4 556.8 671.6"/>
    <polygon class="st15" points="622.4 559.6 587.4 559.4 556.8 671.6 622.4 559.6"/>
  </g>
  <g id="Gradients">
    <g id="_5-2">
      <path class="st14" d="M222.2,794.7h127.7l117.4-450.1-250.6,440.8c-2.3,4.2.7,9.4,5.5,9.4h0Z"/>
      <path class="st1" d="M800.3,676.8l-450.4,117.9h507.6c4.9,0,8.1-5.2,5.5-9.7,0,0-62.8-108.3-62.6-108.3Z"/>
      <path class="st0" d="M731.2,607.8l69.3,69-257.3-446c-2.3-4.2-8.5-4.2-10.9,0l-64.8,113.8,263.5,262.9.3.3h0Z"/>
    </g>
    <g id="_4-2">
      <polygon class="st3" points="350.1 794.7 442.8 770.4 442.2 440.6 350.1 794.7"/>
      <polygon class="st8" points="442.2 440.6 731.2 607.8 467.4 344.6 442.2 440.6"/>
      <polygon class="st7" points="442.8 770.4 800.3 676.8 800.3 676.8 731.2 607.8 442.8 770.4"/>
    </g>
    <g id="_3-2">
      <polygon class="st4" points="442.8 770.4 504.7 735.5 442.2 510.6 442.8 770.4"/>
      <polygon class="st6" points="731.2 607.8 670.3 572.5 504.7 735.5 731.2 607.8"/>
      <polygon class="st5" points="442.2 510.6 670.3 572.5 442.2 440.6 442.2 510.6"/>
    </g>
    <g id="_2-2">
      <polygon class="st2" points="587.4 559.4 622.4 559.6 442.2 510.6 455.8 559.2 586.8 559.4 587.4 559.4"/>
      <polygon class="st12" points="473.9 589.7 455.8 559.2 504.7 735.5 539.1 701.4 474.3 590.5 473.9 589.7"/>
      <polygon class="st11" points="622.4 559.6 539.1 701.4 670.3 572.5 622.4 559.6"/>
    </g>
    <g id="_1-2">
      <polygon class="st10" points="587.4 559.4 455.8 559.2 474.3 590.5 587.4 559.4"/>
      <polygon class="st9" points="556.8 671.6 474.3 590.5 539.1 701.4 556.8 671.6"/>
      <polygon class="st13" points="622.4 559.6 587.4 559.4 556.8 671.6 622.4 559.6"/>
    </g>
  </g>
</svg>