<?xml version="1.0" encoding="UTF-8"?>
<svg id="Layer_1" xmlns="http://www.w3.org/2000/svg" version="1.1" viewBox="0 0 1080 1080">
  <!-- Generator: Adobe Illustrator 29.0.0, SVG Export Plug-In . SVG Version: 2.1.0 Build 186)  -->
  <defs>
    <style>
      .st0 {
        fill: #fff;
      }
    </style>
  </defs>
  <path class="st0" d="M540,0h0c298.2,0,540,241.8,540,540h0c0,298.2-241.8,540-540,540h0C241.8,1080,0,838.2,0,540h0C0,241.8,241.8,0,540,0Z"/>
  <g id="Page-1">
    <g id="BandWebsite_Desktop_UI_Home">
      <path id="Logo1" class="st0" d="M764.1,420.9c0-46.7-21.6-86.5-56.6-111.6l93.3-93.3h-55l-73.3,75c-13.4-5-28.4-6.6-43.3-6.6h-253.1v364.8l304.9-309.9c28.4,16.7,44.9,48.2,44.9,83.2,0,55-43.3,98.4-98.2,98.4h-8.3l-339.8,343.1h55l66.7-68.3h226.5c75,0,136.7-61.6,136.7-138.2s-26.6-94.9-66.7-118.2c38.3-25.1,66.7-68.3,66.7-118.2h-.1c0-.1,0-.1,0-.1ZM412.6,550.8v-229.8h226.5l-226.5,229.8ZM724,657.5c0,55-43.3,98.2-98.2,98.2h-186.6l195-196.6c50,5,90,46.7,90,98.2h-.1c0,.1,0,.1,0,.1Z"/>
    </g>
  </g>
</svg>