<?xml version="1.0" encoding="UTF-8"?>
<svg id="Layer_1" xmlns="http://www.w3.org/2000/svg" version="1.1" viewBox="0 0 1080 1080">
  <!-- Generator: Adobe Illustrator 29.0.0, SVG Export Plug-In . SVG Version: 2.1.0 Build 186)  -->
  <defs>
    <style>
      .st0 {
        fill: #06b0ab;
      }

      .st1 {
        fill: #fff;
      }
    </style>
  </defs>
  <path class="st1" d="M540,0h0c298.2,0,540,241.8,540,540h0c0,298.2-241.8,540-540,540h0C241.8,1080,0,838.2,0,540h0C0,241.8,241.8,0,540,0Z"/>
  <path class="st0" d="M398.6,693.1c0-10.4,3-17.7,8.9-25.2,35.6-34,69.6-69.5,105-103.5,5.9-5.9,14.8-8.9,22.2-10.4,100.7-25.2,201.2-51.8,301.8-76.9,10.4-3,22.2-5.9,32.5-8.9,8.9-3,14.8-1.4,20.7,5.9,4.5,8.9,1.4,14.8-4.5,20.7l-45.8,45.8c-48.8,48.8-96.2,97.6-145,145-44.3,42.9-87.3,87.3-131.6,130.2-16.3,16.3-35.4,16.3-51.8,0-32.5-32.5-65.1-65.1-99.1-99.1-8.9-5.9-13.2-13.2-13.2-23.6h-.1Z"/>
  <path class="st0" d="M536.1,252.3c8.9-1.4,16.3,4.5,22.2,10.4,35.4,34,69.5,69.6,105,105,14.8,14.8,14.8,32.5-1.4,47.4l-102.1,102.1c-7.3,7.3-14.8,11.8-23.6,13.2-88.7,20.7-177.5,41.5-264.8,62.1-19.1,4.5-39.9,8.9-59.2,13.2-8.9,1.4-16.3,3-22.2-5.9-4.5-8.9,0-16.3,5.9-22.2l176-176c45.8-45.8,93.2-93.2,139.1-139.1,8.9-7.3,16.3-10.4,25.2-10.4h0c0,.1,0,.1,0,.1Z"/>
</svg>