<?xml version="1.0" encoding="UTF-8"?><svg id="Layer_1" xmlns="http://www.w3.org/2000/svg" width="1079.86" height="1080" xmlns:xlink="http://www.w3.org/1999/xlink" viewBox="0 0 1079.86 1080"><defs><linearGradient id="linear-gradient" x1="539.93" y1="-263.9" x2="539.93" y2="-1343.9" gradientTransform="translate(0 -263.9) scale(1 -1)" gradientUnits="userSpaceOnUse"><stop offset="0" stop-color="#007ceb"/><stop offset="1" stop-color="#005dd2"/></linearGradient></defs><path d="M581.84,634.13c-35.95,13.78-80.28,0-105.14-33.25-16.62-24.87-16.62-52.57-16.62-74.74v-41.49c0-16.62,5.54-22.17,22.17-22.17h72.04c38.79,0,77.58,30.41,83.12,69.2,8.24,44.33-13.78,83.12-55.41,102.44h-.14Z" style="fill:#fff;"/><path d="M786.73,589.8c-19.32,143.93-163.4,235.3-304.63,193.81-105.14-30.41-174.48-121.77-174.48-232.6V49.87c22.17-11.08,44.33-19.32,69.2-27.71-5.54,5.54-8.24,11.08-8.24,22.17v512.22c0,85.82,60.96,152.32,146.78,171.64,74.74,16.62,163.4-24.87,193.81-99.6,55.41-130.15-33.25-254.76-163.4-260.3h-69.2c-16.62,0-22.17-5.54-22.17-22.17v-22.17c0-8.24,5.54-11.08,11.08-13.78,69.2,0,135.69-5.54,199.35,33.25,94.2,58.11,135.69,146.78,121.77,246.38h.14Z" style="fill:#fff;"/><path d="M889.18,761.44c-99.6,163.4-301.79,229.75-481.82,160.56-107.99-41.49-182.72-116.23-224.21-221.51-16.62-38.79-24.87-80.28-27.71-121.77V171.64c19.32-19.32,38.79-38.79,60.96-55.41v263c0,66.5,0,132.85,2.7,199.35,2.7,77.58,33.25,143.93,85.82,202.19,63.65,69.2,141.23,107.99,235.3,110.69,88.66,5.54,168.94-24.87,235.3-83.12,80.28-69.2,119.07-157.86,116.23-263-5.54-171.64-135.69-310.18-304.63-326.8-33.25-2.7-66.5-2.7-99.6-2.7-16.62,0-22.17-5.54-22.17-22.17v-22.17c0-8.24,5.54-13.78,13.78-13.78,116.23-8.24,224.21,5.54,318.42,83.12,94.2,74.74,143.93,174.48,149.48,293.55,2.7,83.12-16.62,157.86-58.11,227.05h.28Z" style="fill:#fff;"/><path d="M460.08,526.15v-41.49c0-16.62,5.54-22.17,22.17-22.17h72.04c38.79,0,77.58,30.41,83.12,69.2,8.24,47.03-13.78,85.82-55.41,102.44-35.95,13.78-80.28,0-105.14-33.25-16.62-24.87-16.62-52.57-16.62-74.74h-.14ZM548.6,0c-60.96,0-116.37,11.08-171.64,27.71-5.54,5.54-8.24,11.08-8.24,22.17v512.22c0,85.82,60.96,152.32,146.78,171.64,74.74,16.62,163.4-24.87,193.81-99.6,55.41-130.15-33.25-254.76-163.4-260.3h-69.2c-16.62,0-22.17-5.54-22.17-22.17v-22.17c0-8.24,5.54-11.08,11.08-13.78,69.2,0,135.69-5.54,199.35,33.25,85.82,52.57,127.31,141.23,113.53,243.68-19.32,143.93-163.4,235.3-304.63,193.81-105.14-30.41-174.48-121.77-174.48-232.6V52.71c-2.7,0-2.7,2.7-5.54,2.7-30.41,16.62-58.11,33.25-85.82,55.41l-2.7,2.7v263c0,66.5,0,132.85,2.7,199.35,2.7,77.58,33.25,143.93,85.82,202.19,63.65,69.2,141.23,107.99,235.3,110.69,88.66,5.54,168.94-24.87,235.3-83.12,80.28-69.2,119.07-157.86,116.23-263-5.54-171.64-135.69-310.18-304.63-326.8-33.25-2.7-66.5-2.7-99.6-2.7-16.62,0-22.17-5.54-22.17-22.17v-22.17c0-8.24,5.54-13.78,13.78-13.78,116.23-8.24,224.21,5.54,318.42,83.12,94.2,74.74,143.93,174.48,149.48,293.55,2.7,80.28-13.78,157.86-55.41,227.05-99.6,163.4-301.79,229.75-481.82,163.4-107.99-41.49-182.72-116.23-224.21-221.51-16.62-38.79-24.87-80.28-27.71-121.77V171.78l-5.54,5.54c-11.08,11.08-19.32,24.87-30.41,35.95C41.63,304.63,0,418.16,0,540.07c0,299.09,240.84,539.93,539.93,539.93s539.93-240.84,539.93-539.93S847.26.14,548.17.14h0l.43-.14Z" style="fill:url(#linear-gradient);"/></svg>