<?xml version="1.0" encoding="UTF-8"?>
<svg id="Layer_1" xmlns="http://www.w3.org/2000/svg" version="1.1" viewBox="0 0 1080 1080">
  <!-- Generator: Adobe Illustrator 29.0.0, SVG Export Plug-In . SVG Version: 2.1.0 Build 186)  -->
  <defs>
    <style>
      .st0 {
        fill: #3707a2;
      }

      .st1 {
        fill: #ff5700;
      }

      .st2 {
        fill: #fff;
      }

      .st3 {
        fill: #00cfff;
      }

      .st4 {
        fill: #ff0092;
      }

      .st5 {
        fill: red;
      }

      .st6 {
        fill: #00720e;
      }

      .st7 {
        fill: #09cd52;
      }
    </style>
  </defs>
  <path class="st2" d="M540,0h0c298.2,0,540,241.8,540,540h0c0,298.2-241.8,540-540,540h0C241.8,1080,0,838.2,0,540h0C0,241.8,241.8,0,540,0Z"/>
  <path class="st3" d="M337.3,420.1c0,44.8,14.4,86.2,38.9,119.9-24.5,33.7-38.9,75.1-38.9,119.9s14.4,86.2,38.9,119.9c29.3,40.3,72.9,69.5,123.4,80v4.3h-165.2V216h165.2v4.3c-92.7,19.3-162.3,101.4-162.3,199.8h0,0Z"/>
  <path class="st0" d="M499.7,220.3v239.8c-50.5,10.5-94.1,39.7-123.4,80-24.5-33.7-38.9-75.1-38.9-119.9,0-98.4,69.6-180.6,162.3-199.8h0,0Z"/>
  <path class="st4" d="M541.5,216h-.3c-14.2,0-28.1,1.5-41.5,4.3v239.8c13.4-2.8,27.3-4.3,41.5-4.3h.3c67.9,0,128.1,33.2,165.2,84.2,24.5-33.7,38.9-75.1,38.9-119.9,0-112.7-91.4-204.1-204.1-204.1ZM537.2,453.8c-18.3,0-33-14.8-33-33s14.8-33,33-33,33,14.8,33,33-14.8,33-33,33Z"/>
  <circle class="st0" cx="537.2" cy="420.8" r="33"/>
  <path class="st7" d="M499.7,460v159.9c-50.5-10.5-94.1-39.7-123.4-80,29.3-40.3,72.9-69.5,123.4-80h0Z"/>
  <path class="st5" d="M706.7,540c-37.1,51-97.3,84.2-165.2,84.2h-.3c-14.2,0-28.1-1.5-41.5-4.3v-159.9c13.4-2.8,27.3-4.3,41.5-4.3h.3c67.9,0,128.1,33.2,165.2,84.2Z"/>
  <path class="st1" d="M706.7,540c-37.1,51-97.3,84.2-165.2,84.2h-.3c-14.2,0-28.1-1.5-41.5-4.3v239.8c13.4,2.8,27.3,4.3,41.5,4.3h.3c67.9,0,128.1-33.2,165.2-84.2,24.5-33.7,38.9-75.1,38.9-119.9s-14.4-86.2-38.9-119.9ZM537.2,693.6c-18.3,0-33-14.8-33-33s14.8-33,33-33,33,14.8,33,33-14.8,33-33,33Z"/>
  <path class="st6" d="M499.7,620v239.8c-50.5-10.5-94.1-39.7-123.4-80-24.5-33.7-38.9-75.1-38.9-119.9s14.4-86.2,38.9-119.9c29.3,40.3,72.9,69.5,123.4,80h0Z"/>
  <circle class="st0" cx="537.2" cy="660.5" r="33"/>
  <circle class="st2" cx="537.2" cy="420.8" r="33"/>
  <circle class="st2" cx="537.2" cy="660.5" r="33"/>
</svg>