<?xml version="1.0" encoding="UTF-8"?>
<svg id="Layer_1" xmlns="http://www.w3.org/2000/svg" version="1.1" viewBox="0 0 1080 1080">
  <!-- Generator: Adobe Illustrator 29.0.0, SVG Export Plug-In . SVG Version: 2.1.0 Build 186)  -->
  <defs>
    <style>
      .st0 {
        fill: #fff;
      }

      .st1 {
        fill: #eaa93b;
      }
    </style>
  </defs>
  <path class="st0" d="M540,0h0c298.2,0,540,241.8,540,540h0c0,298.2-241.8,540-540,540h0C241.8,1080,0,838.2,0,540h0C0,241.8,241.8,0,540,0Z"/>
  <path class="st1" d="M723.3,617.8v-221.8h44.2v221.8h-44.2Z"/>
  <path d="M203.3,684h-95.3v-221.8h91.9c44.2,0,70.4,24.2,70.4,62.2s-16.6,40.8-28.4,45.7c13.8,6.2,31.1,20,31.1,49.7s-28.9,64.2-69.7,64.2h0ZM196.4,500.3h-43.5v51.1h43.5c19.3,0,29.7-10.4,29.7-25.6s-10.4-25.6-29.7-25.6h0ZM199.1,590.8h-46.2v54.6h46.2c20,0,29.7-12.4,29.7-27.7s-9.6-26.9-29.7-26.9Z"/>
  <path d="M409.1,592.8v91.2h-44.2v-91.2l-68.4-130.5h48.4l42.8,89.7,42.2-89.9h48.4l-68.4,130.6h-.7,0Z"/>
  <path d="M604.5,684h-95.3v-221.8h91.9c44.2,0,70.4,24.2,70.4,62.2s-16.6,40.8-28.4,45.7c13.8,6.2,31.1,20,31.1,49.7s-28.9,64.2-69.7,64.2h0ZM597,500.3h-43.5v51.1h43.5c19.3,0,29.7-10.4,29.7-25.6s-10.4-25.6-29.7-25.6h0ZM599.8,590.8h-46.2v54.6h46.2c20,0,29.7-12.4,29.7-27.7s-9.7-26.9-29.7-26.9Z"/>
  <path d="M911.2,500.3v183h-44.2v-183h-59.3v-38.7h164.5v38.7h-60.9Z"/>
</svg>