<?xml version="1.0" encoding="UTF-8"?>
<svg id="Layer_1" xmlns="http://www.w3.org/2000/svg" version="1.1" viewBox="0 0 1080 1080">
  <!-- Generator: Adobe Illustrator 29.0.0, SVG Export Plug-In . SVG Version: 2.1.0 Build 186)  -->
  <defs>
    <style>
      .st0 {
        fill: #72bb7e;
      }

      .st1 {
        fill: #fff;
      }
    </style>
  </defs>
  <path class="st1" d="M540,0h0c298.1,0,540,241.9,540,540h0c0,298.1-241.9,540-540,540h0C241.9,1080,0,838.1,0,540h0C0,241.9,241.9,0,540,0Z"/>
  <path d="M265,406.1c-4.3-5.8-10.1-10.1-15.8-13-5.8-1.4-13-4.3-18.7-4.3s-13,0-21.6,2.9c-5.8,1.4-11.5,5.8-15.8,10.1s-7.2,10.1-10.1,15.8c-4.3,13-4.3,27.4,0,40.3,1.4,5.8,5.8,11.5,10.1,15.8s10.1,8.6,15.8,10.1,13,4.3,21.6,2.9c5.8,0,13,0,18.7-4.3,5.8-2.9,11.5-7.2,15.8-13l-10.1-8.6c-1.4,4.3-5.8,5.8-10.1,8.6s-10.1,4.3-13,4.3-10.1,0-14.4-1.4-8.6-4.3-11.5-7.2-5.8-7.2-7.2-13c-2.9-10.1-2.9-20.2,0-28.8,0-4.3,4.3-8.6,7.2-13,2.9-2.9,7.2-5.8,11.5-7.2s10.1-2.9,14.4-1.4c5.8,0,10.1,0,13,4.3,4.3,1.4,7.2,5.8,10.1,8.6l10.1-8.6h0ZM298.1,486.7h13v-47.5c0-7.2,0-13,4.3-20.2,1.4-4.3,5.8-8.6,10.1-10.1,2.9-1.4,5.8-4.3,10.1-4.3h5.8c10.1,0,17.3,2.9,20.2,8.6,4.3,7.2,5.8,15.8,5.8,24.5v51.8h13v-59c0-10.1-1.4-20.2-8.6-27.4s-14.4-10.1-25.9-10.1-5.8,0-10.1,0-5.8,1.4-8.6,4.3c-2.9,0-5.8,2.9-7.2,5.8s-4.3,4.3-5.8,7.2h0v-73.4h-13v151.2h0l-2.9-1.4h0ZM482.4,440.6v7.2c0,4.3,0,8.6-1.4,11.5,0,2.9-2.9,7.2-5.8,10.1s-5.8,5.8-8.6,5.8c-4.3,1.4-8.6,1.4-13,1.4h-8.6c-1.4,0-5.8-1.4-7.2-2.9s-4.3-2.9-5.8-5.8-1.4-5.8-1.4-8.6v-5.8c0-1.4,1.4-4.3,4.3-5.8,2.9-2.9,7.2-5.8,11.5-5.8s10.1-1.4,14.4-1.4h21.6ZM476.6,429.1h-18.7c-5.8,0-13,1.4-18.7,4.3-5.8,1.4-10.1,5.8-14.4,10.1-4.3,5.8-5.8,11.5-5.8,17.3s0,8.6,1.4,13c1.4,2.9,4.3,5.8,7.2,8.6s5.8,4.3,10.1,5.8c4.3,1.4,8.6,1.4,13,1.4s13,0,18.7-4.3c5.8-2.9,10.1-7.2,13-13h0v14.4h13v-63.4c0-5.8,0-10.1-2.9-14.4s-4.3-7.2-7.2-10.1-7.2-5.8-10.1-5.8c-4.3,0-8.6-1.4-13-1.4-17.3,0-31.7,4.3-40.3,13l8.6,10.1c7.2-7.2,17.3-11.5,28.8-11.5s24.5,8.6,24.5,24.5v2.9h-5.8l-1.4-1.4h0ZM540,393.1v93.6h13v-47.5c0-7.2,0-13,4.3-20.2,1.4-4.3,5.8-8.6,10.1-10.1,2.9-1.4,5.8-4.3,10.1-4.3h5.8c10.1,0,17.3,2.9,20.2,8.6,4.3,7.2,5.8,15.8,5.8,24.5v51.8h13v-59c0-10.1-1.4-20.2-8.6-27.4s-14.4-10.1-25.9-10.1-5.8,0-10.1,0-5.8,1.4-8.6,4.3c-2.9,0-5.8,2.9-7.2,5.8-1.4,1.4-4.3,4.3-5.8,7.2h0v-14.4h-15.8v-2.9h0ZM679.7,424.8c1.4-4.3,4.3-8.6,7.2-11.5s7.2-5.8,10.1-7.2c4.3-1.4,8.6-2.9,13-2.9s10.1,0,14.4,2.9,8.6,4.3,11.5,7.2,5.8,7.2,7.2,11.5c1.4,4.3,1.4,10.1,1.4,13s0,10.1-1.4,14.4-4.3,8.6-7.2,11.5c-7.2,5.8-15.8,10.1-24.5,10.1s-10.1,0-13-2.9-7.2-4.3-10.1-7.2-5.8-7.2-7.2-11.5c-5.8-10.1-5.8-20.2,0-28.8h0l-1.4,1.4h0ZM663.8,517c5.8,5.8,13,10.1,20.2,14.4,8.6,2.9,17.3,5.8,24.5,4.3,8.6,0,17.3,0,24.5-5.8,5.8-2.9,11.5-7.2,15.8-13,4.3-4.3,5.8-10.1,7.2-15.8s1.4-10.1,1.4-17.3v-93.6h-13v17.3h0c-4.3-5.8-10.1-11.5-17.3-14.4-2.9,0-5.8-1.4-10.1-2.9s-5.8,0-8.6,0c-5.8,0-13,0-18.7,4.3-5.8,1.4-10.1,5.8-14.4,10.1s-7.2,10.1-10.1,15.8c-1.4,5.8-4.3,13-4.3,18.7s0,13,4.3,18.7c1.4,5.8,5.8,10.1,10.1,15.8,4.3,4.3,10.1,7.2,15.8,10.1,5.8,1.4,13,4.3,18.7,4.3s13,0,20.2-4.3c5.8-2.9,11.5-7.2,15.8-13h0v17.3c0,5.8,0,10.1-1.4,14.4,0,4.3-2.9,8.6-5.8,11.5s-7.2,5.8-11.5,8.6c-5.8,1.4-11.5,2.9-17.3,2.9s-14.4,0-21.6-5.8c-5.8-2.9-11.5-7.2-15.8-13l-10.1,10.1h1.4ZM813.6,432c0-4.3,0-7.2,1.4-11.5,1.4-4.3,4.3-7.2,7.2-10.1s5.8-5.8,10.1-7.2,8.6-1.4,13-1.4,8.6,0,13,1.4c4.3,0,7.2,4.3,10.1,5.8,1.4,2.9,5.8,5.8,5.8,10.1s1.4,7.2,1.4,11.5h-63.4l1.4,1.4h0ZM891.4,443.5v-5.8c0-5.8,0-13-2.9-17.3-1.4-5.8-5.8-10.1-8.6-14.4-4.3-4.3-8.6-7.2-13-10.1-5.8-1.4-13-4.3-18.7-4.3s-13,0-18.7,4.3c-5.8,1.4-10.1,5.8-14.4,10.1-4.3,4.3-7.2,10.1-10.1,15.8-1.4,5.8-4.3,13-4.3,20.2s0,13,4.3,20.2c1.4,5.8,5.8,11.5,10.1,15.8s10.1,8.6,15.8,10.1,13,4.3,18.7,4.3,14.4,0,21.6-4.3c7.2-2.9,13-8.6,18.7-15.8l-10.1-8.6c-2.9,4.3-7.2,8.6-11.5,11.5-5.8,2.9-11.5,5.8-18.7,5.8s-8.6,0-13-1.4c-8.6-2.9-14.4-10.1-17.3-17.3-1.4-4.3-2.9-8.6-2.9-13l76.3-2.9-1.4-2.9h0Z"/>
  <path class="st0" d="M193,738.7h33.1v-145.4h0l93.6,145.4h43.2v-190.1h-33.1v141.1h0l-92.2-141.1h-44.6v190.1ZM416.2,685.4c4.3,11.5,11.5,21.6,21.6,31.7s20.2,15.8,31.7,20.2c13,5.8,25.9,7.2,40.3,7.2s28.8-1.4,40.3-7.2c11.5-4.3,23-11.5,31.7-21.6,8.6-8.6,15.8-20.2,21.6-31.7,5.8-13,7.2-25.9,7.2-40.3s-1.4-28.8-7.2-40.3c-4.3-11.5-11.5-23-21.6-31.7-10.1-8.6-20.2-15.8-31.7-20.2-13-4.3-27.4-7.2-40.3-5.8-13,0-27.4,1.4-40.3,7.2-11.5,4.3-23,11.5-31.7,20.2-10.1,8.6-15.8,20.2-21.6,31.7-5.8,13-7.2,27.4-7.2,41.8s2.9,27.4,7.2,40.3h0v-1.4ZM449.3,616.3c2.9-8.6,7.2-15.8,13-21.6,5.8-5.8,13-11.5,20.2-14.4,8.6-4.3,17.3-5.8,25.9-5.8s18.7,1.4,25.9,5.8,14.4,8.6,21.6,14.4c5.8,5.8,10.1,13,13,21.6s4.3,17.3,4.3,25.9,0,18.7-4.3,28.8c-2.9,8.6-7.2,15.8-13,21.6-5.8,5.8-13,11.5-21.6,14.4-8.6,4.3-17.3,5.8-25.9,5.8s-18.7-1.4-25.9-5.8-14.4-8.6-20.2-14.4-10.1-13-13-21.6c-2.9-10.1-5.8-18.7-4.3-28.8,0-8.6,0-17.3,4.3-25.9h0ZM691.2,738.7h31.7l44.6-144h0l44.6,144h33.1l56.2-190.1h-34.6l-37.4,136.8h0l-41.8-136.8h-33.1l-43.2,136.8h0l-36-136.8h-36l56.2,190.1h-4.3,0Z"/>
</svg>