<?xml version="1.0" encoding="UTF-8"?><svg id="Layer_1" xmlns="http://www.w3.org/2000/svg" width="1080" height="1080" viewBox="0 0 1080 1080"><path d="M540,0h0C838.42,0,1080,241.58,1080,540h0c0,298.42-241.58,540-540,540h0C241.58,1080,0,838.42,0,540H0C0,241.58,241.58,0,540,0Z" style="fill:#0052ff;"/><path d="M540,730.42c-103.74,0-190.42-85.26-190.42-190.42s85.26-190.42,190.42-190.42,171.95,68.21,186.16,157.74h191.84c-15.63-194.68-179.05-348.16-379.42-348.16s-379.42,170.53-379.42,379.42,170.53,379.42,379.42,379.42,362.37-152.05,379.42-348.16h-191.84c-14.21,90.95-93.79,157.74-186.16,157.74h0v2.84h0Z" style="fill:#fff;"/></svg>