<?xml version="1.0" encoding="UTF-8"?>
<svg id="Layer_1" xmlns="http://www.w3.org/2000/svg" version="1.1" viewBox="0 0 1080 1080">
  <!-- Generator: Adobe Illustrator 29.0.0, SVG Export Plug-In . SVG Version: 2.1.0 Build 186)  -->
  <defs>
    <style>
      .st0 {
        fill: #364d87;
      }

      .st1 {
        fill: #f94a29;
      }

      .st2 {
        fill: #fff;
      }
    </style>
  </defs>
  <path class="st2" d="M540,0h0c298.2,0,540,241.8,540,540h0c0,298.2-241.8,540-540,540h0C241.8,1080,0,838.2,0,540h0C0,241.8,241.8,0,540,0Z"/>
  <path class="st0" d="M206.9,577.4l23.9,20.6c-4.6,6.5-10.1,12.1-16.4,16.8-7.8,6.2-16.6,11.1-25.8,14.7-10.2,4-21.2,6-32.3,5.9-16.9.3-33.4-4-47.8-12.2-13.7-7.9-24.9-19.4-32.5-33.4-8.1-14.7-12.1-31.1-11.8-48,0-12.5,2.2-25.1,6.6-36.9,4.5-11.4,10.9-21.6,19.3-30.4,8.2-8.8,18.1-15.7,29.2-20.5,12.1-5,24.9-7.6,37.9-7.5,15.6-.6,31,3,44.6,10.4,11.2,6.6,21,15.3,28.7,25.8l-24.2,21.3c-5.3-7.9-12.2-14.7-20.2-20-8.8-5.3-18.9-7.9-28.9-7.5-10.9-.3-21.6,2.7-30.5,8.8-8.6,6-15.4,14.3-19.9,23.8-4.6,9.9-7.1,20.9-7.1,32s2.3,21.5,7.1,31.1c4.5,9.1,10.9,16.8,19.3,22.5,8.8,5.6,18.9,8.5,29.2,8.2,8.8.4,17.6-1.3,25.6-4.5,5.8-2.6,11.1-6.2,15.6-10.7l10.4-10.2"/>
  <path class="st0" d="M240.2,567.2c0-11.8,2.9-23.3,8.6-33.7,5.8-10.1,14.1-18.6,24.2-24.5,22.3-12.1,49.2-12.1,71.6,0,10.1,5.9,18.3,14.4,24,24.5,17.9,33.5,5.2,75.2-28.4,93.2-32.4,17.4-72.9,6-91.6-25.6-5.8-10.2-8.8-21.9-8.6-33.7v-.3h.1c0,.1,0,.2,0,.2ZM308.5,607.7c7.2.3,14.4-1.9,20.2-6.2,5.3-4,9.5-9.2,12.1-15.4,2.6-5.8,4-12.1,4-18.4s-1.4-12.5-4-18.4c-2.6-6.2-6.9-11.5-12.1-15.4-12.2-8.2-28.2-8.2-40.3,0-5.2,4-9.2,9.2-11.8,15.1-2.6,5.8-4,12.1-4,18.4s1.4,12.8,4,18.6c2.6,6.2,6.9,11.5,12.1,15.4,5.9,4.3,13,6.5,20.2,6.2"/>
  <path class="st0" d="M383.6,450.9h32v33.7h-32v-33.7ZM383.6,504.1h32v126.6h-32v-126.6h0Z"/>
  <path class="st0" d="M428.1,630.7v-126.4h30.5l.9,14.4c4.3-4.5,9.1-8.1,14.3-11.2,7.3-4.3,15.7-6.3,24.2-5.9,13.5-.9,26.8,4.3,36.3,14.1,8.9,10.7,13.4,24.3,12.5,38.2v76.8h-32.1v-76.6c.4-6.9-2-13.7-6.6-18.6-2.2-2.2-4.9-4-7.9-5-3-1.2-6.2-1.7-9.2-1.4-8.4-.3-16.4,3.3-22,9.7-5.8,6.6-8.9,15-8.6,23.8v68.5h-32.1c0-.1,0-.1,0-.1Z"/>
  <path class="st1" d="M941.9,534.4l56.5-83.4h-53.4l-29.2,46.7-30.1-46.7h-59.2l2.7,3.7-1.9-.9c-14-5.2-28.8-7.8-43.8-7.6-17.3-.3-34.1,4-49.2,12.5-10.7,6.2-20,14.5-27.1,24.5-7.9-9.8-18-17.6-29.5-22.5-15.8-6.6-32.8-9.8-49.8-9.6h-69.5v179.7h69.3c17.3.3,34.1-3,49.8-9.8,11.5-4.9,21.6-12.5,29.5-22.2,7.3,10.1,16.8,18.4,27.7,24.5,15,8.2,31.8,12.2,49,12.1,16.1.3,32.1-3.2,46.8-10.1l-3.9,5.6h52.6l35.1-55.2,36.3,55.2h60.2l-68.7-96.5h.1-.1c0-.1,0-.2,0-.2ZM662.3,575.4c-9.8,9.2-23.2,14.3-36.4,13.4h-19.6v-96h19.6c13.8-1.3,27.7,3.7,37.6,13.4,8.3,9.7,12.5,22,12.2,34.7.3,12.7-4.5,25.2-13.4,34.4h0ZM854.9,588.4l-22.8-21.2c-5.3,6.9-11.8,12.7-19.3,17.4-7.9,4-17,6-25.8,5.6-8.9.3-17.6-2-25.3-6.5-7.1-4.3-13-10.4-16.7-18-4-8.1-6-17-5.9-25.8,0-8.8,1.7-17.4,5.6-25.3,3.7-7.3,9.5-13.5,16.4-18,7.9-4.6,17-7.1,26.1-6.6,8.5,0,16.8,1.9,24.2,6.2,7.1,4.3,13.4,9.8,18.3,16.6l23.9-23.8,34.8,49.8-33.7,49.5h.1Z"/>
</svg>