<?xml version="1.0" encoding="UTF-8"?>
<svg id="Layer_1" xmlns="http://www.w3.org/2000/svg" xmlns:xlink="http://www.w3.org/1999/xlink" version="1.1" viewBox="0 0 1080 1080">
  <!-- Generator: Adobe Illustrator 29.0.0, SVG Export Plug-In . SVG Version: 2.1.0 Build 186)  -->
  <defs>
    <style>
      .st0 {
        fill: url(#linear-gradient);
      }

      .st1 {
        fill: #fff;
      }
    </style>
    <linearGradient id="linear-gradient" x1="318.4" y1="165" x2="762.2" y2="-278.8" gradientTransform="translate(0 482) scale(1 -1)" gradientUnits="userSpaceOnUse">
      <stop offset="0" stop-color="#00abff"/>
      <stop offset=".4" stop-color="#a800ff"/>
      <stop offset=".6" stop-color="#d82cc1"/>
      <stop offset=".9" stop-color="#fa8659"/>
    </linearGradient>
  </defs>
  <circle class="st1" cx="540" cy="540" r="540"/>
  <path class="st0" d="M890,530.7c-1.4,31.7-15.8,56.2-36,76.3l-122.4,122.4c-7.2,7.2-10.1,13-4.3,23,11.5,23,4.3,44.7-15.8,59-17.3,13-40.3,10.1-57.6-7.2-17.3-15.8-33.1-33.1-49-49l-77.8-77.8c-4.3-4.3-8.6-8.6-13-14.4-14.4-20.2-15.8-37.5-4.3-53.3,15.8-20.2,38.9-25.9,60.5-15.8,10.1,4.3,20.2,13,27.4,20.2,18.7,18.7,37.5,37.5,56.2,57.6,5.8,5.8,10.1,7.2,17.3,1.4,36-36,72-70.6,106.6-106.6,23-23,23-40.3-1.4-64.8-38.9-38.9-79.2-77.8-118.1-116.7-17.3-17.3-18.7-40.3-4.3-59,10.1-14.4,25.9-20.2,43.2-14.4s23,10.1,31.7,18.7c44.7,43.2,89.3,87.9,132.5,132.5,17.3,18.7,27.4,41.8,28.8,67.7h0ZM228.9,624.3c38.9,40.3,77.8,79.2,118.1,118.1,7.2,7.2,15.8,14.4,24.5,20.2,11.5,5.8,23,10.1,37.5,5.8,28.8-11.5,38.9-50.4,15.8-72-40.3-40.3-80.7-79.2-121-118.1-18.7-18.7-21.6-34.6-8.6-53.3,2.9-4.3,7.2-10.1,11.5-14.4,33.1-34.6,67.7-67.7,102.3-102.3,7.2-7.2,13-7.2,18.7,0,18.7,20.2,38.9,38.9,57.6,57.6s20.2,17.3,33.1,21.6c20.2,5.8,38.9-1.4,53.3-18.7,11.5-14.4,10.1-28.8-1.4-47.5-2.9-4.3-5.8-8.6-10.1-13-44.7-44.6-89.3-89.3-134-134-17.3-15.8-40.3-18.7-57.6-5.8-21.6,14.4-28.8,37.5-17.3,59,5.8,10.1,2.9,15.8-4.3,23-40.3,38.9-79.2,77.8-118.1,116.7-21.6,21.6-38.9,46.1-38.9,70.6,1.4,38.9,17.3,63.4,38.9,86.4h0Z"/>
</svg>