<?xml version="1.0" encoding="UTF-8"?>
<svg id="Layer_1" xmlns="http://www.w3.org/2000/svg" version="1.1" viewBox="0 0 1080 1080">
  <!-- Generator: Adobe Illustrator 29.0.0, SVG Export Plug-In . SVG Version: 2.1.0 Build 186)  -->
  <defs>
    <style>
      .st0 {
        fill: #fff;
      }
    </style>
  </defs>
  <path class="st0" d="M540,0h0c298.2,0,540,241.8,540,540h0c0,298.2-241.8,540-540,540h0C241.8,1080,0,838.2,0,540h0C0,241.8,241.8,0,540,0Z"/>
  <path d="M871.8,399.7c-18.1-42.9-44.1-81.5-77.2-114.3-33.1-33.1-71.7-59-114.3-77.2-44.3-18.7-91.6-28.2-140.3-28.2s-95.9,9.5-140.3,28.2c-42.9,18.1-81.5,44.1-114.3,77.2-32.8,33.1-59,71.7-77.2,114.3-18.7,44.4-28.2,91.6-28.2,140.3s9.5,95.9,28.2,140.3c18.1,42.9,44.1,81.5,77.2,114.3,33.1,33.1,71.7,59,114.3,77.2,44.4,18.7,91.6,28.2,140.3,28.2s95.9-9.5,140.3-28.2c42.9-18.1,81.5-44.1,114.3-77.2,33.1-33.1,59-71.7,77.2-114.3,18.7-44.3,28.2-91.6,28.2-140.3s-9.5-95.9-28.2-140.3h0ZM540,590.1c-27.7,0-50.1-22.5-50.1-50.1s22.5-50.1,50.1-50.1,50.1,22.5,50.1,50.1-22.5,50.1-50.1,50.1ZM836.6,665.3c-16.1,38.3-39.5,72.9-69.1,102.2s-63.9,52.7-102.2,69.1c-34.3,14.4-70.3,22.8-107.4,24.8v-235.3c40-8.3,70.3-43.8,70.3-86.1s-39.5-88.1-88.1-88.1-88.1,39.7-88.1,88.1,30.2,78,70.3,86.1v235.3c-37.1-2-73.1-10.4-107.4-24.8-38.3-16.1-72.9-39.5-102.2-69.1s-52.7-63.9-69.1-102.2c-16.7-39.7-25.3-81.8-25.3-125.3s8.6-85.5,25.3-125.3c16.1-38.3,39.5-72.9,69.1-102.2,29.7-29.4,63.9-52.7,102.2-69.1,39.7-16.7,81.8-25.3,125.3-25.3s85.5,8.6,125.3,25.3c38.3,16.1,72.9,39.5,102.2,69.1s52.7,63.9,69.1,102.2c16.7,39.7,25.3,81.8,25.3,125.3s-8.3,85.5-25.3,125.3h0Z"/>
  <circle cx="299.8" cy="487" r="25.1"/>
  <circle cx="381.6" cy="514.1" r="25.1"/>
  <circle cx="699.3" cy="514.1" r="25.1"/>
  <circle cx="780.2" cy="487" r="25.1"/>
</svg>