<?xml version="1.0" encoding="UTF-8"?>
<svg id="Layer_1" xmlns="http://www.w3.org/2000/svg" version="1.1" viewBox="0 0 1080 1080">
  <!-- Generator: Adobe Illustrator 29.0.0, SVG Export Plug-In . SVG Version: 2.1.0 Build 186)  -->
  <defs>
    <style>
      .st0 {
        fill: #a4a6a8;
      }

      .st1 {
        fill: #6d6e71;
      }

      .st2 {
        fill: #fff;
      }

      .st3 {
        fill: #5fc0b7;
      }
    </style>
  </defs>
  <path class="st2" d="M540,0h0c298.2,0,540,241.8,540,540h0c0,298.2-241.8,540-540,540h0C241.8,1080,0,838.2,0,540h0C0,241.8,241.8,0,540,0Z"/>
  <path class="st0" d="M548.9,316.8l53.9-31.7v-73.4l-55.3-31.7v136.8h1.4Z"/>
  <path class="st3" d="M349.8,637.8v-207.4l179.7-103.7v-146.6l-295.9,171.4c-6.1,3.2-9.8,9.8-9.8,16.7v341.7l127.3-73.2-1.4,1.2h.1Z"/>
  <path class="st1" d="M720.3,653l-181.1,103.7-179.7-103.7-127.3,73.2,298.8,171.4c5.5,3.2,12.4,3.2,17.9,0l298.8-171.4-128.5-73.2h1.4-.3Z"/>
  <path class="st0" d="M847.6,351.4l-118.9-67.7v74.6l-127.3,72,127.3,73.1v132.8l127.3,73.2v-341.4c.6-6.6-2.6-13-8.3-16.7h0c0,.1,0,.1,0,.1Z"/>
  <path class="st1" d="M475.8,502.4v145.1l124.4-70.6v-145.1l-124.4,70.6h0Z"/>
</svg>