<?xml version="1.0" encoding="UTF-8"?>
<svg id="Layer_1" xmlns="http://www.w3.org/2000/svg" version="1.1" viewBox="0 0 1080 1080">
  <!-- Generator: Adobe Illustrator 29.0.0, SVG Export Plug-In . SVG Version: 2.1.0 Build 186)  -->
  <defs>
    <style>
      .st0 {
        fill: #ed8768;
        opacity: .8;
      }

      .st0, .st1 {
        isolation: isolate;
      }

      .st1 {
        opacity: .1;
      }

      .st2 {
        fill: #fff;
      }

      .st3 {
        fill: #ec6c46;
      }
    </style>
  </defs>
  <path class="st2" d="M540,0h0c298.2,0,540,241.8,540,540h0c0,298.2-241.8,540-540,540h0C241.8,1080,0,838.2,0,540h0C0,241.8,241.8,0,540,0Z"/>
  <g id="sidebar">
    <g id="mini-sidebar">
      <g id="sidebar-small">
        <g id="logo-mini">
          <path id="Path" class="st0" d="M786.2,651.6c0,92.2-76.3,168.5-169.9,168.5h-322.6v-112.3h322.6c30.2,0,56.2-24.5,56.2-56.2s-24.5-56.2-56.2-56.2h-113.8v-112.3h113.8c30.2,0,56.2-24.5,56.2-56.2s-24.5-56.2-56.2-56.2h-322.6v-110.9h322.6c93.6,0,169.9,74.9,169.9,168.5s-15.8,80.6-43.2,112.3c28.8,30.2,43.2,70.6,43.2,110.9h0Z"/>
          <path id="Shape" class="st1" d="M293.8,707.8h276.5c-59,67.7-152.6,112.3-257.8,112.3h-18.7v-112.3h0ZM629.3,595.4h-106.6v-112.3h106.6c8.6,37.4,8.6,76.3,0,112.3h0ZM571.7,372.2h-277.9v-112.3h18.7c106.6,0,198.7,44.6,259.2,112.3h0Z"/>
          <path id="Path-2" class="st3" d="M293.8,259.9c157,0,283.7,125.3,283.7,279.4s-126.7,280.8-283.7,280.8v-112.3c93.6,0,169.9-74.9,169.9-168.5s-76.3-168.5-169.9-168.5v-110.9h0Z"/>
        </g>
      </g>
    </g>
  </g>
</svg>