<?xml version="1.0" encoding="UTF-8"?>
<svg id="Layer_1" xmlns="http://www.w3.org/2000/svg" version="1.1" viewBox="0 0 1080 1080">
  <!-- Generator: Adobe Illustrator 29.0.0, SVG Export Plug-In . SVG Version: 2.1.0 Build 186)  -->
  <defs>
    <style>
      .st0 {
        fill: #7200d3;
      }

      .st1 {
        fill: #fff;
      }

      .st2 {
        fill: #03ffc8;
      }
    </style>
  </defs>
  <path class="st1" d="M540,0h0c298.2,0,540,241.8,540,540h0c0,298.2-241.8,540-540,540h0C241.8,1080,0,838.2,0,540h0C0,241.8,241.8,0,540,0Z"/>
  <rect class="st0" x="192.2" y="360" width="458.2" height="122.7" transform="translate(-174.5 421.3) rotate(-45)"/>
  <polygon class="st2" points="864 540 791.9 612.1 746.9 574.8 746.1 657.9 540 864 341.9 665.9 414 593.6 519.3 698.8 634.5 581.6 634.5 550.5 625.8 549.7 520.1 660 506.9 500.7 665.9 341.9 864 540"/>
</svg>