<?xml version="1.0" encoding="UTF-8"?>
<svg id="Layer_1" xmlns="http://www.w3.org/2000/svg" xmlns:xlink="http://www.w3.org/1999/xlink" version="1.1" viewBox="0 0 1080 1080">
  <!-- Generator: Adobe Illustrator 29.0.0, SVG Export Plug-In . SVG Version: 2.1.0 Build 186)  -->
  <defs>
    <style>
      .st0 {
        fill: url(#linear-gradient);
      }

      .st1 {
        fill: #fff;
      }
    </style>
    <linearGradient id="linear-gradient" x1="290.8" y1="1286.1" x2="847.3" y2="1286.1" gradientTransform="translate(0 -745.9)" gradientUnits="userSpaceOnUse">
      <stop offset="0" stop-color="#6b53a3"/>
      <stop offset="1" stop-color="#7e53a2"/>
    </linearGradient>
  </defs>
  <path class="st1" d="M540,0h0c298.1,0,540,241.9,540,540h0c0,298.1-241.9,540-540,540h0C241.9,1080,0,838.1,0,540h0C0,241.9,241.9,0,540,0Z"/>
  <path class="st0" d="M845.6,505.6c-2.3-30.1-6.9-59.5-16.6-88.1-12.4-37-31.2-70-59.3-97.3-19.7-19.3-42.2-34.4-67.8-44.6-39.5-15.8-80.8-22.8-123.1-22.8-78.9-.3-158-.4-236.9-.6-9.9,0-19.9,0-29.8.4-11.7.6-20,9.4-20.6,21-.3,6-.4,12-.4,18v248.3h-.1v196.3c0,22.5-.1,44.9,0,67.4,0,15.4,9.4,24.6,24.6,24.6h34.6c82.8,0,165.5.3,248.3-.6,38.5-.4,75.5-9.2,110.7-25.1,30.8-14,57.3-34,78.5-60.3,27.4-34.1,43.1-73.6,51.5-116.1,8.1-39.7,9.9-79.9,6.8-120.4h-.3c0-.1,0-.1,0-.1ZM665.4,579.7c-26.3,19.2-53,38-79.3,57.2-23.6,17.1-47.2,34.3-70.8,51.4-3.2,2.3-6.5,4.5-9.9,6.3-5.9,3-11.2,2.5-16.3-1.7-5-4-6.2-9.2-4.5-15.3,3.9-13.5,9.4-26.5,14.3-39.7,5.5-14.7,10.8-29.2,15.8-44.1,2.7-7.9-.4-15-8.6-19.2-14.8-7.5-30-14.7-44.9-21.9-10.9-5.3-22-10.2-33-15.7-5.3-2.7-10.7-5.8-11.5-12.8-.7-5.8.3-10.7,5-14.3,9.2-7.1,18.6-14.1,27.9-21,26.2-19.1,52.4-38.2,78.8-57.2,17.1-12.5,34.4-25.1,51.7-37.4,3.7-2.7,7.5-5.6,12.5-5.5,9.8,0,17.1,9.5,14.1,18.9-4.2,12.5-8.8,24.9-13.4,37.3-5.8,15.8-11.8,31.5-17.4,47.4-2.7,7.8,1.6,15.5,10.5,19.9,14.3,6.9,28.5,13.7,42.8,20.5,11.7,5.6,23.2,11.2,34.7,17,14.4,7.3,15.3,20.2,1.9,29.8h-.3c0,.1,0,.1,0,.1Z"/>
</svg>