<?xml version="1.0" encoding="UTF-8"?>
<svg id="Layer_1" xmlns="http://www.w3.org/2000/svg" xmlns:xlink="http://www.w3.org/1999/xlink" version="1.1" viewBox="0 0 1080 1080">
  <!-- Generator: Adobe Illustrator 29.0.0, SVG Export Plug-In . SVG Version: 2.1.0 Build 186)  -->
  <defs>
    <style>
      .st0 {
        fill: #a0bfa2;
      }

      .st1 {
        fill: url(#linear-gradient2);
      }

      .st2 {
        fill: url(#linear-gradient1);
      }

      .st3 {
        fill: url(#linear-gradient3);
      }

      .st4 {
        fill: url(#linear-gradient6);
      }

      .st5 {
        fill: url(#linear-gradient8);
      }

      .st6 {
        fill: url(#linear-gradient7);
      }

      .st7 {
        fill: url(#linear-gradient5);
      }

      .st8 {
        fill: url(#linear-gradient4);
      }

      .st9 {
        fill: url(#linear-gradient);
      }

      .st10 {
        fill: #fff;
      }
    </style>
    <linearGradient id="linear-gradient" x1="417.2" y1="1239.7" x2="587.3" y2="1284.2" gradientTransform="translate(0 -723.9)" gradientUnits="userSpaceOnUse">
      <stop offset=".2" stop-color="#a0bfa2"/>
      <stop offset=".3" stop-color="#a0bfa2" stop-opacity="1"/>
      <stop offset=".4" stop-color="#a0bfa2" stop-opacity=".9"/>
      <stop offset=".6" stop-color="#a0bfa2" stop-opacity=".9"/>
      <stop offset=".7" stop-color="#a0bfa2" stop-opacity=".8"/>
      <stop offset=".8" stop-color="#a0bfa2" stop-opacity=".6"/>
      <stop offset=".9" stop-color="#a0bfa2" stop-opacity=".4"/>
      <stop offset=".9" stop-color="#a0bfa2" stop-opacity=".3"/>
    </linearGradient>
    <linearGradient id="linear-gradient1" x1="527.9" y1="1400.4" x2="527.9" y2="1125.4" gradientTransform="translate(0 -723.9)" gradientUnits="userSpaceOnUse">
      <stop offset=".2" stop-color="#a0bfa2"/>
      <stop offset=".3" stop-color="#a0bfa2" stop-opacity="1"/>
      <stop offset=".4" stop-color="#a0bfa2" stop-opacity=".9"/>
      <stop offset=".6" stop-color="#a0bfa2" stop-opacity=".9"/>
      <stop offset=".7" stop-color="#a0bfa2" stop-opacity=".8"/>
      <stop offset=".8" stop-color="#a0bfa2" stop-opacity=".6"/>
      <stop offset=".9" stop-color="#a0bfa2" stop-opacity=".4"/>
      <stop offset=".9" stop-color="#a0bfa2" stop-opacity=".3"/>
    </linearGradient>
    <linearGradient id="linear-gradient2" x1="575" y1="1281.8" x2="804.8" y2="1241.3" gradientTransform="translate(0 -723.9)" gradientUnits="userSpaceOnUse">
      <stop offset=".2" stop-color="#a0bfa2"/>
      <stop offset=".3" stop-color="#a0bfa2" stop-opacity="1"/>
      <stop offset=".4" stop-color="#a0bfa2" stop-opacity=".9"/>
      <stop offset=".6" stop-color="#a0bfa2" stop-opacity=".9"/>
      <stop offset=".7" stop-color="#a0bfa2" stop-opacity=".8"/>
      <stop offset=".8" stop-color="#a0bfa2" stop-opacity=".6"/>
      <stop offset=".9" stop-color="#a0bfa2" stop-opacity=".4"/>
      <stop offset=".9" stop-color="#a0bfa2" stop-opacity=".3"/>
    </linearGradient>
    <linearGradient id="linear-gradient3" x1="725.4" y1="1364.4" x2="867.7" y2="1194.8" gradientTransform="translate(0 -723.9)" gradientUnits="userSpaceOnUse">
      <stop offset=".2" stop-color="#a0bfa2"/>
      <stop offset=".3" stop-color="#a0bfa2" stop-opacity="1"/>
      <stop offset=".4" stop-color="#a0bfa2" stop-opacity=".9"/>
      <stop offset=".6" stop-color="#a0bfa2" stop-opacity=".9"/>
      <stop offset=".7" stop-color="#a0bfa2" stop-opacity=".8"/>
      <stop offset=".8" stop-color="#a0bfa2" stop-opacity=".6"/>
      <stop offset=".9" stop-color="#a0bfa2" stop-opacity=".4"/>
      <stop offset=".9" stop-color="#a0bfa2" stop-opacity=".3"/>
    </linearGradient>
    <linearGradient id="linear-gradient4" x1="785.9" y1="1205.9" x2="699" y2="1444.7" gradientTransform="translate(0 -723.9)" gradientUnits="userSpaceOnUse">
      <stop offset=".2" stop-color="#a0bfa2"/>
      <stop offset=".3" stop-color="#a0bfa2" stop-opacity="1"/>
      <stop offset=".4" stop-color="#a0bfa2" stop-opacity=".9"/>
      <stop offset=".6" stop-color="#a0bfa2" stop-opacity=".9"/>
      <stop offset=".7" stop-color="#a0bfa2" stop-opacity=".8"/>
      <stop offset=".8" stop-color="#a0bfa2" stop-opacity=".6"/>
      <stop offset=".9" stop-color="#a0bfa2" stop-opacity=".4"/>
      <stop offset=".9" stop-color="#a0bfa2" stop-opacity=".3"/>
    </linearGradient>
    <linearGradient id="linear-gradient5" x1="889.5" y1="1409" x2="805.3" y2="1360.3" gradientTransform="translate(0 -723.9)" gradientUnits="userSpaceOnUse">
      <stop offset=".2" stop-color="#a0bfa2"/>
      <stop offset=".3" stop-color="#a0bfa2" stop-opacity="1"/>
      <stop offset=".4" stop-color="#a0bfa2" stop-opacity=".9"/>
      <stop offset=".6" stop-color="#a0bfa2" stop-opacity=".9"/>
      <stop offset=".7" stop-color="#a0bfa2" stop-opacity=".8"/>
      <stop offset=".8" stop-color="#a0bfa2" stop-opacity=".6"/>
      <stop offset=".9" stop-color="#a0bfa2" stop-opacity=".4"/>
      <stop offset=".9" stop-color="#a0bfa2" stop-opacity=".3"/>
    </linearGradient>
    <linearGradient id="linear-gradient6" x1="120.7" y1="1215.4" x2="364.1" y2="1321" gradientTransform="translate(0 -723.9)" gradientUnits="userSpaceOnUse">
      <stop offset=".2" stop-color="#a0bfa2"/>
      <stop offset=".3" stop-color="#a0bfa2" stop-opacity="1"/>
      <stop offset=".4" stop-color="#a0bfa2" stop-opacity=".9"/>
      <stop offset=".6" stop-color="#a0bfa2" stop-opacity=".9"/>
      <stop offset=".7" stop-color="#a0bfa2" stop-opacity=".8"/>
      <stop offset=".8" stop-color="#a0bfa2" stop-opacity=".6"/>
      <stop offset=".9" stop-color="#a0bfa2" stop-opacity=".4"/>
      <stop offset=".9" stop-color="#a0bfa2" stop-opacity=".3"/>
    </linearGradient>
    <linearGradient id="linear-gradient7" x1="347.6" y1="1210.9" x2="229.3" y2="1386.3" gradientTransform="translate(0 -723.9)" gradientUnits="userSpaceOnUse">
      <stop offset=".2" stop-color="#a0bfa2"/>
      <stop offset=".3" stop-color="#a0bfa2" stop-opacity="1"/>
      <stop offset=".4" stop-color="#a0bfa2" stop-opacity=".9"/>
      <stop offset=".6" stop-color="#a0bfa2" stop-opacity=".9"/>
      <stop offset=".7" stop-color="#a0bfa2" stop-opacity=".8"/>
      <stop offset=".8" stop-color="#a0bfa2" stop-opacity=".6"/>
      <stop offset=".9" stop-color="#a0bfa2" stop-opacity=".4"/>
      <stop offset=".9" stop-color="#a0bfa2" stop-opacity=".3"/>
    </linearGradient>
    <linearGradient id="linear-gradient8" x1="162.6" y1="1255.5" x2="378.2" y2="1177.1" gradientTransform="translate(0 -723.9)" gradientUnits="userSpaceOnUse">
      <stop offset=".2" stop-color="#a0bfa2"/>
      <stop offset=".3" stop-color="#a0bfa2" stop-opacity="1"/>
      <stop offset=".4" stop-color="#a0bfa2" stop-opacity=".9"/>
      <stop offset=".6" stop-color="#a0bfa2" stop-opacity=".9"/>
      <stop offset=".7" stop-color="#a0bfa2" stop-opacity=".8"/>
      <stop offset=".8" stop-color="#a0bfa2" stop-opacity=".6"/>
      <stop offset=".9" stop-color="#a0bfa2" stop-opacity=".4"/>
      <stop offset=".9" stop-color="#a0bfa2" stop-opacity=".3"/>
    </linearGradient>
  </defs>
  <path class="st10" d="M540,0h0c298.2,0,540,241.8,540,540h0c0,298.2-241.8,540-540,540h0C241.8,1080,0,838.2,0,540h0C0,241.8,241.8,0,540,0Z"/>
  <path class="st10" d="M363.5,446.5h0c-24.2-32.3-78.5-56.5-139.6-56.5l-42.7,28.8v246.9h11.5-11.5l53.1,23.1s114.2-1.2,148.9-101.5c3.5-9.2,4.6-18.5,4.6-26.5h0c1.1-1.2,15-63.5-24.2-114.2h0ZM268.9,611.5v-130.4c17.3,4.6,57.7,20.8,69.2,60-5.8,42.7-36.9,62.3-69.2,70.4h0ZM338.1,543.5h0v3.5-3.5Z"/>
  <polygon class="st10" points="504.2 663.5 503.1 663.5 551.5 676.2 503.1 688.8 455.8 676.2 455.8 676.2 455.8 676.2 503.1 663.5 455.8 676.2 455.8 401.5 503.1 388.8 551.5 401.5 504.2 413.1 504.2 413.1 503.1 413.1 504.2 413.1 504.2 413.1 551.5 401.5 551.5 676.2 504.2 663.5"/>
  <path class="st10" d="M831.9,612.7h0l25.4,54.2h42.7l-124.6-273.5h-64.6l-120,257.3,24.2,40.4h39.2l25.4-54.2h124.6l25.4,54.2h43.8l25.4-23.1h-42.7l-24.2-55.4h0ZM709.6,575.8l-17.3,36.9,17.3-36.9h0l33.5-73.8-10.4-23.1,45,96.9h-68.1Z"/>
  <path class="st9" d="M504.2,413.1l47.3-12.7-48.5-11.5-48.5,12.7v274.6l48.5-12.7,1.1-250.4h0Z"/>
  <path class="st0" d="M455.8,676.2l48.5,11.5,47.3-11.5-47.3-12.7-48.5,12.7Z"/>
  <path class="st2" d="M504.2,413.1v250.4l47.3,12.7v-274.6l-47.3,11.5h0Z"/>
  <path class="st1" d="M723.5,459.2l54.2,115.4h38.1l-80.8-181.1h-23.1l-121.2,257.3,24.2,40.4,108.5-231.9h0Z"/>
  <path class="st3" d="M735,393.5l79.6,182.3h-106.2l-16.2,36.9h138.5l25.4,55.4h43.8l-124.6-274.6h-40.4Z"/>
  <path class="st8" d="M692.3,612.7l50.8-110.8-19.6-42.7-107.3,231.9h39.2l25.4-54.2h124.6l26.5-24.2h-139.6Z"/>
  <path class="st7" d="M900,666.9h-43.8l-25.4-55.4-26.5,24.2,25.4,54.2h43.8l26.5-23.1h0Z"/>
  <path class="st4" d="M181.1,417.7l42.7-28.8v228.5c42.7-2.3,106.2-15,111.9-77.3,0,0,10.4,38.1-12.7,69.2-24.2,32.3-80.8,55.4-143.1,55.4l1.1-246.9h0Z"/>
  <path class="st6" d="M268.9,443.1v38.1c17.3,4.6,57.7,20.8,69.2,60v2.3c1.1,9.2,5.8,40.4-13.9,65.8-23.1,32.3-81.9,55.4-143.1,55.4l53.1,23.1s114.2-1.2,148.9-101.5c3.5-9.2,4.6-18.5,4.6-27.7-2.3-69.2-60-108.5-118.8-115.4h0Z"/>
  <path class="st5" d="M363.5,446.5c-24.2-32.3-78.5-56.5-139.6-56.5v228.5c8.1,0,16.2-1.2,25.4-2.3,3.5,0,8.1-1.2,12.7-2.3,2.3,0,3.5-1.2,5.8-1.2v-169.6c58.9,5.8,117.7,46.1,120,116.5,1.1,0,15-62.3-24.2-113.1h0Z"/>
</svg>