<?xml version="1.0" encoding="UTF-8"?>
<svg id="Layer_1" xmlns="http://www.w3.org/2000/svg" version="1.1" viewBox="0 0 1080 1080">
  <!-- Generator: Adobe Illustrator 29.0.0, SVG Export Plug-In . SVG Version: 2.1.0 Build 186)  -->
  <defs>
    <style>
      .st0 {
        fill: #82d4ce;
      }

      .st1 {
        fill: #fff;
      }

      .st2 {
        fill: #6348a9;
      }
    </style>
  </defs>
  <path class="st1" d="M540,0h0c298.1,0,540,241.9,540,540h0c0,298.1-241.9,540-540,540h0C241.9,1080,0,838.1,0,540h0C0,241.9,241.9,0,540,0Z"/>
  <path class="st2" d="M864,475.2c0,27.4-2.9,53.3-7.2,80.6-36,184.3-141.1,276.5-318.2,276.5h-112.3c0-1.4,27.4-129.6,27.4-129.6h76.3c95,0,152.6-54.7,172.8-162.7,1.4-7.2,2.9-14.4,4.3-21.6l152.6-89.3c1.4,14.4,2.9,30.2,2.9,44.6h0l1.4,1.4h0Z"/>
  <path class="st2" d="M807.8,313.9l-138.2,79.2c-20.2-13-44.6-20.2-77.8-20.2h-221.8v-2.9l25.9-122.4h230.4c30.2,0,59,2.9,87.8,11.5,33.1,8.6,63.4,25.9,87.8,47.5l5.8,5.8h0v1.4h0Z"/>
  <polygon class="st0" points="589 483.8 568.8 612 472.3 612 472.3 612 426.2 830.9 426.2 832.3 216 832.3 295.2 725.8 347 483.8 589 483.8"/>
</svg>