<?xml version="1.0" encoding="UTF-8"?>
<svg id="Layer_1" xmlns="http://www.w3.org/2000/svg" version="1.1" viewBox="0 0 1080 1080">
  <!-- Generator: Adobe Illustrator 29.0.0, SVG Export Plug-In . SVG Version: 2.1.0 Build 186)  -->
  <defs>
    <style>
      .st0 {
        fill: #fff;
      }

      .st1 {
        fill: #0051d2;
      }

      .st2 {
        fill: #14e0a0;
      }
    </style>
  </defs>
  <circle class="st0" cx="540" cy="540" r="540"/>
  <path class="st1" d="M750,544.8c-1.2,54.3-22.9,105.2-61.4,143.7-39.7,39.7-92.4,61.5-148.6,61.5s-108.8-21.8-148.5-61.5-61.5-92.4-61.5-148.5,21.8-108.8,61.5-148.5c38.8-38.8,90-60.5,144.5-61.4v-140.1c-45.8.5-90.4,9.7-132.4,27.5-41.7,17.6-79.1,42.8-111.2,75-32.1,32.1-57.4,69.6-75,111.2-18.2,43.2-27.5,89.1-27.5,136.3s9.3,93.1,27.6,136.2c17.6,41.7,42.8,79.1,75,111.2,32.1,32.2,69.5,57.4,111.2,75,43.2,18.3,89.1,27.5,136.2,27.5s93.1-9.3,136.2-27.5c41.7-17.6,79.1-42.8,111.2-75,32.2-32.2,57.4-69.5,75-111.2,17.6-41.7,26.9-85.9,27.5-131.4h-139.9,0Z"/>
  <rect class="st2" x="536.1" y="330.4" width="214.4" height="214.4"/>
</svg>