<?xml version="1.0" encoding="UTF-8"?><svg id="Layer_1" xmlns="http://www.w3.org/2000/svg" width="1080" height="1080" xmlns:xlink="http://www.w3.org/1999/xlink" viewBox="0 0 1080 1080"><defs><linearGradient id="linear-gradient" x1="159.44" y1="923.06" x2="810.81" y2="271.69" gradientUnits="userSpaceOnUse"><stop offset="0" stop-color="#ff9431"/><stop offset="1" stop-color="#feb931"/></linearGradient></defs><path d="M1080,540c0,298.23-241.77,540-540,540-102.45,0-198.24-28.53-279.85-78.09-35.32-21.43-67.98-46.8-97.37-75.51C62.35,828.34,0,691.45,0,540,0,241.77,241.77,0,540,0s540,241.77,540,540Z" style="fill:#fff;"/><path d="M785.63,274.41L260.15,1001.91c-35.32-21.43-67.98-46.8-97.37-75.51l483.5-669.48c1.48-3.26,9.81-3.36,10.78-3.2h126.05s25.2-6.01,2.52,20.69Z" style="fill:url(#linear-gradient);"/><path d="M819.54,846.44l-3.55,7.72-132.96,1.07-9.67-2.31-114.14-155.73c-1.68-4.43,3.04-8.73,5.42-12.5,20.11-31.82,48.05-61.28,67.39-94.01-.17-2.01,3.77-1.53,4.12-1.23,1.03.86,11.7,18.91,14.39,22.59,56.72,77.83,114.02,155.42,169.02,234.4Z"/><path d="M481.39,377.7l-75.96,105.82-158.49-217.06c-4.81-6.12-.88-11.1,5.08-14.22,40.5-1.83,85.73-1.29,127.54-.51,9.42.87,10.66,2.69,16.82,9.14l85.01,116.84Z"/></svg>