<?xml version="1.0" encoding="UTF-8"?><svg id="Layer_1" xmlns="http://www.w3.org/2000/svg" width="1080" height="1080" viewBox="0 0 1080 1080"><path d="M1080,540c0,298.23-241.77,540-540,540-102.45,0-198.24-28.53-279.85-78.09-35.32-21.43-67.98-46.8-97.37-75.51C62.35,828.34,0,691.45,0,540,0,241.77,241.77,0,540,0s540,241.77,540,540Z" style="fill:#fff;"/><path d="M864.8,505.34c.27,6.4.27,13.88,0,20.28-1.57,37.74-15.16,76.03-37.01,106.76-36.25,50.95-95.86,82.92-159.01,82.51v-300.54h-54.08v100.87h-150.27c-.77-102.14,80.47-185.14,179.72-198.03,114.64-14.89,215.91,74.05,220.65,188.15Z" style="fill:#5278ff;"/><path d="M410.87,364.95v300.54h54.6v-100.87h150.27c-.11,41.45-13.61,81.89-38.05,115.08-58.31,79.16-173.21,110.6-260.76,60.76-73.89-42.06-113.79-128.25-98.8-212.33,16.49-92.51,97.86-163.67,192.74-163.17Z" style="fill:#5278ff;"/></svg>