<?xml version="1.0" encoding="UTF-8"?>
<svg id="Layer_1" xmlns="http://www.w3.org/2000/svg" version="1.1" viewBox="0 0 1080 1080">
  <!-- Generator: Adobe Illustrator 29.0.0, SVG Export Plug-In . SVG Version: 2.1.0 Build 186)  -->
  <defs>
    <style>
      .st0 {
        fill: #679ed2;
      }

      .st1 {
        fill: #fff;
      }

      .st2 {
        fill: #2d3775;
      }
    </style>
  </defs>
  <path class="st1" d="M540,0h0c298.2,0,540,241.8,540,540h0c0,298.2-241.8,540-540,540h0C241.8,1080,0,838.2,0,540h0C0,241.8,241.8,0,540,0Z"/>
  <path class="st2" d="M612.6,415.3c0-93-45.2-173.1-79.8-199,0,0-2.6-1.4-2.5,2.2-2.7,179.6-94.6,228.2-145,293.6-116.4,151.3-8.2,317.1,102.1,347.9,61.6,17.1-14.3-30.5-24-130.8-12-121.1,149-213.5,149-314.2h0v.3h.1Z"/>
  <path class="st0" d="M665.6,476.5c-.9-.4-1.7-.9-2.5.4-2,22.5-24.9,70.7-54.1,115.5-99.2,150.6-42.8,223.2-10.8,262.4,18.6,22.5,0,0,46.2-23.2,57-34.6,93.9-94.5,99.5-160.8,8.9-107-55.2-174.4-78-193.8h-.1c0-.1-.1-.4-.1-.4h0Z"/>
</svg>