<?xml version="1.0" encoding="UTF-8"?>
<svg id="Layer_1" xmlns="http://www.w3.org/2000/svg" xmlns:xlink="http://www.w3.org/1999/xlink" version="1.1" viewBox="0 0 1080 1080">
  <!-- Generator: Adobe Illustrator 29.0.0, SVG Export Plug-In . SVG Version: 2.1.0 Build 186)  -->
  <defs>
    <style>
      .st0 {
        fill: #fff;
      }

      .st1 {
        fill: url(#linear-gradient);
        fill-rule: evenodd;
      }
    </style>
    <linearGradient id="linear-gradient" x1="-2940.4" y1="1011.9" x2="-2940.4" y2="1010.5" gradientTransform="translate(1411912.5 405010) scale(480 -400)" gradientUnits="userSpaceOnUse">
      <stop offset="0" stop-color="#2e6ceb"/>
      <stop offset="1" stop-color="#2860d2"/>
    </linearGradient>
  </defs>
  <path class="st0" d="M540,0h0c298.2,0,540,241.8,540,540h0c0,298.2-241.8,540-540,540h0C241.8,1080,0,838.2,0,540h0C0,241.8,241.8,0,540,0Z"/>
  <g id="Group">
    <path id="Fill-4" class="st1" d="M409.7,509v-118.1c38.9,7.2,82.1,11.5,131,11.5s92.2-4.3,131-11.5v118.1h-262.1,0ZM540.7,676.1c-49,0-92.2,4.3-131,11.5v-118.1h262.1v118.1c-38.9-7.2-82.1-11.5-131-11.5h0ZM759.6,367.9h1.4c38.9-13,70.6-30.2,96.5-46.1,11.5-7.2,18.7-20.2,18.7-34.6,0-23-25.9-36-44.6-23-28.8,18.7-69.1,40.3-125.3,54.7-1.4,0-2.9,1.4-4.3,1.4-7.2,1.4-15.8,4.3-24.5,5.8-2.9,0-5.8,1.4-7.2,1.4-7.2,1.4-14.4,2.9-21.6,4.3-1.4,0-4.3,1.4-5.8,1.4-10.1,1.4-18.7,2.9-28.8,2.9h-5.8c-8.6,1.4-17.3,1.4-27.4,1.4h-7.2c-11.5,0-21.6,1.4-34.6,1.4s-23,0-33.1-1.4h-8.6c-8.6,0-17.3-1.4-25.9-1.4h-5.8c-10.1-1.4-18.7-1.4-27.4-2.9-2.9,0-5.8-1.4-8.6-1.4-5.8-1.4-11.5-1.4-17.3-2.9-2.9,0-7.2-1.4-10.1-1.4-5.8-1.4-11.5-2.9-17.3-4.3s-10.1-2.9-14.4-4.3c-53.3-14.4-92.2-34.6-121-53.3-18.7-13-44.6,1.4-44.6,24.5s7.2,27.4,18.7,34.6c25.9,15.8,57.6,31.7,96.5,46.1,0,0,1.4,0,1.4,1.4,7.2,2.9,15.8,5.8,24.5,7.2v132.5h-27.4c-13,0-23,10.1-23,23,0,21.6,17.3,38.9,38.9,38.9h13v132.5c-8.6,2.9-15.8,5.8-24.5,7.2-1,0-1.4.4-1.4,1.4-38.9,13-70.6,30.2-96.5,46.1-14.4,2.9-21.6,15.8-21.6,30.2,0,23,25.9,36,44.6,23,27.4-18.7,67.7-38.9,121-53.3,4.3-1.4,10.1-2.9,14.4-4.3,5.8-1.4,11.5-2.9,17.3-4.3,2.9-1.4,7.2-1.4,10.1-1.4,5.8-1.4,11.5-1.4,17.3-2.9,2.9,0,5.8-1.4,8.6-1.4,8.6-1.4,18.7-2.9,27.4-2.9h5.8c8.6-1.4,17.3-1.4,25.9-1.4h8.6c11.5,0,21.6-1.4,33.1-1.4s23,0,34.6,1.4h7.2c8.6,0,18.7,1.4,27.4,1.4h5.8c10.1,1.4,20.2,1.4,28.8,2.9,1.4,0,4.3,1.4,5.8,1.4,7.2,1.4,14.4,2.9,21.6,4.3,2.9,0,5.8,1.4,7.2,1.4,8.6,1.4,15.8,2.9,24.5,5.8,1.4,0,2.9,1.4,4.3,1.4,56.2,14.4,96.5,36,125.3,54.7,18.7,13,44.6,0,44.6-23s-7.2-27.4-18.7-34.6c-25.9-15.8-57.6-31.7-96.5-46.1h-1.4c-7.2-2.9-15.8-5.8-24.5-7.2v-132.5h28.8c13,0,23-10.1,23-23,0-21.6-17.3-38.9-38.9-38.9h-13v-132.5c10.1-4.3,18.7-7.2,25.9-10.1h0Z"/>
  </g>
</svg>