<?xml version="1.0" encoding="UTF-8"?>
<svg id="Layer_1" xmlns="http://www.w3.org/2000/svg" version="1.1" viewBox="0 0 1080 1080">
  <!-- Generator: Adobe Illustrator 29.0.0, SVG Export Plug-In . SVG Version: 2.1.0 Build 186)  -->
  <defs>
    <style>
      .st0 {
        fill-rule: evenodd;
      }

      .st1 {
        fill: #fff;
      }
    </style>
  </defs>
  <path class="st1" d="M540,0h0c298.2,0,540,241.8,540,540h0c0,298.2-241.8,540-540,540h0C241.8,1080,0,838.2,0,540h0C0,241.8,241.8,0,540,0Z"/>
  <path class="st0" d="M864,436l-171.4-174.2-43.5,43.1,128.9,131.2-59,60.2-147.7-150.3v-80.4h-58.6v75.2l-150.9,153.6-59.6-60.9,127-129-43.8-43.3-169.2,172.4,103.4,105.3-103.4,105.3,171.4,174.2,43.5-43.1-128.9-131.2,59-60.2,151.6,154.5v76.5h58.6v-79.1l147-149.8,59.9,60.9-127,129,43.5,43.1,169.2-172.4-103.4-105.3,103.4-105.3h0ZM540.6,679.2l-137.1-139.7,136.1-138.4,137.1,139.7-136.1,138.4Z"/>
</svg>