<?xml version="1.0" encoding="UTF-8"?>
<svg id="Layer_1" xmlns="http://www.w3.org/2000/svg" version="1.1" viewBox="0 0 1080 1080">
  <!-- Generator: Adobe Illustrator 29.0.0, SVG Export Plug-In . SVG Version: 2.1.0 Build 186)  -->
  <defs>
    <style>
      .st0 {
        fill: #fff;
      }

      .st1 {
        fill: #5442d0;
      }
    </style>
  </defs>
  <path class="st0" d="M540,0h0c298.2,0,540,241.8,540,540h0c0,298.2-241.8,540-540,540h0C241.8,1080,0,838.2,0,540h0C0,241.8,241.8,0,540,0Z"/>
  <path id="_230da8ffff" class="st1" d="M519.4,285.4c56.2-3.9,113.9,7.8,163.7,32.7,74.9,36.7,134.1,103,161.4,180.9,12.5,34.3,18.7,71,18.7,107.6v152.8c-3.2,13.2-13.2,25.8-25.8,32-9.4,3.9-19.4,4.6-28.8,3.2-20.3-3.9-36.6-23.3-36.6-44.5v-126.3c0-11.7,0-24.9-6.2-35.1-10.1-19.4-35.9-28.8-56.2-20.3-17.1,6.2-29.7,24.2-30.4,42v127.9c0,7.8,0,16.4-2.3,24.2-3.9,14.8-17.1,27.2-32,31.2-20.3,5.5-42.9-3.2-52.3-21.9-7.1-10.9-6.2-24.2-6.2-36.6v-127.9c0-21.9-18.7-41.3-39.7-43.6-14-2.3-28.8,2.3-39,12.5-9.4,8.6-14,21-14,33.5v124c0,10.1,0,21-2.3,30.4-6.2,18-24.2,30.4-42.9,30.4s-38.2-12.5-44.5-30.4c-3.2-9.4-2.3-18.7-2.3-28.1v-127.9c0-21-17.1-40.6-37.4-44.5-18.7-3.9-39.7,5.5-49.1,22.6-3.9,7.1-6.2,14.8-6.2,23.3v138.8c0,13.2-6.2,27.2-16.4,35.9-15.5,13.2-41.3,14.8-56.9,2.3-11.7-7.8-19.4-21.9-19.4-36.6v-140.4c0-53,13.2-106,39-152.8,20.3-38.2,49.1-72.6,83.4-99.8,50.7-42,114.6-67.1,180.9-71h0v-.7h-.3c0,.1,0,.2,0,.2Z"/>
</svg>