<?xml version="1.0" encoding="UTF-8"?>
<svg id="Layer_1" xmlns="http://www.w3.org/2000/svg" version="1.1" viewBox="0 0 1080 1080">
  <!-- Generator: Adobe Illustrator 29.0.0, SVG Export Plug-In . SVG Version: 2.1.0 Build 186)  -->
  <defs>
    <style>
      .st0 {
        fill: #fff;
      }
    </style>
  </defs>
  <path class="st0" d="M540,0h0c298.2,0,540,241.8,540,540h0c0,298.2-241.8,540-540,540h0C241.8,1080,0,838.2,0,540h0C0,241.8,241.8,0,540,0Z"/>
  <path d="M693.2,302.7h-103l-135.6,379.3h-101.7l135.6-379.3h-101.7l-170.8,474.6h306.4l34-96.6h170.8l34,96.6h103l-170.8-474.8h-.3c0,.1,0,.1,0,.1ZM590.3,585.2l51.5-141.8,50.3,141.8h-101.8Z"/>
</svg>