<?xml version="1.0" encoding="UTF-8"?>
<svg id="Layer_1" xmlns="http://www.w3.org/2000/svg" version="1.1" viewBox="0 0 1080 1080">
  <!-- Generator: Adobe Illustrator 29.0.0, SVG Export Plug-In . SVG Version: 2.1.0 Build 186)  -->
  <defs>
    <style>
      .st0 {
        fill: #c0ad9e;
        stroke: #c0ad9e;
      }

      .st0, .st1, .st2, .st3, .st4, .st5, .st6, .st7, .st8, .st9 {
        stroke-linecap: round;
        stroke-linejoin: round;
      }

      .st1 {
        fill: #e2761b;
        stroke: #e2761b;
      }

      .st2 {
        fill: #f6851b;
        stroke: #f6851b;
      }

      .st3 {
        fill: #e4761b;
        stroke: #e4761b;
      }

      .st4 {
        fill: #763d16;
        stroke: #763d16;
      }

      .st5 {
        fill: #161616;
        stroke: #161616;
      }

      .st10 {
        fill: #fff;
      }

      .st6 {
        fill: #d7c1b3;
        stroke: #d7c1b3;
      }

      .st7 {
        fill: #233447;
        stroke: #233447;
      }

      .st8 {
        fill: #e4751f;
        stroke: #e4751f;
      }

      .st9 {
        fill: #cd6116;
        stroke: #cd6116;
      }
    </style>
  </defs>
  <path class="st10" d="M540,0h0c298.1,0,540,241.9,540,540h0c0,298.1-241.9,540-540,540h0C241.9,1080,0,838.1,0,540h0C0,241.9,241.9,0,540,0Z"/>
  <path class="st1" d="M830.9,240.5l-252,187.2,46.1-110.9,204.5-76.3h1.4Z"/>
  <path class="st3" d="M249.1,240.5l249.1,188.6-44.6-112.3-205.9-76.3h1.4ZM740.2,673.9l-67.7,102.2,144,38.9,41.8-139.7-118.1-2.9h0v1.4ZM223.2,676.8l41.8,139.7,144-38.9-67.7-102.2-116.6,2.9h0l-1.4-1.4Z"/>
  <path class="st3" d="M398.9,501.1l-40.3,60.5,142.6,5.8-4.3-152.6-97.9,86.4h0ZM681.1,501.1l-97.9-87.8-2.9,155.5,142.6-5.8-40.3-60.5-1.4-1.4h0ZM407.5,777.6l85-41.8-73.4-57.6-11.5,99.4h0ZM587.5,735.8l86.4,41.8-11.5-99.4-73.4,57.6h-1.4Z"/>
  <path class="st6" d="M672.5,777.6l-86.4-41.8,7.2,56.2v23l79.2-37.4h0ZM407.5,777.6l79.2,37.4v-23l5.8-56.2-85,41.8h0Z"/>
  <path class="st7" d="M488.2,640.8l-72-21.6,50.4-23,21.6,44.6h0ZM591.8,640.8l21.6-44.6,50.4,23-72,21.6h0Z"/>
  <path class="st9" d="M407.5,777.6l11.5-102.2-79.2,2.9,67.7,100.8h0v-1.4h0ZM661,673.9l11.5,102.2,67.7-100.8-79.2-2.9h0v1.4ZM721.4,561.6l-142.6,5.8,13,73.4,21.6-44.6,50.4,23,57.6-59v1.4ZM416.2,619.2l50.4-23,20.2,44.6,13-73.4-142.6-5.8,57.6,59,1.4-1.4Z"/>
  <path class="st8" d="M358.6,561.6l60.5,116.6v-57.6c-1.4,0-59-59-60.5-59h0ZM663.8,619.2l-2.9,57.6,60.5-116.6-57.6,59h0ZM501.1,567.4l-13,73.4,17.3,86.4,4.3-113.8-7.2-46.1h-1.4ZM578.9,567.4l-7.2,46.1,2.9,113.8,17.3-86.4-13-73.4h0Z"/>
  <path class="st2" d="M591.8,640.8l-17.3,86.4,11.5,8.6,73.4-57.6,2.9-57.6-72,21.6,1.4-1.4h0ZM417.6,620.6v57.6c1.4,0,76.3,57.6,76.3,57.6l11.5-8.6-17.3-86.4-72-21.6,1.4,1.4h0Z"/>
  <path class="st0" d="M593.3,815v-23l-5.8-5.8h-95l-5.8,5.8v23l-79.2-37.4,27.4,23,56.2,38.9h96.5l56.2-38.9,27.4-23-79.2,37.4h1.4Z"/>
  <path class="st5" d="M587.5,735.8l-11.5-8.6h-70.6l-11.5,8.6-5.8,56.2,5.8-5.8h95l5.8,5.8-7.2-56.2Z"/>
  <path class="st4" d="M841,440.6l21.6-103.7-31.7-96.5-243.4,180,93.6,79.2,132.5,38.9,28.8-34.6-13-8.6,20.2-18.7-15.8-11.5,20.2-15.8-13-10.1h0v1.4h0ZM217.4,337l21.6,103.7-14.4,10.1,20.2,15.8-15.8,11.5,20.2,18.7-13,8.6,28.8,34.6,132.5-38.9,93.6-79.2-243.4-180-31.7,96.5h0l1.4-1.4Z"/>
  <path class="st2" d="M813.6,540l-132.5-38.9,40.3,60.5-60.5,116.6h197.3l-44.6-136.8v-1.4ZM398.9,501.1l-132.5,38.9-44.6,136.8h195.8l-60.5-115.2,40.3-60.5h1.4,0ZM578.9,567.4l8.6-145.4,38.9-103.7h-171.4l37.4,103.7,8.6,145.4,2.9,46.1v113.8h70.6v-113.8l4.3-46.1h0Z"/>
</svg>