<?xml version="1.0" encoding="UTF-8"?>
<svg id="Layer_1" xmlns="http://www.w3.org/2000/svg" xmlns:xlink="http://www.w3.org/1999/xlink" version="1.1" viewBox="0 0 1080 1080">
  <!-- Generator: Adobe Illustrator 29.0.0, SVG Export Plug-In . SVG Version: 2.1.0 Build 186)  -->
  <defs>
    <style>
      .st0 {
        fill: #3a55a3;
      }

      .st1 {
        fill: url(#linear-gradient);
      }

      .st2 {
        fill: #fff;
      }

      .st3 {
        fill: #3770da;
      }
    </style>
    <linearGradient id="linear-gradient" x1="374.8" y1="1282" x2="753.2" y2="1421.9" gradientTransform="translate(0 -746)" gradientUnits="userSpaceOnUse">
      <stop offset="0" stop-color="#2f4b9b" stop-opacity="0"/>
      <stop offset="1" stop-color="#2b4482"/>
    </linearGradient>
  </defs>
  <path class="st2" d="M540,0h0c298.2,0,540,241.8,540,540h0c0,298.2-241.8,540-540,540h0C241.8,1080,0,838.2,0,540h0C0,241.8,241.8,0,540,0Z"/>
  <path class="st0" d="M888.3,616.8l-155.7-270c-34.1-56.3-117.4-56.9-150.3,2.5l-163.4,280.8c-30.5,51.4,7.2,116.2,68.3,116.2h327.6c61.6,0,107.9-66.5,73.7-129.3h-.1c0-.1,0-.2,0-.2Z"/>
  <path class="st3" d="M663.8,637.8l-9.7-16.7c-8.9-15.5-28.8-49.1-28.8-49.1l-131.8-228.8c-34.1-50.8-115.1-55-149.2,8.9l-153.2,265.2c-31.7,55.7,6.1,128.2,74.9,128.7h547.3c-84.5.6-111.5-43.2-149.8-108.4h.1c0,.1,0,.1,0,.1Z"/>
  <path class="st1" d="M663.8,637.8l-9.7-16.7c-8.9-15.5-28.8-49.1-28.8-49.1l-85.1-149.8-122.1,208.4c-30.5,51.4,7.2,116.2,68.3,116.2h327c-85.1-.6-111.5-43.8-149.8-109h.1,0Z"/>
</svg>