<?xml version="1.0" encoding="UTF-8"?>
<svg id="Layer_1" xmlns="http://www.w3.org/2000/svg" xmlns:xlink="http://www.w3.org/1999/xlink" version="1.1" viewBox="0 0 1080 1080">
  <!-- Generator: Adobe Illustrator 29.0.0, SVG Export Plug-In . SVG Version: 2.1.0 Build 186)  -->
  <defs>
    <style>
      .st0 {
        fill: #fff;
      }

      .st1 {
        fill: url(#linear-gradient);
        fill-rule: evenodd;
      }

      .st2 {
        fill: #57be77;
      }
    </style>
    <linearGradient id="linear-gradient" x1="342.3" y1="291.3" x2="342.3" y2="742" gradientTransform="translate(0 22)" gradientUnits="userSpaceOnUse">
      <stop offset="0" stop-color="#ec9a37"/>
      <stop offset=".2" stop-color="#57be77"/>
      <stop offset=".5" stop-color="#7094d0"/>
      <stop offset=".8" stop-color="#e38d86"/>
      <stop offset="1" stop-color="#7dcaeb"/>
    </linearGradient>
  </defs>
  <circle class="st0" cx="540" cy="540" r="540"/>
  <path class="st1" d="M346.9,335.5c-16.4,0-45,6.8-76.4,15h0c-30,8.2-61.4,17.7-79.1,24.5-8.2,2.7-13.6,9.5-15,17.7-16.4,120,20.4,207.3,65.4,264.6h0c19.1,24.5,40.9,46.4,65.4,64.1,8.2,5.5,16.4,10.9,25.9,15h0c4.1,2.7,8.2,4.1,13.6,4.1s9.5-2.7,13.6-4.1c9.5-4.1,17.7-9.5,25.9-15l6.8,9.5-6.8-9.5c25.9-17.7,47.7-39.5,66.8-64.1,4.1-5.5,8.2-10.9,12.3-17.7,4.1-5.5,10.9-6.8,15-2.7,5.5,4.1,6.8,10.9,2.7,15-4.1,6.8-8.2,12.3-13.6,19.1h0c-20.5,25.9-43.6,49.1-70.9,69.5-9.5,6.8-19.1,12.3-28.6,17.7-6.8,4.1-15,5.5-23.2,6.8h-2.7c-8.2-1.4-15-2.7-23.2-6.8-10.9-5.5-20.5-10.9-28.6-17.7-27.3-19.1-50.4-42.3-70.9-69.5-46.4-61.4-85.9-155.5-69.6-280.9h0c2.7-16.4,13.6-30,30-35.5h0c19.1-5.5,50.4-16.4,80.4-24.5h0c30-8.2,62.7-15,81.8-15s51.8,8.2,81.8,15h0c27.3,8.2,54.5,15,80.5,24.5h0c15,5.5,27.3,19.1,30,35.5v1.4h0c0,6.8-5.5,10.9-10.9,10.9s-10.9-4.1-10.9-9.5c-1.4-8.2-6.8-15-15-17.7-25.9-8.2-53.2-16.4-80.5-24.5-27.3-8.2-55.9-15-72.3-15h0Z"/>
  <path class="st2" d="M266.4,615h31.4v-137.7h0l88.6,137.7h40.9v-178.6h-31.4v133.6h0l-87.3-133.6h-42.3v178.6h0ZM477.8,564.5c8.2,23.2,27.3,39.5,49.1,49.1,12.3,4.1,24.5,6.8,38.2,6.8s25.9-2.7,38.2-6.8c10.9-4.1,21.8-10.9,30-19.1,8.2-8.2,15-19.1,19.1-30,4.1-12.3,6.8-25.9,6.8-38.2s-2.7-25.9-6.8-39.5c-4.1-10.9-10.9-21.8-19.1-30-8.2-8.2-19.1-15-30-19.1-12.3-4.1-25.9-6.8-38.2-6.8s-25.9,2.7-38.2,6.8c-10.9,4.1-21.8,10.9-30,19.1s-15,19.1-19.1,30c-4.1,12.3-6.8,25.9-6.8,39.5s2.7,25.9,6.8,38.2h0ZM509.1,499.1c2.7-8.2,6.8-15,12.3-20.5s12.3-10.9,19.1-13.6c8.2-4.1,16.4-5.5,25.9-5.5s17.7,1.4,25.9,5.5c8.2,2.7,13.6,8.2,19.1,13.6s9.5,12.3,12.3,20.5,4.1,16.4,4.1,24.6-1.4,17.7-4.1,25.9c-2.7,8.2-6.8,15-12.3,20.5s-12.3,10.9-19.1,13.6c-16.4,6.8-34.1,6.8-50.5,0-6.8-2.7-13.6-8.2-19.1-13.6-5.5-6.8-9.5-13.6-12.3-20.5-2.7-8.2-4.1-17.7-4.1-25.9-2.7-8.2-1.4-16.4,2.7-24.5h0ZM736.9,615h30l40.9-136.4h0l42.3,136.4h30l51.8-178.6h-32.7l-35.5,129.5h0l-39.5-129.5h-31.4l-40.9,129.5h0l-32.7-129.5h-35.5l53.2,178.6h0Z"/>
</svg>