<?xml version="1.0" encoding="UTF-8"?>
<svg id="Layer_1" xmlns="http://www.w3.org/2000/svg" version="1.1" viewBox="0 0 1080 1080">
  <!-- Generator: Adobe Illustrator 29.0.0, SVG Export Plug-In . SVG Version: 2.1.0 Build 186)  -->
  <defs>
    <style>
      .st0 {
        fill: #10532c;
      }

      .st1 {
        fill: #885c32;
      }

      .st2 {
        fill: #77583f;
      }

      .st3 {
        fill: #d2baa7;
      }

      .st4 {
        fill: #fff;
      }

      .st5 {
        fill: #805838;
      }

      .st6 {
        fill: #f4a04b;
      }

      .st7 {
        fill: #654832;
      }

      .st8 {
        fill: #a3744c;
      }

      .st9 {
        fill: #cf8740;
      }

      .st10 {
        fill: #fad9b9;
      }

      .st11 {
        fill: #216d42;
      }
    </style>
  </defs>
  <path class="st4" d="M540,0h0c298.1,0,540,241.9,540,540h0c0,298.1-241.9,540-540,540h0C241.9,1080,0,838.1,0,540h0C0,241.9,241.9,0,540,0Z"/>
  <path class="st1" d="M495.4,365.8c18.7,0,38.9,1.4,57.6,2.9,17.3,0,33.1,1.4,50.4,2.9,10.1,0,21.6,0,31.7,4.3,7.2,2.9,14.4,5.8,18.7,11.5,2.9,2.9,5.8,5.8,10.1,7.2,5.8,2.9,11.5,8.6,15.8,14.4,5.8,5.8,10.1,13,15.8,20.2,0,0,0,1.4,1.4,1.4,0,0,0,2.9,2.9,4.3,0,2.9,2.9,5.8,4.3,7.2,0,2.9,2.9,5.8,4.3,8.6v2.9c5.8,10.1,10.1,21.6,14.4,33.1,2.9,8.6,5.8,18.7,8.6,27.4,2.9,10.1,5.8,20.2,8.6,31.7,0,4.3,1.4,8.6,4.3,13v4.3c2.9,5.8,2.9,11.5,4.3,17.3,0,4.3,1.4,8.6,2.9,11.5h0v17.3h0v5.8c0,4.3,1.4,8.6,2.9,13,0,2.9,1.4,4.3,1.4,7.2,0,4.3,0,8.6,1.4,14.4,0,5.8,1.4,11.5,2.9,17.3,0,5.8,2.9,11.5,2.9,18.7h0v1.4c0,7.2,1.4,13,1.4,20.2s-5.8,17.3-13,23c-8.6,5.8-18.7,8.6-28.8,10.1-8.6,1.4-17.3,2.9-27.4,4.3-20.2,2.9-41.8,5.8-61.9,8.6-25.9,2.9-53.3,5.8-79.2,7.2-30.2,1.4-60.5,2.9-92.2,2.9s-51.8,0-77.8-2.9c-18.7,0-36-2.9-54.7-4.3-17.3-1.4-34.6-4.3-51.8-5.8-11.5-1.4-24.5-2.9-36-5.8-13-2.9-25.9-7.2-36-15.8s-14.4-18.7-13-31.7c0-8.6,2.9-17.3,4.3-25.9,2.9-18.7,7.2-38.9,11.5-57.6,2.9-15.8,7.2-31.7,11.5-46.1,5.8-24.5,13-47.5,21.6-70.6,2.9-5.8,4.3-13,7.2-18.7,1.4,1.4,1.4,4.3,2.9,7.2v1.4c-1.4,5.8-4.3,11.5-5.8,17.3-4.3,10.1-7.2,21.6-10.1,33.1-4.3,14.4-7.2,27.4-11.5,41.8-2.9,11.5-5.8,23-8.6,33.1-1.4,7.2-2.9,13-4.3,20.2s-2.9,15.8-4.3,23c-1.4,10.1-4.3,20.2-5.8,31.7,0,7.2-2.9,13,0,20.2,1.4,8.6,5.8,17.3,14.4,23s17.3,10.1,27.4,11.5c10.1,2.9,20.2,2.9,30.2,5.8,8.6,0,18.7,2.9,27.4,4.3,7.2,0,13,1.4,20.2,2.9,7.2,0,13,0,20.2,1.4,8.6,0,18.7,1.4,27.4,2.9h208.8c8.6,0,17.3,0,25.9-1.4,10.1,0,20.2-1.4,30.2-2.9,5.8,0,13,0,18.7-2.9,7.2,0,15.8-2.9,23-2.9s15.8-2.9,24.5-4.3c5.8,0,13-1.4,18.7-2.9,11.5-1.4,21.6-4.3,31.7-10.1,8.6-4.3,14.4-11.5,13-21.6v-14.4c0-10.1-2.9-18.7-4.3-28.8-2.9-13-4.3-25.9-7.2-38.9s-5.8-25.9-8.6-38.9c0-5.8-2.9-11.5-4.3-15.8-1.4-8.6-4.3-17.3-5.8-25.9-2.9-10.1-5.8-20.2-8.6-30.2-2.9-8.6-5.8-15.8-8.6-24.5-4.3-13-10.1-25.9-17.3-37.4-4.3-7.2-7.2-13-11.5-18.7-5.8-8.6-11.5-15.8-18.7-23-2.9-2.9-7.2-5.8-10.1-8.6h-1.4c0,2.9-2.9,2.9-4.3,4.3h0l-13,4.3c-14.4,2.9-30.2,2.9-44.6,4.3h-218.9c-10.1,0-20.2,0-30.2-2.9-5.8,0-10.1-1.4-14.4-4.3-1.4,0-2.9-2.9-2.9-5.8s0-1.4-2.9,0c-7.2,2.9-13,7.2-18.7,11.5-1.4,1.4-4.3,2.9-5.8,4.3h1.4-7.2s1.4-1.4,1.4-2.9c0,0,1.4,0,1.4-1.4,2.9-4.3,7.2-7.2,11.5-10.1,5.8-4.3,13-7.2,20.2-10.1h1.4c5.8-8.6,14.4-11.5,24.5-14.4,10.1-1.4,18.7-2.9,28.8-2.9l56.2-4.3h37.4v4.3h-40.3c-11.5,0-21.6,0-33.1,1.4h-14.4c-10.1,0-18.7,1.4-28.8,2.9-7.2,0-13,2.9-18.7,7.2-4.3,2.9-5.8,7.2-8.6,11.5v2.9c2.9,0,5.8,1.4,10.1,2.9,13,2.9,25.9,2.9,38.9,4.3h207.4c11.5,0,23,0,34.6-2.9,7.2,0,13-1.4,20.2-2.9,2.9,0,4.3,0,7.2-2.9v-2.9c-2.9-5.8-7.2-10.1-14.4-13h-1.4c-7.2-2.9-13-4.3-20.2-4.3s-18.7-1.4-27.4-1.4-23,0-36-1.4h-60.5v-5.8l2.9-8.6h0ZM747.4,581.8v1.4-2.9,1.4Z"/>
  <path class="st0" d="M495.4,365.8v11.5c0,2.9-1.4,4.8-4.3,5.8-4.3,1.4-8.6,0-10.1-2.9v-27.4c0-1-.4-1.4-1.4-1.4-13,0-25.9-2.9-38.9-5.8-7.2-1.4-14.4-4.3-20.2-7.2-1.4,0-2.9-2.9-4.3-4.3-4.3-5.8-4.3-13,1.4-17.3s11.5-5.8,18.7-7.2c15.8-1.4,30.2,2.9,43.2,11.5,2.9,1.4,4.3,4.3,7.2,8.6,2.9-5.8,7.2-10.1,13-13,7.2-4.3,14.4-7.2,23-10.1,5.8-1.4,11.5-2.9,15.8-2.9,8.6,0,14.4,4.3,15.8,13,0,4.3,0,7.2-4.3,10.1-4.3,5.8-11.5,10.1-18.7,13-11.5,5.8-24.5,8.6-38.9,10.1h-1.4v15.8h4.3,0ZM491,334.1h0c8.6-7.2,18.7-11.5,30.2-14.4,4.3,0,7.2-2.9,11.5-2.9s2.9,0,2.9,2.9,0,2.9-2.9,2.9h-4.3c-10.1,2.9-20.2,5.8-30.2,11.5-4.3,2.9-7.2,4.3-10.1,8.6h7.2c7.2,0,13-1.4,20.2-4.3,5.8-1.4,10.1-2.9,14.4-5.8,5.8-2.9,11.5-5.8,17.3-11.5,2.9-4.3,2.9-8.6,0-11.5s-7.2-2.9-11.5-2.9c-7.2,0-13,2.9-18.7,4.3-8.6,2.9-15.8,7.2-21.6,14.4-1.4,2.9-4.3,5.8-4.3,8.6h0ZM485.3,335.5v-4.3c-2.9-5.8-8.6-10.1-15.8-13-8.6-4.3-18.7-7.2-28.8-5.8-5.8,0-13,2.9-17.3,5.8s-4.3,7.2-1.4,10.1c0,0,2.9,2.9,4.3,2.9,8.6,5.8,20.2,7.2,30.2,8.6,5.8,0,10.1,0,15.8,1.4h15.8c-7.2-8.6-17.3-11.5-27.4-14.4-7.2-1.4-14.4-2.9-21.6-1.4-1.9,0-2.9-1-2.9-2.9s1-2.9,2.9-2.9h15.8c11.5,1.4,23,5.8,31.7,13l-1.4,2.9h0ZM486.7,370.1v5.8s0,1.4,1.4,1.4,1.4,0,1.4-1.4v-13s-1.4,0-1.4,1.4v5.8h-1.4Z"/>
  <path class="st2" d="M699.8,433.4c-2.9,0-1.4-2.9-2.9-4.3,5.8-5.8,11.5-10.1,17.3-15.8,8.6-7.2,15.8-14.4,25.9-20.2,7.2-4.3,15.8-8.6,24.5-11.5s17.3-2.9,25.9,0c13,2.9,23,8.6,34.6,14.4,21.6,13,41.8,27.4,59,43.2,15.8,13,30.2,27.4,41.8,43.2,4.3,4.3,7.2,8.6,10.1,14.4,4.3,7.2,5.8,15.8,5.8,24.5s-1.4,21.6-4.3,31.7c-4.3,20.2-11.5,40.3-18.7,60.5-4.3,13-10.1,24.5-15.8,37.4h0s-2.9,1.4-2.9,2.9c0,0-1.4,2.9-4.3,2.9,0-2.9,2.9-5.8,4.3-8.6,7.2-14.4,13-28.8,18.7-44.6,2.9-10.1,7.2-18.7,10.1-28.8,2.9-11.5,5.8-23,8.6-36,0-7.2,1.4-15.8,1.4-24.5s-2.9-11.5-5.8-17.3c-7.2-10.1-15.8-20.2-24.5-28.8-10.1-10.1-20.2-18.7-30.2-28.8-8.6-7.2-17.3-14.4-25.9-21.6-8.6-7.2-18.7-13-28.8-18.7-11.5-7.2-24.5-13-38.9-15.8h-11.5c-8.6,1.4-17.3,5.8-24.5,10.1-14.4,8.6-27.4,18.7-38.9,30.2-2.9,2.9-5.8,4.3-8.6,7.2l-1.4,2.9h0Z"/>
  <path class="st2" d="M298.1,411.8l-1.4,2.9h7.2c5.8,0,10.1-1.4,14.4-4.3,7.2-2.9,14.4,0,18.7,4.3,4.3,5.8,5.8,13,5.8,20.2s-2.9,15.8-4.3,24.5c-2.9,11.5-5.8,23-8.6,34.6,0,1.4,0,4.3-2.9,5.8h-5.8c0-2.9,1.4-5.8,2.9-8.6,2.9-8.6,5.8-17.3,7.2-25.9s2.9-17.3,4.3-25.9c0-4.3,1.4-8.6,0-13-1.4-7.2-8.6-14.4-18.7-10.1-5.8,2.9-13,4.3-20.2,2.9-13-2.9-24.5-8.6-33.1-18.7l-8.6-8.6c-4.3-4.3-8.6-4.3-13-1.4-7.2,2.9-13,7.2-18.7,13-2.9,2.9-5.8,4.3-8.6,7.2v2.9c1.4,0,4.3,1.4,5.8,2.9h-7.2c-4.3-2.9-5.8-7.2-2.9-10.1,10.1-7.2,18.7-15.8,30.2-21.6,8.6-4.3,14.4-1.4,21.6,4.3l13,13c5.8,4.3,11.5,7.2,18.7,10.1,1.9,0,3.3-.4,4.3-1.4v1.4h0Z"/>
  <path class="st7" d="M213.1,417.6h10.1l1.4,1.4c2.9,1.4,4.3,4.3,7.2,5.8,5.8,7.2,11.5,14.4,15.8,21.6,4.3,8.6,8.6,17.3,13,25.9,2.9,5.8,4.3,13,7.2,18.7,2.9,8.6,5.8,15.8,8.6,24.5,1.4,4.3,4.3,8.6,5.8,13,0,0,1.4,2.9,4.3,2.9,7.2,0,14.4-1.4,18.7-7.2,5.8-5.8,8.6-11.5,13-18.7,0-1.4,1.4-2.9,1.4-4.3h5.8v1.4c-2.9,8.6-7.2,15.8-13,23s-14.4,13-24.5,11.5c-2.9,0-5.8,0-7.2-2.9-2.9-4.3-5.8-8.6-7.2-13-5.8-11.5-8.6-24.5-13-36,0-1.4,0-4.3-2.9-7.2v-2.9c-5.8-15.8-14.4-30.2-24.5-43.2-4.3-5.8-10.1-10.1-17.3-13h-1.4l-1.4-1.4h0Z"/>
  <path class="st7" d="M892.8,656.6c1.4,0,2.9-1.4,4.3-2.9,0,0,2.9-1.4,2.9-2.9h0c-7.2,14.4-14.4,27.4-25.9,38.9-7.2,7.2-15.8,11.5-25.9,13-11.5,1.4-23,0-34.6-2.9s-21.6-7.2-31.7-10.1c-4.3,0-7.2-2.9-11.5-2.9v-1.4h0c0-2.9,1-3.9,2.9-2.9,4.3,0,8.6,2.9,13,4.3,10.1,2.9,20.2,7.2,30.2,10.1,7.2,1.4,15.8,4.3,23,4.3h10.1c8.6,0,15.8-4.3,21.6-10.1,7.2-7.2,13-14.4,17.3-23,0-1.4,2.9-2.9,2.9-5.8h0l1.4-5.8h0Z"/>
  <path class="st2" d="M299.5,410.4s0,1.4-1.4,1.4h0l1.4-1.4Z"/>
  <path class="st6" d="M378.7,411.8h217.4c14.4,0,30.2-1.4,44.6-4.3,4.3,0,8.6-1.4,13-4.3h0v2.9c8.6,10.1,15.8,23,21.6,34.6,4.3,7.2,7.2,15.8,11.5,23,4.3,10.1,8.6,21.6,11.5,33.1,2.9,10.1,5.8,21.6,8.6,31.7,1.4,7.2,2.9,15.8,4.3,23,1.4,8.6,2.9,15.8,2.9,24.5s0,14.4,1.4,21.6v27.4c0,5.8,0,11.5-2.9,17.3-1.4,7.2-4.3,14.4-7.2,21.6-2.9,8.6-7.2,15.8-11.5,23-5.8,7.2-11.5,14.4-18.7,20.2-5.8,4.3-13,8.6-20.2,11.5-13,4.3-24.5,7.2-37.4,8.6-8.6,1.4-17.3,2.9-27.4,2.9s-14.4,1.4-21.6,2.9c-8.6,0-15.8,0-24.5,1.4h-67.7c-8.6,0-17.3,0-25.9-1.4h-10.1c-7.2,0-14.4-1.4-21.6-2.9-13-2.9-25.9-5.8-37.4-11.5-7.2-4.3-14.4-8.6-20.2-14.4s-8.6-8.6-11.5-13c-5.8-7.2-10.1-14.4-13-21.6-2.9-5.8-4.3-11.5-7.2-17.3l-4.3-17.3c-1.4-8.6-2.9-18.7-4.3-27.4,0-7.2-1.4-14.4,0-21.6,0-8.6,1.4-18.7,2.9-27.4,0-10.1,2.9-20.2,4.3-30.2,0-5.8,2.9-11.5,4.3-17.3,1.4-8.6,4.3-17.3,7.2-25.9s5.8-15.8,8.6-24.5c2.9-5.8,5.8-13,8.6-18.7s4.3-7.2,5.8-11.5c5.8,0,10.1,1.4,15.8,2.9,5.8,0,13,1.4,20.2,1.4,11.5,0,23,1.4,34.6,2.9,10.1,0,21.6,0,31.7,1.4h77.8c8.6,0,18.7,0,27.4-1.4h14.4c7.2,0,14.4,0,21.6-1.4,7.2,0,14.4-1.4,20.2-1.4h8.6c5.8,0,11.5-1.4,17.3-2.9,2.9,0,5.8,0,8.6-2.9v-4.3c-2.9,0-5.8-1.4-8.6-1.4h-11.5c-8.6,0-18.7,0-27.4,1.4h-20.2c-11.5,0-24.5,0-36,1.4h-76.3c-14.4,0-28.8,0-43.2-1.4h-14.4c-10.1,0-18.7,0-28.8-1.4h-24.5c0-2.9,2.9-4.3,4.3-5.8,0-1.4,2.9-2.9,2.9-4.3l1.4-1.4h0Z"/>
  <path class="st9" d="M378.7,411.8c0,1.4-1.4,2.9-2.9,4.3,0,1.4-2.9,2.9-4.3,5.8h-2.9c-1.4,0-4.3,0-5.8,1.4,0,0-2.9,1.4-2.9,2.9s1.4,1.4,2.9,2.9h1.4c-1.4,4.3-4.3,7.2-5.8,11.5-2.9,5.8-5.8,13-8.6,18.7-2.9,7.2-5.8,15.8-8.6,24.5s-5.8,17.3-7.2,25.9c-1.4,5.8-2.9,11.5-4.3,17.3-1.4,10.1-4.3,20.2-4.3,30.2s-1.4,18.7-2.9,27.4v21.6c0,8.6,1.4,18.7,4.3,27.4,0,5.8,2.9,11.5,4.3,17.3s4.3,11.5,7.2,17.3c2.9,7.2,7.2,15.8,13,21.6,2.9,4.3,7.2,8.6,11.5,13,5.8,5.8,13,10.1,20.2,14.4,11.5,5.8,24.5,10.1,37.4,11.5,7.2,0,14.4,2.9,21.6,2.9h10.1c8.6,0,17.3,0,25.9,1.4h67.7c8.6,0,15.8,0,24.5-1.4,7.2,0,14.4-1.4,21.6-2.9,8.6,0,17.3-1.4,27.4-2.9,13-2.9,25.9-4.3,37.4-8.6,7.2-2.9,14.4-7.2,20.2-11.5,7.2-5.8,13-13,18.7-20.2,4.3-7.2,8.6-14.4,11.5-23,2.9-7.2,4.3-14.4,7.2-21.6,0-5.8,1.4-11.5,2.9-17.3,0-8.6,1.4-17.3,0-27.4,0-7.2,0-14.4-1.4-21.6,0-8.6-1.4-15.8-2.9-24.5,0-7.2-2.9-15.8-4.3-23-2.9-10.1-5.8-21.6-8.6-31.7-2.9-11.5-7.2-21.6-11.5-33.1-2.9-7.2-7.2-15.8-11.5-23-5.8-11.5-13-24.5-21.6-34.6v-2.9c0-1.4,2.9-2.9,4.3-4.3h1.4c4.3,2.9,7.2,5.8,10.1,8.6,7.2,7.2,13,14.4,18.7,23,4.3,5.8,8.6,13,11.5,18.7,7.2,11.5,13,24.5,17.3,37.4,2.9,8.6,5.8,15.8,8.6,24.5,2.9,10.1,5.8,20.2,8.6,30.2,2.9,8.6,4.3,17.3,5.8,25.9,0,5.8,2.9,11.5,4.3,15.8,2.9,13,5.8,25.9,8.6,38.9s4.3,25.9,7.2,38.9c1.4,10.1,2.9,18.7,4.3,28.8v14.4c0,10.1-5.8,17.3-13,21.6-10.1,5.8-21.6,7.2-31.7,10.1-5.8,0-11.5,2.9-18.7,2.9s-15.8,2.9-24.5,4.3c-7.2,0-15.8,2.9-23,2.9s-13,1.4-18.7,2.9c-10.1,0-20.2,1.4-30.2,2.9-8.6,0-17.3,1.4-25.9,1.4h-208.8c-8.6,0-18.7,0-27.4-2.9-7.2,0-13,0-20.2-1.4-7.2,0-13-1.4-20.2-2.9-8.6,0-18.7-2.9-27.4-4.3-10.1-1.4-20.2-2.9-30.2-5.8s-18.7-5.8-27.4-11.5c-7.2-5.8-11.5-13-14.4-23v-20.2c1.4-10.1,4.3-20.2,5.8-31.7,1.4-7.2,2.9-15.8,4.3-23,0-7.2,2.9-13,4.3-20.2,2.9-11.5,5.8-23,8.6-33.1,2.9-14.4,7.2-27.4,11.5-41.8,2.9-11.5,7.2-21.6,10.1-33.1,1.4-5.8,4.3-11.5,5.8-17.3v-1.4c4.3,11.5,8.6,24.5,13,36,1.4,4.3,4.3,8.6,7.2,13,1.4,2.9,4.3,2.9,7.2,2.9,10.1,0,17.3-4.3,24.5-11.5,5.8-7.2,10.1-14.4,13-23v-1.4c0-1.4,1.4-2.9,2.9-5.8,4.3-11.5,7.2-23,8.6-34.6,1.4-8.6,2.9-15.8,4.3-24.5,0-7.2,0-14.4-5.8-20.2-4.3-5.8-11.5-7.2-18.7-4.3-4.3,1.4-10.1,4.3-14.4,4.3h-1.4c0-1.4,2.9-2.9,5.8-4.3,5.8-4.3,11.5-8.6,18.7-11.5,0,0,2.9-1.4,2.9,0s0,4.3,2.9,5.8c4.3,2.9,10.1,2.9,14.4,4.3,10.1,1.4,20.2,2.9,30.2,2.9h0l8.6,5.8h0Z"/>
  <path class="st8" d="M892.8,656.6h0c-4.3,2.9-7.2,5.8-11.5,8.6-5.8,4.3-13,8.6-20.2,11.5-2.9,0-5.8,1.4-8.6,1.4-7.2,0-14.4-1.4-21.6-2.9-13-4.3-27.4-8.6-38.9-15.8-4.3-1.4-7.2-4.3-10.1-7.2-4.3-4.3-7.2-10.1-10.1-17.3-2.9-4.3-4.3-10.1-5.8-14.4s-2.9-7.2-4.3-11.5h2.9c11.5-2.9,23-5.8,34.6-5.8h43.2c1.4,0,2.9,0,2.9-4.3,2.9-1.4,4.3-5.8,5.8-8.6,5.8-11.5,11.5-24.5,14.4-37.4,1.4-7.2,4.3-14.4,2.9-23-1.4-10.1-4.3-18.7-7.2-27.4-4.3-11.5-8.6-23-14.4-34.6-2.9-4.3-4.3-10.1-7.2-14.4,0,0,0-2.9-1.4-4.3-2.9-4.3-4.3-10.1-7.2-13,0,0,0-2.9-2.9-2.9-1.4-2.9-5.8-4.3-8.6-4.3-8.6,0-17.3,0-25.9,4.3-8.6,2.9-17.3,7.2-24.5,13-5.8,4.3-11.5,8.6-14.4,15.8v4.3s2.9,0,4.3-1.4c1.4-2.9,2.9-5.8,5.8-7.2,4.3-4.3,10.1-8.6,15.8-11.5,8.6-4.3,17.3-8.6,27.4-10.1,5.8,0,10.1-1.4,15.8,0h0c0,4.3,2.9,8.6,2.9,13,2.9,10.1,4.3,18.7,5.8,28.8,0,10.1,0,21.6-4.3,31.7-2.9,5.8-5.8,10.1-11.5,13s-7.2,4.3-10.1,5.8c-8.6,4.3-15.8,8.6-24.5,11.5-10.1,5.8-21.6,10.1-31.7,15.8l-4.3-13c-2.9-10.1-5.8-20.2-8.6-31.7-2.9-8.6-5.8-18.7-8.6-27.4-4.3-11.5-8.6-21.6-14.4-33.1v-2.9c4.3,0,8.6-2.9,11.5-4.3,14.4-7.2,27.4-17.3,38.9-30.2,2.9-4.3,5.8-7.2,7.2-13,0-2.9,0-4.3-2.9-4.3-4.3,0-8.6,1.4-11.5,2.9-8.6,4.3-15.8,8.6-24.5,14.4-7.2,5.8-13,10.1-18.7,17.3-2.9,2.9-4.3,5.8-5.8,8.6-1.4-1.4-4.3-4.3-4.3-7.2,2.9-2.9,5.8-5.8,8.6-7.2,11.5-11.5,24.5-21.6,38.9-30.2,7.2-4.3,15.8-8.6,24.5-10.1h11.5c14.4,2.9,25.9,8.6,38.9,15.8,10.1,5.8,18.7,11.5,28.8,18.7,8.6,7.2,17.3,14.4,25.9,21.6,10.1,8.6,20.2,18.7,30.2,28.8,8.6,8.6,17.3,18.7,24.5,28.8,2.9,5.8,5.8,10.1,5.8,17.3s0,15.8-1.4,24.5c-1.4,11.5-4.3,23-8.6,36-2.9,10.1-5.8,20.2-10.1,28.8-5.8,15.8-11.5,30.2-18.7,44.6,0,2.9-2.9,5.8-4.3,8.6l-5.8-1.4h0ZM802.1,625c8.6,0,17.3,0,25.9-2.9,4.3,0,8.6-1.4,11.5-4.3s2.9-4.3,0-5.8c-1.4,0-2.9-1.4-5.8-2.9-5.8-1.4-13-2.9-18.7-2.9-10.1,0-18.7,0-28.8,2.9-4.3,0-8.6,1.4-13,4.3-2.9,1.4-2.9,4.3,0,5.8,1.4,0,4.3,1.4,5.8,2.9,7.2,1.4,14.4,2.9,23,2.9ZM809.3,443.5h-11.5c-5.8,0-11.5,2.9-15.8,5.8,0,0-1.4,1.4-1.4,2.9,0,0,1.4,1.4,2.9,1.4h8.6c5.8,0,13-1.4,18.7-4.3,2.9,0,5.8-1.4,8.6-4.3s0-2.9,0-4.3h-7.2l-2.9,2.9h0Z"/>
  <path class="st6" d="M481,378.7c0,2.9,5.8,5.8,10.1,2.9,2.9-1.4,4.3-2.9,4.3-5.8v-5.8h60.5c11.5,0,23,0,36,1.4,8.6,0,18.7,0,27.4,1.4,7.2,0,14.4,2.9,20.2,4.3h1.4c0,1.4-2.9,2.9-5.8,2.9-7.2,2.9-15.8,2.9-23,4.3h-218.9c-10.1,0-18.7,0-28.8-1.4-4.3,0-10.1,0-14.4-2.9-1.4,0-4.3,0-4.3-2.9,5.8-4.3,11.5-5.8,18.7-7.2,10.1-1.4,18.7-2.9,28.8-2.9h14.4c11.5,0,21.6-1.4,33.1-1.4h37.4c2.9,0,4.3,1.4,4.3,4.3v2.9l-1.4,5.8h0Z"/>
  <path class="st9" d="M344.2,385.9c0,1.4,2.9,1.4,4.3,2.9,4.3,1.4,10.1,1.4,14.4,2.9,10.1,0,18.7,0,28.8,1.4h218.9c8.6,0,15.8,0,23-4.3,1.4,0,4.3-1.4,5.8-2.9,5.8,2.9,11.5,5.8,14.4,13v2.9c-1.4,1.4-4.3,1.4-7.2,2.9-5.8,1.4-13,2.9-20.2,2.9-11.5,0-23,1.4-34.6,2.9h-207.4c-13,0-25.9-1.4-38.9-4.3-2.9,0-7.2,0-10.1-2.9-1.4,0-2.9-1.4,0-2.9,2.9-4.3,4.3-7.2,8.6-10.1v-4.3h0Z"/>
  <path class="st5" d="M745.9,557.3c10.1-5.8,21.6-10.1,31.7-15.8,8.6-4.3,15.8-8.6,24.5-11.5,4.3-1.4,7.2-2.9,10.1-5.8,5.8-2.9,8.6-7.2,11.5-13,4.3-10.1,4.3-20.2,4.3-31.7s-2.9-18.7-5.8-28.8c0-4.3-2.9-8.6-2.9-13,0,0,1.4,0,2.9,1.4,2.9,4.3,4.3,8.6,7.2,13,2.9,5.8,4.3,13,7.2,18.7,2.9,10.1,5.8,21.6,8.6,31.7,2.9,10.1,4.3,18.7,5.8,28.8,0,2.9,0,4.3-2.9,7.2-7.2,5.8-15.8,10.1-24.5,15.8-8.6,5.8-18.7,10.1-28.8,15.8-7.2,4.3-14.4,7.2-21.6,11.5-7.2,2.9-14.4,7.2-20.2,10.1,0-4.3-1.4-8.6-2.9-11.5-1.4-5.8-1.4-11.5-4.3-17.3v-5.8h0Z"/>
  <path class="st5" d="M760.3,612c0,4.3,2.9,7.2,4.3,11.5s4.3,10.1,5.8,14.4c2.9,5.8,5.8,11.5,10.1,17.3,2.9,2.9,5.8,5.8,10.1,7.2,13,7.2,25.9,11.5,38.9,15.8,7.2,1.4,14.4,2.9,21.6,2.9s5.8,0,8.6-1.4c7.2-2.9,14.4-7.2,20.2-11.5,4.3-2.9,7.2-5.8,11.5-8.6,0,2.9-1.4,4.3-2.9,5.8-4.3,8.6-10.1,15.8-17.3,23-5.8,5.8-13,10.1-21.6,10.1h-10.1c-7.2,0-15.8-1.4-23-4.3-10.1-2.9-20.2-7.2-30.2-10.1-4.3,0-8.6-2.9-13-4.3-1.9,0-2.9.4-2.9,1.4h0c0-5.8,0-11.5-2.9-18.7,0-5.8-1.4-11.5-2.9-17.3,0-4.3-1.4-8.6-1.4-14.4s0-4.3-1.4-7.2c0-4.3-1.4-8.6-2.9-13v-2.9h1.4v4.3h0Z"/>
  <path class="st7" d="M760.3,612h-1.4v-2.9h0v-2.9h2.9c14.4-4.3,28.8-5.8,44.6-7.2,0,0,1.4,0,2.9-1.4,2.9-5.8,4.3-10.1,5.8-15.8v-11.5s0-1.4-2.9,0c-10.1,5.8-21.6,11.5-33.1,17.3-7.2,2.9-14.4,7.2-20.2,10.1v-4.3h0c7.2-4.3,14.4-7.2,20.2-10.1,7.2-4.3,14.4-7.2,21.6-11.5,10.1-5.8,18.7-10.1,28.8-15.8,8.6-4.3,15.8-10.1,24.5-15.8,2.9-1.4,2.9-2.9,2.9-7.2-1.4-10.1-4.3-20.2-5.8-28.8-2.9-10.1-5.8-21.6-8.6-31.7-1.4-7.2-4.3-13-7.2-18.7-1.4-4.3-4.3-8.6-7.2-13,0,0,0-1.4-2.9-1.4h0c0-1.4,0,0,1.4,0h4.3c1.4,0,1.4,2.9,2.9,2.9,2.9,4.3,4.3,8.6,7.2,13,0,0,0,2.9,1.4,4.3h0c1.4,5.8,4.3,11.5,5.8,15.8,2.9,10.1,5.8,21.6,8.6,31.7,1.4,8.6,4.3,18.7,5.8,28.8,0,2.9,0,4.3-2.9,5.8,0,0-2.9,2.9-4.3,2.9l-13,8.6c-7.2,4.3-14.4,8.6-21.6,13,0,0-1.4,0,0,2.9s2.9,7.2,2.9,11.5-1.4,11.5-4.3,17.3v2.9h28.8c0,2.9,0,4.3-2.9,4.3h-43.2c-11.5,0-23,2.9-34.6,5.8h-2.9l-4.3,1.4h0Z"/>
  <path class="st3" d="M704.2,442.1c1.4-2.9,4.3-5.8,5.8-8.6,5.8-5.8,11.5-11.5,18.7-17.3s15.8-11.5,24.5-14.4c4.3-1.4,7.2-2.9,11.5-2.9s4.3,1.4,2.9,4.3c0,4.3-4.3,8.6-7.2,13-11.5,13-24.5,23-38.9,30.2-4.3,1.4-7.2,2.9-11.5,4.3-1.4-2.9-4.3-5.8-4.3-8.6h-1.4,0Z"/>
  <path class="st8" d="M481,378.7v-2.9c0-2.9-1.4-4.3-4.3-4.3h-13,15.8v8.6l1.4-1.4Z"/>
  <path class="st11" d="M485.3,335.5c-10.1-7.2-20.2-11.5-31.7-13h-15.8c-1.9,0-2.9,1-2.9,2.9s1,2.9,2.9,2.9c7.2,0,14.4,0,21.6,1.4,10.1,2.9,20.2,5.8,27.4,14.4h-15.8c-5.8,0-10.1,0-15.8-1.4-10.1,0-20.2-2.9-30.2-8.6-1.4,0-2.9-2.9-4.3-2.9-2.9-2.9-2.9-8.6,1.4-10.1,5.8-2.9,11.5-5.8,17.3-5.8,10.1,0,20.2,0,28.8,5.8,5.8,2.9,11.5,5.8,15.8,13v4.3l1.4-2.9h0ZM442.1,319.7h10.1l-1.4-1.4c-5.8-1.4-11.5-1.4-17.3,0h-1.4,10.1v1.4h0Z"/>
  <path class="st11" d="M491,334.1c0-2.9,2.9-5.8,4.3-8.6,5.8-7.2,13-11.5,21.6-14.4,5.8-2.9,13-4.3,18.7-4.3s8.6,0,11.5,2.9c2.9,4.3,4.3,8.6,0,11.5-4.3,5.8-10.1,8.6-17.3,11.5-4.3,2.9-10.1,4.3-14.4,5.8-7.2,1.4-13,2.9-20.2,4.3h-7.2c2.9-4.3,5.8-7.2,10.1-8.6,8.6-5.8,18.7-10.1,30.2-11.5h4.3c1.4,0,2.9,0,2.9-2.9s0-2.9-2.9-2.9c-4.3,0-8.6,0-11.5,2.9-11.5,2.9-21.6,7.2-30.2,14.4h0ZM534.2,309.6c-4.3,0-10.1,1.4-14.4,4.3,0,0-1.4,0-1.4,2.9h2.9c4.3,0,8.6,0,13-2.9,0,0,2.9,0,2.9-2.9s-2.9,0-4.3,0l1.4-1.4Z"/>
  <path class="st11" d="M486.7,370.1v-5.8s0-1.4,1.4-1.4v13s0,1.4-1.4,1.4c0,0-1.4,0-1.4-1.4v-5.8h1.4Z"/>
  <path class="st8" d="M322.6,501.1h-10.1c-8.6,0-15.8-2.9-21.6-8.6s-10.1-13-14.4-20.2c-5.8-10.1-11.5-21.6-17.3-31.7-4.3-8.6-10.1-15.8-18.7-20.2-4.3-2.9-10.1-4.3-15.8-5.8h-2.9c-1.4-1.4-4.3-1.4-5.8-2.9v-2.9c2.9-2.9,5.8-4.3,8.6-7.2,5.8-4.3,11.5-8.6,18.7-13,5.8-2.9,8.6-2.9,13,1.4l8.6,8.6c8.6,10.1,20.2,15.8,33.1,18.7,7.2,0,14.4,0,20.2-2.9,10.1-4.3,15.8,2.9,18.7,10.1v13c0,8.6-2.9,17.3-4.3,25.9s-4.3,17.3-7.2,25.9c0,2.9-1.4,5.8-2.9,8.6v2.9h0ZM311,436.3h2.9c2.9,0,5.8,0,8.6-2.9v-2.9h-20.2c-8.6-1.4-15.8-4.3-21.6-10.1-2.9-2.9-5.8-4.3-7.2-5.8h-2.9s-1.4,1.4-1.4,2.9c0,2.9,1.4,4.3,2.9,7.2,4.3,4.3,10.1,7.2,15.8,10.1,8.6,2.9,17.3,5.8,25.9,5.8l-2.9-4.3ZM256.3,394.6c-2.9,0-4.3,1.4-4.3,4.3s1.4,4.3,4.3,4.3,4.3-1.4,4.3-4.3-1.4-4.3-4.3-4.3Z"/>
  <path class="st5" d="M224.6,416.2c5.8,0,11.5,2.9,15.8,5.8,8.6,4.3,13,11.5,18.7,20.2,5.8,10.1,11.5,21.6,17.3,31.7,4.3,7.2,8.6,14.4,14.4,20.2,5.8,5.8,13,8.6,21.6,8.6h10.1c0,1.4,0,2.9-1.4,4.3-2.9,7.2-7.2,13-13,18.7s-11.5,7.2-18.7,7.2-2.9-1.4-4.3-2.9c-2.9-4.3-4.3-8.6-5.8-13-2.9-8.6-5.8-15.8-8.6-24.5-2.9-5.8-4.3-13-7.2-18.7-4.3-8.6-7.2-17.3-13-25.9-4.3-7.2-10.1-15.8-15.8-21.6-1.4-2.9-4.3-4.3-7.2-5.8,0,0-1.4,0-1.4-1.4l-1.4-2.9h0Z"/>
  <path class="st10" d="M367.2,430.6h-1.4s-2.9,0-2.9-2.9c0,0,0-2.9,2.9-2.9s4.3,0,5.8-1.4h27.4c10.1,0,18.7,0,28.8,1.4h14.4c14.4,0,28.8,0,43.2,1.4h76.3c11.5,0,24.5,0,36-1.4h20.2c8.6,0,18.7,0,27.4-1.4h11.5c2.9,0,5.8,0,8.6,1.4,1.4,0,1.4,2.9,0,4.3-2.9,2.9-5.8,2.9-8.6,2.9-5.8,0-11.5,1.4-17.3,2.9h-8.6c-7.2,0-14.4,0-20.2,1.4-7.2,0-14.4,0-21.6,1.4h-14.4c-8.6,0-18.7,0-27.4,1.4h-77.8c-10.1,0-21.6,0-31.7-1.4-11.5,0-23-1.4-34.6-2.9-7.2,0-13,0-20.2-1.4-5.8,0-11.5,0-15.8-1.4v-1.4h0Z"/>
  <path class="st5" d="M843.8,600.5h-28.8c-2.9,0-1.4,0,0-2.9,2.9-5.8,4.3-11.5,4.3-17.3s0-7.2-2.9-11.5v-2.9c7.2-4.3,14.4-8.6,21.6-13l13-8.6s2.9-1.4,4.3-2.9,2.9-2.9,2.9-5.8c0-10.1-2.9-18.7-5.8-28.8-2.9-11.5-5.8-21.6-8.6-31.7-1.4-5.8-2.9-11.5-5.8-15.8h0c2.9,4.3,4.3,8.6,7.2,14.4,5.8,11.5,10.1,23,14.4,34.6,2.9,8.6,5.8,18.7,7.2,27.4,0,7.2,0,15.8-2.9,23-2.9,13-8.6,25.9-14.4,37.4s-2.9,5.8-5.8,8.6v-4.3h0Z"/>
  <path class="st3" d="M802.1,625c-7.2,0-15.8,0-23-2.9-1.4,0-4.3,0-5.8-2.9-2.9-1.4-2.9-4.3,0-5.8,4.3-2.9,8.6-4.3,13-4.3,10.1-1.4,18.7-2.9,28.8-2.9s13,0,18.7,2.9c1.4,0,4.3,0,5.8,2.9,2.9,1.4,2.9,4.3,0,5.8-2.9,2.9-7.2,4.3-11.5,4.3-8.6,1.4-17.3,2.9-25.9,2.9Z"/>
  <path class="st2" d="M826.6,434.9h-5.8c-5.8-1.4-10.1,0-15.8,0-10.1,1.4-18.7,5.8-27.4,10.1-5.8,2.9-11.5,7.2-15.8,11.5-2.9,1.4-4.3,4.3-5.8,7.2,0,1.4-2.9,2.9-4.3,1.4,0,0-1.4-2.9,0-4.3,2.9-5.8,8.6-11.5,14.4-15.8,7.2-5.8,15.8-10.1,24.5-13,8.6-2.9,17.3-4.3,25.9-4.3s5.8,0,8.6,4.3l1.4,2.9h0Z"/>
  <path class="st3" d="M809.3,443.5h7.2c2.9,0,2.9,2.9,0,4.3-2.9,2.9-5.8,2.9-8.6,4.3-5.8,1.4-11.5,2.9-18.7,4.3h-8.6s-2.9,0-2.9-1.4c0,0,0-2.9,1.4-2.9,4.3-2.9,10.1-4.3,15.8-5.8,4.3,0,7.2-1.4,11.5,0l2.9-2.9h0Z"/>
  <path class="st3" d="M442.1,319.7h-10.1,1.4c5.8-1.4,11.5-1.4,17.3,0,0,0,1.4,0,1.4,1.4h-10.1v-1.4h0Z"/>
  <path class="st3" d="M534.2,309.6h4.3l-2.9,2.9c-4.3,2.9-8.6,2.9-13,2.9h-2.9s0-1.4,1.4-2.9c4.3-2.9,8.6-4.3,14.4-4.3l-1.4,1.4Z"/>
  <path class="st3" d="M311,436.3c-8.6,0-17.3-2.9-25.9-5.8-5.8-2.9-11.5-5.8-15.8-10.1-1.4-1.4-2.9-4.3-2.9-7.2,0,0,0-2.9,1.4-2.9h2.9c2.9,1.4,5.8,4.3,7.2,5.8,5.8,5.8,14.4,8.6,21.6,10.1,5.8,0,11.5,1.4,15.8,0h4.3c1.4,0,1.4,1.4,0,2.9-2.9,2.9-5.8,2.9-8.6,2.9h-2.9l2.9,4.3Z"/>
  <path class="st3" d="M256.3,394.6c2.9,0,4.3,1.4,4.3,4.3s-1.4,4.3-4.3,4.3-4.3-1.4-4.3-4.3,1.4-4.3,4.3-4.3Z"/>
</svg>