<?xml version="1.0" encoding="UTF-8"?>
<svg id="Layer_1" xmlns="http://www.w3.org/2000/svg" version="1.1" viewBox="0 0 1080 1080">
  <!-- Generator: Adobe Illustrator 29.0.0, SVG Export Plug-In . SVG Version: 2.1.0 Build 186)  -->
  <defs>
    <style>
      .st0 {
        fill: #fff;
      }
    </style>
  </defs>
  <path class="st0" d="M540,0h0c298.1,0,540,241.9,540,540h0c0,298.1-241.9,540-540,540h0C241.9,1080,0,838.1,0,540h0C0,241.9,241.9,0,540,0Z"/>
  <path d="M604.7,504c0,35.9-28.9,64.8-64.7,64.8v64.8c71.4,0,129.3-58,129.3-129.6s-57.9-129.6-129.3-129.6-45.6,6.3-64.7,17.4c-38.6,22.5-64.7,64.2-64.7,112.2v324l58.2,58.3,6.5,6.5v-388.8c0-35.9,28.9-64.8,64.7-64.8s64.7,28.9,64.7,64.8h0Z"/>
  <path d="M540,244.8c-47.1,0-91.3,12.7-129.3,34.7-24.3,14.1-46.2,32.1-64.7,53.1-40.2,45.6-64.7,105.7-64.7,171.4v194.4l64.7,64.8v-259.2c0-57.6,24.9-109.3,64.7-144.9,18.7-16.7,40.6-30,64.7-38.5,20.2-7.2,42.1-11.1,64.7-11.1,107.1,0,194,87,194,194.4s-86.8,194.4-194,194.4v64.8c142.8,0,258.6-116.1,258.6-259.2s-115.8-259.2-258.6-259.2h0Z"/>
</svg>