<?xml version="1.0" encoding="UTF-8"?>
<svg id="Layer_1" xmlns="http://www.w3.org/2000/svg" version="1.1" viewBox="0 0 1080 1080">
  <!-- Generator: Adobe Illustrator 29.0.0, SVG Export Plug-In . SVG Version: 2.1.0 Build 186)  -->
  <defs>
    <style>
      .st0 {
        fill: #fff;
      }
    </style>
  </defs>
  <path class="st0" d="M540,0h0c298.2,0,540,241.8,540,540h0c0,298.2-241.8,540-540,540h0C241.8,1080,0,838.2,0,540h0C0,241.8,241.8,0,540,0Z"/>
  <path d="M866.2,609.1c0-92.2-37.4-181.4-103.7-247.7-66.2-64.8-155.5-102.2-249.1-102.2h-37.4v144l-144-144h-103.7l177.1,175.7h-191.5v36c0,92.2,37.4,181.4,103.7,247.7,66.2,64.8,155.5,102.2,249.1,102.2h37.4v-144l142.6,141.1h103.7l-174.2-172.8h190.1v-36h0ZM550.8,571.7h-95c-10.1,0-18.7,4.3-25.9,10.1s-10.1,15.8-10.1,25.9,4.3,18.7,10.1,25.9c7.2,7.2,15.8,10.1,25.9,10.1h74.9v100.8c-60.5-8.6-116.6-36-159.8-79.2-43.2-43.2-70.6-99.4-79.2-158.4h334.1c4.3,0,10.1-1.4,14.4-2.9s8.6-4.3,13-7.2,5.8-7.2,8.6-11.5c1.4-4.3,2.9-10.1,2.9-14.4s-1.4-10.1-2.9-14.4-4.3-8.6-8.6-11.5-7.2-5.8-13-7.2c-4.3-1.4-10.1-2.9-14.4-2.9h-76.3v-100.8c60.5,8.6,116.6,36,159.8,79.2s70.6,99.4,79.2,158.4h-237.6,0ZM591.1,469.4c0-5.8,1.4-11.5,4.3-15.8s7.2-8.6,13-10.1c5.8-1.4,11.5-2.9,17.3-1.4s11.5,4.3,15.8,7.2c4.3,4.3,7.2,8.6,8.6,14.4,1.4,5.8,0,11.5-1.4,17.3s-5.8,10.1-10.1,13-10.1,4.3-15.8,4.3-15.8-2.9-20.2-8.6c-8.6-4.3-11.5-11.5-11.5-20.2h0Z"/>
  <path d="M634.3,483.8c0-2.9-1.4-5.8-2.9-7.2s-4.3-4.3-5.8-4.3c-2.9-1.4-5.8-1.4-7.2-1.4-2.9,0-4.3,1.4-7.2,4.3s-2.9,4.3-4.3,7.2c0,2.9,0,5.8,1.4,7.2s2.9,4.3,4.3,5.8,4.3,2.9,7.2,2.9c4.3,0,7.2-1.4,10.1-4.3,2.9-4.3,4.3-7.2,4.3-10.1h0Z"/>
</svg>