<?xml version="1.0" encoding="UTF-8"?>
<svg id="Layer_1" xmlns="http://www.w3.org/2000/svg" version="1.1" viewBox="0 0 1080 1080">
  <!-- Generator: Adobe Illustrator 29.0.0, SVG Export Plug-In . SVG Version: 2.1.0 Build 186)  -->
  <defs>
    <style>
      .st0 {
        fill: #fff;
      }
    </style>
  </defs>
  <path class="st0" d="M540,0h0c298.2,0,540,241.8,540,540h0c0,298.2-241.8,540-540,540h0C241.8,1080,0,838.2,0,540h0C0,241.8,241.8,0,540,0Z"/>
  <path d="M504.6,252c-17.6,0-34.3,6.9-46.8,19.3l-194.5,194.5c-7.3,7.3-11.1,17-11.1,26.6s3.7,19.3,11.1,26.8l127.6,127.6v-225.6c0-16.9,13.5-30.4,30.4-30.4h268.1l138.7-138.8h-323.4Z"/>
  <path d="M390.8,689.2h268.1c16.8,0,30.4-13.5,30.4-30.4v-225.6l127.6,127.6c7.3,7.3,11.1,17,11.1,26.8s-3.7,19.3-11.1,26.8l-194.5,194.5c-12.4,12.4-29.2,19.3-46.8,19.3l-323.4-.3,138.7-138.7h0Z"/>
</svg>