<?xml version="1.0" encoding="UTF-8"?><svg id="Layer_1" xmlns="http://www.w3.org/2000/svg" width="1079.81" height="1080" xmlns:xlink="http://www.w3.org/1999/xlink" viewBox="0 0 1079.81 1080"><defs><radialGradient id="radial-gradient" cx="-2731.72" cy="1066.79" fx="-2731.72" fy="1066.79" r="10.8" gradientTransform="translate(304078.32 118813.97) scale(111.33 -111.4)" gradientUnits="userSpaceOnUse"><stop offset=".47" stop-color="#5585d6"/><stop offset="1" stop-color="#ea5580"/></radialGradient></defs><path d="M960.73,540.01c0-23.76-2.59-47.66-5.33-68.83h119.08c.29,2.16.43,4.32.72,6.48,2.45,21.31,4.61,40.75,4.61,62.35,0,299.08-240.76,539.99-539.55,539.99S-15.28,823.26.71,510.93C16.55,230.28,251.98,2.77,535.08.03c248.68-2.59,460.21,164.16,523.71,397H429.24c-2.59,0-7.92,0-13.25,2.59-10.66,2.59-15.84,10.66-21.17,21.17-2.59,2.59-2.59,7.92-2.59,13.25,0,2.59,0,7.92,2.59,13.25s5.33,10.66,7.92,13.25l148.17,148.17H204.32c-7.92-42.33-7.92-87.41,0-135.07,29.09-148.17,156.09-262.07,304.12-275.32,108.43-7.92,206.35,31.82,272.44,100.65,7.92,7.92,18.58,13.25,29.09,13.25,37.01,0,52.85-42.33,29.09-68.83-84.67-84.67-203.75-135.07-335.94-124.41-169.34,15.84-312.18,132.33-367.62,293.75-26.5,84.67-23.76,166.75-2.59,240.91,1.58,1.58,2.16,2.16,2.45,3.02v2.3c52.85,174.67,214.27,301.82,404.77,301.82,232.84,0,420.61-187.91,420.61-420.9h0v.14ZM664.53,683c7.92-2.59,15.84-10.66,21.17-21.17,0-.72.14-1.44.43-2.59.58-3.02,1.58-8.06-.43-15.98,0-2.59,0-7.92-2.59-13.25s-5.33-10.66-7.92-13.25l-148.17-148.17h346.6c7.92,42.33,7.92,87.41,0,135.07-29.09,150.91-158.68,264.66-309.45,275.32-145.44,10.66-275.03-71.42-333.35-193.24h420.61c2.59,0,7.92,0,13.25-2.59h0l-.14-.14Z" style="fill:url(#radial-gradient); fill-rule:evenodd;"/></svg>