<?xml version="1.0" encoding="UTF-8"?>
<svg id="Layer_1" xmlns="http://www.w3.org/2000/svg" xmlns:xlink="http://www.w3.org/1999/xlink" version="1.1" viewBox="0 0 1080 1080">
  <!-- Generator: Adobe Illustrator 29.0.0, SVG Export Plug-In . SVG Version: 2.1.0 Build 186)  -->
  <defs>
    <style>
      .st0 {
        fill-rule: evenodd;
      }

      .st0, .st1 {
        fill: #fff;
      }

      .st2 {
        fill: url(#linear-gradient2);
      }

      .st3 {
        fill: url(#linear-gradient1);
      }

      .st4 {
        fill: url(#linear-gradient);
      }

      .st5 {
        fill: #0e0f23;
      }
    </style>
    <linearGradient id="linear-gradient" x1="437.7" y1="2536.8" x2="548.6" y2="2915.5" gradientTransform="translate(0 -2341.9)" gradientUnits="userSpaceOnUse">
      <stop offset="0" stop-color="#03b8ff"/>
      <stop offset="1" stop-color="#fa52a0"/>
    </linearGradient>
    <linearGradient id="linear-gradient1" x1="530.9" y1="2510.1" x2="640.3" y2="2888.8" gradientTransform="translate(0 -2341.9)" gradientUnits="userSpaceOnUse">
      <stop offset="0" stop-color="#03b8ff"/>
      <stop offset="1" stop-color="#fa52a0"/>
    </linearGradient>
    <linearGradient id="linear-gradient2" x1="347.2" y1="2562.5" x2="458.1" y2="2941.2" gradientTransform="translate(0 -2341.9)" gradientUnits="userSpaceOnUse">
      <stop offset="0" stop-color="#03b8ff"/>
      <stop offset="1" stop-color="#fa52a0"/>
    </linearGradient>
  </defs>
  <path class="st1" d="M540,0h0c298.1,0,540,241.9,540,540h0c0,298.1-241.9,540-540,540h0C241.9,1080,0,838.1,0,540h0C0,241.9,241.9,0,540,0Z"/>
  <path class="st4" d="M328.3,249.1l558.7,380.2-138.2,203L190.1,449.3l138.2-200.2h0Z"/>
  <path class="st3" d="M888.5,629.3c-47.5,69.1-210.2,41.8-364.3-66.2-157-105.1-240.5-244.8-194.4-313.9,47.5-69.1,210.2-41.8,364.3,66.2,157,102.2,240.5,244.8,194.4,313.9Z"/>
  <path class="st2" d="M748.8,829.4c-47.5,69.1-210.2,41.8-364.3-66.2-152.6-108-240.5-244.8-193-316.8,47.5-69.1,210.2-41.8,364.3,66.2,154.1,108,237.6,249.1,193,316.8Z"/>
  <path class="st5" d="M888.5,629.3l-138.2,203c-47.5,69.1-210.2,38.9-364.3-66.2-30.2-20.2-56.2-41.8-83.5-66.2,21.6-2.9,47.5-14.4,74.9-44.6,47.5-50.4,72-61.9,93.6-60.5,21.6,0,44.6,20.2,83.5,72s93.6,66.2,125.3,38.9c2.9-2.9,5.8-2.9,8.6-5.8,27.4-20.2,36-30.2,87.8-125.3,13-24.5,54.7-61.9,110.9-44.6,14.4,38.9,14.4,72,0,99.4h1.4,0Z"/>
  <path class="st0" d="M866.9,616.3c-41.8,60.5-188.6,30.2-329.8-69.1-144-99.4-227.5-224.6-185.8-283.7,41.8-60.5,188.6-30.2,329.8,69.1,141.1,99.4,226.1,224.6,185.8,283.7ZM734.4,527c-21.6,30.2-93.6,14.4-165.6-33.1-69.1-47.5-110.9-110.9-89.3-141.1s93.6-14.4,165.6,33.1c69.1,47.5,110.9,110.9,89.3,141.1Z"/>
  <path class="st1" d="M316.8,318.2c0-2.9-2.9-5.8-5.8-2.9s-5.8,2.9-5.8,5.8c2.9,8.6,5.8,14.4,5.8,20.2s2.9,5.8,5.8,2.9c2.9,0,5.8-2.9,2.9-5.8,0-5.8,0-13-2.9-20.2Z"/>
  <path class="st1" d="M332.6,365.8c0-2.9-2.9-5.8-5.8-2.9s-2.9,4.3-2.9,5.8c33.1,74.9,102.2,155.5,193,216,2.9,2.9,5.8,0,8.6,0,2.9-2.9,0-5.8,0-8.6-93.6-60.5-159.8-136.8-193-208.8h0v-1.4Z"/>
  <path class="st1" d="M695.5,658.1c-2.9,0-5.8,0-5.8,2.9s0,5.8,2.9,5.8c8.6,2.9,21.6,5.8,30.2,8.6,2.9,0,5.8,0,5.8-2.9s0-5.8-2.9-5.8c-8.6-2.9-21.6-5.8-30.2-8.6Z"/>
  <path class="st1" d="M748.8,671c-2.9,0-5.8,2.9-5.8,5.8s2.9,5.8,5.8,5.8c24.5,2.9,50.4,5.8,72,2.9,2.9,0,5.8-2.9,5.8-5.8s-2.9-5.8-5.8-5.8c-24.5,2.9-47.5,0-72-2.9Z"/>
</svg>