<?xml version="1.0" encoding="UTF-8"?>
<svg id="Layer_1" xmlns="http://www.w3.org/2000/svg" version="1.1" viewBox="0 0 1080 1080">
  <!-- Generator: Adobe Illustrator 29.0.0, SVG Export Plug-In . SVG Version: 2.1.0 Build 186)  -->
  <defs>
    <style>
      .st0 {
        fill: #6df866;
      }

      .st1 {
        fill: #fff;
      }
    </style>
  </defs>
  <path class="st1" d="M540,0h0c298.1,0,540,241.9,540,540h0c0,298.1-241.9,540-540,540h0C241.9,1080,0,838.1,0,540h0C0,241.9,241.9,0,540,0Z"/>
  <path class="st0" d="M702.7,478.1c-11.5-11.5-7.2-25.9-7.2-38.9v-46.1c0-10.1,0-18.7,8.6-25.9-11.5,0-17.3-5.8-23-14.4-5.8-10.1-14.4-17.3-21.6-27.4-4.3-5.8-8.6-13-5.8-21.6,0-2.9-1.4-4.3-4.3-5.8-1.4,0-4.3,0-5.8-1.4-11.5-2.9-15.8-5.8-17.3-18.7s-2.9-13-14.4-13h-139.7c-11.5,0-13,1.4-14.4,13s-7.2,18.7-18.7,20.2c-7.2,1.4-8.6,2.9-7.2,10.1,0,4.3,0,8.6-4.3,13-10.1,13-20.2,25.9-28.8,37.4-2.9,2.9-5.8,5.8-10.1,5.8s-5.8,1.4-10.1,2.9c11.5,8.6,10.1,20.2,10.1,30.2v51.8c0,11.5,0,21.6-11.5,30.2,13,0,20.2,7.2,25.9,14.4,7.2,10.1,14.4,18.7,21.6,27.4,4.3,5.8,5.8,11.5,5.8,17.3s0,7.2,5.8,7.2h5.8c7.2,1.4,13,4.3,14.4,13,2.9,7.2,2.9,15.8-4.3,21.6s-5.8,10.1,0,14.4c4.3,4.3,5.8,10.1,5.8,14.4v64.8c0,10.1-5.8,15.8-15.8,18.7h-2.9c-7.2,0-11.5,5.8-11.5,13-1.4,11.5-7.2,18.7-20.2,18.7h-63.4c-14.4,0-20.2-5.8-21.6-20.2,0-6.7-3.4-10.1-10.1-10.1-10.1,0-17.3-4.3-21.6-13s-2.9-15.8,4.3-21.6c7.2-5.8,7.2-7.2,0-14.4-4.3-2.9-5.8-7.2-5.8-11.5v-56.2c0-5.8,2.9-13,7.2-15.8,2.9-2.9,2.9-4.3,0-7.2-7.2-8.6-10.1-7.2-10.1-25.9-11.5,4.3-20.2-1.4-28.8-8.6-11.5-10.1-23-18.7-36-27.4-7.2-5.8-10.1-13-7.2-21.6s10.1-14.4,18.7-15.8c4.3,0,8.6,0,13,4.3,15.8,11.5,31.7,24.5,47.5,36,2.9,2.9,5.8,5.8,4.3,10.1,0,5.8,2.9,8.6,7.2,8.6h5.8c14.4,2.9,21.6,15.8,14.4,28.8,0,2.9-2.9,4.3-4.3,5.8-2.9,4.3-2.9,7.2,0,10.1,4.3,4.3,5.8,10.1,5.8,15.8v53.3c0,7.2-2.9,13-7.2,18.7-4.3,2.9-4.3,5.8,0,10.1s8.6,11.5,8.6,20.2,2.9,8.6,7.2,8.6h72c4.3,0,7.2-1.4,7.2-5.8v-64.8c0-7.2,1.4-14.4,7.2-20.2,4.3-2.9,2.9-8.6-2.9-13-4.3-2.9-5.8-7.2-5.8-13-1.4-11.5-2.9-13-14.4-14.4-4.3,0-8.6-2.9-11.5-7.2-7.2-13-18.7-23-27.4-36s-4.3-10.1-2.9-14.4c2.9-7.2,0-14.4-5.8-20.2s-8.6-14.4-8.6-23v-66.2c0-7.2,1.4-13,7.2-18.7s7.2-13,7.2-20.2,1.4-14.4,5.8-20.2c10.1-11.5,18.7-23,27.4-34.6,2.9-4.3,7.2-7.2,13-7.2s10.1-2.9,10.1-10.1v-7.2c2.9-8.6,8.6-13,17.3-13s11.5-1.4,13-11.5c1.4-14.4,5.8-20.2,21.6-20.2,47.5-1.4,95-1.4,142.6,0,14.4,0,20.2,5.8,21.6,21.6,0,7.2,2.9,10.1,10.1,10.1,14.4,1.4,18.7,4.3,20.2,20.2,1,6.7,4.8,10.1,11.5,10.1,10.1,0,7.2,2.9,11.5,5.8,10.1,13,20.2,25.9,30.2,38.9,2.9,4.3,4.3,8.6,4.3,13,0,10.1,2.9,18.7,10.1,25.9s4.3,8.6,4.3,14.4v73.4c0,24.5-1.4,11.5-5.8,15.8-7.2,5.8-10.1,14.4-7.2,24.5,1.4,4.3,0,7.2-2.9,10.1-10.1,13-20.2,25.9-28.8,37.4s-10.1,8.6-15.8,8.6-10.1,4.3-10.1,11.5-2.9,11.5-5.8,14.4-5.8,10.1,0,14.4c4.3,4.3,5.8,11.5,5.8,17.3v54.7c0,15.8,0,17.3,15.8,17.3h61.9c4.3,0,8.6-1.4,8.6-7.2,0-8.6,2.9-14.4,8.6-20.2,5.8-5.8,4.3-5.8,0-8.6-5.8-4.3-8.6-13-8.6-20.2v-54.7c0-5.8,1.4-10.1,5.8-14.4,4.3-2.9,2.9-5.8,0-10.1s-4.3-7.2-5.8-13c-2.9-8.6,0-14.4,7.2-20.2,4.3-2.9,8.6-2.9,13-4.3,4.3,0,8.6-2.9,7.2-8.6,0-4.3,2.9-8.6,5.8-11.5,15.8-11.5,30.2-23,46.1-36,10.1-7.2,20.2-4.3,27.4,4.3s5.8,20.2-2.9,27.4c-14.4,13-30.2,24.5-46.1,37.4-4.3,2.9-8.6,2.9-14.4,1.4-2.9,0-4.3,0-5.8,4.3,0,7.2-2.9,14.4-10.1,20.2-4.3,2.9-4.3,5.8,0,8.6s5.8,7.2,5.8,13c0,18.7,1.4,37.4,2.9,56.2,0,7.2-2.9,14.4-10.1,20.2-4.3,2.9-2.9,5.8,0,8.6l2.9,2.9c7.2,7.2,8.6,14.4,4.3,21.6s-11.5,13-21.6,13-7.2,1.4-10.1,7.2v4.3c0,11.5-7.2,18.7-18.7,18.7h-63.4c-14.4,0-20.2-5.8-21.6-20.2,0-5.8-4.3-8.6-10.1-10.1h-4.3c-10.1-1.4-15.8-7.2-15.8-17.3v-69.1c0-4.3,1.4-8.6,4.3-11.5,5.8-7.2,5.8-8.6,0-15.8-5.8-5.8-5.8-13-4.3-20.2,1.4-7.2,7.2-13,14.4-14.4,4.3,0,8.6,1.4,11.5-1.4s0-7.2,0-11.5,4.3-8.6,5.8-13c8.6-11.5,17.3-21.6,25.9-33.1,4.3-4.3,10.1-8.6,17.3-8.6h13,0Z"/>
  <path class="st0" d="M338.4,815h33.1c7.2,0,10.1-1.4,10.1-10.1s2.9-11.5,5.8-15.8c21.6-21.6,43.2-41.8,64.8-63.4s8.6-5.8,13-5.8c6.7,0,10.6-3.8,11.5-11.5,0-10.1,5.8-15.8,14.4-18.7,8.6-2.9,15.8,0,21.6,5.8,10.1,10.1,4.3,27.4-8.6,31.7h-4.3c-11.5,1.4-11.5,2.9-13,13,0,4.3-2.9,8.6-5.8,13-21.6,21.6-44.6,43.2-66.2,63.4-4.3,4.3-10.1,5.8-14.4,5.8-7.2,0-10.1,2.9-11.5,10.1-2.9,18.7-5.8,21.6-24.5,21.6h-54.7c-4.3,0-7.2,0-11.5-1.4-8.6-2.9-11.5-10.1-13-17.3v-5.8c0-5.8-2.9-7.2-8.6-7.2h-5.8c-11.5-2.9-17.3-10.1-15.8-21.6,0-11.5,8.6-17.3,20.2-15.8,11.5,0,20.2,7.2,20.2,18.7s1.4,11.5,13,11.5h30.2Z"/>
  <path class="st0" d="M744.5,855.4h-30.2c-14.4,0-20.2-5.8-23-18.7v-4.3c0-4.3-2.9-5.8-5.8-5.8-10.1,0-15.8-4.3-23-10.1-18.7-18.7-38.9-37.4-59-56.2-5.8-5.8-8.6-11.5-8.6-18.7s-1.4-8.6-8.6-10.1c-2.9,0-5.8,0-7.2-1.4-11.5-2.9-17.3-11.5-14.4-23,1.4-10.1,11.5-15.8,23-14.4,11.5,1.4,15.8,5.8,18.7,18.7,1,7.7,5.3,12,13,13,4.3,0,8.6,2.9,13,5.8,21.6,20.2,43.2,41.8,64.8,61.9,4.3,4.3,5.8,10.1,5.8,15.8s2.9,10.1,10.1,10.1h67.7c8.6,0,10.1-1.4,10.1-10.1,1.4-15.8,11.5-23,25.9-20.2,10.1,2.9,14.4,10.1,13,21.6,0,10.1-5.8,14.4-14.4,15.8-10.1,1.4-14.4,7.2-15.8,15.8-1.4,11.5-5.8,14.4-15.8,15.8-11.5,1.4-23,0-33.1,0h-1.4l-4.3-1.4h0Z"/>
  <path class="st0" d="M469.4,517v-18.7c1.4-10.1,10.1-14.4,20.2-14.4s18.7,5.8,20.2,14.4c1.4,11.5,1.4,24.5,0,36-1.4,8.6-10.1,14.4-20.2,14.4s-18.7-5.8-20.2-14.4c-1.4-5.8,0-11.5,0-17.3h0Z"/>
  <path class="st0" d="M612,515.5v13c0,11.5-7.2,20.2-20.2,20.2s-20.2-7.2-20.2-20.2v-25.9c0-11.5,8.6-18.7,21.6-18.7s18.7,7.2,20.2,18.7v13h-1.4Z"/>
</svg>