<?xml version="1.0" encoding="UTF-8"?><svg id="Layer_1" xmlns="http://www.w3.org/2000/svg" width="1080" height="1080" viewBox="0 0 1080 1080"><path d="M1080,540c0,298.23-241.77,540-540,540-102.45,0-198.24-28.53-279.85-78.09-35.32-21.43-67.98-46.8-97.37-75.51C62.35,828.34,0,691.45,0,540,0,241.77,241.77,0,540,0s540,241.77,540,540Z" style="fill:#fff;"/><path d="M522.14,194.2c269.83-14.17,454.76,268.23,325.97,508.86-115.26,215.35-414.78,247.37-573.85,61.48-188.98-220.85-40.02-555.22,247.88-570.34ZM474.46,659.3c-.05-5.64.56-11.23,2.4-16.61,19.51-57.06,44.73-147.93,70.77-198.57,50.59-98.43,247.09-98.37,230.52,26.74-4.58,34.55-35.01,58.1-61.81,76.25,20.07,12.14,36.33,19.32,51.77,37.95,7.27,8.77,0,16.39,18.44,15.32,91.64-5.31,65.1-126.87,41.85-182.63-66.89-160.45-256.97-237.57-416.81-164.86-57.82,26.3-109.7,73.45-140.86,128.51,32.96-4.96,63.37-11.07,94.55,5.57,13.18,7.03,18.77,17.28,24.53,30.72,31.23,72.85,48.66,161.13,79.55,234.73,1.38,3.3.34,7.91,5.09,6.89ZM705.91,600.62c-3.41-17.13-35.56-30.28-50.87-33.75-14.31-3.24-37.45,5.43-35.68-19.8.86-12.2,10.5-4.56,18.09-5.88,45.79-7.93,88.83-28.88,81.97-83.57-2.39-19.04-21.05-42.62-40.23-46.09-54.61-9.88-87.14,16-106.21,64.84l-96.74,279.64c-20.77,10.98-24.7.18-32-16.38-44.38-100.67-68.45-220.9-111.82-323.27-42.46-36.12-81.29-3.48-94.56,42.67-87.32,303.83,308.79,540.05,531.99,293.57,28.34-31.3,68.59-98.21,74.21-139.94,1.56-11.61-21,3.81-25.78,5.36-10.64,3.45-21.65,6.57-32.95,6.8,29.63,179.66-269.23,192.41-248.69,1.69.72-6.73,5.92-27.78,12.55-28.91,2.76-.66,5.39,3.03,6.46,3.03h150.25ZM723.18,624.79h-88.08c-2.04,0-24.55,5.37-27.9,6.64-37.26,14.14-3.47,92.49,29.47,102.28,67.38,20.03,107.23-50.33,86.5-108.92Z" style="fill:#ea347b;"/></svg>