<?xml version="1.0" encoding="UTF-8"?><svg id="Layer_1" xmlns="http://www.w3.org/2000/svg" width="1080" height="1080" viewBox="0 0 1080 1080"><path d="M1080,540c0,298.23-241.77,540-540,540-102.45,0-198.24-28.53-279.85-78.09-35.32-21.43-67.98-46.8-97.37-75.51C62.35,828.34,0,691.45,0,540,0,241.77,241.77,0,540,0s540,241.77,540,540Z" style="fill:#fff;"/><path d="M572.43,803l11.05-25.59h306.52s-18.03-46.24-28.5-61.65l-49.15-65.72-6.11-24.72-37.52-49.44-13.67-30.83-24.72-42.75-6.69-34.03s-18.9-14.54-28.21-18.03c0,0-14.54-26.46-17.16-40.13-2.62-13.67-3.49-24.72-3.49-24.72l-26.46-10.18-25.59-26.46s-18.03,0-22.97-8.43l-18.03-55.26-6.98-2.62-27.92-65.43c0-.29-28.5,42.17-28.5,42.17,0,0-23.56-1.74-27.92-3.78,0,0-10.76,2.04-14.83,8.72l-16,18.32s-4.94,20.65-3.49,31.7l-4.65,9.89-9.02-5.53s-1.16,13.09-6.11,36.64c0,0-13.38,20.36-29.08,47.11,0,0-18.03,30.83-25.59,47.69,0,0-22.1,12.8-31.7,24.72,0,0,3.49,33.15-6.69,53.8-10.18,20.36-43.62,51.18-43.62,51.18l-11.05,36.64s-31.7,29.08-44.5,46.24l-12.8,33.44-41.3,79.98,59.04-.58h237.02l21.23,24.72" style="fill:#fff;"/><line x1="737.32" y1="649.16" x2="734.7" y2="657.59" style="fill:none;"/><line x1="698.06" y1="684.06" x2="699.8" y2="673" style="fill:none;"/><path d="M588.42,468.85s12.21-4.65,19.78-3.2c0,0-5.53-1.74-9.31-1.45,0,0,6.98-1.74,13.38,1.45,6.11,3.2,9.6,4.36,10.18,4.65s6.69,2.04,8.14,3.49,2.62,7.56,2.62,7.56c0,0-2.91-4.36-11.05-3.49,0,0,1.74-2.04,4.65-1.74,0,0-5.23-1.45-9.31-2.62-3.78-1.16-8.43-3.49-8.43-3.49,0,0,3.49,3.2,4.36,4.94-.29-.58-9.89-6.4-25.01-6.11Z" style="fill:#fff;"/><path d="M600.64,484.55s9.6-1.45,16-.29c0,0,5.23,4.36,5.53,8.14,0,0-13.09-7.56-21.52-7.85Z" style="fill:#fff;"/><path d="M614.89,492.7l-2.04,4.36s-18.61-2.04-21.52-1.16c0,0-9.89,3.49-11.92,6.4,0,0,8.43-4.07,13.38-4.36,0,0,8.43-.58,12.51,1.45,4.07,2.04,7.56,2.62,8.43,2.33,0,0,.29,1.45,2.04,2.91,1.74,1.45,3.78,4.36,3.49,6.11,0,0,1.16-6.69-3.49-11.92l-.87-6.11Z" style="fill:#fff;"/><polygon points="386.01 492.41 376.12 516.83 366.53 519.16 380.49 495.9 386.01 492.41" style="fill:#fff;"/><path d="M329.88,630.25l-8.72,25.88s-7.56,1.16-10.18,9.02l18.9-34.9Z" style="fill:#fff;"/><path d="M691.37,462.45l23.27,14.83s-36.64,20.07-41.88,38.1l18.61-52.93Z" style="fill:#fff;"/><path d="M764.66,586.92c0,3.78,2.33,29.08,2.33,29.08l31.99,13.38-34.32-42.46Z" style="fill:#fff;"/><path d="M249.04,775.37h237.02l21.23,24.72-11.92-30.83,29.08-42.75s18.03-8.43,26.46-17.16l14.54-19.78s-6.11-4.65-5.23-13.09l45.37-55.26,39.26,2.62s15.41,4.36,18.9,10.18c3.49,6.11,10.18,31.7,10.18,31.7l-.87-18.9s19.78,25.59,24.72,36.64l1.74-11.05,27.34-23.85s9.31-3.49,10.18,0l-2.62,8.43,9.31-5.23s9.02,13.67,12.51,22.97c0,0-3.49,5.82-13.38,12.8-8.14,6.11-16.58,8.43-18.9,11.05-19.78,16.29-20.65,33.44-32.57,32.57-11.92-.87-14.54-14.54-14.54-14.54l-34.32-15.41-11.05-11.05s18.9-2.62,28.21-14.54c0,0-13.67,8.43-23.85,6.11,0,0,0-11.05,9.31-18.9,0,0-10.18,6.11-18.9,18.03,0,0-30.83,11.92-51.18,11.05l-18.03,22.1s12.8,38.39,13.67,47.99l.87,40.13,11.05-25.59h307.4s-18.03-46.24-28.5-61.65l-49.15-65.72-6.11-24.72-37.52-49.44-13.67-30.83-24.72-42.75-6.69-34.03s-18.9-14.54-28.21-18.03c0,0-14.54-26.46-17.16-40.13-2.62-13.67-3.49-24.72-3.49-24.72l-26.46-10.18-25.59-26.46s-18.03,0-22.97-8.43l-18.03-54.38-6.98-2.62-27.92-65.43c0-.29-28.5,42.17-28.5,42.17,0,0-23.56-1.74-27.92-3.78,0,0-10.76,2.04-14.83,8.72l-16,18.32s-4.94,20.65-3.49,31.7l-4.65,9.89-9.02-5.53s-1.16,13.09-6.11,36.64c0,0-13.38,20.36-29.08,47.11,0,0-18.03,30.83-25.59,47.69,0,0-22.1,12.8-31.7,24.72,0,0,3.49,33.15-6.69,53.8-10.18,20.36-43.62,51.18-43.62,51.18l-11.05,36.64s-31.7,29.08-44.5,46.24l-12.8,33.44-41.3,79.98,59.04-.58Z" style="fill:#415e75;"/><path d="M252.53,758.21c13.96-5.82,26.76-1.74,26.76-1.74,4.36-14.54,52.93-84.63,52.93-84.63-3.49-16.29,11.05-55.55,11.05-55.55l-42.75,11.92c-22.1,22.1-40.13,36.64-40.13,36.64-4.36,13.67-9.89,41.01-9.89,41.01l-16.87,36.64,18.9,15.7Z" style="fill:#97becf;"/><path d="M436.32,377.24s-20.36,26.46-24.72,39.26c-4.36,12.8-11.05,33.44-11.05,33.44,0,0-29.08,19.78-33.44,27.34l-8.43,32.28,12.8-11.92s-27.34,55.55-57.29,83.76l-3.49,21.23-7.56,14.54s36.64-15.41,53.8-19.78c0,0,0,49.44,14.54,65.72,0,0-6.98,21.23-5.23,37.52,0,0,6.11-11.05,11.05-15.41,0,0,4.36,18.9,14.54,24.72,0,0-7.56-42.75.87-79.39l-12.8,10.18s8.43-17.16,12.8-36.64c4.36-19.78,2.62-61.65,2.62-61.65,0,0-24.43,26.17-39.84,32.28,0,0,12.21-15.7,21.52-36.06,9.31-20.65,17.16-49.73,17.16-49.73l.87-10.18,24.72-23.85,6.11-26.46s-7.56-10.18,7.56-28.21l2.91-22.97Z" style="fill:#97becf;"/><path d="M514.84,266.73s-20.65-.29-24.14-2.33c0,0-5.53-.58-9.6,4.65-4.36,4.94-13.09,15.41-13.09,15.41,0,0-5.53,22.39-3.49,33.73,0,0,6.4-2.91,14.25-4.94,0,0-2.04,10.18-.87,13.38,0,0,13.96-5.53,17.16-13.38l2.04,3.78s9.02-8.72,13.09-15.12c4.07-6.4,6.4-7.56,9.89-9.31,5.23-2.91,11.63-4.65,16.58-13.96-2.62-2.62-9.89-2.62-13.38-1.74-3.49.58-10.18.58-13.38,1.16-3.2.58-4.07-.58-2.04-2.62,2.04-2.04,6.98-8.72,6.98-8.72Z" style="fill:#fff;"/><path d="M543.34,239.39l-20.36,31.99s12.51-.58,20.07,4.36c0,0-2.91,9.6-11.63,15.7s-18.32,11.34-20.65,20.36c0,0,2.33,29.66,7.56,42.46,0,0,30.83-42.75,38.97-65.72,0,0,4.36-.58,7.85-2.33-.29.29-13.96-31.41-21.81-46.82Z" style="fill:#97becf;"/><path d="M573.88,291.74s-9.02,5.82-16,19.19l-9.6,28.21s19.19,38.39,21.81,50.6l3.78-98.01Z" style="fill:#97becf;"/><path d="M447.37,330.42s4.65,2.91,7.27,6.4c0,0,10.47-12.21,17.74-15.7,0,0,.29,9.31,1.74,12.51,0,0,18.61-7.27,24.72-13.38,0,0,6.69,41.01,9.31,56.13,2.62,15.12,13.09,27.34,16,31.12,0,0-15.41-6.11-19.78-13.09,0,0,4.94,15.7,26.46,31.7,0,0,2.62,9.89,1.45,13.38,0,0-8.72,17.74-9.31,20.36l3.78-.58s15.7-18.32,32.57-24.72l-7.56-.58s13.96-9.6,19.48-10.76c0,0-8.43-4.65-11.05-10.76,0,0,12.51,4.65,22.97,5.23,10.47.58,19.78,2.33,23.56,5.82,0,0,2.91-6.98,1.16-12.21,0,0,12.51,13.09,14.54,18.32l3.2,10.18s2.62-11.92,4.65-15.7c0,0-.29,9.6,1.16,15.12,1.45,5.53,3.78,16.87,5.82,20.36,1.74,3.49,3.78,11.05,1.74,15.7-1.74,4.65-10.47,10.47-10.47,10.47,0,0,0,10.18-4.07,13.38,0,0,.29,12.21,0,13.38s-4.65,9.6-9.02,12.51c0,0,3.2-6.69,3.2-9.31l-2.62,1.45s-4.36,7.56-12.51,9.89l2.62-7.56-2.62.29s-3.78,7.56-9.89,11.34c0,0,2.91-6.11,1.74-12.51,0,0-3.2,6.11-8.43,7.56,0,0,2.33-3.78,1.74-7.56,0,0-4.65,4.07-5.82,10.76,0,0-5.23-6.98-5.82-16.58,0,0-2.62,3.78-1.45,9.6,0,0-7.56-9.02-8.14-14.54s-1.16-9.31-1.16-9.31c0,0-6.11,6.11-9.6,7.27,0,0,2.62,3.2,6.11,2.62,0,0,11.92,18.32,11.34,32.57,0,0-2.62-5.23-5.53-6.11,0,0-1.16,21.23-4.65,30.83l-7.56,13.09s.58-7.85-1.16-10.76c0,0-.87,17.16-10.18,21.81,0,0,1.16,10.18,2.62,18.9.29,2.04-3.49,22.39-2.91,23.85l10.76-17.74,18.61,2.62-32.57,43.91s-17.45,2.91-22.68,6.11c0,0,.29-27.92-4.94-39.26-5.23-11.63-9.6-31.41-9.6-31.41,0,0,19.19-18.61,27.05-31.99,0,0-29.37,30.25-46.82,35.19,0,0,6.98,2.04,11.63,0,0,0,14.83,23.85,16,40.42,0,0-6.98-11.63-12.21-13.96,0,0,15.41,27.63,13.96,46.82,0,0,16-6.11,20.65-2.62,0,0-3.2,6.4,0,10.18,8.72,10.18,21.23,2.04,21.23,2.04l2.91,9.02s-17.74,26.76-34.9,27.92c0,0-25.01-5.82-28.21-12.21l-2.04,6.98s-16.58-18.61-16-31.41c0,0-32.57-25.01-32.57-76.78l-4.36,19.78s3.78,22.39,13.38,39.84c0,0,7.56,21.81,7.56,27.05l2.04-10.18s12.8,18.03,12.21,38.97l5.23-12.21s12.21,9.6,16.58,10.76l-9.02,16.58,14.83-14.83,13.38,3.2-35.77,51.18h-18.03l19.78-28.5s-37.81-35.77-41.59-55.26l-3.78,6.98s-13.38-17.45-13.96-37.22l-3.78,5.82s-10.18-48.57-5.23-70.38c5.23-21.81,17.74-31.7,24.14-38.1,6.4-6.4,25.88-38.68,28.79-48.57,3.2-9.6,12.21-19.78,18.61-23.56l-22.39,10.18s-16.58-31.41-13.96-63.98c0,0-9.6,5.82-10.18,16,0,0-1.16-48.57,12.21-73.58l-6.98,4.36,2.62-50.31Z" style="fill:#fff;"/><path d="M539.85,671.26l78.23-99.17s3.78.29,9.89,2.04c0,0-6.98-9.31-18.03-14.54-6.4-3.2-14.83-3.49-22.68-3.78,0,0,18.32-13.09,43.62-2.91l6.11-7.56s6.98,2.04,11.63,9.02l-5.82,7.56s19.78,18.9,13.67,49.44c0,0-11.05-23.56-23.85-32.86l-79.98,101.79c0-.29-14.83,2.04-12.8-9.02Z" style="fill:#fff;"/><path d="M588.42,468.85s12.21-4.65,19.78-3.2c0,0-5.53-1.74-9.31-1.45,0,0,6.98-1.74,13.38,1.45,6.11,3.2,9.6,4.36,10.18,4.65s6.69,2.04,8.14,3.49,2.62,7.56,2.62,7.56c0,0-2.91-4.36-11.05-3.49,0,0,1.74-2.04,4.65-1.74,0,0-5.23-1.45-9.31-2.62-3.78-1.16-8.43-3.49-8.43-3.49,0,0,3.49,3.2,4.36,4.94-.29-.58-9.89-6.4-25.01-6.11Z" style="fill:#415e75;"/><path d="M600.64,484.55s9.6-1.45,16-.29c0,0,5.23,4.36,5.53,8.14,0,0-13.09-7.56-21.52-7.85Z" style="fill:#415e75;"/><path d="M614.89,492.7l-2.04,4.36s-18.61-2.04-21.52-1.16c0,0-9.89,3.49-11.92,6.4,0,0,8.43-4.07,13.38-4.36,0,0,8.43-.58,12.51,1.45,4.07,2.04,7.56,2.62,8.43,2.33,0,0,.29,1.45,2.04,2.91,1.74,1.45,3.78,4.36,3.49,6.11,0,0,1.16-6.69-3.49-11.92l-.87-6.11Z" style="fill:#415e75;"/><polygon points="386.01 492.41 376.12 516.83 366.53 519.16 380.49 495.9 386.01 492.41" style="fill:#415e75;"/><path d="M329.88,630.25l-8.72,25.88s-7.56,1.16-10.18,9.02l18.9-34.9Z" style="fill:#415e75;"/><path d="M691.37,462.45l23.27,14.83s-36.64,20.07-41.88,38.1l18.61-52.93Z" style="fill:#97becf;"/><path d="M764.66,586.92c0,3.78,2.33,29.08,2.33,29.08l31.99,13.38-34.32-42.46Z" style="fill:#97becf;"/></svg>