<?xml version="1.0" encoding="UTF-8"?>
<svg id="Layer_1" xmlns="http://www.w3.org/2000/svg" version="1.1" viewBox="0 0 1080 1080">
  <!-- Generator: Adobe Illustrator 29.0.0, SVG Export Plug-In . SVG Version: 2.1.0 Build 186)  -->
  <defs>
    <style>
      .st0 {
        fill: #fff;
      }
    </style>
  </defs>
  <path class="st0" d="M540,0h0c298.2,0,540,241.8,540,540h0c0,298.2-241.8,540-540,540h0C241.8,1080,0,838.2,0,540h0C0,241.8,241.8,0,540,0Z"/>
  <path d="M433.6,248.4c-2.7-.7-5.2-2.2-7.3-4.2-6.3-6.3-6.3-16.9,0-23.3s16.9-6.5,23.3,0c3.6,3.6,4.6,8.2,4.8,13.2.7,4.5,1.3,11.1,4.5,14.4,3.3,3.5,15.3,5.2,15.3,5.2,0,0,9.5,1.1,13.1,4.7,6.5,6.3,6.3,16.9,0,23.3-6.5,6.5-16.9,6.5-23.3,0-4.2-4.2-4.2-7.3-4.2-7.3,0,0-1-13.8-6.5-19.3-5.5-5.3-19.6-6.6-19.6-6.6h0c0-.1,0-.1,0-.1Z"/>
  <path d="M472.2,286.9c-2.7-.7-5.2-2.2-7.3-4.2-6.3-6.3-6.3-16.9,0-23.3s16.9-6.5,23.3,0c3.6,3.6,4.6,8.2,4.8,13.2.7,4.5,1.3,11.1,4.6,14.4,3.3,3.5,15.3,5.2,15.3,5.2,0,0,9.5,1.1,13.1,4.8,6.3,6.3,6.3,16.9,0,23.3-6.5,6.5-16.9,6.5-23.2,0-4.2-4.2-4.2-7.3-4.2-7.3,0,0-1-13.8-6.5-19.3-5.5-5.3-19.6-6.6-19.6-6.6h-.3q0-.1,0-.1Z"/>
  <path d="M510.6,325.4c-2.7-.7-5.2-2.2-7.3-4.2-6.3-6.3-6.3-16.9,0-23.3,6.5-6.5,16.9-6.5,23.2,0,3.6,3.6,4.6,8.2,4.8,13.2.7,4.5,1.3,11.1,4.6,14.4,3.3,3.5,15.3,5.2,15.3,5.2,0,0,9.5,1.1,13.1,4.8,6.3,6.3,6.3,16.9,0,23.3-6.5,6.5-16.8,6.5-23.2,0-4.2-4.2-4.2-7.3-4.2-7.3,0,0-1-13.8-6.5-19.3-5.5-5.3-19.6-6.6-19.6-6.6h-.1q0-.1,0-.1Z"/>
  <path d="M549.2,363.9c-2.7-.7-5.2-2.2-7.3-4.2-6.3-6.3-6.3-16.9,0-23.3,6.5-6.5,16.8-6.5,23.2,0,3.6,3.6,4.6,8.2,4.8,13.2.7,4.5,1.3,11.1,4.6,14.4,3.3,3.5,15.3,5.2,15.3,5.2,0,0,9.5,1.1,13.1,4.8,6.3,6.3,6.3,16.9,0,23.3-6.5,6.5-16.8,6.5-23.2,0-4.2-4.2-4.2-7.3-4.2-7.3,0,0-1-13.8-6.5-19.3-5.5-5.3-19.6-6.6-19.6-6.6h-.1q0-.1,0-.1Z"/>
  <path d="M587.8,402.5c-2.7-.7-5.2-2.2-7.3-4.2-6.3-6.3-6.3-16.9,0-23.3,6.5-6.5,16.8-6.5,23.2,0,3.6,3.6,4.6,8.2,4.8,13.2.7,4.5,1.3,11.1,4.6,14.4,3.3,3.5,15.3,5.2,15.3,5.2,0,0,9.5,1.1,13.1,4.8,6.3,6.3,6.3,16.9,0,23.3-6.5,6.5-16.8,6.5-23.2,0-4.2-4.2-4.2-7.3-4.2-7.3,0,0-1-13.8-6.5-19.3-5.5-5.3-19.6-6.6-19.6-6.6h-.1q0-.1,0-.1Z"/>
  <path d="M626.3,441.1c-2.7-.7-5.2-2.2-7.3-4.2-6.3-6.3-6.3-16.9,0-23.3,6.5-6.5,16.8-6.5,23.2,0,3.6,3.6,4.6,8.2,4.8,13.2.7,4.5,1.3,11.1,4.6,14.4,3.3,3.5,15.3,5.2,15.3,5.2,0,0,9.5,1.1,13.1,4.8,6.3,6.3,6.3,16.9,0,23.3-6.5,6.5-16.8,6.5-23.2,0-4.2-4.2-4.2-7.3-4.2-7.3,0,0-1-13.8-6.5-19.3-5.5-5.3-19.6-6.6-19.6-6.6h-.1q0-.1,0-.1Z"/>
  <path d="M507.5,248.4c-2.7-.7-5.2-2.2-7.3-4.2-6.3-6.3-6.3-16.9,0-23.3,6.5-6.5,16.8-6.5,23.2,0,3.6,3.6,4.6,8.2,4.8,13.2.7,4.5,1.3,11.1,4.6,14.4,3.3,3.5,15.3,5.2,15.3,5.2,0,0,9.5,1.1,13.1,4.7,6.3,6.3,6.3,16.9,0,23.3-6.5,6.5-16.8,6.5-23.2,0-4.2-4.2-4.2-7.3-4.2-7.3,0,0-1-13.8-6.5-19.3-5.5-5.3-19.6-6.6-19.6-6.6h-.1q0-.1,0-.1Z"/>
  <path d="M545.9,286.9c-2.7-.7-5.2-2.2-7.3-4.2-6.3-6.3-6.3-16.9,0-23.3,6.5-6.5,16.8-6.5,23.2,0,3.6,3.6,4.6,8.2,4.8,13.2.7,4.5,1.3,11.1,4.6,14.4,3.3,3.5,15.3,5.2,15.3,5.2,0,0,9.5,1.1,13.1,4.8,6.3,6.3,6.3,16.9,0,23.3-6.5,6.5-16.8,6.5-23.2,0-4.2-4.2-4.2-7.3-4.2-7.3,0,0-1-13.8-6.5-19.3-5.5-5.3-19.6-6.6-19.6-6.6h-.1q0-.1,0-.1Z"/>
  <path d="M584.5,325.4c-2.7-.7-5.2-2.2-7.3-4.2-6.3-6.3-6.3-16.9,0-23.3,6.5-6.5,16.8-6.5,23.2,0,3.6,3.6,4.6,8.2,4.8,13.2.7,4.5,1.3,11.1,4.6,14.4,3.3,3.5,15.3,5.2,15.3,5.2,0,0,9.5,1.1,13.1,4.8,6.3,6.3,6.3,16.9,0,23.3-6.5,6.5-16.8,6.5-23.2,0-4.2-4.2-4.2-7.3-4.2-7.3,0,0-1-13.8-6.5-19.3-5.5-5.3-19.6-6.6-19.6-6.6h-.1q0-.1,0-.1Z"/>
  <path d="M622.9,363.9c-2.7-.7-5.2-2.2-7.3-4.2-6.3-6.3-6.3-16.9,0-23.3,6.5-6.5,16.8-6.5,23.2,0,3.6,3.6,4.6,8.2,4.8,13.2.7,4.5,1.3,11.1,4.6,14.4,3.3,3.5,15.3,5.2,15.3,5.2,0,0,9.5,1.1,13.1,4.8,6.3,6.3,6.3,16.9,0,23.3-6.3,6.5-16.8,6.5-23.2,0-4.2-4.2-4.2-7.3-4.2-7.3,0,0-1-13.8-6.5-19.3-5.5-5.3-19.6-6.6-19.6-6.6h-.1q0-.1,0-.1Z"/>
  <path d="M661.5,402.5c-2.7-.7-5.2-2.2-7.3-4.2-6.3-6.3-6.3-16.9,0-23.3,6.5-6.5,16.8-6.5,23.2,0,3.6,3.6,4.6,8.2,4.8,13.2.7,4.5,1.3,11.1,4.6,14.4,3.3,3.5,15.3,5.2,15.3,5.2,0,0,9.5,1.1,13.1,4.8,6.3,6.3,6.3,16.9,0,23.3-6.5,6.5-16.8,6.5-23.2,0-4.2-4.2-4.2-7.3-4.2-7.3,0,0-1-13.8-6.5-19.3-5.5-5.3-19.6-6.6-19.6-6.6h-.1q0-.1,0-.1Z"/>
  <path d="M700.1,441.1c-2.7-.7-5.2-2.2-7.3-4.2-6.3-6.3-6.3-16.9,0-23.3,6.5-6.5,16.8-6.5,23.2,0,3.6,3.6,4.6,8.2,4.8,13.2.7,4.5,1.3,11.1,4.6,14.4,3.3,3.5,15.3,5.2,15.3,5.2,0,0,9.5,1.1,13.1,4.8,6.3,6.3,6.3,16.9,0,23.3-6.5,6.5-16.8,6.5-23.2,0-4.2-4.2-4.2-7.3-4.2-7.3,0,0-1-13.8-6.5-19.3-5.5-5.3-19.6-6.6-19.6-6.6h-.1q0-.1,0-.1Z"/>
  <path d="M652.2,459.2c.7-2.7,2.2-5.2,4.2-7.3,6.3-6.3,16.8-6.3,23.2,0,6.3,6.3,6.5,16.9,0,23.3-3.6,3.6-8.2,4.6-13.2,4.8-4.5.7-11.1,1.3-14.4,4.5-3.5,3.3-5.2,15.3-5.2,15.3,0,0-1.2,9.5-4.8,13.1-6.3,6.3-16.8,6.3-23.2,0s-6.5-16.9,0-23.3,7.3-4.2,7.3-4.2c0,0,13.8-1,19.3-6.5,5.3-5.5,6.6-19.6,6.6-19.6h.1Z"/>
  <path d="M613.7,497.8c.7-2.7,2.2-5.2,4.2-7.3,6.3-6.3,16.8-6.3,23.2,0,6.3,6.3,6.5,16.9,0,23.2-3.6,3.6-8.2,4.6-13.2,4.8-4.5.7-11.1,1.3-14.4,4.6-3.5,3.3-5.2,15.3-5.2,15.3,0,0-1.2,9.5-4.8,13.1-6.3,6.3-16.8,6.3-23.2,0-6.3-6.3-6.5-16.8,0-23.2,4.2-4.2,7.3-4.2,7.3-4.2,0,0,13.8-1,19.3-6.5,5.3-5.5,6.6-19.6,6.6-19.6h.1Z"/>
  <path d="M575.1,536.4c.7-2.7,2.2-5.2,4.2-7.3,6.3-6.3,16.8-6.3,23.2,0,6.3,6.3,6.5,16.8,0,23.2-3.6,3.6-8.2,4.6-13.2,4.8-4.5.7-11.1,1.3-14.4,4.6-3.5,3.3-5.2,15.3-5.2,15.3,0,0-1.2,9.5-4.8,13.1-6.3,6.3-16.8,6.3-23.2,0s-6.5-16.8,0-23.2c4.2-4.2,7.3-4.2,7.3-4.2,0,0,13.8-1,19.3-6.5,5.3-5.5,6.6-19.6,6.6-19.6h.1q0-.1,0-.1Z"/>
  <path d="M726,459.2c.7-2.7,2.2-5.2,4.2-7.3,6.3-6.3,16.8-6.3,23.2,0,6.5,6.5,6.5,16.9,0,23.3-3.6,3.6-8.2,4.6-13.2,4.8-4.5.7-11.1,1.3-14.4,4.5-3.5,3.3-5.2,15.3-5.2,15.3,0,0-1.2,9.5-4.8,13.1-6.3,6.3-16.8,6.3-23.2,0-6.3-6.3-6.5-16.9,0-23.3s7.3-4.2,7.3-4.2c0,0,13.8-1,19.3-6.5,5.3-5.5,6.6-19.6,6.6-19.6h.1Z"/>
  <path d="M687.5,497.8c.7-2.7,2.2-5.2,4.2-7.3,6.3-6.3,16.8-6.3,23.2,0,6.5,6.5,6.5,16.9,0,23.2-3.6,3.6-8.2,4.6-13.2,4.8-4.5.7-11.1,1.3-14.4,4.6-3.5,3.3-5.2,15.3-5.2,15.3,0,0-1.2,9.5-4.8,13.1-6.3,6.3-16.8,6.3-23.2,0s-6.5-16.8,0-23.2c4.2-4.2,7.3-4.2,7.3-4.2,0,0,13.8-1,19.3-6.5,5.3-5.5,6.6-19.6,6.6-19.6h.1Z"/>
  <path d="M649,536.4c.7-2.7,2.2-5.2,4.2-7.3,6.3-6.3,16.8-6.3,23.2,0,6.3,6.3,6.5,16.8,0,23.2-3.6,3.6-8.2,4.6-13.2,4.8-4.5.7-11.1,1.3-14.4,4.6-3.5,3.3-5.2,15.3-5.2,15.3,0,0-1.2,9.5-4.8,13.1-6.3,6.3-16.8,6.3-23.2,0-6.3-6.3-6.5-16.8,0-23.2,4.2-4.2,7.3-4.2,7.3-4.2,0,0,13.8-1,19.3-6.5,5.3-5.5,6.6-19.6,6.6-19.6h.1q0-.1,0-.1Z"/>
  <path d="M610.4,574.8c.7-2.7,2.2-5.2,4.2-7.3,6.3-6.3,16.8-6.3,23.2,0,6.3,6.3,6.5,16.8,0,23.2-3.6,3.6-8.2,4.6-13.2,4.8-4.5.7-11.1,1.3-14.4,4.6-3.5,3.3-5.2,15.3-5.2,15.3,0,0-1.2,9.5-4.8,13.1-6.3,6.3-16.8,6.3-23.2,0s-6.5-16.8,0-23.2c4.2-4.2,7.3-4.2,7.3-4.2,0,0,13.8-1,19.3-6.5,5.3-5.5,6.6-19.6,6.6-19.6h.1q0-.1,0-.1Z"/>
  <path d="M646.4,831.6c2.7.7,5.2,2.2,7.3,4.2,6.3,6.3,6.3,16.8,0,23.2-6.5,6.5-16.8,6.5-23.2,0-3.6-3.6-4.6-8.2-4.8-13.2-.7-4.5-1.3-11.1-4.6-14.4-3.3-3.5-15.3-5.2-15.3-5.2,0,0-9.5-1.2-13.1-4.8-6.3-6.3-6.3-16.8,0-23.2,6.5-6.5,16.8-6.5,23.2,0,4.2,4.2,4.2,7.3,4.2,7.3,0,0,1,13.8,6.5,19.2s19.6,6.6,19.6,6.6h0v.3q.1,0,.1,0Z"/>
  <path d="M607.8,793.2c2.7.7,5.2,2.2,7.3,4.2,6.3,6.3,6.3,16.8,0,23.2-6.3,6.3-16.8,6.5-23.2,0-3.6-3.6-4.6-8.2-4.8-13.2-.7-4.5-1.3-11.1-4.6-14.4-3.3-3.5-15.3-5.2-15.3-5.2,0,0-9.5-1.2-13.1-4.8-6.3-6.3-6.3-16.8,0-23.2,6.3-6.3,16.8-6.5,23.2,0,4.2,4.2,4.2,7.3,4.2,7.3,0,0,1,13.8,6.5,19.3,5.5,5.3,19.6,6.6,19.6,6.6h.1q0,.1,0,.1Z"/>
  <path d="M569.4,754.6c2.7.7,5.2,2.2,7.3,4.2,6.3,6.3,6.3,16.8,0,23.2-6.3,6.3-16.8,6.5-23.2,0-3.6-3.6-4.6-8.2-4.8-13.2-.7-4.5-1.3-11.1-4.6-14.4-3.3-3.5-15.3-5.2-15.3-5.2,0,0-9.5-1.2-13.1-4.8-6.3-6.3-6.3-16.8,0-23.2,6.3-6.3,16.8-6.5,23.2,0,4.2,4.2,4.2,7.3,4.2,7.3,0,0,1,13.8,6.5,19.2s19.6,6.6,19.6,6.6h0v.3q.1,0,.1,0Z"/>
  <path d="M530.8,716.1c2.7.7,5.2,2.2,7.3,4.2,6.3,6.3,6.3,16.8,0,23.2s-16.8,6.5-23.2,0c-3.6-3.6-4.6-8.2-4.8-13.2-.7-4.5-1.3-11.1-4.6-14.4-3.3-3.5-15.3-5.2-15.3-5.2,0,0-9.5-1.2-13.1-4.8-6.3-6.3-6.3-16.8,0-23.2,6.5-6.5,16.9-6.5,23.2,0,4.2,4.2,4.2,7.3,4.2,7.3,0,0,1,13.8,6.5,19.3,5.5,5.3,19.6,6.6,19.6,6.6h.1q0,.1,0,.1Z"/>
  <path d="M492.2,677.5c2.7.7,5.2,2.2,7.3,4.2,6.3,6.3,6.3,16.8,0,23.2-6.3,6.3-16.9,6.5-23.3,0-3.6-3.6-4.6-8.2-4.8-13.2-.7-4.5-1.3-11.1-4.5-14.4-3.3-3.5-15.3-5.2-15.3-5.2,0,0-9.5-1.2-13.1-4.8-6.3-6.3-6.3-16.8,0-23.2,6.5-6.5,16.9-6.5,23.3,0s4.2,7.3,4.2,7.3c0,0,1,13.8,6.5,19.3,5.5,5.3,19.6,6.6,19.6,6.6h0c0,.1,0,.1,0,.1Z"/>
  <path d="M453.7,638.9c2.7.7,5.2,2.2,7.3,4.2,6.3,6.3,6.3,16.8,0,23.2-6.5,6.5-16.9,6.5-23.3,0-3.6-3.6-4.6-8.2-4.8-13.2-.7-4.5-1.3-11.1-4.5-14.4-3.3-3.5-15.3-5.2-15.3-5.2,0,0-9.5-1.2-13.1-4.8-6.3-6.3-6.3-16.8,0-23.2,6.5-6.5,16.9-6.5,23.3,0s4.2,7.3,4.2,7.3c0,0,1,13.8,6.5,19.3,5.5,5.3,19.6,6.6,19.6,6.6h0c0,.1,0,.1,0,.1Z"/>
  <path d="M572.5,831.6c2.7.7,5.2,2.2,7.3,4.2,6.3,6.3,6.3,16.8,0,23.2s-16.8,6.5-23.2,0c-3.6-3.6-4.6-8.2-4.8-13.2-.7-4.5-1.3-11.1-4.6-14.4-3.3-3.5-15.3-5.2-15.3-5.2,0,0-9.5-1.2-13.1-4.8-6.3-6.3-6.3-16.8,0-23.2s16.8-6.5,23.2,0c4.2,4.2,4.2,7.3,4.2,7.3,0,0,1,13.8,6.5,19.2s19.6,6.6,19.6,6.6h0v.3q.1,0,.1,0Z"/>
  <path d="M534.1,793.2c2.7.7,5.2,2.2,7.3,4.2,6.3,6.3,6.3,16.8,0,23.2s-16.8,6.5-23.2,0c-3.6-3.6-4.6-8.2-4.8-13.2-.7-4.5-1.3-11.1-4.6-14.4-3.3-3.5-15.3-5.2-15.3-5.2,0,0-9.5-1.2-13.1-4.8-6.3-6.3-6.3-16.8,0-23.2,6.5-6.5,16.9-6.5,23.2,0,4.2,4.2,4.2,7.3,4.2,7.3,0,0,1,13.8,6.5,19.3,5.5,5.3,19.6,6.6,19.6,6.6h.1q0,.1,0,.1Z"/>
  <path d="M495.5,754.6c2.7.7,5.2,2.2,7.3,4.2,6.3,6.3,6.3,16.8,0,23.2s-16.9,6.5-23.3,0c-3.6-3.6-4.6-8.2-4.8-13.2-.7-4.5-1.3-11.1-4.5-14.4-3.3-3.5-15.3-5.2-15.3-5.2,0,0-9.5-1.2-13.1-4.8-6.3-6.3-6.3-16.8,0-23.2,6.5-6.5,16.9-6.5,23.3,0s4.2,7.3,4.2,7.3c0,0,1,13.8,6.5,19.2s19.6,6.6,19.6,6.6h0v.3h0Z"/>
  <path d="M457.1,716.1c2.7.7,5.3,2.2,7.3,4.2,6.3,6.3,6.3,16.8,0,23.2-6.5,6.5-16.9,6.5-23.3,0-3.6-3.6-4.6-8.2-4.8-13.2-.7-4.5-1.3-11.1-4.5-14.4-3.3-3.5-15.3-5.2-15.3-5.2,0,0-9.5-1.2-13.1-4.8-6.3-6.3-6.3-16.8,0-23.2,6.5-6.5,16.9-6.5,23.3,0s4.2,7.3,4.2,7.3c0,0,1,13.8,6.5,19.3,5.5,5.3,19.6,6.6,19.6,6.6h0c0,.1,0,.1,0,.1Z"/>
  <path d="M418.5,677.5c2.7.7,5.2,2.2,7.3,4.2,6.3,6.3,6.3,16.8,0,23.2s-16.9,6.5-23.3,0c-3.6-3.6-4.6-8.2-4.8-13.2-.7-4.5-1.3-11.1-4.5-14.4-3.3-3.5-15.3-5.2-15.3-5.2,0,0-9.5-1.2-13.1-4.8-6.3-6.3-6.3-16.8,0-23.2,6.5-6.5,16.9-6.5,23.3,0s4.2,7.3,4.2,7.3c0,0,1,13.8,6.5,19.3,5.5,5.3,19.6,6.6,19.6,6.6h0c0,.1,0,.1,0,.1Z"/>
  <path d="M379.9,638.9c2.7.7,5.2,2.2,7.3,4.2,6.3,6.3,6.3,16.8,0,23.2-6.5,6.5-16.9,6.5-23.3,0-3.6-3.6-4.6-8.2-4.8-13.2-.7-4.5-1.3-11.1-4.5-14.4-3.3-3.5-15.3-5.2-15.3-5.2,0,0-9.5-1.2-13.1-4.8-6.3-6.3-6.3-16.8,0-23.2,6.5-6.5,16.9-6.5,23.3,0s4.2,7.3,4.2,7.3c0,0,1,13.8,6.5,19.3,5.5,5.3,19.6,6.6,19.6,6.6h0c0,.1,0,.1,0,.1Z"/>
  <path d="M427.8,620.8c-.7,2.7-2.2,5.2-4.2,7.3-6.3,6.3-16.9,6.3-23.3,0-6.5-6.5-6.5-16.8,0-23.2,3.6-3.6,8.2-4.6,13.2-4.8,4.5-.7,11.1-1.3,14.4-4.6,3.5-3.3,5.2-15.3,5.2-15.3,0,0,1.1-9.5,4.8-13.1,6.3-6.3,16.9-6.3,23.3,0,6.5,6.5,6.5,16.8,0,23.2-4.2,4.2-7.3,4.2-7.3,4.2,0,0-13.8,1-19.3,6.5-5.3,5.5-6.6,19.6-6.6,19.6h-.1q0,.1,0,.1Z"/>
  <path d="M466.3,582.2c-.7,2.7-2.2,5.2-4.2,7.3-6.3,6.3-16.9,6.3-23.3,0-6.5-6.5-6.5-16.8,0-23.2,3.6-3.6,8.2-4.6,13.2-4.8,4.5-.7,11.1-1.3,14.4-4.6,3.5-3.3,5.2-15.3,5.2-15.3,0,0,1.1-9.5,4.8-13.1,6.3-6.3,16.9-6.3,23.3,0s6.5,16.8,0,23.2c-4.2,4.2-7.3,4.2-7.3,4.2,0,0-13.8,1-19.3,6.5-5.3,5.5-6.6,19.6-6.6,19.6h-.1q0,.1,0,.1Z"/>
  <path d="M504.9,543.6c-.7,2.7-2.2,5.2-4.2,7.3-6.3,6.3-16.9,6.3-23.3,0-6.5-6.3-6.5-16.8,0-23.2,3.6-3.6,8.2-4.6,13.2-4.8,4.5-.7,11.1-1.3,14.4-4.6,3.5-3.3,5.2-15.3,5.2-15.3,0,0,1.1-9.5,4.8-13.1,6.3-6.3,16.8-6.3,23.2,0,6.3,6.3,6.5,16.9,0,23.2-4.2,4.2-7.3,4.2-7.3,4.2,0,0-13.8,1-19.3,6.5-5.3,5.5-6.6,19.6-6.6,19.6h0c0,.1,0,.1,0,.1Z"/>
  <path d="M354,620.8c-.7,2.7-2.2,5.2-4.2,7.3-6.3,6.3-16.9,6.3-23.3,0-6.5-6.5-6.5-16.8,0-23.2,3.6-3.6,8.2-4.6,13.2-4.8,4.5-.7,11.1-1.3,14.4-4.6,3.5-3.3,5.2-15.3,5.2-15.3,0,0,1.1-9.5,4.8-13.1,6.3-6.3,16.9-6.3,23.3,0,6.5,6.5,6.5,16.8,0,23.2-4.2,4.2-7.3,4.2-7.3,4.2,0,0-13.8,1-19.3,6.5-5.3,5.5-6.6,19.6-6.6,19.6h-.1q0,.1,0,.1Z"/>
  <path d="M392.5,582.2c-.7,2.7-2.2,5.2-4.2,7.3-6.3,6.3-16.9,6.3-23.3,0-6.5-6.5-6.5-16.8,0-23.2,3.6-3.6,8.2-4.6,13.2-4.8,4.5-.7,11.1-1.3,14.4-4.6,3.5-3.3,5.2-15.3,5.2-15.3,0,0,1.1-9.5,4.8-13.1,6.3-6.3,16.9-6.3,23.3,0s6.5,16.8,0,23.2c-4.2,4.2-7.3,4.2-7.3,4.2,0,0-13.8,1-19.3,6.5-5.3,5.5-6.6,19.6-6.6,19.6h-.1q0,.1,0,.1Z"/>
  <path d="M431,543.6c-.7,2.7-2.2,5.2-4.2,7.3-6.3,6.3-16.9,6.3-23.3,0-6.5-6.5-6.5-16.8,0-23.2,3.6-3.6,8.2-4.6,13.2-4.8,4.5-.7,11.1-1.3,14.4-4.6,3.5-3.3,5.2-15.3,5.2-15.3,0,0,1.1-9.5,4.8-13.1,6.3-6.3,16.9-6.3,23.3,0,6.5,6.5,6.5,16.9,0,23.2-4.2,4.2-7.3,4.2-7.3,4.2,0,0-13.8,1-19.3,6.5-5.3,5.5-6.6,19.6-6.6,19.6h-.1q0,.1,0,.1Z"/>
  <path d="M469.6,505.1c-.7,2.7-2.2,5.2-4.2,7.3-6.3,6.3-16.9,6.3-23.3,0-6.5-6.5-6.5-16.9,0-23.3,3.6-3.6,8.2-4.6,13.2-4.8,4.5-.7,11.1-1.3,14.4-4.5,3.5-3.3,5.2-15.3,5.2-15.3,0,0,1.1-9.5,4.8-13.1,6.3-6.3,16.9-6.3,23.2,0,6.5,6.5,6.5,16.9,0,23.3-4.2,4.2-7.3,4.2-7.3,4.2,0,0-13.8,1-19.3,6.5-5.3,5.3-6.6,19.6-6.6,19.6h0Z"/>
</svg>