<?xml version="1.0" encoding="UTF-8"?><svg id="Layer_1" xmlns="http://www.w3.org/2000/svg" width="1080" height="1080" xmlns:xlink="http://www.w3.org/1999/xlink" viewBox="0 0 1080 1080"><defs><linearGradient id="linear-gradient" x1="371.09" y1="-374.08" x2="765.22" y2="-374.08" gradientTransform="translate(0 334.1) scale(1 -1)" gradientUnits="userSpaceOnUse"><stop offset="0" stop-color="#eb1f1d"/><stop offset="1" stop-color="#ff4802"/></linearGradient><linearGradient id="linear-gradient-2" x1="316.39" y1="-378.98" x2="514.01" y2="-36.56" gradientTransform="translate(0 334.1) scale(1 -1)" gradientUnits="userSpaceOnUse"><stop offset="0" stop-color="#026de1"/><stop offset="1" stop-color="#2236c6"/></linearGradient><linearGradient id="linear-gradient-3" x1="536.25" y1="11.71" x2="733.57" y2="-330.07" xlink:href="#linear-gradient-2"/></defs><path d="M540,0h0c298.22,0,540,241.78,540,540h0c0,298.22-241.78,540-540,540h0C241.78,1080,0,838.22,0,540h0C0,241.78,241.78,0,540,0Z"/><path d="M764.93,802.51h-318.38c-32.69,0-57.46-14.26-74.16-42.34-.43-.72-.86-1.3-1.3-1.87,1.58-3.31,3.17-6.62,4.9-10.08.29-.43.58-.86.86-1.44h0c.86-1.44,1.87-2.74,2.74-4.18,9.5-16.42,19.01-32.98,28.51-49.39,14.83-25.63,29.52-51.41,44.35-77.04.58-.86.58-2.59,2.45-2.3-.29,4.75.58,9.22,2.88,13.25,4.9,8.5,12.67,11.81,22.46,11.81,32.54-.14,65.23,0,97.78,0,8.5,0,16.99,0,25.34.14,1.3.43,2.59.58,3.74,0,.43,0,.86-.29,1.44-.43l1.44.43c1.73,0,3.46.43,5.18.43h140.83c1.58,0,3.6-.86,5.33,1.3-2.45.86-4.46,1.58-6.48,2.3-10.37,3.31-19.58,8.78-27.36,15.98-22.32,20.59-31.54,46.22-26.06,76.03,5.9,32.4,25.63,53.71,57.02,64.22,2.3.72,5.47.29,6.77,3.17h-.29Z" style="fill:url(#linear-gradient);"/><path d="M553.97,491.33c-12.1-7.49-24.62-6.05-31.25,4.03-6.48,9.94-12.24,20.3-18.14,30.53-7.78,13.39-15.7,26.78-23.47,40.03-4.61,8.21-9.5,16.27-13.82,24.62-4.18,7.92-10.66,14.54-12.82,23.47-1.87-.43-1.87,1.3-2.45,2.3-14.83,25.63-29.52,51.41-44.35,77.04-9.5,16.42-19.01,32.98-28.51,49.39-.86,1.44-1.87,2.88-2.74,4.32,0-1.87.14-3.6.58-5.62,3.02-11.38,4.03-23.04,1.73-34.7-3.46-18.29-11.81-33.7-25.34-46.51-13.82-12.96-30.1-20.16-48.67-21.6-25.49-1.87-47.81,6.05-65.81,24.62-1.15,1.15-2.16,2.74-4.32,2.59,11.52-20.02,22.9-40.03,34.42-60.05,22.03-38.3,44.06-76.61,65.95-114.77,1.44-2.45,3.02-4.75,4.61-7.06,11.81-20.59,23.62-41.33,35.57-61.92,6.34-11.09,12.82-22.32,19.3-33.41,16.85-28.66,41.9-43.06,75.31-42.91.29,0,.58,0,.86-.14,2.16,3.46,4.46,6.91,6.62,10.22.29.29.58.72.86,1.01,4.9,8.93,9.79,17.71,14.83,26.5,13.1,22.75,26.35,45.36,39.46,67.97,6.48,11.23,13.1,22.46,19.58,33.7,1.15,1.87,3.02,3.74,1.87,6.48h0l.14-.14Z" style="fill:url(#linear-gradient-2);"/><path d="M779.47,635.62c-.58,1.01-1.01,2.02-1.44,2.88-3.89,0-7.78.29-11.81.29h-151.49c-1.73,0-3.46.14-5.18.29-.43,0-.86-.29-1.3-.43,0-1.01,1.01-1.01,1.58-1.15,14.11-5.62,18.86-19.3,11.38-32.4-1.58-2.74-3.17-5.47-4.75-8.06-12.53-21.6-24.91-43.34-37.44-64.94-.72-1.15-1.58-2.3-2.3-3.46-6.77-11.66-13.68-23.33-20.45-34.99-.29-.29-.58-.72-1.01-1.01,0-.86,0-1.87-1.44-1.15h0c1.15-2.59-.72-4.46-1.87-6.48-6.48-11.23-12.96-22.46-19.58-33.7-13.25-22.75-26.35-45.36-39.46-67.97-5.04-8.78-9.94-17.71-14.83-26.5,2.02,0,3.02,1.58,4.18,2.74,4.32,4.75,9.36,8.78,14.83,12.1,17.71,10.8,36.72,14.4,57.17,10.8,20.16-3.6,37.01-13.25,49.68-29.38,15.26-19.44,21.17-41.33,16.85-65.95-.72-4.03-3.46-7.92-2.02-12.38,11.38,19.58,22.9,39.17,34.27,58.75,14.4,25.06,28.94,49.97,43.34,75.02,7.78,13.54,15.41,27.07,23.18,40.61,8.78,14.98,17.57,29.95,26.21,44.93,6.34,10.94,12.67,21.89,19.01,32.83,4.61,7.92,9.07,15.98,13.82,23.76,16.7,28.08,16.27,56.45.72,84.82h0l.14.14Z" style="fill:url(#linear-gradient-3);"/><path d="M609.7,639.22c1.73,0,3.46-.29,5.18-.29h151.49c3.89,0,7.78-.29,11.81-.29,22.75-.14,43.06,6.62,59.62,22.61,24.34,23.62,32.11,52.42,22.18,84.38-10.22,32.4-33.55,50.98-67.1,56.45-9.22,1.44-18.43.72-27.79.72-1.44-2.88-4.46-2.3-6.77-3.17-31.39-10.51-51.12-31.82-57.02-64.22-5.47-29.66,3.74-55.44,26.06-76.03,7.78-7.2,17.14-12.67,27.36-15.98,2.02-.72,4.03-1.44,6.48-2.3-1.73-2.02-3.74-1.3-5.33-1.3h-140.83c-1.73,0-3.46-.29-5.18-.43h0l-.14-.14Z" style="fill:#fe5a02;"/><path d="M619.06,274.61c-1.44,4.46,1.3,8.35,2.02,12.38,4.32,24.62-1.58,46.51-16.85,65.95-12.67,16.27-29.52,25.78-49.68,29.38-20.3,3.6-39.46,0-57.02-10.8-5.47-3.31-10.51-7.34-14.83-12.1-1.15-1.3-2.16-2.74-4.18-2.74h0s-.58-.72-.86-1.01c-2.16-3.46-4.46-6.91-6.62-10.22-17.86-31.54-17.57-62.93,3.6-92.45,33.26-46.51,104.26-43.92,134.93,4.46,2.74,4.32,5.04,8.93,7.63,13.54,0,.72.29,1.44,1.01,1.73.86.43,1.01,1.15,1.15,1.87h-.29Z" style="fill:#0083ea;"/><path d="M234.72,665.86c2.02.29,3.02-1.3,4.32-2.59,18-18.58,40.32-26.5,65.81-24.62,18.58,1.44,34.99,8.64,48.67,21.6,13.54,12.82,22.03,28.22,25.34,46.51,2.16,11.66,1.15,23.33-1.73,34.7-.43,1.87-.72,3.6-.58,5.62h0l-.86,1.3c-1.58,3.31-3.17,6.62-4.9,10.08-7.34,12.38-16.42,23.33-28.94,30.96-26.78,16.27-54.72,18-82.37,3.31-28.22-14.98-42.62-39.31-43.63-71.28-.58-19.58,6.34-36.72,17.14-52.7.29-.43.58-1.01.86-1.44,0-.58,0-1.15.72-1.44h.14Z" style="fill:#0083ea;"/><path d="M617.9,272.74c-.72-.29-1.01-1.01-1.01-1.73.29.58.72,1.15,1.01,1.73Z" style="fill:#065fda;"/><path d="M234,667.3s-.58,1.01-.86,1.44c.29-.43.58-1.01.86-1.44Z" style="fill:#065fda;"/><path d="M603.07,639.22c1.3-.58,2.59-.58,3.74,0-1.3.72-2.59.43-3.74,0Z" style="fill:#fe5a02;"/><path d="M375.7,748.37s.58-.86.86-1.44c-.29.43-.58.86-.86,1.44Z" style="fill:#065fda;"/><path d="M477.36,355.68s.58.72.86,1.01c-.29-.29-.58-.72-.86-1.01Z" style="fill:#065fda;"/><path d="M555.55,492.62s-1.01-.86-1.44-1.15c1.44-.72,1.3.43,1.44,1.15Z" style="fill:#1d44cd;"/><path d="M556.56,493.63s-.72-.72-1.01-1.15c.29.43.72.72,1.01,1.15Z" style="fill:#1d44cd;"/></svg>