<?xml version="1.0" encoding="UTF-8"?><svg id="Layer_1" xmlns="http://www.w3.org/2000/svg" width="1080" height="1080" viewBox="0 0 1080 1080"><circle cx="540" cy="540" r="540" style="fill:#ffe500; isolation:isolate;"/><polygon points="675 341.05 675 395.05 562.74 395.05 562.74 507.32 508.74 507.32 508.74 395.05 396.47 395.05 396.47 341.05 508.74 341.05 508.74 228.79 562.74 228.79 562.74 341.05 675 341.05"/><polygon points="476.05 613.89 476.05 667.89 363.79 667.89 363.79 780.16 311.21 780.16 311.21 667.89 197.53 667.89 197.53 613.89 311.21 613.89 311.21 501.63 363.79 501.63 363.79 613.89 476.05 613.89"/><polygon points="883.89 613.89 883.89 667.89 770.21 667.89 770.21 780.16 717.63 780.16 717.63 667.89 605.37 667.89 605.37 613.89 717.63 613.89 717.63 501.63 770.21 501.63 770.21 613.89 883.89 613.89"/></svg>