<?xml version="1.0" encoding="UTF-8"?><svg id="Layer_1" xmlns="http://www.w3.org/2000/svg" width="1080" height="1080" xmlns:xlink="http://www.w3.org/1999/xlink" viewBox="0 0 1080 1080"><defs><linearGradient id="linear-gradient" x1="365.4" y1="2289.11" x2="319.9" y2="1856.08" gradientTransform="translate(0 -1496)" gradientUnits="userSpaceOnUse"><stop offset="0" stop-color="#c3c4c3"/><stop offset=".09" stop-color="#d8d8d8"/><stop offset=".21" stop-color="#e9eae9"/><stop offset=".35" stop-color="#f6f6f6"/><stop offset=".55" stop-color="#fdfdfd"/><stop offset="1" stop-color="#fff"/></linearGradient><linearGradient id="linear-gradient-2" x1="788.86" y1="2156.98" x2="437.98" y2="2411.93" xlink:href="#linear-gradient"/><linearGradient id="linear-gradient-3" x1="460.91" y1="1855.23" x2="862.32" y2="2033.97" xlink:href="#linear-gradient"/><linearGradient id="linear-gradient-4" x1="414.01" y1="2284.03" x2="378.28" y2="1943.35" gradientTransform="translate(0 -1496)" gradientUnits="userSpaceOnUse"><stop offset="0" stop-color="#b7b8b8"/><stop offset=".11" stop-color="#c9caca"/><stop offset=".3" stop-color="#e1e1e1"/><stop offset=".5" stop-color="#f2f2f2"/><stop offset=".72" stop-color="#fcfcfc"/><stop offset="1" stop-color="#fff"/></linearGradient><linearGradient id="linear-gradient-5" x1="440.34" y1="1901.39" x2="758.31" y2="2043.03" xlink:href="#linear-gradient-4"/><linearGradient id="linear-gradient-6" x1="760.85" y1="2118.42" x2="482.3" y2="2320.78" xlink:href="#linear-gradient-4"/><linearGradient id="linear-gradient-7" x1="476.95" y1="2256.61" x2="408.08" y2="2016.42" gradientTransform="translate(0 -1496)" gradientUnits="userSpaceOnUse"><stop offset="0" stop-color="#b7b8b8"/><stop offset=".21" stop-color="#cecece"/><stop offset=".52" stop-color="#e9e9e9"/><stop offset=".79" stop-color="#f9f9f9"/><stop offset="1" stop-color="#fff"/></linearGradient><linearGradient id="linear-gradient-8" x1="704.53" y1="2078.04" x2="531.43" y2="2257.33" xlink:href="#linear-gradient-7"/><linearGradient id="linear-gradient-9" x1="433.42" y1="1971.99" x2="679.13" y2="2033.2" xlink:href="#linear-gradient-7"/><linearGradient id="linear-gradient-10" x1="440.36" y1="2030.21" x2="622.96" y2="2044.61" gradientTransform="translate(0 -1496)" gradientUnits="userSpaceOnUse"><stop offset="0" stop-color="#abacac"/><stop offset=".18" stop-color="#bdbdbd"/><stop offset=".73" stop-color="#ededed"/><stop offset="1" stop-color="#fff"/></linearGradient><linearGradient id="linear-gradient-11" x1="525.35" y1="2221.5" x2="446.58" y2="2059.93" xlink:href="#linear-gradient-10"/><linearGradient id="linear-gradient-12" x1="650.83" y1="2055.41" x2="550.11" y2="2204.82" xlink:href="#linear-gradient-10"/><linearGradient id="linear-gradient-13" x1="463.92" y1="2076.91" x2="579.22" y2="2033.68" gradientTransform="translate(0 -1496)" gradientUnits="userSpaceOnUse"><stop offset="0" stop-color="#9fa0a0"/><stop offset=".17" stop-color="#a5a6a6"/><stop offset=".4" stop-color="#b6b6b6"/><stop offset=".66" stop-color="#d1d1d1"/><stop offset=".94" stop-color="#f6f6f6"/><stop offset="1" stop-color="#fff"/></linearGradient><linearGradient id="linear-gradient-14" x1="553.18" y1="2180.94" x2="460.3" y2="2103.04" xlink:href="#linear-gradient-13"/><linearGradient id="linear-gradient-15" x1="600.11" y1="2051.68" x2="579.11" y2="2171.52" xlink:href="#linear-gradient-13"/></defs><path d="M540,0h0c298.22,0,540,241.78,540,540h0c0,298.22-241.78,540-540,540h0C241.78,1080,0,838.22,0,540h0C0,241.78,241.78,0,540,0Z"/><path d="M543.02,230.83c-2.3-4.18-8.5-4.18-10.94,0L216.72,785.38c-2.3,4.18.72,9.36,5.47,9.36h635.18c4.9,0,8.06-5.18,5.47-9.65,0,0-319.82-554.26-319.82-554.26ZM474.34,590.54h0l113.04-30.82-30.53,111.89h0l-82.37-81.07" style="fill:#fff;"/><g id="_5"><path d="M222.19,794.74h127.73l117.36-450.14-250.56,440.78c-2.3,4.18.72,9.36,5.47,9.36h0Z" style="fill:#fff;"/><path d="M800.35,676.8l-450.43,117.94h507.6c4.9,0,8.06-5.18,5.47-9.65,0,0-62.78-108.29-62.64-108.29Z" style="fill:#fff;"/><path d="M731.23,607.82l69.26,68.98-257.33-445.97c-2.3-4.18-8.5-4.18-10.94,0l-64.8,113.76,263.52,262.94s.29.29.29.29Z" style="fill:#fff;"/></g><g id="_4"><polygon points="350.06 794.74 442.8 770.4 442.22 440.64 350.06 794.74" style="fill:#fff;"/><polygon points="442.22 440.64 731.23 607.82 467.42 344.59 467.42 344.59 442.22 440.64" style="fill:#fff;"/><polygon points="442.8 770.4 800.35 676.8 800.35 676.8 731.23 607.82 442.8 770.4" style="fill:#fff;"/></g><g id="_3"><polygon points="442.8 770.4 504.72 735.55 442.22 510.62 442.8 770.4" style="fill:#fff;"/><polygon points="731.23 607.82 670.32 572.54 504.72 735.55 731.23 607.82" style="fill:#fff;"/><polygon points="442.22 510.62 670.32 572.54 442.22 440.64 442.22 510.62" style="fill:#fff;"/></g><g id="_2"><polygon points="587.38 559.44 622.37 559.58 442.22 510.62 455.76 559.15 586.8 559.44 587.38 559.44" style="fill:#fff;"/><polygon points="473.9 589.68 455.76 559.15 504.72 735.55 539.14 701.42 474.34 590.54 473.9 589.68" style="fill:#fff;"/><polygon points="622.37 559.58 539.14 701.42 670.32 572.54 622.37 559.58" style="fill:#fff;"/></g><g id="_1"><polygon points="587.38 559.44 455.76 559.15 474.34 590.54 587.38 559.44" style="fill:#fff;"/><polygon points="556.85 671.62 474.34 590.54 539.14 701.42 556.85 671.62" style="fill:#fff;"/><polygon points="622.37 559.58 587.38 559.44 556.85 671.62 622.37 559.58" style="fill:#fff;"/></g><g id="Gradients"><g id="_5-2"><path d="M222.19,794.74h127.73l117.36-450.14-250.56,440.78c-2.3,4.18.72,9.36,5.47,9.36h0Z" style="fill:url(#linear-gradient);"/><path d="M800.35,676.8l-450.43,117.94h507.6c4.9,0,8.06-5.18,5.47-9.65,0,0-62.78-108.29-62.64-108.29Z" style="fill:url(#linear-gradient-2);"/><path d="M731.23,607.82l69.26,68.98-257.33-445.97c-2.3-4.18-8.5-4.18-10.94,0l-64.8,113.76,263.52,262.94s.29.29.29.29Z" style="fill:url(#linear-gradient-3);"/></g><g id="_4-2"><polygon points="350.06 794.74 442.8 770.4 442.22 440.64 350.06 794.74" style="fill:url(#linear-gradient-4);"/><polygon points="442.22 440.64 731.23 607.82 467.42 344.59 442.22 440.64" style="fill:url(#linear-gradient-5);"/><polygon points="442.8 770.4 800.35 676.8 800.35 676.8 731.23 607.82 442.8 770.4" style="fill:url(#linear-gradient-6);"/></g><g id="_3-2"><polygon points="442.8 770.4 504.72 735.55 442.22 510.62 442.8 770.4" style="fill:url(#linear-gradient-7);"/><polygon points="731.23 607.82 670.32 572.54 504.72 735.55 731.23 607.82" style="fill:url(#linear-gradient-8);"/><polygon points="442.22 510.62 670.32 572.54 442.22 440.64 442.22 510.62" style="fill:url(#linear-gradient-9);"/></g><g id="_2-2"><polygon points="587.38 559.44 622.37 559.58 442.22 510.62 455.76 559.15 586.8 559.44 587.38 559.44" style="fill:url(#linear-gradient-10);"/><polygon points="473.9 589.68 455.76 559.15 504.72 735.55 539.14 701.42 474.34 590.54 473.9 589.68" style="fill:url(#linear-gradient-11);"/><polygon points="622.37 559.58 539.14 701.42 670.32 572.54 622.37 559.58" style="fill:url(#linear-gradient-12);"/></g><g id="_1-2"><polygon points="587.38 559.44 455.76 559.15 474.34 590.54 587.38 559.44" style="fill:url(#linear-gradient-13);"/><polygon points="556.85 671.62 474.34 590.54 539.14 701.42 556.85 671.62" style="fill:url(#linear-gradient-14);"/><polygon points="622.37 559.58 587.38 559.44 556.85 671.62 622.37 559.58" style="fill:url(#linear-gradient-15);"/></g></g></svg>