<?xml version="1.0" encoding="UTF-8"?><svg id="Layer_1" xmlns="http://www.w3.org/2000/svg" width="1080" height="1080" xmlns:xlink="http://www.w3.org/1999/xlink" viewBox="0 0 1080 1080"><defs><linearGradient id="linear-gradient" x1="316.21" y1="-2338.86" x2="763.84" y2="-1891.23" gradientTransform="translate(0 -1481.9) scale(1 -1)" gradientUnits="userSpaceOnUse"><stop offset="0" stop-color="#047ed0"/><stop offset=".2" stop-color="#0392cb"/><stop offset=".5" stop-color="#01b7c3"/><stop offset=".8" stop-color="#00cebe"/><stop offset="1" stop-color="#00d6bc"/></linearGradient></defs><path d="M540,0h0c298.22,0,540,241.78,540,540h0c0,298.22-241.78,540-540,540h0C241.78,1080,0,838.22,0,540h0C0,241.78,241.78,0,540,0Z"/><path d="M812.59,787.25H267.41c-18.14,0-34.85-10.22-44.35-25.49-9.5-15.98-9.5-34.85,0-50.83L495.65,231.98c9.5-15.98,25.49-25.49,44.35-25.49s34.85,10.22,44.35,25.49l272.59,478.94c9.5,15.98,9.5,34.85,0,50.83-9.5,15.98-25.49,25.49-44.35,25.49ZM354.67,684.72h370.66l-185.33-325.58-185.33,325.58h0Z" style="fill:url(#linear-gradient);"/></svg>