<?xml version="1.0" encoding="UTF-8"?><svg id="Layer_1" xmlns="http://www.w3.org/2000/svg" width="1080" height="1080" viewBox="0 0 1080 1080"><path d="M540,0h0c298.22,0,540,241.78,540,540h0c0,298.22-241.78,540-540,540h0C241.78,1080,0,838.22,0,540h0C0,241.78,241.78,0,540,0Z"/><path d="M398.59,693.07c0-10.37,3.02-17.71,8.93-25.2,35.57-33.98,69.55-69.55,104.98-103.54,5.9-5.9,14.83-8.93,22.18-10.37,100.66-25.2,201.17-51.84,301.82-76.9,10.37-3.02,22.18-5.9,32.54-8.93,8.93-3.02,14.83-1.44,20.74,5.9,4.46,8.93,1.44,14.83-4.46,20.74l-45.79,45.79c-48.82,48.82-96.19,97.63-145.01,145.01-44.35,42.91-87.26,87.26-131.62,130.18-16.27,16.27-35.42,16.27-51.84,0-32.54-32.54-65.09-65.09-99.07-99.07-8.93-5.9-13.25-13.25-13.25-23.62h-.14Z" style="fill:#06b0ab;"/><path d="M536.11,252.29c8.93-1.44,16.27,4.46,22.18,10.37,35.42,33.98,69.55,69.55,104.98,104.98,14.83,14.83,14.83,32.54-1.44,47.38l-102.1,102.1c-7.34,7.34-14.83,11.81-23.62,13.25-88.7,20.74-177.55,41.47-264.82,62.06-19.15,4.46-39.89,8.93-59.18,13.25-8.93,1.44-16.27,3.02-22.18-5.9-4.46-8.93,0-16.27,5.9-22.18,59.18-59.18,118.37-118.37,175.97-175.97,45.79-45.79,93.17-93.17,139.1-139.1,8.93-7.34,16.27-10.37,25.2-10.37h0v.14Z" style="fill:#06b0ab;"/></svg>