<?xml version="1.0" encoding="UTF-8"?><svg id="Layer_1" xmlns="http://www.w3.org/2000/svg" width="1080" height="1080" viewBox="0 0 1080 1080"><circle cx="540" cy="540" r="540" style="fill:#fff;"/><path d="M327.822,568.283c.002-83.484-.072-166.968.05-250.451.034-23.38,3.859-45.318,23.27-61.754,12.091-10.239,25.615-15.784,41.221-15.782,62.396.006,124.833-1.062,187.177.824,54.167,1.639,103.522,17.954,139.942,61.159,43.787,51.945,46.397,110.909,26.28,172.552-3.723,11.407-3.106,16.931,7.201,24.074,63.09,43.724,92.694,125.244,73.406,199.267-20.252,77.722-82.537,131.742-161.905,140.228-8.958.958-18.004,1.513-27.011,1.523-95.963.107-191.927.073-287.891.061q-21.689-.003-21.735-21.251c-.018-83.484-.007-166.967-.005-250.451ZM412.366,287.993c.554,4.377,3.607,4.69,5.608,5.866,24.579,14.447,35.525,36.619,36.231,64.348.493,19.36-.343,38.77.597,58.1,3.618,74.379,61.581,134.535,142.315,121.175,77.904-12.891,122.517-71.815,110.911-150.98-7.838-53.465-53.281-90.616-110.087-96.165-42.561-4.158-85.149-1.446-127.715-2.279-19.212-.376-38.438-.064-57.86-.064Z" style="fill:#ff3600;"/></svg>