<?xml version="1.0" encoding="UTF-8"?><svg id="Layer_1" xmlns="http://www.w3.org/2000/svg" width="1080" height="1080" viewBox="0 0 1080 1080"><path d="M540,0h0c298.22,0,540,241.78,540,540h0c0,298.22-241.78,540-540,540h0C241.78,1080,0,838.22,0,540h0C0,241.78,241.78,0,540,0Z"/><path d="M554.4,475.2c-61.78,0-111.31,50.69-111.31,111.31s50.69,111.31,111.31,111.31,111.31-50.69,111.31-111.31-49.68-111.31-111.31-111.31Z" style="fill:#56a68e;"/><path d="M554.4,309.17c-39.46,0-77.9,8.06-111.31,23.33v95.18c31.39-22.32,69.84-35.42,111.31-35.42,107.28,0,194.4,87.12,194.4,194.4s-87.12,194.4-194.4,194.4-194.4-87.12-194.4-194.4V216.14h-83.09v370.51c0,152.93,124.56,277.49,277.49,277.49s277.49-124.56,277.49-277.49-124.56-277.49-277.49-277.49h0Z" style="fill:#183f68;"/></svg>