<?xml version="1.0" encoding="UTF-8"?><svg id="Layer_1" xmlns="http://www.w3.org/2000/svg" width="1080" height="1080" viewBox="0 0 1080 1080"><path d="M540,0h0c298.22,0,540,241.78,540,540h0c0,298.22-241.78,540-540,540h0C241.78,1080,0,838.22,0,540h0C0,241.78,241.78,0,540,0Z"/><path d="M826.85,597.74v81.65c0,17.42-7.2,30.53-22.32,39.17-80.35,46.08-160.99,92.3-241.49,138.67-16.13,9.36-31.39,9.07-47.38-.29-22.61-13.54-45.65-26.21-68.11-39.46-5.76-3.31-13.68-5.47-13.68-13.68,0-8.78,8.35-10.94,14.26-14.54,82.94-47.95,165.89-95.62,249.12-143.28,10.94-6.19,10.94-7.06,0-13.25-28.51-16.27-57.02-32.4-85.25-49.54-10.66-6.48-19.44-5.9-29.81.29-85.54,49.54-171.07,98.78-256.61,148.18-9.36,5.47-17.42,6.19-26.5,0-8.06-5.18-16.56-9.36-24.62-14.54-13.54-8.35-20.74-20.16-20.74-36.29,0-9.65.58-19.15-.29-28.8-1.01-11.09,4.18-17.42,13.54-22.75,57.74-32.98,115.34-66.1,173.09-99.22,66.67-38.3,133.49-76.75,200.3-115.06,10.37-5.9,10.37-7.06,0-12.96-29.23-16.85-58.61-33.41-87.41-50.83-9.07-5.47-16.56-5.18-25.63,0-82.37,47.66-164.88,95.04-247.54,142.56-6.48,3.6-12.96,10.66-21.31,5.76-8.06-4.61-4.61-13.54-4.61-20.45-.29-26.64,0-53.14-.29-79.78,0-16.27,7.06-28.8,21.02-37.01,81.94-46.94,163.3-93.6,244.94-140.26,13.97-8.06,28.51-7.78,42.48.29,81.07,46.66,162.29,93.6,243.36,140.54,13.97,8.06,21.02,20.74,21.31,37.01.29,8.06-.58,16.13.29,24.05,1.01,13.54-4.61,21.46-16.27,27.94-29.09,16.13-57.6,32.98-85.97,49.54-2.88,1.58-6.19,2.3-7.78,5.76,2.3,3.31,6.19,4.61,9.36,6.48,25.92,14.98,51.55,29.81,77.47,44.64,15.55,8.78,23.33,22.03,23.33,39.6l-.29-.14Z" style="fill:#801bff;"/></svg>