<?xml version="1.0" encoding="UTF-8"?><svg id="Layer_1" xmlns="http://www.w3.org/2000/svg" width="1080" height="1080" viewBox="0 0 1080 1080"><circle cx="540" cy="540" r="540" style="fill:#fff;"/><path d="M646.79,334.578l-11.601,3.867v43.395c0,21.912-14.179,41.247-34.802,48.121l-119.014,37.38v64.448l155.964-49.41c36.95-11.601,59.292-43.395,59.292-85.501v-28.787c0-19.334-22.772-42.106-49.84-33.513"/><path d="M398.021,316.532l220.841-69.604c17.616-6.015,36.52-7.734,54.996-6.015l-27.498-20.194c-29.216-20.194-65.737-26.209-99.679-15.468l-209.67,66.166,61.011,45.113Z"/><path d="M734.439,507.298s39.098-35.231,39.098-111.28v-32.224c0-50.269-57.573-131.474-149.949-102.257l-219.123,69.174v406.021l61.44-19.334v-100.109l197.64-62.3c27.068-9.023,56.284,6.015,64.878,33.083,1.719,5.156,2.578,10.741,2.578,16.327v39.528c0,40.387-35.661,97.531-91.516,115.147l-302.905,95.812,61.44,45.113,272.829-85.93c57.573-18.475,121.592-67.885,121.592-172.72v-40.387c0-63.588-58.003-93.235-58.003-93.664M642.064,497.845l-176.157,55.425v-177.446l176.157-55.425c36.95-11.601,70.033,18.045,70.033,48.121v28.787c0,50.269-27.498,86.79-70.033,100.539"/><path d="M715.964,644.357v-39.528c0-20.194-16.327-36.52-36.52-36.52-3.867,0-7.734.43-11.171,1.719l-13.749,4.297v54.566c0,27.068-17.186,50.699-42.965,58.433l-222.13,70.033v-428.793l-61.87-45.113v557.689l307.631-97.101c48.121-14.608,80.775-63.588,80.775-99.679"/></svg>