<?xml version="1.0" encoding="UTF-8"?><svg id="Layer_1" xmlns="http://www.w3.org/2000/svg" width="1080" height="1080" viewBox="0 0 1080 1080"><circle cx="540" cy="540" r="540"/><path d="M241.68,502.42c15.33-94.96,81.1-176.59,165.05-221.04l-77.77-27.48,368.04-75.9-409.81,669.7c-3.52.44-1.5-3.87-1.03-5.77,10.77-44.42,32.99-98.97,48.41-143.22,44.12-126.55,91.48-252.04,138.6-377.47.27-2.89.33-3.36-2.67-2.67-16.93,3.89-42.87,18.06-57.91,27.49-72.17,45.24-116.73,126.12-119.69,211.38h-108.14v-55.02h56.92Z" style="fill:#0d90f4;"/><path d="M376.5,826.68c2.57-6.43,28.14-48.28,31.45-48.92,93.35,60.04,253.73,65.29,304.59-52.09,23.36-53.92,9.72-129-54.88-143.09-9.54-2.08-14.67,3.69-17.07-9.48-5.76-31.61,31.37-51.92,50.78-69.7,56.33-51.6,66.58-109.3,38.26-180.61-2.73-6.87-9.92-16.5-11.7-22.46-2-6.72,11.16,2.71,13.08,4,140.47,93.89,175.51,292.92,82.18,432.83-96.45,144.6-290.38,183.94-436.69,89.52Z" style="fill:#0d90f4;"/><path d="M294.81,665.58h-56.92v-52.17c0-.2,2.64-2.85,2.85-2.85h51.23c.2,0,2.85,2.64,2.85,2.85v52.17Z" style="fill:#0d90f4;"/></svg>