<?xml version="1.0" encoding="UTF-8"?>
<svg id="Layer_1" xmlns="http://www.w3.org/2000/svg" version="1.1" viewBox="0 0 1080 1080">
  <!-- Generator: Adobe Illustrator 29.0.0, SVG Export Plug-In . SVG Version: 2.1.0 Build 186)  -->
  <defs>
    <style>
      .st0 {
        fill: #fff;
      }
      .st1 {
        fill: #000;
      }
    </style>
  </defs>
  <path class="st1" d="M540,0h0c298.2,0,540,241.8,540,540h0c0,298.2-241.8,540-540,540h0C241.8,1080,0,838.2,0,540h0C0,241.8,241.8,0,540,0Z"/>
  <g id="loPJoE.tif">
    <path class="st0" d="M258,460.1v-63.4c0-1.9,1-2.9,2.9-2.9h96.5l-99.4,99.4v-33.1h0Z"/>
    <path class="st0" d="M819.7,591.1v93.6c0,1.9-1,2.9-2.9,2.9h-96.5l99.4-99.4v2.9Z"/>
    <path class="st0" d="M819.7,818.6c0,1.9-1,2.9-2.9,2.9h-417.6c141.1-141.1,280.8-280.8,421.9-420.5h0v87.8c0,2.9-1.4,4.3-2.9,7.2l-254.9,254.9c-1.4,1.4-2.9,1.4-2.9,2.9h257.8c2.9,0,4.3,1.4,4.3,4.3-2.9,20.2-2.9,40.3-2.9,60.5h0Z"/>
    <path class="st0" d="M819.7,303.1c0,2.9-1.4,5.8-2.9,7.2l-185.8,185.8-322.6,322.6c-2.9,1.4-4.3,2.9-7.2,2.9h-38.9c-1.9,0-2.9-1-2.9-2.9v-41.8c0-2.9,0-4.3,2.9-5.8l85-85c142.6-141.1,283.7-283.7,424.8-424.8s2.9-2.9,5.8-2.9h40.3c2.9,0,2.9,1.4,2.9,4.3-1.4,14.4-1.4,27.4-1.4,40.3Z"/>
    <path class="st0" d="M680,259.9c-141.1,141.1-280.8,280.8-421.9,420.5-1.4-1.4,0-2.9,0-2.9v-86.4c0-2.9,0-4.3,2.9-5.8,85-85,171.4-169.9,256.3-254.9l2.9-2.9h-257.8c-2.9,0-4.3-1.4-4.3-4.3v-59c0-1.9,1-2.9,2.9-2.9h419v-1.4h0Z"/>
  </g>
</svg>