<?xml version="1.0" encoding="UTF-8"?><svg id="Layer_1" xmlns="http://www.w3.org/2000/svg" width="1080" height="1080" viewBox="0 0 1080 1080"><path d="M540,0h0c298.22,0,540,241.78,540,540h0c0,298.22-241.78,540-540,540h0C241.78,1080,0,838.22,0,540h0C0,241.78,241.78,0,540,0Z"/><g id="loPJoE.tif"><path d="M258.05,460.08v-63.36c0-1.87,1.01-2.88,2.88-2.88h96.48l-99.36,99.36v-33.12Z" style="fill:#fff;"/><path d="M819.65,591.12v93.6c0,1.87-1.01,2.88-2.88,2.88h-96.48l99.36-99.36c0,1.01,0,1.87,0,2.88Z" style="fill:#fff;"/><path d="M819.65,818.64c0,1.87-1.01,2.88-2.88,2.88h-417.6c141.12-141.12,280.8-280.8,421.92-420.48h0v87.84c0,2.88-1.44,4.32-2.88,7.2l-254.88,254.88c-1.44,1.44-2.88,1.44-2.88,2.88h257.76c2.88,0,4.32,1.44,4.32,4.32-2.88,20.16-2.88,40.32-2.88,60.48h0Z" style="fill:#fff;"/><path d="M819.65,303.12c0,2.88-1.44,5.76-2.88,7.2l-185.76,185.76-322.56,322.56c-2.88,1.44-4.32,2.88-7.2,2.88h-38.88c-1.87,0-2.88-1.01-2.88-2.88v-41.76c0-2.88,0-4.32,2.88-5.76l84.96-84.96c142.56-141.12,283.68-283.68,424.8-424.8,1.44-1.44,2.88-2.88,5.76-2.88h40.32c2.88,0,2.88,1.44,2.88,4.32-1.44,14.4-1.44,27.36-1.44,40.32Z" style="fill:#fff;"/><path d="M679.97,259.92c-141.12,141.12-280.8,280.8-421.92,420.48-1.44-1.44,0-2.88,0-2.88v-86.4c0-2.88,0-4.32,2.88-5.76,84.96-84.96,171.36-169.92,256.32-254.88l2.88-2.88h-257.76c-2.88,0-4.32-1.44-4.32-4.32v-59.04c0-1.87,1.01-2.88,2.88-2.88h419.04s0-1.44,0-1.44Z" style="fill:#fff;"/></g></svg>