<?xml version="1.0" encoding="UTF-8"?><svg id="Layer_1" xmlns="http://www.w3.org/2000/svg" width="1080" height="1080" viewBox="0 0 1080 1080"><path d="M540,0h0c298.08,0,540,241.92,540,540h0c0,298.08-241.92,540-540,540h0C241.92,1080,0,838.08,0,540h0C0,241.92,241.92,0,540,0Z"/><path d="M768.96,527.04c-1.44-14.4-10.08-24.48-18.72-36-64.8-92.16-131.04-184.32-195.84-276.48h90.72-159.84c31.68,44.64,61.92,87.84,93.6,132.48-37.44,53.28-74.88,105.12-112.32,156.96-14.4,21.6-14.4,51.84,0,73.44,37.44,53.28,74.88,105.12,112.32,156.96-30.24,44.64-61.92,87.84-93.6,132.48h69.12c67.68-95.04,135.36-190.08,203.04-285.12,11.52-14.4,15.84-34.56,11.52-51.84h0s0-2.88,0-2.88ZM681.12,554.4l-64.8,90.72c-23.04-31.68-44.64-61.92-66.24-95.04-5.76-7.2-4.32-18.72,1.44-25.92,21.6-30.24,43.2-61.92,64.8-92.16,21.6,31.68,44.64,61.92,66.24,93.6,5.76,7.2,5.76,20.16-1.44,27.36h0v1.44Z" style="fill:#fff;"/><path d="M550.08,525.6c21.6-30.24,43.2-61.92,64.8-92.16,21.6,31.68,44.64,61.92,66.24,93.6,5.76,7.2,5.76,20.16-1.44,27.36l-64.8,90.72c-23.04-31.68-44.64-61.92-66.24-95.04-5.76-7.2-4.32-18.72,1.44-25.92h0v1.44Z" style="fill:#fff;"/><path d="M466.56,576c37.44,53.28,74.88,105.12,112.32,156.96-30.24,44.64-61.92,87.84-93.6,132.48h-191.52c-31.68-1.44-61.92-24.48-73.44-56.16-2.88-8.64-5.76-18.72-5.76-27.36v-489.6c0-7.2,1.44-15.84,4.32-23.04,11.52-30.24,40.32-53.28,73.44-56.16h191.52c31.68,44.64,61.92,87.84,93.6,132.48-37.44,53.28-74.88,105.12-112.32,156.96-14.4,21.6-14.4,51.84,0,73.44,0,0,1.44,0,1.44,0Z" style="fill:#cf5e3c;"/><path d="M681.12,554.4l-64.8,90.72c-23.04-31.68-44.64-61.92-66.24-95.04-5.76-7.2-4.32-18.72,1.44-25.92,21.6-30.24,43.2-61.92,64.8-92.16,21.6,31.68,44.64,61.92,66.24,93.6,5.76,7.2,5.76,20.16-1.44,27.36h0v1.44Z" style="fill:#cf5e3c;"/><path d="M790.56,865.44h-237.6c67.68-95.04,135.36-190.08,203.04-285.12,11.52-14.4,15.84-34.56,11.52-51.84-1.44-14.4-10.08-24.48-18.72-36-64.8-92.16-131.04-184.32-195.84-276.48h237.6c40.32,1.44,73.44,40.32,73.44,79.2v491.04c0,40.32-33.12,77.76-73.44,79.2h0Z" style="fill:#cf5e3c;"/></svg>