<?xml version="1.0" encoding="UTF-8"?><svg id="Layer_1" xmlns="http://www.w3.org/2000/svg" width="1080" height="1080" viewBox="0 0 1080 1080"><circle cx="540" cy="540" r="540" style="fill:#fff;"/><path d="M639.81,520.96c36.21,0,65.67-29.46,65.67-65.67v-199.62c0-36.21-29.46-65.67-65.67-65.67h-199.62c-36.21,0-65.67,29.46-65.67,65.67v199.62c0,36.21,29.46,65.67,65.67,65.67h77.48v38.08h-77.48c-36.21,0-65.67,29.46-65.67,65.67v199.62c0,36.21,29.46,65.67,65.67,65.67h199.62c36.21,0,65.67-29.46,65.67-65.67v-199.62c0-36.21-29.46-65.67-65.67-65.67h-78.8v-38.08h78.8ZM639.81,602.38c12.31,0,22.33,10.02,22.33,22.33v199.62c0,12.32-10.02,22.33-22.33,22.33h-199.62c-12.31,0-22.33-10.01-22.33-22.33v-199.62c0-12.31,10.02-22.33,22.33-22.33h199.62ZM440.19,477.62c-12.31,0-22.33-10.02-22.33-22.33v-199.62c0-12.32,10.02-22.33,22.33-22.33h199.62c12.31,0,22.33,10.01,22.33,22.33v199.62c0,12.31-10.02,22.33-22.33,22.33h-199.62Z"/></svg>