<?xml version="1.0" encoding="UTF-8"?><svg id="Layer_1" xmlns="http://www.w3.org/2000/svg" width="1080" height="1080" viewBox="0 0 1080 1080"><circle cx="540" cy="540" r="540" style="fill:#5c33ff;"/><path d="M675.71,534.46l72.05-38.79v-238.17l-207.62-119.08-204.92,119.08v235.33l72.05,38.79-72.05,41.49v235.33l207.62,121.78,204.92-119.08v-238.17l-72.05-38.79v.28ZM365.49,271.42l160.58-91.37,2.7,188.29-163.42,94.22v-191.13h.14ZM379.42,484.58l160.58-94.22,163.42,94.22-55.42,33.25-108-60.96-105.16,60.96-55.42-33.25h0ZM542.7,678.41l-163.42-94.22,55.42-33.25,105.3,63.66,105.16-60.96,58.12,33.25-160.58,91.37h0v.14ZM556.63,888.87v-185.59l163.42-94.22v188.29l-163.42,91.37v.14Z" style="fill:#fff;"/></svg>