<?xml version="1.0" encoding="UTF-8"?><svg id="Layer_1" xmlns="http://www.w3.org/2000/svg" width="1080" height="1080" viewBox="0 0 1080 1080"><path d="M540,0h0c298.22,0,540,241.78,540,540h0c0,298.22-241.78,540-540,540h0C241.78,1080,0,838.22,0,540h0C0,241.78,241.78,0,540,0Z"/><g id="Boba_Eth"><path d="M638.06,635.9h-263.81V251.86h263.81c90.58,0,163.87,73.15,163.87,163.3v57.31c0,90.14-73.3,163.3-163.87,163.3h0v.14Z" style="fill:#aad70a;"/><path d="M706.03,828h-331.78v-191.95c0-105.98,86.26-191.95,192.67-191.95h139.1c106.42,0,192.67,85.97,192.67,191.95s-86.26,191.95-192.67,191.95Z" style="fill:#acada8;"/><path d="M801.94,469.58v3.17c0,90.29-73.3,163.3-164.02,163.3h-263.81c0-52.99,21.6-100.94,56.45-135.79,34.85-34.7,83.09-56.16,136.37-56.16h138.96c34.99,0,67.68,9.22,95.9,25.49h.14Z" style="fill:#5d6e3c;"/><path d="M374.69,732.67c106.85,0,193.54-86.26,193.54-192.67s-86.69-192.67-193.54-192.67-193.54,86.26-193.54,192.67,86.69,192.67,193.54,192.67Z" style="fill:#fff;"/><path d="M374.69,396l-1.87,6.62v190.37l1.87,2.02,88.7-52.27-88.7-146.59v-.14Z" style="fill:#6d6d6d;"/><path d="M374.69,396l-88.7,146.59,88.7,52.27v-199.01.14Z" style="fill:#8c8c8c;"/><path d="M374.69,611.71l-1.15,1.3v67.82l1.15,3.17,88.85-124.56s-88.85,52.27-88.85,52.27Z" style="fill:#6d6d6d;"/><path d="M374.69,684v-72.29l-88.7-52.27s88.7,124.56,88.7,124.56Z" style="fill:#8c8c8c;"/><path d="M374.69,595.01l88.7-52.27-88.7-40.18v92.45Z" style="fill:#494949;"/><path d="M285.98,542.59l88.7,52.27v-92.45l-88.7,40.18Z" style="fill:#606060;"/></g></svg>