<?xml version="1.0" encoding="UTF-8"?><svg id="Layer_1" xmlns="http://www.w3.org/2000/svg" width="1080" height="1080" viewBox="0 0 1080 1080"><path d="M540,0h0c298.22,0,540,241.78,540,540h0c0,298.22-241.78,540-540,540h0C241.78,1080,0,838.22,0,540h0C0,241.78,241.78,0,540,0Z"/><path d="M316.66,686.88c1.73-1.58,3.31-1.58,5.04-1.58,97.92-53.14,195.84-104.54,293.9-157.68,13.25-6.62,19.87-18.29,19.87-33.26v-43.2c0-1.73,0-3.31,3.31-5.04,19.87-9.94,39.89-21.6,58.03-31.54,2.16-1.15,3.31-.58,3.31,1.73v86.26c-1.58,34.85-18.29,63.07-48.1,79.63-44.78,24.91-91.3,49.82-137.81,73.01-69.7,38.16-139.39,74.74-210.82,112.9-14.98,8.35-29.95,6.62-41.47-3.31-8.35-6.62-11.66-16.56-11.66-26.64v-285.55c0-41.47,18.29-71.42,54.86-91.3,82.94-44.78,166.03-89.71,248.98-132.77,38.16-19.87,79.63-16.56,112.9,11.66,13.25,11.66,23.18,26.64,28.22,44.78,0,1.73,1.58,3.31-1.58,3.31-19.87,6.62-36.58,18.29-56.45,28.22h0c-1.58,1.73-3.31,1.73-3.31-1.73,0-5.04,0-9.94-3.31-13.25-8.35-16.56-28.22-24.91-44.78-14.98-53.14,28.22-107.86,58.03-160.99,86.26-29.95,14.98-58.03,31.54-87.98,46.51-13.25,6.62-19.87,18.29-19.87,33.26v234.14h0l-.29.14Z" style="fill:#fff;"/><path d="M829.73,495.94v89.71c0,39.89-18.29,69.7-53.14,89.71-114.62,61.49-229.1,122.83-343.58,184.32-16.56,8.35-34.85,5.04-44.78-9.94-5.04-6.62-6.62-13.25-6.62-21.6v-69.7c0-2.16,1.15-3.89,3.31-5.04,19.87-9.94,39.89-19.87,58.03-31.54,2.16-1.15,3.31-.58,3.31,1.58v48.1c0,3.31,1.73,4.46,5.04,3.31,97.92-53.14,195.84-106.27,295.49-157.68,13.25-6.62,18.29-16.56,18.29-31.54v-181.01c0-19.87-13.25-34.85-33.26-33.26-5.04,0-9.94,1.73-14.98,3.31-84.67,44.78-169.34,89.71-252.29,136.08-11.66,6.62-18.29,16.56-18.29,31.54v44.78c0,3.31,0,5.04-3.31,6.62-19.87,9.94-38.16,19.87-58.03,31.54-2.16,1.15-3.31.58-3.31-1.58v-84.67c1.73-36.58,16.56-63.07,48.1-81.36,43.2-24.91,86.26-46.51,129.46-69.7,41.47-23.18,82.94-44.78,124.56-68.11,53.14-28.22,119.52-3.31,139.39,53.14,3.31,9.94,5.04,19.87,5.04,29.95,1.58,28.22,1.58,59.76,1.58,93.02h0Z" style="fill:#fff;"/></svg>