<?xml version="1.0" encoding="UTF-8"?><svg id="Layer_1" xmlns="http://www.w3.org/2000/svg" width="1080" height="1080" viewBox="0 0 1080 1080"><path d="M540,0h0c298.24,0,540,241.76,540,540h0c0,298.24-241.76,540-540,540h0C241.76,1080,0,838.24,0,540h0C0,241.76,241.76,0,540,0Z"/><path d="M337.33,420.12c0,44.78,14.43,86.21,38.89,119.88-24.47,33.65-38.89,75.08-38.89,119.88s14.43,86.21,38.89,119.88c29.29,40.29,72.94,69.45,123.44,79.95v4.29h-165.24V216h165.24v4.29c-92.68,19.28-162.32,101.42-162.32,199.83h-.01Z" style="fill:#00cfff;"/><path d="M499.67,220.29v239.76c-50.49,10.5-94.15,39.66-123.44,79.95-24.47-33.67-38.89-75.1-38.89-119.88,0-98.41,69.64-180.55,162.32-199.83h.01Z" style="fill:#3707a2;"/><path d="M541.45,216h-.33c-14.21.03-28.08,1.5-41.47,4.29v239.76c13.39-2.79,27.26-4.26,41.47-4.29h.33c67.94,0,128.12,33.19,165.23,84.24,24.47-33.67,38.89-75.1,38.89-119.88,0-112.74-91.38-204.12-204.12-204.12ZM537.25,453.82c-18.26,0-33.05-14.79-33.05-33.05s14.79-33.05,33.05-33.05,33.05,14.79,33.05,33.05-14.79,33.05-33.05,33.05Z" style="fill:#ff0092;"/><circle cx="537.25" cy="420.77" r="33.05" style="fill:#3707a2;"/><path d="M499.67,460.05v159.9c-50.5-10.5-94.15-39.66-123.44-79.95,29.29-40.29,72.94-69.45,123.44-79.95Z" style="fill:#09cd52;"/><path d="M706.68,540c-37.11,51.05-97.29,84.24-165.23,84.24h-.33c-14.21-.01-28.08-1.5-41.47-4.29v-159.9c13.39-2.79,27.26-4.26,41.47-4.29h.33c67.94,0,128.12,33.19,165.23,84.24Z" style="fill:red;"/><path d="M706.68,540c-37.11,51.05-97.29,84.24-165.23,84.24h-.33c-14.21-.01-28.08-1.5-41.47-4.29v239.76c13.39,2.79,27.26,4.28,41.47,4.29h.33c67.94,0,128.12-33.19,165.23-84.24,24.47-33.67,38.89-75.1,38.89-119.88s-14.43-86.21-38.89-119.88ZM537.25,693.58c-18.26,0-33.05-14.79-33.05-33.05s14.79-33.05,33.05-33.05,33.05,14.79,33.05,33.05-14.79,33.05-33.05,33.05Z" style="fill:#ff5700;"/><path d="M499.67,619.95v239.76c-50.5-10.5-94.15-39.66-123.44-79.95-24.47-33.67-38.89-75.1-38.89-119.88s14.43-86.23,38.89-119.88c29.29,40.29,72.94,69.45,123.44,79.95Z" style="fill:#00720e;"/><circle cx="537.25" cy="660.53" r="33.05" style="fill:#3707a2;"/><circle cx="537.25" cy="420.77" r="33.05" style="fill:#fff;"/><circle cx="537.25" cy="660.53" r="33.05" style="fill:#fff;"/></svg>