<?xml version="1.0" encoding="UTF-8"?><svg id="Layer_1" xmlns="http://www.w3.org/2000/svg" width="1080" height="1080" xmlns:xlink="http://www.w3.org/1999/xlink" viewBox="0 0 1080 1080"><defs><linearGradient id="linear-gradient" x1="414.318" y1="540.386" x2="719.656" y2="540.386" gradientUnits="userSpaceOnUse"><stop offset="0" stop-color="#000" stop-opacity="0"/><stop offset="1" stop-color="#000"/></linearGradient></defs><circle cx="540" cy="540" r="540" style="fill:#fff;"/><g style="opacity:.5;"><path d="M390.801,865c-48.089,0-92.177-35.613-124.143-100.279-29.832-60.348-46.26-140.155-46.26-224.721s16.429-164.373,46.26-224.721c31.966-64.666,76.054-100.279,124.143-100.279s92.177,35.613,124.143,100.279c29.832,60.348,46.26,140.155,46.26,224.721s-16.429,164.373-46.26,224.721c-31.966,64.666-76.054,100.279-124.143,100.279ZM390.801,253.553c-15.676,0-31.252,6.525-46.293,19.395-15.78,13.503-30.75,34.048-43.289,59.415-27.257,55.14-42.268,128.88-42.268,207.637s15.011,152.497,42.268,207.637c12.539,25.367,27.509,45.912,43.289,59.415,15.042,12.87,30.617,19.395,46.293,19.395s31.252-6.525,46.293-19.395c15.78-13.503,30.75-34.048,43.289-59.415,27.257-55.14,42.268-128.88,42.268-207.637s-15.011-152.497-42.268-207.637c-12.539-25.367-27.509-45.912-43.289-59.415-15.042-12.87-30.617-19.395-46.293-19.395Z" style="fill:#00fcd6;"/></g><g style="opacity:.75;"><path d="M541.928,865c-48.089,0-92.177-35.613-124.143-100.279-29.832-60.348-46.26-140.155-46.26-224.721s16.429-164.373,46.26-224.721c31.966-64.666,76.054-100.279,124.143-100.279s92.177,35.613,124.143,100.279c29.832,60.348,46.26,140.155,46.26,224.721s-16.429,164.373-46.26,224.721c-31.966,64.666-76.054,100.279-124.143,100.279ZM541.928,253.553c-15.676,0-31.252,6.525-46.293,19.395-15.78,13.503-30.75,34.048-43.289,59.415-27.257,55.14-42.268,128.88-42.268,207.637s15.011,152.497,42.268,207.637c12.539,25.367,27.509,45.912,43.289,59.415,15.042,12.87,30.617,19.395,46.293,19.395s31.252-6.525,46.293-19.395c15.78-13.503,30.75-34.048,43.289-59.415,27.257-55.14,42.268-128.88,42.268-207.637s-15.011-152.497-42.268-207.637c-12.539-25.367-27.509-45.912-43.289-59.415-15.042-12.87-30.617-19.395-46.293-19.395Z" style="fill:#00fcd6;"/></g><circle cx="566.987" cy="540.386" r="152.669" style="fill:url(#linear-gradient);"/><path d="M689.199,865c-48.089,0-92.177-35.613-124.143-100.279-29.832-60.348-46.26-140.155-46.26-224.721s16.429-164.373,46.26-224.721c31.966-64.666,76.054-100.279,124.143-100.279s92.177,35.613,124.143,100.279c29.832,60.348,46.26,140.155,46.26,224.721s-16.429,164.373-46.26,224.721c-31.966,64.666-76.054,100.279-124.143,100.279ZM689.199,253.553c-15.676,0-31.252,6.525-46.293,19.395-15.78,13.503-30.75,34.048-43.289,59.415-27.257,55.14-42.268,128.88-42.268,207.637s15.011,152.497,42.268,207.637c12.539,25.367,27.509,45.912,43.289,59.415,15.042,12.87,30.617,19.395,46.293,19.395s31.252-6.525,46.293-19.395c15.78-13.503,30.75-34.048,43.289-59.415,27.257-55.14,42.268-128.88,42.268-207.637s-15.011-152.497-42.268-207.637c-12.539-25.367-27.509-45.912-43.289-59.415-15.042-12.87-30.617-19.395-46.293-19.395Z" style="fill:#00fcd6;"/></svg>