<?xml version="1.0" encoding="UTF-8"?><svg id="Layer_1" xmlns="http://www.w3.org/2000/svg" width="1080" height="1080" viewBox="0 0 1080 1080"><circle cx="540" cy="540" r="540" style="fill:#fff;"/><path d="M856.657,693.501c-21.646-28.192-47.181-48.023-78.743-55.023,10.11-23.461,17.045-46.014,21.646-67.207.259-1.555.713-3.37.907-4.99,2.528-11.536,10.823-40.181,28.775-45.107,14.064-3.176,30.395,0,38.432,26.377,13.156,44.2-25.34,106.675-25.34,106.675,0,0,47.634-37.2,47.634-94.491s-48.347-77.122-84.511-54.375c-5.768-158.328-159.559-235.256-159.559-235.256v51.199c-44.2-39.922-79.002-83.927-105.898-131.303-26.96,47.375-61.957,91.38-106.157,131.303v-51.199s-153.597,76.928-159.3,235.256c-36.163-22.813-84.511,0-84.511,54.375s47.634,94.491,47.634,94.491c0,0-38.237-62.476-25.081-106.675,7.583-26.377,24.174-29.553,38.237-26.377,17.952,4.99,26.248,33.636,28.775,45.107.454,1.555.713,3.37.907,4.99,2.333,10.629,5.314,21.452,8.749,32.728,3.694,11.277,8.036,22.813,13.156,34.543-31.756,6.999-57.356,26.831-79.002,55.023,21.646-4.083,42.126-1.102,61.504,9.721-19.831,11.536-35.71,28.905-49.514,49.838,0,0,67.66,12.638,104.99,49.644,35.71,35.191,100.13,87.297,186.52,87.038v.194h26.701v-.194c86.585.194,150.551-51.912,186.261-87.038,37.524-37.006,105.25-49.644,105.25-49.644-13.804-20.739-29.682-38.367-49.514-49.838,19.119-11.082,39.339-13.739,60.985-9.721l.065-.065h.002ZM677.72,696.936c1.361.648,5.768,3.37,10.369,7.907.907.648,1.815,1.555,2.528,2.463,1.815,1.815,3.435,3.629,4.861,5.833,7.129,10.175,11.99,25.275,3.889,45.366-2.787,7.194-7.583,15.36-14.517,23.914-9.462,11.536-20.739,20.998-33.182,28.451-8.296,4.99-17.045,9.268-25.794,12.638-12.897,5.444-25.988,9.008-37.978,11.73-3.889.907-7.842,1.555-11.99,2.268-23.72,4.083-47.894,4.083-71.808,0-3.889-.648-7.842-1.361-11.99-2.268-31.756-6.999-72.067-21.905-96.954-52.754-31.756-39.469-16.332-65.392-3.435-77.576,1.62-1.62,3.046-2.657,4.472-3.759,3.5-2.657,6.092-4.083,6.092-4.083,0,0,0-.194-.259,0-9.203-6.999-17.498-13.999-24.627-21.192-60.985-60.661-52.495-135.126-13.61-173.493,6.222-6.092,13.351-11.536,21.192-15.554,5.055-2.722,10.564-4.99,16.137-6.546,5.768-1.555,11.73-2.463,17.758-2.916,18.211-1.102,34.089,1.361,47.894,5.638,11.536,3.629,21.646,8.555,30.395,13.999,2.981,1.815,5.768,3.629,8.49,5.638,5.314,4.083,9.916,8.101,13.804,11.925,14.064,13.286,20.48,25.275,20.48,25.275,0,0,6.416-11.925,20.48-25.275,4.148-4.083,8.749-7.907,13.804-11.925,2.787-1.815,5.509-3.824,8.296-5.638,8.749-5.444,18.859-10.369,30.59-13.999,13.804-4.277,29.682-6.74,47.634-5.638,5.962.454,11.99,1.361,17.758,2.916,5.509,1.555,11.082,3.824,16.137,6.546,5.314,2.722,10.11,5.833,14.517,9.462.259,0,.259.194.259.194,2.333,1.815,4.601,3.824,6.416,5.833,11.277,11.082,20.026,25.016,25.081,40.83,1.815,4.99,2.981,10.175,3.889,15.36,8.036,43.292-9.008,96.306-67.207,138.496l.13-.065h0Z"/><path d="M633.326,728.497c-3.694,6.999-8.296,13.999-13.804,20.091-39.404,44.005-111.925,46.014-158.846,13.545,45.366,5.185,90.732,7.453,132.858-10.823,13.61-5.638,26.507-13.739,39.857-22.813h-.065,0Z"/><path d="M487.571,583.909c0,25.47-20.285,46.209-45.561,46.209s-45.82-20.739-45.82-46.209,17.952-43.746,41.218-46.014c-7.388,4.731-12.184,12.832-12.184,22.1,0,14.647,11.536,26.377,25.988,26.377s25.988-11.925,25.988-26.377-.259-4.537-.907-6.546c7.129,8.101,11.277,18.73,11.277,30.46h.001Z"/><path d="M684.201,583.909c0,25.47-20.48,46.209-45.82,46.209s-45.82-20.739-45.82-46.209,18.211-43.746,41.413-46.014c-7.388,4.537-12.443,12.638-12.443,22.1,0,14.452,11.73,26.183,25.988,26.183s25.988-11.73,25.988-26.183-.259-4.537-.713-6.546c7.129,8.101,11.277,18.73,11.277,30.46h.13Z"/><path d="M529.502,674.382c0,6.286-6.416,11.277-14.258,11.277s-14.258-4.99-14.258-11.277,6.416-11.277,14.258-11.277,14.258,4.99,14.258,11.277Z"/><path d="M579.21,674.382c0,6.286-6.222,11.277-14.064,11.277s-14.258-4.99-14.258-11.277,6.416-11.277,14.258-11.277,14.064,4.99,14.064,11.277Z"/></svg>