<?xml version="1.0" encoding="UTF-8"?><svg id="Layer_1" xmlns="http://www.w3.org/2000/svg" width="1080" height="1080" viewBox="0 0 1080 1080"><path d="M540,0h0c298.22,0,540,241.78,540,540h0c0,298.22-241.78,540-540,540h0C241.78,1080,0,838.22,0,540h0C0,241.78,241.78,0,540,0Z"/><path d="M548.5,367.2v-151.2c-179.14,0-324,144.86-324,324s144.86,324,324,324v-151.2c-95.33,0-172.8-77.47-172.8-172.8s77.47-172.8,172.8-172.8" style="fill:#fff;"/><path d="M722.3,367.2c-9.94,0-19.87-1.73-28.8-5.9s-17.57-9.5-24.34-16.13-12.67-15.26-16.13-24.34c-3.46-9.07-5.9-18.86-5.9-28.8s1.73-19.87,5.9-28.8c3.6-8.93,9.5-17.57,16.13-24.34s15.26-12.67,24.34-16.13,18.86-5.9,28.8-5.9c20.3,0,39.17,8.06,53.57,22.03,13.97,13.97,22.03,33.26,22.03,53.57s-8.06,39.17-22.03,53.57c-14.4,13.1-33.7,21.17-53.57,21.17" style="fill:#00d8d5;"/><path d="M720.86,864c-20.3,0-39.17-8.06-53.57-22.03-13.97-13.97-22.03-33.26-22.03-53.57s8.06-39.17,22.03-53.57c13.97-13.97,33.26-22.03,53.57-22.03s39.17,8.06,53.57,22.03c13.97,13.97,22.03,33.26,22.03,53.57s-8.06,39.17-22.03,53.57c-14.4,13.97-33.7,22.03-53.57,22.03" style="fill:#ff4c8b;"/><path d="M721.3,540c0,95.33-77.47,172.8-172.8,172.8v-345.6c95.33,0,172.8,76.9,172.8,172.8" style="fill:#fff;"/></svg>