<?xml version="1.0" encoding="UTF-8"?><svg id="Layer_1" xmlns="http://www.w3.org/2000/svg" width="1080" height="1080" viewBox="0 0 1080 1080"><path d="M540,0h0c298.22,0,540,241.78,540,540h0c0,298.22-241.78,540-540,540h0C241.78,1080,0,838.22,0,540h0C0,241.78,241.78,0,540,0Z"/><path id="path819" d="M664.13,759.6h-44.93l-54-48.67v-25.2l55.87-52.13v-82.8l72.86-46.8,82.8,62.06-112.46,194.4h0v-.86h-.14ZM478.8,628.13l8.06-78.34-27.07-70.27h160.27l-26.06,70.27,7.2,78.34h-122.4ZM515.66,711.07l-54,49.54h-45.94l-113.47-195.26,83.66-61.2,72.86,45.94v82.8l55.87,52.13v25.2h0l.86.86h.14ZM415.87,335.66h248.4l29.66,125.14h-306.86l28.8-125.14h0ZM540,180l-315.07,180v360l315.07,180,315.07-180v-360l-315.07-180Z" style="fill:#fff;"/></svg>