<?xml version="1.0" encoding="UTF-8"?><svg id="Layer_1" xmlns="http://www.w3.org/2000/svg" width="1080" height="1080" xmlns:xlink="http://www.w3.org/1999/xlink" viewBox="0 0 1080 1080"><defs><linearGradient id="linear-gradient" x1="773.861" y1="767.134" x2="415.266" y2="767.134" gradientTransform="translate(0 1080) scale(1 -1)" gradientUnits="userSpaceOnUse"><stop offset=".059" stop-color="#000" stop-opacity="0"/><stop offset=".452" stop-color="#000" stop-opacity=".35"/><stop offset=".966" stop-color="#000"/></linearGradient></defs><circle cx="540" cy="540" r="540" style="fill:#fff;"/><path d="M319.188,310.122c-125.769,126.829-125.769,332.929,0,459.755,125.769,126.831,330.145,126.831,455.913,0l-97.351-98.171c-71.953,72.561-188.652,72.561-260.607,0-71.955-72.561-71.955-190.244,0-262.803l-97.955-98.781Z"/><path d="M417.178,408.292c-.605.61-1.814,1.829-2.419,2.439l-97.955-98.171c.605-.61,1.814-1.829,2.419-2.439,125.769-126.829,330.145-126.829,455.917,0l-97.351,98.17c-71.956-72.561-188.656-72.561-260.611,0Z" style="fill:url(#linear-gradient);"/></svg>