<?xml version="1.0" encoding="UTF-8"?><svg id="Layer_1" xmlns="http://www.w3.org/2000/svg" width="1080" height="1080" viewBox="0 0 1080 1080"><circle cx="540" cy="540" r="540" style="fill:#fff;"/><path d="M897.424,459.11l-108.509-187.269c-29.158-50.847-82.496-81.84-140.747-81.84h-216.362c-58.317,0-111.589,30.993-141.402,81.251l-107.854,187.859c-29.158,50.192-29.158,112.178,0,162.436l108.509,187.204c29.158,50.257,83.085,81.251,141.337,81.251h216.362c58.317,0,111.654-30.993,140.747-81.251l108.509-187.204c28.503-50.257,28.503-112.244-.59-162.436ZM547.719,782.081c-4.325,0-8.06-3.669-8.06-8.06v-32.828c0-4.325,3.08-7.47,7.47-8.06,101.629-3.735,185.959-89.31,185.959-193.429,0-110.999-93.635-200.243-205.813-193.429-154.376,9.305-235.627,192.184-140.747,311.832l34.728-34.073c-72.536-99.204,9.894-243.096,135.177-228.812,67.556,7.47,121.483,62.642,128.297,130.198,8.06,84.33-56.417,155.031-136.357,159.356-4.39,0-8.06-3.735-8.06-8.06v-32.893c0-3.669,3.08-7.404,7.404-7.404,49.602-3.145,89.9-45.278,89.9-96.714,0-57.072-49.602-102.939-108.509-96.125-68.801,7.47-107.854,87.41-71.881,145.727l36.563-36.628c-7.47-26.013,9.894-55.172,37.218-60.086,30.993-6.225,58.251,17.364,58.251,47.702.655,31.648-30.993,55.172-61.397,46.523l-11.729,11.794-113.489,112.833c-9.304,9.304-24.768,9.304-34.073,0-6.225-6.225-11.794-12.45-16.119-18.019-124.628-148.807-22.934-383.123,172.33-394.262,140.092-8.715,256.66,102.874,256.66,241.786.655,130.198-104.774,237.461-233.726,241.131h0Z" style="fill:#2d6af5;"/><path d="M781.446,540.95c.655,130.198-104.774,237.461-233.726,241.131-4.325,0-8.06-3.669-8.06-8.06v-32.828c0-4.325,3.08-7.47,7.47-8.06,101.629-3.735,185.959-89.31,185.959-193.429,0-110.999-93.635-200.243-205.813-193.429-154.376,9.305-235.627,192.184-140.747,311.832l34.728-34.073c-72.536-99.204,9.894-243.096,135.177-228.812,67.556,7.47,121.483,62.642,128.297,130.198,8.06,84.33-56.417,155.031-136.357,159.356-4.39,0-8.06-3.735-8.06-8.06v-32.893c0-3.669,3.08-7.404,7.404-7.404,49.602-3.145,89.9-45.278,89.9-96.714,0-57.072-49.602-102.939-108.509-96.125-68.801,7.47-107.854,87.41-71.881,145.727l36.563-36.628c-7.47-26.013,9.894-55.172,37.218-60.086,30.993-6.225,58.251,17.364,58.251,47.702.655,31.648-30.993,55.172-61.397,46.523l-11.729,11.794-113.489,112.833c-9.304,9.304-24.768,9.304-34.073,0-6.225-6.225-11.794-12.45-16.119-18.019-124.628-148.807-22.934-383.123,172.33-394.262,140.092-8.715,256.66,102.874,256.66,241.786h0Z" style="fill:#fff;"/></svg>