<?xml version="1.0" encoding="UTF-8"?><svg id="Layer_1" xmlns="http://www.w3.org/2000/svg" width="1080" height="1080" viewBox="0 0 1080 1080"><path d="M540,0h0c298.22,0,540,241.78,540,540h0c0,298.22-241.78,540-540,540h0C241.78,1080,0,838.22,0,540h0C0,241.78,241.78,0,540,0Z"/><path d="M548.93,316.8l53.86-31.68v-73.44l-55.3-31.68v136.8h1.44Z" style="fill:#a4a6a8;"/><path d="M349.78,637.78v-207.36l179.71-103.68v-146.59l-295.92,171.36c-6.05,3.17-9.79,9.79-9.79,16.7v341.71l127.3-73.15-1.44,1.15h0l.14-.14Z" style="fill:#5fc0b7;"/><path d="M720.29,653.04l-181.15,103.68-179.71-103.68-127.3,73.15,298.8,171.36c5.47,3.17,12.38,3.17,17.86,0l298.8-171.36-128.45-73.15h1.44-.29Z" style="fill:#6d6e71;"/><path d="M847.58,351.36l-118.94-67.68v74.59l-127.3,72,127.3,73.15v132.77l127.3,73.15v-341.42c.58-6.62-2.59-12.96-8.35-16.7h0v.14Z" style="fill:#a4a6a8;"/><path d="M475.78,502.42v145.15l124.42-70.56v-145.15l-124.42,70.56Z" style="fill:#6d6e71;"/></svg>