<?xml version="1.0" encoding="UTF-8"?><svg id="Layer_1" xmlns="http://www.w3.org/2000/svg" width="1080" height="1080" viewBox="0 0 1080 1080"><path d="M540,0h0c298.22,0,540,241.78,540,540h0c0,298.22-241.78,540-540,540h0C241.78,1080,0,838.22,0,540h0C0,241.78,241.78,0,540,0Z"/><path d="M576.86,659.95c92.3,0,140.26-31.39,140.26-119.95s-47.95-119.95-140.26-119.95h-214.13v240.05h214.13v-.14ZM405.22,456.91h168.05c72,0,99.65,22.18,99.65,83.09s-27.65,83.09-99.65,83.09h-168.05s0-166.18,0-166.18Z" style="fill:#fff;"/><path d="M540,900c-197.57,0-360-162.43-360-360s162.43-360,360-360,360,162.43,360,360-160.56,360-360,360ZM540,196.56c-188.35,0-343.44,153.22-343.44,343.44s155.09,343.44,343.44,343.44,343.44-153.22,343.44-343.44-155.09-343.44-343.44-343.44Z" style="fill:#fff;"/><path d="M540,833.62c-162.43,0-293.62-131.04-293.62-293.62s131.04-293.62,293.62-293.62,293.62,131.04,293.62,293.62-131.04,293.62-293.62,293.62ZM540,253.87c-156.96,0-286.13,129.17-286.13,286.13s129.17,286.13,286.13,286.13,286.13-129.17,286.13-286.13-127.44-286.13-286.13-286.13Z" style="fill:#fff;"/></svg>