<?xml version="1.0" encoding="UTF-8"?><svg id="Layer_1" xmlns="http://www.w3.org/2000/svg" width="1080" height="1080" xmlns:xlink="http://www.w3.org/1999/xlink" viewBox="0 0 1080 1080"><defs><linearGradient id="linear-gradient" x1="290.82" y1="-206.07" x2="847.32" y2="-206.07" gradientTransform="translate(0 334.1) scale(1 -1)" gradientUnits="userSpaceOnUse"><stop offset="0" stop-color="#6b53a3"/><stop offset="1" stop-color="#7e53a2"/></linearGradient></defs><path d="M540,0h0c298.08,0,540,241.92,540,540h0c0,298.08-241.92,540-540,540h0C241.92,1080,0,838.08,0,540h0C0,241.92,241.92,0,540,0Z"/><path d="M845.57,505.58c-2.3-30.1-6.91-59.47-16.56-88.13-12.38-37.01-31.25-69.98-59.33-97.34-19.73-19.3-42.19-34.42-67.82-44.64-39.46-15.84-80.78-22.75-123.12-22.75-78.91-.29-157.97-.43-236.88-.58-9.94,0-19.87,0-29.81.43-11.66.58-20.02,9.36-20.59,21.02-.29,6.05-.43,11.95-.43,18v248.26h-.14v196.27c0,22.46-.14,44.93,0,67.39,0,15.41,9.36,24.62,24.62,24.62h34.56c82.8,0,165.46.29,248.26-.58,38.45-.43,75.46-9.22,110.74-25.06,30.82-13.97,57.31-33.98,78.48-60.34,27.36-34.13,43.06-73.58,51.55-116.06,8.06-39.74,9.94-79.92,6.77-120.38h0l-.29-.14ZM665.42,579.74c-26.35,19.15-52.99,38.02-79.34,57.17-23.62,17.14-47.23,34.27-70.85,51.41-3.17,2.3-6.48,4.46-9.94,6.34-5.9,3.02-11.23,2.45-16.27-1.73-5.04-4.03-6.19-9.22-4.46-15.26,3.89-13.54,9.36-26.5,14.26-39.74,5.47-14.69,10.8-29.23,15.84-44.06,2.74-7.92-.43-14.98-8.64-19.15-14.83-7.49-29.95-14.69-44.93-21.89-10.94-5.33-22.03-10.22-32.98-15.7-5.33-2.74-10.66-5.76-11.52-12.82-.72-5.76.29-10.66,5.04-14.26,9.22-7.06,18.58-14.11,27.94-21.02,26.21-19.15,52.42-38.16,78.77-57.17,17.14-12.53,34.42-25.06,51.7-37.44,3.74-2.74,7.49-5.62,12.53-5.47,9.79,0,17.14,9.5,14.11,18.86-4.18,12.53-8.78,24.91-13.39,37.3-5.76,15.84-11.81,31.54-17.42,47.38-2.74,7.78,1.58,15.55,10.51,19.87,14.26,6.91,28.51,13.68,42.77,20.45,11.66,5.62,23.18,11.23,34.7,16.99,14.4,7.34,15.26,20.16,1.87,29.81h0l-.29.14Z" style="fill:url(#linear-gradient);"/></svg>