<?xml version="1.0" encoding="UTF-8"?><svg id="Layer_1" xmlns="http://www.w3.org/2000/svg" width="1080" height="1080" viewBox="0 0 1080 1080"><path d="M540,0h0c298.08,0,540,241.92,540,540h0c0,298.08-241.92,540-540,540h0C241.92,1080,0,838.08,0,540h0C0,241.92,241.92,0,540,0Z"/><path d="M864,475.2c0,27.36-2.88,53.28-7.2,80.64-36,184.32-141.12,276.48-318.24,276.48h-112.32c0-1.44,27.36-129.6,27.36-129.6h76.32c95.04,0,152.64-54.72,172.8-162.72,1.44-7.2,2.88-14.4,4.32-21.6l152.64-89.28c1.44,14.4,2.88,30.24,2.88,44.64h0s1.44,1.44,1.44,1.44Z" style="fill:#6348a9;"/><path d="M807.84,313.92l-138.24,79.2c-20.16-12.96-44.64-20.16-77.76-20.16h-221.76v-2.88l25.92-122.4h230.4c30.24,0,59.04,2.88,87.84,11.52,33.12,8.64,63.36,25.92,87.84,47.52,2.88,2.88,4.32,4.32,5.76,5.76h0v1.44Z" style="fill:#6348a9;"/><polygon points="588.96 483.84 568.8 612 472.32 612 472.32 612 426.24 830.88 426.24 832.32 216 832.32 295.2 725.76 347.04 483.84 588.96 483.84" style="fill:#82d4ce;"/></svg>