<?xml version="1.0" encoding="UTF-8"?><svg id="Layer_1" xmlns="http://www.w3.org/2000/svg" width="1080" height="1080" viewBox="0 0 1080 1080"><path d="M540,0h0c298.22,0,540,241.78,540,540h0c0,298.22-241.78,540-540,540h0C241.78,1080,0,838.22,0,540h0C0,241.78,241.78,0,540,0Z"/><path d="M513.36,252.86c1.01-7.92,1.44-13.97,2.74-20.02,1.01-4.9,2.3-9.94,4.32-14.4,5.04-11.52,11.23-22.9,25.92-23.04,14.69,0,20.88,11.23,26.06,22.61,4.46,9.5,5.04,20.02,7.06,30.1,3.89.29,5.47-2.59,7.78-4.18,15.55-10.08,28.66-4.03,30.53,14.54,1.3,13.68-1.15,26.78-7.63,38.88-3.46,6.48-1.73,8.35,4.61,10.08,111.6,30.38,171.5,107.14,193.97,217.15,5.33,25.92,6.77,52.13,7.78,78.48.29,7.49-2.16,10.22-9.79,10.08-18.72-.43-37.58-.58-56.45,0-8.64.29-11.23-2.59-11.23-10.94.29-30.96-4.46-61.2-15.12-90.29-27.79-75.02-82.8-115.06-161.14-124.42-30.1-3.6-59.9-2.02-89.14,6.77-53.28,15.98-87.98,52.13-109.3,102.24-14.4,33.98-20.88,69.84-23.62,106.27-.58,7.63-2.45,10.8-10.66,10.51-18.72-.58-37.58-.43-56.45,0-7.2,0-10.51-1.73-9.94-9.79,4.9-63.22,16.85-124.56,48.53-180.43,36-63.36,89.86-102.38,161.42-116.64,8.64-1.73,10.08-3.89,5.33-11.38-6.19-9.94-9.36-21.02-9.07-32.98.29-8.64,2.02-16.7,10.37-21.17,8.64-4.61,16.13-.43,23.04,4.32,2.88,1.87,5.62,4.32,10.08,7.78h0v-.14Z" style="fill:#fff707;"/><path d="M588.96,640.51c12.53.58,27.5-1.3,42.19,2.02,40.03,8.78,65.81,44.93,61.49,86.54-3.89,38.02-37.44,67.97-77.04,68.54-20.16.29-40.32,0-60.48,0-4.32,0-5.76-1.3-5.76-5.76v-145.87c0-4.75,1.73-5.9,6.19-5.76,10.37.29,20.74,0,33.26,0h0l.14.29ZM588.96,718.99v40.46c0,3.74,1.3,5.18,5.04,5.04,6.19-.29,12.53,0,18.72,0,14.11,0,24.77-6.34,32.26-18,8.5-13.54,9.65-28.22,4.9-43.34-5.9-18.86-20.02-29.09-39.89-29.09-5.33,0-10.51.29-15.84,0-4.18-.29-5.47,1.44-5.33,5.47.14,13.25,0,26.5,0,39.74h0l.14-.29Z" style="fill:#fff707;"/><path d="M216.14,718.56v-71.42c0-5.04,1.15-6.91,6.48-6.77,22.75.72,45.65-1.3,68.54,1.01,39.17,4.03,68.54,38.16,68.4,78.62,0,39.17-30.1,73.01-68.98,76.75-23.33,2.3-46.8.43-70.27.86-4.75,0-4.18-3.17-4.18-6.05v-73.15h0v.14ZM255.17,719.42v39.74c0,4.18,1.3,5.47,5.47,5.33,5.76-.29,11.66,0,17.57,0,16.85,0,28.51-8.06,35.86-22.75,5.33-10.94,6.19-22.46,3.6-34.27-4.03-18.29-18.58-35.28-42.19-33.55-3.89.29-7.78,0-11.66,0-5.62,0-8.35,2.74-8.35,8.06v37.44h-.29Z" style="fill:#fff707;"/><path d="M785.66,797.47c-44.06,0-78.77-34.27-78.91-78.19,0-43.78,34.56-78.48,78.62-78.48s78.62,34.27,78.62,78.19-34.13,78.48-78.34,78.48ZM824.83,719.42c0-8.21-1.44-15.98-5.33-23.18-7.2-13.68-18.43-21.74-34.13-21.74s-27.65,7.92-34.42,22.18c-7.63,15.98-7.2,32.26,1.44,47.81,7.06,12.53,18,19.3,32.54,19.44,14.83,0,25.78-6.77,33.26-19.3,4.61-7.78,6.62-16.27,6.62-25.2h0Z" style="fill:#fff707;"/><path d="M451.87,797.47c-44.5-.14-78.77-34.56-78.48-79.06.14-43.63,35.14-77.9,79.34-77.62,43.92.29,78.34,35.14,78.05,79.06-.29,43.49-35.14,77.76-78.91,77.62ZM412.27,720.14c-.14,3.17.58,7.63,1.58,12.1,4.61,18.86,19.44,31.39,37.15,31.68,18.29.29,33.26-11.52,38.3-30.82,3.6-13.39,2.45-26.35-4.32-38.59-7.2-12.96-18.43-20.02-33.41-20.02s-25.92,7.34-33.26,20.3c-4.18,7.34-6.05,15.55-6.05,25.34h0Z" style="fill:#fff707;"/><path d="M587.81,519.84c0-6.19-.43-12.24,0-18.29.72-9.07,6.19-14.83,15.26-15.12,9.22-.14,15.26,5.47,15.7,14.54.72,12.96.72,25.92,0,38.74-.58,8.64-6.48,13.82-15.12,13.97-9.22,0-14.83-5.33-15.84-14.4-.72-6.34,0-12.96-.14-19.44h.14Z" style="fill:#fff707;"/><path d="M469.15,519.98c0-6.19-.29-12.24,0-18.43.58-9.36,6.05-14.83,15.12-15.12,8.64-.29,14.98,4.9,15.55,13.39,1.01,13.54,1.01,27.36,0,40.9-.72,8.5-7.2,13.39-15.84,12.96-8.64-.43-13.97-5.62-14.54-14.4-.43-6.48,0-12.96-.14-19.44h0l-.14.14Z" style="fill:#fff707;"/></svg>