<?xml version="1.0" encoding="UTF-8"?><svg id="Layer_1" xmlns="http://www.w3.org/2000/svg" width="1080" height="1080" viewBox="0 0 1080 1080"><circle cx="540" cy="540" r="540" style="fill:#fff;"/><path d="M853.166,351.596l-268.683,154.497c-27.242,15.995-44.151,45.326-46.312,76.814-4.519,65.846.759,140.456.115,207.486-.036,3.699-1.374,6.873-1.411,10.253-.341,31.328.376,62.701.04,94.018l-259.6-149.297c-29.019-16.202-48.198-45.188-52.787-78.117l.067-269.609c4.712-33.938,23.174-58.885,51.423-76.888,70.87-45.164,149.535-83.278,221.564-127.079,29.44-12.641,64.121-10.812,92.06,4.776,85.106,52.734,175.627,97.385,260.543,150.311.811.505,3.59,1.929,2.981,2.832Z"/><path d="M591.363,601.106c2.284-20.334,17.815-44.647,33.809-56.916l227.389-131.632c2.618-.367,1.671.099,1.907,1.89,1.794,13.605.778,41.328.059,55.816-2.15,43.357-21.27,76.629-60.106,96.719l-203.058,116.423v-82.3Z"/><path d="M853.169,593.978v74.524c0,27.772-31.119,67.333-56.156,78.636l-205.65,117.719v-81.004c0-18.918,19.293-46.741,33.806-58.215l228-131.66Z"/></svg>