<?xml version="1.0" encoding="UTF-8"?><svg id="Layer_1" xmlns="http://www.w3.org/2000/svg" width="1080" height="1080" viewBox="0 0 1080 1080"><path d="M540,0h0c298.08,0,540,241.92,540,540h0c0,298.08-241.92,540-540,540h0C241.92,1080,0,838.08,0,540h0C0,241.92,241.92,0,540,0Z"/><path d="M802.08,538.56l-426.24,349.92v-123.84c0-18.72,2.88-37.44,11.52-56.16,8.64-17.28,20.16-33.12,36-44.64l152.64-126.72-151.2-122.4c-15.84-11.52-27.36-27.36-36-46.08-8.64-17.28-11.52-37.44-11.52-56.16v-120.96s424.8,347.04,424.8,347.04Z" style="fill:#5b46f9;"/></svg>