<?xml version="1.0" encoding="UTF-8"?><svg id="Layer_1" xmlns="http://www.w3.org/2000/svg" width="1080" height="1080" viewBox="0 0 1080 1080"><circle cx="540" cy="540" r="540"/><path d="M750.03,544.8c-1.23,54.31-22.94,105.19-61.44,143.69-39.73,39.67-92.43,61.51-148.56,61.51s-108.82-21.84-148.49-61.51c-39.67-39.67-61.51-92.43-61.51-148.49s21.84-108.82,61.51-148.49c38.76-38.76,89.96-60.47,144.54-61.44v-140.06c-45.82.52-90.35,9.72-132.35,27.48-41.68,17.63-79.14,42.84-111.22,74.99-32.15,32.15-57.36,69.55-74.99,111.22-18.21,43.23-27.48,89.06-27.48,136.31s9.27,93.07,27.55,136.24c17.63,41.68,42.84,79.14,74.99,111.22,32.15,32.15,69.55,57.36,111.22,74.99,43.17,18.28,89.06,27.55,136.24,27.55s93.07-9.27,136.24-27.55c41.68-17.63,79.14-42.84,111.22-74.99,32.15-32.15,57.36-69.55,74.99-111.22,17.63-41.74,26.9-85.94,27.48-131.44h-139.94Z" style="fill:#0051d2;"/><rect x="536.14" y="330.39" width="214.41" height="214.41" style="fill:#14e0a0;"/></svg>