<?xml version="1.0" encoding="UTF-8"?><svg id="Layer_1" xmlns="http://www.w3.org/2000/svg" width="1080" height="1080" xmlns:xlink="http://www.w3.org/1999/xlink" viewBox="0 0 1080 1080"><defs><linearGradient id="linear-gradient" x1="540.08" y1="-1129.89" x2="540.08" y2="-481.95" gradientTransform="translate(0 -266) scale(1 -1)" gradientUnits="userSpaceOnUse"><stop offset="0" stop-color="#d3a46c"/><stop offset=".66" stop-color="#f8e8b6"/><stop offset="1" stop-color="#d3a46c"/></linearGradient></defs><path d="M540,0h0c298.22,0,540,241.78,540,540h0c0,298.22-241.78,540-540,540h0C241.78,1080,0,838.22,0,540h0C0,241.78,241.78,0,540,0Z"/><path id="_5dBCAF.tif" d="M848.88,494.06c-6.62-46.51-19.87-93.02-33.26-137.81-14.98-43.2-31.54-86.4-49.82-127.87-3.31-6.62-8.35-11.66-16.56-11.66-69.7,0-139.54-1.73-209.23,0h-207.65c-9.94,0-16.56,3.31-19.87,13.25-11.66,24.91-21.6,51.55-31.54,76.46-28.22,76.46-49.82,152.78-56.45,234.14-3.31,39.89-1.73,79.78,8.35,119.52,16.56,64.8,49.82,116.21,104.69,152.78,48.1,31.54,101.23,46.51,159.41,49.82,31.54,1.58,63.07,1.58,93.02,0,28.22-1.58,56.45-6.62,84.67-16.56,54.86-18.29,101.38-49.82,134.5-97.92,29.95-44.78,43.2-93.02,48.1-146.16,0-36.58-1.58-71.42-8.35-108h0ZM823.97,588.82c-1.58,49.82-14.98,97.92-43.2,139.54-31.54,49.82-78.05,81.36-134.5,94.61-28.22,6.62-54.86,9.94-83.09,9.94h-73.01c-53.14-3.31-102.96-16.56-146.16-49.82-33.26-26.64-56.45-59.76-71.42-99.65-16.56-39.89-21.6-83.09-19.87-126.14,0-3.31-1.73-8.35,1.73-9.94,1.73-1.58,6.62,3.31,8.35,5.04,13.25,8.35,26.64,16.56,39.89,23.18,3.31,1.58,3.31,3.31,5.04,6.62,13.25,46.51,54.86,76.46,102.96,74.74,9.94,0,18.29-3.31,28.22-6.62,8.35-3.31,11.66-11.66,9.94-18.29-1.73-8.35-9.94-11.66-18.29-9.94-9.94,1.58-19.87,5.04-29.95,3.31-31.54-1.58-59.76-28.22-63.07-59.76-5.04-41.47,26.64-78.05,68.11-78.05,6.62,0,11.66,1.73,18.29,3.31,9.94,3.31,18.29-1.73,19.87-9.94,1.73-8.35-3.31-16.56-11.66-19.87-56.45-16.56-112.9,18.29-126.14,74.74,0,1.58,0,3.31-1.73,6.62-11.66-5.04-21.6-11.66-31.54-19.87-5.04-3.31-9.94-6.62-13.25-9.94-1.73-1.58-3.31-3.31-1.73-6.62,6.62-38.16,14.98-76.46,26.64-112.9,14.98-46.51,31.54-93.02,51.55-137.81,1.73-3.31,3.31-5.04,6.62-5.04,68.11,0,137.81-1.73,207.65-1.73,63.07,0,124.56,0,187.63,1.73,3.31,0,5.04,1.73,6.62,3.31,31.54,73.01,58.18,149.47,73.01,229.25,3.31,14.98,5.04,31.54,6.62,46.51v3.31c-1.58,0-3.31,0-3.31-1.58-48.1-31.54-101.23-46.51-159.41-41.47-24.91,1.73-48.1,9.94-71.42,21.6-19.87,9.94-36.58,21.6-56.45,31.54-6.62,3.31-11.66,6.62-18.29,9.94-1.58,1.58-3.31,0-3.31-1.58-3.31-8.35-6.62-16.56-8.35-24.91-3.31-11.66-11.66-14.98-23.33-11.66-9.94,3.31-21.6,8.35-31.54,11.66-9.94,3.31-14.98,11.66-11.66,19.87s11.66,11.66,21.6,8.35c5.04-1.58,9.94-3.31,13.25-5.04s5.04-1.58,6.62,3.31c6.62,19.87,14.98,39.89,21.6,61.49,1.58,6.62,8.35,9.94,14.98,9.94s11.66-3.31,14.98-9.94c1.58-3.31,1.58-6.62,0-11.66s-3.31-11.66-6.62-16.56c0-1.58-1.58-3.31,1.58-3.31,14.98-6.62,28.22-13.25,41.47-21.6,11.66-6.62,24.91-13.25,36.58-21.6,28.22-16.56,59.76-21.6,93.02-19.87,44.78,3.31,84.67,18.29,119.52,46.51,8.35,8.35,9.94,8.35,8.35,23.18h0v-.43ZM777.46,602.06c-6.62,16.56-11.66,33.26-18.29,51.41-13.25,34.85-26.64,71.42-38.16,106.27-3.31,8.35-8.35,11.66-14.98,11.66-11.66,0-18.29-9.94-14.98-21.6,9.94-26.64,18.29-51.41,28.22-78.05s19.87-53.14,28.22-79.78c3.31-8.35,11.66-13.25,19.87-9.94,8.35,1.58,13.25,9.94,9.94,19.87l.14.14ZM692.78,645.26c-8.35,3.31-16.56,0-21.6-8.35-5.04-11.66-11.66-23.18-16.56-36.58,0-1.58-1.58-3.31-3.31-5.04-5.04,14.98-9.94,29.95-16.56,43.2-9.94,26.64-19.87,53.14-28.22,79.78-1.58,6.62-5.04,9.94-11.66,11.66-11.66,1.58-21.6-8.35-16.56-19.87,8.35-21.6,16.56-44.78,24.91-66.38,11.66-29.95,21.6-61.49,33.26-91.3,3.31-11.66,16.56-14.98,24.91-8.35,1.58,1.58,3.31,3.31,5.04,6.62,11.66,24.91,23.18,49.82,34.85,74.74,1.58,6.62-1.58,14.98-8.35,19.87h-.14ZM559.87,666.86c-11.66,14.98-24.91,29.95-36.58,44.78-23.18,28.22-46.51,56.45-69.7,83.09-3.31,3.31-8.35,8.35-11.66,6.62-6.62,0-11.66-3.31-14.98-8.35s-1.73-11.66,1.73-16.56c8.35-9.94,16.56-19.87,24.91-29.95,28.22-33.26,56.45-66.38,83.09-99.65,5.04-6.62,11.66-8.35,18.29-5.04,9.94,3.31,11.66,14.98,5.04,24.91h0l-.14.14Z" style="fill:url(#linear-gradient);"/></svg>