<?xml version="1.0" encoding="UTF-8"?><svg id="Layer_1" xmlns="http://www.w3.org/2000/svg" width="1080" height="1080" viewBox="0 0 1080 1080"><circle cx="540" cy="540" r="540" style="fill:#fff;"/><path d="M602.923,540.039c2.112,1.725,3.648,3.007,5.212,4.252,34.074,27.12,68.154,54.233,102.226,81.356,5.386,4.288,4.606,2.784,4.613,9.424.035,30.91.016,61.82.015,92.73,0,1.204.027,2.41-.018,3.613-.109,2.913-.354,3.178-3.028,3.305-1.002.048-2.007.026-3.01.026-21.878.001-43.756.002-65.633-.002-1.405,0-2.812.006-4.213-.077-1.113-.066-1.905-.652-1.965-1.842-.09-1.802-.132-3.608-.133-5.412-.009-17.462-.005-34.924-.006-52.386,0-1.204-.12-2.423.022-3.61.396-3.311-.881-5.559-3.56-7.617-9.387-7.214-18.59-14.669-27.859-22.037-19.951-15.861-39.9-31.725-59.85-47.587-.942-.749-1.88-1.506-2.838-2.234-2.955-2.248-2.993-2.288-6.106.185-25.773,20.47-51.532,40.957-77.296,61.439-4.87,3.872-9.717,7.772-14.622,11.599-1.374,1.073-2.138,2.286-2.041,4.074.087,1.601.007,3.21.006,4.816-.001,18.466-.004,36.931,0,55.397.001,5.389.087,5.299-5.293,5.298-22.48-.006-44.96-.003-67.44-.003-.201,0-.401.002-.602-.001-4.604-.088-4.679-.088-4.682-4.735-.023-32.114.056-64.229-.11-96.342-.019-3.565,1.56-5.465,4.026-7.422,26.571-21.078,53.1-42.209,79.642-63.325,8.167-6.497,16.342-12.984,24.5-19.491,1.245-.993,2.417-2.075,3.64-3.13-.922-2.38-3.042-3.342-4.715-4.679-18.501-14.782-37.045-29.511-55.577-44.254-15.705-12.494-31.411-24.987-47.117-37.481-.628-.5-1.23-1.038-1.892-1.487-1.824-1.24-2.621-2.911-2.423-5.126.107-1.195.014-2.407.014-3.611,0-30.308,0-60.616,0-90.923,0-1.204-.024-2.409.012-3.613.111-3.745.284-3.903,4.27-4.035.802-.026,1.606-.011,2.408-.011,21.476,0,42.953-.001,64.429.002,1.405,0,2.813-.02,4.213.068,1.971.124,2.547.667,2.637,2.492.079,1.602.059,3.21.059,4.815.004,18.666.084,37.333-.072,55.998-.028,3.371,1.076,5.499,3.689,7.565,29.913,23.646,59.738,47.404,89.594,71.122,1.23.977,2.548,1.846,3.93,2.841,1.437-1.046,2.759-1.937,4.004-2.926,29.386-23.342,58.763-46.695,88.142-70.046.314-.25.596-.552.939-.751,3.091-1.798,4.021-4.425,3.99-8.002-.158-18.464-.075-36.931-.07-55.396,0-1.806.023-3.612.075-5.417.042-1.447.918-2.169,2.277-2.264,1.399-.098,2.808-.097,4.212-.097,21.677-.005,43.354-.004,65.031-.002,1.003,0,2.009-.021,3.01.032,3.025.16,3.284.435,3.381,3.635.043,1.404.016,2.81.016,4.215,0,30.308,0,60.616,0,90.923,0,1.204-.099,2.418.016,3.611.216,2.253-.819,3.73-2.523,5.074-9.14,7.207-18.221,14.488-27.33,21.734-25.915,20.614-51.836,41.219-77.745,61.841-1.393,1.109-2.694,2.334-4.484,3.894Z"/><path d="M695.87,889.962c-17.861,0-35.722.014-53.582-.009-5.27-.007-5.325-.056-5.331-5.312-.022-22.476-.022-44.953,0-67.429.005-5.253.06-5.302,5.326-5.307,23.881-.02,47.762-.009,71.644-.009,1.405,0,2.819-.105,4.212.021,2.588.234,4.571-.604,6.385-2.534,3.571-3.801,7.363-7.393,11.053-11.082,17.74-17.736,35.477-35.474,53.214-53.214.993-.993,1.972-2.001,2.957-3.002.887-.901,1.319-1.973,1.301-3.249-.022-1.605.014-3.211.014-4.816.001-23.48-.005-46.96.005-70.439.003-7.335-.512-6.846,6.84-6.849,21.874-.008,43.749-.015,65.623.007,5.366.005,5.441.057,5.445,5.268.024,35.521-.031,71.042.085,106.562.011,3.349-1.194,5.593-3.466,7.854-22.196,22.077-44.308,44.239-66.448,66.374-14.334,14.331-28.674,28.655-43.011,42.982-.71.709-1.454,1.386-2.129,2.127-1.281,1.407-2.75,2.245-4.749,2.074-1.394-.119-2.807-.016-4.212-.016-17.058,0-34.116,0-51.174,0Z"/><path d="M209.005,364.542c0-17.456.08-34.913-.065-52.368-.03-3.642.86-6.314,3.554-8.993,36.704-36.504,73.299-73.117,109.839-109.785,2.474-2.483,5.017-3.406,8.467-3.396,35.313.101,70.627.062,105.941.061,6.569,0,6.095-.182,6.098,6.334.01,21.669.004,43.339.003,65.008,0,1.204.026,2.41-.04,3.611-.122,2.21-.584,2.651-2.982,2.767-1.602.077-3.209.046-4.814.046-23.275.002-46.55.001-69.825.002-1.605,0-3.211.041-4.815.011-1.498-.027-2.729.524-3.78,1.553-1.434,1.403-2.886,2.789-4.305,4.207-20.577,20.568-41.099,41.191-61.785,61.647-2.692,2.662-3.609,5.369-3.59,9.021.12,23.676.063,47.352.057,71.028,0,1.805-.025,3.61-.098,5.413-.058,1.426-.875,2.152-2.295,2.181-1.404.029-2.808.055-4.212.055-21.67.003-43.339.002-65.009.002-1.003,0-2.008.022-3.009-.017-3.044-.118-3.217-.302-3.315-3.613-.042-1.403-.015-2.809-.015-4.213,0-16.854,0-33.708,0-50.563Z"/></svg>