<?xml version="1.0" encoding="UTF-8"?><svg id="Layer_1" xmlns="http://www.w3.org/2000/svg" width="1080" height="1080" viewBox="0 0 1080 1080"><path d="M540,0h0c298.22,0,540,241.78,540,540h0c0,298.22-241.78,540-540,540h0C241.78,1080,0,838.22,0,540h0C0,241.78,241.78,0,540,0Z"/><path d="M639.46,491.6c-5.16.13-12.15.62-17.01,0-7.09-.9-33.48-11.56-36.6-10.94s-24.64,18.98-29.57,22.26c-9.67,3.09-18.51,8.65-28.36,11.33-13.92,3.78-25.32,4.18-39.7,3.78-1.97-.05-5.88-3.13-11.34-1.89-4.48-5.43-14.58-7.36-20.79-11.33-2.07-1.32-5.54-4.02-7.56-5.66-3.36-2.72-8.17-11.52-12.7-12.87-4.34-1.29-16.71,1.49-23.22,1.54-29.74.25-52.55-5.14-72.8-28.29-31.1-35.54-10.24-75.45,27.5-93.78-2.07-25.04-.72-50.43,8.47-74.21,60.15-155.63,294.04-122.23,302.34,45.35,32.56,10.83,71.05,28.61,46.09,68.51-2.32,3.7-11.89,12.73-12.46,15.63-.64,3.26,2.84,10.39,2.91,14.87.54,35.41-45.33,54.93-75.21,55.7ZM496.38,238.07c20.52,18.11,47.32-13.41,27.62-30.4-20.52-17.69-46.56,13.68-27.62,30.4ZM391.83,412.32v-40.58c0-28.71,34.35-85.22,54.83-105.7,5.39-5.39,28.45-21.28,30.36-24.41,6.64-10.94-3.69-21.28-15.29-19.18-21.89,3.97-48.22,31.85-59.35,50.34-20.88,34.67-27.6,94.91-14.89,133.49.8,2.44,1.28,5.54,4.34,6.04ZM542.54,442.96c-31.47,6.52-10.8,48.26,16.64,33.58,2.68-1.43,25.1-20.14,25.46-21.78,1.16-5.26-24.35-11.83-29.31-12.22-4.12-.33-8.76-.42-12.79.42ZM618.2,442.87c-17.4,3.35-28.86,20.28-5.31,25.24,33.23,7,30.42-30.08,5.31-25.24Z" style="fill:#df7893;"/><path d="M448.54,499.15l-17.02,1.9,3.8,20.75c.96.97,19.45-14.17,20.77-16.99,6.22,3.96,16.32,5.9,20.79,11.33-3.33.76-11.59,8.64-15.12,11.33-4.2,3.19-20.28,15.27-20.35,19.39-.2,12.86,10.79,34.24,11.08,48.37,4.31.64,8.72,0,13.05.19.52.02,2.47,3.15,5.36,1.58.37-.2.48-2.57,1.71-3.41,4.72-3.23,11.6-8.99,15.61-11.38,18.76-11.21,47.01-24.17,67.66-31.54,4.47-1.6,24-5.38,24.98-6.22,3.45-2.99-7.22-6.54-8.2-7.84l-44.74-22.35c9.85-2.68,18.68-8.24,28.36-11.33-1.01,4.58,2.33,3.9,4.97,5.32,6.22,3.33,12.83,6.02,18.98,9.46,5.73,3.2,32.81,22.17,36.46,19.13,1.75-1.46,5.56-39.34,5.75-45.24,4.86.62,11.85.13,17.01,0-13.07,85.62-22.83,172.35-42.51,256.74-5.96,25.55-25.28,108.35-46.42,121.64-20.05,12.6-32.67-19.87-39.34-34.15-14.01-30-26.2-67.93-36.22-99.74-25.6-81.27-44.63-164.94-62.34-248.27,6.5-.06,18.88-2.84,23.22-1.54,4.53,1.35,9.34,10.14,12.7,12.87ZM603.17,634.69c3.64-4.12,6.81-57.32,11.55-66.77-.59-10.77-21.61-5.35-28.57-4.02-30.34,5.79-62.38,21.94-88.46,38.14,16.89,6.51,34.19,12.01,50.97,18.93,9.98,4.12,33.29,18.81,42.4,17.87,1.14-.12,11.68-3.67,12.11-4.15ZM469.33,623.74c-4.84,2.83-8.4,1.1-7.23,9.87l20.27,72.08c1.37,2.23,4.09.77,5.86,1.1,12.2,2.28,9.01-5.77,13.23-9.44,3.77-3.27,14.57-6.36,18.01-13.16l46.25-33.07c-22.23-14.56-49.72-21.87-75.6-27.39-4.33-.93-7.99-4.26-14.25-3.94-5.77.29-5.12,3.11-6.54,3.94ZM516.6,716.21l61.35,28.31c2.77-.6,6.62-20.22,7.66-24.49,1.78-7.32,11.33-47.35,9.53-50.95-2.69-5.38-9.21-4.11-13.76-2.34-9.6,3.73-32.92,20.94-41.91,27.98-2.57,2.01-24.2,19.7-22.88,21.49ZM499.58,738.89c-.26.41-6.64.53-5.41,4.32,9.4,23.9,15.14,49.46,25.28,73.05,2.94,6.83,15.48,36.08,24.2,33.83,10.96-2.83,25.59-71.67,29.48-84.5-19.59-12.55-40.3-21.09-62.22-28.58-.61-.21-1.82-2.41-3.61-2.93-11.74-3.45-6.24,2.5-7.73,4.82Z" style="fill:#7f6338;"/><path d="M391.83,412.32c-3.06-.51-3.54-3.61-4.34-6.04-12.71-38.58-5.99-98.82,14.89-133.49,11.13-18.48,37.46-46.37,59.35-50.34,11.6-2.1,21.93,8.24,15.29,19.18-1.9,3.13-24.96,19.02-30.36,24.41-20.49,20.48-54.83,76.98-54.83,105.7v40.58Z" style="fill:#fefefe;"/><path d="M527.93,514.25l44.74,22.35c.98,1.3,11.65,4.85,8.2,7.84-.97.84-20.51,4.63-24.98,6.22-20.65,7.38-48.89,20.34-67.66,31.54-5.33-21.08.86-42.79,0-64.18,14.38.4,25.78,0,39.7-3.78Z" style="fill:#a58357;"/><path d="M622.45,491.6c-.19,5.9-3.99,43.78-5.75,45.24-3.65,3.04-30.73-15.93-36.46-19.13-6.15-3.43-12.76-6.13-18.98-9.46-2.64-1.42-5.98-.74-4.97-5.32,4.92-3.28,26.33-21.61,29.57-22.26s29.51,10.04,36.6,10.94Z" style="fill:#a58357;"/><path d="M488.24,518.03c.86,21.39-5.33,43.1,0,64.18-4.01,2.39-10.89,8.16-15.61,11.38-1.23.84-1.34,3.21-1.71,3.41-2.89,1.57-4.84-1.56-5.36-1.58-3.49-22.44-4.14-45.26-3.78-67.96,3.54-2.68,11.8-10.57,15.12-11.33,5.46-1.24,9.37,1.83,11.34,1.89Z" style="fill:#bea47a;"/><path d="M542.54,442.96c4.04-.84,8.68-.74,12.79-.42,4.96.39,30.47,6.96,29.31,12.22-.36,1.63-22.78,20.35-25.46,21.78-27.44,14.68-48.11-27.07-16.64-33.58Z" style="fill:#fefefe;"/><path d="M496.38,238.07c-18.94-16.72,7.1-48.1,27.62-30.4,19.7,16.99-7.1,48.52-27.62,30.4Z" style="fill:#fefefe;"/><path d="M618.2,442.87c25.1-4.84,27.92,32.23-5.31,25.24-23.54-4.96-12.08-21.88,5.31-25.24Z" style="fill:#fefefe;"/><path d="M456.1,504.82c-1.32,2.82-19.81,17.96-20.77,16.99l-3.8-20.75,17.02-1.9c2.02,1.64,5.49,4.34,7.56,5.66Z" style="fill:#a58357;"/><path d="M603.17,634.69c-.42.48-10.96,4.03-12.11,4.15-9.11.94-32.42-13.75-42.4-17.87-16.78-6.92-34.08-12.42-50.97-18.93,26.07-16.2,58.12-32.35,88.46-38.14,6.96-1.33,27.98-6.75,28.57,4.02-4.74,9.46-7.91,62.66-11.55,66.77Z" style="fill:#a58357;"/><path d="M510.92,737c21.92,7.49,42.62,16.03,62.22,28.58-3.9,12.83-18.53,81.67-29.48,84.5-8.71,2.25-21.26-27-24.2-33.83-10.15-23.59-15.88-49.15-25.28-73.05-1.23-3.79,5.14-3.91,5.41-4.32,9.21,22.98,17.52,47.98,32.12,67.96l-20.77-69.84ZM533.59,812.5c1.36-2.65-1.2-5.04-1.85-3.76-1.36,2.65,1.2,5.04,1.85,3.76Z" style="fill:#a58357;"/><path d="M516.6,716.21c-1.32-1.79,20.3-19.48,22.88-21.49,9-7.03,32.31-24.25,41.91-27.98,4.55-1.77,11.08-3.04,13.76,2.34,1.8,3.6-7.75,43.63-9.53,50.95-1.04,4.27-4.89,23.89-7.66,24.49l-61.35-28.31Z" style="fill:#a58357;"/><path d="M490.13,623.74c25.88,5.53,53.37,12.83,75.6,27.39l-46.25,33.07c-3.45,6.8-14.24,9.89-18.01,13.16l-11.34-73.62Z" style="fill:#a58357;"/><path d="M490.13,623.74l11.34,73.62c-4.22,3.67-1.03,11.72-13.23,9.44l-18.9-83.06c1.42-.83.77-3.65,6.54-3.94,6.26-.32,9.92,3.02,14.25,3.94Z" style="fill:#bea47a;"/><path d="M465.55,595.42c-4.33-.2-8.74.45-13.05-.19-.29-14.14-11.28-35.51-11.08-48.37.06-4.11,16.15-16.2,20.35-19.39-.36,22.7.29,45.51,3.78,67.96Z" style="fill:#a58357;"/><path d="M510.92,737l20.77,69.84c-14.59-19.97-22.91-44.98-32.12-67.96,1.5-2.32-4.01-8.27,7.73-4.82,1.79.52,2.99,2.72,3.61,2.93Z" style="fill:#bea47a;"/><path d="M469.33,623.74l18.9,83.06c-1.78-.33-4.49,1.13-5.86-1.1l-20.27-72.08c-1.16-8.77,2.4-7.05,7.23-9.87Z" style="fill:#a58357;"/><path d="M533.59,812.5c-.66,1.28-3.21-1.1-1.85-3.76.66-1.28,3.21,1.1,1.85,3.76Z" style="fill:#bea47a;"/></svg>