<?xml version="1.0" encoding="UTF-8"?><svg id="Layer_1" xmlns="http://www.w3.org/2000/svg" width="1080" height="1080" viewBox="0 0 1080 1080"><path d="M540,0h0c298.22,0,540,241.78,540,540h0c0,298.22-241.78,540-540,540h0C241.78,1080,0,838.22,0,540h0C0,241.78,241.78,0,540,0Z"/><path d="M864,436.03l-171.36-174.24-43.49,43.06,128.88,131.18-59.04,60.19-147.74-150.34v-80.35h-58.61v75.17l-150.91,153.65-59.62-60.91,127.01-129.02-43.78-43.34-169.2,172.37,103.39,105.26-103.39,105.26,171.36,174.24,43.49-43.06-128.88-131.18,59.04-60.19,151.63,154.51v76.46h58.61v-79.06l147.02-149.76,59.9,60.91-127.01,129.02,43.49,43.06,169.2-172.37-103.39-105.26,103.39-105.26h0ZM540.58,679.25l-137.09-139.68,136.08-138.38,137.09,139.68s-136.08,138.38-136.08,138.38Z" style="fill:#fff; fill-rule:evenodd;"/></svg>