<?xml version="1.0" encoding="UTF-8"?><svg id="Layer_1" xmlns="http://www.w3.org/2000/svg" width="1080" height="1080" viewBox="0 0 1080 1080"><path d="M540,0h0c298.24,0,540,241.76,540,540h0c0,298.24-241.76,540-540,540h0C241.76,1080,0,838.24,0,540h0C0,241.76,241.76,0,540,0Z"/><path d="M539.5,288.1c47.72,27.6,95.44,55.22,143.18,82.81,1.61.94,2.76,1.71,2.76,4.05-.1,53.7-.07,107.38-.09,161.08,0,.71-.1,1.4-.14,2.1-48.66-26.77-97.3-53.52-145.96-80.29,0-55.79-.03-111.57-.01-167.36,0-.79.17-1.6.26-2.39Z" style="fill:#17b8be;"/><path d="M539.5,288.1c-.09.79-.26,1.6-.26,2.39,0,55.79,0,111.57.03,167.36-25.85,14.37-51.71,28.71-77.56,43.1-22.32,12.43-44.63,24.87-66.93,37.31-.03-1.01-.07-2.02-.07-3.02,0-53.37.03-106.73-.09-160.08,0-2.76,1.02-4.16,3.21-5.43,21.53-12.43,43-24.93,64.51-37.37,23.24-13.46,46.51-26.9,69.77-40.33,2.42-1.4,4.67-3.11,7.39-3.92Z" style="fill:#d7d7d9;"/><path d="M394.76,538.27c22.31-12.44,44.61-24.88,66.93-37.31,25.85-14.39,51.7-28.73,77.56-43.1,48.66,26.77,97.3,53.52,145.96,80.29-5.49,4.05-11.56,7.14-17.41,10.61-42,24.87-84.04,49.65-126.06,74.48-1.48.88-2.64,1.5-4.56.35-47.04-28.21-94.15-56.3-141.24-84.43-.42-.24-.78-.59-1.17-.89h-.01Z" style="fill:#fff;"/><path d="M531.84,747.96c-2.75,7.26-5.2,13.74-7.66,20.23-1.9,5-3.99,6.45-9.29,6.47-3.12,0-6.25.04-9.39-.01-3.84-.07-6.44-1.92-7.79-5.57-8.63-23.23-17.22-46.45-25.96-69.62-1.01-2.66.39-4.02,1.94-5.39,4.45-3.93,9.96-5.08,15.64-5.69,4.52-.49,9.04-.35,13.58-.16,2.59.1,3.4,1.07,3.8,3.43,2.3,13.29,4.74,26.57,7.14,39.84.09.48.24.92.58,2.23,1.12-11.98,2.29-23.1,3.15-34.23.75-9.59,1.51-12.23,12.28-11.66,2.12.12,4.23.01,6.35.01,5.99,0,7.63,1.56,8.58,7.72,1.74,11.35,3.57,22.68,5.39,34.03.09.56-.04,1.24,1.05,1.87.29-2.68.62-5.16.82-7.66.69-8.94,1.44-17.88,1.94-26.84.19-3.33,1.71-5.16,4.71-6.22,6.47-2.3,13.23-2.45,19.97-2.88,1.61-.1,3.23-.03,4.84,0,5.57.07,8.5,4.09,6.72,9.37-3.4,10.12-6.87,20.2-10.31,30.31-4.61,13.54-9.22,27.07-13.85,40.59-1.61,4.72-4.02,6.45-8.96,6.54-3.02.06-6.05.03-9.09,0-5.73-.03-8.04-1.67-9.81-7.06-2.07-6.31-4.1-12.63-6.38-19.64h-.01Z" style="fill:#17b8be;"/><path d="M338.43,730.83c-.09,6.54.52,13.1-1.57,19.5-4.64,14.18-17.02,23.77-32.43,24.19-8.42.23-16.95,1.04-25.27-1.35-14.62-4.19-25.07-17.86-24.94-33.05.07-8.27-.85-16.57.56-24.77,2.76-16.07,17.09-28.25,33.38-28.3,7.44-.01,14.95-.79,22.35.62,15.62,3.01,27.27,16.62,27.91,32.54.14,3.53.01,7.07.01,10.6h0ZM289.31,731c0,5.85-.03,11.68,0,17.52.03,4.49,2.92,7.56,7.17,7.65,4.26.09,7.56-2.81,7.6-7.24.13-11.88.14-23.76,0-35.64-.06-4.22-3.41-7.13-7.49-7.07-4.19.06-7.26,3.21-7.29,7.57-.04,5.73,0,11.48,0,17.22h0Z" style="fill:#fff;"/><path d="M832.64,708.64v-16.88c.01-8.28,4.69-13,12.89-13,4.44,0,8.87-.04,13.32,0,3.66.04,5.16,1.54,5.16,5.16v83.82c0,4.15-2.25,6.74-6.39,6.87-6.35.19-12.72.03-19.07.09-1.48,0-1.9-.6-1.87-1.99.07-2.79.01-5.57.01-8.93-3.01,2.06-5.05,4.39-7.11,6.64-2.88,3.11-6.22,4.55-10.47,4.31-3.31-.2-6.67.13-9.95-.56-8.97-1.89-15.44-9.89-15.47-19.12-.03-10.3-.03-20.58,0-30.87.03-11.38,8.86-20.91,20.2-21.77,2.61-.2,5.24-.19,7.86-.07,4.28.2,7.68,2.16,10.87,6.31h.01ZM832.91,739.87c0-5.54-.09-11.1.04-16.65.06-2.26-.99-2.53-2.76-2.23-2.72.46-4.78,2.87-4.82,6.12-.09,8.16-.09,16.34,0,24.52.03,3.05,1.48,5.41,4.44,6.61,1.99.81,3.21.69,3.14-2.03-.14-5.44-.04-10.9-.04-16.34h.01Z" style="fill:#17b8be;"/><path d="M460.68,739.83c0,9.39.01,18.76,0,28.15-.03,13.62-10.32,23.9-23.9,23.9-10.7,0-21.38.03-32.08,0-3.89,0-7.6-.68-9.29-4.78-1.73-4.19-.06-11.72,2.85-14.14,1.74-1.45,3.76-1.44,5.73-.88,7.55,2.15,15.24.66,22.85.95,1.93.07,2.98-1.44,2.97-3.48-.01-3.02.01-6.05-.03-9.09,0-.6.42-1.51-.63-1.73-.79-.16-1.54-.1-2.13.69-6.85,9.03-16.08,6.49-24.61,4.26-8.25-2.16-13.35-10.27-13.45-19.22-.13-11,0-21.99-.07-32.99,0-1.54.55-2.39,1.81-3.08,8.01-4.32,16.72-4.98,25.53-4.68,2.71.09,3.76,2.29,3.79,4.95.1,8.67.26,17.34.4,26.01.04,3.02.12,6.05.22,9.07.1,3.12,1.67,5.28,4.48,6.6,1.99.92,2.84.63,2.81-1.87-.1-12.01.1-24.02-.14-36.01-.07-3.54,1.48-5.16,4.38-6.22,5.76-2.13,11.79-2.43,17.83-2.76,9.29-.5,11.02,1.64,10.74,10.64-.26,8.57-.06,17.15-.06,25.73h.01Z" style="fill:#fff;"/><path d="M634.22,703.48c7.06-.1,14.14-.49,20.69,3.01,10.7,5.73,16.49,14.53,16.57,26.77.04,5.54.66,11.15-.35,16.62-2.64,14.37-13.84,24.13-28.74,24.7-7.52.29-15.13.86-22.61-.81-12.82-2.88-22.48-14.36-22.82-27.46-.16-6.32-.72-12.72.53-19.01,2.72-13.77,14.86-23.76,28.86-23.8h7.86ZM641.87,739.67c0-4.03.04-8.05,0-12.08-.06-4.28-2.68-7.13-6.49-7.19-3.84-.06-6.77,2.75-6.81,6.91-.1,8.15-.1,16.32,0,24.47.04,4.12,3.04,6.97,6.85,6.88,3.7-.09,6.38-2.88,6.45-6.93.07-4.03.01-8.05.01-12.08h-.01Z" style="fill:#17b8be;"/><path d="M711.14,714.2c3.2-2.28,5.75-4.2,8.41-5.96,4.15-2.74,8.55-4.92,13.52-5.75,2.87-.48,5.63-.16,8.25,1.12,2.33,1.15,3.69,2.94,4.05,5.6.68,5.04.95,10.05-.16,15.03-1.73,7.82-6.49,10.68-14.14,8.65-4.2-1.11-8.44-2.02-12.83-1.58-2.76.27-4.23,1.37-4.16,4.61.22,9.78.09,19.57.07,29.36,0,6.25-3.01,9.3-9.26,9.33-6.75.04-13.52-.04-20.28.04-1.84.03-2.4-.53-2.4-2.4.06-20.17.04-40.36.03-60.54,0-1.12-.07-2.15,1.18-2.82,6.55-3.53,13.31-6.26,20.98-5.53.99.1,1.97.36,2.97.49,2.87.39,4.28,1.77,3.8,4.87-.24,1.57-.04,3.2-.04,5.43v.04Z" style="fill:#17b8be;"/><path d="M753.45,730.34v-39.92c0-8.21,3.51-11.66,11.82-11.66,3.93,0,7.86-.03,11.79,0,4.82.04,7.49,2.66,7.49,7.52.03,26.91.03,53.84,0,80.76,0,4.88-2.59,7.55-7.44,7.6-6.96.1-13.91-.07-20.87.09-2.35.06-2.85-.75-2.84-2.95.09-13.81.04-27.62.04-41.43Z" style="fill:#17b8be;"/><path d="M378.43,726.03v41.44c0,4.77-2.22,7.1-6.94,7.14-6.35.06-12.7.06-19.05,0-3.48-.03-4.48-1.07-4.48-4.56,0-25.82-.03-51.62,0-77.44,0-7.78,5.93-13.67,13.8-13.85,3.93-.1,7.86-.04,11.79,0,3.6.03,4.87,1.34,4.87,4.92v42.35h.01Z" style="fill:#fff;"/><path d="M242.78,737.09v28.74c0,4.45-1.74,6.29-6.16,6.35-6.25.07-12.5-.03-18.76.06-1.47.01-1.86-.4-1.86-1.87.04-19.47,0-38.92.07-58.39.01-4.25,3.73-7.88,7.96-7.98,5.24-.12,10.48,0,15.72-.04,2.48-.03,3.04,1.35,3.02,3.48-.04,9.88-.01,19.77-.01,29.65h.01Z" style="fill:#fff;"/></svg>