<?xml version="1.0" encoding="UTF-8"?><svg id="Layer_1" xmlns="http://www.w3.org/2000/svg" width="1080" height="1080" viewBox="0 0 1080 1080"><circle cx="540" cy="540" r="540"/><path d="M530.433,527.829l-17.187-45.959c-.728-13.413,1.622-27.927,4.069-41.178,4.748-25.708,13.011-50.946,22.74-75.116,13.739,36.845,25.171,75.183,26.978,114.802l-17.377,47.021,11.753.907,156.827-104.986c1.383-1.559,1.645-4.373,1.952-6.412,2.748-18.305,2.83-38.255,5.138-56.754l.761-1.748,112.551-78.126,1.295,2.869c-1.292,22.156,1.136,45.151-4.461,66.713-7.227,27.839-25.11,52.164-47.995,69.098l-225.227,150.352c-.145.685,7.414,7.542,8.773,8.675,22.949,19.141,53.034,26.76,82.158,18.645,20.21-5.632,35.772-20.426,53.3-31.174,2.808-21.847,4.344-43.946,6.453-65.899l126.953-84.635c-.018,25.726,1.545,51.135-6.459,75.915-6.222,19.266-17.587,35.949-31.569,50.395-40.572,31.768-85.207,58.234-127.585,87.549l-8.34,101.449c9.474-6.446,19.497-12.563,28.273-19.81l5.181-59.22,1.627-5.901,128.427-86.521c.331,12.036.967,24.358.447,36.411-1.635,37.901-15.277,70.608-43.969,95.705l-245.86,188.835-244.208-187.16c-21.254-17.33-36.752-42.516-42.686-69.388-3.848-17.424-2.475-32.308-2.885-49.807-.048-2.016-2.458-14.6.383-14.586l128.143,86.363c1.074,1.294,1.639,9.315,1.911,11.898,1.865,17.727,2.713,35.628,4.323,53.387l27.059,18.946,1.239-1.227-8.381-98.692-.819-1.69-112.35-74.999c-23.394-17.369-41.13-42.013-48.171-70.594-5.403-21.931-3.22-44.858-2.996-67.259l124.662,83.596,1.014,1.495,6.479,65.449c18.88,11.398,35.804,27.551,57.94,32.388,32.977,7.207,64.341-4.841,87.154-28.624l-223.901-149.107c-23.161-16.488-41.42-40.318-49.16-67.934-6.564-23.42-4.651-47.863-4.187-71.922l112.903,77.79c2.829,18.361,3.214,37.142,5.455,55.601.247,2.038.777,8.12,1.669,9.203l156.817,104.969h12.964ZM493.633,648.268v28.019l19.888,13.976.356,30.181c.403,1.355,15.838,14.792,16.966,14.816,1.229-2.744-.517-5.812-.488-8.79.024-2.374.909-4.44.948-6.656.223-12.671,1.471-32.522.018-44.414-.113-.925-.023-1.82-.902-2.444l-36.787-24.687h0ZM585.634,649.105l-36.801,23.418v62.728l16.571-13.957.567-30.379c6.343-4.669,12.529-9.928,19.663-13.374v-28.437h0Z" style="fill:#fff;"/></svg>