<?xml version="1.0" encoding="UTF-8"?><svg id="Layer_1" xmlns="http://www.w3.org/2000/svg" width="1080" height="1080" viewBox="0 0 1080 1080"><path d="M540,0h0c298.22,0,540,241.78,540,540h0c0,298.22-241.78,540-540,540h0C241.78,1080,0,838.22,0,540h0C0,241.78,241.78,0,540,0Z"/><path id="_230da8ffff" d="M519.41,285.41c56.16-3.89,113.9,7.78,163.73,32.69,74.88,36.72,134.06,102.96,161.42,180.86,12.53,34.27,18.72,70.99,18.72,107.57v152.78c-3.17,13.25-13.25,25.78-25.78,31.97-9.36,3.89-19.44,4.61-28.8,3.17-20.3-3.89-36.58-23.33-36.58-44.5v-126.29c0-11.66,0-24.91-6.19-35.14-10.08-19.44-35.86-28.8-56.16-20.3-17.14,6.19-29.66,24.19-30.38,42.05v127.87c0,7.78,0,16.42-2.3,24.19-3.89,14.83-17.14,27.22-31.97,31.25-20.3,5.47-42.91-3.17-52.27-21.89-7.06-10.94-6.19-24.19-6.19-36.58v-127.87c0-21.89-18.72-41.33-39.74-43.63-13.97-2.3-28.8,2.3-39.02,12.53-9.36,8.64-13.97,21.02-13.97,33.55v123.98c0,10.08,0,21.02-2.3,30.38-6.19,18-24.19,30.38-42.91,30.38s-38.16-12.53-44.5-30.38c-3.17-9.36-2.3-18.72-2.3-28.08v-127.87c0-21.02-17.14-40.61-37.44-44.5-18.72-3.89-39.74,5.47-49.1,22.61-3.89,7.06-6.19,14.83-6.19,23.33v138.82c0,13.25-6.19,27.22-16.42,35.86-15.55,13.25-41.33,14.83-56.88,2.3-11.66-7.78-19.44-21.89-19.44-36.58v-140.4c0-52.99,13.25-105.98,39.02-152.78,20.3-38.16,49.1-72.58,83.38-99.79,50.69-42.05,114.62-67.1,180.86-70.99h0v-.72h0l-.29.14Z" style="fill:#5442d0;"/></svg>