<?xml version="1.0" encoding="UTF-8"?><svg id="Layer_1" xmlns="http://www.w3.org/2000/svg" width="1080" height="1080" viewBox="0 0 1080 1080"><path d="M540,0h0c298.22,0,540,241.78,540,540h0c0,298.22-241.78,540-540,540h0C241.78,1080,0,838.22,0,540h0C0,241.78,241.78,0,540,0Z"/><path d="M693.22,302.69h-102.96l-135.65,379.3h-101.66l135.65-379.3h-101.66l-170.78,474.62h306.43l33.98-96.62h170.78l33.98,96.62h102.96l-170.78-474.77h0l-.29.14ZM590.26,585.22l51.55-141.84,50.26,141.84h-101.81Z" style="fill:#fff;"/></svg>