<?xml version="1.0" encoding="UTF-8"?><svg id="Layer_1" xmlns="http://www.w3.org/2000/svg" width="1080" height="1080" xmlns:xlink="http://www.w3.org/1999/xlink" viewBox="0 0 1080 1080"><defs><linearGradient id="linear-gradient" x1="0" y1="2036" x2="1080" y2="2036" gradientTransform="translate(0 -1496)" gradientUnits="userSpaceOnUse"><stop offset="0" stop-color="#7dab00"/><stop offset=".4" stop-color="#356600"/><stop offset=".7" stop-color="#0f2800"/><stop offset="1" stop-color="#00020c"/></linearGradient><linearGradient id="linear-gradient-2" x1="551.57" y1="2573.16" x2="531.67" y2="1649.47" gradientTransform="translate(0 -1496)" gradientUnits="userSpaceOnUse"><stop offset="0" stop-color="#ffffe9"/><stop offset=".4" stop-color="#cad954"/><stop offset=".7" stop-color="#6db100"/><stop offset="1" stop-color="#f2f7eb"/></linearGradient><linearGradient id="linear-gradient-3" x1="71.05" x2="1008.95" xlink:href="#linear-gradient"/><linearGradient id="linear-gradient-4" x1="144.95" y1="2036" x2="935.05" y2="2036" xlink:href="#linear-gradient-2"/><linearGradient id="linear-gradient-5" x1="532.96" y1="2406.9" x2="541.48" y2="1957.84" gradientTransform="translate(0 -1496)" gradientUnits="userSpaceOnUse"><stop offset="0" stop-color="#7dab00"/><stop offset=".3" stop-color="#356600"/><stop offset=".6" stop-color="#0f2800"/><stop offset="1" stop-color="#00020c"/></linearGradient><linearGradient id="linear-gradient-6" x1="54" x2="1026" xlink:href="#linear-gradient"/><linearGradient id="linear-gradient-7" x1="157.74" y1="2034.58" x2="922.26" y2="2034.58" xlink:href="#linear-gradient"/><linearGradient id="linear-gradient-8" x1="-12965.34" y1="-994.18" x2="-12368.5" y2="-994.18" gradientTransform="translate(-7545.57 -9137.7) rotate(-135)" xlink:href="#linear-gradient-2"/><linearGradient id="linear-gradient-9" x1="-12966.77" y1="-1040.4" x2="-12367.08" y2="-1040.4" gradientTransform="translate(-7545.57 -9137.7) rotate(-135)" xlink:href="#linear-gradient-2"/><linearGradient id="linear-gradient-10" x1="-12968.19" y1="-1241.76" x2="-12359.98" y2="-1241.76" gradientTransform="translate(-7545.57 -9137.7) rotate(-135)" xlink:href="#linear-gradient-2"/><linearGradient id="linear-gradient-11" x1="-12968.19" y1="-1182.48" x2="-12359.98" y2="-1182.48" gradientTransform="translate(-7545.57 -9137.7) rotate(-135)" xlink:href="#linear-gradient-2"/><linearGradient id="linear-gradient-12" x1="-12965.34" y1="-996.19" x2="-12368.5" y2="-996.19" gradientTransform="translate(-7545.57 -9137.7) rotate(-135)" gradientUnits="userSpaceOnUse"><stop offset="0" stop-color="#fffb00"/><stop offset=".4" stop-color="#edff00"/><stop offset=".7" stop-color="#edff00"/><stop offset="1" stop-color="#b2f800"/></linearGradient><linearGradient id="linear-gradient-13" x1="-12966.77" y1="-1041.41" x2="-12365.65" y2="-1041.41" xlink:href="#linear-gradient-12"/><linearGradient id="linear-gradient-14" x1="-12968.19" y1="-1242.77" x2="-12358.55" y2="-1242.77" xlink:href="#linear-gradient-12"/><linearGradient id="linear-gradient-15" x1="-12968.19" y1="-1184.49" x2="-12358.55" y2="-1184.49" xlink:href="#linear-gradient-12"/></defs><circle cx="540" cy="540" r="540" style="fill:url(#linear-gradient);"/><circle cx="540" cy="540" r="500.21" style="fill:url(#linear-gradient-2);"/><circle cx="540" cy="540" r="468.95" style="fill:url(#linear-gradient-3);"/><circle cx="540" cy="540" r="419.21" style="fill:#100405;"/><circle cx="540" cy="540" r="395.05" style="fill:url(#linear-gradient-4);"/><circle cx="540" cy="540" r="370.89" style="fill:#100405;"/><circle cx="540" cy="540" r="355.26" style="fill:url(#linear-gradient-5);"/><path d="M540,1026c-65.37,0-129.32-12.79-189-38.37-58.26-24.16-109.42-59.68-154.89-103.74-44.05-44.05-79.58-96.63-103.74-154.89-25.58-59.68-38.37-123.63-38.37-189s12.79-129.32,38.37-189c24.16-58.26,59.68-109.42,103.74-154.89,44.05-44.05,96.63-79.58,154.89-103.74,59.68-25.58,123.63-38.37,189-38.37s129.32,12.79,189,38.37c58.26,24.16,109.42,59.68,154.89,103.74,44.05,44.05,79.58,96.63,103.74,154.89,25.58,59.68,38.37,123.63,38.37,189s-12.79,129.32-38.37,189c-24.16,58.26-59.68,109.42-103.74,154.89s-96.63,79.58-154.89,103.74c-59.68,25.58-123.63,38.37-189,38.37ZM540,54c-65.37,0-129.32,12.79-189,38.37-58.26,24.16-109.42,59.68-154.89,103.74-44.05,44.05-79.58,96.63-103.74,154.89-25.58,59.68-38.37,123.63-38.37,189s12.79,129.32,38.37,189c24.16,58.26,59.68,109.42,103.74,154.89s96.63,79.58,154.89,103.74c59.68,25.58,123.63,38.37,189,38.37s129.32-12.79,189-38.37c58.26-24.16,109.42-59.68,154.89-103.74,45.47-44.05,79.58-96.63,103.74-154.89,25.58-59.68,38.37-123.63,38.37-189s-12.79-129.32-38.37-189c-24.16-58.26-59.68-109.42-103.74-154.89-44.05-44.05-96.63-79.58-154.89-103.74-59.68-25.58-123.63-38.37-189-38.37Z" style="fill:url(#linear-gradient-6);"/><path d="M540,922.26c-51.16,0-102.32-9.95-149.21-29.84-45.47-19.89-86.68-46.89-122.21-82.42-35.53-35.53-62.53-76.74-82.42-122.21-19.89-46.89-29.84-96.63-29.84-149.21s9.95-102.32,29.84-149.21c19.89-45.47,46.89-86.68,82.42-122.21,35.53-35.53,76.74-62.53,122.21-82.42,46.89-19.89,96.63-29.84,149.21-29.84s102.32,9.95,149.21,29.84c45.47,19.89,86.68,46.89,122.21,82.42,35.53,35.53,62.53,76.74,82.42,122.21,19.89,46.89,29.84,96.63,29.84,149.21s-9.95,102.32-29.84,149.21c-19.89,45.47-46.89,86.68-82.42,122.21-35.53,35.53-76.74,62.53-122.21,82.42-46.89,19.89-96.63,29.84-149.21,29.84ZM540,157.74c-102.32,0-197.53,39.79-270,112.26-72.47,72.47-112.26,167.68-112.26,270s39.79,197.53,112.26,270c72.47,72.47,167.68,112.26,270,112.26s197.53-39.79,270-112.26,112.26-167.68,112.26-270-39.79-197.53-112.26-270c-72.47-72.47-167.68-112.26-270-112.26Z" style="fill:url(#linear-gradient-7);"/><path d="M818.53,663.63l-116.53-116.53v-154.89c0-5.68-2.84-11.37-7.11-15.63l-34.11-34.11c-5.68-5.68-15.63-8.53-24.16-4.26-8.53,2.84-14.21,11.37-14.21,19.89v211.74c0,5.68,2.84,11.37,7.11,15.63l132.16,132.16c4.26,4.26,9.95,7.11,15.63,7.11s11.37-2.84,15.63-7.11l24.16-24.16c8.53-8.53,8.53-22.74,0-31.26,0,0,1.42,1.42,1.42,1.42Z" style="fill:#100405;"/><path d="M622.42,595.42v-282.79c0-5.68-2.84-11.37-7.11-15.63l-34.11-34.11c-5.68-5.68-15.63-8.53-24.16-4.26-8.53,2.84-14.21,11.37-14.21,19.89v339.63c0,5.68,2.84,11.37,7.11,15.63l146.37,146.37c4.26,4.26,9.95,7.11,15.63,7.11s11.37-2.84,15.63-7.11l24.16-24.16c4.26-4.26,7.11-9.95,7.11-15.63s-2.84-11.37-7.11-15.63c0,0-129.32-129.32-129.32-129.32Z" style="fill:#100405;"/><path d="M459,571.26v-214.58c0-8.53-5.68-17.05-14.21-19.89s-17.05-1.42-24.16,4.26l-34.11,34.11c-4.26,4.26-7.11,9.95-7.11,15.63v156.32l-116.53,116.53c-8.53,8.53-8.53,22.74,0,31.26l24.16,24.16c4.26,4.26,9.95,7.11,15.63,7.11s11.37-2.84,15.63-7.11l132.16-132.16c4.26-4.26,5.68-9.95,5.68-15.63,0,0,2.84,0,2.84,0Z" style="fill:#100405;"/><path d="M525.79,257.21c-8.53-2.84-17.05-1.42-24.16,4.26l-34.11,34.11c-4.26,4.26-7.11,9.95-7.11,15.63v284.21l-129.32,129.32c-4.26,4.26-7.11,9.95-7.11,15.63s2.84,11.37,7.11,15.63l24.16,24.16c4.26,4.26,9.95,7.11,15.63,7.11s11.37-2.84,15.63-7.11l146.37-146.37c4.26-4.26,7.11-9.95,7.11-15.63v-341.05c0-8.53-5.68-17.05-14.21-19.89h0Z" style="fill:#100405;"/><path d="M784.42,699.16l17.05-17.05c1.42-1.42,1.42-4.26,0-7.11l-117.95-117.95v-166.26l-24.16-24.16c-2.84-2.84-8.53,0-8.53,2.84v201.79l127.89,127.89c1.42,1.42,4.26,1.42,5.68,0Z" style="fill:url(#linear-gradient-8);"/><path d="M717.63,761.68l17.05-17.05c1.42-1.42,1.42-4.26,0-7.11l-132.16-132.16v-294.16l-24.16-24.16c-2.84-2.84-8.53,0-8.53,2.84v329.68l140.68,140.68c1.42,1.42,4.26,1.42,7.11,0v1.42Z" style="fill:url(#linear-gradient-9);"/><path d="M403.58,558.47l-117.95,117.95c-1.42,1.42-1.42,4.26,0,7.11l17.05,17.05c1.42,1.42,4.26,1.42,7.11,0l127.89-127.89v-203.21c0-4.26-5.68-5.68-8.53-2.84l-24.16,24.16v167.68h-1.42Z" style="fill:url(#linear-gradient-10);"/><path d="M352.42,743.21l17.05,17.05c1.42,1.42,4.26,1.42,7.11,0l140.68-140.68v-331.11c0-4.26-5.68-5.68-8.53-2.84l-24.16,24.16v295.58l-132.16,132.16c-1.42,1.42-1.42,4.26,0,5.68Z" style="fill:url(#linear-gradient-11);"/><path d="M783,700.58l17.05-17.05c1.42-1.42,1.42-4.26,0-7.11l-117.95-117.95v-166.26l-24.16-24.16c-2.84-2.84-8.53,0-8.53,2.84v201.79l127.89,127.89c1.42,1.42,4.26,1.42,7.11,0h-1.42Z" style="fill:url(#linear-gradient-12);"/><path d="M717.63,761.68l17.05-17.05c1.42-1.42,1.42-4.26,0-7.11l-132.16-132.16v-292.74l-24.16-24.16c-2.84-2.84-8.53,0-8.53,2.84v329.68l140.68,140.68c1.42,1.42,4.26,1.42,7.11,0Z" style="fill:url(#linear-gradient-13);"/><path d="M402.16,558.47l-117.95,117.95c-1.42,1.42-1.42,4.26,0,7.11l17.05,17.05c1.42,1.42,4.26,1.42,7.11,0l127.89-127.89v-203.21c0-4.26-5.68-5.68-8.53-2.84l-24.16,24.16v169.11s-1.42-1.42-1.42-1.42Z" style="fill:url(#linear-gradient-14);"/><path d="M351,744.63l17.05,17.05c1.42,1.42,4.26,1.42,7.11,0l140.68-140.68v-331.11c0-4.26-5.68-5.68-8.53-2.84l-24.16,24.16v295.58l-132.16,132.16c-1.42,1.42-1.42,4.26,0,5.68Z" style="fill:url(#linear-gradient-15);"/></svg>