<?xml version="1.0" encoding="UTF-8"?><svg id="Layer_1" xmlns="http://www.w3.org/2000/svg" width="1080" height="1080" viewBox="0 0 1080 1080"><path d="M540,0h0c298.08,0,540,241.92,540,540h0c0,298.08-241.92,540-540,540h0C241.92,1080,0,838.08,0,540h0C0,241.92,241.92,0,540,0Z"/><path d="M830.88,240.48l-252,187.2,46.08-110.88,204.48-76.32h1.44Z" style="fill:#e2761b; stroke:#e2761b; stroke-linecap:round; stroke-linejoin:round;"/><path d="M249.12,240.48l249.12,188.64-44.64-112.32-205.92-76.32s1.44,0,1.44,0ZM740.16,673.92l-67.68,102.24,144,38.88,41.76-139.68-118.08-2.88h0s0,1.44,0,1.44ZM223.2,676.8l41.76,139.68,144-38.88-67.68-102.24-116.64,2.88h0l-1.44-1.44Z" style="fill:#e4761b; stroke:#e4761b; stroke-linecap:round; stroke-linejoin:round;"/><path d="M398.88,501.12l-40.32,60.48,142.56,5.76-4.32-152.64-97.92,86.4ZM681.12,501.12l-97.92-87.84-2.88,155.52,142.56-5.76-40.32-60.48s-1.44-1.44-1.44-1.44ZM407.52,777.6l84.96-41.76-73.44-57.6-11.52,99.36h0ZM587.52,735.84l86.4,41.76-11.52-99.36-73.44,57.6h-1.44Z" style="fill:#e4761b; stroke:#e4761b; stroke-linecap:round; stroke-linejoin:round;"/><path d="M672.48,777.6l-86.4-41.76,7.2,56.16v23.04l79.2-37.44h0ZM407.52,777.6l79.2,37.44v-23.04l5.76-56.16-84.96,41.76h0Z" style="fill:#d7c1b3; stroke:#d7c1b3; stroke-linecap:round; stroke-linejoin:round;"/><path d="M488.16,640.8l-72-21.6,50.4-23.04,21.6,44.64h0ZM591.84,640.8l21.6-44.64,50.4,23.04-72,21.6Z" style="fill:#233447; stroke:#233447; stroke-linecap:round; stroke-linejoin:round;"/><path d="M407.52,777.6l11.52-102.24-79.2,2.88,67.68,100.8h0v-1.44ZM660.96,673.92l11.52,102.24,67.68-100.8-79.2-2.88h0v1.44ZM721.44,561.6l-142.56,5.76,12.96,73.44,21.6-44.64,50.4,23.04,57.6-59.04v1.44ZM416.16,619.2l50.4-23.04,20.16,44.64,12.96-73.44-142.56-5.76,57.6,59.04,1.44-1.44Z" style="fill:#cd6116; stroke:#cd6116; stroke-linecap:round; stroke-linejoin:round;"/><path d="M358.56,561.6l60.48,116.64v-57.6c-1.44,0-59.04-59.04-60.48-59.04ZM663.84,619.2l-2.88,57.6,60.48-116.64-57.6,59.04h0ZM501.12,567.36l-12.96,73.44,17.28,86.4,4.32-113.76-7.2-46.08h-1.44ZM578.88,567.36l-7.2,46.08,2.88,113.76,17.28-86.4-12.96-73.44h0Z" style="fill:#e4751f; stroke:#e4751f; stroke-linecap:round; stroke-linejoin:round;"/><path d="M591.84,640.8l-17.28,86.4,11.52,8.64,73.44-57.6,2.88-57.6-72,21.6,1.44-1.44ZM417.6,620.64v57.6c1.44,0,76.32,57.6,76.32,57.6l11.52-8.64-17.28-86.4-72-21.6s1.44,1.44,1.44,1.44Z" style="fill:#f6851b; stroke:#f6851b; stroke-linecap:round; stroke-linejoin:round;"/><path d="M593.28,815.04v-23.04l-5.76-5.76h-95.04l-5.76,5.76v23.04l-79.2-37.44,27.36,23.04,56.16,38.88h96.48l56.16-38.88,27.36-23.04-79.2,37.44h1.44Z" style="fill:#c0ad9e; stroke:#c0ad9e; stroke-linecap:round; stroke-linejoin:round;"/><path d="M587.52,735.84l-11.52-8.64h-70.56l-11.52,8.64-5.76,56.16,5.76-5.76h95.04l5.76,5.76s-7.2-56.16-7.2-56.16Z" style="fill:#161616; stroke:#161616; stroke-linecap:round; stroke-linejoin:round;"/><path d="M840.96,440.64l21.6-103.68-31.68-96.48-243.36,180,93.6,79.2,132.48,38.88,28.8-34.56-12.96-8.64,20.16-18.72-15.84-11.52,20.16-15.84-12.96-10.08h0v1.44ZM217.44,336.96l21.6,103.68-14.4,10.08,20.16,15.84-15.84,11.52,20.16,18.72-12.96,8.64,28.8,34.56,132.48-38.88,93.6-79.2-243.36-180-31.68,96.48h0s1.44-1.44,1.44-1.44Z" style="fill:#763d16; stroke:#763d16; stroke-linecap:round; stroke-linejoin:round;"/><path d="M813.6,540l-132.48-38.88,40.32,60.48-60.48,116.64h197.28l-44.64-136.8s0-1.44,0-1.44ZM398.88,501.12l-132.48,38.88-44.64,136.8h195.84l-60.48-115.2,40.32-60.48h1.44ZM578.88,567.36l8.64-145.44,38.88-103.68h-171.36l37.44,103.68,8.64,145.44,2.88,46.08v113.76h70.56v-113.76l4.32-46.08h0Z" style="fill:#f6851b; stroke:#f6851b; stroke-linecap:round; stroke-linejoin:round;"/></svg>