<?xml version="1.0" encoding="UTF-8"?><svg id="Layer_1" xmlns="http://www.w3.org/2000/svg" width="1080" height="1080" viewBox="0 0 1080 1080"><circle cx="540" cy="540" r="540" style="fill:#fff;"/><path d="M810.946,240v283.76h-110.736v-120.002l-39.157,36.993-66.527,63.157-21.474,19.851h-62.317l-21.474-19.851-67.79-63.157-41.683-38.346v121.354h-110.734V240h110.736l162.528,151.126,157.892-151.126h110.736Z"/><path d="M682.105,582.407h-268.631c-25.264,0-33.684-9.021-33.684-19.398h-110.736v2.255c0,65.413,42.526,111.428,124.211,111.428h277.054c22.315,0,30.737,8.571,30.737,19.398v20.751c0,11.277-9.265,23.459-50.105,23.459h-214.739c-35.37,0-48.842-13.082-50.948-28.419h-108.63c0,36.091,17.262,128.12,156.632,128.12h217.263c117.893-.45,158.315-60.449,160.419-123.157v-26.617c0-65.413-43.369-107.82-128.841-107.82Z"/></svg>