<?xml version="1.0" encoding="UTF-8"?><svg id="Layer_1" xmlns="http://www.w3.org/2000/svg" width="1080" height="1080" xmlns:xlink="http://www.w3.org/1999/xlink" viewBox="0 0 1080 1080"><defs><linearGradient id="linear-gradient" x1="342.27" y1="788.68" x2="342.27" y2="338.05" gradientTransform="translate(0 1102) scale(1 -1)" gradientUnits="userSpaceOnUse"><stop offset="0" stop-color="#ec9a37"/><stop offset=".25" stop-color="#57be77"/><stop offset=".5" stop-color="#7094d0"/><stop offset=".78" stop-color="#e38d86"/><stop offset="1" stop-color="#7dcaeb"/></linearGradient></defs><circle cx="540" cy="540" r="540"/><path d="M346.88,335.45c-16.36,0-45,6.82-76.36,15h0c-30,8.18-61.36,17.73-79.09,24.55-8.18,2.73-13.64,9.55-15,17.73-16.36,120,20.45,207.27,65.45,264.55h0c19.09,24.55,40.91,46.36,65.45,64.09,8.18,5.45,16.36,10.91,25.91,15h0c4.09,2.73,8.18,4.09,13.64,4.09,4.09,0,9.55-2.73,13.64-4.09,9.55-4.09,17.73-9.55,25.91-15l6.82,9.55-6.82-9.55c25.91-17.73,47.73-39.55,66.82-64.09,4.09-5.45,8.18-10.91,12.27-17.73,4.09-5.45,10.91-6.82,15-2.73,5.45,4.09,6.82,10.91,2.73,15-4.09,6.82-8.18,12.27-13.64,19.09h0c-20.45,25.91-43.64,49.09-70.91,69.55-9.55,6.82-19.09,12.27-28.64,17.73-6.82,4.09-15,5.45-23.18,6.82h-2.73c-8.18-1.36-15-2.73-23.18-6.82-10.91-5.45-20.45-10.91-28.64-17.73-27.27-19.09-50.45-42.27-70.91-69.55-46.36-61.36-85.91-155.45-69.55-280.91h0c2.73-16.36,13.64-30,30-35.45h0c19.09-5.45,50.45-16.36,80.45-24.55h0c30-8.18,62.73-15,81.82-15s51.82,8.18,81.82,15h0c27.27,8.18,54.55,15,80.45,24.55h0c15,5.45,27.27,19.09,30,35.45v1.36h0c0,6.82-5.45,10.91-10.91,10.91s-10.91-4.09-10.91-9.55c-1.36-8.18-6.82-15-15-17.73-25.91-8.18-53.18-16.36-80.45-24.55-27.27-8.18-55.91-15-72.27-15Z" style="fill:url(#linear-gradient); fill-rule:evenodd;"/><path d="M266.43,615h31.36v-137.73h0l88.64,137.73h40.91v-178.64h-31.36v133.64h0l-87.27-133.64h-42.27v178.64h0ZM477.79,564.55c8.18,23.18,27.27,39.55,49.09,49.09,12.27,4.09,24.55,6.82,38.18,6.82s25.91-2.73,38.18-6.82c10.91-4.09,21.82-10.91,30-19.09,8.18-8.18,15-19.09,19.09-30,4.09-12.27,6.82-25.91,6.82-38.18,0-13.64-2.73-25.91-6.82-39.55-4.09-10.91-10.91-21.82-19.09-30-8.18-8.18-19.09-15-30-19.09-12.27-4.09-25.91-6.82-38.18-6.82s-25.91,2.73-38.18,6.82c-10.91,4.09-21.82,10.91-30,19.09s-15,19.09-19.09,30c-4.09,12.27-6.82,25.91-6.82,39.55,0,13.64,2.73,25.91,6.82,38.18h0ZM509.15,499.09c2.73-8.18,6.82-15,12.27-20.45,5.45-5.45,12.27-10.91,19.09-13.64,8.18-4.09,16.36-5.45,25.91-5.45s17.73,1.36,25.91,5.45c8.18,2.73,13.64,8.18,19.09,13.64s9.55,12.27,12.27,20.45,4.09,16.36,4.09,24.55c0,9.55-1.36,17.73-4.09,25.91-2.73,8.18-6.82,15-12.27,20.45s-12.27,10.91-19.09,13.64c-16.36,6.82-34.09,6.82-50.45,0-6.82-2.73-13.64-8.18-19.09-13.64-5.45-6.82-9.55-13.64-12.27-20.45-2.73-8.18-4.09-17.73-4.09-25.91-2.73-8.18-1.36-16.36,2.73-24.55h0ZM736.88,615h30l40.91-136.36h0l42.27,136.36h30l51.82-178.64h-32.73l-35.45,129.55h0l-39.55-129.55h-31.36l-40.91,129.55h0l-32.73-129.55h-35.45l53.18,178.64h0Z" style="fill:#57be77;"/></svg>