<?xml version="1.0" encoding="UTF-8"?><svg id="Layer_1" xmlns="http://www.w3.org/2000/svg" width="1080" height="1080" viewBox="0 0 1080 1080"><path d="M540,0h0c298.08,0,540,241.92,540,540h0c0,298.08-241.92,540-540,540h0C241.92,1080,0,838.08,0,540h0C0,241.92,241.92,0,540,0Z"/><path d="M495.36,365.76c18.72,0,38.88,1.44,57.6,2.88,17.28,0,33.12,1.44,50.4,2.88,10.08,0,21.6,0,31.68,4.32,7.2,2.88,14.4,5.76,18.72,11.52,2.88,2.88,5.76,5.76,10.08,7.2,5.76,2.88,11.52,8.64,15.84,14.4,5.76,5.76,10.08,12.96,15.84,20.16,0,0,0,1.44,1.44,1.44,0,0,0,2.88,2.88,4.32,0,2.88,2.88,5.76,4.32,7.2,0,2.88,2.88,5.76,4.32,8.64v2.88c5.76,10.08,10.08,21.6,14.4,33.12,2.88,8.64,5.76,18.72,8.64,27.36,2.88,10.08,5.76,20.16,8.64,31.68,0,4.32,1.44,8.64,4.32,12.96v4.32c2.88,5.76,2.88,11.52,4.32,17.28,0,4.32,1.44,8.64,2.88,11.52h0v17.28h0v5.76c0,4.32,1.44,8.64,2.88,12.96,0,2.88,1.44,4.32,1.44,7.2,0,4.32,0,8.64,1.44,14.4,0,5.76,1.44,11.52,2.88,17.28,0,5.76,2.88,11.52,2.88,18.72h0v1.44c0,7.2,1.44,12.96,1.44,20.16,0,10.08-5.76,17.28-12.96,23.04-8.64,5.76-18.72,8.64-28.8,10.08-8.64,1.44-17.28,2.88-27.36,4.32-20.16,2.88-41.76,5.76-61.92,8.64-25.92,2.88-53.28,5.76-79.2,7.2-30.24,1.44-60.48,2.88-92.16,2.88-25.92,0-51.84,0-77.76-2.88-18.72,0-36-2.88-54.72-4.32-17.28-1.44-34.56-4.32-51.84-5.76-11.52-1.44-24.48-2.88-36-5.76-12.96-2.88-25.92-7.2-36-15.84-10.08-8.64-14.4-18.72-12.96-31.68,0-8.64,2.88-17.28,4.32-25.92,2.88-18.72,7.2-38.88,11.52-57.6,2.88-15.84,7.2-31.68,11.52-46.08,5.76-24.48,12.96-47.52,21.6-70.56,2.88-5.76,4.32-12.96,7.2-18.72,1.44,1.44,1.44,4.32,2.88,7.2v1.44c-1.44,5.76-4.32,11.52-5.76,17.28-4.32,10.08-7.2,21.6-10.08,33.12-4.32,14.4-7.2,27.36-11.52,41.76-2.88,11.52-5.76,23.04-8.64,33.12-1.44,7.2-2.88,12.96-4.32,20.16s-2.88,15.84-4.32,23.04c-1.44,10.08-4.32,20.16-5.76,31.68,0,7.2-2.88,12.96,0,20.16,1.44,8.64,5.76,17.28,14.4,23.04s17.28,10.08,27.36,11.52c10.08,2.88,20.16,2.88,30.24,5.76,8.64,0,18.72,2.88,27.36,4.32,7.2,0,12.96,1.44,20.16,2.88,7.2,0,12.96,0,20.16,1.44,8.64,0,18.72,1.44,27.36,2.88h208.8c8.64,0,17.28,0,25.92-1.44,10.08,0,20.16-1.44,30.24-2.88,5.76,0,12.96,0,18.72-2.88,7.2,0,15.84-2.88,23.04-2.88,8.64,0,15.84-2.88,24.48-4.32,5.76,0,12.96-1.44,18.72-2.88,11.52-1.44,21.6-4.32,31.68-10.08,8.64-4.32,14.4-11.52,12.96-21.6v-14.4c0-10.08-2.88-18.72-4.32-28.8-2.88-12.96-4.32-25.92-7.2-38.88-2.88-12.96-5.76-25.92-8.64-38.88,0-5.76-2.88-11.52-4.32-15.84-1.44-8.64-4.32-17.28-5.76-25.92-2.88-10.08-5.76-20.16-8.64-30.24-2.88-8.64-5.76-15.84-8.64-24.48-4.32-12.96-10.08-25.92-17.28-37.44-4.32-7.2-7.2-12.96-11.52-18.72-5.76-8.64-11.52-15.84-18.72-23.04-2.88-2.88-7.2-5.76-10.08-8.64h-1.44c0,2.88-2.88,2.88-4.32,4.32h0c-4.32,1.44-8.64,2.88-12.96,4.32-14.4,2.88-30.24,2.88-44.64,4.32h-218.88c-10.08,0-20.16,0-30.24-2.88-5.76,0-10.08-1.44-14.4-4.32-1.44,0-2.88-2.88-2.88-5.76s0-1.44-2.88,0c-7.2,2.88-12.96,7.2-18.72,11.52-1.44,1.44-4.32,2.88-5.76,4.32h1.44-7.2s1.44-1.44,1.44-2.88c0,0,1.44,0,1.44-1.44,2.88-4.32,7.2-7.2,11.52-10.08,5.76-4.32,12.96-7.2,20.16-10.08h1.44c5.76-8.64,14.4-11.52,24.48-14.4,10.08-1.44,18.72-2.88,28.8-2.88,18.72-1.44,37.44-2.88,56.16-4.32h37.44v4.32h-40.32c-11.52,0-21.6,0-33.12,1.44h-14.4c-10.08,0-18.72,1.44-28.8,2.88-7.2,0-12.96,2.88-18.72,7.2-4.32,2.88-5.76,7.2-8.64,11.52v2.88c2.88,0,5.76,1.44,10.08,2.88,12.96,2.88,25.92,2.88,38.88,4.32h207.36c11.52,0,23.04,0,34.56-2.88,7.2,0,12.96-1.44,20.16-2.88,2.88,0,4.32,0,7.2-2.88v-2.88c-2.88-5.76-7.2-10.08-14.4-12.96h-1.44c-7.2-2.88-12.96-4.32-20.16-4.32-8.64,0-18.72-1.44-27.36-1.44-11.52,0-23.04,0-36-1.44h-60.48v-5.76l2.88-8.64h0ZM747.36,581.76v1.44-2.88,1.44Z" style="fill:#885c32;"/><path d="M495.36,365.76v11.52c0,2.88-1.44,4.75-4.32,5.76-4.32,1.44-8.64,0-10.08-2.88v-27.36c0-1.01-.43-1.44-1.44-1.44-12.96,0-25.92-2.88-38.88-5.76-7.2-1.44-14.4-4.32-20.16-7.2-1.44,0-2.88-2.88-4.32-4.32-4.32-5.76-4.32-12.96,1.44-17.28,5.76-4.32,11.52-5.76,18.72-7.2,15.84-1.44,30.24,2.88,43.2,11.52,2.88,1.44,4.32,4.32,7.2,8.64,2.88-5.76,7.2-10.08,12.96-12.96,7.2-4.32,14.4-7.2,23.04-10.08,5.76-1.44,11.52-2.88,15.84-2.88,8.64,0,14.4,4.32,15.84,12.96,0,4.32,0,7.2-4.32,10.08-4.32,5.76-11.52,10.08-18.72,12.96-11.52,5.76-24.48,8.64-38.88,10.08h-1.44v15.84s4.32,0,4.32,0ZM491.04,334.08h0c8.64-7.2,18.72-11.52,30.24-14.4,4.32,0,7.2-2.88,11.52-2.88,1.44,0,2.88,0,2.88,2.88,0,1.44,0,2.88-2.88,2.88h-4.32c-10.08,2.88-20.16,5.76-30.24,11.52-4.32,2.88-7.2,4.32-10.08,8.64h7.2c7.2,0,12.96-1.44,20.16-4.32,5.76-1.44,10.08-2.88,14.4-5.76,5.76-2.88,11.52-5.76,17.28-11.52,2.88-4.32,2.88-8.64,0-11.52s-7.2-2.88-11.52-2.88c-7.2,0-12.96,2.88-18.72,4.32-8.64,2.88-15.84,7.2-21.6,14.4-1.44,2.88-4.32,5.76-4.32,8.64h0ZM485.28,335.52v-4.32c-2.88-5.76-8.64-10.08-15.84-12.96-8.64-4.32-18.72-7.2-28.8-5.76-5.76,0-12.96,2.88-17.28,5.76s-4.32,7.2-1.44,10.08c0,0,2.88,2.88,4.32,2.88,8.64,5.76,20.16,7.2,30.24,8.64,5.76,0,10.08,0,15.84,1.44h15.84c-7.2-8.64-17.28-11.52-27.36-14.4-7.2-1.44-14.4-2.88-21.6-1.44-1.87,0-2.88-1.01-2.88-2.88s1.01-2.88,2.88-2.88h15.84c11.52,1.44,23.04,5.76,31.68,12.96,0,0-1.44,2.88-1.44,2.88ZM486.72,370.08v5.76s0,1.44,1.44,1.44,1.44,0,1.44-1.44v-12.96s-1.44,0-1.44,1.44v5.76h-1.44Z" style="fill:#10532c;"/><path d="M699.84,433.44c-2.88,0-1.44-2.88-2.88-4.32,5.76-5.76,11.52-10.08,17.28-15.84,8.64-7.2,15.84-14.4,25.92-20.16,7.2-4.32,15.84-8.64,24.48-11.52s17.28-2.88,25.92,0c12.96,2.88,23.04,8.64,34.56,14.4,21.6,12.96,41.76,27.36,59.04,43.2,15.84,12.96,30.24,27.36,41.76,43.2,4.32,4.32,7.2,8.64,10.08,14.4,4.32,7.2,5.76,15.84,5.76,24.48,0,10.08-1.44,21.6-4.32,31.68-4.32,20.16-11.52,40.32-18.72,60.48-4.32,12.96-10.08,24.48-15.84,37.44h0s-2.88,1.44-2.88,2.88c0,0-1.44,2.88-4.32,2.88,0-2.88,2.88-5.76,4.32-8.64,7.2-14.4,12.96-28.8,18.72-44.64,2.88-10.08,7.2-18.72,10.08-28.8,2.88-11.52,5.76-23.04,8.64-36,0-7.2,1.44-15.84,1.44-24.48,0-5.76-2.88-11.52-5.76-17.28-7.2-10.08-15.84-20.16-24.48-28.8-10.08-10.08-20.16-18.72-30.24-28.8-8.64-7.2-17.28-14.4-25.92-21.6-8.64-7.2-18.72-12.96-28.8-18.72-11.52-7.2-24.48-12.96-38.88-15.84h-11.52c-8.64,1.44-17.28,5.76-24.48,10.08-14.4,8.64-27.36,18.72-38.88,30.24-2.88,2.88-5.76,4.32-8.64,7.2,0,0-1.44,2.88-1.44,2.88Z" style="fill:#77583f;"/><path d="M298.08,411.84l-1.44,2.88h7.2c5.76,0,10.08-1.44,14.4-4.32,7.2-2.88,14.4,0,18.72,4.32,4.32,5.76,5.76,12.96,5.76,20.16,0,8.64-2.88,15.84-4.32,24.48-2.88,11.52-5.76,23.04-8.64,34.56,0,1.44,0,4.32-2.88,5.76h-5.76c0-2.88,1.44-5.76,2.88-8.64,2.88-8.64,5.76-17.28,7.2-25.92s2.88-17.28,4.32-25.92c0-4.32,1.44-8.64,0-12.96-1.44-7.2-8.64-14.4-18.72-10.08-5.76,2.88-12.96,4.32-20.16,2.88-12.96-2.88-24.48-8.64-33.12-18.72l-8.64-8.64c-4.32-4.32-8.64-4.32-12.96-1.44-7.2,2.88-12.96,7.2-18.72,12.96-2.88,2.88-5.76,4.32-8.64,7.2v2.88c1.44,0,4.32,1.44,5.76,2.88h-7.2c-4.32-2.88-5.76-7.2-2.88-10.08,10.08-7.2,18.72-15.84,30.24-21.6,8.64-4.32,14.4-1.44,21.6,4.32l12.96,12.96c5.76,4.32,11.52,7.2,18.72,10.08,1.87,0,3.31-.43,4.32-1.44v1.44h0Z" style="fill:#77583f;"/><path d="M213.12,417.6h10.08l1.44,1.44c2.88,1.44,4.32,4.32,7.2,5.76,5.76,7.2,11.52,14.4,15.84,21.6,4.32,8.64,8.64,17.28,12.96,25.92,2.88,5.76,4.32,12.96,7.2,18.72,2.88,8.64,5.76,15.84,8.64,24.48,1.44,4.32,4.32,8.64,5.76,12.96,0,0,1.44,2.88,4.32,2.88,7.2,0,14.4-1.44,18.72-7.2,5.76-5.76,8.64-11.52,12.96-18.72,0-1.44,1.44-2.88,1.44-4.32h5.76v1.44c-2.88,8.64-7.2,15.84-12.96,23.04s-14.4,12.96-24.48,11.52c-2.88,0-5.76,0-7.2-2.88-2.88-4.32-5.76-8.64-7.2-12.96-5.76-11.52-8.64-24.48-12.96-36,0-1.44,0-4.32-2.88-7.2v-2.88c-5.76-15.84-14.4-30.24-24.48-43.2-4.32-5.76-10.08-10.08-17.28-12.96h-1.44l-1.44-1.44h0Z" style="fill:#654832;"/><path d="M892.8,656.64c1.44,0,2.88-1.44,4.32-2.88,0,0,2.88-1.44,2.88-2.88h0c-7.2,14.4-14.4,27.36-25.92,38.88-7.2,7.2-15.84,11.52-25.92,12.96-11.52,1.44-23.04,0-34.56-2.88-11.52-2.88-21.6-7.2-31.68-10.08-4.32,0-7.2-2.88-11.52-2.88v-1.44h0c0-2.88,1.01-3.89,2.88-2.88,4.32,0,8.64,2.88,12.96,4.32,10.08,2.88,20.16,7.2,30.24,10.08,7.2,1.44,15.84,4.32,23.04,4.32h10.08c8.64,0,15.84-4.32,21.6-10.08,7.2-7.2,12.96-14.4,17.28-23.04,0-1.44,2.88-2.88,2.88-5.76h0l1.44-5.76h0Z" style="fill:#654832;"/><path d="M299.52,410.4s0,1.44-1.44,1.44h0l1.44-1.44Z" style="fill:#77583f;"/><path d="M378.72,411.84h217.44c14.4,0,30.24-1.44,44.64-4.32,4.32,0,8.64-1.44,12.96-4.32h0v2.88c8.64,10.08,15.84,23.04,21.6,34.56,4.32,7.2,7.2,15.84,11.52,23.04,4.32,10.08,8.64,21.6,11.52,33.12,2.88,10.08,5.76,21.6,8.64,31.68,1.44,7.2,2.88,15.84,4.32,23.04,1.44,8.64,2.88,15.84,2.88,24.48,0,7.2,0,14.4,1.44,21.6v27.36c0,5.76,0,11.52-2.88,17.28-1.44,7.2-4.32,14.4-7.2,21.6-2.88,8.64-7.2,15.84-11.52,23.04-5.76,7.2-11.52,14.4-18.72,20.16-5.76,4.32-12.96,8.64-20.16,11.52-12.96,4.32-24.48,7.2-37.44,8.64-8.64,1.44-17.28,2.88-27.36,2.88-7.2,0-14.4,1.44-21.6,2.88-8.64,0-15.84,0-24.48,1.44h-67.68c-8.64,0-17.28,0-25.92-1.44h-10.08c-7.2,0-14.4-1.44-21.6-2.88-12.96-2.88-25.92-5.76-37.44-11.52-7.2-4.32-14.4-8.64-20.16-14.4-4.32-4.32-8.64-8.64-11.52-12.96-5.76-7.2-10.08-14.4-12.96-21.6-2.88-5.76-4.32-11.52-7.2-17.28-1.44-5.76-2.88-11.52-4.32-17.28-1.44-8.64-2.88-18.72-4.32-27.36,0-7.2-1.44-14.4,0-21.6,0-8.64,1.44-18.72,2.88-27.36,0-10.08,2.88-20.16,4.32-30.24,0-5.76,2.88-11.52,4.32-17.28,1.44-8.64,4.32-17.28,7.2-25.92,2.88-8.64,5.76-15.84,8.64-24.48,2.88-5.76,5.76-12.96,8.64-18.72,1.44-2.88,4.32-7.2,5.76-11.52,5.76,0,10.08,1.44,15.84,2.88,5.76,0,12.96,1.44,20.16,1.44,11.52,0,23.04,1.44,34.56,2.88,10.08,0,21.6,0,31.68,1.44h77.76c8.64,0,18.72,0,27.36-1.44h14.4c7.2,0,14.4,0,21.6-1.44,7.2,0,14.4-1.44,20.16-1.44h8.64c5.76,0,11.52-1.44,17.28-2.88,2.88,0,5.76,0,8.64-2.88v-4.32c-2.88,0-5.76-1.44-8.64-1.44h-11.52c-8.64,0-18.72,0-27.36,1.44h-20.16c-11.52,0-24.48,0-36,1.44h-76.32c-14.4,0-28.8,0-43.2-1.44h-14.4c-10.08,0-18.72,0-28.8-1.44h-24.48c0-2.88,2.88-4.32,4.32-5.76,0-1.44,2.88-2.88,2.88-4.32,0,0,1.44-1.44,1.44-1.44Z" style="fill:#f4a04b;"/><path d="M378.72,411.84c0,1.44-1.44,2.88-2.88,4.32,0,1.44-2.88,2.88-4.32,5.76h-2.88c-1.44,0-4.32,0-5.76,1.44,0,0-2.88,1.44-2.88,2.88s1.44,1.44,2.88,2.88h1.44c-1.44,4.32-4.32,7.2-5.76,11.52-2.88,5.76-5.76,12.96-8.64,18.72-2.88,7.2-5.76,15.84-8.64,24.48-2.88,8.64-5.76,17.28-7.2,25.92-1.44,5.76-2.88,11.52-4.32,17.28-1.44,10.08-4.32,20.16-4.32,30.24,0,8.64-1.44,18.72-2.88,27.36v21.6c0,8.64,1.44,18.72,4.32,27.36,0,5.76,2.88,11.52,4.32,17.28,1.44,5.76,4.32,11.52,7.2,17.28,2.88,7.2,7.2,15.84,12.96,21.6,2.88,4.32,7.2,8.64,11.52,12.96,5.76,5.76,12.96,10.08,20.16,14.4,11.52,5.76,24.48,10.08,37.44,11.52,7.2,0,14.4,2.88,21.6,2.88h10.08c8.64,0,17.28,0,25.92,1.44h67.68c8.64,0,15.84,0,24.48-1.44,7.2,0,14.4-1.44,21.6-2.88,8.64,0,17.28-1.44,27.36-2.88,12.96-2.88,25.92-4.32,37.44-8.64,7.2-2.88,14.4-7.2,20.16-11.52,7.2-5.76,12.96-12.96,18.72-20.16,4.32-7.2,8.64-14.4,11.52-23.04,2.88-7.2,4.32-14.4,7.2-21.6,0-5.76,1.44-11.52,2.88-17.28,0-8.64,1.44-17.28,0-27.36,0-7.2,0-14.4-1.44-21.6,0-8.64-1.44-15.84-2.88-24.48,0-7.2-2.88-15.84-4.32-23.04-2.88-10.08-5.76-21.6-8.64-31.68-2.88-11.52-7.2-21.6-11.52-33.12-2.88-7.2-7.2-15.84-11.52-23.04-5.76-11.52-12.96-24.48-21.6-34.56v-2.88c0-1.44,2.88-2.88,4.32-4.32h1.44c4.32,2.88,7.2,5.76,10.08,8.64,7.2,7.2,12.96,14.4,18.72,23.04,4.32,5.76,8.64,12.96,11.52,18.72,7.2,11.52,12.96,24.48,17.28,37.44,2.88,8.64,5.76,15.84,8.64,24.48,2.88,10.08,5.76,20.16,8.64,30.24,2.88,8.64,4.32,17.28,5.76,25.92,0,5.76,2.88,11.52,4.32,15.84,2.88,12.96,5.76,25.92,8.64,38.88,2.88,12.96,4.32,25.92,7.2,38.88,1.44,10.08,2.88,18.72,4.32,28.8v14.4c0,10.08-5.76,17.28-12.96,21.6-10.08,5.76-21.6,7.2-31.68,10.08-5.76,0-11.52,2.88-18.72,2.88-8.64,0-15.84,2.88-24.48,4.32-7.2,0-15.84,2.88-23.04,2.88-5.76,0-12.96,1.44-18.72,2.88-10.08,0-20.16,1.44-30.24,2.88-8.64,0-17.28,1.44-25.92,1.44h-208.8c-8.64,0-18.72,0-27.36-2.88-7.2,0-12.96,0-20.16-1.44-7.2,0-12.96-1.44-20.16-2.88-8.64,0-18.72-2.88-27.36-4.32-10.08-1.44-20.16-2.88-30.24-5.76-10.08-2.88-18.72-5.76-27.36-11.52-7.2-5.76-11.52-12.96-14.4-23.04v-20.16c1.44-10.08,4.32-20.16,5.76-31.68,1.44-7.2,2.88-15.84,4.32-23.04,0-7.2,2.88-12.96,4.32-20.16,2.88-11.52,5.76-23.04,8.64-33.12,2.88-14.4,7.2-27.36,11.52-41.76,2.88-11.52,7.2-21.6,10.08-33.12,1.44-5.76,4.32-11.52,5.76-17.28v-1.44c4.32,11.52,8.64,24.48,12.96,36,1.44,4.32,4.32,8.64,7.2,12.96,1.44,2.88,4.32,2.88,7.2,2.88,10.08,0,17.28-4.32,24.48-11.52,5.76-7.2,10.08-14.4,12.96-23.04v-1.44c0-1.44,1.44-2.88,2.88-5.76,4.32-11.52,7.2-23.04,8.64-34.56,1.44-8.64,2.88-15.84,4.32-24.48,0-7.2,0-14.4-5.76-20.16-4.32-5.76-11.52-7.2-18.72-4.32-4.32,1.44-10.08,4.32-14.4,4.32h-1.44c0-1.44,2.88-2.88,5.76-4.32,5.76-4.32,11.52-8.64,18.72-11.52,0,0,2.88-1.44,2.88,0s0,4.32,2.88,5.76c4.32,2.88,10.08,2.88,14.4,4.32,10.08,1.44,20.16,2.88,30.24,2.88h0l8.64,5.76h0Z" style="fill:#cf8740;"/><path d="M892.8,656.64h0c-4.32,2.88-7.2,5.76-11.52,8.64-5.76,4.32-12.96,8.64-20.16,11.52-2.88,0-5.76,1.44-8.64,1.44-7.2,0-14.4-1.44-21.6-2.88-12.96-4.32-27.36-8.64-38.88-15.84-4.32-1.44-7.2-4.32-10.08-7.2-4.32-4.32-7.2-10.08-10.08-17.28-2.88-4.32-4.32-10.08-5.76-14.4s-2.88-7.2-4.32-11.52h2.88c11.52-2.88,23.04-5.76,34.56-5.76h43.2c1.44,0,2.88,0,2.88-4.32,2.88-1.44,4.32-5.76,5.76-8.64,5.76-11.52,11.52-24.48,14.4-37.44,1.44-7.2,4.32-14.4,2.88-23.04-1.44-10.08-4.32-18.72-7.2-27.36-4.32-11.52-8.64-23.04-14.4-34.56-2.88-4.32-4.32-10.08-7.2-14.4,0,0,0-2.88-1.44-4.32-2.88-4.32-4.32-10.08-7.2-12.96,0,0,0-2.88-2.88-2.88-1.44-2.88-5.76-4.32-8.64-4.32-8.64,0-17.28,0-25.92,4.32-8.64,2.88-17.28,7.2-24.48,12.96-5.76,4.32-11.52,8.64-14.4,15.84v4.32s2.88,0,4.32-1.44c1.44-2.88,2.88-5.76,5.76-7.2,4.32-4.32,10.08-8.64,15.84-11.52,8.64-4.32,17.28-8.64,27.36-10.08,5.76,0,10.08-1.44,15.84,0h0c0,4.32,2.88,8.64,2.88,12.96,2.88,10.08,4.32,18.72,5.76,28.8,0,10.08,0,21.6-4.32,31.68-2.88,5.76-5.76,10.08-11.52,12.96-2.88,1.44-7.2,4.32-10.08,5.76-8.64,4.32-15.84,8.64-24.48,11.52-10.08,5.76-21.6,10.08-31.68,15.84-1.44-4.32-2.88-8.64-4.32-12.96-2.88-10.08-5.76-20.16-8.64-31.68-2.88-8.64-5.76-18.72-8.64-27.36-4.32-11.52-8.64-21.6-14.4-33.12v-2.88c4.32,0,8.64-2.88,11.52-4.32,14.4-7.2,27.36-17.28,38.88-30.24,2.88-4.32,5.76-7.2,7.2-12.96,0-2.88,0-4.32-2.88-4.32-4.32,0-8.64,1.44-11.52,2.88-8.64,4.32-15.84,8.64-24.48,14.4-7.2,5.76-12.96,10.08-18.72,17.28-2.88,2.88-4.32,5.76-5.76,8.64-1.44-1.44-4.32-4.32-4.32-7.2,2.88-2.88,5.76-5.76,8.64-7.2,11.52-11.52,24.48-21.6,38.88-30.24,7.2-4.32,15.84-8.64,24.48-10.08h11.52c14.4,2.88,25.92,8.64,38.88,15.84,10.08,5.76,18.72,11.52,28.8,18.72,8.64,7.2,17.28,14.4,25.92,21.6,10.08,8.64,20.16,18.72,30.24,28.8,8.64,8.64,17.28,18.72,24.48,28.8,2.88,5.76,5.76,10.08,5.76,17.28,0,8.64,0,15.84-1.44,24.48-1.44,11.52-4.32,23.04-8.64,36-2.88,10.08-5.76,20.16-10.08,28.8-5.76,15.84-11.52,30.24-18.72,44.64,0,2.88-2.88,5.76-4.32,8.64,0,0-5.76-1.44-5.76-1.44ZM802.08,624.96c8.64,0,17.28,0,25.92-2.88,4.32,0,8.64-1.44,11.52-4.32s2.88-4.32,0-5.76c-1.44,0-2.88-1.44-5.76-2.88-5.76-1.44-12.96-2.88-18.72-2.88-10.08,0-18.72,0-28.8,2.88-4.32,0-8.64,1.44-12.96,4.32-2.88,1.44-2.88,4.32,0,5.76,1.44,0,4.32,1.44,5.76,2.88,7.2,1.44,14.4,2.88,23.04,2.88ZM809.28,443.52h-11.52c-5.76,0-11.52,2.88-15.84,5.76,0,0-1.44,1.44-1.44,2.88,0,0,1.44,1.44,2.88,1.44h8.64c5.76,0,12.96-1.44,18.72-4.32,2.88,0,5.76-1.44,8.64-4.32,1.44-1.44,0-2.88,0-4.32h-7.2s-2.88,2.88-2.88,2.88Z" style="fill:#a3744c;"/><path d="M480.96,378.72c0,2.88,5.76,5.76,10.08,2.88,2.88-1.44,4.32-2.88,4.32-5.76v-5.76h60.48c11.52,0,23.04,0,36,1.44,8.64,0,18.72,0,27.36,1.44,7.2,0,14.4,2.88,20.16,4.32h1.44c0,1.44-2.88,2.88-5.76,2.88-7.2,2.88-15.84,2.88-23.04,4.32h-218.88c-10.08,0-18.72,0-28.8-1.44-4.32,0-10.08,0-14.4-2.88-1.44,0-4.32,0-4.32-2.88,5.76-4.32,11.52-5.76,18.72-7.2,10.08-1.44,18.72-2.88,28.8-2.88h14.4c11.52,0,21.6-1.44,33.12-1.44h37.44c2.88,0,4.32,1.44,4.32,4.32v2.88s-1.44,5.76-1.44,5.76Z" style="fill:#f4a04b;"/><path d="M344.16,385.92c0,1.44,2.88,1.44,4.32,2.88,4.32,1.44,10.08,1.44,14.4,2.88,10.08,0,18.72,0,28.8,1.44h218.88c8.64,0,15.84,0,23.04-4.32,1.44,0,4.32-1.44,5.76-2.88,5.76,2.88,11.52,5.76,14.4,12.96v2.88c-1.44,1.44-4.32,1.44-7.2,2.88-5.76,1.44-12.96,2.88-20.16,2.88-11.52,0-23.04,1.44-34.56,2.88h-207.36c-12.96,0-25.92-1.44-38.88-4.32-2.88,0-7.2,0-10.08-2.88-1.44,0-2.88-1.44,0-2.88,2.88-4.32,4.32-7.2,8.64-10.08,0,0,0-4.32,0-4.32Z" style="fill:#cf8740;"/><path d="M745.92,557.28c10.08-5.76,21.6-10.08,31.68-15.84,8.64-4.32,15.84-8.64,24.48-11.52,4.32-1.44,7.2-2.88,10.08-5.76,5.76-2.88,8.64-7.2,11.52-12.96,4.32-10.08,4.32-20.16,4.32-31.68,0-10.08-2.88-18.72-5.76-28.8,0-4.32-2.88-8.64-2.88-12.96,0,0,1.44,0,2.88,1.44,2.88,4.32,4.32,8.64,7.2,12.96,2.88,5.76,4.32,12.96,7.2,18.72,2.88,10.08,5.76,21.6,8.64,31.68s4.32,18.72,5.76,28.8c0,2.88,0,4.32-2.88,7.2-7.2,5.76-15.84,10.08-24.48,15.84-8.64,5.76-18.72,10.08-28.8,15.84-7.2,4.32-14.4,7.2-21.6,11.52-7.2,2.88-14.4,7.2-20.16,10.08,0-4.32-1.44-8.64-2.88-11.52-1.44-5.76-1.44-11.52-4.32-17.28v-5.76h0Z" style="fill:#805838;"/><path d="M760.32,612c0,4.32,2.88,7.2,4.32,11.52,1.44,4.32,4.32,10.08,5.76,14.4,2.88,5.76,5.76,11.52,10.08,17.28,2.88,2.88,5.76,5.76,10.08,7.2,12.96,7.2,25.92,11.52,38.88,15.84,7.2,1.44,14.4,2.88,21.6,2.88,2.88,0,5.76,0,8.64-1.44,7.2-2.88,14.4-7.2,20.16-11.52,4.32-2.88,7.2-5.76,11.52-8.64,0,2.88-1.44,4.32-2.88,5.76-4.32,8.64-10.08,15.84-17.28,23.04-5.76,5.76-12.96,10.08-21.6,10.08h-10.08c-7.2,0-15.84-1.44-23.04-4.32-10.08-2.88-20.16-7.2-30.24-10.08-4.32,0-8.64-2.88-12.96-4.32-1.87,0-2.88.43-2.88,1.44h0c0-5.76,0-11.52-2.88-18.72,0-5.76-1.44-11.52-2.88-17.28,0-4.32-1.44-8.64-1.44-14.4,0-2.88,0-4.32-1.44-7.2,0-4.32-1.44-8.64-2.88-12.96v-2.88h1.44v4.32h0Z" style="fill:#805838;"/><path d="M760.32,612h-1.44v-2.88h0v-2.88h2.88c14.4-4.32,28.8-5.76,44.64-7.2,0,0,1.44,0,2.88-1.44,2.88-5.76,4.32-10.08,5.76-15.84v-11.52s0-1.44-2.88,0c-10.08,5.76-21.6,11.52-33.12,17.28-7.2,2.88-14.4,7.2-20.16,10.08v-4.32h0c7.2-4.32,14.4-7.2,20.16-10.08,7.2-4.32,14.4-7.2,21.6-11.52,10.08-5.76,18.72-10.08,28.8-15.84,8.64-4.32,15.84-10.08,24.48-15.84,2.88-1.44,2.88-2.88,2.88-7.2-1.44-10.08-4.32-20.16-5.76-28.8-2.88-10.08-5.76-21.6-8.64-31.68-1.44-7.2-4.32-12.96-7.2-18.72-1.44-4.32-4.32-8.64-7.2-12.96,0,0,0-1.44-2.88-1.44h0c0-1.44,0,0,1.44,0h4.32c1.44,0,1.44,2.88,2.88,2.88,2.88,4.32,4.32,8.64,7.2,12.96,0,0,0,2.88,1.44,4.32h0c1.44,5.76,4.32,11.52,5.76,15.84,2.88,10.08,5.76,21.6,8.64,31.68,1.44,8.64,4.32,18.72,5.76,28.8,0,2.88,0,4.32-2.88,5.76,0,0-2.88,2.88-4.32,2.88-4.32,2.88-8.64,5.76-12.96,8.64-7.2,4.32-14.4,8.64-21.6,12.96,0,0-1.44,0,0,2.88s2.88,7.2,2.88,11.52c0,5.76-1.44,11.52-4.32,17.28v2.88h28.8c0,2.88,0,4.32-2.88,4.32h-43.2c-11.52,0-23.04,2.88-34.56,5.76h-2.88l-4.32,1.44h0Z" style="fill:#654832;"/><path d="M704.16,442.08c1.44-2.88,4.32-5.76,5.76-8.64,5.76-5.76,11.52-11.52,18.72-17.28s15.84-11.52,24.48-14.4c4.32-1.44,7.2-2.88,11.52-2.88,2.88,0,4.32,1.44,2.88,4.32,0,4.32-4.32,8.64-7.2,12.96-11.52,12.96-24.48,23.04-38.88,30.24-4.32,1.44-7.2,2.88-11.52,4.32-1.44-2.88-4.32-5.76-4.32-8.64h-1.44Z" style="fill:#d2baa7;"/><path d="M480.96,378.72v-2.88c0-2.88-1.44-4.32-4.32-4.32h-12.96,15.84v8.64s1.44-1.44,1.44-1.44Z" style="fill:#a3744c;"/><path d="M485.28,335.52c-10.08-7.2-20.16-11.52-31.68-12.96h-15.84c-1.87,0-2.88,1.01-2.88,2.88s1.01,2.88,2.88,2.88c7.2,0,14.4,0,21.6,1.44,10.08,2.88,20.16,5.76,27.36,14.4h-15.84c-5.76,0-10.08,0-15.84-1.44-10.08,0-20.16-2.88-30.24-8.64-1.44,0-2.88-2.88-4.32-2.88-2.88-2.88-2.88-8.64,1.44-10.08,5.76-2.88,11.52-5.76,17.28-5.76,10.08,0,20.16,0,28.8,5.76,5.76,2.88,11.52,5.76,15.84,12.96v4.32s1.44-2.88,1.44-2.88ZM442.08,319.68h10.08l-1.44-1.44c-5.76-1.44-11.52-1.44-17.28,0h-1.44,10.08s0,1.44,0,1.44Z" style="fill:#216d42;"/><path d="M491.04,334.08c0-2.88,2.88-5.76,4.32-8.64,5.76-7.2,12.96-11.52,21.6-14.4,5.76-2.88,12.96-4.32,18.72-4.32,4.32,0,8.64,0,11.52,2.88,2.88,4.32,4.32,8.64,0,11.52-4.32,5.76-10.08,8.64-17.28,11.52-4.32,2.88-10.08,4.32-14.4,5.76-7.2,1.44-12.96,2.88-20.16,4.32h-7.2c2.88-4.32,5.76-7.2,10.08-8.64,8.64-5.76,18.72-10.08,30.24-11.52h4.32c1.44,0,2.88,0,2.88-2.88,0-1.44,0-2.88-2.88-2.88-4.32,0-8.64,0-11.52,2.88-11.52,2.88-21.6,7.2-30.24,14.4h0ZM534.24,309.6c-4.32,0-10.08,1.44-14.4,4.32,0,0-1.44,0-1.44,2.88h2.88c4.32,0,8.64,0,12.96-2.88,0,0,2.88,0,2.88-2.88,0-1.44-2.88,0-4.32,0,0,0,1.44-1.44,1.44-1.44Z" style="fill:#216d42;"/><path d="M486.72,370.08v-5.76s0-1.44,1.44-1.44v12.96s0,1.44-1.44,1.44c0,0-1.44,0-1.44-1.44v-5.76h1.44Z" style="fill:#216d42;"/><path d="M322.56,501.12h-10.08c-8.64,0-15.84-2.88-21.6-8.64s-10.08-12.96-14.4-20.16c-5.76-10.08-11.52-21.6-17.28-31.68-4.32-8.64-10.08-15.84-18.72-20.16-4.32-2.88-10.08-4.32-15.84-5.76h-2.88c-1.44-1.44-4.32-1.44-5.76-2.88v-2.88c2.88-2.88,5.76-4.32,8.64-7.2,5.76-4.32,11.52-8.64,18.72-12.96,5.76-2.88,8.64-2.88,12.96,1.44l8.64,8.64c8.64,10.08,20.16,15.84,33.12,18.72,7.2,0,14.4,0,20.16-2.88,10.08-4.32,15.84,2.88,18.72,10.08v12.96c0,8.64-2.88,17.28-4.32,25.92s-4.32,17.28-7.2,25.92c0,2.88-1.44,5.76-2.88,8.64v2.88h0ZM311.04,436.32h2.88c2.88,0,5.76,0,8.64-2.88v-2.88h-20.16c-8.64-1.44-15.84-4.32-21.6-10.08-2.88-2.88-5.76-4.32-7.2-5.76h-2.88s-1.44,1.44-1.44,2.88c0,2.88,1.44,4.32,2.88,7.2,4.32,4.32,10.08,7.2,15.84,10.08,8.64,2.88,17.28,5.76,25.92,5.76,0,0-2.88-4.32-2.88-4.32ZM256.32,394.56c-2.88,0-4.32,1.44-4.32,4.32s1.44,4.32,4.32,4.32,4.32-1.44,4.32-4.32-1.44-4.32-4.32-4.32Z" style="fill:#a3744c;"/><path d="M224.64,416.16c5.76,0,11.52,2.88,15.84,5.76,8.64,4.32,12.96,11.52,18.72,20.16,5.76,10.08,11.52,21.6,17.28,31.68,4.32,7.2,8.64,14.4,14.4,20.16,5.76,5.76,12.96,8.64,21.6,8.64h10.08c0,1.44,0,2.88-1.44,4.32-2.88,7.2-7.2,12.96-12.96,18.72s-11.52,7.2-18.72,7.2c-1.44,0-2.88-1.44-4.32-2.88-2.88-4.32-4.32-8.64-5.76-12.96-2.88-8.64-5.76-15.84-8.64-24.48-2.88-5.76-4.32-12.96-7.2-18.72-4.32-8.64-7.2-17.28-12.96-25.92-4.32-7.2-10.08-15.84-15.84-21.6-1.44-2.88-4.32-4.32-7.2-5.76,0,0-1.44,0-1.44-1.44l-1.44-2.88h0Z" style="fill:#805838;"/><path d="M367.2,430.56h-1.44s-2.88,0-2.88-2.88c0,0,0-2.88,2.88-2.88,1.44,0,4.32,0,5.76-1.44h27.36c10.08,0,18.72,0,28.8,1.44h14.4c14.4,0,28.8,0,43.2,1.44h76.32c11.52,0,24.48,0,36-1.44h20.16c8.64,0,18.72,0,27.36-1.44h11.52c2.88,0,5.76,0,8.64,1.44,1.44,0,1.44,2.88,0,4.32-2.88,2.88-5.76,2.88-8.64,2.88-5.76,0-11.52,1.44-17.28,2.88h-8.64c-7.2,0-14.4,0-20.16,1.44-7.2,0-14.4,0-21.6,1.44h-14.4c-8.64,0-18.72,0-27.36,1.44h-77.76c-10.08,0-21.6,0-31.68-1.44-11.52,0-23.04-1.44-34.56-2.88-7.2,0-12.96,0-20.16-1.44-5.76,0-11.52,0-15.84-1.44v-1.44h0Z" style="fill:#fad9b9;"/><path d="M843.84,600.48h-28.8c-2.88,0-1.44,0,0-2.88,2.88-5.76,4.32-11.52,4.32-17.28,0-4.32,0-7.2-2.88-11.52v-2.88c7.2-4.32,14.4-8.64,21.6-12.96,4.32-2.88,8.64-5.76,12.96-8.64,0,0,2.88-1.44,4.32-2.88,1.44-1.44,2.88-2.88,2.88-5.76,0-10.08-2.88-18.72-5.76-28.8-2.88-11.52-5.76-21.6-8.64-31.68-1.44-5.76-2.88-11.52-5.76-15.84h0c2.88,4.32,4.32,8.64,7.2,14.4,5.76,11.52,10.08,23.04,14.4,34.56,2.88,8.64,5.76,18.72,7.2,27.36,0,7.2,0,15.84-2.88,23.04-2.88,12.96-8.64,25.92-14.4,37.44-1.44,2.88-2.88,5.76-5.76,8.64,0,0,0-4.32,0-4.32Z" style="fill:#805838;"/><path d="M802.08,624.96c-7.2,0-15.84,0-23.04-2.88-1.44,0-4.32,0-5.76-2.88-2.88-1.44-2.88-4.32,0-5.76,4.32-2.88,8.64-4.32,12.96-4.32,10.08-1.44,18.72-2.88,28.8-2.88,7.2,0,12.96,0,18.72,2.88,1.44,0,4.32,0,5.76,2.88,2.88,1.44,2.88,4.32,0,5.76-2.88,2.88-7.2,4.32-11.52,4.32-8.64,1.44-17.28,2.88-25.92,2.88Z" style="fill:#d2baa7;"/><path d="M826.56,434.88h-5.76c-5.76-1.44-10.08,0-15.84,0-10.08,1.44-18.72,5.76-27.36,10.08-5.76,2.88-11.52,7.2-15.84,11.52-2.88,1.44-4.32,4.32-5.76,7.2,0,1.44-2.88,2.88-4.32,1.44,0,0-1.44-2.88,0-4.32,2.88-5.76,8.64-11.52,14.4-15.84,7.2-5.76,15.84-10.08,24.48-12.96,8.64-2.88,17.28-4.32,25.92-4.32,2.88,0,5.76,0,8.64,4.32,0,0,1.44,2.88,1.44,2.88Z" style="fill:#77583f;"/><path d="M809.28,443.52h7.2c2.88,0,2.88,2.88,0,4.32-2.88,2.88-5.76,2.88-8.64,4.32-5.76,1.44-11.52,2.88-18.72,4.32h-8.64s-2.88,0-2.88-1.44c0,0,0-2.88,1.44-2.88,4.32-2.88,10.08-4.32,15.84-5.76,4.32,0,7.2-1.44,11.52,0,0,0,2.88-2.88,2.88-2.88Z" style="fill:#d2baa7;"/><path d="M442.08,319.68h-10.08,1.44c5.76-1.44,11.52-1.44,17.28,0,0,0,1.44,0,1.44,1.44h-10.08s0-1.44,0-1.44Z" style="fill:#d2baa7;"/><path d="M534.24,309.6h4.32s-1.44,1.44-2.88,2.88c-4.32,2.88-8.64,2.88-12.96,2.88h-2.88s0-1.44,1.44-2.88c4.32-2.88,8.64-4.32,14.4-4.32,0,0-1.44,1.44-1.44,1.44Z" style="fill:#d2baa7;"/><path d="M311.04,436.32c-8.64,0-17.28-2.88-25.92-5.76-5.76-2.88-11.52-5.76-15.84-10.08-1.44-1.44-2.88-4.32-2.88-7.2,0,0,0-2.88,1.44-2.88h2.88c2.88,1.44,5.76,4.32,7.2,5.76,5.76,5.76,14.4,8.64,21.6,10.08,5.76,0,11.52,1.44,15.84,0h4.32c1.44,0,1.44,1.44,0,2.88-2.88,2.88-5.76,2.88-8.64,2.88h-2.88l2.88,4.32Z" style="fill:#d2baa7;"/><path d="M256.32,394.56c2.88,0,4.32,1.44,4.32,4.32s-1.44,4.32-4.32,4.32-4.32-1.44-4.32-4.32,1.44-4.32,4.32-4.32Z" style="fill:#d2baa7;"/></svg>