<?xml version="1.0" encoding="UTF-8"?><svg id="Layer_1" xmlns="http://www.w3.org/2000/svg" width="1080" height="1080" xmlns:xlink="http://www.w3.org/1999/xlink" viewBox="0 0 1080 1080"><defs><linearGradient id="linear-gradient" x1="215.021" y1="540" x2="864.979" y2="540" gradientUnits="userSpaceOnUse"><stop offset="0" stop-color="#5f21fe"/><stop offset="1" stop-color="#8350fe"/></linearGradient></defs><circle cx="540" cy="540" r="540" style="fill:#fff;"/><path d="M654.336,774.19c25.728,19.672,24.949,63.341-3.232,80.365-46.142,27.88-97.797-24.8-67.38-68.776,15.394-22.26,48.925-28.167,70.608-11.589h.003ZM261.411,575.405c69.502-6.896,71.721,101.575,2.402,97.49-61.034-3.596-60.086-91.765-2.402-97.49ZM434.236,311.474c-18.083-8.185-29.064-32.475-26.632-51.601,6.262-49.266,74.886-57.069,93.384-13.026,17.725,42.202-26.298,82.932-66.752,64.627ZM850.257,489.16c-42.998,47.944-117.088-19.952-72.831-66.536,44.985-47.35,115.016,19.5,72.831,66.536ZM712.691,762.912c3.04-6.235,17.148-15.759,24.348-16.892,39.374-6.208,56.661,46.112,23.204,63.77-30.724,16.214-62.464-16.285-47.552-46.874v-.003ZM294.939,709.668c46.83-6.717,53.77,63.49,9.278,68.031-44.776,4.571-52.306-61.86-9.278-68.031ZM497.789,746.017c48.288-7.746,55.524,63.439,10.701,68.061-45.312,4.673-50.744-61.637-10.701-68.061ZM296.339,470.412c44.961-5.529,51.496,62.839,9.281,68.027-46.523,5.718-54.823-62.427-9.281-68.027ZM331.314,266.145c46.594-6.407,53.008,62.559,10.718,68.061-46.5,6.052-53.51-62.177-10.718-68.061ZM570.567,266.145c45.653-6.292,53.22,62.214,10.715,68.058-46.28,6.366-54.212-62.063-10.715-68.058ZM773.407,541.739c48.352-8.313,55.777,66.496,7.854,68.118-42.961,1.454-47.761-61.256-7.854-68.118ZM776.241,302.517c50.322-6.177,49.911,76.114-2.53,67.562-37.846-6.174-36.844-62.727,2.53-67.562ZM346.135,795.134c20.671-19.004,52.012,6.454,36.524,30.225-19.891,30.529-60.875-7.844-36.524-30.225ZM355.035,412.979c23.434-5.287,40.245,17.213,26.2,37.391-14.446,20.755-50.99,2.706-39.833-24.453,2.115-5.152,8.107-11.69,13.633-12.938ZM732.774,625.791c9.018,7.695,10.83,26.909,1.899,35.306-7.382,6.94-20.158,8.475-29.041,3.718-14.507-7.77-15.701-28.403-3.256-38.814,7.827-6.548,22.688-6.791,30.397-.213v.003ZM430.626,694.251c25.873-4.345,39.293,26.703,19.247,41.621-5.826,4.335-10.971,4.976-18.184,4.204-26.038-2.797-24.868-41.824-1.063-45.825ZM806.989,694.247c24.48-4.541,39.445,24.24,21.217,40.795-9.71,8.819-27.192,6.734-34.847-4.048-9.251-13.036-2.517-33.75,13.63-36.743v-.003ZM259.893,340.221c20.515-4.598,37.138,11.919,29.361,32.161-8.758,22.796-45.751,15.85-45.471-10.782.084-8.036,8.1-19.584,16.106-21.379h.003ZM661.35,346.027c23.096,23.747-16.261,57.38-35.889,30.991-17.402-23.397,16.322-51.108,35.889-30.991ZM734.117,250.876c8.374,7.935,8.326,22.982,1.215,31.72-9.365,11.508-29.618,11.261-37.397-1.839-14.952-25.181,15.826-49.168,36.18-29.881h.003ZM227.711,418.582c27.094-6.201,27.428,33.804,2.621,30.414-16.082-2.2-16.042-27.344-2.621-30.414ZM644.734,663.388c20.36-2.324,22.486,26.821,7.729,30.215-25.023,5.752-28.545-27.836-7.729-30.215ZM432.016,831.331c19.868-1.727,23.744,27.523,5.189,30.377-25.239,3.883-23.876-28.754-5.189-30.377ZM429.226,386.441c24.297-4.514,26.106,27.954,6.292,30.181-19.534,2.196-23.987-26.895-6.292-30.181ZM675.479,418.606c23.481-4.062,25.016,28.518,5.088,30.384-19.928,1.866-22.847-27.31-5.088-30.384ZM389.5,635.629c14.271-14.416,37.414,6.855,22.692,21.99-14.251,14.652-36.267-8.276-22.692-21.99ZM641.853,218.505c27.725-6.43,24.8,34.709,1.751,29.935-16.413-3.401-15.944-26.645-1.751-29.935ZM858.694,635.575c12.533,13.525-6.656,35.667-21.271,23.373-17.172-14.443,6.785-39.007,21.271-23.373ZM215.775,504.79c-1.744-2.854-.368-11.71,3.161-13.836,14.399-8.667,19.439,17.965,4.396,16.855-1.063-.078-7.328-2.642-7.557-3.019ZM686.662,489.885c14.655-3.03,13.937,22.04-1.09,17.321-8.377-2.631-7.729-15.495,1.09-17.321ZM385.172,573.928c9.48-8.174,22.347,8.667,11.636,15.124-11.74,7.075-17.304-10.236-11.636-15.124ZM577.469,680.192c12.419-3.819,18.515,11.059,7.743,16.224-11.805,5.658-17.483-13.232-7.743-16.224ZM494.949,383.6c17.182-5.077,16.865,21.389-.024,16.214-6.181-1.893-7.405-14.018.024-16.214ZM494.922,848.088c17.476-5.374,16.936,21.433,0,16.241-6.538-2.004-6.569-14.22,0-16.241ZM854.568,572.403c12.031-2.146,13.576,15.266,4.939,17.725-12.112,3.455-16.646-15.64-4.939-17.725ZM577.473,215.681c17.024-5.222,17.03,21.463,0,16.241-6.538-2.004-6.565-14.224,0-16.241Z" style="fill:url(#linear-gradient);"/></svg>