<?xml version="1.0" encoding="UTF-8"?><svg id="Layer_1" xmlns="http://www.w3.org/2000/svg" width="1080" height="1080" xmlns:xlink="http://www.w3.org/1999/xlink" viewBox="0 0 1080 1080"><defs><linearGradient id="linear-gradient" x1="218.59" y1="446.99" x2="1012.52" y2="1025.669" gradientTransform="translate(0 -159.65)" gradientUnits="userSpaceOnUse"><stop offset="0" stop-color="#d74535"/><stop offset="0" stop-color="#d94f35"/><stop offset="1" stop-color="#d95234"/></linearGradient></defs><circle cx="540" cy="540" r="540" style="fill:#fff;"/><path d="M856.744,532.933c-5.127-15.381-14.247-30.194-26.201-42.161h0c0-1.134,0-2.28-1.134-3.414,11.387,5.127,22.221,13.101,30.194,22.788,0-16.514-5.127-33.041-14.814-46.142-9.687-13.101-22.788-23.921-37.601-31.328,8.54.567,17.094,2.28,25.068,5.694,7.974,3.414,15.381,7.407,22.221,11.967-3.993-18.227-13.667-34.175-27.914-46.709-13.667-11.967-31.328-19.941-49.555-21.654,17.661-3.414,36.455,0,51.835,9.687-9.12-16.514-22.221-29.628-38.168-39.302-15.947-9.12-34.175-14.247-52.982-13.667h-.567c17.661-3.993,35.888-3.993,52.982,0-11.387-10.821-24.501-18.794-38.735-24.501-14.247-5.127-29.628-7.974-45.008-7.407,7.974-6.84,17.661-10.821,27.914-11.967,12.534-1.713,25.068,1.134,35.321,7.974-22.221-23.354-38.735-31.908-66.649-30.194-13.667,1.713-26.201,6.26-37.035,13.667,17.661-18.794,30.761-41.582,37.035-66.649-2.847,3.993-11.387,14.814-13.101,17.094-11.387,13.101-26.201,22.788-42.728,27.914-16.514,4.56-25.634,2.28-42.728,6.84l-1.134-1.134c27.914-31.908,60.956-59.242,97.41-80.329-42.728,11.387-82.597,32.474-116.784,60.956,22.788-22.788,48.422-42.728,76.903-58.109h-3.993c-1.134,0-2.28.567-3.993,1.134-39.302,11.967-76.336,31.908-107.664,58.676-19.941,16.514-37.601,35.888-52.982,56.396-1.134,1.134-6.26,0-6.84,0-5.127-5.127-2.28-19.374-3.993-15.947-3.993,7.407-9.687,37.601-14.814,43.295-19.941,21.074-34.754,34.175-55.262,55.262-3.993,3.993-3.993,10.254-4.56,14.814l-3.414,18.794,19.374-15.947c2.847-2.28,7.407-6.26,11.387-9.12-.567-6.84,2.28-10.254,13.101-11.967-1.713,5.127-1.713,10.821-4.56,13.667-9.687,10.821-22.221,18.794-35.321,23.921-3.414,1.134-6.84,2.28-9.687,5.127-9.12,7.974-17.661,15.947-26.781,23.921-9.12,7.407-10.254,5.694-13.101-2.847-.567-1.134-.567-2.847,0-3.993-10.821,14.247-10.821,46.142,0,52.415l6.84-21.074c8.54,5.127,7.407,3.414,1.713,7.974-2.28,2.28-3.993,4.56-5.127,7.407-.567,3.414.567,7.407,2.847,10.254,3.414,2.28,6.84,3.993,10.821,5.127,3.414-5.127,5.694-10.254,9.12-14.814,3.414-5.127,6.84-9.687,10.254-14.247,3.414-3.993,7.407-7.407,10.821-11.387l1.134,1.134c-3.414,3.993-6.84,7.974-10.254,12.534-9.12,13.667-9.687,10.254,1.134,21.074.567.567,1.134,1.134,1.134,1.713-2.847,0-5.127-.567-7.407-1.713-4.56-3.414-6.84,0-8.54,2.847-2.28,2.847-2.847,6.84,1.713,9.12,9.687,5.127,21.074,6.26,31.908,3.993,3.414-.567,6.84-1.713,10.254-3.414l-4.56-3.414c-15.947-12.534-12.534-24.501,6.26-33.041,23.354-11.387,48.989-18.794,74.623-22.221,10.254-1.713,21.074-2.847,31.908-3.993,0-2.28-1.134-3.993-1.713-5.127-3.993-9.687-11.387-10.254,0-10.821h17.661s31.328,1.713,31.328,1.134v-.567h1.134v-2.28c0-.567-.567-.567-.567-1.134-5.694-11.967-7.974-25.068-6.84-37.601.567-3.993,1.134-8.54,1.713-12.534,1.134-4.56-1.713-4.56-5.127-3.993-5.694,1.134,2.28-3.414,3.414-4.56v-1.713c.567-1.134.567-2.28,0-3.414-2.847-6.84-5.127-13.667-6.26-21.074-1.134-4.56-1.134-9.12,0-13.101,1.134-4.56,3.414-7.974,6.84-11.387-1.713,3.993-3.414,7.407-4.56,11.967-1.134,10.254,1.713,19.941,7.974,27.914,2.847,3.993,4.56,8.54,5.127,13.101s0,9.687-1.713,14.247c-2.28,6.84-2.28,14.814,0,21.654,4.56-2.28,9.687-3.993,14.814-4.56,24.501-1.134,48.989,6.26,68.929,20.507,27.914,22.221,46.709,54.695,52.982,90.004,1.134,5.127,1.713,9.687,1.713,14.814v33.608c13.101-43.295,10.821-90.004-5.694-132.732,5.127,10.254,9.12,21.074,12.534,31.908,9.687,26.781,12.534,55.262,9.12,83.176-3.414,27.914-13.101,54.695-28.481,78.616-39.881,63.236-101.971,84.877-174.326,84.877,46.142,18.794,97.99,19.941,145.265,2.847,33.041-11.387,62.669-31.328,86.023-58.109-11.967,33.608-30.194,64.369-54.695,90.004-24.501,25.634-54.115,45.575-87.157,59.242-33.041,13.101-68.363,19.374-103.684,17.661-35.321-1.713-70.076-10.821-101.971-26.781h.567c-41.015-20.507-75.769-52.415-99.69-91.15-24.501-38.735-37.035-83.743-37.601-129.885-.567-46.142,11.967-91.15,35.888-130.452,23.921-39.302,57.542-71.209,98.557-92.284,3.414-31.328,38.735-69.496,83.176-90.004-59.242,5.694-115.071,28.481-161.793,65.516-46.709,37.035-81.463,86.023-101.404,141.852-19.374,55.829-22.788,116.784-9.12,174.326,13.667,57.542,43.295,110.511,86.023,152.106l.567.567c40.448,39.881,90.004,67.796,145.265,80.896,55.262,13.101,113.371,10.821,167.486-6.26,54.115-17.661,102.537-49.555,140.139-92.284s62.089-95.13,71.776-151.539c1.134-2.28,2.28-3.414,6.26-1.713v-23.921l1.713-.567,7.407,11.387c1.713-14.814,1.134-30.194-1.713-45.008,3.993,4.56,6.26,7.974,8.54,10.821,2.847-16.514,1.713-33.608-3.414-49.555l.052-.013Z" style="fill:url(#linear-gradient);"/></svg>