<?xml version="1.0" encoding="UTF-8"?><svg id="Layer_1" xmlns="http://www.w3.org/2000/svg" width="1080" height="1080" viewBox="0 0 1080 1080"><path d="M540,0h0c298.22,0,540,241.78,540,540h0c0,298.22-241.78,540-540,540h0C241.78,1080,0,838.22,0,540h0C0,241.78,241.78,0,540,0Z"/><path d="M820.66,378.86v162l-140.11-80.93-140.11-80.93,140.11-80.21,140.11-80.93v162h0v-1.01Z" style="fill:#122a37;"/><path d="M540.43,540v162l-140.11-80.93-140.11-80.93,140.11-80.21,140.11-80.93v162h0v-1.01Z" style="fill:#224454;"/><path d="M260.21,378v-162l140.11,80.93,140.11,80.93-140.11,80.93-140.11,80.21v-162h0v1.01Z" style="fill:#71d5bf;"/><path d="M259.34,702v-162l140.11,80.93,140.11,80.93-140.11,80.93-140.11,80.21v-162h0v1.01Z" style="fill:#122a37;"/><path d="M680.54,459.79l-140.11-80.93v323.14l140.11,80.93,140.11,80.93v-324l-140.11-80.93h0s0,.86,0,.86Z" style="fill:#71d5bf;"/></svg>