<?xml version="1.0" encoding="UTF-8"?><svg id="Layer_1" xmlns="http://www.w3.org/2000/svg" width="1080" height="1080" xmlns:xlink="http://www.w3.org/1999/xlink" viewBox="0 0 1080 1080"><defs><linearGradient id="linear-gradient" x1="233.57" y1="-581.72" x2="845.14" y2="-581.72" gradientTransform="translate(0 -266) scale(1 -1)" gradientUnits="userSpaceOnUse"><stop offset="0" stop-color="#894ad7"/><stop offset="1" stop-color="#dd6cb3"/></linearGradient><linearGradient id="linear-gradient-2" x1="358.01" y1="-1062.35" x2="718.59" y2="-701.77" gradientTransform="translate(0 -266) scale(1 -1)" gradientUnits="userSpaceOnUse"><stop offset="0" stop-color="#7a4add"/><stop offset=".5" stop-color="#cc4bbd"/><stop offset="1" stop-color="#f099a7"/></linearGradient></defs><path d="M540,0h0c298.22,0,540,241.78,540,540h0c0,298.22-241.78,540-540,540h0C241.78,1080,0,838.22,0,540h0C0,241.78,241.78,0,540,0Z"/><path d="M844.85,397.15c0,6.62-3.31,9.94-8.35,11.66-5.04,0-9.94-3.31-11.66-8.35-1.58-13.25-3.31-26.64-8.35-38.16-23.18-64.8-66.38-104.69-132.91-122.98-1.58,0-3.31,0-5.04-1.73-5.04-1.73-8.35-6.62-6.62-11.66s6.62-8.35,11.66-6.62c16.56,3.31,31.54,8.35,46.51,16.56,66.38,34.85,104.69,87.98,114.62,162.86,0-3.31,0-1.73,0-1.73h0l.14.14ZM780.05,402.05c-6.62-49.82-33.26-86.4-78.05-108-9.94-5.04-20.02-8.35-29.95-9.94-6.62-1.73-11.66,1.73-11.66,6.62-1.58,5.04,1.58,9.94,6.62,11.66,1.58,0,3.31,1.73,5.04,1.73,29.95,8.35,54.86,26.64,71.42,53.14,8.35,14.98,14.98,31.54,16.56,48.24,0,6.62,5.04,9.94,11.66,9.94,5.04,0,8.35-5.04,8.35-11.66,1.58,0,1.58-1.73,0-1.73h0ZM406.22,222.62c-1.73-5.04-6.62-6.62-11.66-6.62-1.73,0-3.31,0-3.31,1.73-61.49,14.98-108,51.55-136.22,108-11.66,21.6-18.29,46.51-19.87,71.42,0,5.04,1.73,8.35,5.04,9.94,6.62,3.31,13.25,0,14.98-8.35,9.94-78.05,61.49-139.54,136.22-159.55,3.31,0,6.62-1.73,9.94-3.31,3.31-1.73,6.62-6.62,5.04-13.25h-.14ZM416.16,285.84c-3.31-3.31-8.35-3.31-11.66-3.31-31.54,8.35-58.18,24.91-78.05,49.82-16.56,21.6-24.91,44.93-28.22,69.84,0,6.62,3.31,11.66,8.35,11.66s9.94-3.31,11.66-8.35v-3.31c6.62-39.89,26.64-68.11,59.76-87.98,9.94-5.04,19.87-9.94,31.54-11.66,8.35-1.73,11.66-9.94,6.62-16.56v-.14Z" style="fill:url(#linear-gradient);"/><path d="M620.64,814.18c-18.29,33.26-44.78,49.82-81.36,49.82s-63.22-18.29-81.36-49.82c-5.04-9.94,0-18.29,11.66-18.29h139.54c13.25,0,18.29,6.62,11.66,18.29h-.14ZM761.76,707.76c-28.22-1.58-43.2-20.02-43.2-46.51v-162.86c-8.35-74.74-46.51-128.02-116.35-156.24-9.94-3.31-16.56-9.94-21.6-19.87-8.35-16.56-23.18-24.91-41.62-26.64-18.29,0-33.26,8.35-41.62,24.91-5.04,9.94-11.66,16.56-21.6,19.87-41.47,16.56-73.15,44.93-94.75,83.09-14.98,26.64-21.6,56.45-21.6,86.4v151.2c0,21.6-13.25,38.16-33.26,43.2-3.31,0-8.35,1.58-11.66,1.58-9.94,1.58-16.56,8.35-16.56,18.29s6.62,18.29,14.98,20.02h448.56c11.66,0,20.02-8.35,20.02-20.02,0-8.35-8.35-16.56-20.02-16.56h0l.29.14Z" style="fill:url(#linear-gradient-2);"/></svg>