<?xml version="1.0" encoding="UTF-8"?><svg id="Layer_1" xmlns="http://www.w3.org/2000/svg" width="1080" height="1080" viewBox="0 0 1080 1080"><path d="M540,0h0c298.08,0,540,241.92,540,540h0c0,298.08-241.92,540-540,540h0C241.92,1080,0,838.08,0,540h0C0,241.92,241.92,0,540,0Z"/><path d="M604.66,504c0,35.86-28.94,64.8-64.66,64.8v64.8c71.42,0,129.31-58.03,129.31-129.6s-57.89-129.6-129.31-129.6c-23.62,0-45.65,6.34-64.66,17.42-38.59,22.46-64.66,64.22-64.66,112.18v324l58.18,58.32,6.48,6.48v-388.8c0-35.86,28.94-64.8,64.66-64.8s64.66,28.94,64.66,64.8Z" style="fill:#e4dafb;"/><path d="M540,244.8c-47.09,0-91.3,12.67-129.31,34.7-24.34,14.11-46.22,32.11-64.66,53.14-40.18,45.65-64.66,105.7-64.66,171.36v194.4l64.66,64.8v-259.2c0-57.6,24.91-109.3,64.66-144.86,18.72-16.7,40.61-29.95,64.66-38.45,20.16-7.2,42.05-11.09,64.66-11.09,107.14,0,193.97,86.98,193.97,194.4s-86.83,194.4-193.97,194.4v64.8c142.85,0,258.62-116.06,258.62-259.2s-115.78-259.2-258.62-259.2h0Z" style="fill:#e4dafb;"/></svg>