<?xml version="1.0" encoding="UTF-8"?><svg id="Layer_1" xmlns="http://www.w3.org/2000/svg" width="1080" height="1080" viewBox="0 0 1080 1080"><circle cx="540" cy="540" r="540" style="fill:#fff;"/><path d="M680.799,215c101.738,0,184.201,82.49,184.201,184.199v281.601c0,101.741-82.494,184.201-184.201,184.201h-281.6c-101.739,0-184.198-82.491-184.199-184.201v-281.601c0-101.739,82.46-184.199,184.199-184.199h281.6ZM751.056,328.977c-56.614-56.614-147.429-58.216-205.978-4.807-2.838,2.589-7.227,2.589-10.066.001-58.578-53.411-149.393-51.809-206.008,4.805-56.613,56.614-58.216,147.428-4.807,205.977,2.589,2.838,2.59,7.227.001,10.066-53.41,58.577-51.808,149.388,4.806,206.005,56.613,56.61,147.426,58.214,205.976,4.807,2.838-2.592,7.228-2.592,10.067,0,58.548,53.406,149.363,51.803,205.977-4.807h.031c56.61-56.645,58.214-147.457,4.807-206.005-2.588-2.839-2.588-7.228,0-10.067,53.406-58.55,51.803-149.362-4.807-205.976ZM533.486,387.844c2.034-5.556,10.931-5.556,12.965,0,24.773,67.584,78.089,120.899,145.675,145.673,5.552,2.035,5.552,10.927,0,12.962-67.585,24.773-120.901,78.089-145.675,145.674-2.034,5.555-10.931,5.555-12.965,0-24.775-67.585-78.087-120.901-145.67-145.674-5.556-2.034-5.556-10.928,0-12.962,67.583-24.775,120.896-78.09,145.67-145.673Z"/></svg>