<?xml version="1.0" encoding="UTF-8"?><svg id="Layer_1" xmlns="http://www.w3.org/2000/svg" width="1080" height="1080" viewBox="0 0 1080 1080"><path d="M540,0h0c298.22,0,540,241.78,540,540h0c0,298.22-241.78,540-540,540h0C241.78,1080,0,838.22,0,540h0C0,241.78,241.78,0,540,0Z"/><path d="M252,648l180,180h396v-396l-180-180h-324c-39.74,0-72,32.26-72,72v324ZM612,288h-288c-18.43,0-33.55,13.68-35.71,31.54h-.29v328.46h72v-270c0-9.94,8.06-18,18-18h162v90c0,9.94-8.06,18-18,18h-90v72l108,108h108l-108-108c39.74,0,72-32.26,72-72v-180h0Z" style="fill:#fff; fill-rule:evenodd;"/></svg>