<?xml version="1.0" encoding="UTF-8"?><svg id="Layer_1" xmlns="http://www.w3.org/2000/svg" width="1080" height="1080" viewBox="0 0 1080 1080"><circle cx="540" cy="540" r="540" style="fill:#fff;"/><rect x="350.546" y="410.732" width="102.448" height="414.268"/><path d="M774.268,434.421c0-87.904-71.583-159.421-159.574-159.421h-264.148v88.47h251.589c39.82,0,72.806,31.284,73.534,69.734.365,19.253-6.861,37.423-20.345,51.161-13.489,13.745-31.513,21.318-50.748,21.318h-98.006c-3.48,0-6.312,2.828-6.312,6.307v78.629c0,1.337.413,2.616,1.191,3.692l166.284,230.689h121.722l-166.67-231.32c83.935-4.214,151.484-74.737,151.484-159.259Z"/></svg>