<?xml version="1.0" encoding="UTF-8"?><svg id="Layer_1" xmlns="http://www.w3.org/2000/svg" width="1080" height="1080" xmlns:xlink="http://www.w3.org/1999/xlink" viewBox="0 0 1080 1080"><defs><linearGradient id="linear-gradient" x1="264.774" y1="808.947" x2="740.473" y2="562.02" gradientTransform="translate(0 1080) scale(1 -1)" gradientUnits="userSpaceOnUse"><stop offset="0" stop-color="#336bdb"/><stop offset="1" stop-color="#accafa"/></linearGradient><linearGradient id="linear-gradient-2" x1="742.496" y1="597.277" x2="351.908" y2="426.605" gradientTransform="translate(0 1080) scale(1 -1)" gradientUnits="userSpaceOnUse"><stop offset="0" stop-color="#336bdb"/><stop offset="1" stop-color="#8ab4f8"/></linearGradient></defs><circle cx="540" cy="540" r="540" style="fill:#fff;"/><path d="M723.415,407.457l-450.279-192.457c-14.525,130.726,52.048,192.457,87.15,206.983l363.128,145.251v-159.777Z" style="fill:url(#linear-gradient);"/><path d="M679.824,447.402c26.145-11.62,22.168-38.733,16.116-50.838l27.46,10.894c23.38,10.894,26.092,21.788,25.417,29.05v116.201c0,20.335-12.104,32.681-18.157,36.313l-286.869,130.725v-163.406c67.784-31.471,209.888-97.318,236.033-108.938Z" style="fill:url(#linear-gradient-2);"/><path d="M494.729,592.655c-26.145-11.62-20.578-38.734-14.525-50.838l-29.05,10.894c-16.633,7.263-25.419,18.157-25.419,29.051v116.2c0,20.336,12.104,32.684,18.156,36.313l301.397,130.726v-163.405c-67.785-31.473-224.414-97.32-250.559-108.94Z" style="fill:#336bdb;"/></svg>