<?xml version="1.0" encoding="UTF-8"?><svg id="Layer_1" xmlns="http://www.w3.org/2000/svg" width="1080" height="1080" viewBox="0 0 1080 1080"><path d="M540,0h0c298.22,0,540,241.78,540,540h0c0,298.22-241.78,540-540,540h0C241.78,1080,0,838.22,0,540h0C0,241.78,241.78,0,540,0Z"/><path d="M504.58,252c-17.57,0-34.27,6.91-46.8,19.3l-194.54,194.54c-7.34,7.34-11.09,16.99-11.09,26.64s3.74,19.3,11.09,26.78l127.58,127.58v-225.65c0-16.85,13.54-30.38,30.38-30.38h268.13l138.67-138.82h-323.42Z" style="fill:#fff;"/><path d="M390.82,689.18h268.13c16.85,0,30.38-13.54,30.38-30.38v-225.65l127.58,127.58c7.34,7.34,11.09,16.99,11.09,26.78s-3.74,19.3-11.09,26.78l-194.54,194.54c-12.38,12.38-29.23,19.3-46.8,19.3l-323.42-.29,138.67-138.67h0Z" style="fill:#fff;"/></svg>