<?xml version="1.0" encoding="UTF-8"?><svg id="Layer_1" xmlns="http://www.w3.org/2000/svg" width="1080" height="1080" viewBox="0 0 1080 1080"><path d="M540,0h0c298.22,0,540,241.78,540,540h0c0,298.22-241.78,540-540,540h0C241.78,1080,0,838.22,0,540h0C0,241.78,241.78,0,540,0Z"/><path d="M773.14,338.83c-10.08-24.91-26.5-47.52-45.22-65.52-19.44-18.72-42.91-32.69-67.1-42.91-16.42-6.19-32.69-10.94-49.82-12.53-61.63-8.64-126.29,10.08-173.09,56.88-54.58,54.58-73.3,133.34-49.1,207.36v.72c-14.83,9.36-28.8,20.3-41.33,33.55-18.72,19.44-34.27,42.91-43.63,67.82-10.08,25.78-13.97,51.41-13.97,78.77s5.47,53.86,16.42,78.05c10.08,24.91,26.5,47.52,45.22,65.52,19.44,18.72,42.91,32.69,67.1,42.91,24.19,10.08,50.69,13.97,77.18,13.97h-10.94c55.3,3.17,112.32-17.14,154.37-59.33,54.58-54.58,73.3-133.34,49.82-205.92,16.42-9.36,31.25-21.02,43.63-35.14,18.72-19.44,34.27-42.91,43.63-67.82,10.08-25.78,13.97-51.41,13.97-78.77s-6.19-53.86-17.14-78.05h0s0,.43,0,.43ZM595.3,353.66c-1.58-6.19-2.3-13.25-2.3-19.44,7.06,1.58,14.83,3.17,21.89,6.19,10.08,3.89,18.72,10.94,24.91,18.72,6.19,7.78,12.53,16.42,15.55,26.5s4.61,19.44,4.61,29.66c-1.58,18.72-9.36,36.58-22.61,49.97l-42.05-111.46h0v-.14ZM643.68,480.82c1.58-1.58,2.3-2.3,3.89-3.89,8.64-8.64,13.97-18.72,18.72-29.66,4.61-10.94,5.47-23.33,5.47-34.27,0-12.53-3.17-22.61-7.78-32.69-4.61-10.08-12.53-18.72-19.44-26.5-7.78-7.06-17.14-13.25-27.22-16.42-7.06-2.3-14.83-3.89-22.61-3.89,0-13.25,3.89-25.78,9.36-36.72,8.64,1.58,18,4.75,25.78,8.64,15.55,7.06,27.22,16.42,38.16,27.36,10.08,12.53,18.72,24.91,24.19,39.74,5.47,13.97,7.78,29.66,7.78,45.22s-3.17,31.25-10.08,43.63c-5.47,13.97-13.97,26.5-24.91,35.86-3.89,3.17-7.06,6.19-11.66,8.64l-9.36-24.91h-.29v-.14ZM658.51,519.84c5.47-3.89,10.94-8.64,16.42-13.97,10.94-12.53,21.02-27.36,26.5-42.91,7.06-16.42,8.64-33.55,8.64-49.1,0-16.42-3.89-32.69-10.94-48.38-6.19-13.97-16.42-28.8-28.08-39.74-12.53-10.94-24.91-19.44-40.61-24.91-8.64-3.17-18-4.75-26.5-6.19,3.89-7.06,8.64-13.25,13.97-19.44,4.61-4.75,9.36-8.64,14.83-11.66,3.89,1.58,7.78,3.17,11.66,4.75,18.72,7.78,35.86,19.44,50.69,35.14,13.97,13.97,24.91,33.55,32.69,51.41,7.78,19.44,10.94,40.61,10.94,60.05-.72,22.61-5.47,42.05-13.25,60.77-7.78,17.14-19.44,33.55-34.27,48.38-7.78,7.78-15.55,13.97-24.19,19.44l-8.64-23.33h0v-.29h.14ZM444.1,815.33c-3.17-1.58-6.19-2.3-9.36-3.89-18.72-7.78-35.86-19.44-50.69-35.14-13.97-13.97-24.91-33.55-32.69-51.41-7.78-19.44-10.94-40.61-10.94-60.05.72-21.02,5.47-40.61,13.25-59.33,7.78-17.14,19.44-33.55,34.27-48.38,7.06-7.06,14.83-13.25,22.61-18l8.64,23.33c-4.75,3.89-10.08,7.78-13.97,12.53-10.94,12.53-21.02,27.22-26.5,42.91-7.06,16.42-8.64,33.55-8.64,49.1,0,16.42,3.89,32.69,10.94,48.38,6.19,13.97,16.42,28.8,28.08,39.74,12.53,10.94,24.91,19.44,40.46,24.91,7.78,3.17,15.55,4.61,24.19,6.19-3.89,7.06-8.64,13.25-13.97,18.72-4.75,3.17-10.08,7.06-15.55,10.08h0v.29h-.14ZM450.29,776.3c-15.55-7.06-27.36-16.42-38.16-27.22-10.08-12.53-18.72-24.91-24.19-39.74-5.47-13.97-7.78-29.66-7.78-45.22s3.17-31.25,10.08-43.63c5.47-13.97,13.97-26.5,24.91-35.86,3.17-2.3,6.19-5.47,9.36-7.78l9.36,24.91c-.72.72-1.58,1.58-2.3,2.3-8.64,8.64-13.97,18.72-18.72,29.66-4.75,10.94-5.47,23.33-5.47,34.27,0,12.53,3.17,22.61,7.78,32.69,4.75,10.08,12.53,18.72,19.44,26.5,7.78,7.06,17.14,13.25,27.36,16.42,6.19,2.3,13.97,3.17,21.02,3.89-.72,13.25-3.89,25.78-10.08,36.58-7.06-2.3-14.83-4.61-22.61-7.78h0ZM482.26,726.48c1.58,6.19,1.58,13.25,1.58,19.44-7.06-1.58-13.25-3.17-19.44-6.19-10.08-3.89-18.72-10.94-24.91-18.72-6.19-7.78-12.53-16.42-15.55-26.5-3.89-10.08-4.75-19.44-4.75-29.66.72-18,8.64-35.86,21.02-48.38,0,0,42.05,110.02,42.05,110.02ZM355.97,803.66c-18.72-18.72-31.97-40.61-42.05-64.8-8.64-22.61-13.25-49.1-13.25-74.88,1.58-24.91,7.06-50.69,16.42-73.3,10.08-23.33,24.91-43.63,42.91-61.63,10.94-10.94,22.61-19.44,35.86-27.22l7.06,18c-10.08,7.06-20.3,13.97-28.08,23.33-15.55,16.42-27.36,35.14-35.14,56.16-7.78,21.02-10.94,42.91-10.94,64.8,1.58,21.89,5.47,43.63,13.97,63.22,8.64,19.44,21.89,38.16,37.44,52.27,15.55,13.97,33.55,26.5,53.86,34.27,3.17.72,5.47,2.3,8.64,3.17-13.25,7.78-27.36,11.66-42.91,12.53-5.47,0-10.94-.72-16.42-1.58-10.08-7.78-18.72-15.55-27.36-24.19h0v-.14ZM762.19,489.46c-10.08,23.33-24.91,43.63-42.91,61.63-10.94,10.94-24.19,21.02-38.16,28.8l-6.19-17.14c10.94-7.06,21.89-14.83,30.38-24.91,15.55-16.42,27.22-35.14,35.14-56.16s10.94-42.91,10.94-64.66c-1.58-21.89-5.47-43.63-13.97-63.22-8.64-19.44-21.89-38.16-37.44-52.27-15.55-14.11-33.55-26.5-53.86-34.27-3.89-1.58-7.78-2.3-10.94-3.89,18.72-10.94,40.61-13.97,61.63-10.08,10.08,7.06,19.44,14.83,27.22,24.19,18.72,18.72,31.97,40.61,42.05,64.66,8.64,22.61,13.25,49.1,13.25,74.88-2.3,24.19-7.78,49.97-17.14,72.58h0v-.14Z" style="fill:#ca313e;"/></svg>