<?xml version="1.0" encoding="UTF-8"?><svg id="Layer_1" xmlns="http://www.w3.org/2000/svg" width="1080" height="1080" xmlns:xlink="http://www.w3.org/1999/xlink" viewBox="0 0 1080 1080"><defs><linearGradient id="linear-gradient" x1="437.72" y1="-1456.75" x2="548.6" y2="-1835.47" gradientTransform="translate(0 -1261.9) scale(1 -1)" gradientUnits="userSpaceOnUse"><stop offset="0" stop-color="#03b8ff"/><stop offset="1" stop-color="#fa52a0"/></linearGradient><linearGradient id="linear-gradient-2" x1="530.89" y1="-1430.1" x2="640.33" y2="-1808.82" xlink:href="#linear-gradient"/><linearGradient id="linear-gradient-3" x1="347.21" y1="-1482.5" x2="458.09" y2="-1861.23" xlink:href="#linear-gradient"/></defs><path d="M540,0h0c298.08,0,540,241.92,540,540h0c0,298.08-241.92,540-540,540h0C241.92,1080,0,838.08,0,540h0C0,241.92,241.92,0,540,0Z"/><path d="M328.32,249.12l558.72,380.16-138.24,203.04L190.08,449.28l138.24-200.16h0Z" style="fill:url(#linear-gradient);"/><path d="M888.48,629.28c-47.52,69.12-210.24,41.76-364.32-66.24-156.96-105.12-240.48-244.8-194.4-313.92,47.52-69.12,210.24-41.76,364.32,66.24,156.96,102.24,240.48,244.8,194.4,313.92Z" style="fill:url(#linear-gradient-2);"/><path d="M748.8,829.44c-47.52,69.12-210.24,41.76-364.32-66.24-152.64-108-240.48-244.8-192.96-316.8,47.52-69.12,210.24-41.76,364.32,66.24,154.08,108,237.6,249.12,192.96,316.8Z" style="fill:url(#linear-gradient-3);"/><path d="M888.48,629.28l-138.24,203.04c-47.52,69.12-210.24,38.88-364.32-66.24-30.24-20.16-56.16-41.76-83.52-66.24,21.6-2.88,47.52-14.4,74.88-44.64,47.52-50.4,72-61.92,93.6-60.48,21.6,0,44.64,20.16,83.52,72,38.88,51.84,93.6,66.24,125.28,38.88,2.88-2.88,5.76-2.88,8.64-5.76,27.36-20.16,36-30.24,87.84-125.28,12.96-24.48,54.72-61.92,110.88-44.64,14.4,38.88,14.4,72,0,99.36,0,0,1.44,0,1.44,0Z" style="fill:#0e0f23;"/><path d="M866.88,616.32c-41.76,60.48-188.64,30.24-329.76-69.12-144-99.36-227.52-224.64-185.76-283.68,41.76-60.48,188.64-30.24,329.76,69.12,141.12,99.36,226.08,224.64,185.76,283.68ZM734.4,527.04c-21.6,30.24-93.6,14.4-165.6-33.12-69.12-47.52-110.88-110.88-89.28-141.12,21.6-30.24,93.6-14.4,165.6,33.12,69.12,47.52,110.88,110.88,89.28,141.12Z" style="fill:#fff; fill-rule:evenodd;"/><path d="M316.8,318.24c0-2.88-2.88-5.76-5.76-2.88s-5.76,2.88-5.76,5.76c2.88,8.64,5.76,14.4,5.76,20.16s2.88,5.76,5.76,2.88c2.88,0,5.76-2.88,2.88-5.76,0-5.76,0-12.96-2.88-20.16Z" style="fill:#fff;"/><path d="M332.64,365.76c0-2.88-2.88-5.76-5.76-2.88s-2.88,4.32-2.88,5.76c33.12,74.88,102.24,155.52,192.96,216,2.88,2.88,5.76,0,8.64,0,2.88-2.88,0-5.76,0-8.64-93.6-60.48-159.84-136.8-192.96-208.8h0s0-1.44,0-1.44Z" style="fill:#fff;"/><path d="M695.52,658.08c-2.88,0-5.76,0-5.76,2.88s0,5.76,2.88,5.76c8.64,2.88,21.6,5.76,30.24,8.64,2.88,0,5.76,0,5.76-2.88s0-5.76-2.88-5.76c-8.64-2.88-21.6-5.76-30.24-8.64Z" style="fill:#fff;"/><path d="M748.8,671.04c-2.88,0-5.76,2.88-5.76,5.76s2.88,5.76,5.76,5.76c24.48,2.88,50.4,5.76,72,2.88,2.88,0,5.76-2.88,5.76-5.76s-2.88-5.76-5.76-5.76c-24.48,2.88-47.52,0-72-2.88Z" style="fill:#fff;"/></svg>