<?xml version="1.0" encoding="UTF-8"?><svg id="Layer_1" xmlns="http://www.w3.org/2000/svg" width="1080" height="1080" xmlns:xlink="http://www.w3.org/1999/xlink" viewBox="0 0 1080 1080"><defs><linearGradient id="linear-gradient" x1="426.03" y1="1263.64" x2="655.77" y2="1033.9" gradientTransform="translate(0 -598)" gradientUnits="userSpaceOnUse"><stop offset="0" stop-color="#9a48bc"/><stop offset="1" stop-color="#9453bc"/></linearGradient><linearGradient id="linear-gradient-2" x1="179.47" y1="1225.72" x2="496.65" y2="925.18" gradientTransform="translate(-106.57 -502.37) rotate(19.02) scale(.76 .65) skewX(32.59)" xlink:href="#linear-gradient"/><linearGradient id="linear-gradient-3" x1="583.06" y1="1314.08" x2="660.45" y2="1383.51" gradientTransform="translate(-85.34 -521.33) rotate(19.13) scale(.76 .65) skewX(32.72)" xlink:href="#linear-gradient"/><linearGradient id="linear-gradient-4" x1="726.84" y1="1138" x2="920.69" y2="1138" gradientTransform="translate(0 -598)" gradientUnits="userSpaceOnUse"><stop offset="0" stop-color="#d75aff"/><stop offset="1" stop-color="#b882ff"/></linearGradient><linearGradient id="linear-gradient-5" x1="452.95" y1="1391.08" x2="646.79" y2="1391.08" xlink:href="#linear-gradient-4"/><linearGradient id="linear-gradient-6" x1="158.59" x2="352.44" xlink:href="#linear-gradient-4"/><linearGradient id="linear-gradient-7" x1="481.34" y1="953.46" x2="618.41" y2="816.39" xlink:href="#linear-gradient-4"/></defs><path d="M540,0h0c298.22,0,540,241.78,540,540h0c0,298.22-241.78,540-540,540h0C241.78,1080,0,838.22,0,540h0C0,241.78,241.78,0,540,0Z"/><rect x="339.87" y="522.05" width="402.05" height="57.44" style="fill:url(#linear-gradient);"/><polygon points="505 365.9 343.46 511.28 305.77 468.21 467.31 322.82 505 365.9" style="fill:url(#linear-gradient-2);"/><polygon points="799.36 629.74 639.62 773.33 600.13 730.26 761.67 586.67 799.36 629.74" style="fill:url(#linear-gradient-3);"/><circle cx="824.49" cy="540" r="96.92" style="fill:url(#linear-gradient-4);"/><circle cx="549.87" cy="793.08" r="96.92" style="fill:url(#linear-gradient-5);"/><circle cx="255.51" cy="540" r="96.92" style="fill:url(#linear-gradient-6);"/><circle cx="549.87" cy="286.92" r="96.92" style="fill:url(#linear-gradient-7);"/></svg>