<?xml version="1.0" encoding="UTF-8"?><svg id="Layer_1" xmlns="http://www.w3.org/2000/svg" width="1080" height="1080" viewBox="0 0 1080 1080"><path d="M540,0h0c298.22,0,540,241.78,540,540h0c0,298.22-241.78,540-540,540h0C241.78,1080,0,838.22,0,540h0C0,241.78,241.78,0,540,0Z"/><path d="M527.21,855c-22.47,0-44.64-8.18-61.88-24.54-66.8-63.62-51.81-238.96,19.09-310.24,59.11-59.43,116.81-57.39,201.83-68.15,27.67-3.5,46.62-5.17,66.63-8.81,36.81-9.13,34.13-41.63,33.21-47.39-.92-5.76-9.19-36.83-41.52-32.9-48.95,5.76-113.91,39.39-176.41,63.32-87.74,33.93-179.8,79.08-247.83,71.2-41.87-4.85-74.81-34.24-81.58-75.44-6.47-40.9,12.62-79.08,51.11-96.35,63.73-29.09,187.8-31.81,254.6,21.81l-56.95,20.91c-68.04-29.69-143.16-13.33-172.4,6.67-17.24,11.21-20.32,25.45-18.47,37.87.92,5.76,7.08,24.54,30.79,27.27,53.26,6.06,138.54-36.36,219.2-67.56,66.19-25.45,134.54-60.29,190.88-66.96,59.73-6.67,97.28,34.54,104.06,79.38,6.46,44.54-19.7,105.44-78.82,115.13-25.86,4.24-41.47,7.96-76.48,11.17-53.96,4.95-117.78,1.76-159.03,45.69-21.24,22.73-37.87,60.69-42.79,114.62-4.93,53.93,3.39,99.98,21.86,117.25,13.24,12.73,32.02,10,42.48.3,35.1-32.42,36.33-103.01,5.85-220.26l57.26-22.42c32.94,122.1,39.41,226.93-22.78,284.79-17.86,15.75-39.72,23.63-61.88,23.63Z" style="fill:#fff;"/></svg>