<?xml version="1.0" encoding="UTF-8"?><svg id="Layer_1" xmlns="http://www.w3.org/2000/svg" width="1080" height="1080" viewBox="0 0 1080 1080"><path d="M540,0h0c298.22,0,540,241.78,540,540h0c0,298.22-241.78,540-540,540h0C241.78,1080,0,838.22,0,540h0C0,241.78,241.78,0,540,0Z"/><path d="M616.46,644.54c-.58,20.16-11.66,31.39-33.12,32.11-28.8,1.01-57.6,1.01-86.11,0-23.04-1.01-33.12-12.67-33.41-35.57-.29-13.97,0-27.94,0-42.05,0-14.83-.29-29.23,0-44.06.72-19.44,11.66-31.1,30.82-31.68,30.1-.72,60.19-.72,90,0,19.44.58,31.1,11.66,31.68,31.1,1.3,30.1,1.3,60.19.29,90h0l-.14.14Z" style="fill:#ff4c53;"/><path d="M864,324.72v441.79c0,32.69-9.79,42.77-42.05,42.77-23.9.29-47.38.29-70.99,0-30.53-.29-40.75-10.66-40.75-42.05v-309.02c0-29.52-3.89-33.41-32.69-33.41h-274.61c-29.52,0-33.7,4.46-33.7,34.7v305.42c0,36.29-8.35,44.64-45.36,44.64-23.9,0-47.38.29-70.99,0-25.2-.29-36.58-11.38-36.58-36.58-.58-152.21-.58-303.84-.29-455.47,0-31.68,16.56-46.66,49.97-46.94,91.44-.29,183.02,0,274.46,0h268.85c40.46,0,54.43,13.97,54.43,54.14h.29Z" style="fill:#ff4c53;"/></svg>