<?xml version="1.0" encoding="UTF-8"?><svg id="Layer_1" xmlns="http://www.w3.org/2000/svg" width="1080" height="1080" viewBox="0 0 1080 1080"><path d="M1080,540c0,298.23-241.77,540-540,540-102.45,0-198.24-28.53-279.85-78.09-35.32-21.43-67.98-46.8-97.37-75.51C62.35,828.34,0,691.45,0,540,0,241.77,241.77,0,540,0s540,241.77,540,540Z"/><polygon points="84.07 441.37 226.17 640 367.05 441.37 224.8 521.61 84.07 441.37" style="fill:#fff;"/><polygon points="995.93 640 853.83 441.37 713.1 640 855.2 559.76 995.93 640" style="fill:#fff;"/><polygon points="526.17 440 580.12 440 553.83 638.63 499.88 638.63 526.17 440" style="fill:#fff;"/></svg>