<?xml version="1.0" encoding="UTF-8"?><svg id="Layer_1" xmlns="http://www.w3.org/2000/svg" width="1080" height="1080" viewBox="0 0 1080 1080"><path d="M540,0h0c298.24,0,540,241.76,540,540h0c0,298.24-241.76,540-540,540h0C241.76,1080,0,838.24,0,540h0C0,241.76,241.76,0,540,0Z"/><g id="Layer_1-2"><g id="_390928512"><path id="_390763136" d="M369.63,433.63c0,34.47-27.95,62.42-62.42,62.42s-62.42-27.95-62.42-62.42,27.95-62.42,62.42-62.42,62.42,27.95,62.42,62.42h0Z" style="fill:#1b3cf7; fill-rule:evenodd;"/><path id="_390765632" d="M405.59,776.91h-78.21l-59.18-251.31c12.01,5.08,25.16,7.91,39.01,7.91,27.14,0,51.81-10.84,69.8-28.44l18.68,90.24,128.58-234.63h74.58l41.4,228.34,127.63-228.34h124.93l-239.11,416.23h-80.9l-44.93-218.45-122.26,218.45h-.01Z" style="fill:#1b3cf7; fill-rule:evenodd;"/></g></g></svg>