<?xml version="1.0" encoding="UTF-8"?><svg id="Layer_1" xmlns="http://www.w3.org/2000/svg" width="1080" height="1080" viewBox="0 0 1080 1080"><path d="M540,0h0c298.22,0,540,241.78,540,540h0c0,298.22-241.78,540-540,540h0C241.78,1080,0,838.22,0,540h0C0,241.78,241.78,0,540,0Z"/><path d="M702.72,478.94l97.92,60.62-97.92,60.62c7.06-18.72,11.66-39.6,11.66-60.62-1.15-22.18-4.61-42.05-11.66-60.62M378.43,478.94c-7.06,18.72-11.66,39.6-11.66,60.62s3.46,42.05,11.66,60.62l-97.92-60.62s97.92-60.62,97.92-60.62ZM540.58,401.9c75.74,0,136.51,61.78,136.51,137.66s-60.62,137.66-136.51,137.66-137.66-61.78-137.66-137.66,61.78-137.66,137.66-137.66M540.58,335.38l-17.42,10.51-67.68,42.05c-4.61,2.3-9.36,5.76-13.97,8.21l-229.82,143.42,229.82,143.42c4.61,3.46,9.36,5.76,13.97,9.36l83.95,52.42,82.8-51.26h1.15c4.61-2.3,10.51-5.76,15.12-9.36l229.82-144.58-229.82-143.42c-4.61-3.46-9.36-5.76-13.97-9.36l-83.95-51.26v-.14Z" style="fill:#fff;"/><path d="M902.16,572.26c-10.51,0-22.18,3.46-33.84,9.36l-293.9,183.17,3.46,2.3c8.21,4.61,18.72,8.21,31.54,8.21,10.51,0,22.18-2.3,33.84-9.36l58.32-36.14,234.43-148.18-3.46-2.3c-8.21-4.61-18.72-8.21-30.38-7.06" style="fill:#fff;"/><path d="M471.74,305.14c-10.51,0-22.18,3.46-33.84,9.36l-58.32,36.14-235.58,147.02c15.12,10.51,40.75,15.12,67.68,0l293.9-183.17-3.46-2.3c-7.06-4.61-17.57-8.21-30.38-7.06" style="fill:#fff;"/></svg>