<?xml version="1.0" encoding="UTF-8"?><svg id="Layer_1" xmlns="http://www.w3.org/2000/svg" width="1080" height="1080" viewBox="0 0 1080 1080"><path d="M540,0h0c298.22,0,540,241.78,540,540h0c0,298.22-241.78,540-540,540h0C241.78,1080,0,838.22,0,540h0C0,241.78,241.78,0,540,0Z"/><path d="M468.58,449.14c-18.14,0-35.28,5.47-50.26,14.98-14.98,10.22-26.64,24.34-32.98,40.9-7.06,16.42-8.64,34.56-4.75,52.56s11.81,33.84,24.34,46.37c12.53,12.53,29.09,21.17,46.37,25.2s35.28,1.58,51.84-4.75c16.56-6.34,30.67-18.86,40.9-33.84,10.22-14.98,14.98-32.26,14.98-50.26s-9.36-47.09-26.78-64.37c-17.28-16.56-40.03-26.64-63.65-26.64h0v-.14ZM468.58,588.96c-9.36,0-18.86-3.17-26.64-7.78s-14.11-12.53-18.14-22.03-4.75-18.86-2.3-28.22c1.58-9.36,6.34-18,13.39-25.2,7.06-7.2,15.7-11.81,25.06-13.39,9.36-1.58,18.86-.86,28.22,2.3,9.36,3.17,16.42,10.22,22.03,18,5.62,7.78,7.78,17.28,7.78,27.5s-4.75,25.2-14.11,34.56c-9.36,8.64-21.17,14.11-34.56,14.11h-.86l.14.14Z" style="fill:#fff;"/><path d="M672.77,449.14c-18,0-35.42,5.47-50.26,14.98-14.83,9.5-26.78,24.34-32.98,40.9-7.06,16.42-8.64,34.56-4.75,52.56s11.81,33.84,24.34,46.37c12.53,12.53,29.09,21.17,46.37,25.2,17.28,4.03,35.42,1.58,51.84-4.75,16.42-6.34,30.67-18.86,40.9-33.84,10.22-14.98,14.98-32.26,14.98-50.26s-9.36-47.09-26.78-64.37c-17.28-16.56-40.03-26.64-63.65-26.64h0v-.14ZM672.77,588.96c-9.36,0-18.86-3.17-26.78-7.78s-14.11-12.53-18-22.03c-3.89-8.64-4.75-18.86-2.3-28.22,1.58-9.36,6.34-18,13.39-25.2,7.06-7.2,15.7-11.81,25.2-13.39,9.5-1.58,18.86-.86,28.22,2.3,9.36,3.17,16.42,10.22,22.03,18,5.62,7.78,7.78,17.28,7.78,27.5s-4.75,25.2-14.11,34.56c-9.36,8.64-21.17,14.11-34.56,14.11h-.86v.14Z" style="fill:#fff;"/><path d="M371.09,450.72h-44.06l-20.45,66.82h43.2l21.17-66.82h.14Z" style="fill:#fff;"/><path d="M269.86,514.22l22.03,50.98,7.78-25.92h43.2l-24.34,80.06c-1.58,6.34-7.78,10.22-14.11,10.22h-24.34c-6.34,0-11.81-3.89-14.11-9.36l-26.64-65.95-26.64,65.95c-2.3,5.47-7.78,9.36-14.11,9.36h-24.34c-6.34,0-12.53-3.89-14.11-10.22l-51.84-168.91h43.2l33.84,114.62,22.75-51.84c4.75-12.53,17.28-21.17,30.67-21.17s25.92,8.64,31.39,22.03h0l-.29.14Z" style="fill:#fff;"/><path d="M858.82,491.47l-30.67-40.9h-54.14l58.18,76.18,26.78-35.42h0l-.14.14Z" style="fill:#90c98c;"/><path d="M968.11,450.72h-54.14l-135.94,179.14h54.14l135.94-179.14Z" style="fill:#90c98c;"/><path d="M917.86,629.71l-30.67-40.9,26.78-35.42,58.18,76.18h-54.14l-.14.14Z" style="fill:#90c98c;"/></svg>