<?xml version="1.0" encoding="UTF-8"?><svg id="Layer_1" xmlns="http://www.w3.org/2000/svg" width="1080" height="1080" viewBox="0 0 1080 1080"><path d="M1080,540c0,298.23-241.77,540-540,540-102.45,0-198.24-28.53-279.85-78.09-35.32-21.43-67.98-46.8-97.37-75.51C62.35,828.34,0,691.45,0,540,0,241.77,241.77,0,540,0s540,241.77,540,540Z"/><path d="M733.87,215c8.49.16,14.31,2.76,20.91,7.79,34.85,26.59,67.47,73.92,102.41,102.41,12.56,16.46,9.38,33.17-4,47.79l-164.19,163.96-1.72,3.76,168.82,169.34c12.68,16.62,10.71,32.19-1.89,47.72-17.98,22.16-76.46,81.5-98.52,98.33-13.14,10.03-29.57,12.16-42.75,1.09l-171.96-172.01-169.08,168.92c-12,11.78-28.53,14.48-43.36,5.69l-107.57-107.18c-7.44-11.19-7.97-23.45-1.93-35.46,164.73-168.27,331.24-336.02,500.41-499.78,3.65-1.53,10.44-2.46,14.43-2.39Z" style="fill:#ffbe41;"/><path d="M338.61,216.36c13.56-2.53,21.98.25,32.37,8.45,22.21,17.53,80.92,76.22,98.43,98.43,14.04,17.8,11.75,32.8-1.98,49.75-18.98,23.43-71.02,75.48-94.45,94.45-14.76,11.96-29.44,16.6-45.8,4-29.3-35.68-76.93-68.75-104.39-104.39-12.65-16.42-7.88-31.14,4-45.8,19.54-24.11,70.34-74.58,94.45-94.45,4.95-4.08,11.07-9.26,17.39-10.44Z" style="fill:#ffbe41;"/></svg>