<?xml version="1.0" encoding="UTF-8"?><svg id="Layer_1" xmlns="http://www.w3.org/2000/svg" width="1080" height="1080" viewBox="0 0 1080 1080"><path d="M540,0h0c298.22,0,540,241.78,540,540h0c0,298.22-241.78,540-540,540h0C241.78,1080,0,838.22,0,540h0C0,241.78,241.78,0,540,0Z"/><path d="M433.58,248.4c-2.74-.72-5.18-2.16-7.34-4.18-6.34-6.34-6.34-16.85,0-23.33s16.85-6.48,23.33,0c3.6,3.6,4.61,8.21,4.75,13.25.72,4.46,1.3,11.09,4.46,14.4,3.31,3.46,15.26,5.18,15.26,5.18,0,0,9.5,1.15,13.1,4.75,6.48,6.34,6.34,16.85,0,23.33-6.48,6.48-16.85,6.48-23.33,0-4.18-4.18-4.18-7.34-4.18-7.34,0,0-1.01-13.82-6.48-19.3-5.47-5.33-19.58-6.62-19.58-6.62h0v-.14Z" style="fill:#fff;"/><path d="M472.18,286.85c-2.74-.72-5.18-2.16-7.34-4.18-6.34-6.34-6.34-16.85,0-23.33s16.85-6.48,23.33,0c3.6,3.6,4.61,8.21,4.75,13.25.72,4.46,1.3,11.09,4.61,14.4,3.31,3.46,15.26,5.18,15.26,5.18,0,0,9.5,1.15,13.1,4.75,6.34,6.34,6.34,16.85,0,23.33-6.48,6.48-16.85,6.48-23.18,0-4.18-4.18-4.18-7.34-4.18-7.34,0,0-1.01-13.82-6.48-19.3-5.47-5.33-19.58-6.62-19.58-6.62h0l-.29-.14Z" style="fill:#fff;"/><path d="M510.62,325.44c-2.74-.72-5.18-2.16-7.34-4.18-6.34-6.34-6.34-16.85,0-23.33,6.48-6.48,16.85-6.48,23.18,0,3.6,3.6,4.61,8.21,4.75,13.25.72,4.46,1.3,11.09,4.61,14.4,3.31,3.46,15.26,5.18,15.26,5.18,0,0,9.5,1.15,13.1,4.75,6.34,6.34,6.34,16.85,0,23.33-6.48,6.48-16.85,6.48-23.18,0-4.18-4.18-4.18-7.34-4.18-7.34,0,0-1.01-13.82-6.48-19.3-5.47-5.33-19.58-6.62-19.58-6.62h0l-.14-.14Z" style="fill:#fff;"/><path d="M549.22,363.89c-2.74-.72-5.18-2.16-7.34-4.18-6.34-6.34-6.34-16.85,0-23.33,6.48-6.48,16.85-6.48,23.18,0,3.6,3.6,4.61,8.21,4.75,13.25.72,4.46,1.3,11.09,4.61,14.4,3.31,3.46,15.26,5.18,15.26,5.18,0,0,9.5,1.15,13.1,4.75,6.34,6.34,6.34,16.85,0,23.33-6.48,6.48-16.85,6.48-23.18,0-4.18-4.18-4.18-7.34-4.18-7.34,0,0-1.01-13.82-6.48-19.3-5.47-5.33-19.58-6.62-19.58-6.62h0l-.14-.14Z" style="fill:#fff;"/><path d="M587.81,402.48c-2.74-.72-5.18-2.16-7.34-4.18-6.34-6.34-6.34-16.85,0-23.33,6.48-6.48,16.85-6.48,23.18,0,3.6,3.6,4.61,8.21,4.75,13.25.72,4.46,1.3,11.09,4.61,14.4,3.31,3.46,15.26,5.18,15.26,5.18,0,0,9.5,1.15,13.1,4.75,6.34,6.34,6.34,16.85,0,23.33-6.48,6.48-16.85,6.48-23.18,0-4.18-4.18-4.18-7.34-4.18-7.34,0,0-1.01-13.82-6.48-19.3-5.47-5.33-19.58-6.62-19.58-6.62h0l-.14-.14Z" style="fill:#fff;"/><path d="M626.26,441.07c-2.74-.72-5.18-2.16-7.34-4.18-6.34-6.34-6.34-16.85,0-23.33,6.48-6.48,16.85-6.48,23.18,0,3.6,3.6,4.61,8.21,4.75,13.25.72,4.46,1.3,11.09,4.61,14.4,3.31,3.46,15.26,5.18,15.26,5.18,0,0,9.5,1.15,13.1,4.75,6.34,6.34,6.34,16.85,0,23.33-6.48,6.48-16.85,6.48-23.18,0-4.18-4.18-4.18-7.34-4.18-7.34,0,0-1.01-13.82-6.48-19.3-5.47-5.33-19.58-6.62-19.58-6.62h0l-.14-.14Z" style="fill:#fff;"/><path d="M507.46,248.4c-2.74-.72-5.18-2.16-7.34-4.18-6.34-6.34-6.34-16.85,0-23.33,6.48-6.48,16.85-6.48,23.18,0,3.6,3.6,4.61,8.21,4.75,13.25.72,4.46,1.3,11.09,4.61,14.4,3.31,3.46,15.26,5.18,15.26,5.18,0,0,9.5,1.15,13.1,4.75,6.34,6.34,6.34,16.85,0,23.33-6.48,6.48-16.85,6.48-23.18,0-4.18-4.18-4.18-7.34-4.18-7.34,0,0-1.01-13.82-6.48-19.3-5.47-5.33-19.58-6.62-19.58-6.62h0l-.14-.14Z" style="fill:#fff;"/><path d="M545.9,286.85c-2.74-.72-5.18-2.16-7.34-4.18-6.34-6.34-6.34-16.85,0-23.33,6.48-6.48,16.85-6.48,23.18,0,3.6,3.6,4.61,8.21,4.75,13.25.72,4.46,1.3,11.09,4.61,14.4,3.31,3.46,15.26,5.18,15.26,5.18,0,0,9.5,1.15,13.1,4.75,6.34,6.34,6.34,16.85,0,23.33-6.48,6.48-16.85,6.48-23.18,0-4.18-4.18-4.18-7.34-4.18-7.34,0,0-1.01-13.82-6.48-19.3-5.47-5.33-19.58-6.62-19.58-6.62h0l-.14-.14Z" style="fill:#fff;"/><path d="M584.5,325.44c-2.74-.72-5.18-2.16-7.34-4.18-6.34-6.34-6.34-16.85,0-23.33,6.48-6.48,16.85-6.48,23.18,0,3.6,3.6,4.61,8.21,4.75,13.25.72,4.46,1.3,11.09,4.61,14.4,3.31,3.46,15.26,5.18,15.26,5.18,0,0,9.5,1.15,13.1,4.75,6.34,6.34,6.34,16.85,0,23.33-6.48,6.48-16.85,6.48-23.18,0-4.18-4.18-4.18-7.34-4.18-7.34,0,0-1.01-13.82-6.48-19.3-5.47-5.33-19.58-6.62-19.58-6.62h0l-.14-.14Z" style="fill:#fff;"/><path d="M622.94,363.89c-2.74-.72-5.18-2.16-7.34-4.18-6.34-6.34-6.34-16.85,0-23.33,6.48-6.48,16.85-6.48,23.18,0,3.6,3.6,4.61,8.21,4.75,13.25.72,4.46,1.3,11.09,4.61,14.4,3.31,3.46,15.26,5.18,15.26,5.18,0,0,9.5,1.15,13.1,4.75,6.34,6.34,6.34,16.85,0,23.33-6.34,6.48-16.85,6.48-23.18,0-4.18-4.18-4.18-7.34-4.18-7.34,0,0-1.01-13.82-6.48-19.3-5.47-5.33-19.58-6.62-19.58-6.62h0l-.14-.14Z" style="fill:#fff;"/><path d="M661.54,402.48c-2.74-.72-5.18-2.16-7.34-4.18-6.34-6.34-6.34-16.85,0-23.33,6.48-6.48,16.85-6.48,23.18,0,3.6,3.6,4.61,8.21,4.75,13.25.72,4.46,1.3,11.09,4.61,14.4,3.31,3.46,15.26,5.18,15.26,5.18,0,0,9.5,1.15,13.1,4.75,6.34,6.34,6.34,16.85,0,23.33-6.48,6.48-16.85,6.48-23.18,0-4.18-4.18-4.18-7.34-4.18-7.34,0,0-1.01-13.82-6.48-19.3-5.47-5.33-19.58-6.62-19.58-6.62h0l-.14-.14Z" style="fill:#fff;"/><path d="M700.13,441.07c-2.74-.72-5.18-2.16-7.34-4.18-6.34-6.34-6.34-16.85,0-23.33,6.48-6.48,16.85-6.48,23.18,0,3.6,3.6,4.61,8.21,4.75,13.25.72,4.46,1.3,11.09,4.61,14.4,3.31,3.46,15.26,5.18,15.26,5.18,0,0,9.5,1.15,13.1,4.75,6.34,6.34,6.34,16.85,0,23.33-6.48,6.48-16.85,6.48-23.18,0-4.18-4.18-4.18-7.34-4.18-7.34,0,0-1.01-13.82-6.48-19.3-5.47-5.33-19.58-6.62-19.58-6.62h0l-.14-.14Z" style="fill:#fff;"/><path d="M652.18,459.22c.72-2.74,2.16-5.18,4.18-7.34,6.34-6.34,16.85-6.34,23.18,0,6.34,6.34,6.48,16.85,0,23.33-3.6,3.6-8.21,4.61-13.25,4.75-4.46.72-11.09,1.3-14.4,4.46-3.46,3.31-5.18,15.26-5.18,15.26,0,0-1.15,9.5-4.75,13.1-6.34,6.34-16.85,6.34-23.18,0s-6.48-16.85,0-23.33c4.18-4.18,7.34-4.18,7.34-4.18,0,0,13.82-1.01,19.3-6.48,5.33-5.47,6.62-19.58,6.62-19.58h.14Z" style="fill:#fff;"/><path d="M613.73,497.81c.72-2.74,2.16-5.18,4.18-7.34,6.34-6.34,16.85-6.34,23.18,0,6.34,6.34,6.48,16.85,0,23.18-3.6,3.6-8.21,4.61-13.25,4.75-4.46.72-11.09,1.3-14.4,4.61-3.46,3.31-5.18,15.26-5.18,15.26,0,0-1.15,9.5-4.75,13.1-6.34,6.34-16.85,6.34-23.18,0-6.34-6.34-6.48-16.85,0-23.18,4.18-4.18,7.34-4.18,7.34-4.18,0,0,13.82-1.01,19.3-6.48,5.33-5.47,6.62-19.58,6.62-19.58h0l.14-.14Z" style="fill:#fff;"/><path d="M575.14,536.4c.72-2.74,2.16-5.18,4.18-7.34,6.34-6.34,16.85-6.34,23.18,0,6.34,6.34,6.48,16.85,0,23.18-3.6,3.6-8.21,4.61-13.25,4.75-4.46.72-11.09,1.3-14.4,4.61-3.46,3.31-5.18,15.26-5.18,15.26,0,0-1.15,9.5-4.75,13.1-6.34,6.34-16.85,6.34-23.18,0s-6.48-16.85,0-23.18c4.18-4.18,7.34-4.18,7.34-4.18,0,0,13.82-1.01,19.3-6.48,5.33-5.47,6.62-19.58,6.62-19.58h0l.14-.14Z" style="fill:#fff;"/><path d="M726.05,459.22c.72-2.74,2.16-5.18,4.18-7.34,6.34-6.34,16.85-6.34,23.18,0,6.48,6.48,6.48,16.85,0,23.33-3.6,3.6-8.21,4.61-13.25,4.75-4.46.72-11.09,1.3-14.4,4.46-3.46,3.31-5.18,15.26-5.18,15.26,0,0-1.15,9.5-4.75,13.1-6.34,6.34-16.85,6.34-23.18,0-6.34-6.34-6.48-16.85,0-23.33,4.18-4.18,7.34-4.18,7.34-4.18,0,0,13.82-1.01,19.3-6.48,5.33-5.47,6.62-19.58,6.62-19.58h.14Z" style="fill:#fff;"/><path d="M687.46,497.81c.72-2.74,2.16-5.18,4.18-7.34,6.34-6.34,16.85-6.34,23.18,0,6.48,6.48,6.48,16.85,0,23.18-3.6,3.6-8.21,4.61-13.25,4.75-4.46.72-11.09,1.3-14.4,4.61-3.46,3.31-5.18,15.26-5.18,15.26,0,0-1.15,9.5-4.75,13.1-6.34,6.34-16.85,6.34-23.18,0s-6.48-16.85,0-23.18c4.18-4.18,7.34-4.18,7.34-4.18,0,0,13.82-1.01,19.3-6.48,5.33-5.47,6.62-19.58,6.62-19.58h0l.14-.14Z" style="fill:#fff;"/><path d="M649.01,536.4c.72-2.74,2.16-5.18,4.18-7.34,6.34-6.34,16.85-6.34,23.18,0,6.34,6.34,6.48,16.85,0,23.18-3.6,3.6-8.21,4.61-13.25,4.75-4.46.72-11.09,1.3-14.4,4.61-3.46,3.31-5.18,15.26-5.18,15.26,0,0-1.15,9.5-4.75,13.1-6.34,6.34-16.85,6.34-23.18,0-6.34-6.34-6.48-16.85,0-23.18,4.18-4.18,7.34-4.18,7.34-4.18,0,0,13.82-1.01,19.3-6.48,5.33-5.47,6.62-19.58,6.62-19.58h0l.14-.14Z" style="fill:#fff;"/><path d="M610.42,574.85c.72-2.74,2.16-5.18,4.18-7.34,6.34-6.34,16.85-6.34,23.18,0,6.34,6.34,6.48,16.85,0,23.18-3.6,3.6-8.21,4.61-13.25,4.75-4.46.72-11.09,1.3-14.4,4.61-3.46,3.31-5.18,15.26-5.18,15.26,0,0-1.15,9.5-4.75,13.1-6.34,6.34-16.85,6.34-23.18,0s-6.48-16.85,0-23.18c4.18-4.18,7.34-4.18,7.34-4.18,0,0,13.82-1.01,19.3-6.48,5.33-5.47,6.62-19.58,6.62-19.58h0l.14-.14Z" style="fill:#fff;"/><path d="M646.42,831.6c2.74.72,5.18,2.16,7.34,4.18,6.34,6.34,6.34,16.85,0,23.18-6.48,6.48-16.85,6.48-23.18,0-3.6-3.6-4.61-8.21-4.75-13.25-.72-4.46-1.3-11.09-4.61-14.4-3.31-3.46-15.26-5.18-15.26-5.18,0,0-9.5-1.15-13.1-4.75-6.34-6.34-6.34-16.85,0-23.18,6.48-6.48,16.85-6.48,23.18,0,4.18,4.18,4.18,7.34,4.18,7.34,0,0,1.01,13.82,6.48,19.15,5.47,5.33,19.58,6.62,19.58,6.62h0l.14.29Z" style="fill:#fff;"/><path d="M607.82,793.15c2.74.72,5.18,2.16,7.34,4.18,6.34,6.34,6.34,16.85,0,23.18-6.34,6.34-16.85,6.48-23.18,0-3.6-3.6-4.61-8.21-4.75-13.25-.72-4.46-1.3-11.09-4.61-14.4-3.31-3.46-15.26-5.18-15.26-5.18,0,0-9.5-1.15-13.1-4.75-6.34-6.34-6.34-16.85,0-23.18,6.34-6.34,16.85-6.48,23.18,0,4.18,4.18,4.18,7.34,4.18,7.34,0,0,1.01,13.82,6.48,19.3,5.47,5.33,19.58,6.62,19.58,6.62h0l.14.14Z" style="fill:#fff;"/><path d="M569.38,754.56c2.74.72,5.18,2.16,7.34,4.18,6.34,6.34,6.34,16.85,0,23.18-6.34,6.34-16.85,6.48-23.18,0-3.6-3.6-4.61-8.21-4.75-13.25-.72-4.46-1.3-11.09-4.61-14.4-3.31-3.46-15.26-5.18-15.26-5.18,0,0-9.5-1.15-13.1-4.75-6.34-6.34-6.34-16.85,0-23.18s16.85-6.48,23.18,0c4.18,4.18,4.18,7.34,4.18,7.34,0,0,1.01,13.82,6.48,19.15,5.47,5.33,19.58,6.62,19.58,6.62h0l.14.29Z" style="fill:#fff;"/><path d="M530.78,716.11c2.74.72,5.18,2.16,7.34,4.18,6.34,6.34,6.34,16.85,0,23.18s-16.85,6.48-23.18,0c-3.6-3.6-4.61-8.21-4.75-13.25-.72-4.46-1.3-11.09-4.61-14.4-3.31-3.46-15.26-5.18-15.26-5.18,0,0-9.5-1.15-13.1-4.75-6.34-6.34-6.34-16.85,0-23.18,6.48-6.48,16.85-6.48,23.18,0,4.18,4.18,4.18,7.34,4.18,7.34,0,0,1.01,13.82,6.48,19.3,5.47,5.33,19.58,6.62,19.58,6.62h0l.14.14Z" style="fill:#fff;"/><path d="M492.19,677.52c2.74.72,5.18,2.16,7.34,4.18,6.34,6.34,6.34,16.85,0,23.18-6.34,6.34-16.85,6.48-23.33,0-3.6-3.6-4.61-8.21-4.75-13.25-.72-4.46-1.3-11.09-4.46-14.4-3.31-3.46-15.26-5.18-15.26-5.18,0,0-9.5-1.15-13.1-4.75-6.34-6.34-6.34-16.85,0-23.18,6.48-6.48,16.85-6.48,23.33,0,4.18,4.18,4.18,7.34,4.18,7.34,0,0,1.01,13.82,6.48,19.3,5.47,5.33,19.58,6.62,19.58,6.62h0v.14Z" style="fill:#fff;"/><path d="M453.74,638.93c2.74.72,5.18,2.16,7.34,4.18,6.34,6.34,6.34,16.85,0,23.18-6.48,6.48-16.85,6.48-23.33,0-3.6-3.6-4.61-8.21-4.75-13.25-.72-4.46-1.3-11.09-4.46-14.4-3.31-3.46-15.26-5.18-15.26-5.18,0,0-9.5-1.15-13.1-4.75-6.34-6.34-6.34-16.85,0-23.18,6.48-6.48,16.85-6.48,23.33,0,4.18,4.18,4.18,7.34,4.18,7.34,0,0,1.01,13.82,6.48,19.3,5.47,5.33,19.58,6.62,19.58,6.62h0v.14Z" style="fill:#fff;"/><path d="M572.54,831.6c2.74.72,5.18,2.16,7.34,4.18,6.34,6.34,6.34,16.85,0,23.18s-16.85,6.48-23.18,0c-3.6-3.6-4.61-8.21-4.75-13.25-.72-4.46-1.3-11.09-4.61-14.4-3.31-3.46-15.26-5.18-15.26-5.18,0,0-9.5-1.15-13.1-4.75-6.34-6.34-6.34-16.85,0-23.18s16.85-6.48,23.18,0c4.18,4.18,4.18,7.34,4.18,7.34,0,0,1.01,13.82,6.48,19.15s19.58,6.62,19.58,6.62h0l.14.29Z" style="fill:#fff;"/><path d="M534.1,793.15c2.74.72,5.18,2.16,7.34,4.18,6.34,6.34,6.34,16.85,0,23.18s-16.85,6.48-23.18,0c-3.6-3.6-4.61-8.21-4.75-13.25-.72-4.46-1.3-11.09-4.61-14.4-3.31-3.46-15.26-5.18-15.26-5.18,0,0-9.5-1.15-13.1-4.75-6.34-6.34-6.34-16.85,0-23.18,6.48-6.48,16.85-6.48,23.18,0,4.18,4.18,4.18,7.34,4.18,7.34,0,0,1.01,13.82,6.48,19.3,5.47,5.33,19.58,6.62,19.58,6.62h0l.14.14Z" style="fill:#fff;"/><path d="M495.5,754.56c2.74.72,5.18,2.16,7.34,4.18,6.34,6.34,6.34,16.85,0,23.18s-16.85,6.48-23.33,0c-3.6-3.6-4.61-8.21-4.75-13.25-.72-4.46-1.3-11.09-4.46-14.4-3.31-3.46-15.26-5.18-15.26-5.18,0,0-9.5-1.15-13.1-4.75-6.34-6.34-6.34-16.85,0-23.18,6.48-6.48,16.85-6.48,23.33,0,4.18,4.18,4.18,7.34,4.18,7.34,0,0,1.01,13.82,6.48,19.15s19.58,6.62,19.58,6.62h0v.29Z" style="fill:#fff;"/><path d="M457.06,716.11c2.74.72,5.33,2.16,7.34,4.18,6.34,6.34,6.34,16.85,0,23.18-6.48,6.48-16.85,6.48-23.33,0-3.6-3.6-4.61-8.21-4.75-13.25-.72-4.46-1.3-11.09-4.46-14.4-3.31-3.46-15.26-5.18-15.26-5.18,0,0-9.5-1.15-13.1-4.75-6.34-6.34-6.34-16.85,0-23.18,6.48-6.48,16.85-6.48,23.33,0,4.18,4.18,4.18,7.34,4.18,7.34,0,0,1.01,13.82,6.48,19.3,5.47,5.33,19.58,6.62,19.58,6.62h0v.14Z" style="fill:#fff;"/><path d="M418.46,677.52c2.74.72,5.18,2.16,7.34,4.18,6.34,6.34,6.34,16.85,0,23.18s-16.85,6.48-23.33,0c-3.6-3.6-4.61-8.21-4.75-13.25-.72-4.46-1.3-11.09-4.46-14.4-3.31-3.46-15.26-5.18-15.26-5.18,0,0-9.5-1.15-13.1-4.75-6.34-6.34-6.34-16.85,0-23.18,6.48-6.48,16.85-6.48,23.33,0,4.18,4.18,4.18,7.34,4.18,7.34,0,0,1.01,13.82,6.48,19.3,5.47,5.33,19.58,6.62,19.58,6.62h0v.14Z" style="fill:#fff;"/><path d="M379.87,638.93c2.74.72,5.18,2.16,7.34,4.18,6.34,6.34,6.34,16.85,0,23.18-6.48,6.48-16.85,6.48-23.33,0-3.6-3.6-4.61-8.21-4.75-13.25-.72-4.46-1.3-11.09-4.46-14.4-3.31-3.46-15.26-5.18-15.26-5.18,0,0-9.5-1.15-13.1-4.75-6.34-6.34-6.34-16.85,0-23.18,6.48-6.48,16.85-6.48,23.33,0,4.18,4.18,4.18,7.34,4.18,7.34,0,0,1.01,13.82,6.48,19.3,5.47,5.33,19.58,6.62,19.58,6.62h0v.14Z" style="fill:#fff;"/><path d="M427.82,620.78c-.72,2.74-2.16,5.18-4.18,7.34-6.34,6.34-16.85,6.34-23.33,0-6.48-6.48-6.48-16.85,0-23.18,3.6-3.6,8.21-4.61,13.25-4.75,4.46-.72,11.09-1.3,14.4-4.61,3.46-3.31,5.18-15.26,5.18-15.26,0,0,1.15-9.5,4.75-13.1,6.34-6.34,16.85-6.34,23.33,0,6.48,6.48,6.48,16.85,0,23.18-4.18,4.18-7.34,4.18-7.34,4.18,0,0-13.82,1.01-19.3,6.48-5.33,5.47-6.62,19.58-6.62,19.58h0l-.14.14Z" style="fill:#fff;"/><path d="M466.27,582.19c-.72,2.74-2.16,5.18-4.18,7.34-6.34,6.34-16.85,6.34-23.33,0-6.48-6.48-6.48-16.85,0-23.18,3.6-3.6,8.21-4.61,13.25-4.75,4.46-.72,11.09-1.3,14.4-4.61,3.46-3.31,5.18-15.26,5.18-15.26,0,0,1.15-9.5,4.75-13.1,6.34-6.34,16.85-6.34,23.33,0s6.48,16.85,0,23.18c-4.18,4.18-7.34,4.18-7.34,4.18,0,0-13.82,1.01-19.3,6.48-5.33,5.47-6.62,19.58-6.62,19.58h0l-.14.14Z" style="fill:#fff;"/><path d="M504.86,543.6c-.72,2.74-2.16,5.18-4.18,7.34-6.34,6.34-16.85,6.34-23.33,0-6.48-6.34-6.48-16.85,0-23.18,3.6-3.6,8.21-4.61,13.25-4.75,4.46-.72,11.09-1.3,14.4-4.61,3.46-3.31,5.18-15.26,5.18-15.26,0,0,1.15-9.5,4.75-13.1,6.34-6.34,16.85-6.34,23.18,0,6.34,6.34,6.48,16.85,0,23.18-4.18,4.18-7.34,4.18-7.34,4.18,0,0-13.82,1.01-19.3,6.48-5.33,5.47-6.62,19.58-6.62,19.58h0v.14Z" style="fill:#fff;"/><path d="M353.95,620.78c-.72,2.74-2.16,5.18-4.18,7.34-6.34,6.34-16.85,6.34-23.33,0-6.48-6.48-6.48-16.85,0-23.18,3.6-3.6,8.21-4.61,13.25-4.75,4.46-.72,11.09-1.3,14.4-4.61,3.46-3.31,5.18-15.26,5.18-15.26,0,0,1.15-9.5,4.75-13.1,6.34-6.34,16.85-6.34,23.33,0,6.48,6.48,6.48,16.85,0,23.18-4.18,4.18-7.34,4.18-7.34,4.18,0,0-13.82,1.01-19.3,6.48-5.33,5.47-6.62,19.58-6.62,19.58h0l-.14.14Z" style="fill:#fff;"/><path d="M392.54,582.19c-.72,2.74-2.16,5.18-4.18,7.34-6.34,6.34-16.85,6.34-23.33,0-6.48-6.48-6.48-16.85,0-23.18,3.6-3.6,8.21-4.61,13.25-4.75,4.46-.72,11.09-1.3,14.4-4.61,3.46-3.31,5.18-15.26,5.18-15.26,0,0,1.15-9.5,4.75-13.1,6.34-6.34,16.85-6.34,23.33,0s6.48,16.85,0,23.18c-4.18,4.18-7.34,4.18-7.34,4.18,0,0-13.82,1.01-19.3,6.48-5.33,5.47-6.62,19.58-6.62,19.58h0l-.14.14Z" style="fill:#fff;"/><path d="M430.99,543.6c-.72,2.74-2.16,5.18-4.18,7.34-6.34,6.34-16.85,6.34-23.33,0-6.48-6.48-6.48-16.85,0-23.18,3.6-3.6,8.21-4.61,13.25-4.75,4.46-.72,11.09-1.3,14.4-4.61,3.46-3.31,5.18-15.26,5.18-15.26,0,0,1.15-9.5,4.75-13.1,6.34-6.34,16.85-6.34,23.33,0,6.48,6.48,6.48,16.85,0,23.18-4.18,4.18-7.34,4.18-7.34,4.18,0,0-13.82,1.01-19.3,6.48-5.33,5.47-6.62,19.58-6.62,19.58h0l-.14.14Z" style="fill:#fff;"/><path d="M469.58,505.15c-.72,2.74-2.16,5.18-4.18,7.34-6.34,6.34-16.85,6.34-23.33,0-6.48-6.48-6.48-16.85,0-23.33,3.6-3.6,8.21-4.61,13.25-4.75,4.46-.72,11.09-1.3,14.4-4.46,3.46-3.31,5.18-15.26,5.18-15.26,0,0,1.15-9.5,4.75-13.1,6.34-6.34,16.85-6.34,23.18,0,6.48,6.48,6.48,16.85,0,23.33-4.18,4.18-7.34,4.18-7.34,4.18,0,0-13.82,1.01-19.3,6.48-5.33,5.33-6.62,19.58-6.62,19.58h0Z" style="fill:#fff;"/></svg>