<?xml version="1.0" encoding="UTF-8"?><svg id="Layer_1" xmlns="http://www.w3.org/2000/svg" width="1080" height="1080" viewBox="0 0 1080 1080"><circle cx="540" cy="540" r="540"/><path d="M755.748,567.647l-205.687-348.886c-.996-1.722-2.439-3.159-4.18-4.161-1.744-1.003-3.724-1.537-5.748-1.549-2.021-.013-4.01.497-5.767,1.477-1.757.981-3.215,2.398-4.234,4.108l-61.602,104.541c-2.018,3.423-3.08,7.304-3.08,11.255s1.062,7.835,3.08,11.255l134.122,227.603c2.021,3.426,4.925,6.27,8.423,8.244,3.498,1.977,7.468,3.014,11.506,3.011h123.204c2.018-.006,3.998-.531,5.742-1.521s3.193-2.414,4.202-4.124,1.54-3.649,1.543-5.626c.003-1.977-.522-3.916-1.524-5.632v.006Z" style="fill:#383fef;"/><path d="M216.587,749.991l205.687-348.889c1.009-1.71,2.461-3.127,4.208-4.114,1.744-.987,3.724-1.505,5.742-1.505s3.998.519,5.742,1.505c1.747.987,3.196,2.404,4.205,4.114l61.633,104.447c2.018,3.429,3.08,7.317,3.08,11.271s-1.062,7.845-3.08,11.271l-134.122,227.603c-2.011,3.426-4.912,6.27-8.404,8.247-3.492,1.977-7.458,3.014-11.494,3.011h-123.235c-2.03.009-4.026-.506-5.786-1.496s-3.222-2.42-4.234-4.146c-1.012-1.722-1.54-3.677-1.531-5.667.009-1.989.556-3.938,1.587-5.654v.003Z" style="fill:#383fef;"/><path d="M442.141,766.878h411.378c2.018,0,4.001-.525,5.745-1.515,1.747-.99,3.196-2.414,4.202-4.127s1.537-3.655,1.534-5.632c-.003-1.977-.537-3.916-1.549-5.626l-61.539-104.509c-2.021-3.426-4.925-6.27-8.423-8.247-3.498-1.977-7.468-3.014-11.506-3.011h-268.245c-4.039-.003-8.008,1.034-11.506,3.011-3.498,1.977-6.405,4.821-8.423,8.247l-61.602,104.509c-1.012,1.71-1.546,3.649-1.549,5.626s.525,3.919,1.531,5.632c1.006,1.713,2.458,3.137,4.205,4.127s3.728,1.512,5.745,1.515h.003Z" style="fill:#383fef;"/></svg>