<?xml version="1.0" encoding="UTF-8"?><svg id="Layer_1" xmlns="http://www.w3.org/2000/svg" width="1080" height="1080" viewBox="0 0 1080 1080"><path d="M540,0h0c298.22,0,540,241.78,540,540h0c0,298.22-241.78,540-540,540h0C241.78,1080,0,838.22,0,540h0C0,241.78,241.78,0,540,0Z" style="fill:#8c13ff;"/><path d="M423.36,442.8h122.54c21.6,0,42.91,4.9,62.35,14.4,74.45,36.86,109.44,115.92,87.12,194.83-2.88,10.37-7.06,20.45-12.38,29.81-38.88,69.12-115.92,100.51-192.38,77.9-8.78-2.59-17.28-6.19-25.34-10.51-55.58-30.24-87.41-84.82-87.41-144.29v-18.86c-36.43,0-70.7-13.54-97.2-38.3v72.86c0,73.01,51.84,172.22,134.35,212.83,117.36,57.89,234.86,27.94,308.16-45.36,46.94-46.94,75.89-111.74,75.89-183.46s-28.94-136.51-75.89-183.46c-46.94-46.94-111.74-76.03-183.31-76.03h-116.93l.29,97.2h0v.43h.14Z" style="fill:#f9f8ff;"/><path d="M378,313.92v226.8c-53.71,0-97.2-43.49-97.2-97.2v-226.8c26.78,0,51.12,10.94,68.69,28.51,17.57,17.57,28.51,41.9,28.51,68.69Z" style="fill:#f9f8ff;"/><path d="M378,313.34v227.23c-53.71,0-97.2-43.63-97.2-97.34v-227.23c26.78,0,51.12,10.94,68.69,28.51,17.57,17.57,28.51,42.05,28.51,68.83Z" style="fill:#00f5b9;"/></svg>