<?xml version="1.0" encoding="UTF-8"?><svg id="Layer_1" xmlns="http://www.w3.org/2000/svg" width="1080" height="1080" viewBox="0 0 1080 1080"><circle cx="540" cy="540" r="540" style="fill:#fff;"/><path d="M839.93,302.07c-69.27,0-137.76,17.46-198.1,50.51-32.32,17.7-62.16,39.65-88.67,65.29-6.24,6-12.35,12.28-18.19,18.7-19.55,21.47-36.89,45.04-51.45,70.02-5.17,8.97-10.9,17.72-17.03,26.07-.81,1.09-1.58,2.18-2.45,3.25-53.62,70.72-135.3,111.26-224.11,111.26v130.66c69.27,0,137.76-17.46,198.1-50.49,32.25-17.65,62.09-39.65,88.67-65.29,6.24-6.02,12.35-12.31,18.22-18.7,19.57-21.49,36.85-45.01,51.41-70.02l.96-1.61c4.93-8.42,10.36-16.63,16.07-24.44.81-1.07,1.62-2.18,2.47-3.32,53.6-70.7,135.3-111.26,224.11-111.26v-130.64Z" style="fill:#2954fe;"/><path d="M839.93,647.22c-88.8,0-170.51-40.56-224.15-111.28-.79-1.07-1.62-2.14-2.43-3.29-6.11-8.29-11.84-17.06-17.01-26.05-14.56-24.96-31.88-48.51-51.45-70-5.85-6.37-11.95-12.66-18.19-18.68-26.51-25.64-56.33-47.61-88.67-65.29-60.34-33.04-128.82-50.49-198.1-50.49v130.66c88.8,0,170.51,40.54,224.15,111.26.83,1.07,1.62,2.18,2.43,3.25,5.76,7.83,11.19,16.06,16.05,24.39l1.03,1.7c14.54,24.94,31.83,48.46,51.38,69.98,5.82,6.37,11.95,12.66,18.19,18.68,26.56,25.64,56.4,47.63,88.67,65.29,60.34,33.04,128.82,50.49,198.1,50.49v-130.61Z" style="fill:#2954fe;"/></svg>