<?xml version="1.0" encoding="UTF-8"?><svg id="Layer_1" xmlns="http://www.w3.org/2000/svg" width="1080" height="1080" viewBox="0 0 1080 1080"><circle cx="540" cy="540" r="540" style="fill:#fff;"/><path d="M413.17,883.92c-185.57-68.38-282.93-269.2-221.69-457.42,62.53-192.15,269.76-297.61,461.99-235.09,194.16,63.41,297.7,269.36,235.09,461.99-30.42,93.18-95.19,168.87-182.28,213.18-87.25,44.39-186.53,52.17-279.64,21.75-4.65-1.28-9.15-2.73-13.48-4.41M655.96,225.52c-4.09-1.52-8.11-2.89-12.12-4.25-175.7-57.23-365.36,39.17-422.58,214.94-57.39,176.1,37.16,364.71,214.94,422.42,85.16,27.77,175.94,20.71,255.8-19.91,79.7-40.61,138.93-109.72,166.71-194.96,56.02-172-33.07-355.73-202.74-418.25" style="fill:#294d9a;"/><path d="M354.98,314.54c-11.48,35.08-48.96,54.18-83.96,42.78-34.99-11.4-54.1-48.96-42.7-83.88,11.4-34.99,48.96-54.1,83.96-42.7,34.91,11.24,54.1,48.8,42.7,83.79M566.95,504.92c8.99-12.76,13.48-25.04,13.48-36.84s-3.93-21.75-11.72-29.78c-7.87-8.03-17.82-11.96-30.02-11.96-22.39,0-43.66,15.97-63.73,47.84l-63.65-37.72c16.7-25.76,34.92-45.27,54.82-58.51,19.83-13.32,45.03-19.91,75.85-19.91s57.79,9.79,80.99,29.3c23.2,19.58,34.99,46.07,34.99,79.7,0,18.38-4.82,35.88-14.13,52.73s-26.57,38.28-51.69,64.53l-64.21,66.62h140.62v71.35h-251.14v-59.23l104.42-106.99c21.11-21.35,36.12-38.37,45.11-51.13h0ZM694.01,788.81c-2.97-2.97-2.17-6.42,1.77-7.78l133.4-44.95c4.01-1.45,6.02.8,4.82,4.74l-45.51,133.4c-1.45,4.01-4.9,4.82-7.87,1.77l-86.6-87.16Z" style="fill:#294d9a;"/></svg>