<?xml version="1.0" encoding="UTF-8"?>
<svg id="Layer_1" xmlns="http://www.w3.org/2000/svg" version="1.1" viewBox="0 0 1080 1080">
  <!-- Generator: Adobe Illustrator 29.0.0, SVG Export Plug-In . SVG Version: 2.1.0 Build 186)  -->
  <defs>
    <style>
      .st0 {
        fill: #183f68;
      }

      .st1 {
        fill: #56a68e;
      }

      .st2 {
        fill: #fff;
      }
    </style>
  </defs>
  <path class="st2" d="M540,0h0c298.2,0,540,241.8,540,540h0c0,298.2-241.8,540-540,540h0C241.8,1080,0,838.2,0,540h0C0,241.8,241.8,0,540,0Z"/>
  <path class="st1" d="M554.4,475.2c-61.8,0-111.3,50.7-111.3,111.3s50.7,111.3,111.3,111.3,111.3-50.7,111.3-111.3-49.7-111.3-111.3-111.3Z"/>
  <path class="st0" d="M554.4,309.2c-39.5,0-77.9,8.1-111.3,23.3v95.2c31.4-22.3,69.8-35.4,111.3-35.4,107.3,0,194.4,87.1,194.4,194.4s-87.1,194.4-194.4,194.4-194.4-87.1-194.4-194.4V216.1h-83.1v370.5c0,152.9,124.6,277.5,277.5,277.5s277.5-124.6,277.5-277.5-124.6-277.5-277.5-277.5h0Z"/>
</svg>