<?xml version="1.0" encoding="UTF-8"?>
<svg id="Layer_1" xmlns="http://www.w3.org/2000/svg" version="1.1" viewBox="0 0 1080 1080">
  <!-- Generator: Adobe Illustrator 29.0.0, SVG Export Plug-In . SVG Version: 2.1.0 Build 186)  -->
  <defs>
    <style>
      .st0 {
        fill: #fff;
      }

      .st1 {
        fill: #9fc364;
      }
    </style>
  </defs>
  <path class="st0" d="M540,0h0c298.2,0,540,241.8,540,540h0c0,298.2-241.8,540-540,540h0C241.8,1080,0,838.2,0,540h0C0,241.8,241.8,0,540,0Z"/>
  <path id="Path-1-Copy-9" class="st1" d="M274.5,744.2c26.4,27.8,172.4,162.4,401,7.2,165.3-128.9,161-408.2,145.3-492.2-5,12.1-197.3,433.1-546.3,485.9h0v-.7h0c0-.1,0-.2,0-.2ZM820.1,258.3c-2.2-.7-215.1-29.9-425.2,105.4-130.3,84.1-148.2,207.4-141.7,289.2,306.3-34.1,559.9-385.3,567.1-394.6h-.1Z"/>
</svg>