<?xml version="1.0" encoding="UTF-8"?>
<svg id="Layer_1" xmlns="http://www.w3.org/2000/svg" xmlns:xlink="http://www.w3.org/1999/xlink" version="1.1" viewBox="0 0 1080 1080">
  <!-- Generator: Adobe Illustrator 29.0.0, SVG Export Plug-In . SVG Version: 2.1.0 Build 186)  -->
  <defs>
    <style>
      .st0 {
        fill: url(#linear-gradient);
      }

      .st1 {
        fill: #fff;
      }

      .st2 {
        fill: #c34032;
      }

      .st3 {
        fill: #e37a39;
      }
    </style>
    <linearGradient id="linear-gradient" x1="764.3" y1="-1094.8" x2="579.4" y2="-811.2" gradientTransform="translate(0 -414) scale(1 -1)" gradientUnits="userSpaceOnUse">
      <stop offset=".4" stop-color="#e37a39"/>
      <stop offset=".5" stop-color="#e07538"/>
      <stop offset=".6" stop-color="#d76535"/>
      <stop offset=".8" stop-color="#ca4d33"/>
      <stop offset=".8" stop-color="#c34032"/>
    </linearGradient>
  </defs>
  <path class="st1" d="M540,0h0c298.2,0,540,241.8,540,540h0c0,298.2-241.8,540-540,540h0C241.8,1080,0,838.2,0,540h0C0,241.8,241.8,0,540,0Z"/>
  <path class="st2" d="M324.3,370.4h92.2l-71.7,175.4s-37.4-.6-49-33.4c-3.2-9.8-3.5-20.2-.7-30.1l29.2-112h0c0,.1,0,.1,0,.1Z"/>
  <path class="st3" d="M682,374.1l-117.4-2,26.3-87.1c8.6-28.2-7.2-58-35.4-66.7-5-1.6-10.2-2.3-15.4-2.3h-107l-122.4,439.5s-43.9,187.9,122.4,205.1c0,0,262.8,53.7,347-263.8,0,0,44.5-192.1-98.2-222.6h0ZM601.8,592.1s-4.6,81.1-65.8,95.3c-9.1,2.3-18.6,1.3-26.9-2.7-9.6-4.9-19.4-15.1-19.3-36.4.1-6.2,1.1-12.2,2.9-18.1l22.6-84.4h61.6s27.9,9.1,24.8,46.4h.1Z"/>
  <path class="st0" d="M786,508.2c-11.2-129-104-134.1-104-134.1l-117.4-2-50.4,174.7h61.5c11.2.6,32,19.3,25.2,52.3"/>
</svg>