<?xml version="1.0" encoding="UTF-8"?>
<svg id="Layer_1" xmlns="http://www.w3.org/2000/svg" version="1.1" viewBox="0 0 1080 1080">
  <!-- Generator: Adobe Illustrator 29.0.0, SVG Export Plug-In . SVG Version: 2.1.0 Build 186)  -->
  <defs>
    <style>
      .st0 {
        fill: #fff;
      }

      .st1 {
        fill: #801bff;
      }
    </style>
  </defs>
  <path class="st0" d="M540,0h0c298.2,0,540,241.8,540,540h0c0,298.2-241.8,540-540,540h0C241.8,1080,0,838.2,0,540h0C0,241.8,241.8,0,540,0Z"/>
  <path class="st1" d="M826.8,597.7v81.7c0,17.4-7.2,30.5-22.3,39.2-80.3,46.1-161,92.3-241.5,138.7-16.1,9.4-31.4,9.1-47.4-.3-22.6-13.5-45.6-26.2-68.1-39.5-5.8-3.3-13.7-5.5-13.7-13.7s8.4-10.9,14.3-14.5c82.9-48,165.9-95.6,249.1-143.3,10.9-6.2,10.9-7.1,0-13.2-28.5-16.3-57-32.4-85.2-49.5-10.7-6.5-19.4-5.9-29.8.3-85.5,49.5-171.1,98.8-256.6,148.2-9.4,5.5-17.4,6.2-26.5,0-8.1-5.2-16.6-9.4-24.6-14.5-13.5-8.3-20.7-20.2-20.7-36.3s.6-19.2-.3-28.8c-1-11.1,4.2-17.4,13.5-22.8,57.7-33,115.3-66.1,173.1-99.2,66.7-38.3,133.5-76.8,200.3-115.1,10.4-5.9,10.4-7.1,0-13-29.2-16.9-58.6-33.4-87.4-50.8-9.1-5.5-16.6-5.2-25.6,0-82.4,47.7-164.9,95-247.5,142.6-6.5,3.6-13,10.7-21.3,5.8-8.1-4.6-4.6-13.5-4.6-20.5-.3-26.6,0-53.1-.3-79.8,0-16.3,7.1-28.8,21-37,81.9-46.9,163.3-93.6,244.9-140.3,14-8.1,28.5-7.8,42.5.3,81.1,46.7,162.3,93.6,243.4,140.5,14,8.1,21,20.7,21.3,37,.3,8.1-.6,16.1.3,24,1,13.5-4.6,21.5-16.3,27.9-29.1,16.1-57.6,33-86,49.5-2.9,1.6-6.2,2.3-7.8,5.8,2.3,3.3,6.2,4.6,9.4,6.5,25.9,15,51.5,29.8,77.5,44.6,15.5,8.8,23.3,22,23.3,39.6h-.3c0-.1,0-.1,0-.1Z"/>
</svg>