<?xml version="1.0" encoding="UTF-8"?>
<svg id="Layer_1" xmlns="http://www.w3.org/2000/svg" version="1.1" viewBox="0 0 1080 1080">
  <!-- Generator: Adobe Illustrator 29.0.0, SVG Export Plug-In . SVG Version: 2.1.0 Build 186)  -->
  <defs>
    <style>
      .st0 {
        fill: #fff;
      }

      .st1 {
        fill: #cf5e3c;
      }
    </style>
  </defs>
  <path class="st0" d="M540,0h0c298.1,0,540,241.9,540,540h0c0,298.1-241.9,540-540,540h0C241.9,1080,0,838.1,0,540h0C0,241.9,241.9,0,540,0Z"/>
  <path class="st0" d="M769,527c-1.4-14.4-10.1-24.5-18.7-36-64.8-92.2-131-184.3-195.8-276.5h90.7-159.8c31.7,44.6,61.9,87.8,93.6,132.5-37.4,53.3-74.9,105.1-112.3,157-14.4,21.6-14.4,51.8,0,73.4,37.4,53.3,74.9,105.1,112.3,157-30.2,44.6-61.9,87.8-93.6,132.5h69.1c67.7-95,135.4-190.1,203-285.1,11.5-14.4,15.8-34.6,11.5-51.8h0v-2.9ZM681.1,554.4l-64.8,90.7c-23-31.7-44.6-61.9-66.2-95-5.8-7.2-4.3-18.7,1.4-25.9,21.6-30.2,43.2-61.9,64.8-92.2,21.6,31.7,44.6,61.9,66.2,93.6,5.8,7.2,5.8,20.2-1.4,27.4h0v1.4Z"/>
  <path class="st0" d="M550.1,525.6c21.6-30.2,43.2-61.9,64.8-92.2,21.6,31.7,44.6,61.9,66.2,93.6,5.8,7.2,5.8,20.2-1.4,27.4l-64.8,90.7c-23-31.7-44.6-61.9-66.2-95-5.8-7.2-4.3-18.7,1.4-25.9h0v1.4h0Z"/>
  <path class="st1" d="M466.6,576c37.4,53.3,74.9,105.1,112.3,157-30.2,44.6-61.9,87.8-93.6,132.5h-191.5c-31.7-1.4-61.9-24.5-73.4-56.2-2.9-8.6-5.8-18.7-5.8-27.4v-489.6c0-7.2,1.4-15.8,4.3-23,11.5-30.2,40.3-53.3,73.4-56.2h191.5c31.7,44.6,61.9,87.8,93.6,132.5-37.4,53.3-74.9,105.1-112.3,157-14.4,21.6-14.4,51.8,0,73.4h1.4Z"/>
  <path class="st1" d="M681.1,554.4l-64.8,90.7c-23-31.7-44.6-61.9-66.2-95-5.8-7.2-4.3-18.7,1.4-25.9,21.6-30.2,43.2-61.9,64.8-92.2,21.6,31.7,44.6,61.9,66.2,93.6,5.8,7.2,5.8,20.2-1.4,27.4h0v1.4Z"/>
  <path class="st1" d="M790.6,865.4h-237.6c67.7-95,135.4-190.1,203-285.1,11.5-14.4,15.8-34.6,11.5-51.8-1.4-14.4-10.1-24.5-18.7-36-64.8-92.2-131-184.3-195.8-276.5h237.6c40.3,1.4,73.4,40.3,73.4,79.2v491c0,40.3-33.1,77.8-73.4,79.2h0Z"/>
</svg>