<?xml version="1.0" encoding="UTF-8"?>
<svg id="Layer_1" xmlns="http://www.w3.org/2000/svg" version="1.1" viewBox="0 0 1080 1080">
  <!-- Generator: Adobe Illustrator 29.0.0, SVG Export Plug-In . SVG Version: 2.1.0 Build 186)  -->
  <defs>
    <style>
      .st0 {
        fill: #aad70a;
      }

      .st1 {
        fill: #6d6d6d;
      }

      .st2 {
        fill: #5d6e3c;
      }

      .st3 {
        fill: #606060;
      }

      .st4 {
        fill: #acada8;
      }

      .st5 {
        fill: #fff;
      }

      .st6 {
        fill: #8c8c8c;
      }

      .st7 {
        fill: #494949;
      }
    </style>
  </defs>
  <path class="st5" d="M540,0h0c298.2,0,540,241.8,540,540h0c0,298.2-241.8,540-540,540h0C241.8,1080,0,838.2,0,540h0C0,241.8,241.8,0,540,0Z"/>
  <g id="Boba_Eth">
    <path class="st0" d="M638.1,635.9h-263.8V251.9h263.8c90.6,0,163.9,73.2,163.9,163.3v57.3c0,90.1-73.3,163.3-163.9,163.3h0c0,.1,0,.1,0,.1Z"/>
    <path class="st4" d="M706,828h-331.8v-192c0-106,86.3-192,192.7-192h139.1c106.4,0,192.7,86,192.7,192s-86.3,192-192.7,192h0Z"/>
    <path class="st2" d="M801.9,469.6v3.2c0,90.3-73.3,163.3-164,163.3h-263.8c0-53,21.6-100.9,56.5-135.8,34.9-34.7,83.1-56.2,136.4-56.2h139c35,0,67.7,9.2,95.9,25.5h.1Z"/>
    <path d="M374.7,732.7c106.9,0,193.5-86.3,193.5-192.7s-86.7-192.7-193.5-192.7-193.5,86.3-193.5,192.7,86.7,192.7,193.5,192.7Z"/>
    <path class="st1" d="M374.7,396l-1.9,6.6v190.4l1.9,2,88.7-52.3-88.7-146.6h0Z"/>
    <path class="st6" d="M374.7,396l-88.7,146.6,88.7,52.3v-199h0v.2Z"/>
    <path class="st1" d="M374.7,611.7l-1.1,1.3v67.8l1.1,3.2,88.9-124.6-88.9,52.3Z"/>
    <path class="st6" d="M374.7,684v-72.3l-88.7-52.3,88.7,124.6Z"/>
    <path class="st7" d="M374.7,595l88.7-52.3-88.7-40.2v92.5Z"/>
    <path class="st3" d="M286,542.6l88.7,52.3v-92.5l-88.7,40.2h0Z"/>
  </g>
</svg>