<?xml version="1.0" encoding="UTF-8"?>
<svg id="Layer_1" xmlns="http://www.w3.org/2000/svg" version="1.1" viewBox="0 0 1080 1080">
  <!-- Generator: Adobe Illustrator 29.0.0, SVG Export Plug-In . SVG Version: 2.1.0 Build 186)  -->
  <defs>
    <style>
      .st0 {
        fill: #b47b3e;
      }

      .st1 {
        fill: #6a0007;
      }

      .st2 {
        fill: #58d350;
      }

      .st3 {
        fill: #040003;
      }

      .st4 {
        fill: #4c0607;
      }

      .st5 {
        fill: #33019e;
      }

      .st6 {
        fill: #792fb8;
      }

      .st7 {
        fill: #e1ad73;
      }

      .st8 {
        fill: #fff;
      }

      .st9 {
        fill: #d7af85;
      }

      .st10 {
        fill: #536169;
      }

      .st11 {
        fill: #fefefe;
      }

      .st12 {
        fill: #263742;
      }

      .st13 {
        fill: #556169;
      }

      .st14 {
        fill: #3c4e56;
      }
    </style>
  </defs>
  <path class="st8" d="M540,0h0c298.2,0,540,241.8,540,540h0c0,298.2-241.8,540-540,540h0C241.8,1080,0,838.2,0,540h0C0,241.8,241.8,0,540,0Z"/>
  <rect class="st5" x="259.2" y="258.5" width="561.6" height="561.6"/>
  <path class="st7" d="M561.6,820.1h-66.2c0-38.9-1.4-76.3-1.4-115.2v-2.9c-7.2-1.4-13-2.9-23-5.8v-112.3h0c-7.2-1.4-15.8-2.9-23-4.3v-18.7h23v-23h23v23h0v23h46.1v-46.1h70.6v46.1h47.5v116.6h-23v2.9l-4.3,17.3c-7.2,1.4-13,2.9-18.7,4.3-1.4,7.2-2.9,13-4.3,20.2h-61.9c-1.4-7.2-2.9-11.5-4.3-17.3v-2.9h-23v23h0c7.2,1.4,13,2.9,20.2,4.3,1.4,5.8,2.9,11.5,2.9,17.3v2.9c5.8,1.4,13,2.9,21.6,5.8-1.4,13-1.4,27.4-1.4,41.8h0ZM564.5,655.9h23v-24.5h-24.5v2.9c0,7.2,1.4,14.4,1.4,21.6ZM542.9,679c-1.4,7.2-1.4,14.4-2.9,23h72c-1.4-8.6-2.9-15.8-2.9-23h-66.2Z"/>
  <path class="st3" d="M540,772.6v-24.5h70.6v24.5h-23v46.1h-23v-47.5c-8.6,1.4-15.8,1.4-24.5,1.4h0Z"/>
  <path class="st3" d="M493.9,703.4v118.1h-23v-116.6h0c7.2-1.4,14.4-1.4,23-1.4Z"/>
  <path class="st9" d="M493.9,820.1v-115.2c0,38.9,1.4,76.3,1.4,115.2h-1.4Z"/>
  <path class="st9" d="M540,772.6h23v47.5h-2.9v-41.8c-7.2-2.9-13-4.3-20.2-5.8Z"/>
  <path class="st1" d="M610.6,772.6v-24.5h23v-23h23v-185.8h46.1v69.1c7.2,1.4,14.4,1.4,21.6,2.9v162.7h-44.6c-1.4,8.6-1.4,14.4-2.9,23h-69.1c2.9-8.6,2.9-17.3,2.9-24.5h0Z"/>
  <path class="st10" d="M633.6,399.6c7.2,1.4,15.8,1.4,23,2.9v20.2c7.2,1.4,13,2.9,21.6,4.3v41.8h-229v-41.8c8.6-1.4,14.4-2.9,21.6-4.3v-2.9c1.4-5.8,2.9-11.5,2.9-18.7,14.4-1.4,28.8-1.4,43.2-2.9h23v23h93.6v-21.6h0Z"/>
  <path class="st13" d="M704.2,539.3h-280.8c-5.8,0-13-1.4-18.7-1.4,0-7.2-1.4-14.4-2.9-21.6h0c-7.2-7.2-15.8-7.2-23,0h-24.5v-23h116.6v21.6h210.2v-21.6h93.6v17.3c-15.8,2.9-31.7,4.3-46.1,7.2v2.9l-4.3,17.3c-7.2-1.4-14.4,0-20.2,1.4h0Z"/>
  <path class="st12" d="M470.9,493.2h-23v-24.5h233.3c0,7.2,1.4,15.8,1.4,23h-1.4c-70.6,1.4-141.1,1.4-210.2,1.4Z"/>
  <path class="st3" d="M470.9,703.4h-23v-96.5c0-7.2,0-14.4,1.4-21.6h23c-2.9,40.3-1.4,79.2-1.4,118.1h0Z"/>
  <path class="st1" d="M447.8,586.8c0,7.2,0,14.4-1.4,21.6-1,0-1.9.4-2.9,1.4-2.9,0-7.2,1.4-10.1,1.4s-2.9-1.4-4.3-1.4v-67.7c14.4,1.4,28.8,1.4,41.8,2.9v18.7h-23v23h0Z"/>
  <path class="st14" d="M540,376.6h70.6v23h-70.6v-23Z"/>
  <path class="st14" d="M517,399.6c-14.4,1.4-28.8,1.4-43.2,2.9-1.4,7.2-2.9,13-2.9,18.7v-17.3c7.2-1.4,14.4-2.9,21.6-5.8,1.4-5.8,1.4-13,2.9-20.2h21.6v21.6Z"/>
  <path class="st12" d="M517,399.6v-23h23v23h-23Z"/>
  <path class="st10" d="M610.6,399.6v-23h24.5v23h-24.5Z"/>
  <path class="st10" d="M449.3,468.7h-1.4v-47.5h23c-5.8,1.4-13,2.9-21.6,4.3v43.2h0Z"/>
  <path class="st4" d="M607.7,679c1.4,7.2,2.9,14.4,2.9,23h-72c1.4-7.2,1.4-15.8,2.9-23h66.2Z"/>
  <path class="st0" d="M493.9,539.3h46.1v23c-7.2,0-15.8,0-23,1.4h-23v-24.5Z"/>
  <path class="st0" d="M610.6,539.3h46.1v23h-46.1v-23Z"/>
  <path class="st3" d="M540,726.5v24.5h-23v-23h0c8.6-1.4,15.8-1.4,23-1.4Z"/>
  <path class="st11" d="M517,563.8c7.2,0,15.8,0,23-1.4v23h-23v-21.6Z"/>
  <path class="st3" d="M656.6,703.4v23h-23v-24.5h21.6c0,1.4,1.4,1.4,1.4,1.4Z"/>
  <path class="st3" d="M584.6,632.9h2.9v24.5h-23v-24.5h20.2Z"/>
  <path class="st11" d="M633.6,562.3h23v23h-23v-23Z"/>
  <path class="st9" d="M470.9,703.4v-116.6,112.3c10.1,2.9,17.3,4.3,23,5.8-8.6-1.4-15.8-1.4-23-1.4Z"/>
  <path class="st4" d="M427.7,608.4c-1.4,1.4-2.9,1.4-4.3,2.9v-72h46.1v4.3c-14.4-1.4-27.4-1.4-41.8-2.9v67.7Z"/>
  <path class="st9" d="M540,749.5v-21.6l4.3,17.3h61.9c1.4-7.2,2.9-13,4.3-20.2h0v23h0c-23,1.4-47.5,1.4-70.6,1.4h0Z"/>
  <path class="st6" d="M517,582.5v4.3h-23v-23h4.3c-1.4,5.8-1.4,13-2.9,21.6,8.6-1.4,15.8-2.9,21.6-2.9Z"/>
  <path class="st9" d="M517,749.5h23v21.6c-1.4-5.8-2.9-11.5-2.9-17.3-7.2-1.4-13-2.9-20.2-4.3h0Z"/>
  <path class="st9" d="M633.6,704.9v21.6h-23c5.8-1.4,13-2.9,18.7-4.3l4.3-17.3h0Z"/>
  <path class="st9" d="M447.8,586.8v-4.3c7.2,1.4,15.8,2.9,23,4.3h-23Z"/>
  <path class="st9" d="M493.9,585.4h23c-7.2,1.4-15.8,1.4-23,0Z"/>
  <path class="st9" d="M655.2,702h-21.6c7.2,1.4,14.4,1.4,21.6,0Z"/>
  <path class="st9" d="M563,635.8v21.6c1.4-8.6,0-15.8,0-21.6Z"/>
  <path class="st3" d="M610.6,726.5h23v23h-23v-23Z"/>
  <path class="st12" d="M540,399.6h70.6v23h-70.6v-23Z"/>
  <path class="st14" d="M610.6,422.6v-23h23v23h-23Z"/>
  <path class="st14" d="M470.9,493.2h210.2v21.6h-210.2v-21.6h0Z"/>
  <path class="st13" d="M400.3,516.2h-24.5c8.6-7.2,17.3-7.2,24.5,0Z"/>
  <path class="st13" d="M400.3,539.3v-23c0,7.2,1.4,14.4,2.9,21.6v1.4h-2.9Z"/>
  <path class="st10" d="M401.8,539.3v-1.4c5.8,0,13,1.4,18.7,1.4h-18.7Z"/>
  <path class="st6" d="M517,582.5c-5.8,1.4-13,1.4-21.6,2.9,1.4-8.6,1.4-15.8,2.9-21.6h18.7v18.7Z"/>
  <path class="st6" d="M633.6,585.4h-23v-23h23v4.3c-5.8-1.4-13-1.4-20.2-2.9v20.2c7.2-1.4,14.4-1.4,20.2-2.9v4.3h0Z"/>
  <path class="st6" d="M633.6,582.5c-5.8,1.4-13,1.4-20.2,2.9v-20.2c7.2,1.4,14.4,1.4,20.2,2.9v14.4h0Z"/>
  <rect class="st2" x="305.3" y="258.5" width="24.5" height="95"/>
  <rect class="st2" x="305.3" y="401" width="24.5" height="208.8"/>
  <rect class="st2" x="305.3" y="632.9" width="24.5" height="95"/>
  <rect class="st2" x="305.3" y="749.5" width="24.5" height="69.1"/>
  <rect class="st2" x="352.8" y="740.9" width="24.5" height="79.2"/>
  <rect class="st2" x="352.8" y="514.8" width="24.5" height="142.6"/>
  <rect class="st2" x="352.8" y="421.2" width="24.5" height="72"/>
  <rect class="st2" x="352.8" y="258.5" width="24.5" height="142.6"/>
  <rect class="st2" x="397.4" y="258.5" width="24.5" height="188.6"/>
  <rect class="st2" x="397.4" y="540.7" width="24.5" height="139.7"/>
  <rect class="st2" x="397.4" y="702" width="24.5" height="116.6"/>
</svg>