<?xml version="1.0" encoding="UTF-8"?><svg id="Layer_1" xmlns="http://www.w3.org/2000/svg" width="1080" height="1080" xmlns:xlink="http://www.w3.org/1999/xlink" viewBox="0 0 1080 1080"><defs><linearGradient id="linear-gradient" x1="568.934" y1="389.878" x2="865.066" y2="686.009" gradientUnits="userSpaceOnUse"><stop offset="0" stop-color="#489ef2"/><stop offset="1" stop-color="#3956b2"/></linearGradient><linearGradient id="linear-gradient-2" x1="322.666" y1="389.848" x2="618.702" y2="685.884" gradientUnits="userSpaceOnUse"><stop offset="0" stop-color="#de3d86"/><stop offset="1" stop-color="#b430a7"/></linearGradient><linearGradient id="linear-gradient-3" x1="223.305" y1="722.668" x2="348.719" y2="597.254" gradientUnits="userSpaceOnUse"><stop offset="0" stop-color="#9d3eec"/><stop offset="1" stop-color="#6d23ba"/></linearGradient></defs><circle cx="540" cy="540" r="540"/><path d="M785.919,731.668c-32.506-.47-55.303-16.273-71.076-44.167-18.416-32.568-37.563-64.722-56.203-97.165-13.659-23.772-26.777-47.857-40.578-71.544-10.592-18.18-23.149-35.389-30.701-55.087-9.218-24.043-4.192-48.098,2.797-71.896,3.992-13.593,10.544-26,16.473-38.72,1.572-3.373,3.833-4.799,7.709-4.796,32.375.023,63.17,6.04,91.2,23.162,17.489,10.683,25.503,28.667,35.176,45.355,26.994,46.572,54.343,92.947,80.651,139.905,13.321,23.778,29.511,46.062,39.207,71.789,12.791,33.94-3.131,75.444-34.939,92.997-12.447,6.869-25.409,10.634-39.715,10.167Z" style="fill:url(#linear-gradient);"/><path d="M539.463,731.694c-34.341-.622-56.809-18.456-73.07-47.794-23.766-42.881-49.188-84.842-73.581-127.38-17.744-30.942-36.436-61.473-51.917-93.534-10.797-22.36-4.95-46.427,2.577-69.391,4.814-14.686,10.126-29.107,18.292-42.328.935-1.514,1.738-2.848,3.82-2.839,38.004.176,74.352,6.133,104.413,31.88,12.435,10.65,17.939,26.306,25.988,40.019,19.899,33.899,39.21,68.143,58.809,102.219,18.762,32.622,38.437,64.753,56.153,97.932,18.345,34.358,3.494,80.191-30.043,99.922-12.959,7.624-26.444,11.558-41.44,11.294Z" style="fill:url(#linear-gradient-2);"/><path d="M292.991,574.395c35.543-.023,64.174,21.357,75.331,56.253,14.48,45.288-14.688,90.891-62.056,98.369-27.046,4.269-53.451,1.578-79.593-4.744-7.911-1.913-6.286-11.1-7.388-17.266-4.858-27.175-7.108-54.644,1.635-81.331,10.5-32.05,38.525-51.258,72.071-51.28Z" style="fill:url(#linear-gradient-3);"/></svg>