<?xml version="1.0" encoding="UTF-8"?>
<svg id="Layer_1" xmlns="http://www.w3.org/2000/svg" version="1.1" viewBox="0 0 1080 1080">
  <!-- Generator: Adobe Illustrator 29.0.0, SVG Export Plug-In . SVG Version: 2.1.0 Build 186)  -->
  <defs>
    <style>
      .st0 {
        fill: #fff;
      }
    </style>
  </defs>
  <path class="st0" d="M540,0h0c298.2,0,540,241.8,540,540h0c0,298.2-241.8,540-540,540h0C241.8,1080,0,838.2,0,540h0C0,241.8,241.8,0,540,0Z"/>
  <path d="M316.7,686.9c1.7-1.6,3.3-1.6,5-1.6,97.9-53.1,195.8-104.5,293.9-157.7,13.2-6.6,19.9-18.3,19.9-33.3v-43.2c0-1.7,0-3.3,3.3-5,19.9-9.9,39.9-21.6,58-31.5,2.2-1.1,3.3-.6,3.3,1.7v86.3c-1.6,34.9-18.3,63.1-48.1,79.6-44.8,24.9-91.3,49.8-137.8,73-69.7,38.2-139.4,74.7-210.8,112.9-15,8.3-30,6.6-41.5-3.3-8.4-6.6-11.7-16.6-11.7-26.6v-285.5c0-41.5,18.3-71.4,54.9-91.3,82.9-44.8,166-89.7,249-132.8,38.2-19.9,79.6-16.6,112.9,11.7,13.2,11.7,23.2,26.6,28.2,44.8,0,1.7,1.6,3.3-1.6,3.3-19.9,6.6-36.6,18.3-56.5,28.2h0c-1.6,1.7-3.3,1.7-3.3-1.7,0-5,0-9.9-3.3-13.2-8.3-16.6-28.2-24.9-44.8-15-53.1,28.2-107.9,58-161,86.3-30,15-58,31.5-88,46.5-13.2,6.6-19.9,18.3-19.9,33.3v234.1h-.3c0,.1,0,.2,0,.2Z"/>
  <path d="M829.7,495.9v89.7c0,39.9-18.3,69.7-53.1,89.7-114.6,61.5-229.1,122.8-343.6,184.3-16.6,8.3-34.9,5-44.8-9.9-5-6.6-6.6-13.2-6.6-21.6v-69.7c0-2.2,1.1-3.9,3.3-5,19.9-9.9,39.9-19.9,58-31.5,2.2-1.2,3.3-.6,3.3,1.6v48.1c0,3.3,1.7,4.5,5,3.3,97.9-53.1,195.8-106.3,295.5-157.7,13.2-6.6,18.3-16.6,18.3-31.5v-181c0-19.9-13.2-34.9-33.3-33.3-5,0-9.9,1.7-15,3.3-84.7,44.8-169.3,89.7-252.3,136.1-11.7,6.6-18.3,16.6-18.3,31.5v44.8c0,3.3,0,5-3.3,6.6-19.9,9.9-38.2,19.9-58,31.5-2.2,1.2-3.3.6-3.3-1.6v-84.7c1.7-36.6,16.6-63.1,48.1-81.4,43.2-24.9,86.3-46.5,129.5-69.7,41.5-23.2,82.9-44.8,124.6-68.1,53.1-28.2,119.5-3.3,139.4,53.1,3.3,9.9,5,19.9,5,30,1.6,28.2,1.6,59.8,1.6,93h0Z"/>
</svg>