<?xml version="1.0" encoding="UTF-8"?>
<svg id="Layer_1" xmlns="http://www.w3.org/2000/svg" version="1.1" viewBox="0 0 1080 1080">
  <!-- Generator: Adobe Illustrator 29.0.0, SVG Export Plug-In . SVG Version: 2.1.0 Build 186)  -->
  <defs>
    <style>
      .st0 {
        fill: #2e9af3;
      }

      .st1 {
        fill: #454545;
      }

      .st2 {
        fill: #e9bcff;
      }

      .st3 {
        fill: #ddd;
      }

      .st4 {
        fill: #57c971;
      }

      .st5 {
        fill: #feca42;
      }

      .st6 {
        fill: #fff;
      }
    </style>
  </defs>
  <path class="st6" d="M540,0h0c298.2,0,540,241.8,540,540h0c0,298.2-241.8,540-540,540h0C241.8,1080,0,838.2,0,540h0C0,241.8,241.8,0,540,0Z"/>
  <circle class="st1" cx="301.7" cy="622.8" r="131"/>
  <circle class="st3" cx="778.3" cy="622.8" r="131"/>
  <path class="st2" d="M831.6,519.1c-15.8-37.4-38.9-72-67.7-100.8s-63.4-51.8-100.8-67.7c-38.9-17.3-80.6-24.5-123.8-24.5s-85,8.6-123.8,24.5c-37.4,15.8-72,38.9-100.8,67.7-28.8,28.8-51.8,63.4-67.7,100.8-13,31.7-21.6,63.4-24.5,97.9h38.9c5.8-64.8,34.6-123.8,80.6-169.9s122.4-82.1,197.3-82.1,144,28.8,197.3,82.1,74.9,106.6,80.6,169.9h40.3c-4.3-33.1-13-66.2-25.9-97.9h0Z"/>
  <path class="st0" d="M735.1,447.1c-53.3-53.3-122.4-82.1-197.3-82.1s-144,28.8-197.3,82.1c-46.1,46.1-74.9,106.6-80.6,169.9h40.3c5.8-53.3,30.2-103.7,67.7-142.6,44.6-44.6,105.1-69.1,168.5-69.1s123.8,24.5,168.5,69.1c38.9,38.9,61.9,87.8,67.7,142.6h40.3c-4.3-64.8-31.7-123.8-77.8-169.9h0Z"/>
  <path class="st4" d="M706.3,474.5c-44.6-44.6-105.1-70.6-168.5-70.6s-123.8,24.5-168.5,70.6c-38.9,38.9-61.9,89.3-69.1,142.6h40.3c13-96.5,96.5-172.8,197.3-172.8s184.3,74.9,197.3,172.8h40.3c-5.8-53.3-30.2-103.7-69.1-142.6h0Z"/>
  <path class="st5" d="M537.8,444.2c-100.8,0-184.3,74.9-197.3,172.8h40.3c13-74.9,77.8-132.5,155.5-132.5s144,57.6,155.5,132.5h40.3c-10.1-96.5-93.6-172.8-194.4-172.8h0Z"/>
</svg>