<?xml version="1.0" encoding="UTF-8"?>
<svg id="Layer_1" xmlns="http://www.w3.org/2000/svg" version="1.1" viewBox="0 0 1080 1080">
  <!-- Generator: Adobe Illustrator 29.0.0, SVG Export Plug-In . SVG Version: 2.1.0 Build 186)  -->
  <defs>
    <style>
      .st0 {
        fill: #fff;
      }

      .st1 {
        fill: #0b65ff;
      }
    </style>
  </defs>
  <path class="st0" d="M540,0h0c298.1,0,540,241.9,540,540h0c0,298.1-241.9,540-540,540h0C241.9,1080,0,838.1,0,540h0C0,241.9,241.9,0,540,0Z"/>
  <path class="st1" d="M538.6,210.2c-21.6,0-43.2,5.8-63.4,15.8l-188.6,103.7c-38.9,21.6-63.4,61.9-64.8,106.6v207.4c0,44.6,24.5,85,64.8,106.6l188.6,103.7c40.3,21.6,87.8,21.6,128.2,0l188.6-103.7c38.9-20.2,63.4-61.9,63.4-106.6v-207.4c0-44.6-24.5-85-63.4-106.6l-188.6-103.7c-20.2-11.5-43.2-17.3-64.8-15.8h0Z"/>
  <path class="st0" d="M540,593.3v214.6c0,17.3-15.8,31.7-33.1,30.2-5.8,0-10.1-1.4-14.4-4.3l-194.4-106.6c-28.8-15.8-47.5-46.1-47.5-79.2v-214.6c0-17.3,14.4-30.2,31.7-30.2s11.5,0,17.3,4.3l194.4,108c28.8,15.8,47.5,46.1,47.5,79.2h0l-1.4-1.4Z"/>
</svg>