<?xml version="1.0" encoding="UTF-8"?>
<svg id="Layer_1" xmlns="http://www.w3.org/2000/svg" version="1.1" viewBox="0 0 1080 1080">
  <!-- Generator: Adobe Illustrator 29.0.0, SVG Export Plug-In . SVG Version: 2.1.0 Build 186)  -->
  <defs>
    <style>
      .st0 {
        fill: #d9b432;
      }

      .st1 {
        fill: #fff;
      }
    </style>
  </defs>
  <path class="st1" d="M540,0h0c298.1,0,540,241.9,540,540h0c0,298.1-241.9,540-540,540h0C241.9,1080,0,838.1,0,540h0C0,241.9,241.9,0,540,0Z"/>
  <path class="st0" d="M734.6,240h-389.2c-61.5,0-110.8,49.2-110.8,109.2v381.5c0,60,49.2,109.2,110.8,109.2h389.2c61.5,0,110.8-49.2,110.8-109.2v-381.5c0-60-49.2-109.2-110.8-109.2h0ZM639.2,390.8c44.6,0,83.1,35.4,83.1,81.5s-3.1,27.7-9.2,38.5c-10.8-7.7-23.1-15.4-33.8-20,3.1-6.1,4.6-13.9,4.6-20,0-23.1-20-41.5-41.5-41.5s-41.5,20-41.5,41.5,1.5,13.9,4.6,20c-12.3,4.6-24.6,10.8-33.8,20-7.7-12.3-9.2-26.1-9.2-38.5-3.1-46.1,32.3-81.5,76.9-81.5h0ZM440.8,689.2c-44.6,0-83.1-35.4-83.1-81.5h38.5c0,23.1,20,41.5,41.5,41.5s41.5-20,41.5-41.5h38.5c4.6,46.2-32.3,81.5-76.9,81.5h0ZM440.8,576.9c-52.3,0-93.9-41.5-93.9-92.3s41.5-93.9,93.9-93.9,95.4,41.5,95.4,93.9-43.1,92.3-95.4,92.3h0ZM639.2,689.2c-52.3,0-95.4-41.5-95.4-92.3s41.5-93.9,95.4-93.9,93.8,41.5,93.8,93.9c3.1,50.8-41.5,92.3-93.8,92.3h0ZM696.2,595.4c0,30.8-26.2,55.4-56.9,55.4s-56.9-26.2-56.9-55.4,26.2-55.4,56.9-55.4c32.3,1.5,56.9,26.2,56.9,55.4ZM496.1,484.6c0,30.8-26.1,55.4-56.9,55.4s-56.9-26.2-56.9-55.4,26.1-55.4,56.9-55.4,56.9,23.1,56.9,55.4h0Z"/>
</svg>