<?xml version="1.0" encoding="UTF-8"?>
<svg id="Layer_1" xmlns="http://www.w3.org/2000/svg" xmlns:xlink="http://www.w3.org/1999/xlink" version="1.1" viewBox="0 0 1080 1080">
  <!-- Generator: Adobe Illustrator 29.0.0, SVG Export Plug-In . SVG Version: 2.1.0 Build 186)  -->
  <defs>
    <style>
      .st0 {
        fill: url(#linear-gradient);
      }

      .st1 {
        fill: #fff;
      }
    </style>
    <linearGradient id="linear-gradient" x1="-2366.7" y1="-1580.5" x2="-2369.1" y2="-1580.5" gradientTransform="translate(629939.8 439056.7) scale(265.8 277.5)" gradientUnits="userSpaceOnUse">
      <stop offset="0" stop-color="#22e6b8"/>
      <stop offset="1" stop-color="#00c1ce"/>
    </linearGradient>
  </defs>
  <path class="st1" d="M540,0h0c298.1,0,540,241.9,540,540h0c0,298.1-241.9,540-540,540h0C241.9,1080,0,838.1,0,540h0C0,241.9,241.9,0,540,0Z"/>
  <path id="Shape-Copy-14" class="st0" d="M650.9,451.4c-51.7-51-135.1-51-186.9,0-51.7,52-50.7,136.2.4,188.2,51.3,51.7,134.6,52.4,186.3,1.3l.7-.7c1-1,4.3-4.6,11.2-12l-62.1-62.6c-2.9,4.2-6.5,7.9-10.2,11.4-17.4,17.4-45.9,17.4-63.7,0-18.6-16-20.7-44.3-4.6-62.8,16-18.6,44.3-20.7,62.8-4.6,1.7,1.4,3.2,2.9,4.3,4.3,0,0,55.7,55.7,166.5,167-46.2,67.4-122.7,107.7-204.6,108.1-136.2,0-247.1-111.6-247.1-249.5s110.7-249.5,247.1-249.5,151.8,37.6,197.9,101.1c-7.5,8.4-25.9,29.8-56,64.4l61.6,61.6,102-115.5c-53.4-121.2-173.2-199.6-305.7-199.6s-335.1,151.3-335.1,338,149.9,338.3,335.1,338.3,153.9-26.8,221.9-84.8c61.9-52.7,91-126.1,91-126.1l-213.3-215.6h.1l.3-.3h0Z"/>
</svg>