<?xml version="1.0" encoding="UTF-8"?>
<svg id="Layer_1" xmlns="http://www.w3.org/2000/svg" version="1.1" viewBox="0 0 1080 1080">
  <!-- Generator: Adobe Illustrator 29.0.0, SVG Export Plug-In . SVG Version: 2.1.0 Build 186)  -->
  <defs>
    <style>
      .st0 {
        fill: #00d8d5;
      }

      .st1 {
        fill: #fff;
      }

      .st2 {
        fill: #ff4c8b;
      }
    </style>
  </defs>
  <path class="st1" d="M540,0h0c298.2,0,540,241.8,540,540h0c0,298.2-241.8,540-540,540h0C241.8,1080,0,838.2,0,540h0C0,241.8,241.8,0,540,0Z"/>
  <path d="M548.5,367.2v-151.2c-179.1,0-324,144.9-324,324s144.9,324,324,324v-151.2c-95.3,0-172.8-77.5-172.8-172.8s77.5-172.8,172.8-172.8"/>
  <path class="st0" d="M722.3,367.2c-9.9,0-19.9-1.7-28.8-5.9s-17.6-9.5-24.3-16.1-12.7-15.3-16.1-24.3c-3.5-9.1-5.9-18.9-5.9-28.8s1.7-19.9,5.9-28.8c3.6-8.9,9.5-17.6,16.1-24.3s15.3-12.7,24.3-16.1,18.9-5.9,28.8-5.9c20.3,0,39.2,8.1,53.6,22,14,14,22,33.3,22,53.6s-8.1,39.2-22,53.6c-14.4,13.1-33.7,21.2-53.6,21.2"/>
  <path class="st2" d="M720.9,864c-20.3,0-39.2-8.1-53.6-22-14-14-22-33.3-22-53.6s8.1-39.2,22-53.6c14-14,33.3-22,53.6-22s39.2,8.1,53.6,22c14,14,22,33.3,22,53.6s-8.1,39.2-22,53.6c-14.4,14-33.7,22-53.6,22"/>
  <path d="M721.3,540c0,95.3-77.5,172.8-172.8,172.8v-345.6c95.3,0,172.8,76.9,172.8,172.8"/>
</svg>