<?xml version="1.0" encoding="UTF-8"?>
<svg id="Layer_1" xmlns="http://www.w3.org/2000/svg" version="1.1" viewBox="0 0 1080 1080">
  <!-- Generator: Adobe Illustrator 29.0.0, SVG Export Plug-In . SVG Version: 2.1.0 Build 186)  -->
  <defs>
    <style>
      .st0 {
        fill: #fff;
      }
    </style>
  </defs>
  <path class="st0" d="M540,0h0c298.2,0,540,241.8,540,540h0c0,298.2-241.8,540-540,540h0C241.8,1080,0,838.2,0,540h0C0,241.8,241.8,0,540,0Z"/>
  <path id="path819" d="M664.1,759.6h-44.9l-54-48.7v-25.2l55.9-52.1v-82.8l72.9-46.8,82.8,62.1-112.5,194.4h0v-.9h-.1,0ZM478.8,628.1l8.1-78.3-27.1-70.3h160.3l-26.1,70.3,7.2,78.3h-122.4ZM515.7,711.1l-54,49.5h-45.9l-113.5-195.3,83.7-61.2,72.9,45.9v82.8l55.9,52.1v25.2h0l.9.9h.2ZM415.9,335.7h248.4l29.7,125.1h-306.9l28.8-125.1h0ZM540,180l-315.1,180v360l315.1,180,315.1-180v-360l-315.1-180Z"/>
</svg>