<?xml version="1.0" encoding="UTF-8"?><svg id="Layer_1" xmlns="http://www.w3.org/2000/svg" width="1080" height="1080" xmlns:xlink="http://www.w3.org/1999/xlink" viewBox="0 0 1080 1080"><defs><linearGradient id="linear-gradient" x1="256.82" y1="540" x2="823.18" y2="540" gradientUnits="userSpaceOnUse"><stop offset="0" stop-color="#f8df58"/><stop offset="1" stop-color="#f8b10d"/></linearGradient></defs><circle cx="540" cy="540" r="540" style="fill:#fff;"/><path d="M665.69,215.49c112.43,55.2,165.72,190.71,133.94,311.49-2.04,7.76-17.72,51.64-27.19,49.26-9.97-16.6-19.09-34.04-30.79-49.54-59.31-78.58-153.84-107.42-247.17-62.03-113.02,54.96-120.49,225.02-8.91,287.5,69.18,38.74,160.67,20.12,206.73-44.74,4.44-6.25,18.85-38.44,20.86-39.39,3.86-1.83,2.72,3.12,2.84,4.73,1.57,21.28-6.42,43.68-8.17,64.52l-14.77,47.35c1.72,1.27,16.11-3.7,19.07-4.81,34.23-12.87,71.68-40.52,96.63-67.81,4.74-5.18,6.02-13.7,14.31-13.4.2,2.73.2,5.38-.51,8.08-2.52,9.65-13.62,32.57-18.8,41.97-69.99,127.14-243.7,181.88-373.14,108.07-3-1.71-13.85-10.02-16.73-7.07-.63.64,1.68,16.6-6.42,15.13-2.46-.45-31.46-27.12-35.55-31.92-20.94-24.61-40.2-56.76-52.53-86.64-1-2.43-1.32-4.87-1.13-7.47-3.33-3.57-13.1,15.09-16.22,17.25-2.07,1.43-1.48,2.92-3.85-.04-1-1.25-5.5-12.61-6.15-14.89-18.02-62.89-8.71-137.95,23.94-194.87,17.47-30.47,42.16-53.3,67.3-77.05-4.43.06-8.6,3.6-12.11,6.04-59.32,41.15-103.26,111.27-112.2,183.24-3.34.44-1.8-4.34-1.89-6.66-1.18-28.65,2-55.74,8.16-83.64,15.15-68.53,50.84-123.68,100.82-172.71,1.47-1.44,4.88-2.4,5.32-3.17,5.19-9.05-9.04-13.11-12.92-19.77-.75-3.57,23.52-19.45,27.67-21.92,32.31-19.25,70.99-31.13,108.07-36.32,2.28-8.01-3.79-7.99-6.9-12.16-3.88-5.2-6.12-11.43-12.21-15.61-.69-3.03,2.49-4.01,4.58-4.91,8.29-3.57,40.01-8.63,49.92-9.35,25.72-1.87,53.39,1.33,79.32-.04l-24.84-82.21c9.99,2.13,21.14,3.53,30.95,6.32,13.61,3.86,38.04,12.98,50.66,19.17ZM707.59,338.03c-2.29-1.14-5.57-3.17-7.93-1.03-10.67,9.68-12.69,38.83-9.97,52.36,3.67,18.27,26.38,43,44.93,46.84,10.47,2.17,14.81,2.58,15.81-8.13,3.06-32.68-11.85-74.67-42.83-90.04Z" style="fill:url(#linear-gradient);"/></svg>