<?xml version="1.0" encoding="UTF-8"?>
<svg id="Layer_1" xmlns="http://www.w3.org/2000/svg" version="1.1" viewBox="0 0 1080 1080">
  <!-- Generator: Adobe Illustrator 29.0.0, SVG Export Plug-In . SVG Version: 2.1.0 Build 186)  -->
  <defs>
    <style>
      .st0 {
        fill: #fff;
      }
    </style>
  </defs>
  <path class="st0" d="M540,0h0c298.2,0,540,241.8,540,540h0c0,298.2-241.8,540-540,540h0C241.8,1080,0,838.2,0,540h0C0,241.8,241.8,0,540,0Z"/>
  <path d="M576.9,660c92.3,0,140.3-31.4,140.3-120s-48-120-140.3-120h-214.1v240h214.1ZM405.2,456.9h168.1c72,0,99.7,22.2,99.7,83.1s-27.7,83.1-99.7,83.1h-168v-166.2h0Z"/>
  <path d="M540,900c-197.6,0-360-162.4-360-360s162.4-360,360-360,360,162.4,360,360-160.6,360-360,360ZM540,196.6c-188.4,0-343.4,153.2-343.4,343.4s155.1,343.4,343.4,343.4,343.4-153.2,343.4-343.4-155.1-343.4-343.4-343.4Z"/>
  <path d="M540,833.6c-162.4,0-293.6-131-293.6-293.6s131-293.6,293.6-293.6,293.6,131,293.6,293.6-131,293.6-293.6,293.6ZM540,253.9c-157,0-286.1,129.2-286.1,286.1s129.2,286.1,286.1,286.1,286.1-129.2,286.1-286.1-127.4-286.1-286.1-286.1Z"/>
</svg>