<?xml version="1.0" encoding="UTF-8"?>
<svg id="Layer_1" xmlns="http://www.w3.org/2000/svg" version="1.1" viewBox="0 0 1080 1080">
  <!-- Generator: Adobe Illustrator 29.0.0, SVG Export Plug-In . SVG Version: 2.1.0 Build 186)  -->
  <defs>
    <style>
      .st0 {
        fill: #fff707;
      }
    </style>
  </defs>
  <path class="st0" d="M540,0h0c298.2,0,540,241.8,540,540h0c0,298.2-241.8,540-540,540h0C241.8,1080,0,838.2,0,540h0C0,241.8,241.8,0,540,0Z"/>
  <path d="M513.4,252.9c1-7.9,1.4-14,2.7-20,1-4.9,2.3-9.9,4.3-14.4,5-11.5,11.2-22.9,25.9-23,14.7,0,20.9,11.2,26.1,22.6,4.5,9.5,5,20,7.1,30.1,3.9.3,5.5-2.6,7.8-4.2,15.5-10.1,28.7-4,30.5,14.5,1.3,13.7-1.2,26.8-7.6,38.9-3.5,6.5-1.7,8.4,4.6,10.1,111.6,30.4,171.5,107.1,194,217.1,5.3,25.9,6.8,52.1,7.8,78.5.3,7.5-2.2,10.2-9.8,10.1-18.7-.4-37.6-.6-56.5,0-8.6.3-11.2-2.6-11.2-10.9.3-31-4.5-61.2-15.1-90.3-27.8-75-82.8-115.1-161.1-124.4-30.1-3.6-59.9-2-89.1,6.8-53.3,16-88,52.1-109.3,102.2-14.4,34-20.9,69.8-23.6,106.3-.6,7.6-2.5,10.8-10.7,10.5-18.7-.6-37.6-.4-56.5,0-7.2,0-10.5-1.7-9.9-9.8,4.9-63.2,16.9-124.6,48.5-180.4,36-63.4,89.9-102.4,161.4-116.6,8.6-1.7,10.1-3.9,5.3-11.4-6.2-9.9-9.4-21-9.1-33,.3-8.6,2-16.7,10.4-21.2,8.6-4.6,16.1-.4,23,4.3,2.9,1.9,5.6,4.3,10.1,7.8h0c0-.1,0-.1,0-.1Z"/>
  <path d="M589,640.5c12.5.6,27.5-1.3,42.2,2,40,8.8,65.8,44.9,61.5,86.5-3.9,38-37.4,68-77,68.5-20.2.3-40.3,0-60.5,0s-5.8-1.3-5.8-5.8v-145.9c0-4.8,1.7-5.9,6.2-5.8,10.4.3,20.7,0,33.3,0h0v.3c.1,0,.1,0,.1,0ZM589,719v40.5c0,3.7,1.3,5.2,5,5,6.2-.3,12.5,0,18.7,0,14.1,0,24.8-6.3,32.3-18,8.5-13.5,9.7-28.2,4.9-43.3-5.9-18.9-20-29.1-39.9-29.1s-10.5.3-15.8,0c-4.2-.3-5.5,1.4-5.3,5.5.1,13.2,0,26.5,0,39.7h0v-.3c.1,0,.1,0,.1,0Z"/>
  <path d="M216.1,718.6v-71.4c0-5,1.1-6.9,6.5-6.8,22.8.7,45.6-1.3,68.5,1,39.2,4,68.5,38.2,68.4,78.6,0,39.2-30.1,73-69,76.8-23.3,2.3-46.8.4-70.3.9-4.8,0-4.2-3.2-4.2-6v-73.2h0c0,.1,0,.2,0,.2ZM255.2,719.4v39.7c0,4.2,1.3,5.5,5.5,5.3,5.8-.3,11.7,0,17.6,0,16.9,0,28.5-8.1,35.9-22.8,5.3-10.9,6.2-22.5,3.6-34.3-4-18.3-18.6-35.3-42.2-33.5-3.9.3-7.8,0-11.7,0-5.6,0-8.4,2.7-8.4,8.1v37.4h-.3Z"/>
  <path d="M785.7,797.5c-44.1,0-78.8-34.3-78.9-78.2,0-43.8,34.6-78.5,78.6-78.5s78.6,34.3,78.6,78.2-34.1,78.5-78.3,78.5h0ZM824.8,719.4c0-8.2-1.4-16-5.3-23.2-7.2-13.7-18.4-21.7-34.1-21.7s-27.7,7.9-34.4,22.2c-7.6,16-7.2,32.3,1.4,47.8,7.1,12.5,18,19.3,32.5,19.4,14.8,0,25.8-6.8,33.3-19.3,4.6-7.8,6.6-16.3,6.6-25.2h0Z"/>
  <path d="M451.9,797.5c-44.5-.1-78.8-34.6-78.5-79.1.1-43.6,35.1-77.9,79.3-77.6,43.9.3,78.3,35.1,78,79.1-.3,43.5-35.1,77.8-78.9,77.6h0ZM412.3,720.1c-.1,3.2.6,7.6,1.6,12.1,4.6,18.9,19.4,31.4,37.1,31.7,18.3.3,33.3-11.5,38.3-30.8,3.6-13.4,2.5-26.3-4.3-38.6-7.2-13-18.4-20-33.4-20s-25.9,7.3-33.3,20.3c-4.2,7.3-6,15.5-6,25.3h0Z"/>
  <path d="M587.8,519.8c0-6.2-.4-12.2,0-18.3.7-9.1,6.2-14.8,15.3-15.1,9.2-.1,15.3,5.5,15.7,14.5.7,13,.7,25.9,0,38.7-.6,8.6-6.5,13.8-15.1,14-9.2,0-14.8-5.3-15.8-14.4-.7-6.3,0-13-.1-19.4h.1Z"/>
  <path d="M469.1,520c0-6.2-.3-12.2,0-18.4.6-9.4,6-14.8,15.1-15.1,8.6-.3,15,4.9,15.5,13.4,1,13.5,1,27.4,0,40.9-.7,8.5-7.2,13.4-15.8,13-8.6-.4-14-5.6-14.5-14.4-.4-6.5,0-13-.1-19.4h-.1c0,.1,0,.1,0,.1Z"/>
</svg>