<?xml version="1.0" encoding="UTF-8"?>
<svg id="Layer_1" xmlns="http://www.w3.org/2000/svg" version="1.1" viewBox="0 0 1080 1080">
  <!-- Generator: Adobe Illustrator 29.0.0, SVG Export Plug-In . SVG Version: 2.1.0 Build 186)  -->
  <defs>
    <style>
      .st0 {
        fill: #fff;
      }
    </style>
  </defs>
  <circle class="st0" cx="540" cy="540" r="540"/>
  <path d="M824.4,540c0-57.9-17.4-111.7-47.2-156.7l88.3-88.3-79.4-79.4-88.1,88.1c-45.2-30.4-99.6-48.1-158.1-48.1s-111.7,17.4-156.7,47.1l-88.4-88.3-79.4,79.4,88.1,88.1c-30.4,45.2-48.1,99.6-48.1,158.1s17.4,111.7,47.1,156.7l-88.3,88.3,79.4,79.4,88.1-88.1c45.2,30.4,99.6,48.1,158.1,48.1s111.7-17.4,156.7-47.2l88.3,88.3,79.4-79.4-88.1-88.1c30.4-45.3,48.1-99.7,48.1-158.2h0ZM367.9,540c0-94.9,77.2-172.1,172.1-172.1s172.1,77.2,172.1,172.1-77.2,172.1-172.1,172.1-172.1-77.2-172.1-172.1Z"/>
</svg>