<?xml version="1.0" encoding="UTF-8"?>
<svg id="Layer_1" xmlns="http://www.w3.org/2000/svg" version="1.1" viewBox="0 0 1080 1080">
  <!-- Generator: Adobe Illustrator 29.0.0, SVG Export Plug-In . SVG Version: 2.1.0 Build 186)  -->
  <defs>
    <style>
      .st0 {
        fill-rule: evenodd;
      }

      .st1 {
        fill: #fff;
      }
    </style>
  </defs>
  <circle class="st1" cx="540" cy="540" r="540"/>
  <path class="st0" d="M795.4,260l-3.1,9.2-10.8,27.7-7.7,18.5c-52.3,135.4-93.8,200-138.5,200s-40-7.7-60-24.6l-6.2-4.6c-13.8-13.9-20-16.9-33.8-16.9s-20,9.2-35.4,30.8c-16.9,23.1-33.9,55.4-53.9,100l-1.5,4.6h190.8l-23.1,50.8h-175.4v204.6h-52.3V260h410.8ZM723.1,310.8h-286.1v200c33.9-61.5,67.7-92.3,101.5-92.3s43.1,7.7,63.1,26.1l6.2,6.1c12.3,12.3,18.5,15.4,29.2,15.4,12.3-1.5,44.6-53.9,86.2-155.4h0Z"/>
</svg>