<?xml version="1.0" encoding="UTF-8"?><svg id="Layer_1" xmlns="http://www.w3.org/2000/svg" width="1080" height="1080" viewBox="0 0 1080 1080"><circle cx="540" cy="540" r="540"/><g id="_Слой_1"><polygon points="519.337 200 230.388 325.783 374.367 412.321 519.337 349.215 519.337 200" style="fill:#e2ba43;"/><polygon points="560.658 200 560.658 349.215 705.629 412.321 849.612 325.783 560.658 200" style="fill:#e2ba43;"/><path d="M728.716,446.657c-3.547,119.009-66.711,228.327-168.058,290.832v162.511c186.888-117.101,303.682-319.315,311.738-539.7l-143.68,86.357h0Z" style="fill:#e2ba43;"/><path d="M519.337,737.489c-101.347-62.509-164.511-171.823-168.058-290.832l-143.676-86.357c8.056,220.385,124.85,422.599,311.734,539.7v-162.511Z" style="fill:#e2ba43;"/></g></svg>