<?xml version="1.0" encoding="UTF-8"?>
<svg id="Layer_1" xmlns="http://www.w3.org/2000/svg" xmlns:xlink="http://www.w3.org/1999/xlink" version="1.1" viewBox="0 0 1080 1080">
  <!-- Generator: Adobe Illustrator 29.0.0, SVG Export Plug-In . SVG Version: 2.1.0 Build 186)  -->
  <defs>
    <style>
      .st0 {
        fill: url(#linear-gradient1);
      }

      .st1 {
        fill: url(#radial-gradient);
      }

      .st2 {
        fill: url(#linear-gradient);
      }

      .st3 {
        fill: #fff;
      }
    </style>
    <radialGradient id="radial-gradient" cx="-4109.4" cy="-311.4" fx="-4109.4" fy="-311.4" r="26.9" gradientTransform="translate(-44512.9 21375.5) rotate(149.8) scale(12.1 14.5)" gradientUnits="userSpaceOnUse">
      <stop offset=".1" stop-color="#999"/>
      <stop offset=".7" stop-color="#232323"/>
      <stop offset="1" stop-color="#515151"/>
    </radialGradient>
    <linearGradient id="linear-gradient" x1="539.9" y1="2782.5" x2="539.9" y2="3187.7" gradientTransform="translate(0 -2324)" gradientUnits="userSpaceOnUse">
      <stop offset="0" stop-color="#878787"/>
      <stop offset=".5" stop-color="#a5a5a5"/>
      <stop offset="1" stop-color="#515151"/>
    </linearGradient>
    <linearGradient id="linear-gradient1" x1="636" y1="2772.8" x2="636" y2="3214.8" gradientTransform="translate(0 -2324)" gradientUnits="userSpaceOnUse">
      <stop offset="0" stop-color="#adadad"/>
      <stop offset="1" stop-color="#161616"/>
    </linearGradient>
  </defs>
  <path class="st3" d="M540,0h0c298.2,0,540,241.8,540,540h0c0,298.2-241.8,540-540,540h0C241.8,1080,0,838.2,0,540h0C0,241.8,241.8,0,540,0Z"/>
  <path class="st1" d="M716.8,404.6c0,9.1-8.3,15.3-17.4,14.5-22-2.3-42.5-2-61.3-.3-41.2,4.5-75.6,17.1-107.3,28.8h0c-1.9.7-3.9,1.3-5.8,2-33.7,12.4-64.5,23-101.2,24-14.8.3-30.2-.7-48-4.5-15-3.2-26.9-14.5-29.8-29.2-2.3-12-3.6-24-3.6-36.6,0-103.7,83.7-187.6,187.1-187.6s187.1,84,187.1,187.6c.3.3.3.7.3,1h0c0,.1,0,.1,0,.1Z"/>
  <path class="st2" d="M359.3,498c-14-3.3-26.9,11.7-19.9,24.3l183.7,337.4c2.9,5.5,10.7,5.5,13.7,0l202.6-372.4c7.2-13.2.3-29.8-14.5-32.7-32.1-6.5-59.3-7.1-83.7-4.6-37.3,3.9-68.1,15.3-100.2,27.2-1.9.6-3.3,1.3-5.2,1.9-33.7,12.4-69,24.9-111.5,25.9-19.9.7-41.5-1.6-65.1-7.1h0Z"/>
  <path class="st0" d="M529.8,488c0-3.9,2.3-7.5,6.2-8.8,1.9-.6,3.3-1.3,5.2-1.9,32.1-12,62.9-23.3,100.2-27.2,24.3-2.6,51.5-1.9,83.7,4.6,14.8,2.9,21.7,19.4,14.5,32.7l-202.6,372.4c-1.6,2.9-4.2,4.2-7.1,4.2v-376h-.3.2Z"/>
</svg>