<?xml version="1.0" encoding="UTF-8"?>
<svg id="Layer_1" xmlns="http://www.w3.org/2000/svg" xmlns:xlink="http://www.w3.org/1999/xlink" version="1.1" viewBox="0 0 1080 1080">
  <!-- Generator: Adobe Illustrator 29.0.0, SVG Export Plug-In . SVG Version: 2.1.0 Build 186)  -->
  <defs>
    <style>
      .st0 {
        fill: url(#linear-gradient);
      }

      .st1 {
        fill: #fff;
      }
    </style>
    <linearGradient id="linear-gradient" x1="540.1" y1="2209.9" x2="540.1" y2="1562" gradientTransform="translate(0 -1346)" gradientUnits="userSpaceOnUse">
      <stop offset="0" stop-color="#d3a46c"/>
      <stop offset=".7" stop-color="#f8e8b6"/>
      <stop offset="1" stop-color="#d3a46c"/>
    </linearGradient>
  </defs>
  <path class="st1" d="M540,0h0c298.2,0,540,241.8,540,540h0c0,298.2-241.8,540-540,540h0C241.8,1080,0,838.2,0,540h0C0,241.8,241.8,0,540,0Z"/>
  <path id="_5dBCAF.tif" class="st0" d="M848.9,494.1c-6.6-46.5-19.9-93-33.3-137.8-15-43.2-31.5-86.4-49.8-127.9-3.3-6.6-8.3-11.7-16.6-11.7-69.7,0-139.5-1.7-209.2,0h-207.6c-9.9,0-16.6,3.3-19.9,13.2-11.7,24.9-21.6,51.5-31.5,76.5-28.2,76.5-49.8,152.8-56.4,234.1-3.3,39.9-1.7,79.8,8.4,119.5,16.6,64.8,49.8,116.2,104.7,152.8,48.1,31.5,101.2,46.5,159.4,49.8,31.5,1.6,63.1,1.6,93,0,28.2-1.6,56.5-6.6,84.7-16.6,54.9-18.3,101.4-49.8,134.5-97.9,30-44.8,43.2-93,48.1-146.2,0-36.6-1.6-71.4-8.3-108h0ZM824,588.8c-1.6,49.8-15,97.9-43.2,139.5-31.5,49.8-78,81.4-134.5,94.6-28.2,6.6-54.9,9.9-83.1,9.9h-73c-53.1-3.3-103-16.6-146.2-49.8-33.3-26.6-56.5-59.8-71.4-99.7-16.6-39.9-21.6-83.1-19.9-126.1,0-3.3-1.7-8.3,1.7-9.9,1.7-1.6,6.6,3.3,8.3,5,13.2,8.3,26.6,16.6,39.9,23.2,3.3,1.6,3.3,3.3,5,6.6,13.2,46.5,54.9,76.5,103,74.7,9.9,0,18.3-3.3,28.2-6.6,8.4-3.3,11.7-11.7,9.9-18.3-1.7-8.3-9.9-11.7-18.3-9.9-9.9,1.6-19.9,5-30,3.3-31.5-1.6-59.8-28.2-63.1-59.8-5-41.5,26.6-78,68.1-78s11.7,1.7,18.3,3.3c9.9,3.3,18.3-1.7,19.9-9.9,1.7-8.4-3.3-16.6-11.7-19.9-56.5-16.6-112.9,18.3-126.1,74.7,0,1.6,0,3.3-1.7,6.6-11.7-5-21.6-11.7-31.5-19.9-5-3.3-9.9-6.6-13.2-9.9-1.7-1.6-3.3-3.3-1.7-6.6,6.6-38.2,15-76.5,26.6-112.9,15-46.5,31.5-93,51.5-137.8,1.7-3.3,3.3-5,6.6-5,68.1,0,137.8-1.7,207.6-1.7s124.6,0,187.6,1.7c3.3,0,5,1.7,6.6,3.3,31.5,73,58.2,149.5,73,229.2,3.3,15,5,31.5,6.6,46.5v3.3c-1.6,0-3.3,0-3.3-1.6-48.1-31.5-101.2-46.5-159.4-41.5-24.9,1.7-48.1,9.9-71.4,21.6-19.9,9.9-36.6,21.6-56.5,31.5-6.6,3.3-11.7,6.6-18.3,9.9-1.6,1.6-3.3,0-3.3-1.6-3.3-8.3-6.6-16.6-8.4-24.9-3.3-11.7-11.7-15-23.3-11.7-9.9,3.3-21.6,8.3-31.5,11.7s-15,11.7-11.7,19.9,11.7,11.7,21.6,8.3c5-1.6,9.9-3.3,13.2-5s5-1.6,6.6,3.3c6.6,19.9,15,39.9,21.6,61.5,1.6,6.6,8.4,9.9,15,9.9s11.7-3.3,15-9.9c1.6-3.3,1.6-6.6,0-11.7s-3.3-11.7-6.6-16.6c0-1.6-1.6-3.3,1.6-3.3,15-6.6,28.2-13.2,41.5-21.6,11.7-6.6,24.9-13.2,36.6-21.6,28.2-16.6,59.8-21.6,93-19.9,44.8,3.3,84.7,18.3,119.5,46.5,8.3,8.3,9.9,8.3,8.3,23.2h0v-.4h0ZM777.5,602.1c-6.6,16.6-11.7,33.3-18.3,51.4-13.2,34.8-26.6,71.4-38.2,106.3-3.3,8.3-8.3,11.7-15,11.7-11.7,0-18.3-9.9-15-21.6,9.9-26.6,18.3-51.4,28.2-78s19.9-53.1,28.2-79.8c3.3-8.3,11.7-13.2,19.9-9.9,8.3,1.6,13.2,9.9,9.9,19.9h.1c0,.1,0,.2,0,.2ZM692.8,645.3c-8.3,3.3-16.6,0-21.6-8.3-5-11.7-11.7-23.2-16.6-36.6,0-1.6-1.6-3.3-3.3-5-5,15-9.9,30-16.6,43.2-9.9,26.6-19.9,53.1-28.2,79.8-1.6,6.6-5,9.9-11.7,11.7-11.7,1.6-21.6-8.3-16.6-19.9,8.3-21.6,16.6-44.8,24.9-66.4,11.7-30,21.6-61.5,33.3-91.3,3.3-11.7,16.6-15,24.9-8.3,1.6,1.6,3.3,3.3,5,6.6,11.7,24.9,23.2,49.8,34.8,74.7,1.6,6.6-1.6,15-8.3,19.9h-.2ZM559.9,666.9c-11.7,15-24.9,30-36.6,44.8-23.2,28.2-46.5,56.5-69.7,83.1-3.3,3.3-8.4,8.3-11.7,6.6-6.6,0-11.7-3.3-15-8.3s-1.7-11.7,1.7-16.6c8.4-9.9,16.6-19.9,24.9-30,28.2-33.3,56.5-66.4,83.1-99.7,5-6.6,11.7-8.3,18.3-5,9.9,3.3,11.7,15,5,24.9h-.1c0,.1,0,.2,0,.2Z"/>
</svg>