<?xml version="1.0" encoding="UTF-8"?>
<svg id="Layer_1" xmlns="http://www.w3.org/2000/svg" version="1.1" viewBox="0 0 1080 1080">
  <!-- Generator: Adobe Illustrator 29.0.0, SVG Export Plug-In . SVG Version: 2.1.0 Build 186)  -->
  <defs>
    <style>
      .st0 {
        fill: #fff;
      }
    </style>
  </defs>
  <path class="st0" d="M540,0h0c298.2,0,540,241.8,540,540h0c0,298.2-241.8,540-540,540h0C241.8,1080,0,838.2,0,540h0C0,241.8,241.8,0,540,0Z"/>
  <g id="kXAPXp.tif">
    <path d="M217.3,539.4v-231.7c0-7.5,1.3-9.9,8.6-9.9h106.6c7.5,0,9.9,1.3,9.9,9.9v167.3c0,7.5,1.3,9.9,9.9,9.9h180.9c7.5,0,9.9-2.5,8.6-9.9v-167.3c0-7.5,1.3-9.9,9.9-9.9h106.6c7.5,0,8.6,2.5,8.6,8.6v465.8c0,6.2-1.3,8.6-8.6,8.6h-107.9c-7.5,0-8.6-1.3-8.6-8.6v-174.7c0-7.5-1.3-9.9-9.9-9.9h-180.9c-7.5,0-9.9,2.5-9.9,9.9v174.7c0,7.5-2.5,9.9-9.9,9.9h-106.6c-7.5,0-8.6-2.5-8.6-9.9,1.3-78,1.3-156.1,1.3-233h0c0,.1,0,.1,0,.1Z"/>
    <path d="M800.8,781.1h-55.7c-6.2,0-8.6-2.5-7.5-8.6v-107.9c0-6.2,1.3-8.6,7.5-8.6h111.5c4.9,0,7.5,1.3,7.5,7.5v110.3c0,4.9-2.5,6.2-7.5,6.2-17.4,1.3-36,1.3-55.7,1.3h0q0-.1,0-.1Z"/>
  </g>
</svg>