<?xml version="1.0" encoding="UTF-8"?><svg id="Layer_1" xmlns="http://www.w3.org/2000/svg" width="1080" height="1080" viewBox="0 0 1080 1080"><circle cx="540" cy="540" r="540" style="fill:#fff;"/><path d="M615.447,831.812l-2.486-9.786,80.666-214.6c-.008-3.113-2.375-3.106-4.676-3.378-17.032-2.015-44.098-.249-62.174-.001-1.886.026-3.068,1.411-3.245,1.414-23.461.299-50.68-1.964-73.51-.071-1.499.124-3.009-.094-3.988,1.402l-78.793,202.809c-5.316,12.257-16.987,20.822-30.319,22.23-39.222,4.143-85.446-3.184-125.425.04-1.903.726-5.031-1.422-5.975-1.406l-2.77-7.394,107.91-289.58-107.595-273.946,1.107-9.778c42.585,0,87.416-4.708,130.033-1.347,13.854,1.093,25.668,7.94,32.201,20.348l82.927,206.759c1.211,1.739,2.838,1.799,4.735,2.002,19.502,2.097,48.452.271,68.936.028,2.611-.031,4.328-1.437,4.567-1.44,22.035-.348,44.827.99,66.728.002,2.058-.093,2.253.533,2.018-2.031-28.213-71.36-53.899-143.639-83.31-214.544-1.465-4.17,1.818-7.236,2.437-11.126,40.652-.166,89.982-5.142,130.034-1.348,13.744,1.302,27.81,10.474,33.268,23.324l106.25,265.77c-32.931,81.333-62.791,163.939-95.486,245.36-9.749,24.278-14.162,49.173-45.381,51.633-42.175,3.323-86.573-1.347-128.685-1.347Z"/><path d="M304.175,249.766l-1.107,9.778,107.595,273.946-107.91,289.58,2.77,7.394c-8.287.137-15.17,1.365-24.867,1.287-13.945-.112-27.898.208-41.843.069-3.267-.238-3.096-2.034-3.422-4.657-1.717-13.828,10.745-36.58,15.82-50.33,7.784-21.091,14.713-42.556,22.638-63.593.908-2.409,2.989-4.248,3.813-6.966,1.362-4.492.064-9.301,1.096-12.378.667-1.991,3.719-2.016,4.924-4.507,3.584-7.405,5.682-17.305,8.683-25.001,12.948-33.211,25.298-66.505,37.825-99.607,2.429-6.419,11.04-23.662,11.694-28.813.916-7.206-4.421-13.772-6.766-20.056-4.863-13.03-10.087-25.712-13.402-38.858-.345-1.369-2.882-1.125-3.805-3.179-2.871-6.389-4.967-16.62-7.69-23.34-22.075-54.492-43.31-109.078-64.68-164.374-3.593-9.297-13.066-24.51-9.907-34.194.769-2.357,12.024-3.413,15.252-3.61,17.778-1.087,35.775,1.409,53.288,1.409Z" style="fill:#c241b3;"/><path d="M615.447,831.812c-2.914,0-5.64,1.42-8.701,1.409-15.339-.055-39.899,2.033-53.889-.13-5.534-.856-8.032-4.787-8.668-10.045,8.266-27.815,19.905-54.414,30.17-81.494,15.436-40.726,33.411-85.843,47.889-128.623.832-2.459,1.567-4.821,1.284-7.468.177-.002,1.359-1.388,3.245-1.414,18.076-.248,45.142-2.014,62.174.001,2.301.272,4.668.265,4.676,3.378l-80.666,214.6,2.486,9.786Z" style="fill:#c241b3;"/><path d="M615.447,248.419c-.618,3.89-3.902,6.956-2.437,11.126,29.411,70.905,55.097,143.184,83.31,214.544.235,2.564.04,1.938-2.018,2.031-21.9.987-44.692-.35-66.728-.002l-5.313-18.266c-15.848-37.348-31.106-76.173-45.599-113.392-11.302-29.024-23.047-57.748-32.772-87.271-.473-7.086,5.696-9.278,11.733-9.976,19.576-2.266,40.483,1.285,59.823,1.207Z" style="fill:#c241b3;"/></svg>