<?xml version="1.0" encoding="UTF-8"?>
<svg id="Layer_1" xmlns="http://www.w3.org/2000/svg" version="1.1" viewBox="0 0 1080 1080">
  <!-- Generator: Adobe Illustrator 29.0.0, SVG Export Plug-In . SVG Version: 2.1.0 Build 186)  -->
  <defs>
    <style>
      .st0 {
        fill: #df7893;
      }

      .st1 {
        fill: #a58357;
      }

      .st2 {
        fill: #bea47a;
      }

      .st3 {
        fill: #fff;
      }

      .st4 {
        fill: #fefefe;
      }

      .st5 {
        fill: #7f6338;
      }
    </style>
  </defs>
  <path class="st3" d="M540,0h0c298.2,0,540,241.8,540,540h0c0,298.2-241.8,540-540,540h0C241.8,1080,0,838.2,0,540h0C0,241.8,241.8,0,540,0Z"/>
  <g>
    <path class="st0" d="M639.5,491.6c-5.2.1-12.2.6-17,0-7.1-.9-33.5-11.6-36.6-10.9s-24.6,19-29.6,22.3c-9.7,3.1-18.5,8.6-28.4,11.3s-25.3,4.2-39.7,3.8c-2,0-5.9-3.1-11.3-1.9-4.5-5.4-14.6-7.4-20.8-11.3s-5.5-4-7.6-5.7c-3.4-2.7-8.2-11.5-12.7-12.9-4.3-1.3-16.7,1.5-23.2,1.5-29.7.3-52.5-5.1-72.8-28.3-31.1-35.5-10.2-75.4,27.5-93.8-2.1-25-.7-50.4,8.5-74.2,60.2-155.6,294-122.2,302.3,45.3,32.6,10.8,71,28.6,46.1,68.5-2.3,3.7-11.9,12.7-12.5,15.6s2.8,10.4,2.9,14.9c.5,35.4-45.3,54.9-75.2,55.7ZM496.4,238.1c20.5,18.1,47.3-13.4,27.6-30.4-20.5-17.7-46.6,13.7-27.6,30.4ZM391.8,412.3v-40.6c0-28.7,34.3-85.2,54.8-105.7s28.5-21.3,30.4-24.4c6.6-10.9-3.7-21.3-15.3-19.2-21.9,4-48.2,31.9-59.4,50.3-20.9,34.7-27.6,94.9-14.9,133.5.8,2.4,1.3,5.5,4.3,6ZM542.5,443c-31.5,6.5-10.8,48.3,16.6,33.6,2.7-1.4,25.1-20.1,25.5-21.8,1.2-5.3-24.3-11.8-29.3-12.2s-8.8-.4-12.8.4ZM618.2,442.9c-17.4,3.4-28.9,20.3-5.3,25.2,33.2,7,30.4-30.1,5.3-25.2Z"/>
    <path class="st5" d="M448.5,499.2l-17,1.9,3.8,20.8c1,1,19.5-14.2,20.8-17,6.2,4,16.3,5.9,20.8,11.3-3.3.8-11.6,8.6-15.1,11.3s-20.3,15.3-20.3,19.4c-.2,12.9,10.8,34.2,11.1,48.4,4.3.6,8.7,0,13,.2s2.5,3.1,5.4,1.6c.4-.2.5-2.6,1.7-3.4,4.7-3.2,11.6-9,15.6-11.4,18.8-11.2,47-24.2,67.7-31.5,4.5-1.6,24-5.4,25-6.2,3.5-3-7.2-6.5-8.2-7.8l-44.7-22.3c9.8-2.7,18.7-8.2,28.4-11.3-1,4.6,2.3,3.9,5,5.3,6.2,3.3,12.8,6,19,9.5,5.7,3.2,32.8,22.2,36.5,19.1s5.6-39.3,5.7-45.2c4.9.6,11.8.1,17,0-13.1,85.6-22.8,172.3-42.5,256.7-6,25.6-25.3,108.3-46.4,121.6-20.1,12.6-32.7-19.9-39.3-34.2-14-30-26.2-67.9-36.2-99.7-25.6-81.3-44.6-164.9-62.3-248.3,6.5,0,18.9-2.8,23.2-1.5,4.5,1.4,9.3,10.1,12.7,12.9ZM603.2,634.7c3.6-4.1,6.8-57.3,11.5-66.8-.6-10.8-21.6-5.4-28.6-4-30.3,5.8-62.4,21.9-88.5,38.1,16.9,6.5,34.2,12,51,18.9,10,4.1,33.3,18.8,42.4,17.9s11.7-3.7,12.1-4.1ZM469.3,623.7c-4.8,2.8-8.4,1.1-7.2,9.9l20.3,72.1c1.4,2.2,4.1.8,5.9,1.1,12.2,2.3,9-5.8,13.2-9.4,3.8-3.3,14.6-6.4,18-13.2l46.2-33.1c-22.2-14.6-49.7-21.9-75.6-27.4-4.3-.9-8-4.3-14.3-3.9s-5.1,3.1-6.5,3.9ZM516.6,716.2l61.4,28.3c2.8-.6,6.6-20.2,7.7-24.5,1.8-7.3,11.3-47.4,9.5-51-2.7-5.4-9.2-4.1-13.8-2.3-9.6,3.7-32.9,20.9-41.9,28s-24.2,19.7-22.9,21.5ZM499.6,738.9c-.3.4-6.6.5-5.4,4.3,9.4,23.9,15.1,49.5,25.3,73,2.9,6.8,15.5,36.1,24.2,33.8,11-2.8,25.6-71.7,29.5-84.5-19.6-12.5-40.3-21.1-62.2-28.6s-1.8-2.4-3.6-2.9c-11.7-3.4-6.2,2.5-7.7,4.8Z"/>
    <path class="st4" d="M391.8,412.3c-3.1-.5-3.5-3.6-4.3-6-12.7-38.6-6-98.8,14.9-133.5,11.1-18.5,37.5-46.4,59.4-50.3,11.6-2.1,21.9,8.2,15.3,19.2s-25,19-30.4,24.4c-20.5,20.5-54.8,77-54.8,105.7v40.6Z"/>
    <path class="st1" d="M527.9,514.3l44.7,22.3c1,1.3,11.7,4.9,8.2,7.8s-20.5,4.6-25,6.2c-20.6,7.4-48.9,20.3-67.7,31.5-5.3-21.1.9-42.8,0-64.2,14.4.4,25.8,0,39.7-3.8Z"/>
    <path class="st1" d="M622.5,491.6c-.2,5.9-4,43.8-5.7,45.2-3.7,3-30.7-15.9-36.5-19.1-6.2-3.4-12.8-6.1-19-9.5-2.6-1.4-6-.7-5-5.3,4.9-3.3,26.3-21.6,29.6-22.3s29.5,10,36.6,10.9Z"/>
    <path class="st2" d="M488.2,518c.9,21.4-5.3,43.1,0,64.2-4,2.4-10.9,8.2-15.6,11.4s-1.3,3.2-1.7,3.4c-2.9,1.6-4.8-1.6-5.4-1.6-3.5-22.4-4.1-45.3-3.8-68,3.5-2.7,11.8-10.6,15.1-11.3,5.5-1.2,9.4,1.8,11.3,1.9Z"/>
    <path class="st4" d="M542.5,443c4-.8,8.7-.7,12.8-.4s30.5,7,29.3,12.2-22.8,20.3-25.5,21.8c-27.4,14.7-48.1-27.1-16.6-33.6Z"/>
    <path class="st4" d="M496.4,238.1c-18.9-16.7,7.1-48.1,27.6-30.4,19.7,17-7.1,48.5-27.6,30.4Z"/>
    <path class="st4" d="M618.2,442.9c25.1-4.8,27.9,32.2-5.3,25.2-23.5-5-12.1-21.9,5.3-25.2Z"/>
    <path class="st1" d="M456.1,504.8c-1.3,2.8-19.8,18-20.8,17l-3.8-20.8,17-1.9c2,1.6,5.5,4.3,7.6,5.7Z"/>
    <path class="st1" d="M603.2,634.7c-.4.5-11,4-12.1,4.1-9.1.9-32.4-13.8-42.4-17.9-16.8-6.9-34.1-12.4-51-18.9,26.1-16.2,58.1-32.4,88.5-38.1,7-1.3,28-6.8,28.6,4-4.7,9.5-7.9,62.7-11.5,66.8Z"/>
    <path class="st1" d="M510.9,737c21.9,7.5,42.6,16,62.2,28.6-3.9,12.8-18.5,81.7-29.5,84.5-8.7,2.3-21.3-27-24.2-33.8-10.1-23.6-15.9-49.2-25.3-73-1.2-3.8,5.1-3.9,5.4-4.3,9.2,23,17.5,48,32.1,68l-20.8-69.8ZM533.6,812.5c1.4-2.7-1.2-5-1.9-3.8-1.4,2.7,1.2,5,1.9,3.8Z"/>
    <path class="st1" d="M516.6,716.2c-1.3-1.8,20.3-19.5,22.9-21.5,9-7,32.3-24.3,41.9-28,4.6-1.8,11.1-3,13.8,2.3s-7.7,43.6-9.5,51c-1,4.3-4.9,23.9-7.7,24.5l-61.4-28.3Z"/>
    <path class="st1" d="M490.1,623.7c25.9,5.5,53.4,12.8,75.6,27.4l-46.2,33.1c-3.4,6.8-14.2,9.9-18,13.2l-11.3-73.6Z"/>
    <path class="st2" d="M490.1,623.7l11.3,73.6c-4.2,3.7-1,11.7-13.2,9.4l-18.9-83.1c1.4-.8.8-3.7,6.5-3.9s9.9,3,14.3,3.9Z"/>
    <path class="st1" d="M465.6,595.4c-4.3-.2-8.7.4-13-.2-.3-14.1-11.3-35.5-11.1-48.4,0-4.1,16.2-16.2,20.3-19.4-.4,22.7.3,45.5,3.8,68Z"/>
    <path class="st2" d="M510.9,737l20.8,69.8c-14.6-20-22.9-45-32.1-68,1.5-2.3-4-8.3,7.7-4.8,1.8.5,3,2.7,3.6,2.9Z"/>
    <path class="st1" d="M469.3,623.7l18.9,83.1c-1.8-.3-4.5,1.1-5.9-1.1l-20.3-72.1c-1.2-8.8,2.4-7,7.2-9.9Z"/>
    <path class="st2" d="M533.6,812.5c-.7,1.3-3.2-1.1-1.9-3.8s3.2,1.1,1.9,3.8Z"/>
  </g>
</svg>