<?xml version="1.0" encoding="UTF-8"?>
<svg id="Layer_1" xmlns="http://www.w3.org/2000/svg" version="1.1" viewBox="0 0 1080 1080">
  <!-- Generator: Adobe Illustrator 29.0.0, SVG Export Plug-In . SVG Version: 2.1.0 Build 186)  -->
  <defs>
    <style>
      .st0 {
        fill: #fff;
      }

      .st1 {
        fill: #d7d7d9;
      }

      .st2 {
        fill: #17b8be;
      }
    </style>
  </defs>
  <path class="st0" d="M540,0h0c298.2,0,540,241.8,540,540h0c0,298.2-241.8,540-540,540h0C241.8,1080,0,838.2,0,540h0C0,241.8,241.8,0,540,0Z"/>
  <path class="st2" d="M539.5,288.1c47.7,27.6,95.4,55.2,143.2,82.8,1.6.9,2.8,1.7,2.8,4,0,53.7,0,107.4,0,161.1,0,.7,0,1.4-.1,2.1-48.7-26.8-97.3-53.5-146-80.3,0-55.8,0-111.6,0-167.4,0-.8.2-1.6.3-2.4h0Z"/>
  <path class="st1" d="M539.5,288.1c0,.8-.3,1.6-.3,2.4,0,55.8,0,111.6,0,167.4-25.8,14.4-51.7,28.7-77.6,43.1-22.3,12.4-44.6,24.9-66.9,37.3,0-1,0-2,0-3,0-53.4,0-106.7,0-160.1,0-2.8,1-4.2,3.2-5.4,21.5-12.4,43-24.9,64.5-37.4,23.2-13.5,46.5-26.9,69.8-40.3,2.4-1.4,4.7-3.1,7.4-3.9h0Z"/>
  <path d="M394.8,538.3c22.3-12.4,44.6-24.9,66.9-37.3,25.9-14.4,51.7-28.7,77.6-43.1,48.7,26.8,97.3,53.5,146,80.3-5.5,4-11.6,7.1-17.4,10.6-42,24.9-84,49.7-126.1,74.5-1.5.9-2.6,1.5-4.6.3-47-28.2-94.1-56.3-141.2-84.4-.4-.2-.8-.6-1.2-.9h0Z"/>
  <path class="st2" d="M531.8,748c-2.8,7.3-5.2,13.7-7.7,20.2-1.9,5-4,6.5-9.3,6.5-3.1,0-6.2,0-9.4,0-3.8,0-6.4-1.9-7.8-5.6-8.6-23.2-17.2-46.5-26-69.6-1-2.7.4-4,1.9-5.4,4.5-3.9,10-5.1,15.6-5.7,4.5-.5,9-.3,13.6-.2,2.6,0,3.4,1.1,3.8,3.4,2.3,13.3,4.7,26.6,7.1,39.8,0,.5.2.9.6,2.2,1.1-12,2.3-23.1,3.2-34.2.8-9.6,1.5-12.2,12.3-11.7,2.1.1,4.2,0,6.3,0,6,0,7.6,1.6,8.6,7.7,1.7,11.3,3.6,22.7,5.4,34,0,.6,0,1.2,1,1.9.3-2.7.6-5.2.8-7.7.7-8.9,1.4-17.9,1.9-26.8.2-3.3,1.7-5.2,4.7-6.2,6.5-2.3,13.2-2.5,20-2.9,1.6,0,3.2,0,4.8,0,5.6,0,8.5,4.1,6.7,9.4-3.4,10.1-6.9,20.2-10.3,30.3-4.6,13.5-9.2,27.1-13.8,40.6-1.6,4.7-4,6.5-9,6.5-3,0-6,0-9.1,0-5.7,0-8-1.7-9.8-7.1-2.1-6.3-4.1-12.6-6.4-19.6h0,0Z"/>
  <path d="M338.4,730.8c0,6.5.5,13.1-1.6,19.5-4.6,14.2-17,23.8-32.4,24.2-8.4.2-17,1-25.3-1.3-14.6-4.2-25.1-17.9-24.9-33,0-8.3-.9-16.6.6-24.8,2.8-16.1,17.1-28.2,33.4-28.3,7.4,0,15-.8,22.4.6,15.6,3,27.3,16.6,27.9,32.5.1,3.5,0,7.1,0,10.6h0ZM289.3,731c0,5.8,0,11.7,0,17.5,0,4.5,2.9,7.6,7.2,7.7,4.3,0,7.6-2.8,7.6-7.2.1-11.9.1-23.8,0-35.6,0-4.2-3.4-7.1-7.5-7.1-4.2,0-7.3,3.2-7.3,7.6,0,5.7,0,11.5,0,17.2h0Z"/>
  <path class="st2" d="M832.6,708.6v-16.9c0-8.3,4.7-13,12.9-13s8.9,0,13.3,0c3.7,0,5.2,1.5,5.2,5.2v83.8c0,4.2-2.2,6.7-6.4,6.9-6.3.2-12.7,0-19.1,0-1.5,0-1.9-.6-1.9-2,0-2.8,0-5.6,0-8.9-3,2.1-5,4.4-7.1,6.6-2.9,3.1-6.2,4.5-10.5,4.3-3.3-.2-6.7.1-10-.6-9-1.9-15.4-9.9-15.5-19.1,0-10.3,0-20.6,0-30.9,0-11.4,8.9-20.9,20.2-21.8,2.6-.2,5.2-.2,7.9,0,4.3.2,7.7,2.2,10.9,6.3h0ZM832.9,739.9c0-5.5,0-11.1,0-16.7,0-2.3-1-2.5-2.8-2.2-2.7.5-4.8,2.9-4.8,6.1,0,8.2,0,16.3,0,24.5,0,3,1.5,5.4,4.4,6.6,2,.8,3.2.7,3.1-2-.1-5.4,0-10.9,0-16.3h0,0Z"/>
  <path d="M460.7,739.8c0,9.4,0,18.8,0,28.2,0,13.6-10.3,23.9-23.9,23.9s-21.4,0-32.1,0c-3.9,0-7.6-.7-9.3-4.8-1.7-4.2,0-11.7,2.9-14.1,1.7-1.5,3.8-1.4,5.7-.9,7.5,2.2,15.2.7,22.9,1,1.9,0,3-1.4,3-3.5,0-3,0-6,0-9.1,0-.6.4-1.5-.6-1.7-.8-.2-1.5,0-2.1.7-6.9,9-16.1,6.5-24.6,4.3-8.2-2.2-13.4-10.3-13.5-19.2-.1-11,0-22,0-33,0-1.5.5-2.4,1.8-3.1,8-4.3,16.7-5,25.5-4.7,2.7,0,3.8,2.3,3.8,5,.1,8.7.3,17.3.4,26,0,3,.1,6,.2,9.1.1,3.1,1.7,5.3,4.5,6.6,2,.9,2.8.6,2.8-1.9-.1-12,.1-24-.1-36,0-3.5,1.5-5.2,4.4-6.2,5.8-2.1,11.8-2.4,17.8-2.8,9.3-.5,11,1.6,10.7,10.6-.3,8.6,0,17.2,0,25.7h0,0Z"/>
  <path class="st2" d="M634.2,703.5c7.1,0,14.1-.5,20.7,3,10.7,5.7,16.5,14.5,16.6,26.8,0,5.5.7,11.2-.3,16.6-2.6,14.4-13.8,24.1-28.7,24.7-7.5.3-15.1.9-22.6-.8-12.8-2.9-22.5-14.4-22.8-27.5-.2-6.3-.7-12.7.5-19,2.7-13.8,14.9-23.8,28.9-23.8h7.9ZM641.9,739.7c0-4,0-8,0-12.1,0-4.3-2.7-7.1-6.5-7.2-3.8,0-6.8,2.8-6.8,6.9,0,8.2,0,16.3,0,24.5,0,4.1,3,7,6.8,6.9,3.7,0,6.4-2.9,6.5-6.9,0-4,0-8,0-12.1h0Z"/>
  <path class="st2" d="M711.1,714.2c3.2-2.3,5.8-4.2,8.4-6,4.2-2.7,8.5-4.9,13.5-5.8,2.9-.5,5.6-.2,8.2,1.1,2.3,1.2,3.7,2.9,4,5.6.7,5,1,10-.2,15-1.7,7.8-6.5,10.7-14.1,8.7-4.2-1.1-8.4-2-12.8-1.6-2.8.3-4.2,1.4-4.2,4.6.2,9.8,0,19.6,0,29.4,0,6.2-3,9.3-9.3,9.3-6.8,0-13.5,0-20.3,0-1.8,0-2.4-.5-2.4-2.4,0-20.2,0-40.4,0-60.5,0-1.1,0-2.2,1.2-2.8,6.5-3.5,13.3-6.3,21-5.5,1,0,2,.4,3,.5,2.9.4,4.3,1.8,3.8,4.9-.2,1.6,0,3.2,0,5.4h0s0,0,0,0Z"/>
  <path class="st2" d="M753.5,730.3v-39.9c0-8.2,3.5-11.7,11.8-11.7s7.9,0,11.8,0c4.8,0,7.5,2.7,7.5,7.5,0,26.9,0,53.8,0,80.8,0,4.9-2.6,7.5-7.4,7.6-7,0-13.9,0-20.9,0-2.3,0-2.8-.8-2.8-3,0-13.8,0-27.6,0-41.4h0Z"/>
  <path d="M378.4,726v41.4c0,4.8-2.2,7.1-6.9,7.1-6.4,0-12.7,0-19,0-3.5,0-4.5-1.1-4.5-4.6,0-25.8,0-51.6,0-77.4,0-7.8,5.9-13.7,13.8-13.8,3.9,0,7.9,0,11.8,0,3.6,0,4.9,1.3,4.9,4.9v42.3h0Z"/>
  <path d="M242.8,737.1v28.7c0,4.5-1.7,6.3-6.2,6.3-6.2,0-12.5,0-18.8,0-1.5,0-1.9-.4-1.9-1.9,0-19.5,0-38.9,0-58.4,0-4.2,3.7-7.9,8-8,5.2-.1,10.5,0,15.7,0,2.5,0,3,1.3,3,3.5,0,9.9,0,19.8,0,29.7h0Z"/>
</svg>