<?xml version="1.0" encoding="UTF-8"?><svg id="Layer_1" xmlns="http://www.w3.org/2000/svg" width="1080" height="1080" viewBox="0 0 1080 1080"><circle cx="540" cy="540" r="540"/><path d="M772.495,717.341c-33.199-40.729-75.74-88.516-123.672-139.061,4.175-11.821,6.441-24.53,6.441-37.759,0-13.518-2.362-26.487-6.711-38.521,48.048-50.651,90.676-98.535,123.942-139.341,24.106-29.563,42.031-53.891,53.302-72.307,11.012-17.993,19.825-36.014,9.845-45.994-9.98-9.98-28.001-1.167-45.994,9.845-18.417,11.272-42.744,29.206-72.308,53.302-41.076,33.488-89.336,76.473-140.362,124.906-11.166-3.683-23.103-5.67-35.493-5.67-13.2,0-25.889,2.256-37.682,6.422-51.316-48.751-99.855-92.007-141.144-125.658-29.563-24.096-53.891-42.031-72.307-53.302-17.993-11.012-36.014-19.825-45.994-9.845-9.98,9.98-1.167,28.001,9.845,45.994,11.272,18.417,29.197,42.744,53.303,72.307,33.767,41.423,77.186,90.136,126.111,141.635-3.838,11.378-5.911,23.566-5.911,36.226,0,12.371,1.986,24.298,5.66,35.455-80.282,87.195-104.927,115.688-125.861,141.365-24.096,29.563-42.031,53.891-53.303,72.307-11.012,17.993-19.825,36.014-9.845,45.994,3.066,3.066,6.894,4.358,11.243,4.358,9.806,0,22.293-6.576,34.751-14.203,18.417-11.272,42.744-29.197,72.307-53.303,41.076-33.478,89.326-76.463,140.343-124.896,12.024,4.339,24.983,6.701,38.482,6.701,12.689,0,24.906-2.092,36.313-5.94,50.728,48.125,98.689,90.83,139.543,124.135,29.563,24.106,53.891,42.031,72.308,53.303,12.467,7.627,24.944,14.203,34.751,14.203,4.349,0,8.177-1.292,11.243-4.358,9.98-9.98,1.167-28.001-9.845-45.994-11.272-18.417-29.197-42.744-53.302-72.307ZM720.127,330.174c63.764-52.83,89.876-66.31,99.421-69.723-3.413,9.546-16.893,35.657-69.723,99.421-30.441,36.747-68.152,78.97-110.067,123.354-10.404-17.78-25.494-32.494-43.564-42.445,44.586-42.118,87.022-80.031,123.932-110.607ZM635.979,540.52c0,7.453-.868,14.714-2.507,21.676-7.058-7.357-14.213-14.753-21.463-22.197,7.174-7.367,14.27-14.695,21.261-21.984,1.774,7.213,2.71,14.753,2.71,22.505ZM541.485,446.026c6.576,0,12.998.675,19.198,1.957,7.232,1.504,14.165,3.828,20.693,6.884,19.188,8.967,34.886,24.193,44.441,43.043-8.948,9.372-18.06,18.812-27.317,28.31-7.338-7.453-14.772-14.946-22.274-22.447-7.502-7.502-14.994-14.936-22.447-22.274-4.609-4.542-9.199-9.035-13.779-13.509-6.74-6.566-13.451-13.065-20.123-19.477,6.942-1.629,14.174-2.488,21.608-2.488ZM330.174,359.872c-52.83-63.764-66.31-89.876-69.723-99.421,9.546,3.413,35.657,16.893,99.422,69.723,37.21,30.826,80.04,69.106,125.031,111.648-17.896,10.308-32.736,25.33-42.812,43.361-42.648-45.097-81.024-88.024-111.918-125.311ZM359.873,749.826c-63.764,52.83-89.876,66.31-99.422,69.723,3.413-9.546,16.893-35.657,69.723-99.422,24.115-29.11,52.801-61.672,84.515-96.008,8.794-9.517,17.809-19.169,27.037-28.917,9.96,18.099,24.694,33.208,42.503,43.612-44.74,42.281-87.33,80.34-124.356,111.012ZM498.905,624.861c-18.87-9.555-34.124-25.272-43.082-44.489-3.066-6.528-5.39-13.461-6.884-20.692-1.273-6.19-1.948-12.602-1.948-19.159,0-6.865.733-13.557,2.131-20.008,1.553-7.183,3.934-14.068,7.029-20.548,9.122-19.14,24.501-34.741,43.477-44.142,8.803,8.418,17.674,16.98,26.593,25.678,4.58,4.464,9.179,8.958,13.779,13.499,7.511,7.386,15.052,14.868,22.592,22.409,7.54,7.54,15.023,15.08,22.408,22.592-7.386,7.511-14.868,15.052-22.408,22.592-7.54,7.54-15.081,15.023-22.592,22.409-4.599,4.541-9.199,9.035-13.779,13.499-9.16,8.929-18.272,17.732-27.316,26.362ZM561.56,632.865c-6.47,1.408-13.191,2.15-20.075,2.15-7.743,0-15.264-.935-22.467-2.7,6.952-6.682,13.952-13.461,20.982-20.307,4.58-4.474,9.17-8.967,13.779-13.509,7.453-7.338,14.946-14.772,22.447-22.274s14.936-14.994,22.274-22.447c9.373,9.613,18.6,19.179,27.654,28.666-9.401,18.918-24.964,34.259-44.046,43.381-6.48,3.105-13.364,5.486-20.548,7.039ZM720.127,749.826c-36.718-30.412-78.903-68.094-123.238-109.951,17.973-10.057,32.957-24.867,43.246-42.706,41.761,44.239,79.337,86.318,109.691,122.958,52.83,63.764,66.31,89.876,69.723,99.422-9.546-3.413-35.657-16.893-99.421-69.723Z" style="fill:#fff;"/></svg>