<?xml version="1.0" encoding="UTF-8"?>
<svg id="Layer_1" xmlns="http://www.w3.org/2000/svg" version="1.1" viewBox="0 0 1080 1080">
  <!-- Generator: Adobe Illustrator 29.0.0, SVG Export Plug-In . SVG Version: 2.1.0 Build 186)  -->
  <defs>
    <style>
      .st0 {
        fill: #fff;
      }

      .st1 {
        fill: #6fb591;
      }
    </style>
  </defs>
  <path class="st0" d="M540,0h0c298.2,0,540,241.8,540,540h0c0,298.2-241.8,540-540,540h0C241.8,1080,0,838.2,0,540h0C0,241.8,241.8,0,540,0Z"/>
  <path class="st1" d="M430,540.1l191.8,191.8,121.2-121.2c21.2-21.2,56.3-21.2,77.5,0s21.2,56.3,0,77.5l-159.8,160c-21.2,21.2-56.3,21.2-77.5,0l-230-230.5v137.4c0,30-24.5,54.9-54.9,54.9s-54.9-24.5-54.9-54.9v-428.5c0-30.5,24.5-54.9,54.9-54.9s54.9,24.5,54.9,54.9v136.2l230.5-230.5c21.2-21.2,56.3-21.2,77.5,0l160,160c21.2,21.2,21.2,56.3,0,77.5s-56.3,21.2-77.5,0l-121.2-121.2-192.4,191.8h0c0,.1-.1,0-.1,0h0ZM622.4,485.1c-30.5,0-54.9,24.5-54.9,54.9s24.5,54.9,54.9,54.9,54.9-24.5,54.9-54.9c-.7-30.7-25.1-54.9-54.9-54.9Z"/>
</svg>