<?xml version="1.0" encoding="UTF-8"?>
<svg id="Layer_1" xmlns="http://www.w3.org/2000/svg" version="1.1" viewBox="0 0 1080 1080">
  <!-- Generator: Adobe Illustrator 29.0.0, SVG Export Plug-In . SVG Version: 2.1.0 Build 186)  -->
  <defs>
    <style>
      .st0 {
        fill: #f3d86f;
        fill-rule: evenodd;
      }

      .st1 {
        fill: #fff;
      }
    </style>
  </defs>
  <path class="st1" d="M540,0h0c298.1,0,540,241.9,540,540h0c0,298.1-241.9,540-540,540h0C241.9,1080,0,838.1,0,540h0C0,241.9,241.9,0,540,0Z"/>
  <path class="st0" d="M771.8,568.8c-11.5-8.6-21.6-15.8-21.6-30.2s8.6-21.6,18.7-30.2c7.2-5.8,14.4-11.5,20.2-20.2,5.8-8.6,10.1-21.6,10.1-38.9,0-54.7,0-82.1-5.8-103.7-15.8-60.5-63.4-108-123.8-123.8-21.6-5.8-49-5.8-103.7-5.8h-203c-21.6,0-33.1,0-40.3,4.3s-13,10.1-17.3,17.3c-4.3,8.6-4.3,18.7-4.3,40.3v524.2c0,21.6,0,33.1,4.3,40.3s10.1,13,17.3,17.3c4.3,1.4,8.6,2.9,15.8,4.3h239c54.7,0,80.6,0,103.7-5.8,60.5-15.8,108-63.4,123.8-123.8,5.8-21.6,5.8-49,5.8-103.7s-20.2-51.8-36-61.9h-2.9,0ZM590.4,650.9c11.5,18.7,23,36,23,57.6,0,43.2-34.6,77.8-77.8,77.8s-77.8-34.6-77.8-77.8,11.5-37.4,23-57.6c17.3-25.9,37.4-57.6,37.4-110.9s-20.2-85-37.4-110.9c-13-18.7-23-36-23-57.6,0-41.8,34.6-77.8,77.8-77.8s77.8,34.6,77.8,77.8-10.1,37.4-23,57.6c-17.3,25.9-36,57.6-36,110.9s20.2,85,36,110.9h0Z"/>
</svg>