<?xml version="1.0" encoding="UTF-8"?><svg id="Layer_1" xmlns="http://www.w3.org/2000/svg" width="1080" height="1080" xmlns:xlink="http://www.w3.org/1999/xlink" viewBox="0 0 1080 1080"><defs><linearGradient id="linear-gradient" x1="281.22" y1="320.092" x2="789.72" y2="803.843" gradientTransform="translate(0 1080) scale(1 -1)" gradientUnits="userSpaceOnUse"><stop offset=".08" stop-color="#6924f4"/><stop offset="1" stop-color="#56b7f8"/></linearGradient></defs><circle cx="540" cy="540" r="540"/><path d="M840,749.843l-57.277,33.075v-471.952l-24.742-14.76-217.98,125.43-.81-.458-216.398-124.927-25.53,14.73v471.84l-57.262-33.06.03-472.185.81-.473,81.952-47.302.81.458,216.397,124.928,217.193-125.385.825.458,81.953,47.325v.938c0,153.39.03,471.315.03,471.315v.008ZM729.518,784.253l32.228,31.335-47.857,34.02-16.26-15.045-131.002,75.63v-313.492l54.308-31.35,54.308-31.35,54.285-31.35v281.603h-.008ZM620.925,811.395l54.308-32.04v-182.647l-54.308,31.35v183.338ZM458.077,678.292l-54.518-32.168-.143-112.305-53.985-31.17v313.492l40.725,23.52,13.575,7.83v-62.7l-.09-70.455,54.413,31.418-.03,133.095,54.308,31.35v-313.5l-54.232-31.312-.03,112.905h.008ZM729.518,380.347c-66.06,37.583-153.172,87.833-185.947,106.755-31.133-17.978-126.96-73.26-194.152-112.11l.015,62.663c75.562,43.688,146.153,84.428,194.145,112.147,47.423-27.397,112.335-64.515,185.947-106.455v-63.008l-.008.007Z" style="fill:url(#linear-gradient);"/></svg>