<?xml version="1.0" encoding="UTF-8"?>
<svg id="Layer_1" xmlns="http://www.w3.org/2000/svg" version="1.1" viewBox="0 0 1080 1080">
  <!-- Generator: Adobe Illustrator 29.0.0, SVG Export Plug-In . SVG Version: 2.1.0 Build 186)  -->
  <defs>
    <style>
      .st0 {
        fill: #fff;
      }

      .st1 {
        fill: #75a9f7;
      }
    </style>
  </defs>
  <path class="st0" d="M540,0h0c298.1,0,540,241.9,540,540h0c0,298.1-241.9,540-540,540h0C241.9,1080,0,838.1,0,540h0C0,241.9,241.9,0,540,0Z"/>
  <path class="st1" d="M388.8,511.2h-4.3c0,1.4,0-122.4,0-122.4h17.3v142.6h-17.3l-93.6-122.4h4.3c0-1.4,0,122.4,0,122.4h-17.3v-142.6h17.3l93.6,122.4h0ZM505.4,534.2c-13,0-24.5-2.9-36-8.6-10.1-5.8-18.7-14.4-25.9-25.9-5.8-11.5-10.1-24.5-10.1-38.9s2.9-27.4,10.1-38.9c5.8-11.5,14.4-20.2,25.9-25.9,10.1-5.8,23-8.6,36-8.6s24.5,2.9,36,8.6c10.1,5.8,18.7,14.4,25.9,25.9,5.8,11.5,10.1,24.5,10.1,38.9s-2.9,27.4-10.1,38.9c-5.8,10.1-14.4,20.2-25.9,25.9-10.1,5.8-23,8.6-36,8.6ZM505.4,517c10.1,0,18.7-1.4,27.4-5.8s14.4-11.5,18.7-18.7c4.3-8.6,7.2-18.7,7.2-31.7s-2.9-23-7.2-31.7c-4.3-8.6-11.5-14.4-18.7-18.7-8.6-4.3-17.3-7.2-27.4-7.2s-18.7,2.9-27.4,7.2c-8.6,4.3-14.4,11.5-18.7,18.7-4.3,8.6-7.2,18.7-7.2,31.7s2.9,23,7.2,31.7c4.3,8.6,11.5,14.4,18.7,18.7,8.6,4.3,17.3,5.8,27.4,5.8ZM642.2,531.4l-51.8-142.6h18.7l44.6,123.8h-5.8l41.8-123.8h18.7l43.2,123.8h-5.8l44.6-123.8h18.7l-50.4,142.6h-18.7l-41.8-128.2h4.3l-41.8,128.2h-18.7,0Z"/>
  <path d="M180,545.8h49c23,0,36,14.4,36,36s-14.4,36-36,36h-33.1v49h-14.4v-121h-1.4ZM249.1,581.8c0-11.5-5.8-23-23-23h-33.1v46.1h33.1c15.8,0,23-11.5,23-23h0Z"/>
  <path d="M272.2,643.7c0-17.3,13-24.5,31.7-27.4l25.9-4.3h0c0-13-7.2-21.6-17.3-21.6h-7.2c-10.1,0-17.3,5.8-17.3,17.3h-14.4c0-18.7,15.8-28.8,31.7-28.8h7.2c18.7,0,30.2,13,30.2,33.1v36c0,7.2,2.9,7.2,10.1,7.2v11.5h-10.1c-8.6,0-14.4-2.9-13-14.4-4.3,10.1-15.8,15.8-28.8,15.8s-27.4-8.6-27.4-24.5h-1.4ZM302.4,655.2c15.8,0,27.4-10.1,27.4-27.4v-5.8l-23,4.3c-11.5,2.9-20.2,5.8-20.2,15.8s5.8,13,14.4,13h1.4Z"/>
  <path d="M384.5,668.2c0-4.3,0-8.6-2.9-14.4l-27.4-74.9h14.4l20.2,57.6,4.3,13h0l4.3-13,20.2-57.6h14.4l-36,102.2c-4.3,13-11.5,20.2-24.5,20.2h-10.1v-11.5h8.6c11.5,0,14.4-14.4,14.4-20.2v-1.4h0Z"/>
  <path d="M446.4,578.9h14.4v14.4c4.3-8.6,13-15.8,21.6-15.8h7.2c13,0,18.7,7.2,24.5,15.8,4.3-8.6,14.4-15.8,23-15.8h7.2c15.8,0,25.9,13,25.9,31.7v56.2h-14.4v-54.7c0-11.5-5.8-21.6-15.8-21.6h-5.8c-11.5,0-20.2,14.4-20.2,28.8v46.1h-14.4v-54.7c0-11.5-5.8-21.6-14.4-21.6h-5.8c-11.5,0-20.2,14.4-20.2,28.8v46.1h-14.4v-86.4l1.4,2.9h0Z"/>
  <path d="M623.5,577.4h7.2c20.2,0,34.6,18.7,34.6,40.3s0,4.3,0,7.2h-63.4c0,18.7,11.5,30.2,23,30.2h7.2c11.5,0,18.7-8.6,20.2-17.3h13c-1.4,15.8-15.8,28.8-33.1,28.8h-7.2c-20.2,0-36-18.7-36-44.6s18.7-44.6,36-44.6h-1.4ZM650.9,613.4c0-11.5-8.6-23-20.2-23h-7.2c-10.1,0-18.7,8.6-21.6,23h49,0Z"/>
  <path d="M682.6,578.9h14.4v14.4c4.3-8.6,13-15.8,24.5-15.8h8.6c14.4,0,27.4,14.4,27.4,33.1v54.7h-14.4v-53.3c0-13-7.2-21.6-17.3-21.6h-7.2c-13,0-21.6,14.4-21.6,28.8v46.1h-14.4v-86.4h0Z"/>
  <path d="M797.8,550.1v28.8h27.4v11.5h-27.4v51.8c0,7.2,4.3,10.1,10.1,10.1h15.8v11.5h-18.7c-14.4,0-20.2-7.2-20.2-21.6v-53.3h-18.7v-11.5h18.7v-21.6l13-8.6v2.9h0Z"/>
  <path d="M833.8,640.8h14.4c0,8.6,8.6,14.4,15.8,14.4h7.2c7.2,0,15.8-4.3,15.8-13s-4.3-11.5-13-13l-15.8-2.9c-14.4-2.9-21.6-11.5-21.6-23s13-24.5,27.4-24.5h7.2c14.4,0,27.4,10.1,27.4,24.5h-13c0-7.2-7.2-13-14.4-13h-7.2c-7.2,0-13,4.3-13,11.5s2.9,10.1,11.5,11.5l15.8,2.9c13,2.9,23,7.2,23,24.5s-14.4,25.9-28.8,25.9h-7.2c-15.8,0-30.2-10.1-30.2-25.9h-1.4Z"/>
</svg>