<?xml version="1.0" encoding="UTF-8"?>
<svg id="Layer_1" xmlns="http://www.w3.org/2000/svg" version="1.1" viewBox="0 0 1080 1080">
  <!-- Generator: Adobe Illustrator 29.0.0, SVG Export Plug-In . SVG Version: 2.1.0 Build 186)  -->
  <defs>
    <style>
      .st0 {
        fill: #fff;
      }
    </style>
  </defs>
  <path class="st0" d="M540,0h0c298.1,0,540,241.9,540,540h0c0,298.1-241.9,540-540,540h0C241.9,1080,0,838.1,0,540h0C0,241.9,241.9,0,540,0Z"/>
  <path d="M540,187.2c-198.7,0-360,157-360,352.8h2c-.8,1.8-1.5,3.7-1.9,5.7,0,5.7.3,11.4.7,17.1,11.9,185.1,168.3,330.1,359.3,330.1s360-157,360-352.8-161.3-352.8-360-352.8ZM830.9,597c-27.1,132.5-146.8,232.4-290.9,232.4s-231.4-75.8-275.3-181.9c47.2,32.2,95.6,44.7,139.9,46.5,66.2,2.9,119.5-18.7,135.4-27.4l-.3-.5c9.4-4.5,14.7-12.9,16.1-23.9,1.3-9.4-1.1-20-8.4-26.1l1.2-1.3h-1.4c-17.3-15.8-30.2-31.7-34.6-47.5l-17.3,4.5-43.2,11.3c3.8,15.1,10.9,28.6,19.2,40.4-17.7,4.4-39.7,7.8-63.8,7.1-49.1-1.4-109.2-21.9-164.2-91,.1-159.7,132.6-289.2,296.6-289.2s253,92.1,286.7,215.2c-35.2-21.7-80.2-29.5-122.5-30.9-89.3-2.9-188.6,21.6-224.6,27.4v.3c-3.8.8-7.4,2.3-10.5,4.3-8.4,3.8-15,11.6-17.9,21.4h-.4c-7.2,31.6-7.2,64.7,0,95l60.5-15.8h1.4c-3.1-13.3-4.7-28.9-3.3-45.1,46.9-8.9,122.9-25.1,193.4-22.6,40.3,1.4,72,8.6,95,23,20.2,13,33.1,34.6,33.1,72h.5c0,.5-.2,1-.3,1.4,0,.3-.1.6-.2.9Z"/>
</svg>