<?xml version="1.0" encoding="UTF-8"?>
<svg id="Layer_1" xmlns="http://www.w3.org/2000/svg" version="1.1" viewBox="0 0 1080 1080">
  <!-- Generator: Adobe Illustrator 29.0.0, SVG Export Plug-In . SVG Version: 2.1.0 Build 186)  -->
  <defs>
    <style>
      .st0 {
        fill: #fff;
      }
    </style>
  </defs>
  <path class="st0" d="M540,0h0c298.2,0,540,241.8,540,540h0c0,298.2-241.8,540-540,540h0C241.8,1080,0,838.2,0,540h0C0,241.8,241.8,0,540,0Z"/>
  <path d="M144,421.2v237.6h237.6v-237.6h-237.6ZM302.4,579.6h-79.2v-79.2h79.2v79.2Z"/>
  <rect x="580.9" y="421.2" width="79.2" height="79.2"/>
  <rect x="777.6" y="500.4" width="79.2" height="79.2"/>
  <rect x="580.9" y="579.6" width="79.2" height="79.2"/>
  <polygon points="580.9 500.4 580.9 579.6 501.7 579.6 501.7 658.8 422.5 658.8 422.5 421.2 501.7 421.2 501.7 500.4 580.9 500.4"/>
  <rect x="698.4" y="421.2" width="79.2" height="79.2"/>
  <rect x="856.8" y="421.2" width="79.2" height="79.2"/>
  <rect x="698.4" y="579.6" width="79.2" height="79.2"/>
  <rect x="856.8" y="579.6" width="79.2" height="79.2"/>
</svg>