<?xml version="1.0" encoding="UTF-8"?>
<svg id="Layer_1" xmlns="http://www.w3.org/2000/svg" version="1.1" viewBox="0 0 1080 1080">
  <!-- Generator: Adobe Illustrator 29.0.0, SVG Export Plug-In . SVG Version: 2.1.0 Build 186)  -->
  <defs>
    <style>
      .st0 {
        fill: #fff;
      }
    </style>
  </defs>
  <path class="st0" d="M540,0h0c298.2,0,540,241.8,540,540h0c0,298.2-241.8,540-540,540h0C241.8,1080,0,838.2,0,540h0C0,241.8,241.8,0,540,0Z"/>
  <path d="M773.1,379.3c-28.4-43.3-68.3-78.3-116.6-99.9-46.7-21.6-99.9-29.9-151.6-23.3-51.7,6.6-101.7,26.6-141.5,60l-101.7-99.9v338.1c1.7,51.7,18.3,103.2,46.7,146.6,28.4,43.3,68.3,78.3,116.6,99.9,46.7,21.6,99.9,30,151.6,23.3,51.7-6.6,101.7-26.6,141.5-60l99.9,99.9v-338.1c0-51.7-16.7-103.2-44.9-146.6h0ZM661.5,720.7c-31.7,21.6-68.3,33.3-108.3,35-38.3,1.7-76.6-6.6-110-25.1-33.4-18.4-61.6-44.9-81.6-78.3-20-33.4-30-70-30-110v-161.6l13.2,13.2,321.5,321.5-5,5h.1c0,.1,0,.2,0,.2ZM750,697.4l-13.4-13.4-321.5-321.5,5-3.3c31.7-21.6,68.3-33.3,108.3-35,38.3-1.7,76.6,6.6,110,25.1,33.4,18.4,61.6,44.9,81.7,78.3s30,70,30,109.9v160h0Z"/>
</svg>