<?xml version="1.0" encoding="UTF-8"?>
<svg id="Layer_1" xmlns="http://www.w3.org/2000/svg" version="1.1" viewBox="0 0 1080 1080">
  <!-- Generator: Adobe Illustrator 29.0.0, SVG Export Plug-In . SVG Version: 2.1.0 Build 186)  -->
  <defs>
    <style>
      .st0 {
        fill: #122a37;
      }

      .st1 {
        fill: #fff;
      }

      .st2 {
        fill: #224454;
      }

      .st3 {
        fill: #71d5bf;
      }
    </style>
  </defs>
  <path class="st1" d="M540,0h0c298.2,0,540,241.8,540,540h0c0,298.2-241.8,540-540,540h0C241.8,1080,0,838.2,0,540h0C0,241.8,241.8,0,540,0Z"/>
  <path class="st0" d="M820.7,378.9v162l-140.1-80.9-140.1-80.9,140.1-80.2,140.1-80.9v162h0v-1h0Z"/>
  <path class="st2" d="M540.4,540v162l-140.1-80.9-140.1-80.9,140.1-80.2,140.1-80.9v162h0v-1h0Z"/>
  <path class="st3" d="M260.2,378v-162l140.1,80.9,140.1,80.9-140.1,80.9-140.1,80.2v-162h0v1h0Z"/>
  <path class="st0" d="M259.3,702v-162l140.1,80.9,140.1,80.9-140.1,80.9-140.1,80.2v-162h0v1h0Z"/>
  <path class="st3" d="M680.5,459.8l-140.1-80.9v323.1l140.1,80.9,140.1,80.9v-324l-140.1-80.9h0v.9h0Z"/>
</svg>