<?xml version="1.0" encoding="UTF-8"?>
<svg id="Layer_1" xmlns="http://www.w3.org/2000/svg" xmlns:xlink="http://www.w3.org/1999/xlink" version="1.1" viewBox="0 0 1080 1080">
  <!-- Generator: Adobe Illustrator 29.0.0, SVG Export Plug-In . SVG Version: 2.1.0 Build 186)  -->
  <defs>
    <style>
      .st0 {
        fill: url(#linear-gradient1);
      }

      .st1 {
        fill: url(#linear-gradient);
      }

      .st2 {
        fill: #fff;
      }
    </style>
    <linearGradient id="linear-gradient" x1="233.6" y1="1661.7" x2="845.1" y2="1661.7" gradientTransform="translate(0 -1346)" gradientUnits="userSpaceOnUse">
      <stop offset="0" stop-color="#894ad7"/>
      <stop offset="1" stop-color="#dd6cb3"/>
    </linearGradient>
    <linearGradient id="linear-gradient1" x1="358" y1="2142.4" x2="718.6" y2="1781.8" gradientTransform="translate(0 -1346)" gradientUnits="userSpaceOnUse">
      <stop offset="0" stop-color="#7a4add"/>
      <stop offset=".5" stop-color="#cc4bbd"/>
      <stop offset="1" stop-color="#f099a7"/>
    </linearGradient>
  </defs>
  <path class="st2" d="M540,0h0c298.2,0,540,241.8,540,540h0c0,298.2-241.8,540-540,540h0C241.8,1080,0,838.2,0,540h0C0,241.8,241.8,0,540,0Z"/>
  <path class="st1" d="M844.8,397.1c0,6.6-3.3,9.9-8.3,11.7-5,0-9.9-3.3-11.7-8.4-1.6-13.2-3.3-26.6-8.3-38.2-23.2-64.8-66.4-104.7-132.9-123-1.6,0-3.3,0-5-1.7-5-1.7-8.3-6.6-6.6-11.7s6.6-8.4,11.7-6.6c16.6,3.3,31.5,8.4,46.5,16.6,66.4,34.8,104.7,88,114.6,162.9,0-3.3,0-1.7,0-1.7h.1c0,.1,0,.2,0,.2ZM780,402c-6.6-49.8-33.3-86.4-78-108-9.9-5-20-8.4-30-9.9-6.6-1.7-11.7,1.7-11.7,6.6-1.6,5,1.6,9.9,6.6,11.7,1.6,0,3.3,1.7,5,1.7,30,8.4,54.9,26.6,71.4,53.1,8.3,15,15,31.5,16.6,48.2,0,6.6,5,9.9,11.7,9.9s8.3-5,8.3-11.7c1.6,0,1.6-1.7,0-1.7h0ZM406.2,222.6c-1.7-5-6.6-6.6-11.7-6.6s-3.3,0-3.3,1.7c-61.5,15-108,51.6-136.2,108-11.7,21.6-18.3,46.5-19.9,71.4,0,5,1.7,8.4,5,9.9,6.6,3.3,13.2,0,15-8.4,9.9-78.1,61.5-139.5,136.2-159.6,3.3,0,6.6-1.7,9.9-3.3,3.3-1.7,6.6-6.6,5-13.2h-.2ZM416.2,285.8c-3.3-3.3-8.4-3.3-11.7-3.3-31.5,8.4-58.2,24.9-78,49.8-16.6,21.6-24.9,44.9-28.2,69.8,0,6.6,3.3,11.7,8.4,11.7s9.9-3.3,11.7-8.4v-3.3c6.6-39.9,26.6-68.1,59.8-88,9.9-5,19.9-9.9,31.5-11.7,8.4-1.7,11.7-9.9,6.6-16.6h0c0-.1,0-.1,0-.1Z"/>
  <path class="st0" d="M620.6,814.2c-18.3,33.3-44.8,49.8-81.4,49.8s-63.2-18.3-81.4-49.8c-5-9.9,0-18.3,11.7-18.3h139.5c13.2,0,18.3,6.6,11.7,18.3h-.1ZM761.8,707.8c-28.2-1.6-43.2-20-43.2-46.5v-162.9c-8.3-74.7-46.5-128-116.3-156.2-9.9-3.3-16.6-9.9-21.6-19.9-8.3-16.6-23.2-24.9-41.6-26.6-18.3,0-33.3,8.4-41.6,24.9-5,9.9-11.7,16.6-21.6,19.9-41.5,16.6-73.1,44.9-94.8,83.1-15,26.6-21.6,56.5-21.6,86.4v151.2c0,21.6-13.2,38.2-33.3,43.2-3.3,0-8.4,1.6-11.7,1.6-9.9,1.6-16.6,8.3-16.6,18.3s6.6,18.3,15,20h448.6c11.7,0,20-8.3,20-20s-8.3-16.6-20-16.6h.3c0,.1,0,.1,0,.1Z"/>
</svg>