<?xml version="1.0" encoding="UTF-8"?><svg id="Layer_1" xmlns="http://www.w3.org/2000/svg" width="1080" height="1080" viewBox="0 0 1080 1080"><circle cx="540" cy="540" r="540"/><g id="mh4KRW.tif"><path d="M459.848,343.584c16.047-1.827,30.689.2,44.691,6.308,25.24,11.011,43.537,35.468,42.266,63.558-.686,15.173-6.269,28.284-16.217,39.488-21.731,24.473-49.439,36.973-81.748,39.251-31.108,2.193-59.629-5.567-84.535-24.698-21.795-16.741-36.103-38.498-39.383-66.073-3.422-28.778.804-56.846,11.92-83.684,19.711-47.589,54.048-81.365,99.694-103.993,36.073-17.884,74.499-25.419,114.646-23.43,53.536,2.652,101.414,20.41,141.598,56.326,38.143,34.093,60.676,76.538,63.214,128.256,2.687,54.748-17.537,100.674-55.776,139.142-16.028,16.125-34.146,29.218-55.671,37.186-4.41,1.632-8.62,3.778-12.237,6.866-7.999,6.83-10.592,15.846-10.52,25.988.096,13.53.159,27.061.076,40.591-.049,7.939-1.79,15.6-5.445,22.644-1.729,3.33-.797,4.431,2.324,5.785,15.603,6.765,27.649,17.306,34.244,33.38,6.01,14.647,5.15,29.23-.622,43.678-.974,2.436-.991,3.921,1.088,5.872,3.831,3.594,4.036,7.437.706,11.264-1.565,1.799-1.033,3.355-.677,5.121,2.085,10.311.983,20.148-4.536,29.25-3.416,5.632-7.078,10.511-15.141,9.314-3.147-.467-5.538,2.227-6.516,6.01-5.901,22.828-19.384,40.231-41.408,48.345-28.489,10.496-56.817,10.348-81.906-10.185-11.939-9.771-19.695-22.351-23.116-37.466-.937-4.138-3.1-6.012-7.489-5.583-4.844.473-8.007-2.523-10.495-6.176-6.807-9.988-8.565-20.934-5.643-32.603.616-2.459.931-4.339-1.069-6.562-2.192-2.438-1.993-5.809.134-8.279,2.012-2.336,1.404-4.091.281-6.462-10.108-21.358-9.269-41.918,5.141-61.175,6.612-8.836,15.32-15.243,25.38-19.693,2.71-1.199,3.168-2.232,1.854-4.972-2.916-6.079-4.656-12.588-4.695-19.37-.111-19.507-1.432-39.133.22-58.499,2.98-34.909,19.546-62.787,47.936-83.623,13.743-10.086,28.294-18.588,44.095-24.95,22.301-8.979,39.71-23.466,49.533-45.738,14.08-31.923,4.56-68.278-23.206-90.775-37.856-30.672-93.286-29.178-129.392,3.595-5.14,4.665-9.657,9.954-13.597,16.771h-.001ZM462.186,738.71c-2.597,1.508-4.968,4.273-1.823,6.074,3.692,2.114,2.501,4.063,1.731,6.568-3.479,11.332-2.628,22.107,4.167,32.087,1.252,1.838,2.399,3.944,5.105,3.984.192.102.386.205.578.308-.121-.171-.241-.342-.362-.513-1.993-4.111-3.512-8.377-4.236-12.903.734-1.499-.546-4.394,2.178-4.398,3.18-.005,1.858,2.913,2.083,4.627.776,5.917,3.308,10.812,8.018,14.511.94.738,1.9,2.385,3.181,1.382,1.456-1.14-.279-2.329-.857-3.177-2.541-3.727-4.144-7.755-4.566-12.231-.246-2.611.782-3.84,3.523-2.84.07.808,0,1.661.74,2.248.737,9.276,7.272,16.86,14.656,17.009,2.671-.294,4.494-1.653,5.099-4.322.584-2.576-.846-4.331-2.683-5.835-1.207-.988-2.49-1.886-3.666-2.91-3.788-3.298-6.189-7.371-6.537-12.459-.113-1.646-.45-3.529,1.515-4.501,2.001-.99,3.223.471,4.389,1.644,2.522,2.538,5.373,4.104,9.077,3.857,1.79-.119,3.375-.391,4.189-2.271.845-1.95.284-3.628-.985-5.118-1.714-2.013-4.098-2.98-6.478-3.934-5.158-2.067-10.217-4.27-13.855-8.773-1.631-2.018-3.75-3.488-6.161-4.434-2.585-1.015-3.914-2.323-1.839-5.026,1.352-1.762.336-2.929-1.236-3.702-1.856-.911-3.786-1.203-5.665.04-3.609.714-6.675,2.435-9.282,5.006h0ZM649.219,737.892c-2.823-2.2-5.558-4.561-9.3-5.073-2.189-1.622-4.368-1.165-6.244.388-1.828,1.511-.36,2.993.38,4.51.898,1.843-.552,2.609-1.919,3.075-2.882.981-5.493,2.399-7.509,4.674-3.02,3.407-6.887,5.383-11.022,6.992-2.511.977-5.07,1.868-7.478,3.061-2.773,1.374-4.748,3.635-3.401,6.851,1.278,3.05,4.248,2.86,6.997,2.345,2.751-.515,4.887-2.127,6.904-3.993,1.022-.946,2.259-1.882,3.809-.936,1.394.851,1.626,2.235,1.549,3.72-.145,2.762-1.135,5.241-2.499,7.612-2.053,3.568-5.271,5.827-8.565,8.116-3.853,2.678-3.951,6.069-.579,8.921,1.187,1.913,3.072,1.9,4.878,1.51,6.856-1.478,13.014-9.956,12.736-17.374,1.185-.012,1.183-1.254,1.857-1.795,2.713-.172,2.993,1.398,2.672,3.57-.905,6.135-3.898,11.138-8.519,15.419,2.551.937,4.1-.546,5.645-1.646,5.422-3.859,8.314-9.166,8.673-15.829.081-1.5.34-3.078,2.182-3.059,1.974.021,2.047,1.701,1.858,3.15-.325,2.497-.81,4.973-1.229,7.458-1.323,2.41-2.646,4.82-4.201,7.653,4.362-.986,6.215-4.029,8.061-7,5.927-9.542,6.522-19.726,3.576-30.342-.419-1.509-1.554-3.138.493-4.567,4.062-2.838,4.045-3.938.197-7.412h-.002ZM387.746,475.286c.237.909,1.097.923,1.758,1.222,13.69,6.813,28.285,10.168,43.462,10.78,35.469,1.429,66.547-9.035,91.31-35.226,17.196-18.186,22.171-39.379,12.864-62.976-3.489-8.847-8.566-17.016-16.795-22.581-1.308-1.293-2.491-2.75-3.943-3.855-25.398-19.331-61.424-19.791-87.179-.973-14.533,10.619-21.596,24.829-19.789,43.062.219,2.214,1.788,5.418-1.736,6.019-3.387.578-3.101-2.927-3.84-5.075-.046-.134-.077-.274-.115-.41.07-2.545.206-5.09.199-7.635-.031-11.096,3.895-20.71,10.74-29.29,9.179-11.507,21.411-18.286,35.149-22.642,2.225-.705,3.873-1.537,4.593-3.795,3.406-5.262,7.003-10.399,11.421-14.861,22.013-22.234,48.84-32.033,79.891-30.465,28.622,1.446,52.96,12.307,71.928,34.084,12.985,14.908,19.746,32.405,20.107,52.252.246,13.512-3.175,26.172-9.118,38.217-1.749,1.222-2.041,3.354-3.096,5.013-10.892,17.136-25.799,29.485-44.553,37.072-16.327,6.606-31.497,15.101-45.639,25.632-20.684,15.402-34.931,35.054-42.213,59.946-4.867,16.637-3.786,33.531-3.737,50.433-.01,8.962-.286,17.934.039,26.883.382,10.514,4.026,20.044,10.347,28.438,17.55,23.307,50.491,32.177,78.339,20.982,21.782-8.756,35.824-24.318,38.234-48.076,1.386-13.669.74-27.594.312-41.382-.347-11.173,1.967-21.143,9.48-29.629,5.194-4.521,10.979-8.063,17.455-10.43,19.334-7.067,35.541-18.914,50.288-32.968,18.345-17.482,32.907-37.687,42.97-60.972,10.836-25.075,15.773-51.263,13.809-78.626-.182-9.145-1.67-18.13-3.709-27.001-6.527-28.408-19.435-53.608-38.175-75.925-20.607-24.541-45.837-42.775-74.96-55.823-2.078-.926-4.129-1.92-6.238-2.768-31.615-12.704-64.416-18.229-98.474-16.603-37.344,1.783-72.394,11.432-104.575,30.578-42.979,25.571-73.703,61.264-88.415,109.654-6.611,21.744-9.381,44.119-5.877,66.646,4.879,31.361,22.934,53.891,49.863,69.743,2.387,1.405,4.576,3.484,7.666,3.389l-.051-.063h.002ZM603.155,768.348c-2.729-1.502-4.87-3.483-5.05-6.827-.24-4.478,1.881-7.806,5.831-9.51,3.49-1.506,2.973-3.176,1.313-5.686-4.194-6.34-9.278-11.857-15.47-16.202-6.091-4.273-12.15-8.801-19.929-9.677-7.98-3.643-16.434-3.938-24.95-3.302-20.825,1.557-37.265,11.083-49.734,27.718-1.708,2.279-1.653,3.822,1.386,4.558,2.486,1.399,4.746,2.963,7.486-.034,1.231-1.347,3.365-.433,2.807,1.713-.545,2.1.152,3.059,1.532,4.309,3.918,3.547,4.926,7.623,3.048,11.38-1.514,3.03-5.843,4.81-10.454,4.004-2.372-.415-4.66-1.31-7.312-2.083,1.307,4.591,4.385,6.992,7.71,9.263,3.348,2.288,4.796,5.648,4.205,9.612-.613,4.107-3.428,6.327-7.281,7.472-1.988.591-3.878.395-5.872.031-6.929-1.265-8.364.422-6.083,7.032.367,1.063.98,2.041,1.479,3.058,3.39,11.853,11.047,20.798,20.439,28.089,23.154,17.974,51.932,19.533,76.906,4.256,15.223-9.312,24.868-23.021,29.443-40.269.453-1.709,1.338-3.729-1.871-3.943-4.654-.31-7.839-2.888-8.73-7.384-.886-4.468,1.152-7.951,5.037-10.423,1.78-1.133,3.359-2.598,4.963-3.989.939-.814,1.286-1.963.686-3.088-.611-1.145-1.728-.746-2.652-.439-2.934.977-5.911.504-8.882.36v.002ZM643.521,710.74c.039-21.362-13.058-41.062-32.739-49.489-1.999-.856-3.036-.386-4.358,1.056-14.093,15.37-31.947,22.624-52.451,22.892-22.017.288-40.897-7.537-55.747-24.197-1.143-1.282-1.876-2.613-4.132-1.417-25.995,13.788-35.56,40.057-28.035,64.364,1.163,3.758,1.988,6.498,7.287,5.319,5.475-1.218,9.736,2.336,9.907,6.763.079,2.047,4.518,7.436,6.418,7.861,1.093.245,1.549-.524,2.002-1.192,6.894-10.159,16.65-16.914,26.89-23.278,31.223-19.404,73.523-11.824,95.917,17.435,1.64,2.143,2.735,5.461,4.849,6.301,2.79,1.108,4.12-3.134,6.726-4.161,1.038-.409,2.344-.81,2.568-2.493.919-6.915,2.356-8.365,8.924-8.265,2.573.039,3.497-.921,4.049-3.16,1.162-4.719,2.043-9.458,1.924-14.34h0ZM600.101,831.119c7.592-4.241,12.321-11.016,16.65-18.149.368-.607.903-1.303.386-1.916-.753-.891-1.533-.152-2.21.305-.818.552-1.899.994-2.34,1.779-3.586,6.382-7.542,12.491-12.484,17.982h0ZM615.732,807.183c6.059-1.692,6.601-6.605,7.668-11.128.323-1.367-.003-2.553-1.791-2.714-1.41-.126-2.45.008-2.842,1.718-.911,3.979-1.973,7.924-3.035,12.123h0ZM610.545,739.895c-1.172.539-2.718.841-2.9,2.549-.157,1.48,3.862,6.271,5.092,6.059,1.345-.231,2.874-.489,2.943-2.386.067-1.826-3.539-6.264-5.137-6.222h0ZM602.803,730.751c-.134-1.274-6.779-5.903-7.747-5.406-.832.427-2.679.851-1.385,2.304,1.677,1.882,3.469,3.853,5.881,4.763,1.375.519,2.69-.264,3.25-1.661h0ZM592.39,722.63c-1.572-.839-2.961-1.83-4.509-2.345-2.073-.69-4.672-3.869-6.157-1.169-1.123,2.042,2.908,2.35,4.481,3.637,1.84,1.506,3.932,3.016,6.185-.124h0ZM608.859,736.25c-.951-1.274-1.648-3.226-3.617-2.868-1.13.205-3.099.85-2.578,2.692.436,1.543,1.273,3.394,3.441,3.04,1.398-.229,2.583-1.09,2.754-2.865h0ZM578.659,716.518c-2.11-.909-3.895-2.213-6.608-.266,2.436.815,4.158,2.736,6.608.266ZM569.018,714.313c-2.478-1.714-4.341-1.321-6.216-.636,1.804.694,3.543,1.794,6.216.636Z" style="fill:#614ea4;"/><path d="M556.582,889.967c-21.423.012-40.16-.814-58.548-5.23-3.024-.726-5.999-1.796-8.856-3.032-2.636-1.14-5.334-2.734-5.245-6.079.082-3.093,2.65-4.556,5.131-5.743,5.971-2.855,12.385-4.245,18.871-5.15,33.05-4.615,66.062-4.763,98.974,1.296,4.193.772,8.318,1.935,12.15,3.916,2.459,1.272,5.094,2.762,5.097,5.78.003,3.225-2.739,4.81-5.379,6.03-6.793,3.139-14.093,4.416-21.413,5.48-14.386,2.09-28.859,2.948-40.782,2.733h0Z" style="fill:#614ea4;"/><path d="M626.169,556.455c-7.513,8.486-9.827,18.455-9.48,29.629.428,13.788,1.075,27.713-.312,41.382-2.41,23.759-16.452,39.321-38.234,48.076-27.848,11.195-60.789,2.325-78.339-20.982-6.321-8.394-9.965-17.925-10.347-28.438-.325-8.95-.049-17.921-.039-26.884,1.793-.192,2.133-1.611,2.56-2.989,6.707-21.649,16.279-41.912,29.233-60.547,10.613-15.266,23.846-27.596,40.17-36.637,10.644-5.895,21.226-11.774,30.709-19.693,15.886-13.265,27.021-29.683,34.606-48.63,1.136-2.836,3.707-5.947,1.961-9.602,5.943-12.046,9.364-24.706,9.118-38.217-.361-19.848-7.123-37.344-20.107-52.252-18.968-21.777-43.306-32.638-71.928-34.084-31.05-1.569-57.878,8.231-79.891,30.465-4.418,4.462-8.016,9.598-11.421,14.861-8.64-2.385-17.378-4.271-26.4-3.383-16.544,1.628-24.716,6.782-30.314,20.722-4.898,12.196-3.648,24.772,1.05,36.915,1.239,3.201,1.723,6.957,4.982,9.108.038.137.069.276.115.41.738,2.148.452,5.653,3.84,5.075,3.524-.601,1.955-3.806,1.736-6.019-1.807-18.234,5.255-32.444,19.789-43.062,25.755-18.818,61.781-18.358,87.179.973,1.451,1.104,2.635,2.562,3.942,3.856-.299,1.508.384,2.748.992,4.052,8.442,18.136,7.862,36.207-1.837,53.49-9.523,16.967-24.122,28.983-41.354,37.545-25.344,12.591-52.08,15.959-79.873,10.447-5.545-1.1-11.05-2.401-16.572-3.609-2.913-1.097-3.723-4.138-5.524-6.222-9.342-10.813-15.584-23.364-19.047-37.178-4.459-17.789-3.362-35.85-.691-53.669,3.212-21.426,10.463-41.559,21.413-60.449,11.39-19.651,25.984-36.357,42.939-51.294,13.835-12.188,29.266-21.697,45.74-29.805,23.521-11.577,48.269-18.501,74.297-21.371,14.854-1.638,29.627-1.93,44.539-.874,15.756,1.115,31.153,3.821,46.314,8.091,1.124.316,1.945.522,2.166-.951,29.123,13.049,54.352,31.282,74.96,55.823,18.739,22.317,31.647,47.518,38.175,75.925,2.038,8.871,3.526,17.856,3.709,27.001-.924.275-1.294.904-1.46,1.855-1.976,11.303-4.925,22.379-7.646,33.518-7.449,30.499-21.26,57.295-44.466,78.854-5.406,5.021-10.556,10.334-16.153,15.128-6.438,5.516-12.665,11.474-20.459,15.082-15.444,7.15-25.845,19.025-32.961,34.148-.664,1.41-1.529,2.75-1.379,4.411h0ZM514.913,586.82c-6.876.102-12.496,5.642-12.323,12.148.175,6.594,5.885,11.821,12.78,11.698,7.005-.125,12.267-5.353,12.229-12.152-.036-6.552-5.727-11.798-12.686-11.694h0ZM604.64,598.681c-.027-6.582-5.673-11.901-12.588-11.861-6.982.041-12.415,5.292-12.412,11.998.003,6.649,5.594,11.934,12.539,11.851,7.022-.084,12.489-5.343,12.461-11.987h0ZM662.121,264.761c-.034-6.531-4.736-10.997-11.457-10.883-6.579.111-11.591,4.895-11.597,11.068-.005,5.629,5.856,11.101,11.883,11.096,6.414-.006,11.205-4.843,11.17-11.28h0ZM678.846,294.016c4.561-.065,8.935-4.424,8.732-8.701-.2-4.208-4.843-8.34-9.329-8.303-5.03.041-8.537,3.601-8.499,8.627.04,5.239,3.534,8.458,9.095,8.378h0ZM696.062,315.46c4.125.04,7.045-2.576,6.977-6.248-.071-3.794-3-6.607-6.857-6.585-3.838.022-6.741,2.823-6.798,6.559-.065,4.241,2.052,6.23,6.678,6.275h0ZM552.941,617.971c4.065.268,7.484-1.314,10.54-3.79,1.246-1.01,2.368-2.281,1.1-3.985-1.355-1.823-2.816-1.307-4.369-.091-4.58,3.587-9.202,4.07-13.858.049-1.3-1.123-2.904-1.574-4.142-.057-1.369,1.676-.526,3.21.948,4.393,2.851,2.289,6.061,3.628,9.782,3.482ZM583.755,626.155c2.009-.463,2.276-2.77,3.46-4.245.832-1.037,1.419-2.232.555-3.505-.555-.817-1.712-.998-2.235-.325-1.546,1.99-3.177,4.019-3.391,6.691-.064.794.433,1.318,1.612,1.384h0ZM511.474,617.857c-1.054.108-4.468,5.727-4.226,6.984.194,1.005.915,1.35,1.843,1.333,1.294-.023,4.267-5.109,4.039-6.809-.135-1.006-.653-1.502-1.657-1.509ZM505.502,620.399c.015-1.359-.196-2.762-1.361-2.429-2.945.843-3.253,3.902-4.387,6.198-.574,1.162.385,2.178,1.392,1.95,3.092-.704,3.12-3.855,4.357-5.717h0ZM595.627,619.889c.147-1.315-.488-1.989-1.41-1.958-2.62.088-2.455,2.773-3.627,4.218-.803.99-1.364,2.311-.401,3.521.617.775,1.742.725,2.23-.034,1.226-1.903,2.224-3.952,3.208-5.748h0ZM599.061,625.988c2.143-1.324,3.16-3.558,3.799-5.99.267-1.016-.086-2.363-1.301-2.086-2.932.668-3.216,3.551-4.089,5.816-.387,1.005.137,1.912,1.591,2.26ZM516.672,626.113c2.044-.656,2.123-3.197,3.432-4.729.75-.878,1.005-2.057.174-3.109-.519-.657-1.333-.684-1.865-.149-1.822,1.835-2.862,4.142-3.446,6.618-.172.731.528,1.233,1.704,1.37Z" style="fill:#bcbcf9;"/><path d="M633.848,214.71c-.221,1.473-1.042,1.267-2.166.951-15.161-4.271-30.558-6.976-46.314-8.091-14.912-1.056-29.684-.764-44.539.874-26.028,2.87-50.777,9.794-74.297,21.371-16.473,8.108-31.904,17.617-45.74,29.805-16.955,14.937-31.549,31.644-42.939,51.294-10.95,18.89-18.201,39.024-21.413,60.45-2.671,17.82-3.768,35.88.691,53.669,3.463,13.814,9.705,26.364,19.047,37.178,1.801,2.084,2.61,5.125,5.525,6.222,2.032,2.305,4.063,4.612,6.094,6.917-3.09.095-5.279-1.984-7.666-3.389-26.929-15.852-44.985-38.383-49.863-69.743-3.505-22.526-.734-44.902,5.877-66.646,14.712-48.39,45.436-84.084,88.415-109.654,32.181-19.146,67.23-28.795,104.575-30.578,34.059-1.626,66.859,3.899,98.474,16.603,2.11.848,4.16,1.842,6.238,2.768h0Z" style="fill:#d3d2fa;"/><path d="M569.85,720.445c7.778.876,13.839,5.404,19.929,9.677,6.192,4.345,11.276,9.862,15.47,16.202,1.661,2.51,2.177,4.18-1.313,5.686-3.95,1.704-6.071,5.032-5.831,9.51.18,3.344,2.32,5.325,5.05,6.827-.09,1.838-.011,3.652-.519,5.492-3.28,11.893-9.277,22.073-18.076,30.799-21.953,21.774-57.759,25.87-84.105,9.705-4.496-2.759-7.943-6.795-12.64-9.168-.499-1.017-1.112-1.995-1.479-3.058-2.281-6.61-.846-8.296,6.083-7.032,1.994.364,3.884.559,5.872-.031,3.853-1.145,6.669-3.365,7.281-7.472.591-3.964-.857-7.324-4.205-9.612-3.324-2.271-6.402-4.672-7.71-9.263,2.653.773,4.94,1.668,7.312,2.083,4.611.806,8.94-.974,10.454-4.004,1.878-3.757.87-7.834-3.048-11.38-1.381-1.25-2.077-2.21-1.532-4.309.557-2.145-1.576-3.06-2.807-1.713-2.74,2.997-5,1.433-7.481.036,3.742-5.982,8.668-10.847,14.226-15.115,14.733-11.315,31.259-16.254,49.824-14.183,3.05.34,6.129,1.297,9.244.321h0ZM511.537,745.402c.48-.231,1.265-.382,1.705-.854,4.868-5.242,10.765-8.771,17.563-10.907,1.138-.357,2.001-1.283,1.418-2.65-.516-1.209-1.618-1.656-2.835-1.281-7.626,2.354-14.401,6.128-19.528,12.382-1.298,1.583-.728,2.931,1.677,3.31Z" style="fill:#e5bb5e;"/><path d="M628.656,421.141c1.747,3.655-.825,6.765-1.961,9.602-7.585,18.947-18.72,35.365-34.606,48.63-9.483,7.918-20.065,13.798-30.709,19.693-16.324,9.04-29.557,21.371-40.17,36.637-12.955,18.634-22.526,38.897-29.233,60.547-.427,1.379-.767,2.797-2.56,2.989-.049-16.902-1.13-33.796,3.737-50.433,7.281-24.891,21.529-44.544,42.213-59.946,14.142-10.53,29.312-19.026,45.639-25.632,18.754-7.588,33.66-19.936,44.553-37.072,1.055-1.659,1.347-3.792,3.096-5.013h0Z" style="fill:#d3d2fa;"/><path d="M387.797,475.349c-2.031-2.305-4.062-4.612-6.094-6.917,5.522,1.208,11.027,2.509,16.571,3.609,27.792,5.512,54.529,2.144,79.873-10.447,17.232-8.561,31.832-20.577,41.354-37.545,9.7-17.282,10.279-35.354,1.837-53.49-.607-1.305-1.291-2.545-.992-4.052,8.229,5.564,13.306,13.733,16.795,22.58,9.306,23.597,4.332,44.79-12.864,62.976-24.764,26.19-55.842,36.655-91.31,35.226-15.178-.612-29.773-3.967-43.462-10.782-.268-.867-.927-1.169-1.758-1.22l.051.063h0Z" style="fill:#9999f7;"/><path d="M487.817,805.177c4.696,2.373,8.143,6.41,12.64,9.168,26.346,16.165,62.152,12.069,84.105-9.705,8.799-8.727,14.795-18.906,18.076-30.799.508-1.841.428-3.655.519-5.492,2.97.145,5.947.617,8.882-.36.924-.308,2.041-.706,2.652.439.6,1.125.253,2.274-.686,3.088-1.604,1.391-3.182,2.855-4.963,3.989-3.884,2.472-5.922,5.955-5.037,10.423.891,4.497,4.077,7.074,8.73,7.384,3.208.214,2.324,2.235,1.871,3.943-4.575,17.248-14.22,30.956-29.443,40.269-24.974,15.277-53.752,13.719-76.906-4.256-9.392-7.292-17.049-16.236-20.439-28.089h0ZM550.901,839.331c7.802-.003,16.476-1.791,24.602-5.955,1.349-.691,3.343-1.272,2.383-3.291-.872-1.832-2.799-1.133-4.142-.511-3.363,1.557-6.77,2.969-10.362,3.856-7.375,1.821-14.81,2.496-22.358,1.043-1.302-.251-3.133-.701-3.573,1.222-.482,2.11,1.231,2.463,2.847,2.851,3.077.738,6.196.71,10.603.784h0ZM586.56,825.359c2.223-.085,8.615-6.443,8.749-8.705.043-.729-.03-1.457-.76-1.818-.994-.492-1.942-.267-2.728.474-2.257,2.129-4.505,4.268-6.728,6.433-.81.788-.852,1.755-.301,2.711.379.657.985.981,1.767.905h0Z" style="fill:#d09a43;"/><path d="M626.169,556.455c-.15-1.662.715-3.001,1.379-4.411,7.116-15.123,17.517-26.998,32.961-34.148,7.794-3.608,14.021-9.566,20.459-15.082,5.596-4.795,10.747-10.107,16.153-15.128,23.206-21.559,37.018-48.355,44.466-78.854,2.72-11.139,5.669-22.215,7.646-33.518.167-.951.535-1.58,1.46-1.855,1.963,27.363-2.973,53.551-13.809,78.626-10.063,23.285-24.626,43.49-42.97,60.972-14.748,14.054-30.954,25.901-50.288,32.968-6.475,2.367-12.26,5.909-17.455,10.43h0Z" style="fill:#9999f7;"/><path d="M403.744,405.275c-3.259-2.151-3.744-5.907-4.982-9.108-4.698-12.143-5.948-24.719-1.05-36.915,5.598-13.94,13.77-19.094,30.314-20.722,9.022-.888,17.761.998,26.4,3.383-.72,2.257-2.369,3.09-4.593,3.795-13.738,4.356-25.97,11.136-35.149,22.642-6.844,8.58-10.771,18.194-10.74,29.29.007,2.545-.129,5.09-.199,7.635h0Z" style="fill:#9999f7;"/><path d="M629.811,770.497c-.674.541-.672,1.782-1.857,1.795-.938,1.231-1.913,2.436-2.806,3.698-3.828,5.411-8.577,9.687-14.808,12.165-3.372-2.853-3.274-6.244.579-8.921,3.294-2.289,6.513-4.547,8.565-8.116,1.364-2.372,2.354-4.849,2.499-7.612.078-1.484-.154-2.869-1.549-3.72-1.55-.946-2.786-.01-3.809.936-2.017,1.866-4.153,3.477-6.904,3.993-2.749.515-5.72.705-6.997-2.345-1.347-3.215.628-5.477,3.401-6.851,2.407-1.193,4.967-2.083,7.478-3.061,4.135-1.61,8.003-3.586,11.022-6.992,2.016-2.275,4.627-3.693,7.509-4.674,1.367-.465,2.816-1.232,1.919-3.075-.74-1.518-2.208-2.999-.38-4.51,1.877-1.552,4.056-2.009,6.245-.388-.016,1.912-1.343,3.613-.902,5.598-3.589,1.451-3.596,2.07-.047,4.972-.264.784-.408,1.637-.812,2.34-3.736,6.506-7.121,13.148-8.843,20.531-.36,1.544-1.068,2.982.496,4.237h0Z" style="fill:#bcbcf9;"/><path d="M471.469,733.703c1.878-1.243,3.808-.951,5.664-.04,1.573.773,2.588,1.94,1.236,3.702-2.075,2.703-.746,4.011,1.839,5.026,2.41.946,4.53,2.416,6.161,4.434,3.638,4.503,8.697,6.706,13.855,8.773,2.38.954,4.763,1.921,6.478,3.934,1.269,1.491,1.83,3.168.985,5.118-.814,1.88-2.399,2.152-4.189,2.271-3.704.247-6.554-1.319-9.077-3.857-1.166-1.174-2.388-2.634-4.389-1.644-1.965.972-1.628,2.855-1.515,4.501.349,5.088,2.749,9.16,6.537,12.459,1.175,1.023,2.458,1.921,3.666,2.91,1.837,1.504,3.267,3.259,2.683,5.835-.605,2.668-2.428,4.028-5.1,4.322.056-1.476-.949-2.376-1.957-3.091-5.251-3.722-8.886-8.896-12.699-13.918-.74-.587-.671-1.44-.741-2.249.126-2.118.332-4.207.676-6.32,1.154-7.087-.005-13.575-5.868-18.532-1.287-1.088-2.612-2.263-2.598-4.205-.298-.891-.597-1.783-.896-2.675,2.178-2.522-.594-4.492-.753-6.754v-.002Z" style="fill:#bcbcf9;"/><path d="M629.811,770.497c-1.565-1.255-.857-2.693-.496-4.237,1.722-7.383,5.107-14.025,8.843-20.531.404-.703.548-1.556.813-2.339,1.669.016,3.926,1.731,4.804-.701.889-2.464-1.872-2.587-3.264-3.506-.464-.307-.994-.513-1.493-.765-.441-1.986.886-3.687.902-5.598,3.742.513,6.477,2.874,9.3,5.073.5,2.478-.918,4.092-2.634,5.435-2.667,2.088-3.169,4.08-1.795,7.556,3.389,8.566,4.028,17.346-.436,25.973-.791,1.529-1.345,2.784-3.26,2.704.418-2.485.903-4.962,1.229-7.458.189-1.449.115-3.129-1.858-3.15-1.841-.019-2.101,1.558-2.182,3.059-.359,6.664-3.25,11.971-8.673,15.829-1.546,1.1-3.094,2.583-5.645,1.646,4.621-4.281,7.614-9.283,8.519-15.419.32-2.172.04-3.743-2.672-3.57h-.001Z" style="fill:#f6f2f7;"/><path d="M473.118,743.131c-.014,1.943,1.311,3.118,2.598,4.206,5.863,4.958,7.021,11.445,5.868,18.532-.344,2.113-.55,4.202-.676,6.32-2.741-.999-3.769.229-3.523,2.84.421,4.476,2.025,8.504,4.566,12.231.578.847,2.312,2.036.857,3.177-1.281,1.003-2.241-.644-3.181-1.382-4.71-3.7-7.242-8.594-8.018-14.511-.225-1.714,1.097-4.632-2.083-4.627-2.724.004-1.444,2.899-2.178,4.398-.977.062-1.611-.306-1.833-1.331-.955-4.416-1.767-8.899-1.344-13.391.421-4.479,1.46-8.899,2.228-13.345,2.692-.061,4.629-1.754,6.718-3.116v.002Z" style="fill:#f6f2f7;"/><path d="M569.85,720.445c-3.115.975-6.194.019-9.244-.321-18.565-2.071-35.091,2.868-49.824,14.183-5.557,4.268-10.484,9.134-14.226,15.115-3.044-.738-3.1-2.281-1.392-4.56,12.47-16.635,28.909-26.161,49.734-27.718,8.517-.636,16.971-.342,24.95,3.302h0Z" style="fill:#d3d2fa;"/><path d="M466.399,746.247c-.768,4.446-1.807,8.867-2.228,13.345-.423,4.492.39,8.975,1.344,13.391.222,1.025.856,1.392,1.833,1.331.724,4.527,2.243,8.793,4.236,12.903l-.223.212c-2.7-.047-3.847-2.152-5.098-3.991-6.795-9.98-7.646-20.756-4.167-32.087.769-2.504,1.96-4.453-1.731-6.568-3.145-1.801-.774-4.567,1.823-6.074.087,2.313.602,4.265,3.522,4.202-.33,1.228-.026,2.324.691,3.335h-.001Z" style="fill:#d3d2fa;"/><path d="M641.094,779.56c1.915.08,2.469-1.176,3.26-2.704,4.464-8.626,3.825-17.407.436-25.973-1.375-3.475-.872-5.468,1.795-7.556,1.716-1.343,3.134-2.957,2.634-5.435,3.848,3.474,3.866,4.575-.196,7.412-2.046,1.429-.911,3.059-.493,4.567,2.945,10.615,2.351,20.799-3.576,30.342-1.845,2.971-3.699,6.014-8.061,7,1.556-2.834,2.878-5.244,4.201-7.653h0Z" style="fill:#d3d2fa;"/><path d="M600.101,831.119c4.942-5.49,8.898-11.599,12.484-17.982.441-.786,1.522-1.228,2.34-1.779.677-.456,1.457-1.195,2.21-.305.517.613-.017,1.309-.386,1.916-4.329,7.134-9.057,13.909-16.65,18.149h0Z" style="fill:#d09a43;"/><path d="M610.34,788.155c6.231-2.478,10.98-6.754,14.808-12.165.893-1.263,1.869-2.468,2.806-3.698.278,7.418-5.88,15.896-12.736,17.374-1.805.389-3.691.402-4.878-1.51h0Z" style="fill:#f6f2f7;"/><path d="M615.732,807.183c1.062-4.199,2.124-8.144,3.035-12.123.391-1.71,1.432-1.845,2.842-1.718,1.789.161,2.114,1.346,1.791,2.714-1.067,4.523-1.609,9.436-7.668,11.128h0Z" style="fill:#d09a43;"/><path d="M481.648,774.438c3.812,5.021,7.447,10.195,12.699,13.918,1.009.715,2.014,1.615,1.957,3.091-7.384-.15-13.918-7.733-14.656-17.009Z" style="fill:#f6f2f7;"/><path d="M465.708,742.912c-2.919.064-3.435-1.89-3.522-4.202,2.608-2.571,5.673-4.293,9.283-5.006.159,2.261,2.931,4.232.753,6.754-2.686-.549-4.391,1.508-6.513,2.455h0Z" style="fill:#f6f2f7;"/><path d="M610.545,739.895c1.597-.041,5.203,4.395,5.137,6.222-.069,1.898-1.598,2.154-2.943,2.386-1.231.212-5.25-4.579-5.092-6.059.182-1.708,1.728-2.011,2.9-2.549h0Z" style="fill:#d09a43;"/><path d="M602.803,730.751c-.561,1.397-1.876,2.18-3.25,1.661-2.412-.91-4.203-2.88-5.881-4.763-1.294-1.453.554-1.876,1.385-2.304.968-.498,7.612,4.133,7.747,5.406h0Z" style="fill:#bcbcf9;"/><path d="M592.39,722.63c-2.253,3.14-4.345,1.629-6.185.124-1.572-1.287-5.603-1.595-4.481-3.637,1.485-2.701,4.085.479,6.157,1.169,1.547.515,2.936,1.506,4.509,2.345h0Z" style="fill:#bcbcf9;"/><path d="M608.859,736.25c-.171,1.775-1.356,2.636-2.754,2.865-2.168.355-3.005-1.497-3.441-3.04-.52-1.843,1.449-2.488,2.578-2.692,1.969-.358,2.666,1.594,3.617,2.868h0Z" style="fill:#d09a43;"/><path d="M578.659,716.518c-2.45,2.47-4.172.548-6.608-.266,2.713-1.947,4.498-.644,6.608.266Z" style="fill:#bcbcf9;"/><path d="M569.018,714.313c-2.674,1.158-4.411.058-6.216-.636,1.875-.684,3.739-1.078,6.216.636Z" style="fill:#9999f7;"/><path d="M387.746,475.286c.831.052,1.49.353,1.758,1.22-.661-.297-1.521-.31-1.758-1.22Z" style="fill:#d3d2fa;"/><path d="M471.583,787.218c.121.171.241.342.362.513-.192-.102-.386-.205-.582-.305-.003.003.22-.209.22-.209h0Z" style="fill:#d3d2fa;"/><path d="M514.913,586.82c6.959-.104,12.649,5.142,12.686,11.694.038,6.799-5.223,12.028-12.229,12.152-6.895.123-12.605-5.104-12.78-11.698-.173-6.505,5.446-12.045,12.323-12.148h0ZM514.474,597.513c-.006-2.401-1.219-3.499-3.401-3.466-2.134.032-3.498,1.181-3.48,3.342.017,1.989,1.443,3.044,3.293,3.147,2.079.117,3.484-.861,3.588-3.024h0Z" style="fill:#332f40;"/><path d="M604.64,598.681c.027,6.644-5.439,11.903-12.461,11.987-6.945.083-12.536-5.201-12.539-11.851-.003-6.705,5.43-11.957,12.412-11.998,6.916-.04,12.561,5.279,12.588,11.861h0ZM587.835,600.558c1.915-.297,3.334-1.086,3.352-3.183.019-2.277-1.313-3.319-3.486-3.287-1.969.029-3.223,1.02-3.291,3.067-.078,2.34,1.486,3.122,3.426,3.403h0Z" style="fill:#332f40;"/><path d="M662.121,264.761c.034,6.437-4.756,11.275-11.17,11.28-6.027.006-11.888-5.466-11.883-11.096.005-6.172,5.018-10.956,11.597-11.068,6.721-.114,11.422,4.352,11.457,10.883h0Z" style="fill:#f6f2f7;"/><path d="M678.846,294.016c-5.562.08-9.056-3.139-9.095-8.378-.038-5.026,3.469-8.585,8.499-8.627,4.486-.037,9.129,4.095,9.329,8.303.204,4.276-4.171,8.635-8.732,8.701h0Z" style="fill:#f6f2f7;"/><path d="M696.062,315.46c-4.626-.045-6.743-2.033-6.678-6.275.057-3.735,2.961-6.537,6.798-6.559,3.857-.022,6.786,2.79,6.857,6.585.069,3.672-2.852,6.288-6.977,6.248h0Z" style="fill:#f6f2f7;"/><path d="M552.944,617.976c-3.724.142-6.935-1.198-9.785-3.486-1.474-1.184-2.316-2.717-.948-4.393,1.239-1.517,2.842-1.066,4.142.057,4.656,4.021,9.278,3.539,13.858-.049,1.554-1.217,3.013-1.732,4.369.091,1.268,1.705.146,2.976-1.1,3.985-3.055,2.476-6.475,4.057-10.536,3.795h0Z" style="fill:#614ea4;"/><path d="M583.755,626.155c-1.18-.066-1.675-.59-1.612-1.384.215-2.672,1.845-4.702,3.391-6.691.523-.673,1.681-.492,2.235.325.865,1.273.277,2.468-.555,3.505-1.184,1.476-1.452,3.783-3.46,4.245h0Z" style="fill:#d09a43;"/><path d="M511.477,617.854c1.001.01,1.519.506,1.653,1.512.228,1.7-2.746,6.785-4.039,6.809-.929.017-1.65-.328-1.843-1.333-.242-1.257,3.172-6.876,4.229-6.988h0Z" style="fill:#d09a43;"/><path d="M505.502,620.399c-1.237,1.863-1.265,5.014-4.357,5.717-1.007.229-1.965-.788-1.392-1.95,1.133-2.295,1.442-5.355,4.387-6.198,1.165-.333,1.377,1.07,1.361,2.429h0Z" style="fill:#d09a43;"/><path d="M595.627,619.889c-.983,1.795-1.982,3.845-3.208,5.748-.489.758-1.613.808-2.23.034-.963-1.21-.402-2.532.401-3.521,1.172-1.444,1.008-4.13,3.627-4.218.922-.031,1.558.643,1.41,1.958h0Z" style="fill:#d09a43;"/><path d="M599.061,625.988c-1.454-.348-1.978-1.255-1.591-2.26.872-2.265,1.157-5.148,4.089-5.816,1.215-.277,1.568,1.07,1.301,2.086-.639,2.432-1.656,4.667-3.799,5.99Z" style="fill:#d09a43;"/><path d="M516.672,626.113c-1.176-.137-1.876-.638-1.704-1.37.584-2.476,1.624-4.783,3.446-6.618.531-.535,1.346-.508,1.865.149.83,1.053.576,2.232-.174,3.109-1.309,1.532-1.388,4.074-3.432,4.729Z" style="fill:#d09a43;"/><path d="M511.537,745.402c-2.405-.379-2.976-1.727-1.677-3.31,5.128-6.254,11.902-10.028,19.528-12.382,1.217-.375,2.319.072,2.835,1.281.583,1.366-.281,2.292-1.418,2.65-6.798,2.136-12.695,5.665-17.563,10.907-.439.473-1.224.624-1.705.854h0Z" style="fill:#614ea4;"/><path d="M550.901,839.331c-4.407-.075-7.526-.046-10.603-.784-1.616-.388-3.328-.741-2.847-2.851.439-1.923,2.27-1.473,3.573-1.222,7.548,1.453,14.983.779,22.358-1.043,3.592-.887,6.999-2.3,10.362-3.856,1.344-.622,3.271-1.321,4.142.511.961,2.019-1.033,2.6-2.383,3.291-8.126,4.163-16.8,5.952-24.602,5.955h0Z" style="fill:#614ea4;"/><path d="M586.562,825.355c-.784.079-1.391-.246-1.769-.902-.551-.956-.509-1.922.301-2.711,2.223-2.165,4.471-4.304,6.728-6.433.786-.741,1.735-.966,2.728-.474.73.361.803,1.089.76,1.818-.134,2.261-6.527,8.62-8.748,8.701h0Z" style="fill:#614ea4;"/><path d="M639.017,738.417c.5.252,1.029.459,1.493.765,1.392.919,4.153,1.042,3.264,3.506-.878,2.432-3.135.717-4.804.701-3.549-2.903-3.543-3.521.047-4.973h0Z" style="fill:#614ea4;"/><path d="M465.708,742.912c2.123-.947,3.827-3.004,6.513-2.455.299.893.598,1.785.896,2.676-2.09,1.361-4.026,3.053-6.719,3.114-.717-1.011-1.021-2.107-.691-3.335h0Z" style="fill:#614ea4;"/><path d="M514.474,597.513c-.104,2.163-1.51,3.14-3.588,3.024-1.85-.104-3.277-1.159-3.293-3.147-.018-2.162,1.346-3.311,3.48-3.342,2.182-.032,3.396,1.066,3.401,3.466h0Z" style="fill:#d3d2fa;"/><path d="M587.835,600.558c-1.94-.281-3.505-1.063-3.426-3.403.069-2.046,1.322-3.039,3.291-3.067,2.173-.031,3.506,1.01,3.486,3.287-.018,2.097-1.437,2.886-3.352,3.183h0Z" style="fill:#ddf6fb;"/></g></svg>