<?xml version="1.0" encoding="UTF-8"?>
<svg id="Layer_1" xmlns="http://www.w3.org/2000/svg" version="1.1" viewBox="0 0 1080 1080">
  <!-- Generator: Adobe Illustrator 29.0.0, SVG Export Plug-In . SVG Version: 2.1.0 Build 186)  -->
  <defs>
    <style>
      .st0 {
        fill: #ea6c7c;
        fill-rule: evenodd;
      }

      .st1 {
        fill: #fff;
      }
    </style>
  </defs>
  <path class="st1" d="M540,0h0c298.2,0,540,241.8,540,540h0c0,298.2-241.8,540-540,540h0C241.8,1080,0,838.2,0,540h0C0,241.8,241.8,0,540,0Z"/>
  <g id="RedStone_logo">
    <g id="Group-3-Copy">
      <path id="Fill-1" class="st0" d="M752.3,520l-89.2-146.1,46.2-75.4,133.9,221.5h-90.8ZM449.2,726.2h180l44.6,73.8h-267.7l43.1-73.8h0ZM629.2,353.9h-180l-43.1-73.9h269.2l-46.2,73.9ZM629.2,687.7h-180l-89.2-147.7,89.2-147.7h180l89.2,147.7-89.2,147.7ZM370.8,298.5l44.6,75.4-89.2,146.1h-90.8l135.4-221.5h0ZM236.9,560h90.8l89.2,147.7-46.1,73.8-133.9-221.5h0ZM709.2,783.1l-46.2-75.4,89.2-147.7h90.8l-133.8,223.1h0ZM726.2,249.2c-3.1-6.1-10.8-9.2-16.9-9.2h-338.5c-6.1,0-13.9,3.1-16.9,9.2l-169.2,280c-3.1,6.2-3.1,13.8,0,20l169.2,280c3.1,7.7,10.8,10.8,16.9,10.8h338.5c6.2,0,13.8-3.1,16.9-9.2l169.2-280c3.1-6.2,3.1-13.8,0-20l-169.2-281.5h0Z"/>
      <path id="Fill-4" class="st0" d="M641.5,570.8c-9.2-6.2-21.5-3.1-27.7,6.2l-35.4,55.4c-6.2,9.2-3.1,21.5,6.2,27.7,3.1,1.5,6.2,3.1,10.8,3.1s12.3-3.1,16.9-9.2l35.4-55.4c4.6-9.2,3.1-21.5-6.2-27.7"/>
      <path id="Fill-6" class="st0" d="M669.2,520c-9.2-6.2-21.5-3.1-26.2,6.2l-3.1,4.6c-6.2,9.2-1.5,21.5,6.2,27.7,3.1,1.5,6.2,3.1,10.8,3.1s13.8-3.1,16.9-9.2l3.1-4.6c4.6-9.2,1.5-21.5-7.7-27.7"/>
    </g>
  </g>
</svg>