<?xml version="1.0" encoding="UTF-8"?>
<svg id="Layer_1" xmlns="http://www.w3.org/2000/svg" version="1.1" viewBox="0 0 1080 1080">
  <!-- Generator: Adobe Illustrator 29.0.0, SVG Export Plug-In . SVG Version: 2.1.0 Build 186)  -->
  <defs>
    <style>
      .st0 {
        fill-rule: evenodd;
      }

      .st1 {
        fill: #fff;
      }
    </style>
  </defs>
  <path class="st1" d="M540,0h0c298.2,0,540,241.8,540,540h0c0,298.2-241.8,540-540,540h0C241.8,1080,0,838.2,0,540h0C0,241.8,241.8,0,540,0Z"/>
  <path class="st0" d="M252,648l180,180h396v-396l-180-180h-324c-39.7,0-72,32.3-72,72v324ZM612,288h-288c-18.4,0-33.5,13.7-35.7,31.5h-.3v328.5h72v-270c0-9.9,8.1-18,18-18h162v90c0,9.9-8.1,18-18,18h-90v72l108,108h108l-108-108c39.7,0,72-32.3,72-72v-180h0Z"/>
</svg>