<?xml version="1.0" encoding="UTF-8"?>
<svg id="Layer_1" xmlns="http://www.w3.org/2000/svg" xmlns:xlink="http://www.w3.org/1999/xlink" version="1.1" viewBox="0 0 1080 1080">
  <!-- Generator: Adobe Illustrator 29.0.0, SVG Export Plug-In . SVG Version: 2.1.0 Build 186)  -->
  <defs>
    <style>
      .st0 {
        fill: url(#linear-gradient2);
      }

      .st1 {
        fill: url(#linear-gradient1);
      }

      .st2 {
        fill: url(#linear-gradient);
      }

      .st3 {
        fill: #fff;
      }
    </style>
    <linearGradient id="linear-gradient" x1="546" y1="-1230" x2="546" y2="-1877.7" gradientTransform="translate(0 -1014) scale(1 -1)" gradientUnits="userSpaceOnUse">
      <stop offset="0" stop-color="#00deff"/>
      <stop offset="1" stop-color="#ad62ff"/>
    </linearGradient>
    <linearGradient id="linear-gradient1" x1="644.7" y1="-1805.7" x2="644.7" y2="-1385.2" gradientTransform="translate(0 -1014) scale(1 -1)" gradientUnits="userSpaceOnUse">
      <stop offset="0" stop-color="#00deff"/>
      <stop offset="1" stop-color="#ad62ff"/>
    </linearGradient>
    <linearGradient id="linear-gradient2" x1="327.7" y1="-1513.9" x2="544.6" y2="-1513.9" gradientTransform="translate(0 -1014) scale(1 -1)" gradientUnits="userSpaceOnUse">
      <stop offset="0" stop-color="#00deff"/>
      <stop offset="1" stop-color="#ad62ff"/>
    </linearGradient>
  </defs>
  <path class="st3" d="M540,0h0c298.2,0,540,241.8,540,540h0c0,298.2-241.8,540-540,540h0C241.8,1080,0,838.2,0,540h0C0,241.8,241.8,0,540,0Z"/>
  <path class="st2" d="M692.9,697.8c-1.6,3.3-8.3,8.3-15,16.6h0c-6.6,6.6-13.2,15-20,21.6-21.6,21.6-41.6,44.8-63.2,66.4l-24.9,24.9c-5,5-8.3,9.9-13.2,15l-1.6,1.6-3.3,3.3c-3.3,3.3-6.6,8.3-9.9,11.7l-1.6,1.6-3.3,3.3h0l-1.6-1.6c-11.7-13.2-21.6-24.9-33.3-38.2-24.9-33.3-41.5-71.4-48.2-114.6h0c-6.6-43.2,1.7-69.8,3.3-74.7v-1.6c3.3-9.9,6.6-18.3,11.7-28.2,15-31.5,34.9-59.8,56.4-86.4,16.6-20,33.3-41.5,44.8-64.8,6.6-16.6,11.7-33.3,11.7-49.8s-3.3-26.6-6.6-39.9c-5-18.3-11.7-34.9-20-48.2,0-1.7-1.6-1.7-1.6-3.3-1.6-1.7-1.6-3.3-3.3-3.3h0c-51.5-59.8-124.6,39.9-151.2,63.1,11.7-11.7,23.3-23.3,33.3-34.9,38.2-39.9,74.7-79.8,113-117.9l3.3-3.3h0l3.3,3.3c13.2,15,26.6,29.9,38.2,46.5,21.6,31.5,36.6,66.4,41.6,104.7,3.3,13.2,3.3,61.5-3.3,76.5h0c-13.2,41.5-36.6,78-64.8,109.7-23.2,26.6-41.6,54.9-53.1,88-5,15-8.4,30-5,44.8,5,33.3,16.6,59.8,24.9,73.2,1.6,1.6,1.6,3.3,3.3,5s1.6,3.3,3.3,3.3h0c48.2,53.1,93-9.9,156.2-73.2h-.1,0Z"/>
  <path class="st1" d="M752.7,560c0-44.8-13.2-86.4-41.6-123-20-24.9-44.8-44.9-73.2-59.8-3.3-1.7-5-3.3-5-6.6h0c3.3,13.2,3.3,61.5-3.3,76.5,1.2-2.2,2.7-2.2,5,0,38.2,28.2,56.5,66.5,58.2,113,0,30-11.7,56.5-30,78-16.6,20-34.8,38.2-53.1,56.5-23.2,24.9-46.5,49.8-69.8,74.7l-3.3,3.3c48.2,51.5,93-11.7,156.2-74.7-1.6,3.3-8.3,8.3-15,16.6,11.7-11.7,21.6-23.2,33.3-36.6,26.6-34.8,43.2-73.2,41.6-117.9h0Z"/>
  <path class="st0" d="M545,309l-3.3,3.3c-24.9,24.9-48.2,51.5-73.1,76.5s-33.3,33.3-48.2,51.5c-19.9,23.3-31.5,49.8-31.5,81.4,1.7,46.5,19.9,84.8,58.2,113,2.2,1.2,3.9,1.2,5,0-1.7,6.6-9.9,33.3-3.3,74.7,0-3.3-1.7-5-5-6.6-33.3-16.6-63.1-39.9-83.1-71.4-34.9-54.9-43.2-113-21.6-174.4,8.4-24.9,24.9-44.9,41.5-64.8,5-6.6,11.7-11.7,16.6-18.3,28.2-24.9,101.4-124.6,147.9-64.8h.1Z"/>
</svg>