<?xml version="1.0" encoding="UTF-8"?>
<svg id="Layer_1" xmlns="http://www.w3.org/2000/svg" version="1.1" viewBox="0 0 1080 1080">
  <!-- Generator: Adobe Illustrator 29.0.0, SVG Export Plug-In . SVG Version: 2.1.0 Build 186)  -->
  <defs>
    <style>
      .st0 {
        fill: #fff;
      }

      .st1 {
        fill: #ca313e;
      }
    </style>
  </defs>
  <path class="st0" d="M540,0h0c298.2,0,540,241.8,540,540h0c0,298.2-241.8,540-540,540h0C241.8,1080,0,838.2,0,540h0C0,241.8,241.8,0,540,0Z"/>
  <path class="st1" d="M773.1,338.8c-10.1-24.9-26.5-47.5-45.2-65.5-19.4-18.7-42.9-32.7-67.1-42.9-16.4-6.2-32.7-10.9-49.8-12.5-61.6-8.6-126.3,10.1-173.1,56.9-54.6,54.6-73.3,133.3-49.1,207.4v.7c-14.8,9.4-28.8,20.3-41.3,33.6-18.7,19.4-34.3,42.9-43.6,67.8-10.1,25.8-14,51.4-14,78.8s5.5,53.9,16.4,78c10.1,24.9,26.5,47.5,45.2,65.5,19.4,18.7,42.9,32.7,67.1,42.9,24.2,10.1,50.7,14,77.2,14h-10.9c55.3,3.2,112.3-17.1,154.4-59.3,54.6-54.6,73.3-133.3,49.8-205.9,16.4-9.4,31.2-21,43.6-35.1,18.7-19.4,34.3-42.9,43.6-67.8,10.1-25.8,14-51.4,14-78.8s-6.2-53.9-17.1-78.1h0v.4h0ZM595.3,353.7c-1.6-6.2-2.3-13.2-2.3-19.4,7.1,1.6,14.8,3.2,21.9,6.2,10.1,3.9,18.7,10.9,24.9,18.7s12.5,16.4,15.5,26.5,4.6,19.4,4.6,29.7c-1.6,18.7-9.4,36.6-22.6,50l-42-111.5h0ZM643.7,480.8c1.6-1.6,2.3-2.3,3.9-3.9,8.6-8.6,14-18.7,18.7-29.7,4.6-10.9,5.5-23.3,5.5-34.3s-3.2-22.6-7.8-32.7c-4.6-10.1-12.5-18.7-19.4-26.5-7.8-7.1-17.1-13.2-27.2-16.4-7.1-2.3-14.8-3.9-22.6-3.9,0-13.2,3.9-25.8,9.4-36.7,8.6,1.6,18,4.8,25.8,8.6,15.5,7.1,27.2,16.4,38.2,27.4,10.1,12.5,18.7,24.9,24.2,39.7,5.5,14,7.8,29.7,7.8,45.2s-3.2,31.2-10.1,43.6c-5.5,14-14,26.5-24.9,35.9-3.9,3.2-7.1,6.2-11.7,8.6l-9.4-24.9h-.3q0-.1,0-.1ZM658.5,519.8c5.5-3.9,10.9-8.6,16.4-14,10.9-12.5,21-27.4,26.5-42.9,7.1-16.4,8.6-33.5,8.6-49.1s-3.9-32.7-10.9-48.4c-6.2-14-16.4-28.8-28.1-39.7-12.5-10.9-24.9-19.4-40.6-24.9-8.6-3.2-18-4.8-26.5-6.2,3.9-7.1,8.6-13.2,14-19.4,4.6-4.8,9.4-8.6,14.8-11.7,3.9,1.6,7.8,3.2,11.7,4.8,18.7,7.8,35.9,19.4,50.7,35.1,14,14,24.9,33.5,32.7,51.4,7.8,19.4,10.9,40.6,10.9,60-.7,22.6-5.5,42-13.2,60.8-7.8,17.1-19.4,33.5-34.3,48.4s-15.5,14-24.2,19.4l-8.6-23.3h0v-.3h.1ZM444.1,815.3c-3.2-1.6-6.2-2.3-9.4-3.9-18.7-7.8-35.9-19.4-50.7-35.1-14-14-24.9-33.5-32.7-51.4-7.8-19.4-10.9-40.6-10.9-60,.7-21,5.5-40.6,13.2-59.3,7.8-17.1,19.4-33.5,34.3-48.4,7.1-7.1,14.8-13.2,22.6-18l8.6,23.3c-4.8,3.9-10.1,7.8-14,12.5-10.9,12.5-21,27.2-26.5,42.9-7.1,16.4-8.6,33.5-8.6,49.1s3.9,32.7,10.9,48.4c6.2,14,16.4,28.8,28.1,39.7,12.5,10.9,24.9,19.4,40.5,24.9,7.8,3.2,15.5,4.6,24.2,6.2-3.9,7.1-8.6,13.2-14,18.7-4.8,3.2-10.1,7.1-15.5,10.1h0v.3h-.1,0ZM450.3,776.3c-15.5-7.1-27.4-16.4-38.2-27.2-10.1-12.5-18.7-24.9-24.2-39.7-5.5-14-7.8-29.7-7.8-45.2s3.2-31.2,10.1-43.6c5.5-14,14-26.5,24.9-35.9,3.2-2.3,6.2-5.5,9.4-7.8l9.4,24.9c-.7.7-1.6,1.6-2.3,2.3-8.6,8.6-14,18.7-18.7,29.7s-5.5,23.3-5.5,34.3,3.2,22.6,7.8,32.7c4.8,10.1,12.5,18.7,19.4,26.5,7.8,7.1,17.1,13.2,27.4,16.4,6.2,2.3,14,3.2,21,3.9-.7,13.2-3.9,25.8-10.1,36.6-7.1-2.3-14.8-4.6-22.6-7.8h0ZM482.3,726.5c1.6,6.2,1.6,13.2,1.6,19.4-7.1-1.6-13.2-3.2-19.4-6.2-10.1-3.9-18.7-10.9-24.9-18.7-6.2-7.8-12.5-16.4-15.5-26.5-3.9-10.1-4.8-19.4-4.8-29.7.7-18,8.6-35.9,21-48.4l42,110h0ZM356,803.7c-18.7-18.7-32-40.6-42-64.8-8.6-22.6-13.2-49.1-13.2-74.9,1.6-24.9,7.1-50.7,16.4-73.3,10.1-23.3,24.9-43.6,42.9-61.6s22.6-19.4,35.9-27.2l7.1,18c-10.1,7.1-20.3,14-28.1,23.3-15.5,16.4-27.4,35.1-35.1,56.2-7.8,21-10.9,42.9-10.9,64.8,1.6,21.9,5.5,43.6,14,63.2,8.6,19.4,21.9,38.2,37.4,52.3,15.5,14,33.5,26.5,53.9,34.3,3.2.7,5.5,2.3,8.6,3.2-13.2,7.8-27.4,11.7-42.9,12.5-5.5,0-10.9-.7-16.4-1.6-10.1-7.8-18.7-15.5-27.4-24.2h0c0-.1,0-.2,0-.2ZM762.2,489.5c-10.1,23.3-24.9,43.6-42.9,61.6s-24.2,21-38.2,28.8l-6.2-17.1c10.9-7.1,21.9-14.8,30.4-24.9,15.5-16.4,27.2-35.1,35.1-56.2s10.9-42.9,10.9-64.7c-1.6-21.9-5.5-43.6-14-63.2-8.6-19.4-21.9-38.2-37.4-52.3s-33.5-26.5-53.9-34.3c-3.9-1.6-7.8-2.3-10.9-3.9,18.7-10.9,40.6-14,61.6-10.1,10.1,7.1,19.4,14.8,27.2,24.2,18.7,18.7,32,40.6,42,64.7,8.6,22.6,13.2,49.1,13.2,74.9-2.3,24.2-7.8,50-17.1,72.6h0q0-.1,0-.1Z"/>
</svg>