<?xml version="1.0" encoding="UTF-8"?>
<svg id="Layer_1" xmlns="http://www.w3.org/2000/svg" version="1.1" viewBox="0 0 1080 1080">
  <!-- Generator: Adobe Illustrator 29.0.0, SVG Export Plug-In . SVG Version: 2.1.0 Build 186)  -->
  <defs>
    <style>
      .st0 {
        fill: #fff;
      }
    </style>
  </defs>
  <path class="st0" d="M540,0h0c298.2,0,540,241.8,540,540h0c0,298.2-241.8,540-540,540h0C241.8,1080,0,838.2,0,540h0C0,241.8,241.8,0,540,0Z"/>
  <path d="M527.2,855c-22.5,0-44.6-8.2-61.9-24.5-66.8-63.6-51.8-239,19.1-310.2,59.1-59.4,116.8-57.4,201.8-68.1,27.7-3.5,46.6-5.2,66.6-8.8,36.8-9.1,34.1-41.6,33.2-47.4-.9-5.8-9.2-36.8-41.5-32.9-49,5.8-113.9,39.4-176.4,63.3-87.7,33.9-179.8,79.1-247.8,71.2-41.9-4.9-74.8-34.2-81.6-75.4-6.5-40.9,12.6-79.1,51.1-96.4,63.7-29.1,187.8-31.8,254.6,21.8l-57,20.9c-68-29.7-143.2-13.3-172.4,6.7-17.2,11.2-20.3,25.5-18.5,37.9.9,5.8,7.1,24.5,30.8,27.3,53.3,6.1,138.5-36.4,219.2-67.6,66.2-25.5,134.5-60.3,190.9-67,59.7-6.7,97.3,34.5,104.1,79.4,6.5,44.5-19.7,105.4-78.8,115.1-25.9,4.2-41.5,8-76.5,11.2-54,5-117.8,1.8-159,45.7-21.2,22.7-37.9,60.7-42.8,114.6-4.9,53.9,3.4,100,21.9,117.2,13.2,12.7,32,10,42.5.3,35.1-32.4,36.3-103,5.8-220.3l57.3-22.4c32.9,122.1,39.4,226.9-22.8,284.8-17.9,15.8-39.7,23.6-61.9,23.6h0Z"/>
</svg>