<?xml version="1.0" encoding="UTF-8"?>
<svg id="Layer_1" xmlns="http://www.w3.org/2000/svg" version="1.1" viewBox="0 0 1080 1080">
  <!-- Generator: Adobe Illustrator 29.0.0, SVG Export Plug-In . SVG Version: 2.1.0 Build 186)  -->
  <defs>
    <style>
      .st0 {
        fill: #fff;
      }
    </style>
  </defs>
  <path class="st0" d="M540,0h0c298.2,0,540,241.8,540,540h0c0,298.2-241.8,540-540,540h0C241.8,1080,0,838.2,0,540h0C0,241.8,241.8,0,540,0Z"/>
  <path d="M710.5,708.2c-48.2,48.4-96.5,96.6-144.9,144.9-7.2,7.2-15.8,11.1-25.2,10.9-17.3.1-33.3-13.1-36.3-29.5-2.3-12.5.9-23.3,9.9-32.4,47.8-47.7,95.8-95.3,143.3-143.4,19.6-19.9,52.8-12.8,61.3,16.3,3.7,12.4.9,24-8.3,33.3h.1,0Z"/>
  <path d="M792.3,252.9c-.3,20.2-15.8,35.9-36.1,35.9s-36.6-15.8-36.6-36.3,16.1-36.4,36.4-36.3c20.7,0,36.6,17.6,36.3,36.9h0q0-.1,0-.1Z"/>
  <path d="M503.4,216c-119.5.3-215.6,96.8-215.9,215.4-.3,119.4,96,216.1,215.3,216.4,119.7.3,216.4-96.2,216.4-215.7s-96.8-215.9-216-216h.1c0-.1,0-.1,0-.1ZM501.5,575c-78.8-1-141-64.2-141.3-143.3.3-78.9,63.2-143.7,144.7-143,78.1.7,141.7,62.9,141.6,143.4,0,80.1-64.1,144-145.1,143h.1q0-.1,0-.1Z"/>
</svg>