<?xml version="1.0" encoding="UTF-8"?>
<svg id="Layer_1" xmlns="http://www.w3.org/2000/svg" version="1.1" viewBox="0 0 1080 1080">
  <!-- Generator: Adobe Illustrator 29.0.0, SVG Export Plug-In . SVG Version: 2.1.0 Build 186)  -->
  <defs>
    <style>
      .st0 {
        fill: #ff4c53;
      }

      .st1 {
        fill: #fff;
      }
    </style>
  </defs>
  <path class="st1" d="M540,0h0c298.2,0,540,241.8,540,540h0c0,298.2-241.8,540-540,540h0C241.8,1080,0,838.2,0,540h0C0,241.8,241.8,0,540,0Z"/>
  <path class="st0" d="M616.5,644.5c-.6,20.2-11.7,31.4-33.1,32.1-28.8,1-57.6,1-86.1,0-23-1-33.1-12.7-33.4-35.6-.3-14,0-27.9,0-42s-.3-29.2,0-44.1c.7-19.4,11.7-31.1,30.8-31.7,30.1-.7,60.2-.7,90,0,19.4.6,31.1,11.7,31.7,31.1,1.3,30.1,1.3,60.2.3,90h-.1c0,.1,0,.2,0,.2Z"/>
  <path class="st0" d="M864,324.7v441.8c0,32.7-9.8,42.8-42,42.8-23.9.3-47.4.3-71,0-30.5-.3-40.8-10.7-40.8-42v-309c0-29.5-3.9-33.4-32.7-33.4h-274.6c-29.5,0-33.7,4.5-33.7,34.7v305.4c0,36.3-8.4,44.6-45.4,44.6s-47.4.3-71,0c-25.2-.3-36.6-11.4-36.6-36.6-.6-152.2-.6-303.8-.3-455.5,0-31.7,16.6-46.7,50-46.9,91.4-.3,183,0,274.5,0h268.8c40.5,0,54.4,14,54.4,54.1h.3Z"/>
</svg>