<?xml version="1.0" encoding="UTF-8"?>
<svg id="Layer_1" xmlns="http://www.w3.org/2000/svg" version="1.1" viewBox="0 0 1080 1080">
  <!-- Generator: Adobe Illustrator 29.0.0, SVG Export Plug-In . SVG Version: 2.1.0 Build 186)  -->
  <defs>
    <style>
      .st0 {
        fill: #fff;
      }
    </style>
  </defs>
  <path class="st0" d="M540,0h0c298.1,0,540,241.9,540,540h0c0,298.1-241.9,540-540,540h0C241.9,1080,0,838.1,0,540h0C0,241.9,241.9,0,540,0Z"/>
  <path d="M721.4,845.3h-210.2c-5.8,0-11.5-2.9-14.4-8.6-2.9-4.3-2.9-11.5,0-15.8l36-63.4h-99.4c-4.3,0-8.6-2.9-11.5-7.2h0l-2.9-2.9-38.9-64.8-37.4,64.8c-2.9,4.3-7.2,7.2-14.4,7.2h0c-5.8,0-10.1-2.9-14.4-7.2l-112.3-197.3c-2.9-4.3-2.9-10.1,0-15.8l112.3-188.6c2.9-4.3,7.2-7.2,14.4-7.2h0c5.8,0,10.1,2.9,14.4,7.2l36,59,40.3-67.7s0-1.4,1.4-2.9l4.3-7.2h109.4l-44.6-80.6,7.2-13h233.3l4.3,7.2,110.9,193c2.9,4.3,2.9,10.1,0,15.8s-7.2,7.2-13,7.2h-79.2l46.1,77.8c2.9,2.9,2.9,7.2,2.9,10.1s0,7.2-1.4,10.1l-44.6,77.8h76.3c5.8,0,11.5,2.9,14.4,8.6s2.9,11.5,0,15.8l-109.4,182.9c-2.9,5.8-8.6,8.6-14.4,8.6h-2.9l1.4-2.9h0ZM527,819.4h187.2l97.9-162.7h-73.4l-54.7,93.6c-2.9,4.3-7.2,7.2-13,7.2h-110.9l-34.6,61.9h1.4ZM443.5,750.2h0ZM577.4,731.5h87.8l43.2-74.9h-89.3l-41.8,74.9h0ZM455,731.5h90.7l51.8-92.2c2.9-5.8,8.6-8.6,14.4-8.6h110.9l43.2-74.9h-207.4l-105.1,175.7h1.4,0ZM394.6,656.6l37.4,61.9,105.1-175.7-105.1-175.7-38.9,63.4,63.4,103.7c2.9,4.3,2.9,10.1,0,15.8l-61.9,106.6ZM229,541.4l99.4,175.7,34.6-60.5-64.8-106.6c-2.9-4.3-2.9-10.1,0-15.8l63.4-103.7-33.1-56.2-99.4,168.5h0v-1.4ZM326.9,541.4l53.3,89.3,51.8-89.3-53.3-87.8-51.8,86.4h0v1.4h0ZM560.2,528.5h207.4l-44.6-74.9h-118.1l-4.3-7.2-51.8-93.6h-93.6l105.1,175.7h0ZM737.3,427.7h76.3l-97.9-169.9h-188.6l37.4,67.7h103.7c5.8,0,11.5,2.9,14.4,8.6l56.2,92.2h0l-1.4,1.4h0ZM619.2,427.7h87.8l-44.6-74.9h-83.5l40.3,74.9h0ZM443.5,334.1h0Z"/>
</svg>