<?xml version="1.0" encoding="UTF-8"?>
<svg id="Layer_1" xmlns="http://www.w3.org/2000/svg" version="1.1" viewBox="0 0 1080 1080">
  <!-- Generator: Adobe Illustrator 29.0.0, SVG Export Plug-In . SVG Version: 2.1.0 Build 186)  -->
  <defs>
    <style>
      .st0 {
        fill: #1b3cf7;
        fill-rule: evenodd;
      }

      .st1 {
        fill: #fff;
      }
    </style>
  </defs>
  <path class="st1" d="M540,0h0c298.2,0,540,241.8,540,540h0c0,298.2-241.8,540-540,540h0C241.8,1080,0,838.2,0,540h0C0,241.8,241.8,0,540,0Z"/>
  <g id="Layer_1-2">
    <g id="_390928512">
      <path id="_390763136" class="st0" d="M369.6,433.6c0,34.5-28,62.4-62.4,62.4s-62.4-28-62.4-62.4,27.9-62.4,62.4-62.4,62.4,28,62.4,62.4h0Z"/>
      <path id="_390765632" class="st0" d="M405.6,776.9h-78.2l-59.2-251.3c12,5.1,25.2,7.9,39,7.9,27.1,0,51.8-10.8,69.8-28.4l18.7,90.2,128.6-234.6h74.6l41.4,228.3,127.6-228.3h124.9l-239.1,416.2h-80.9l-44.9-218.5-122.3,218.5h0Z"/>
    </g>
  </g>
</svg>