<?xml version="1.0" encoding="UTF-8"?>
<svg id="Layer_1" xmlns="http://www.w3.org/2000/svg" version="1.1" viewBox="0 0 1080 1080">
  <!-- Generator: Adobe Illustrator 29.0.0, SVG Export Plug-In . SVG Version: 2.1.0 Build 186)  -->
  <defs>
    <style>
      .st0 {
        fill: #fff;
      }
    </style>
  </defs>
  <path class="st0" d="M540,0h0c298.2,0,540,241.8,540,540h0c0,298.2-241.8,540-540,540h0C241.8,1080,0,838.2,0,540h0C0,241.8,241.8,0,540,0Z"/>
  <path d="M702.7,478.9l97.9,60.6-97.9,60.6c7.1-18.7,11.7-39.6,11.7-60.6-1.2-22.2-4.6-42-11.7-60.6M378.4,478.9c-7.1,18.7-11.7,39.6-11.7,60.6s3.5,42,11.7,60.6l-97.9-60.6,97.9-60.6ZM540.6,401.9c75.7,0,136.5,61.8,136.5,137.7s-60.6,137.7-136.5,137.7-137.7-61.8-137.7-137.7,61.8-137.7,137.7-137.7M540.6,335.4l-17.4,10.5-67.7,42c-4.6,2.3-9.4,5.8-14,8.2l-229.8,143.4,229.8,143.4c4.6,3.5,9.4,5.8,14,9.4l84,52.4,82.8-51.3h1.2c4.6-2.3,10.5-5.8,15.1-9.4l229.8-144.6-229.8-143.4c-4.6-3.5-9.4-5.8-14-9.4l-84-51.3h0c0-.1,0-.1,0-.1Z"/>
  <path d="M902.2,572.3c-10.5,0-22.2,3.5-33.8,9.4l-293.9,183.2,3.5,2.3c8.2,4.6,18.7,8.2,31.5,8.2s22.2-2.3,33.8-9.4l58.3-36.1,234.4-148.2-3.5-2.3c-8.2-4.6-18.7-8.2-30.4-7.1"/>
  <path d="M471.7,305.1c-10.5,0-22.2,3.5-33.8,9.4l-58.3,36.1-235.6,147c15.1,10.5,40.8,15.1,67.7,0l293.9-183.2-3.5-2.3c-7.1-4.6-17.6-8.2-30.4-7.1"/>
</svg>