<?xml version="1.0" encoding="UTF-8"?>
<svg id="Layer_1" xmlns="http://www.w3.org/2000/svg" version="1.1" viewBox="0 0 1080 1080">
  <!-- Generator: Adobe Illustrator 29.0.0, SVG Export Plug-In . SVG Version: 2.1.0 Build 186)  -->
  <defs>
    <style>
      .st0 {
        fill: #90c98c;
      }

      .st1 {
        fill: #fff;
      }
    </style>
  </defs>
  <path class="st1" d="M540,0h0c298.2,0,540,241.8,540,540h0c0,298.2-241.8,540-540,540h0C241.8,1080,0,838.2,0,540h0C0,241.8,241.8,0,540,0Z"/>
  <path d="M468.6,449.1c-18.1,0-35.3,5.5-50.3,15-15,10.2-26.6,24.3-33,40.9-7.1,16.4-8.6,34.6-4.8,52.6s11.8,33.8,24.3,46.4c12.5,12.5,29.1,21.2,46.4,25.2s35.3,1.6,51.8-4.8c16.6-6.3,30.7-18.9,40.9-33.8,10.2-15,15-32.3,15-50.3s-9.4-47.1-26.8-64.4c-17.3-16.6-40-26.6-63.6-26.6h0c0-.1,0-.1,0-.1ZM468.6,589c-9.4,0-18.9-3.2-26.6-7.8s-14.1-12.5-18.1-22-4.8-18.9-2.3-28.2c1.6-9.4,6.3-18,13.4-25.2,7.1-7.2,15.7-11.8,25.1-13.4,9.4-1.6,18.9-.9,28.2,2.3,9.4,3.2,16.4,10.2,22,18,5.6,7.8,7.8,17.3,7.8,27.5s-4.8,25.2-14.1,34.6c-9.4,8.6-21.2,14.1-34.6,14.1h-.9.1c0,.1,0,.2,0,.2Z"/>
  <path d="M672.8,449.1c-18,0-35.4,5.5-50.3,15-14.8,9.5-26.8,24.3-33,40.9-7.1,16.4-8.6,34.6-4.8,52.6s11.8,33.8,24.3,46.4c12.5,12.5,29.1,21.2,46.4,25.2,17.3,4,35.4,1.6,51.8-4.8,16.4-6.3,30.7-18.9,40.9-33.8,10.2-15,15-32.3,15-50.3s-9.4-47.1-26.8-64.4c-17.3-16.6-40-26.6-63.7-26.6h0c0-.1,0-.1,0-.1ZM672.8,589c-9.4,0-18.9-3.2-26.8-7.8s-14.1-12.5-18-22c-3.9-8.6-4.8-18.9-2.3-28.2,1.6-9.4,6.3-18,13.4-25.2,7.1-7.2,15.7-11.8,25.2-13.4,9.5-1.6,18.9-.9,28.2,2.3,9.4,3.2,16.4,10.2,22,18,5.6,7.8,7.8,17.3,7.8,27.5s-4.8,25.2-14.1,34.6c-9.4,8.6-21.2,14.1-34.6,14.1h-.9c0,.1,0,.2,0,.2Z"/>
  <path d="M371.1,450.7h-44.1l-20.5,66.8h43.2l21.2-66.8h.1,0Z"/>
  <path d="M269.9,514.2l22,51,7.8-25.9h43.2l-24.3,80.1c-1.6,6.3-7.8,10.2-14.1,10.2h-24.3c-6.3,0-11.8-3.9-14.1-9.4l-26.6-66-26.6,66c-2.3,5.5-7.8,9.4-14.1,9.4h-24.3c-6.3,0-12.5-3.9-14.1-10.2l-51.8-168.9h43.2l33.8,114.6,22.8-51.8c4.8-12.5,17.3-21.2,30.7-21.2s25.9,8.6,31.4,22h-.3c0,.1,0,.2,0,.2Z"/>
  <path class="st0" d="M858.8,491.5l-30.7-40.9h-54.1l58.2,76.2,26.8-35.4h-.1c0,.1,0,.1,0,.1Z"/>
  <path class="st0" d="M968.1,450.7h-54.1l-135.9,179.1h54.1l135.9-179.1h0Z"/>
  <path class="st0" d="M917.9,629.7l-30.7-40.9,26.8-35.4,58.2,76.2h-54.3c0,.1,0,.1,0,.1Z"/>
</svg>