<?xml version="1.0" encoding="UTF-8"?><svg id="Layer_1" xmlns="http://www.w3.org/2000/svg" width="1080" height="1080" viewBox="0 0 1080 1080"><circle cx="540" cy="540" r="540"/><path d="M322.98,183.805c-1.175,0-2.107-.934-2.107-2.112s.973-2.112,2.107-2.112,2.107.934,2.107,2.112-.932,2.112-2.107,2.112Z" style="fill:#5cffd1;"/><circle cx="322.979" cy="181.691" r="1.256" style="fill:#5cffd1;"/><path d="M348.512,183.805c-1.175,0-2.107-.934-2.107-2.112s.932-2.112,2.107-2.112,2.107.934,2.107,2.112-.973,2.112-2.107,2.112Z" style="fill:#5cffd1;"/><path d="M348.511,182.95c-.689,0-1.256-.569-1.256-1.259s.567-1.259,1.256-1.259,1.256.569,1.256,1.259-.567,1.259-1.256,1.259Z" style="fill:#5cffd1;"/><path d="M374.045,183.805c-1.175,0-2.107-.934-2.107-2.112s.932-2.112,2.107-2.112,2.107.934,2.107,2.112-.973,2.112-2.107,2.112Z" style="fill:#5cffd1;"/><circle cx="374.044" cy="181.691" r="1.256" style="fill:#5cffd1;"/><path d="M399.577,183.805c-1.175,0-2.107-.934-2.107-2.112s.932-2.112,2.107-2.112,2.107.934,2.107,2.112-.973,2.112-2.107,2.112Z" style="fill:#5cffd1;"/><circle cx="399.576" cy="181.691" r="1.256" style="fill:#5cffd1;"/><path d="M425.105,183.805c-1.175,0-2.107-.934-2.107-2.112s.973-2.112,2.107-2.112,2.107.934,2.107,2.112-.932,2.112-2.107,2.112Z" style="fill:#5cffd1;"/><path d="M425.108,182.95c-.689,0-1.256-.569-1.256-1.259s.567-1.259,1.256-1.259,1.256.569,1.256,1.259-.567,1.259-1.256,1.259Z" style="fill:#5cffd1;"/><path d="M450.637,183.805c-1.175,0-2.107-.934-2.107-2.112s.973-2.112,2.107-2.112,2.107.934,2.107,2.112-.932,2.112-2.107,2.112Z" style="fill:#5cffd1;"/><path d="M450.641,182.95c-.689,0-1.256-.569-1.256-1.259s.567-1.259,1.256-1.259,1.256.569,1.256,1.259-.567,1.259-1.256,1.259Z" style="fill:#5cffd1;"/><path d="M476.17,183.805c-1.175,0-2.107-.934-2.107-2.112s.932-2.112,2.107-2.112,2.107.934,2.107,2.112-.973,2.112-2.107,2.112Z" style="fill:#5cffd1;"/><path d="M476.173,182.95c-.689,0-1.256-.569-1.256-1.259s.567-1.259,1.256-1.259,1.256.569,1.256,1.259-.567,1.259-1.256,1.259Z" style="fill:#5cffd1;"/><path d="M501.702,183.805c-1.175,0-2.107-.934-2.107-2.112s.932-2.112,2.107-2.112,2.107.934,2.107,2.112-.973,2.112-2.107,2.112Z" style="fill:#5cffd1;"/><circle cx="501.701" cy="181.691" r="1.256" style="fill:#5cffd1;"/><path d="M527.234,183.805c-1.175,0-2.107-.934-2.107-2.112s.932-2.112,2.107-2.112,2.107.934,2.107,2.112-.973,2.112-2.107,2.112Z" style="fill:#5cffd1;"/><path d="M527.233,182.95c-.689,0-1.256-.569-1.256-1.259s.567-1.259,1.256-1.259,1.256.569,1.256,1.259-.567,1.259-1.256,1.259Z" style="fill:#5cffd1;"/><path d="M552.767,183.805c-1.175,0-2.107-.934-2.107-2.112s.973-2.112,2.107-2.112,2.107.934,2.107,2.112-.932,2.112-2.107,2.112Z" style="fill:#5cffd1;"/><path d="M552.766,182.95c-.689,0-1.256-.569-1.256-1.259s.567-1.259,1.256-1.259,1.256.569,1.256,1.259-.567,1.259-1.256,1.259Z" style="fill:#5cffd1;"/><path d="M578.299,183.805c-1.175,0-2.107-.934-2.107-2.112s.973-2.112,2.107-2.112,2.107.934,2.107,2.112-.932,2.112-2.107,2.112Z" style="fill:#5cffd1;"/><path d="M578.298,182.95c-.689,0-1.256-.569-1.256-1.259s.567-1.259,1.256-1.259,1.256.569,1.256,1.259-.567,1.259-1.256,1.259Z" style="fill:#5cffd1;"/><path d="M310.211,208.383c.627,0,1.135-.509,1.135-1.138s-.508-1.137-1.135-1.137-1.135.509-1.135,1.137.508,1.138,1.135,1.138Z" style="fill:#5cffd1;"/><path d="M310.211,208.383c.627,0,1.135-.509,1.135-1.138s-.508-1.137-1.135-1.137-1.135.509-1.135,1.137.508,1.138,1.135,1.138Z" style="fill:#5cffd1;"/><path d="M335.747,210.941c-2.026,0-3.688-1.666-3.688-3.697s1.662-3.697,3.688-3.697,3.688,1.666,3.688,3.697-1.662,3.697-3.688,3.697Z" style="fill:#5cffd1;"/><path d="M335.746,210.089c-1.54,0-2.837-1.259-2.837-2.844s1.256-2.844,2.837-2.844,2.837,1.259,2.837,2.844-1.256,2.844-2.837,2.844Z" style="fill:#5cffd1;"/><path d="M361.277,212.283c-2.756,0-5.025-2.275-5.025-5.037s2.27-5.037,5.025-5.037,5.025,2.275,5.025,5.037-2.27,5.037-5.025,5.037Z" style="fill:#5cffd1;"/><ellipse cx="361.276" cy="207.244" rx="4.174" ry="4.184" style="fill:#5cffd1;"/><path d="M386.81,212.283c-2.756,0-5.025-2.275-5.025-5.037s2.27-5.037,5.025-5.037,5.025,2.275,5.025,5.037-2.27,5.037-5.025,5.037Z" style="fill:#5cffd1;"/><ellipse cx="386.809" cy="207.244" rx="4.174" ry="4.184" style="fill:#5cffd1;"/><path d="M412.342,212.283c-2.756,0-5.025-2.275-5.025-5.037s2.27-5.037,5.025-5.037,5.025,2.275,5.025,5.037-2.27,5.037-5.025,5.037Z" style="fill:#5cffd1;"/><ellipse cx="412.341" cy="207.244" rx="4.174" ry="4.184" style="fill:#5cffd1;"/><path d="M437.874,212.283c-2.756,0-5.025-2.275-5.025-5.037s2.27-5.037,5.025-5.037,5.025,2.275,5.025,5.037-2.269,5.037-5.025,5.037Z" style="fill:#5cffd1;"/><ellipse cx="437.873" cy="207.244" rx="4.174" ry="4.184" style="fill:#5cffd1;"/><path d="M463.407,212.283c-2.756,0-5.025-2.275-5.025-5.037s2.27-5.037,5.025-5.037,5.025,2.275,5.025,5.037-2.269,5.037-5.025,5.037Z" style="fill:#5cffd1;"/><ellipse cx="463.406" cy="207.244" rx="4.174" ry="4.184" style="fill:#5cffd1;"/><path d="M488.935,212.283c-2.756,0-5.025-2.275-5.025-5.037s2.269-5.037,5.025-5.037,5.025,2.275,5.025,5.037-2.27,5.037-5.025,5.037Z" style="fill:#5cffd1;"/><ellipse cx="488.938" cy="207.244" rx="4.174" ry="4.184" style="fill:#5cffd1;"/><path d="M514.467,212.283c-2.756,0-5.025-2.275-5.025-5.037s2.269-5.037,5.025-5.037,5.025,2.275,5.025,5.037-2.27,5.037-5.025,5.037Z" style="fill:#5cffd1;"/><ellipse cx="514.47" cy="207.244" rx="4.174" ry="4.184" style="fill:#5cffd1;"/><path d="M539.999,212.283c-2.756,0-5.025-2.275-5.025-5.037s2.269-5.037,5.025-5.037,5.025,2.275,5.025,5.037-2.27,5.037-5.025,5.037Z" style="fill:#5cffd1;"/><path d="M540.003,211.429c-2.31,0-4.174-1.869-4.174-4.184s1.864-4.184,4.174-4.184,4.174,1.869,4.174,4.184-1.864,4.184-4.174,4.184Z" style="fill:#5cffd1;"/><path d="M565.532,212.283c-2.756,0-5.025-2.275-5.025-5.037s2.269-5.037,5.025-5.037,5.025,2.275,5.025,5.037-2.27,5.037-5.025,5.037Z" style="fill:#5cffd1;"/><ellipse cx="565.531" cy="207.244" rx="4.174" ry="4.184" style="fill:#5cffd1;"/><path d="M297.447,235.479c-1.459,0-2.634-1.178-2.634-2.6s1.175-2.6,2.634-2.6,2.594,1.178,2.594,2.6-1.175,2.6-2.594,2.6Z" style="fill:#5cffd1;"/><path d="M297.445,234.625c-.973,0-1.783-.772-1.783-1.787s.811-1.747,1.783-1.747,1.743.772,1.743,1.747-.811,1.787-1.743,1.787Z" style="fill:#5cffd1;"/><ellipse cx="322.98" cy="232.878" rx="5.147" ry="5.159" style="fill:#5cffd1;"/><path d="M322.979,237.185c-2.391,0-4.296-1.95-4.296-4.306s1.945-4.306,4.296-4.306,4.296,1.95,4.296,4.306-1.945,4.306-4.296,4.306Z" style="fill:#5cffd1;"/><ellipse cx="348.512" cy="232.879" rx="7.7" ry="7.719" style="fill:#5cffd1;"/><path d="M348.511,239.744c-3.769,0-6.849-3.087-6.849-6.866s3.08-6.866,6.849-6.866,6.849,3.087,6.849,6.866-3.08,6.866-6.849,6.866Z" style="fill:#5cffd1;"/><path d="M374.045,240.881c-4.417,0-7.984-3.615-7.984-8.003s3.566-8.003,7.984-8.003,7.984,3.575,7.984,8.003-3.566,8.003-7.984,8.003Z" style="fill:#5cffd1;"/><ellipse cx="374.043" cy="232.838" rx="7.133" ry="7.15" style="fill:#5cffd1;"/><path d="M399.577,240.881c-4.417,0-7.984-3.615-7.984-8.003s3.566-8.003,7.984-8.003,7.984,3.575,7.984,8.003-3.607,8.003-7.984,8.003Z" style="fill:#5cffd1;"/><ellipse cx="399.576" cy="232.838" rx="7.133" ry="7.15" style="fill:#5cffd1;"/><path d="M425.105,240.881c-4.417,0-7.984-3.615-7.984-8.003s3.607-8.003,7.984-8.003,7.984,3.575,7.984,8.003-3.566,8.003-7.984,8.003Z" style="fill:#5cffd1;"/><ellipse cx="425.108" cy="232.838" rx="7.133" ry="7.15" style="fill:#5cffd1;"/><path d="M450.637,240.881c-4.417,0-7.984-3.615-7.984-8.003s3.566-8.003,7.984-8.003,7.984,3.575,7.984,8.003-3.566,8.003-7.984,8.003Z" style="fill:#5cffd1;"/><ellipse cx="450.64" cy="232.838" rx="7.133" ry="7.15" style="fill:#5cffd1;"/><path d="M476.17,240.881c-4.417,0-7.984-3.615-7.984-8.003s3.566-8.003,7.984-8.003,7.984,3.575,7.984,8.003-3.566,8.003-7.984,8.003Z" style="fill:#5cffd1;"/><ellipse cx="476.173" cy="232.838" rx="7.133" ry="7.15" style="fill:#5cffd1;"/><path d="M501.702,240.881c-4.417,0-7.984-3.615-7.984-8.003s3.566-8.003,7.984-8.003,7.984,3.575,7.984,8.003-3.566,8.003-7.984,8.003Z" style="fill:#5cffd1;"/><ellipse cx="501.701" cy="232.838" rx="7.133" ry="7.15" style="fill:#5cffd1;"/><path d="M527.234,240.881c-4.417,0-7.984-3.615-7.984-8.003s3.566-8.003,7.984-8.003,7.984,3.575,7.984,8.003-3.607,8.003-7.984,8.003Z" style="fill:#5cffd1;"/><ellipse cx="527.233" cy="232.838" rx="7.133" ry="7.15" style="fill:#5cffd1;"/><path d="M552.767,240.881c-4.417,0-7.984-3.615-7.984-8.003s3.607-8.003,7.984-8.003,7.984,3.575,7.984,8.003-3.566,8.003-7.984,8.003Z" style="fill:#5cffd1;"/><ellipse cx="552.765" cy="232.838" rx="7.133" ry="7.15" style="fill:#5cffd1;"/><circle cx="284.681" cy="258.472" r="1.54" style="fill:#5cffd1;"/><path d="M284.68,259.163c-.405,0-.689-.325-.689-.691s.324-.691.689-.691.689.325.689.691-.324.691-.689.691Z" style="fill:#5cffd1;"/><path d="M310.212,262.535c-2.27,0-4.093-1.828-4.093-4.103s1.824-4.103,4.093-4.103,4.093,1.828,4.093,4.103-1.864,4.103-4.093,4.103Z" style="fill:#5cffd1;"/><ellipse cx="310.211" cy="258.471" rx="3.242" ry="3.25" style="fill:#5cffd1;"/><path d="M335.744,265.093c-3.688,0-6.646-3.006-6.646-6.662s2.999-6.662,6.646-6.662,6.646,3.006,6.646,6.662-2.999,6.662-6.646,6.662Z" style="fill:#5cffd1;"/><ellipse cx="335.747" cy="258.432" rx="5.795" ry="5.809" style="fill:#5cffd1;"/><path d="M361.275,267.653c-5.066,0-9.2-4.144-9.2-9.222s4.134-9.222,9.2-9.222,9.2,4.144,9.2,9.222-4.134,9.222-9.2,9.222Z" style="fill:#5cffd1;"/><path d="M361.278,266.799c-4.62,0-8.349-3.737-8.349-8.369s3.729-8.369,8.349-8.369,8.349,3.737,8.349,8.369-3.728,8.369-8.349,8.369Z" style="fill:#5cffd1;"/><path d="M386.81,269.359c-5.998,0-10.902-4.916-10.902-10.928s4.904-10.928,10.902-10.928,10.902,4.916,10.902,10.928-4.904,10.928-10.902,10.928Z" style="fill:#5cffd1;"/><ellipse cx="386.809" cy="258.433" rx="10.051" ry="10.075" style="fill:#5cffd1;"/><path d="M412.342,269.359c-5.998,0-10.902-4.916-10.902-10.928s4.904-10.928,10.902-10.928,10.902,4.916,10.902,10.928-4.904,10.928-10.902,10.928Z" style="fill:#5cffd1;"/><ellipse cx="412.341" cy="258.433" rx="10.051" ry="10.075" style="fill:#5cffd1;"/><path d="M437.874,269.359c-5.998,0-10.902-4.916-10.902-10.928s4.904-10.928,10.902-10.928,10.902,4.916,10.902,10.928-4.863,10.928-10.902,10.928Z" style="fill:#5cffd1;"/><ellipse cx="437.873" cy="258.433" rx="10.051" ry="10.075" style="fill:#5cffd1;"/><path d="M463.407,269.359c-5.998,0-10.902-4.916-10.902-10.928s4.904-10.928,10.902-10.928,10.902,4.916,10.902,10.928-4.904,10.928-10.902,10.928Z" style="fill:#5cffd1;"/><ellipse cx="463.406" cy="258.433" rx="10.051" ry="10.075" style="fill:#5cffd1;"/><path d="M488.939,269.359c-5.998,0-10.902-4.916-10.902-10.928s4.904-10.928,10.902-10.928,10.902,4.916,10.902,10.928-4.904,10.928-10.902,10.928Z" style="fill:#5cffd1;"/><ellipse cx="488.938" cy="258.433" rx="10.051" ry="10.075" style="fill:#5cffd1;"/><path d="M514.467,269.359c-5.998,0-10.902-4.916-10.902-10.928s4.904-10.928,10.902-10.928,10.902,4.916,10.902,10.928-4.904,10.928-10.902,10.928Z" style="fill:#5cffd1;"/><ellipse cx="514.47" cy="258.433" rx="10.051" ry="10.075" style="fill:#5cffd1;"/><path d="M539.999,269.359c-5.998,0-10.902-4.916-10.902-10.928s4.904-10.928,10.902-10.928,10.902,4.916,10.902,10.928-4.904,10.928-10.902,10.928Z" style="fill:#5cffd1;"/><ellipse cx="540.003" cy="258.433" rx="10.051" ry="10.075" style="fill:#5cffd1;"/><path d="M271.916,287.071c1.679,0,3.04-1.364,3.04-3.047s-1.361-3.047-3.04-3.047-3.04,1.364-3.04,3.047,1.361,3.047,3.04,3.047Z" style="fill:#5cffd1;"/><path d="M271.915,286.219c-1.216,0-2.188-.975-2.188-2.194s.973-2.194,2.188-2.194,2.188.975,2.188,2.194-.973,2.194-2.188,2.194Z" style="fill:#5cffd1;"/><path d="M297.447,289.631c-3.08,0-5.593-2.519-5.593-5.606s2.513-5.606,5.593-5.606,5.593,2.519,5.593,5.606-2.513,5.606-5.593,5.606Z" style="fill:#5cffd1;"/><path d="M297.446,288.777c-2.634,0-4.742-2.112-4.742-4.753s2.107-4.753,4.742-4.753,4.742,2.112,4.742,4.753-2.107,4.753-4.742,4.753Z" style="fill:#5cffd1;"/><ellipse cx="322.979" cy="284.024" rx="8.065" ry="8.084" style="fill:#5cffd1;"/><path d="M322.978,291.256c-3.972,0-7.214-3.25-7.214-7.231s3.242-7.231,7.214-7.231,7.214,3.25,7.214,7.231-3.242,7.231-7.214,7.231Z" style="fill:#5cffd1;"/><path d="M348.511,294.669c-5.836,0-10.618-4.753-10.618-10.644s4.782-10.644,10.618-10.644,10.618,4.753,10.618,10.644-4.782,10.644-10.618,10.644Z" style="fill:#5cffd1;"/><ellipse cx="348.51" cy="284.024" rx="9.767" ry="9.79" style="fill:#5cffd1;"/><path d="M259.148,311.528c-1.054,0-1.905-.853-1.905-1.909s.851-1.909,1.905-1.909,1.905.853,1.905,1.909-.851,1.909-1.905,1.909Z" style="fill:#5cffd1;"/><path d="M259.147,310.674c-.567,0-1.054-.488-1.054-1.056s.486-1.056,1.054-1.056,1.054.488,1.054,1.056-.486,1.056-1.054,1.056Z" style="fill:#5cffd1;"/><path d="M284.68,314.086c-2.472,0-4.458-1.991-4.458-4.469s1.986-4.469,4.458-4.469,4.458,1.991,4.458,4.469-1.986,4.469-4.458,4.469Z" style="fill:#5cffd1;"/><path d="M284.683,313.234c-1.986,0-3.607-1.625-3.607-3.616s1.621-3.616,3.607-3.616,3.607,1.625,3.607,3.616-1.621,3.616-3.607,3.616Z" style="fill:#5cffd1;"/><path d="M310.211,316.646c-3.85,0-7.011-3.169-7.011-7.028s3.161-7.028,7.011-7.028,7.011,3.128,7.011,7.028-3.121,7.028-7.011,7.028Z" style="fill:#5cffd1;"/><ellipse cx="310.214" cy="309.617" rx="6.16" ry="6.175" style="fill:#5cffd1;"/><path d="M335.747,319.207c-5.269,0-9.564-4.306-9.564-9.587s4.296-9.587,9.564-9.587,9.564,4.306,9.564,9.587-4.296,9.587-9.564,9.587Z" style="fill:#5cffd1;"/><path d="M246.384,338.624c-1.864,0-3.404-1.544-3.404-3.412s1.54-3.412,3.404-3.412,3.404,1.544,3.404,3.412-1.54,3.412-3.404,3.412Z" style="fill:#5cffd1;"/><path d="M246.382,337.77c-1.418,0-2.553-1.137-2.553-2.559s1.135-2.559,2.553-2.559,2.553,1.137,2.553,2.559-1.135,2.559-2.553,2.559Z" style="fill:#5cffd1;"/><ellipse cx="271.915" cy="335.213" rx="5.957" ry="5.972" style="fill:#5cffd1;"/><path d="M271.914,340.33c-2.796,0-5.106-2.275-5.106-5.119s2.27-5.119,5.106-5.119,5.106,2.275,5.106,5.119-2.27,5.119-5.106,5.119Z" style="fill:#5cffd1;"/><path d="M297.446,343.743c-4.701,0-8.511-3.819-8.511-8.491s3.81-8.49,8.511-8.49,8.47,3.819,8.47,8.49-3.81,8.491-8.47,8.491Z" style="fill:#5cffd1;"/><path d="M297.445,342.889c-4.215,0-7.66-3.453-7.66-7.637s3.445-7.637,7.66-7.637,7.619,3.412,7.619,7.637-3.445,7.637-7.619,7.637Z" style="fill:#5cffd1;"/><path d="M322.98,346.303c-6.079,0-11.023-4.956-11.023-11.05s4.944-11.05,11.023-11.05,11.023,4.956,11.023,11.05-4.944,11.05-11.023,11.05Z" style="fill:#5cffd1;"/><ellipse cx="233.615" cy="360.806" rx="2.351" ry="2.356" style="fill:#5cffd1;"/><path d="M233.619,362.308c-.811,0-1.499-.65-1.499-1.503s.648-1.462,1.499-1.462,1.459.65,1.459,1.462-.648,1.503-1.459,1.503Z" style="fill:#5cffd1;"/><path d="M259.151,365.721c-2.715,0-4.904-2.194-4.904-4.875s2.188-4.875,4.904-4.875,4.863,2.194,4.863,4.875-2.188,4.875-4.863,4.875Z" style="fill:#5cffd1;"/><path d="M259.15,364.866c-2.229,0-4.053-1.828-4.053-4.022s1.824-4.022,4.053-4.022,4.012,1.828,4.012,4.022-1.824,4.022-4.012,4.022Z" style="fill:#5cffd1;"/><ellipse cx="284.681" cy="360.847" rx="7.416" ry="7.434" style="fill:#5cffd1;"/><path d="M284.679,367.427c-3.647,0-6.565-2.966-6.565-6.581s2.958-6.581,6.565-6.581,6.565,2.966,6.565,6.581-2.958,6.581-6.565,6.581Z" style="fill:#5cffd1;"/><ellipse cx="310.212" cy="360.805" rx="9.97" ry="9.994" style="fill:#5cffd1;"/><path d="M310.215,369.946c-5.025,0-9.119-4.103-9.119-9.14s4.093-9.14,9.119-9.14,9.119,4.103,9.119,9.14-4.093,9.14-9.119,9.14Z" style="fill:#5cffd1;"/><ellipse cx="220.853" cy="386.44" rx="3.81" ry="3.819" style="fill:#5cffd1;"/><path d="M220.852,389.405c-1.621,0-2.958-1.341-2.958-2.966s1.337-2.966,2.958-2.966,2.958,1.341,2.958,2.966-1.337,2.966-2.958,2.966Z" style="fill:#5cffd1;"/><path d="M246.384,392.776c-3.526,0-6.363-2.844-6.363-6.378s2.877-6.378,6.363-6.378,6.363,2.844,6.363,6.378-2.877,6.378-6.363,6.378Z" style="fill:#5cffd1;"/><ellipse cx="246.383" cy="386.399" rx="5.512" ry="5.525" style="fill:#5cffd1;"/><path d="M271.916,395.336c-4.904,0-8.916-4.022-8.916-8.937s4.012-8.937,8.916-8.937,8.916,4.022,8.916,8.937-4.012,8.937-8.916,8.937Z" style="fill:#5cffd1;"/><ellipse cx="271.915" cy="386.398" rx="8.065" ry="8.084" style="fill:#5cffd1;"/><ellipse cx="297.447" cy="386.398" rx="11.469" ry="11.497" style="fill:#5cffd1;"/><path d="M208.085,414.754c-1.499,0-2.756-1.219-2.756-2.762s1.256-2.762,2.756-2.762,2.756,1.219,2.756,2.762-1.216,2.762-2.756,2.762Z" style="fill:#5cffd1;"/><ellipse cx="208.084" cy="411.992" rx="1.905" ry="1.909" style="fill:#5cffd1;"/><path d="M233.616,417.314c-2.918,0-5.309-2.397-5.309-5.322s2.391-5.322,5.309-5.322,5.309,2.397,5.309,5.322-2.391,5.322-5.309,5.322Z" style="fill:#5cffd1;"/><path d="M233.615,416.46c-2.472,0-4.458-1.991-4.458-4.469s1.986-4.469,4.458-4.469,4.458,1.991,4.458,4.469-1.986,4.469-4.458,4.469Z" style="fill:#5cffd1;"/><ellipse cx="259.148" cy="411.991" rx="7.862" ry="7.881" style="fill:#5cffd1;"/><path d="M259.151,419.02c-3.85,0-7.011-3.169-7.011-7.028s3.121-7.028,7.011-7.028,7.011,3.128,7.011,7.028-3.161,7.028-7.011,7.028Z" style="fill:#5cffd1;"/><ellipse cx="284.68" cy="411.992" rx="10.334" ry="10.359" style="fill:#5cffd1;"/><path d="M284.683,421.497c-5.228,0-9.483-4.266-9.483-9.506s4.255-9.506,9.483-9.506,9.483,4.266,9.483,9.506-4.255,9.506-9.483,9.506Z" style="fill:#5cffd1;"/><path d="M195.32,441.769c-2.31,0-4.174-1.869-4.174-4.184s1.864-4.184,4.174-4.184,4.174,1.869,4.174,4.184-1.864,4.184-4.174,4.184Z" style="fill:#5cffd1;"/><path d="M195.319,440.917c-1.824,0-3.323-1.503-3.323-3.331s1.5-3.331,3.323-3.331,3.323,1.503,3.323,3.331-1.499,3.331-3.323,3.331Z" style="fill:#5cffd1;"/><path d="M220.852,444.329c-3.728,0-6.727-3.006-6.727-6.744s2.999-6.744,6.727-6.744,6.727,3.006,6.727,6.744-2.999,6.744-6.727,6.744Z" style="fill:#5cffd1;"/><ellipse cx="220.851" cy="437.585" rx="5.876" ry="5.891" style="fill:#5cffd1;"/><path d="M246.383,446.888c-5.106,0-9.281-4.184-9.281-9.303s4.174-9.303,9.281-9.303,9.281,4.184,9.281,9.303-4.174,9.303-9.281,9.303Z" style="fill:#5cffd1;"/><ellipse cx="246.382" cy="437.586" rx="8.43" ry="8.45" style="fill:#5cffd1;"/><path d="M271.915,449.448c-6.525,0-11.834-5.322-11.834-11.862s5.309-11.862,11.834-11.862,11.834,5.322,11.834,11.862-5.309,11.862-11.834,11.862Z" style="fill:#5cffd1;"/><path d="M271.914,448.594c-6.039,0-10.983-4.916-10.983-11.009s4.904-11.009,10.983-11.009,10.983,4.916,10.983,11.009-4.904,11.009-10.983,11.009Z" style="fill:#5cffd1;"/><path d="M182.552,466.307c-1.702,0-3.121-1.381-3.121-3.128s1.378-3.128,3.121-3.128,3.121,1.381,3.121,3.128-1.378,3.128-3.121,3.128Z" style="fill:#5cffd1;"/><ellipse cx="182.551" cy="463.178" rx="2.27" ry="2.275" style="fill:#5cffd1;"/><path d="M208.084,468.865c-3.121,0-5.674-2.559-5.674-5.687s2.553-5.687,5.674-5.687,5.674,2.559,5.674,5.687-2.553,5.687-5.674,5.687Z" style="fill:#5cffd1;"/><path d="M208.087,468.013c-2.634,0-4.823-2.153-4.823-4.834s2.148-4.834,4.823-4.834,4.823,2.153,4.823,4.834-2.148,4.834-4.823,4.834Z" style="fill:#5cffd1;"/><path d="M233.615,471.426c-4.539,0-8.227-3.697-8.227-8.206s3.688-8.247,8.227-8.247,8.186,3.697,8.186,8.247-3.688,8.206-8.186,8.206Z" style="fill:#5cffd1;"/><path d="M233.618,470.572c-4.053,0-7.376-3.291-7.376-7.353s3.283-7.353,7.376-7.353,7.335,3.291,7.335,7.353-3.283,7.353-7.335,7.353Z" style="fill:#5cffd1;"/><path d="M259.151,473.984c-5.917,0-10.78-4.834-10.78-10.765s4.823-10.765,10.78-10.765,10.74,4.834,10.74,10.765-4.823,10.765-10.74,10.765Z" style="fill:#5cffd1;"/><path d="M259.148,473.132c-5.471,0-9.889-4.469-9.889-9.912s4.458-9.912,9.889-9.912,9.889,4.469,9.889,9.912-4.458,9.912-9.889,9.912Z" style="fill:#5cffd1;"/><path d="M169.788,493.404c-2.553,0-4.62-2.072-4.62-4.591s2.067-4.591,4.62-4.591,4.58,2.072,4.58,4.591-2.067,4.591-4.58,4.591Z" style="fill:#5cffd1;"/><path d="M169.789,492.55c-2.067,0-3.728-1.666-3.728-3.737s1.662-3.737,3.728-3.737,3.728,1.666,3.728,3.737-1.702,3.737-3.728,3.737Z" style="fill:#5cffd1;"/><path d="M195.321,495.962c-3.931,0-7.133-3.209-7.133-7.15s3.202-7.15,7.133-7.15,7.133,3.209,7.133,7.15-3.202,7.15-7.133,7.15Z" style="fill:#5cffd1;"/><path d="M195.32,495.11c-3.485,0-6.282-2.844-6.282-6.297s2.837-6.297,6.282-6.297,6.282,2.844,6.282,6.297-2.837,6.297-6.282,6.297Z" style="fill:#5cffd1;"/><ellipse cx="220.853" cy="488.813" rx="9.686" ry="9.709" style="fill:#5cffd1;"/><path d="M220.852,497.668c-4.863,0-8.835-3.981-8.835-8.856s3.972-8.856,8.835-8.856,8.835,3.981,8.835,8.856-3.972,8.856-8.835,8.856Z" style="fill:#5cffd1;"/><path d="M246.384,501.04c-6.768,0-12.239-5.525-12.239-12.269s5.512-12.269,12.239-12.269,12.239,5.525,12.239,12.269-5.512,12.269-12.239,12.269Z" style="fill:#5cffd1;"/><ellipse cx="246.383" cy="488.772" rx="11.388" ry="11.415" style="fill:#5cffd1;"/><ellipse cx="157.022" cy="514.405" rx="3.526" ry="3.534" style="fill:#5cffd1;"/><path d="M157.021,517.088c-1.5,0-2.675-1.219-2.675-2.681s1.216-2.681,2.675-2.681,2.675,1.219,2.675,2.681-1.216,2.681-2.675,2.681Z" style="fill:#5cffd1;"/><ellipse cx="182.553" cy="514.366" rx="6.079" ry="6.094" style="fill:#5cffd1;"/><ellipse cx="182.552" cy="514.364" rx="5.228" ry="5.241" style="fill:#5cffd1;"/><path d="M208.085,523.017c-4.742,0-8.632-3.9-8.632-8.653s3.891-8.653,8.632-8.653,8.632,3.9,8.632,8.653-3.891,8.653-8.632,8.653Z" style="fill:#5cffd1;"/><ellipse cx="208.083" cy="514.365" rx="7.781" ry="7.8" style="fill:#5cffd1;"/><path d="M233.616,525.578c-6.16,0-11.185-5.037-11.185-11.212s5.025-11.212,11.185-11.212,11.185,5.037,11.185,11.212-5.025,11.212-11.185,11.212Z" style="fill:#5cffd1;"/><ellipse cx="233.619" cy="514.366" rx="10.334" ry="10.359" style="fill:#5cffd1;"/><ellipse cx="144.255" cy="539.958" rx="4.255" ry="4.266" style="fill:#5cffd1;"/><path d="M144.254,543.372c1.88,0,3.404-1.528,3.404-3.412s-1.524-3.412-3.404-3.412-3.404,1.528-3.404,3.412,1.524,3.412,3.404,3.412Z" style="fill:#5cffd1;"/><path d="M169.787,546.784c-3.728,0-6.809-3.047-6.809-6.825s3.04-6.825,6.809-6.825,6.768,3.047,6.768,6.825-3.04,6.825-6.768,6.825Z" style="fill:#5cffd1;"/><path d="M169.786,545.93c-3.283,0-5.957-2.681-5.957-5.972s2.675-5.972,5.957-5.972,5.917,2.681,5.917,5.972-2.675,5.972-5.917,5.972Z" style="fill:#5cffd1;"/><path d="M195.318,549.342c-5.147,0-9.362-4.184-9.362-9.384s4.174-9.384,9.362-9.384,9.321,4.184,9.321,9.384-4.174,9.384-9.321,9.384Z" style="fill:#5cffd1;"/><path d="M195.319,548.491c-4.701,0-8.47-3.819-8.47-8.49s3.81-8.491,8.47-8.491,8.47,3.819,8.47,8.491-3.81,8.49-8.47,8.49Z" style="fill:#5cffd1;"/><path d="M220.852,551.903c-6.565,0-11.874-5.362-11.874-11.903s5.35-11.903,11.874-11.903,11.874,5.362,11.874,11.903-5.35,11.903-11.874,11.903Z" style="fill:#5cffd1;"/><path d="M220.851,551.049c-6.079,0-11.023-4.956-11.023-11.05s4.944-11.05,11.023-11.05,11.023,4.956,11.023,11.05-4.944,11.05-11.023,11.05Z" style="fill:#5cffd1;"/><ellipse cx="157.022" cy="565.592" rx="3.526" ry="3.534" style="fill:#5cffd1;"/><path d="M157.021,568.275c-1.5,0-2.675-1.219-2.675-2.681s1.216-2.681,2.675-2.681,2.675,1.219,2.675,2.681-1.216,2.681-2.675,2.681Z" style="fill:#5cffd1;"/><ellipse cx="182.553" cy="565.553" rx="6.079" ry="6.094" style="fill:#5cffd1;"/><path d="M182.552,570.792c-2.877,0-5.228-2.356-5.228-5.241s2.351-5.241,5.228-5.241,5.228,2.356,5.228,5.241-2.351,5.241-5.228,5.241Z" style="fill:#5cffd1;"/><path d="M208.085,574.204c-4.742,0-8.632-3.9-8.632-8.653s3.891-8.653,8.632-8.653,8.632,3.9,8.632,8.653-3.891,8.653-8.632,8.653Z" style="fill:#5cffd1;"/><ellipse cx="208.083" cy="565.552" rx="7.781" ry="7.8" style="fill:#5cffd1;"/><path d="M233.616,576.765c-6.16,0-11.185-5.037-11.185-11.212s5.025-11.212,11.185-11.212,11.185,5.037,11.185,11.212-5.025,11.212-11.185,11.212Z" style="fill:#5cffd1;"/><ellipse cx="233.619" cy="565.551" rx="10.334" ry="10.359" style="fill:#5cffd1;"/><path d="M169.788,595.778c-2.553,0-4.62-2.072-4.62-4.591s2.067-4.591,4.62-4.591,4.58,2.072,4.58,4.591-2.067,4.591-4.58,4.591Z" style="fill:#5cffd1;"/><path d="M169.789,594.924c-2.067,0-3.728-1.666-3.728-3.737s1.662-3.737,3.728-3.737,3.728,1.666,3.728,3.737-1.702,3.737-3.728,3.737Z" style="fill:#5cffd1;"/><path d="M195.321,598.336c-3.931,0-7.133-3.209-7.133-7.15s3.202-7.15,7.133-7.15,7.133,3.209,7.133,7.15-3.202,7.15-7.133,7.15Z" style="fill:#5cffd1;"/><path d="M195.32,597.484c-3.485,0-6.282-2.844-6.282-6.297s2.837-6.297,6.282-6.297,6.282,2.844,6.282,6.297-2.837,6.297-6.282,6.297Z" style="fill:#5cffd1;"/><ellipse cx="220.853" cy="591.187" rx="9.686" ry="9.709" style="fill:#5cffd1;"/><path d="M220.852,600.042c-4.863,0-8.835-3.981-8.835-8.856s3.972-8.856,8.835-8.856,8.835,3.981,8.835,8.856-3.972,8.856-8.835,8.856Z" style="fill:#5cffd1;"/><path d="M246.384,603.413c-6.768,0-12.239-5.484-12.239-12.269s5.512-12.269,12.239-12.269,12.239,5.525,12.239,12.269-5.512,12.269-12.239,12.269Z" style="fill:#5cffd1;"/><ellipse cx="246.383" cy="591.146" rx="11.388" ry="11.415" style="fill:#5cffd1;"/><path d="M182.552,619.866c-1.702,0-3.121-1.381-3.121-3.128s1.378-3.128,3.121-3.128,3.121,1.381,3.121,3.128-1.378,3.128-3.121,3.128Z" style="fill:#5cffd1;"/><path d="M182.551,619.014c-1.256,0-2.27-1.016-2.27-2.275s1.013-2.275,2.27-2.275,2.27,1.016,2.27,2.275-1.013,2.275-2.27,2.275Z" style="fill:#5cffd1;"/><path d="M208.084,622.426c-3.121,0-5.674-2.559-5.674-5.687s2.553-5.687,5.674-5.687,5.674,2.559,5.674,5.687-2.553,5.687-5.674,5.687Z" style="fill:#5cffd1;"/><path d="M208.087,621.574c-2.634,0-4.823-2.153-4.823-4.834s2.148-4.834,4.823-4.834,4.823,2.153,4.823,4.834-2.148,4.834-4.823,4.834Z" style="fill:#5cffd1;"/><path d="M233.615,624.985c-4.539,0-8.227-3.697-8.227-8.247s3.688-8.206,8.227-8.206,8.186,3.697,8.186,8.206-3.688,8.247-8.186,8.247Z" style="fill:#5cffd1;"/><path d="M233.618,624.133c-4.053,0-7.376-3.291-7.376-7.353s3.283-7.353,7.376-7.353,7.335,3.291,7.335,7.353-3.283,7.353-7.335,7.353Z" style="fill:#5cffd1;"/><path d="M259.151,627.545c-5.917,0-10.78-4.834-10.78-10.765s4.823-10.765,10.78-10.765,10.74,4.834,10.74,10.765-4.823,10.765-10.74,10.765Z" style="fill:#5cffd1;"/><path d="M259.148,626.691c-5.471,0-9.889-4.469-9.889-9.912s4.458-9.912,9.889-9.912,9.889,4.469,9.889,9.912-4.458,9.912-9.889,9.912Z" style="fill:#5cffd1;"/><ellipse cx="195.32" cy="642.333" rx="4.174" ry="4.184" style="fill:#5cffd1;"/><path d="M195.319,645.663c-1.824,0-3.323-1.503-3.323-3.331s1.5-3.331,3.323-3.331,3.323,1.503,3.323,3.331-1.499,3.331-3.323,3.331Z" style="fill:#5cffd1;"/><path d="M220.852,649.075c-3.728,0-6.727-3.006-6.727-6.744s2.999-6.744,6.727-6.744,6.727,3.006,6.727,6.744-2.999,6.744-6.727,6.744Z" style="fill:#5cffd1;"/><ellipse cx="220.851" cy="642.333" rx="5.876" ry="5.891" style="fill:#5cffd1;"/><ellipse cx="246.384" cy="642.368" rx="9.281" ry="9.303" style="fill:#5cffd1;"/><ellipse cx="246.382" cy="642.332" rx="8.43" ry="8.45" style="fill:#5cffd1;"/><path d="M271.915,654.194c-6.525,0-11.834-5.322-11.834-11.862s5.309-11.862,11.834-11.862,11.834,5.322,11.834,11.862-5.309,11.862-11.834,11.862Z" style="fill:#5cffd1;"/><path d="M271.914,653.342c-6.039,0-10.983-4.916-10.983-11.009s4.904-11.009,10.983-11.009,10.983,4.916,10.983,11.009-4.904,11.009-10.983,11.009Z" style="fill:#5cffd1;"/><path d="M208.085,670.689c-1.499,0-2.756-1.259-2.756-2.762s1.256-2.762,2.756-2.762,2.756,1.259,2.756,2.762-1.216,2.762-2.756,2.762Z" style="fill:#5cffd1;"/><path d="M208.084,669.835c-1.054,0-1.905-.853-1.905-1.909s.851-1.909,1.905-1.909,1.905.853,1.905,1.909-.851,1.909-1.905,1.909Z" style="fill:#5cffd1;"/><path d="M233.616,673.247c-2.918,0-5.309-2.397-5.309-5.322s2.391-5.322,5.309-5.322,5.309,2.397,5.309,5.322-2.391,5.322-5.309,5.322Z" style="fill:#5cffd1;"/><path d="M233.615,672.395c-2.472,0-4.458-1.991-4.458-4.469s1.986-4.469,4.458-4.469,4.458,1.991,4.458,4.469-1.986,4.469-4.458,4.469Z" style="fill:#5cffd1;"/><ellipse cx="259.148" cy="667.926" rx="7.862" ry="7.881" style="fill:#5cffd1;"/><path d="M259.151,674.953c-3.85,0-7.011-3.169-7.011-7.028s3.121-7.028,7.011-7.028,7.011,3.128,7.011,7.028-3.161,7.028-7.011,7.028Z" style="fill:#5cffd1;"/><ellipse cx="284.68" cy="667.925" rx="10.334" ry="10.359" style="fill:#5cffd1;"/><path d="M284.683,677.432c-5.228,0-9.483-4.266-9.483-9.506s4.255-9.506,9.483-9.506,9.483,4.266,9.483,9.506-4.255,9.506-9.483,9.506Z" style="fill:#5cffd1;"/><ellipse cx="220.853" cy="693.56" rx="3.81" ry="3.819" style="fill:#5cffd1;"/><path d="M220.852,696.524c-1.621,0-2.958-1.341-2.958-2.966s1.337-2.966,2.958-2.966,2.958,1.341,2.958,2.966-1.337,2.966-2.958,2.966Z" style="fill:#5cffd1;"/><path d="M246.384,699.898c-3.526,0-6.363-2.844-6.363-6.378s2.877-6.378,6.363-6.378,6.363,2.844,6.363,6.378-2.877,6.378-6.363,6.378Z" style="fill:#5cffd1;"/><ellipse cx="246.383" cy="693.519" rx="5.512" ry="5.525" style="fill:#5cffd1;"/><path d="M271.916,702.456c-4.904,0-8.916-4.022-8.916-8.937s4.012-8.937,8.916-8.937,8.916,4.022,8.916,8.937-4.012,8.937-8.916,8.937Z" style="fill:#5cffd1;"/><ellipse cx="271.915" cy="693.52" rx="8.065" ry="8.084" style="fill:#5cffd1;"/><path d="M297.447,705.016c-6.322,0-11.469-5.159-11.469-11.497s5.147-11.497,11.469-11.497,11.469,5.159,11.469,11.497-5.147,11.497-11.469,11.497Z" style="fill:#5cffd1;"/><path d="M297.446,704.162c-5.836,0-10.618-4.794-10.618-10.644s4.742-10.644,10.618-10.644,10.618,4.794,10.618,10.644-4.742,10.644-10.618,10.644Z" style="fill:#5cffd1;"/><path d="M233.615,721.469c1.298,0,2.351-1.055,2.351-2.356s-1.052-2.356-2.351-2.356-2.351,1.055-2.351,2.356,1.052,2.356,2.351,2.356Z" style="fill:#5cffd1;"/><path d="M233.619,720.615c-.811,0-1.499-.65-1.499-1.463s.648-1.503,1.499-1.503,1.459.65,1.459,1.503-.648,1.463-1.459,1.463Z" style="fill:#5cffd1;"/><path d="M259.151,724.027c-2.715,0-4.904-2.194-4.904-4.875s2.188-4.875,4.904-4.875,4.863,2.194,4.863,4.875-2.188,4.875-4.863,4.875Z" style="fill:#5cffd1;"/><path d="M259.15,723.175c-2.229,0-4.053-1.828-4.053-4.022s1.824-4.022,4.053-4.022,4.012,1.828,4.012,4.022-1.824,4.022-4.012,4.022Z" style="fill:#5cffd1;"/><ellipse cx="284.681" cy="719.153" rx="7.416" ry="7.434" style="fill:#5cffd1;"/><path d="M284.679,725.734c-3.647,0-6.565-2.966-6.565-6.581s2.958-6.581,6.565-6.581,6.565,2.966,6.565,6.581-2.958,6.581-6.565,6.581Z" style="fill:#5cffd1;"/><ellipse cx="310.212" cy="719.152" rx="9.97" ry="9.994" style="fill:#5cffd1;"/><path d="M310.215,728.253c-5.025,0-9.119-4.103-9.119-9.14s4.093-9.141,9.119-9.141,9.119,4.103,9.119,9.141-4.093,9.14-9.119,9.14Z" style="fill:#5cffd1;"/><path d="M246.384,748.118c-1.864,0-3.404-1.544-3.404-3.412s1.54-3.412,3.404-3.412,3.404,1.544,3.404,3.412-1.54,3.412-3.404,3.412Z" style="fill:#5cffd1;"/><path d="M246.382,747.266c-1.418,0-2.553-1.138-2.553-2.559s1.135-2.559,2.553-2.559,2.553,1.137,2.553,2.559-1.135,2.559-2.553,2.559Z" style="fill:#5cffd1;"/><ellipse cx="271.915" cy="744.706" rx="5.957" ry="5.972" style="fill:#5cffd1;"/><path d="M271.914,749.824c-2.796,0-5.106-2.275-5.106-5.119s2.27-5.119,5.106-5.119,5.106,2.275,5.106,5.119-2.27,5.119-5.106,5.119Z" style="fill:#5cffd1;"/><path d="M297.446,753.236c-4.701,0-8.511-3.819-8.511-8.531s3.81-8.531,8.511-8.531,8.47,3.819,8.47,8.531-3.81,8.531-8.47,8.531Z" style="fill:#5cffd1;"/><path d="M297.445,752.385c-4.215,0-7.66-3.412-7.66-7.637s3.445-7.637,7.66-7.637,7.619,3.453,7.619,7.637-3.445,7.637-7.619,7.637Z" style="fill:#5cffd1;"/><path d="M322.98,755.797c-6.079,0-11.023-4.956-11.023-11.05s4.944-11.05,11.023-11.05,11.023,4.956,11.023,11.05-4.944,11.05-11.023,11.05Z" style="fill:#5cffd1;"/><path d="M322.979,754.943c-5.633,0-10.172-4.591-10.172-10.197s4.58-10.197,10.172-10.197,10.172,4.591,10.172,10.197-4.58,10.197-10.172,10.197Z" style="fill:#5cffd1;"/><path d="M259.148,772.209c1.052,0,1.905-.855,1.905-1.909s-.853-1.909-1.905-1.909-1.905.855-1.905,1.909.853,1.909,1.905,1.909Z" style="fill:#5cffd1;"/><path d="M259.147,771.355c-.567,0-1.054-.488-1.054-1.056s.486-1.056,1.054-1.056,1.054.488,1.054,1.056-.486,1.056-1.054,1.056Z" style="fill:#5cffd1;"/><path d="M284.68,774.769c-2.472,0-4.458-1.991-4.458-4.469s1.986-4.469,4.458-4.469,4.458,1.991,4.458,4.469-1.986,4.469-4.458,4.469Z" style="fill:#5cffd1;"/><path d="M284.683,773.915c-1.986,0-3.607-1.625-3.607-3.616s1.621-3.616,3.607-3.616,3.607,1.625,3.607,3.616-1.621,3.616-3.607,3.616Z" style="fill:#5cffd1;"/><path d="M310.211,777.327c-3.85,0-7.011-3.128-7.011-7.028s3.161-7.028,7.011-7.028,7.011,3.169,7.011,7.028-3.121,7.028-7.011,7.028Z" style="fill:#5cffd1;"/><ellipse cx="310.214" cy="770.3" rx="6.16" ry="6.175" style="fill:#5cffd1;"/><ellipse cx="335.747" cy="770.3" rx="9.564" ry="9.587" style="fill:#5cffd1;"/><path d="M335.746,779.033c-4.782,0-8.713-3.9-8.713-8.734s3.891-8.734,8.713-8.734,8.713,3.9,8.713,8.734-3.891,8.734-8.713,8.734Z" style="fill:#5cffd1;"/><path d="M271.916,798.939c1.679,0,3.04-1.364,3.04-3.047s-1.361-3.047-3.04-3.047-3.04,1.364-3.04,3.047,1.361,3.047,3.04,3.047Z" style="fill:#5cffd1;"/><path d="M271.915,798.087c-1.216,0-2.188-.975-2.188-2.194s.973-2.194,2.188-2.194,2.188.975,2.188,2.194-.973,2.194-2.188,2.194Z" style="fill:#5cffd1;"/><path d="M297.447,801.499c-3.08,0-5.593-2.519-5.593-5.606s2.513-5.606,5.593-5.606,5.593,2.519,5.593,5.606-2.513,5.606-5.593,5.606Z" style="fill:#5cffd1;"/><path d="M297.446,800.645c-2.634,0-4.742-2.112-4.742-4.753s2.107-4.753,4.742-4.753,4.742,2.112,4.742,4.753-2.107,4.753-4.742,4.753Z" style="fill:#5cffd1;"/><ellipse cx="322.979" cy="795.892" rx="8.065" ry="8.084" style="fill:#5cffd1;"/><path d="M322.978,803.124c-3.972,0-7.214-3.25-7.214-7.231s3.242-7.231,7.214-7.231,7.214,3.25,7.214,7.231-3.242,7.231-7.214,7.231Z" style="fill:#5cffd1;"/><path d="M348.511,806.536c-5.836,0-10.618-4.794-10.618-10.644s4.782-10.644,10.618-10.644,10.618,4.753,10.618,10.644-4.782,10.644-10.618,10.644Z" style="fill:#5cffd1;"/><ellipse cx="348.51" cy="795.892" rx="9.767" ry="9.791" style="fill:#5cffd1;"/><path d="M284.681,823.07c-.851,0-1.54-.691-1.54-1.544s.689-1.544,1.54-1.544,1.54.691,1.54,1.544-.689,1.544-1.54,1.544Z" style="fill:#5cffd1;"/><path d="M284.68,822.218c-.405,0-.689-.325-.689-.691s.324-.691.689-.691.689.325.689.691-.324.691-.689.691Z" style="fill:#5cffd1;"/><path d="M310.212,825.63c-2.27,0-4.093-1.828-4.093-4.103s1.824-4.103,4.093-4.103,4.093,1.828,4.093,4.103-1.864,4.103-4.093,4.103Z" style="fill:#5cffd1;"/><ellipse cx="310.211" cy="821.526" rx="3.242" ry="3.25" style="fill:#5cffd1;"/><path d="M335.744,828.148c-3.688,0-6.646-3.006-6.646-6.662s2.999-6.662,6.646-6.662,6.646,3.006,6.646,6.662-2.999,6.662-6.646,6.662Z" style="fill:#5cffd1;"/><path d="M335.747,827.296c-3.202,0-5.795-2.6-5.795-5.809s2.594-5.809,5.795-5.809,5.795,2.6,5.795,5.809-2.594,5.809-5.795,5.809Z" style="fill:#5cffd1;"/><path d="M361.275,830.708c-5.066,0-9.2-4.144-9.2-9.222s4.134-9.222,9.2-9.222,9.2,4.144,9.2,9.222-4.134,9.222-9.2,9.222Z" style="fill:#5cffd1;"/><path d="M361.278,829.854c-4.62,0-8.349-3.737-8.349-8.369s3.729-8.369,8.349-8.369,8.349,3.737,8.349,8.369-3.728,8.369-8.349,8.369Z" style="fill:#5cffd1;"/><path d="M386.81,832.414c-5.998,0-10.902-4.916-10.902-10.928s4.904-10.928,10.902-10.928,10.902,4.916,10.902,10.928-4.904,10.928-10.902,10.928Z" style="fill:#5cffd1;"/><ellipse cx="386.809" cy="821.485" rx="10.051" ry="10.075" style="fill:#5cffd1;"/><path d="M412.342,832.414c-5.998,0-10.902-4.916-10.902-10.928s4.904-10.928,10.902-10.928,10.902,4.916,10.902,10.928-4.904,10.928-10.902,10.928Z" style="fill:#5cffd1;"/><ellipse cx="412.341" cy="821.485" rx="10.051" ry="10.075" style="fill:#5cffd1;"/><path d="M437.874,832.414c-5.998,0-10.902-4.916-10.902-10.928s4.904-10.928,10.902-10.928,10.902,4.916,10.902,10.928-4.863,10.928-10.902,10.928Z" style="fill:#5cffd1;"/><ellipse cx="437.873" cy="821.485" rx="10.051" ry="10.075" style="fill:#5cffd1;"/><path d="M463.407,832.414c-5.998,0-10.902-4.916-10.902-10.928s4.904-10.928,10.902-10.928,10.902,4.916,10.902,10.928-4.904,10.928-10.902,10.928Z" style="fill:#5cffd1;"/><ellipse cx="463.406" cy="821.485" rx="10.051" ry="10.075" style="fill:#5cffd1;"/><path d="M488.939,832.414c-5.998,0-10.902-4.916-10.902-10.928s4.904-10.928,10.902-10.928,10.902,4.916,10.902,10.928-4.904,10.928-10.902,10.928Z" style="fill:#5cffd1;"/><ellipse cx="488.938" cy="821.485" rx="10.051" ry="10.075" style="fill:#5cffd1;"/><path d="M514.467,832.414c-5.998,0-10.902-4.916-10.902-10.928s4.904-10.928,10.902-10.928,10.902,4.916,10.902,10.928-4.904,10.928-10.902,10.928Z" style="fill:#5cffd1;"/><ellipse cx="514.47" cy="821.485" rx="10.051" ry="10.075" style="fill:#5cffd1;"/><path d="M539.999,832.414c-5.998,0-10.902-4.916-10.902-10.928s4.904-10.928,10.902-10.928,10.902,4.916,10.902,10.928-4.904,10.928-10.902,10.928Z" style="fill:#5cffd1;"/><ellipse cx="540.003" cy="821.485" rx="10.051" ry="10.075" style="fill:#5cffd1;"/><path d="M297.447,849.721c-1.459,0-2.634-1.178-2.634-2.6s1.175-2.6,2.634-2.6,2.594,1.178,2.594,2.6-1.175,2.6-2.594,2.6Z" style="fill:#5cffd1;"/><path d="M297.445,848.867c-.973,0-1.783-.772-1.783-1.747s.811-1.788,1.783-1.788,1.743.772,1.743,1.788-.811,1.747-1.743,1.747Z" style="fill:#5cffd1;"/><ellipse cx="322.98" cy="847.12" rx="5.147" ry="5.159" style="fill:#5cffd1;"/><path d="M322.979,851.427c-2.391,0-4.296-1.95-4.296-4.306s1.945-4.306,4.296-4.306,4.296,1.95,4.296,4.306-1.945,4.306-4.296,4.306Z" style="fill:#5cffd1;"/><ellipse cx="348.512" cy="847.121" rx="7.7" ry="7.719" style="fill:#5cffd1;"/><path d="M348.511,853.985c-3.769,0-6.849-3.087-6.849-6.866s3.08-6.866,6.849-6.866,6.849,3.087,6.849,6.866-3.08,6.866-6.849,6.866Z" style="fill:#5cffd1;"/><path d="M374.045,855.123c-4.417,0-7.984-3.575-7.984-8.003s3.566-8.003,7.984-8.003,7.984,3.616,7.984,8.003-3.566,8.003-7.984,8.003Z" style="fill:#5cffd1;"/><path d="M374.043,854.23c3.939,0,7.133-3.201,7.133-7.15s-3.193-7.15-7.133-7.15-7.133,3.201-7.133,7.15,3.193,7.15,7.133,7.15Z" style="fill:#5cffd1;"/><path d="M399.577,855.123c-4.417,0-7.984-3.575-7.984-8.003s3.566-8.003,7.984-8.003,7.984,3.616,7.984,8.003-3.607,8.003-7.984,8.003Z" style="fill:#5cffd1;"/><path d="M399.576,854.23c3.939,0,7.133-3.201,7.133-7.15s-3.193-7.15-7.133-7.15-7.133,3.201-7.133,7.15,3.193,7.15,7.133,7.15Z" style="fill:#5cffd1;"/><path d="M425.105,855.123c-4.417,0-7.984-3.575-7.984-8.003s3.607-8.003,7.984-8.003,7.984,3.616,7.984,8.003-3.566,8.003-7.984,8.003Z" style="fill:#5cffd1;"/><path d="M425.108,854.23c3.939,0,7.133-3.201,7.133-7.15s-3.193-7.15-7.133-7.15-7.133,3.201-7.133,7.15,3.193,7.15,7.133,7.15Z" style="fill:#5cffd1;"/><path d="M450.637,855.123c-4.417,0-7.984-3.575-7.984-8.003s3.566-8.003,7.984-8.003,7.984,3.616,7.984,8.003-3.566,8.003-7.984,8.003Z" style="fill:#5cffd1;"/><path d="M450.64,854.23c3.939,0,7.133-3.201,7.133-7.15s-3.193-7.15-7.133-7.15-7.133,3.201-7.133,7.15,3.193,7.15,7.133,7.15Z" style="fill:#5cffd1;"/><path d="M476.17,855.123c-4.417,0-7.984-3.575-7.984-8.003s3.566-8.003,7.984-8.003,7.984,3.616,7.984,8.003-3.566,8.003-7.984,8.003Z" style="fill:#5cffd1;"/><path d="M476.173,854.23c3.939,0,7.133-3.201,7.133-7.15s-3.193-7.15-7.133-7.15-7.133,3.201-7.133,7.15,3.193,7.15,7.133,7.15Z" style="fill:#5cffd1;"/><path d="M501.702,855.123c-4.417,0-7.984-3.575-7.984-8.003s3.566-8.003,7.984-8.003,7.984,3.616,7.984,8.003-3.566,8.003-7.984,8.003Z" style="fill:#5cffd1;"/><path d="M501.701,854.23c3.939,0,7.133-3.201,7.133-7.15s-3.193-7.15-7.133-7.15-7.133,3.201-7.133,7.15,3.193,7.15,7.133,7.15Z" style="fill:#5cffd1;"/><path d="M527.234,855.123c-4.417,0-7.984-3.575-7.984-8.003s3.566-8.003,7.984-8.003,7.984,3.616,7.984,8.003-3.607,8.003-7.984,8.003Z" style="fill:#5cffd1;"/><path d="M527.233,854.23c3.939,0,7.133-3.201,7.133-7.15s-3.193-7.15-7.133-7.15-7.133,3.201-7.133,7.15,3.193,7.15,7.133,7.15Z" style="fill:#5cffd1;"/><path d="M552.767,855.123c-4.417,0-7.984-3.575-7.984-8.003s3.607-8.003,7.984-8.003,7.984,3.616,7.984,8.003-3.566,8.003-7.984,8.003Z" style="fill:#5cffd1;"/><path d="M552.765,854.23c3.939,0,7.133-3.201,7.133-7.15s-3.193-7.15-7.133-7.15-7.133,3.201-7.133,7.15,3.193,7.15,7.133,7.15Z" style="fill:#5cffd1;"/><circle cx="310.211" cy="872.672" r="1.135" style="fill:#5cffd1;"/><circle cx="310.211" cy="872.672" r="1.135" style="fill:#5cffd1;"/><path d="M335.747,876.37c-2.026,0-3.688-1.666-3.688-3.697s1.662-3.697,3.688-3.697,3.688,1.666,3.688,3.697-1.662,3.697-3.688,3.697Z" style="fill:#5cffd1;"/><path d="M335.746,875.516c-1.54,0-2.837-1.259-2.837-2.844s1.256-2.844,2.837-2.844,2.837,1.259,2.837,2.844-1.256,2.844-2.837,2.844Z" style="fill:#5cffd1;"/><path d="M361.277,877.71c-2.756,0-5.025-2.275-5.025-5.037s2.27-5.037,5.025-5.037,5.025,2.275,5.025,5.037-2.27,5.037-5.025,5.037Z" style="fill:#5cffd1;"/><path d="M361.276,876.858c-2.31,0-4.174-1.869-4.174-4.184s1.864-4.184,4.174-4.184,4.174,1.869,4.174,4.184-1.864,4.184-4.174,4.184Z" style="fill:#5cffd1;"/><path d="M386.81,877.71c-2.756,0-5.025-2.275-5.025-5.037s2.27-5.037,5.025-5.037,5.025,2.275,5.025,5.037-2.27,5.037-5.025,5.037Z" style="fill:#5cffd1;"/><path d="M386.809,876.858c-2.31,0-4.174-1.869-4.174-4.184s1.864-4.184,4.174-4.184,4.174,1.869,4.174,4.184-1.864,4.184-4.174,4.184Z" style="fill:#5cffd1;"/><path d="M412.342,877.71c-2.756,0-5.025-2.275-5.025-5.037s2.27-5.037,5.025-5.037,5.025,2.275,5.025,5.037-2.27,5.037-5.025,5.037Z" style="fill:#5cffd1;"/><path d="M412.341,876.858c-2.31,0-4.174-1.869-4.174-4.184s1.864-4.184,4.174-4.184,4.174,1.869,4.174,4.184-1.864,4.184-4.174,4.184Z" style="fill:#5cffd1;"/><path d="M437.874,877.71c-2.756,0-5.025-2.275-5.025-5.037s2.27-5.037,5.025-5.037,5.025,2.275,5.025,5.037-2.269,5.037-5.025,5.037Z" style="fill:#5cffd1;"/><path d="M437.873,876.858c-2.31,0-4.174-1.869-4.174-4.184s1.864-4.184,4.174-4.184,4.174,1.869,4.174,4.184-1.864,4.184-4.174,4.184Z" style="fill:#5cffd1;"/><path d="M463.407,877.71c-2.756,0-5.025-2.275-5.025-5.037s2.27-5.037,5.025-5.037,5.025,2.275,5.025,5.037-2.269,5.037-5.025,5.037Z" style="fill:#5cffd1;"/><path d="M463.406,876.858c-2.31,0-4.174-1.869-4.174-4.184s1.864-4.184,4.174-4.184,4.174,1.869,4.174,4.184-1.864,4.184-4.174,4.184Z" style="fill:#5cffd1;"/><path d="M488.935,877.71c-2.756,0-5.025-2.275-5.025-5.037s2.269-5.037,5.025-5.037,5.025,2.275,5.025,5.037-2.27,5.037-5.025,5.037Z" style="fill:#5cffd1;"/><path d="M488.938,876.858c-2.31,0-4.174-1.869-4.174-4.184s1.864-4.184,4.174-4.184,4.174,1.869,4.174,4.184-1.864,4.184-4.174,4.184Z" style="fill:#5cffd1;"/><path d="M514.467,877.71c-2.756,0-5.025-2.275-5.025-5.037s2.269-5.037,5.025-5.037,5.025,2.275,5.025,5.037-2.27,5.037-5.025,5.037Z" style="fill:#5cffd1;"/><path d="M514.47,876.858c-2.31,0-4.174-1.869-4.174-4.184s1.864-4.184,4.174-4.184,4.174,1.869,4.174,4.184-1.864,4.184-4.174,4.184Z" style="fill:#5cffd1;"/><path d="M539.999,877.71c-2.756,0-5.025-2.275-5.025-5.037s2.269-5.037,5.025-5.037,5.025,2.275,5.025,5.037-2.27,5.037-5.025,5.037Z" style="fill:#5cffd1;"/><path d="M540.003,876.858c-2.31,0-4.174-1.869-4.174-4.184s1.864-4.184,4.174-4.184,4.174,1.869,4.174,4.184-1.864,4.184-4.174,4.184Z" style="fill:#5cffd1;"/><path d="M565.532,877.71c-2.756,0-5.025-2.275-5.025-5.037s2.269-5.037,5.025-5.037,5.025,2.275,5.025,5.037-2.27,5.037-5.025,5.037Z" style="fill:#5cffd1;"/><path d="M565.531,876.858c-2.31,0-4.174-1.869-4.174-4.184s1.864-4.184,4.174-4.184,4.174,1.869,4.174,4.184-1.864,4.184-4.174,4.184Z" style="fill:#5cffd1;"/><path d="M322.98,900.42c-1.175,0-2.107-.934-2.107-2.112s.973-2.112,2.107-2.112,2.107.934,2.107,2.112-.932,2.112-2.107,2.112Z" style="fill:#5cffd1;"/><circle cx="322.979" cy="898.307" r="1.256" style="fill:#5cffd1;"/><path d="M348.512,900.42c-1.175,0-2.107-.934-2.107-2.112s.932-2.112,2.107-2.112,2.107.934,2.107,2.112-.973,2.112-2.107,2.112Z" style="fill:#5cffd1;"/><path d="M348.511,899.566c-.689,0-1.256-.569-1.256-1.259s.567-1.259,1.256-1.259,1.256.569,1.256,1.259-.567,1.259-1.256,1.259Z" style="fill:#5cffd1;"/><path d="M374.045,900.42c-1.175,0-2.107-.934-2.107-2.112s.932-2.112,2.107-2.112,2.107.934,2.107,2.112-.973,2.112-2.107,2.112Z" style="fill:#5cffd1;"/><circle cx="374.044" cy="898.307" r="1.256" style="fill:#5cffd1;"/><path d="M399.577,900.42c-1.175,0-2.107-.934-2.107-2.112s.932-2.112,2.107-2.112,2.107.934,2.107,2.112-.973,2.112-2.107,2.112Z" style="fill:#5cffd1;"/><circle cx="399.576" cy="898.307" r="1.256" style="fill:#5cffd1;"/><path d="M425.105,900.42c-1.175,0-2.107-.934-2.107-2.112s.973-2.112,2.107-2.112,2.107.934,2.107,2.112-.932,2.112-2.107,2.112Z" style="fill:#5cffd1;"/><path d="M425.108,899.566c-.689,0-1.256-.569-1.256-1.259s.567-1.259,1.256-1.259,1.256.569,1.256,1.259-.567,1.259-1.256,1.259Z" style="fill:#5cffd1;"/><path d="M450.637,900.42c-1.175,0-2.107-.934-2.107-2.112s.973-2.112,2.107-2.112,2.107.934,2.107,2.112-.932,2.112-2.107,2.112Z" style="fill:#5cffd1;"/><path d="M450.641,899.566c-.689,0-1.256-.569-1.256-1.259s.567-1.259,1.256-1.259,1.256.569,1.256,1.259-.567,1.259-1.256,1.259Z" style="fill:#5cffd1;"/><path d="M476.17,900.42c-1.175,0-2.107-.934-2.107-2.112s.932-2.112,2.107-2.112,2.107.934,2.107,2.112-.973,2.112-2.107,2.112Z" style="fill:#5cffd1;"/><path d="M476.173,899.566c-.689,0-1.256-.569-1.256-1.259s.567-1.259,1.256-1.259,1.256.569,1.256,1.259-.567,1.259-1.256,1.259Z" style="fill:#5cffd1;"/><path d="M501.702,900.42c-1.175,0-2.107-.934-2.107-2.112s.932-2.112,2.107-2.112,2.107.934,2.107,2.112-.973,2.112-2.107,2.112Z" style="fill:#5cffd1;"/><circle cx="501.701" cy="898.307" r="1.256" style="fill:#5cffd1;"/><path d="M527.234,900.42c-1.175,0-2.107-.934-2.107-2.112s.932-2.112,2.107-2.112,2.107.934,2.107,2.112-.973,2.112-2.107,2.112Z" style="fill:#5cffd1;"/><path d="M527.233,899.566c-.689,0-1.256-.569-1.256-1.259s.567-1.259,1.256-1.259,1.256.569,1.256,1.259-.567,1.259-1.256,1.259Z" style="fill:#5cffd1;"/><path d="M552.767,900.42c-1.175,0-2.107-.934-2.107-2.112s.973-2.112,2.107-2.112,2.107.934,2.107,2.112-.932,2.112-2.107,2.112Z" style="fill:#5cffd1;"/><path d="M552.766,899.566c-.689,0-1.256-.569-1.256-1.259s.567-1.259,1.256-1.259,1.256.569,1.256,1.259-.567,1.259-1.256,1.259Z" style="fill:#5cffd1;"/><path d="M578.299,900.42c-1.175,0-2.107-.934-2.107-2.112s.973-2.112,2.107-2.112,2.107.934,2.107,2.112-.932,2.112-2.107,2.112Z" style="fill:#5cffd1;"/><path d="M578.298,899.566c-.689,0-1.256-.569-1.256-1.259s.567-1.259,1.256-1.259,1.256.569,1.256,1.259-.567,1.259-1.256,1.259Z" style="fill:#5cffd1;"/><path d="M757.021,183.805c-1.175,0-2.107-.934-2.107-2.112s.932-2.112,2.107-2.112,2.107.934,2.107,2.112-.973,2.112-2.107,2.112Z" style="fill:#5cffd1;"/><circle cx="757.024" cy="181.691" r="1.256" style="fill:#5cffd1;"/><path d="M731.489,183.805c-1.175,0-2.107-.934-2.107-2.112s.932-2.112,2.107-2.112,2.107.934,2.107,2.112-.973,2.112-2.107,2.112Z" style="fill:#5cffd1;"/><circle cx="731.492" cy="181.691" r="1.256" style="fill:#5cffd1;"/><path d="M705.961,183.805c-1.175,0-2.107-.934-2.107-2.112s.973-2.112,2.107-2.112,2.107.934,2.107,2.112-.932,2.112-2.107,2.112Z" style="fill:#5cffd1;"/><path d="M705.96,182.95c-.689,0-1.256-.569-1.256-1.259s.567-1.259,1.256-1.259,1.256.569,1.256,1.259-.567,1.259-1.256,1.259Z" style="fill:#5cffd1;"/><path d="M680.428,183.805c-1.175,0-2.107-.934-2.107-2.112s.973-2.112,2.107-2.112,2.107.934,2.107,2.112-.932,2.112-2.107,2.112Z" style="fill:#5cffd1;"/><path d="M680.427,182.95c-.689,0-1.256-.569-1.256-1.259s.567-1.259,1.256-1.259,1.256.569,1.256,1.259-.567,1.259-1.256,1.259Z" style="fill:#5cffd1;"/><path d="M654.896,183.805c-1.175,0-2.107-.934-2.107-2.112s.932-2.112,2.107-2.112,2.107.934,2.107,2.112-.973,2.112-2.107,2.112Z" style="fill:#5cffd1;"/><path d="M654.895,182.95c-.689,0-1.256-.569-1.256-1.259s.567-1.259,1.256-1.259,1.256.569,1.256,1.259-.567,1.259-1.256,1.259Z" style="fill:#5cffd1;"/><path d="M629.364,183.805c-1.175,0-2.107-.934-2.107-2.112s.932-2.112,2.107-2.112,2.107.934,2.107,2.112-.973,2.112-2.107,2.112Z" style="fill:#5cffd1;"/><path d="M629.363,182.95c-.689,0-1.256-.569-1.256-1.259s.567-1.259,1.256-1.259,1.256.569,1.256,1.259-.567,1.259-1.256,1.259Z" style="fill:#5cffd1;"/><path d="M603.831,183.805c-1.175,0-2.107-.934-2.107-2.112s.932-2.112,2.107-2.112,2.107.934,2.107,2.112-.973,2.112-2.107,2.112Z" style="fill:#5cffd1;"/><path d="M603.83,182.95c-.689,0-1.256-.569-1.256-1.259s.567-1.259,1.256-1.259,1.256.569,1.256,1.259-.567,1.259-1.256,1.259Z" style="fill:#5cffd1;"/><path d="M578.299,183.805c-1.175,0-2.107-.934-2.107-2.112s.973-2.112,2.107-2.112,2.107.934,2.107,2.112-.932,2.112-2.107,2.112Z" style="fill:#5cffd1;"/><path d="M578.298,182.95c-.689,0-1.256-.569-1.256-1.259s.567-1.259,1.256-1.259,1.256.569,1.256,1.259-.567,1.259-1.256,1.259Z" style="fill:#5cffd1;"/><path d="M552.767,183.805c-1.175,0-2.107-.934-2.107-2.112s.973-2.112,2.107-2.112,2.107.934,2.107,2.112-.932,2.112-2.107,2.112Z" style="fill:#5cffd1;"/><path d="M552.766,182.95c-.689,0-1.256-.569-1.256-1.259s.567-1.259,1.256-1.259,1.256.569,1.256,1.259-.567,1.259-1.256,1.259Z" style="fill:#5cffd1;"/><path d="M527.234,183.805c-1.175,0-2.107-.934-2.107-2.112s.932-2.112,2.107-2.112,2.107.934,2.107,2.112-.932,2.112-2.107,2.112Z" style="fill:#5cffd1;"/><path d="M527.233,182.95c-.689,0-1.256-.569-1.256-1.259s.567-1.259,1.256-1.259,1.256.569,1.256,1.259-.567,1.259-1.256,1.259Z" style="fill:#5cffd1;"/><path d="M501.702,183.805c-1.175,0-2.107-.934-2.107-2.112s.932-2.112,2.107-2.112,2.107.934,2.107,2.112-.973,2.112-2.107,2.112Z" style="fill:#5cffd1;"/><circle cx="501.701" cy="181.691" r="1.256" style="fill:#5cffd1;"/><path d="M769.789,208.383c-.608,0-1.135-.488-1.135-1.138s.486-1.137,1.135-1.137,1.135.488,1.135,1.137-.486,1.138-1.135,1.138Z" style="fill:#5cffd1;"/><path d="M769.789,208.383c-.608,0-1.135-.488-1.135-1.138s.486-1.137,1.135-1.137,1.135.488,1.135,1.137-.486,1.138-1.135,1.138Z" style="fill:#5cffd1;"/><path d="M744.256,210.941c-2.026,0-3.688-1.666-3.688-3.697s1.662-3.697,3.688-3.697,3.688,1.666,3.688,3.697-1.662,3.697-3.688,3.697Z" style="fill:#5cffd1;"/><path d="M744.255,210.089c-1.54,0-2.837-1.259-2.837-2.844s1.256-2.844,2.837-2.844,2.837,1.259,2.837,2.844-1.256,2.844-2.837,2.844Z" style="fill:#5cffd1;"/><path d="M718.726,212.283c-2.756,0-5.025-2.275-5.025-5.037s2.27-5.037,5.025-5.037,5.025,2.275,5.025,5.037-2.269,5.037-5.025,5.037Z" style="fill:#5cffd1;"/><path d="M718.725,211.429c-2.31,0-4.174-1.869-4.174-4.184s1.864-4.184,4.174-4.184,4.174,1.869,4.174,4.184-1.864,4.184-4.174,4.184Z" style="fill:#5cffd1;"/><path d="M693.194,212.283c-2.756,0-5.025-2.275-5.025-5.037s2.27-5.037,5.025-5.037,5.025,2.275,5.025,5.037-2.27,5.037-5.025,5.037Z" style="fill:#5cffd1;"/><ellipse cx="693.192" cy="207.244" rx="4.174" ry="4.184" style="fill:#5cffd1;"/><path d="M667.661,212.283c-2.756,0-5.025-2.275-5.025-5.037s2.269-5.037,5.025-5.037,5.025,2.275,5.025,5.037-2.27,5.037-5.025,5.037Z" style="fill:#5cffd1;"/><ellipse cx="667.66" cy="207.244" rx="4.174" ry="4.184" style="fill:#5cffd1;"/><path d="M642.129,212.283c-2.756,0-5.025-2.275-5.025-5.037s2.269-5.037,5.025-5.037,5.025,2.275,5.025,5.037-2.27,5.037-5.025,5.037Z" style="fill:#5cffd1;"/><ellipse cx="642.128" cy="207.244" rx="4.174" ry="4.184" style="fill:#5cffd1;"/><path d="M616.597,212.283c-2.756,0-5.025-2.275-5.025-5.037s2.269-5.037,5.025-5.037,5.025,2.275,5.025,5.037-2.27,5.037-5.025,5.037Z" style="fill:#5cffd1;"/><ellipse cx="616.595" cy="207.244" rx="4.174" ry="4.184" style="fill:#5cffd1;"/><path d="M591.064,212.283c-2.756,0-5.025-2.275-5.025-5.037s2.27-5.037,5.025-5.037,5.025,2.275,5.025,5.037-2.27,5.037-5.025,5.037Z" style="fill:#5cffd1;"/><path d="M591.063,211.429c-2.31,0-4.174-1.869-4.174-4.184s1.864-4.184,4.174-4.184,4.174,1.869,4.174,4.184-1.864,4.184-4.174,4.184Z" style="fill:#5cffd1;"/><path d="M565.532,212.283c-2.756,0-5.025-2.275-5.025-5.037s2.269-5.037,5.025-5.037,5.025,2.275,5.025,5.037-2.27,5.037-5.025,5.037Z" style="fill:#5cffd1;"/><ellipse cx="565.531" cy="207.244" rx="4.174" ry="4.184" style="fill:#5cffd1;"/><path d="M539.999,212.283c-2.756,0-5.025-2.275-5.025-5.037s2.269-5.037,5.025-5.037,5.025,2.275,5.025,5.037-2.27,5.037-5.025,5.037Z" style="fill:#5cffd1;"/><path d="M540.003,211.429c-2.31,0-4.174-1.869-4.174-4.184s1.864-4.184,4.174-4.184,4.174,1.869,4.174,4.184-1.864,4.184-4.174,4.184Z" style="fill:#5cffd1;"/><path d="M514.467,212.283c-2.756,0-5.025-2.275-5.025-5.037s2.269-5.037,5.025-5.037,5.025,2.275,5.025,5.037-2.27,5.037-5.025,5.037Z" style="fill:#5cffd1;"/><ellipse cx="514.47" cy="207.244" rx="4.174" ry="4.184" style="fill:#5cffd1;"/><path d="M782.557,235.479c-1.459,0-2.634-1.178-2.634-2.6s1.175-2.6,2.634-2.6,2.634,1.178,2.634,2.6-1.175,2.6-2.634,2.6Z" style="fill:#5cffd1;"/><path d="M782.555,234.625c-.973,0-1.783-.772-1.783-1.787s.81-1.747,1.783-1.747,1.783.772,1.783,1.747-.811,1.787-1.783,1.787Z" style="fill:#5cffd1;"/><ellipse cx="757.021" cy="232.878" rx="5.147" ry="5.159" style="fill:#5cffd1;"/><path d="M757.025,237.185c-2.391,0-4.296-1.95-4.296-4.306s1.945-4.306,4.296-4.306,4.296,1.95,4.296,4.306-1.945,4.306-4.296,4.306Z" style="fill:#5cffd1;"/><path d="M731.492,240.598c-4.255,0-7.7-3.453-7.7-7.719s3.445-7.719,7.7-7.719,7.7,3.453,7.7,7.719-3.445,7.719-7.7,7.719Z" style="fill:#5cffd1;"/><path d="M731.491,239.744c-3.769,0-6.849-3.087-6.849-6.866s3.08-6.866,6.849-6.866,6.849,3.087,6.849,6.866-3.08,6.866-6.849,6.866Z" style="fill:#5cffd1;"/><path d="M705.961,240.881c-4.417,0-7.984-3.615-7.984-8.003s3.566-8.003,7.984-8.003,7.984,3.575,7.984,8.003-3.566,8.003-7.984,8.003Z" style="fill:#5cffd1;"/><path d="M705.959,239.988c3.939,0,7.133-3.201,7.133-7.15s-3.193-7.15-7.133-7.15-7.133,3.201-7.133,7.15,3.193,7.15,7.133,7.15Z" style="fill:#5cffd1;"/><path d="M680.428,240.881c-4.417,0-7.984-3.615-7.984-8.003s3.607-8.003,7.984-8.003,7.984,3.575,7.984,8.003-3.566,8.003-7.984,8.003Z" style="fill:#5cffd1;"/><path d="M680.427,239.988c3.939,0,7.133-3.201,7.133-7.15s-3.193-7.15-7.133-7.15-7.133,3.201-7.133,7.15,3.193,7.15,7.133,7.15Z" style="fill:#5cffd1;"/><path d="M654.896,240.881c-4.417,0-7.984-3.615-7.984-8.003s3.566-8.003,7.984-8.003,7.984,3.575,7.984,8.003-3.607,8.003-7.984,8.003Z" style="fill:#5cffd1;"/><path d="M654.895,240.029c-3.931,0-7.133-3.209-7.133-7.15s3.202-7.15,7.133-7.15,7.133,3.209,7.133,7.15-3.202,7.15-7.133,7.15Z" style="fill:#5cffd1;"/><path d="M629.364,240.881c-4.417,0-7.984-3.615-7.984-8.003s3.566-8.003,7.984-8.003,7.984,3.575,7.984,8.003-3.566,8.003-7.984,8.003Z" style="fill:#5cffd1;"/><path d="M629.362,240.029c-3.931,0-7.133-3.209-7.133-7.15s3.202-7.15,7.133-7.15,7.133,3.209,7.133,7.15-3.202,7.15-7.133,7.15Z" style="fill:#5cffd1;"/><path d="M603.831,240.881c-4.417,0-7.984-3.615-7.984-8.003s3.566-8.003,7.984-8.003,7.984,3.575,7.984,8.003-3.566,8.003-7.984,8.003Z" style="fill:#5cffd1;"/><ellipse cx="603.83" cy="232.838" rx="7.133" ry="7.15" style="fill:#5cffd1;"/><path d="M578.299,240.881c-4.417,0-7.984-3.615-7.984-8.003s3.566-8.003,7.984-8.003,7.984,3.575,7.984,8.003-3.566,8.003-7.984,8.003Z" style="fill:#5cffd1;"/><ellipse cx="578.298" cy="232.838" rx="7.133" ry="7.15" style="fill:#5cffd1;"/><path d="M552.767,240.881c-4.417,0-7.984-3.615-7.984-8.003s3.607-8.003,7.984-8.003,7.984,3.575,7.984,8.003-3.566,8.003-7.984,8.003Z" style="fill:#5cffd1;"/><ellipse cx="552.765" cy="232.838" rx="7.133" ry="7.15" style="fill:#5cffd1;"/><path d="M527.234,240.881c-4.417,0-7.984-3.615-7.984-8.003s3.566-8.003,7.984-8.003,7.984,3.575,7.984,8.003-3.566,8.003-7.984,8.003Z" style="fill:#5cffd1;"/><path d="M527.233,240.029c-3.931,0-7.133-3.209-7.133-7.15s3.202-7.15,7.133-7.15,7.133,3.209,7.133,7.15-3.202,7.15-7.133,7.15Z" style="fill:#5cffd1;"/><path d="M795.319,260.015c-.851,0-1.54-.691-1.54-1.544s.689-1.544,1.54-1.544,1.54.691,1.54,1.544-.689,1.544-1.54,1.544Z" style="fill:#5cffd1;"/><path d="M795.322,259.163c-.405,0-.689-.325-.689-.691s.324-.691.689-.691.689.325.689.691-.324.691-.689.691Z" style="fill:#5cffd1;"/><path d="M769.79,262.535c-2.27,0-4.093-1.828-4.093-4.103s1.864-4.103,4.093-4.103,4.093,1.828,4.093,4.103-1.824,4.103-4.093,4.103Z" style="fill:#5cffd1;"/><path d="M769.789,261.721c-1.783,0-3.242-1.463-3.242-3.25s1.459-3.25,3.242-3.25,3.242,1.463,3.242,3.25-1.459,3.25-3.242,3.25Z" style="fill:#5cffd1;"/><path d="M744.257,265.093c-3.688,0-6.646-3.006-6.646-6.662s2.999-6.662,6.646-6.662,6.646,3.006,6.646,6.662-2.999,6.662-6.646,6.662Z" style="fill:#5cffd1;"/><ellipse cx="744.256" cy="258.432" rx="5.795" ry="5.809" style="fill:#5cffd1;"/><path d="M718.723,267.653c-5.066,0-9.2-4.144-9.2-9.222s4.134-9.222,9.2-9.222,9.2,4.144,9.2,9.222-4.134,9.222-9.2,9.222Z" style="fill:#5cffd1;"/><path d="M718.727,266.799c-4.62,0-8.349-3.737-8.349-8.369s3.728-8.369,8.349-8.369,8.349,3.737,8.349,8.369-3.728,8.369-8.349,8.369Z" style="fill:#5cffd1;"/><path d="M693.193,269.359c-5.998,0-10.902-4.916-10.902-10.928s4.904-10.928,10.902-10.928,10.902,4.916,10.902,10.928-4.904,10.928-10.902,10.928Z" style="fill:#5cffd1;"/><ellipse cx="693.192" cy="258.433" rx="10.051" ry="10.075" style="fill:#5cffd1;"/><path d="M667.661,269.359c-5.998,0-10.902-4.916-10.902-10.928s4.904-10.928,10.902-10.928,10.902,4.916,10.902,10.928-4.904,10.928-10.902,10.928Z" style="fill:#5cffd1;"/><ellipse cx="667.66" cy="258.433" rx="10.051" ry="10.075" style="fill:#5cffd1;"/><path d="M642.129,269.359c-5.998,0-10.902-4.916-10.902-10.928s4.904-10.928,10.902-10.928,10.902,4.916,10.902,10.928-4.904,10.928-10.902,10.928Z" style="fill:#5cffd1;"/><ellipse cx="642.128" cy="258.433" rx="10.051" ry="10.075" style="fill:#5cffd1;"/><path d="M616.596,269.359c-5.998,0-10.902-4.916-10.902-10.928s4.904-10.928,10.902-10.928,10.902,4.916,10.902,10.928-4.904,10.928-10.902,10.928Z" style="fill:#5cffd1;"/><ellipse cx="616.595" cy="258.433" rx="10.051" ry="10.075" style="fill:#5cffd1;"/><path d="M591.064,269.359c-5.998,0-10.902-4.916-10.902-10.928s4.904-10.928,10.902-10.928,10.902,4.916,10.902,10.928-4.904,10.928-10.902,10.928Z" style="fill:#5cffd1;"/><ellipse cx="591.063" cy="258.433" rx="10.051" ry="10.075" style="fill:#5cffd1;"/><path d="M565.532,269.359c-5.998,0-10.902-4.916-10.902-10.928s4.904-10.928,10.902-10.928,10.902,4.916,10.902,10.928-4.904,10.928-10.902,10.928Z" style="fill:#5cffd1;"/><ellipse cx="565.535" cy="258.433" rx="10.051" ry="10.075" style="fill:#5cffd1;"/><path d="M808.086,287.071c-1.662,0-3.04-1.381-3.04-3.047s1.378-3.047,3.04-3.047,3.04,1.381,3.04,3.047-1.378,3.047-3.04,3.047Z" style="fill:#5cffd1;"/><path d="M808.085,286.219c-1.216,0-2.189-.975-2.189-2.194s.973-2.194,2.189-2.194,2.188.975,2.188,2.194-.973,2.194-2.188,2.194Z" style="fill:#5cffd1;"/><path d="M782.553,289.631c-3.08,0-5.593-2.519-5.593-5.606s2.513-5.606,5.593-5.606,5.593,2.519,5.593,5.606-2.513,5.606-5.593,5.606Z" style="fill:#5cffd1;"/><path d="M782.556,288.777c-2.594,0-4.742-2.112-4.742-4.753s2.107-4.753,4.742-4.753,4.742,2.112,4.742,4.753-2.107,4.753-4.742,4.753Z" style="fill:#5cffd1;"/><path d="M757.02,292.108c-4.458,0-8.065-3.616-8.065-8.084s3.607-8.084,8.065-8.084,8.065,3.616,8.065,8.084-3.607,8.084-8.065,8.084Z" style="fill:#5cffd1;"/><path d="M757.024,291.256c-3.972,0-7.214-3.25-7.214-7.231s3.242-7.231,7.214-7.231,7.214,3.25,7.214,7.231-3.242,7.231-7.214,7.231Z" style="fill:#5cffd1;"/><path d="M731.491,294.669c-5.836,0-10.618-4.753-10.618-10.644s4.782-10.644,10.618-10.644,10.618,4.753,10.618,10.644-4.782,10.644-10.618,10.644Z" style="fill:#5cffd1;"/><ellipse cx="731.49" cy="284.024" rx="9.767" ry="9.79" style="fill:#5cffd1;"/><path d="M820.851,311.528c-1.054,0-1.905-.853-1.905-1.909s.851-1.909,1.905-1.909,1.905.853,1.905,1.909-.851,1.909-1.905,1.909Z" style="fill:#5cffd1;"/><path d="M820.854,310.674c-.567,0-1.054-.488-1.054-1.056s.486-1.056,1.054-1.056,1.054.488,1.054,1.056-.486,1.056-1.054,1.056Z" style="fill:#5cffd1;"/><path d="M795.322,314.086c-2.472,0-4.458-1.991-4.458-4.469s1.986-4.469,4.458-4.469,4.458,1.991,4.458,4.469-1.986,4.469-4.458,4.469Z" style="fill:#5cffd1;"/><path d="M795.321,313.234c-1.986,0-3.607-1.625-3.607-3.616s1.621-3.616,3.607-3.616,3.607,1.625,3.607,3.616-1.621,3.616-3.607,3.616Z" style="fill:#5cffd1;"/><path d="M769.789,316.646c-3.85,0-7.011-3.169-7.011-7.028s3.121-7.028,7.011-7.028,7.011,3.128,7.011,7.028-3.161,7.028-7.011,7.028Z" style="fill:#5cffd1;"/><path d="M769.788,315.792c-3.404,0-6.16-2.762-6.16-6.175s2.756-6.175,6.16-6.175,6.16,2.762,6.16,6.175-2.756,6.175-6.16,6.175Z" style="fill:#5cffd1;"/><path d="M744.256,319.207c-5.269,0-9.564-4.306-9.564-9.587s4.296-9.587,9.564-9.587,9.564,4.306,9.564,9.587-4.296,9.587-9.564,9.587Z" style="fill:#5cffd1;"/><path d="M744.255,318.352c-4.782,0-8.713-3.9-8.713-8.734s3.891-8.734,8.713-8.734,8.713,3.9,8.713,8.734-3.891,8.734-8.713,8.734Z" style="fill:#5cffd1;"/><path d="M833.619,338.624c-1.864,0-3.404-1.544-3.404-3.412s1.499-3.412,3.404-3.412,3.404,1.544,3.404,3.412-1.54,3.412-3.404,3.412Z" style="fill:#5cffd1;"/><path d="M833.617,337.77c-1.418,0-2.553-1.137-2.553-2.559s1.135-2.559,2.553-2.559,2.553,1.137,2.553,2.559-1.135,2.559-2.553,2.559Z" style="fill:#5cffd1;"/><ellipse cx="808.085" cy="335.213" rx="5.957" ry="5.972" style="fill:#5cffd1;"/><path d="M808.089,340.33c-2.796,0-5.106-2.275-5.106-5.119s2.27-5.119,5.106-5.119,5.106,2.275,5.106,5.119-2.269,5.119-5.106,5.119Z" style="fill:#5cffd1;"/><path d="M782.556,343.743c-4.701,0-8.511-3.819-8.511-8.491s3.81-8.49,8.511-8.49,8.511,3.819,8.511,8.49-3.809,8.491-8.511,8.491Z" style="fill:#5cffd1;"/><path d="M782.555,342.889c-4.215,0-7.66-3.453-7.66-7.637s3.445-7.637,7.66-7.637,7.619,3.412,7.619,7.637-3.404,7.637-7.619,7.637Z" style="fill:#5cffd1;"/><path d="M757.021,346.303c-6.079,0-11.023-4.956-11.023-11.05s4.944-11.05,11.023-11.05,11.023,4.956,11.023,11.05-4.944,11.05-11.023,11.05Z" style="fill:#5cffd1;"/><path d="M757.024,345.449c-5.633,0-10.172-4.591-10.172-10.197s4.579-10.197,10.172-10.197,10.172,4.591,10.172,10.197-4.58,10.197-10.172,10.197Z" style="fill:#5cffd1;"/><path d="M846.383,363.162c-1.297,0-2.351-1.056-2.351-2.356s1.054-2.356,2.351-2.356,2.351,1.056,2.351,2.356-1.054,2.356-2.351,2.356Z" style="fill:#5cffd1;"/><path d="M846.384,362.308c-.811,0-1.459-.65-1.459-1.503s.648-1.462,1.459-1.462,1.499.65,1.499,1.462-.648,1.503-1.499,1.503Z" style="fill:#5cffd1;"/><path d="M820.852,365.721c-2.675,0-4.863-2.194-4.863-4.875s2.188-4.875,4.863-4.875,4.863,2.194,4.863,4.875-2.188,4.875-4.863,4.875Z" style="fill:#5cffd1;"/><path d="M820.851,364.866c-2.229,0-4.012-1.828-4.012-4.022s1.824-4.022,4.012-4.022,4.012,1.828,4.012,4.022-1.824,4.022-4.012,4.022Z" style="fill:#5cffd1;"/><ellipse cx="795.319" cy="360.847" rx="7.416" ry="7.434" style="fill:#5cffd1;"/><path d="M795.322,367.427c-3.647,0-6.565-2.966-6.565-6.581s2.958-6.581,6.565-6.581,6.565,2.966,6.565,6.581-2.959,6.581-6.565,6.581Z" style="fill:#5cffd1;"/><ellipse cx="769.79" cy="360.805" rx="9.97" ry="9.994" style="fill:#5cffd1;"/><path d="M769.789,369.946c-5.025,0-9.119-4.103-9.119-9.14s4.093-9.14,9.119-9.14,9.119,4.103,9.119,9.14-4.093,9.14-9.119,9.14Z" style="fill:#5cffd1;"/><ellipse cx="859.148" cy="386.44" rx="3.81" ry="3.819" style="fill:#5cffd1;"/><path d="M859.152,389.405c-1.621,0-2.958-1.341-2.958-2.966s1.337-2.966,2.958-2.966,2.958,1.341,2.958,2.966-1.337,2.966-2.958,2.966Z" style="fill:#5cffd1;"/><path d="M833.619,392.776c-3.526,0-6.363-2.844-6.363-6.378s2.877-6.378,6.363-6.378,6.363,2.844,6.363,6.378-2.837,6.378-6.363,6.378Z" style="fill:#5cffd1;"/><ellipse cx="833.618" cy="386.399" rx="5.512" ry="5.525" style="fill:#5cffd1;"/><path d="M808.086,395.336c-4.904,0-8.916-4.022-8.916-8.937s4.012-8.937,8.916-8.937,8.916,4.022,8.916,8.937-4.012,8.937-8.916,8.937Z" style="fill:#5cffd1;"/><ellipse cx="808.085" cy="386.398" rx="8.065" ry="8.084" style="fill:#5cffd1;"/><ellipse cx="782.553" cy="386.398" rx="11.469" ry="11.497" style="fill:#5cffd1;"/><path d="M782.556,397.042c-5.836,0-10.618-4.794-10.618-10.644s4.742-10.644,10.618-10.644,10.618,4.794,10.618,10.644-4.742,10.644-10.618,10.644Z" style="fill:#5cffd1;"/><path d="M871.917,414.754c-1.54,0-2.756-1.219-2.756-2.762s1.256-2.762,2.756-2.762,2.756,1.219,2.756,2.762-1.216,2.762-2.756,2.762Z" style="fill:#5cffd1;"/><path d="M871.916,413.902c-1.054,0-1.905-.853-1.905-1.909s.851-1.909,1.905-1.909,1.905.853,1.905,1.909-.851,1.909-1.905,1.909Z" style="fill:#5cffd1;"/><path d="M846.384,417.314c-2.918,0-5.309-2.397-5.309-5.322s2.391-5.322,5.309-5.322,5.309,2.397,5.309,5.322-2.391,5.322-5.309,5.322Z" style="fill:#5cffd1;"/><path d="M846.382,416.46c-2.472,0-4.458-1.991-4.458-4.469s1.986-4.469,4.458-4.469,4.458,1.991,4.458,4.469-1.986,4.469-4.458,4.469Z" style="fill:#5cffd1;"/><ellipse cx="820.85" cy="411.991" rx="7.862" ry="7.881" style="fill:#5cffd1;"/><path d="M820.854,419.02c-3.85,0-7.011-3.169-7.011-7.028s3.161-7.028,7.011-7.028,7.011,3.128,7.011,7.028-3.121,7.028-7.011,7.028Z" style="fill:#5cffd1;"/><ellipse cx="795.322" cy="411.992" rx="10.334" ry="10.359" style="fill:#5cffd1;"/><path d="M795.321,421.497c-5.228,0-9.483-4.266-9.483-9.506s4.255-9.506,9.483-9.506,9.483,4.266,9.483,9.506-4.255,9.506-9.483,9.506Z" style="fill:#5cffd1;"/><path d="M884.681,441.769c-2.31,0-4.174-1.869-4.174-4.184s1.864-4.184,4.174-4.184,4.174,1.869,4.174,4.184-1.864,4.184-4.174,4.184Z" style="fill:#5cffd1;"/><path d="M884.684,440.917c-1.824,0-3.323-1.503-3.323-3.331s1.5-3.331,3.323-3.331,3.323,1.503,3.323,3.331-1.499,3.331-3.323,3.331Z" style="fill:#5cffd1;"/><path d="M859.152,444.329c-3.688,0-6.727-3.006-6.727-6.744s2.999-6.744,6.727-6.744,6.727,3.006,6.727,6.744-2.999,6.744-6.727,6.744Z" style="fill:#5cffd1;"/><ellipse cx="859.15" cy="437.585" rx="5.876" ry="5.891" style="fill:#5cffd1;"/><path d="M833.618,446.888c-5.106,0-9.281-4.184-9.281-9.303s4.174-9.303,9.281-9.303,9.281,4.184,9.281,9.303-4.174,9.303-9.281,9.303Z" style="fill:#5cffd1;"/><ellipse cx="833.617" cy="437.586" rx="8.43" ry="8.45" style="fill:#5cffd1;"/><path d="M808.085,449.448c-6.525,0-11.834-5.322-11.834-11.862s5.309-11.862,11.834-11.862,11.834,5.322,11.834,11.862-5.309,11.862-11.834,11.862Z" style="fill:#5cffd1;"/><path d="M808.088,448.594c-6.039,0-10.983-4.916-10.983-11.009s4.904-11.009,10.983-11.009,10.983,4.916,10.983,11.009-4.904,11.009-10.983,11.009Z" style="fill:#5cffd1;"/><path d="M897.449,466.307c-1.702,0-3.121-1.381-3.121-3.128s1.378-3.128,3.121-3.128,3.121,1.381,3.121,3.128-1.378,3.128-3.121,3.128Z" style="fill:#5cffd1;"/><path d="M897.448,465.453c-1.256,0-2.27-1.016-2.27-2.275s1.013-2.275,2.27-2.275,2.27,1.016,2.27,2.275-1.013,2.275-2.27,2.275Z" style="fill:#5cffd1;"/><ellipse cx="871.916" cy="463.178" rx="5.674" ry="5.687" style="fill:#5cffd1;"/><path d="M871.915,468.013c-2.634,0-4.823-2.153-4.823-4.834s2.148-4.834,4.823-4.834,4.823,2.153,4.823,4.834-2.148,4.834-4.823,4.834Z" style="fill:#5cffd1;"/><path d="M846.383,471.426c-4.539,0-8.227-3.697-8.227-8.206s3.688-8.247,8.227-8.247,8.227,3.697,8.227,8.247-3.688,8.206-8.227,8.206Z" style="fill:#5cffd1;"/><path d="M846.386,470.572c-4.053,0-7.376-3.291-7.376-7.353s3.283-7.353,7.376-7.353,7.376,3.291,7.376,7.353-3.283,7.353-7.376,7.353Z" style="fill:#5cffd1;"/><path d="M820.852,473.984c-5.917,0-10.74-4.834-10.74-10.765s4.823-10.765,10.74-10.765,10.74,4.834,10.74,10.765-4.823,10.765-10.74,10.765Z" style="fill:#5cffd1;"/><path d="M820.851,473.132c-5.471,0-9.889-4.469-9.889-9.912s4.458-9.912,9.889-9.912,9.889,4.469,9.889,9.912-4.458,9.912-9.889,9.912Z" style="fill:#5cffd1;"/><path d="M910.215,493.404c-2.553,0-4.58-2.072-4.58-4.591s2.067-4.591,4.58-4.591,4.58,2.072,4.58,4.591-2.067,4.591-4.58,4.591Z" style="fill:#5cffd1;"/><path d="M910.214,492.55c-2.067,0-3.729-1.666-3.729-3.737s1.702-3.737,3.729-3.737,3.728,1.666,3.728,3.737-1.662,3.737-3.728,3.737Z" style="fill:#5cffd1;"/><path d="M884.681,495.962c-3.931,0-7.133-3.209-7.133-7.15s3.202-7.15,7.133-7.15,7.133,3.209,7.133,7.15-3.202,7.15-7.133,7.15Z" style="fill:#5cffd1;"/><path d="M884.68,495.11c-3.485,0-6.282-2.844-6.282-6.297s2.837-6.297,6.282-6.297,6.282,2.844,6.282,6.297-2.837,6.297-6.282,6.297Z" style="fill:#5cffd1;"/><ellipse cx="859.148" cy="488.813" rx="9.686" ry="9.709" style="fill:#5cffd1;"/><path d="M859.151,497.668c-4.863,0-8.835-3.981-8.835-8.856s3.972-8.856,8.835-8.856,8.835,3.981,8.835,8.856-3.972,8.856-8.835,8.856Z" style="fill:#5cffd1;"/><path d="M833.619,501.04c-6.768,0-12.239-5.525-12.239-12.269s5.512-12.269,12.239-12.269,12.239,5.525,12.239,12.269-5.471,12.269-12.239,12.269Z" style="fill:#5cffd1;"/><ellipse cx="833.618" cy="488.772" rx="11.388" ry="11.415" style="fill:#5cffd1;"/><ellipse cx="922.979" cy="514.405" rx="3.526" ry="3.534" style="fill:#5cffd1;"/><path d="M922.982,517.088c-1.5,0-2.675-1.219-2.675-2.681s1.216-2.681,2.675-2.681,2.675,1.219,2.675,2.681-1.216,2.681-2.675,2.681Z" style="fill:#5cffd1;"/><ellipse cx="897.45" cy="514.366" rx="6.079" ry="6.094" style="fill:#5cffd1;"/><path d="M897.449,519.605c-2.877,0-5.228-2.356-5.228-5.241s2.351-5.241,5.228-5.241,5.228,2.356,5.228,5.241-2.351,5.241-5.228,5.241Z" style="fill:#5cffd1;"/><path d="M871.917,523.017c-4.782,0-8.632-3.9-8.632-8.653s3.891-8.653,8.632-8.653,8.632,3.9,8.632,8.653-3.85,8.653-8.632,8.653Z" style="fill:#5cffd1;"/><path d="M871.916,522.165c-4.296,0-7.781-3.494-7.781-7.8s3.485-7.8,7.781-7.8,7.781,3.494,7.781,7.8-3.485,7.8-7.781,7.8Z" style="fill:#5cffd1;"/><path d="M846.383,525.578c-6.16,0-11.185-5.037-11.185-11.212s5.025-11.212,11.185-11.212,11.185,5.037,11.185,11.212-5.025,11.212-11.185,11.212Z" style="fill:#5cffd1;"/><ellipse cx="846.387" cy="514.366" rx="10.334" ry="10.359" style="fill:#5cffd1;"/><path d="M935.745,544.224c-2.351,0-4.255-1.909-4.255-4.266s1.905-4.266,4.255-4.266,4.255,1.909,4.255,4.266-1.905,4.266-4.255,4.266Z" style="fill:#5cffd1;"/><path d="M935.748,543.372c-1.864,0-3.404-1.544-3.404-3.412s1.5-3.412,3.404-3.412,3.404,1.544,3.404,3.412-1.499,3.412-3.404,3.412Z" style="fill:#5cffd1;"/><path d="M910.216,546.784c-3.728,0-6.809-3.047-6.809-6.825s3.04-6.825,6.809-6.825,6.808,3.047,6.808,6.825-3.039,6.825-6.808,6.825Z" style="fill:#5cffd1;"/><ellipse cx="910.215" cy="539.958" rx="5.957" ry="5.972" style="fill:#5cffd1;"/><path d="M884.681,549.342c-5.147,0-9.321-4.184-9.321-9.384s4.174-9.384,9.321-9.384,9.321,4.184,9.321,9.384-4.174,9.384-9.321,9.384Z" style="fill:#5cffd1;"/><path d="M884.684,548.491c-4.701,0-8.47-3.819-8.47-8.49s3.81-8.491,8.47-8.491,8.47,3.819,8.47,8.491-3.809,8.49-8.47,8.49Z" style="fill:#5cffd1;"/><path d="M859.152,551.903c-6.565,0-11.874-5.362-11.874-11.903s5.35-11.903,11.874-11.903,11.874,5.362,11.874,11.903-5.35,11.903-11.874,11.903Z" style="fill:#5cffd1;"/><path d="M859.151,551.049c-6.079,0-11.023-4.956-11.023-11.05s4.944-11.05,11.023-11.05,11.023,4.956,11.023,11.05-4.944,11.05-11.023,11.05Z" style="fill:#5cffd1;"/><ellipse cx="922.979" cy="565.592" rx="3.526" ry="3.534" style="fill:#5cffd1;"/><path d="M922.982,568.275c-1.5,0-2.675-1.219-2.675-2.681s1.216-2.681,2.675-2.681,2.675,1.219,2.675,2.681-1.216,2.681-2.675,2.681Z" style="fill:#5cffd1;"/><ellipse cx="897.45" cy="565.553" rx="6.079" ry="6.094" style="fill:#5cffd1;"/><path d="M897.449,570.792c-2.877,0-5.228-2.356-5.228-5.241s2.351-5.241,5.228-5.241,5.228,2.356,5.228,5.241-2.351,5.241-5.228,5.241Z" style="fill:#5cffd1;"/><path d="M871.917,574.204c-4.782,0-8.632-3.9-8.632-8.653s3.891-8.653,8.632-8.653,8.632,3.9,8.632,8.653-3.85,8.653-8.632,8.653Z" style="fill:#5cffd1;"/><path d="M871.916,573.352c-4.296,0-7.781-3.494-7.781-7.8s3.485-7.8,7.781-7.8,7.781,3.494,7.781,7.8-3.485,7.8-7.781,7.8Z" style="fill:#5cffd1;"/><path d="M846.383,576.765c-6.16,0-11.185-5.037-11.185-11.212s5.025-11.212,11.185-11.212,11.185,5.037,11.185,11.212-5.025,11.212-11.185,11.212Z" style="fill:#5cffd1;"/><ellipse cx="846.387" cy="565.551" rx="10.334" ry="10.359" style="fill:#5cffd1;"/><path d="M910.215,595.778c-2.553,0-4.58-2.072-4.58-4.591s2.067-4.591,4.58-4.591,4.58,2.072,4.58,4.591-2.067,4.591-4.58,4.591Z" style="fill:#5cffd1;"/><path d="M910.214,594.924c-2.067,0-3.729-1.666-3.729-3.737s1.702-3.737,3.729-3.737,3.728,1.666,3.728,3.737-1.662,3.737-3.728,3.737Z" style="fill:#5cffd1;"/><path d="M884.681,598.336c-3.931,0-7.133-3.209-7.133-7.15s3.202-7.15,7.133-7.15,7.133,3.209,7.133,7.15-3.202,7.15-7.133,7.15Z" style="fill:#5cffd1;"/><path d="M884.68,597.484c-3.485,0-6.282-2.844-6.282-6.297s2.837-6.297,6.282-6.297,6.282,2.844,6.282,6.297-2.837,6.297-6.282,6.297Z" style="fill:#5cffd1;"/><ellipse cx="859.148" cy="591.187" rx="9.686" ry="9.709" style="fill:#5cffd1;"/><path d="M859.151,600.042c-4.863,0-8.835-3.981-8.835-8.856s3.972-8.856,8.835-8.856,8.835,3.981,8.835,8.856-3.972,8.856-8.835,8.856Z" style="fill:#5cffd1;"/><path d="M833.619,603.413c-6.768,0-12.239-5.484-12.239-12.269s5.512-12.269,12.239-12.269,12.239,5.525,12.239,12.269-5.471,12.269-12.239,12.269Z" style="fill:#5cffd1;"/><ellipse cx="833.618" cy="591.146" rx="11.388" ry="11.415" style="fill:#5cffd1;"/><path d="M897.449,619.866c-1.702,0-3.121-1.381-3.121-3.128s1.378-3.128,3.121-3.128,3.121,1.381,3.121,3.128-1.378,3.128-3.121,3.128Z" style="fill:#5cffd1;"/><path d="M897.448,619.014c-1.256,0-2.27-1.016-2.27-2.275s1.013-2.275,2.27-2.275,2.27,1.016,2.27,2.275-1.013,2.275-2.27,2.275Z" style="fill:#5cffd1;"/><ellipse cx="871.916" cy="616.739" rx="5.674" ry="5.687" style="fill:#5cffd1;"/><path d="M871.915,621.574c-2.634,0-4.823-2.153-4.823-4.834s2.148-4.834,4.823-4.834,4.823,2.153,4.823,4.834-2.148,4.834-4.823,4.834Z" style="fill:#5cffd1;"/><path d="M846.383,624.985c-4.539,0-8.227-3.697-8.227-8.247s3.688-8.206,8.227-8.206,8.227,3.697,8.227,8.206-3.688,8.247-8.227,8.247Z" style="fill:#5cffd1;"/><path d="M846.386,624.133c-4.053,0-7.376-3.291-7.376-7.353s3.283-7.353,7.376-7.353,7.376,3.291,7.376,7.353-3.283,7.353-7.376,7.353Z" style="fill:#5cffd1;"/><path d="M820.852,627.545c-5.917,0-10.74-4.834-10.74-10.765s4.823-10.765,10.74-10.765,10.74,4.834,10.74,10.765-4.823,10.765-10.74,10.765Z" style="fill:#5cffd1;"/><path d="M820.851,626.691c-5.471,0-9.889-4.469-9.889-9.912s4.458-9.912,9.889-9.912,9.889,4.469,9.889,9.912-4.458,9.912-9.889,9.912Z" style="fill:#5cffd1;"/><ellipse cx="884.681" cy="642.333" rx="4.174" ry="4.184" style="fill:#5cffd1;"/><path d="M884.684,645.663c-1.824,0-3.323-1.503-3.323-3.331s1.5-3.331,3.323-3.331,3.323,1.503,3.323,3.331-1.499,3.331-3.323,3.331Z" style="fill:#5cffd1;"/><path d="M859.152,649.075c-3.688,0-6.727-3.006-6.727-6.744s2.999-6.744,6.727-6.744,6.727,3.006,6.727,6.744-2.999,6.744-6.727,6.744Z" style="fill:#5cffd1;"/><ellipse cx="859.15" cy="642.333" rx="5.876" ry="5.891" style="fill:#5cffd1;"/><path d="M833.618,651.636c-5.106,0-9.281-4.184-9.281-9.303s4.174-9.303,9.281-9.303,9.281,4.184,9.281,9.303-4.174,9.303-9.281,9.303Z" style="fill:#5cffd1;"/><ellipse cx="833.617" cy="642.332" rx="8.43" ry="8.45" style="fill:#5cffd1;"/><path d="M808.085,654.194c-6.525,0-11.834-5.322-11.834-11.862s5.309-11.862,11.834-11.862,11.834,5.322,11.834,11.862-5.309,11.862-11.834,11.862Z" style="fill:#5cffd1;"/><path d="M808.088,653.342c-6.039,0-10.983-4.916-10.983-11.009s4.904-11.009,10.983-11.009,10.983,4.916,10.983,11.009-4.904,11.009-10.983,11.009Z" style="fill:#5cffd1;"/><path d="M871.917,670.689c-1.54,0-2.756-1.259-2.756-2.762s1.256-2.762,2.756-2.762,2.756,1.259,2.756,2.762-1.216,2.762-2.756,2.762Z" style="fill:#5cffd1;"/><path d="M871.916,669.835c-1.054,0-1.905-.853-1.905-1.909s.851-1.909,1.905-1.909,1.905.853,1.905,1.909-.851,1.909-1.905,1.909Z" style="fill:#5cffd1;"/><path d="M846.384,673.247c-2.918,0-5.309-2.397-5.309-5.322s2.391-5.322,5.309-5.322,5.309,2.397,5.309,5.322-2.391,5.322-5.309,5.322Z" style="fill:#5cffd1;"/><path d="M846.382,672.395c-2.472,0-4.458-1.991-4.458-4.469s1.986-4.469,4.458-4.469,4.458,1.991,4.458,4.469-1.986,4.469-4.458,4.469Z" style="fill:#5cffd1;"/><ellipse cx="820.85" cy="667.926" rx="7.862" ry="7.881" style="fill:#5cffd1;"/><path d="M820.854,674.953c-3.85,0-7.011-3.169-7.011-7.028s3.161-7.028,7.011-7.028,7.011,3.128,7.011,7.028-3.121,7.028-7.011,7.028Z" style="fill:#5cffd1;"/><ellipse cx="795.322" cy="667.925" rx="10.334" ry="10.359" style="fill:#5cffd1;"/><path d="M795.321,677.432c-5.228,0-9.483-4.266-9.483-9.506s4.255-9.506,9.483-9.506,9.483,4.266,9.483,9.506-4.255,9.506-9.483,9.506Z" style="fill:#5cffd1;"/><ellipse cx="859.148" cy="693.56" rx="3.81" ry="3.819" style="fill:#5cffd1;"/><path d="M859.152,696.524c-1.621,0-2.958-1.341-2.958-2.966s1.337-2.966,2.958-2.966,2.958,1.341,2.958,2.966-1.337,2.966-2.958,2.966Z" style="fill:#5cffd1;"/><path d="M833.619,699.898c-3.526,0-6.363-2.844-6.363-6.378s2.877-6.378,6.363-6.378,6.363,2.844,6.363,6.378-2.837,6.378-6.363,6.378Z" style="fill:#5cffd1;"/><ellipse cx="833.618" cy="693.519" rx="5.512" ry="5.525" style="fill:#5cffd1;"/><path d="M808.086,702.456c-4.904,0-8.916-4.022-8.916-8.937s4.012-8.937,8.916-8.937,8.916,4.022,8.916,8.937-4.012,8.937-8.916,8.937Z" style="fill:#5cffd1;"/><ellipse cx="808.085" cy="693.52" rx="8.065" ry="8.084" style="fill:#5cffd1;"/><path d="M782.553,705.016c-6.322,0-11.469-5.159-11.469-11.497s5.147-11.497,11.469-11.497,11.469,5.159,11.469,11.497-5.147,11.497-11.469,11.497Z" style="fill:#5cffd1;"/><path d="M782.556,704.162c-5.836,0-10.618-4.794-10.618-10.644s4.742-10.644,10.618-10.644,10.618,4.794,10.618,10.644-4.742,10.644-10.618,10.644Z" style="fill:#5cffd1;"/><path d="M846.383,721.469c-1.297,0-2.351-1.056-2.351-2.356s1.054-2.356,2.351-2.356,2.351,1.056,2.351,2.356-1.054,2.356-2.351,2.356Z" style="fill:#5cffd1;"/><path d="M846.384,720.615c-.811,0-1.459-.65-1.459-1.463s.648-1.503,1.459-1.503,1.499.65,1.499,1.503-.648,1.463-1.499,1.463Z" style="fill:#5cffd1;"/><path d="M820.852,724.027c-2.675,0-4.863-2.194-4.863-4.875s2.188-4.875,4.863-4.875,4.863,2.194,4.863,4.875-2.188,4.875-4.863,4.875Z" style="fill:#5cffd1;"/><path d="M820.851,723.175c-2.229,0-4.012-1.828-4.012-4.022s1.824-4.022,4.012-4.022,4.012,1.828,4.012,4.022-1.824,4.022-4.012,4.022Z" style="fill:#5cffd1;"/><ellipse cx="795.319" cy="719.153" rx="7.416" ry="7.434" style="fill:#5cffd1;"/><path d="M795.322,725.734c-3.647,0-6.565-2.966-6.565-6.581s2.958-6.581,6.565-6.581,6.565,2.966,6.565,6.581-2.959,6.581-6.565,6.581Z" style="fill:#5cffd1;"/><ellipse cx="769.79" cy="719.152" rx="9.97" ry="9.994" style="fill:#5cffd1;"/><path d="M769.789,728.253c-5.025,0-9.119-4.103-9.119-9.14s4.093-9.141,9.119-9.141,9.119,4.103,9.119,9.141-4.093,9.14-9.119,9.14Z" style="fill:#5cffd1;"/><path d="M833.619,748.118c-1.864,0-3.404-1.544-3.404-3.412s1.499-3.412,3.404-3.412,3.404,1.544,3.404,3.412-1.54,3.412-3.404,3.412Z" style="fill:#5cffd1;"/><path d="M833.617,747.266c-1.418,0-2.553-1.138-2.553-2.559s1.135-2.559,2.553-2.559,2.553,1.137,2.553,2.559-1.135,2.559-2.553,2.559Z" style="fill:#5cffd1;"/><ellipse cx="808.085" cy="744.706" rx="5.957" ry="5.972" style="fill:#5cffd1;"/><path d="M808.089,749.824c-2.796,0-5.106-2.275-5.106-5.119s2.27-5.119,5.106-5.119,5.106,2.275,5.106,5.119-2.269,5.119-5.106,5.119Z" style="fill:#5cffd1;"/><path d="M782.556,753.236c-4.701,0-8.511-3.819-8.511-8.531s3.81-8.531,8.511-8.531,8.511,3.819,8.511,8.531-3.809,8.531-8.511,8.531Z" style="fill:#5cffd1;"/><path d="M782.555,752.385c-4.215,0-7.66-3.412-7.66-7.637s3.445-7.637,7.66-7.637,7.619,3.453,7.619,7.637-3.404,7.637-7.619,7.637Z" style="fill:#5cffd1;"/><path d="M757.021,755.797c-6.079,0-11.023-4.956-11.023-11.05s4.944-11.05,11.023-11.05,11.023,4.956,11.023,11.05-4.944,11.05-11.023,11.05Z" style="fill:#5cffd1;"/><path d="M757.024,754.943c-5.633,0-10.172-4.591-10.172-10.197s4.579-10.197,10.172-10.197,10.172,4.591,10.172,10.197-4.58,10.197-10.172,10.197Z" style="fill:#5cffd1;"/><ellipse cx="820.851" cy="770.299" rx="1.905" ry="1.909" style="fill:#5cffd1;"/><path d="M820.854,771.355c-.567,0-1.054-.488-1.054-1.056s.486-1.056,1.054-1.056,1.054.488,1.054,1.056-.486,1.056-1.054,1.056Z" style="fill:#5cffd1;"/><path d="M795.322,774.769c-2.472,0-4.458-1.991-4.458-4.469s1.986-4.469,4.458-4.469,4.458,1.991,4.458,4.469-1.986,4.469-4.458,4.469Z" style="fill:#5cffd1;"/><path d="M795.321,773.915c-1.986,0-3.607-1.625-3.607-3.616s1.621-3.616,3.607-3.616,3.607,1.625,3.607,3.616-1.621,3.616-3.607,3.616Z" style="fill:#5cffd1;"/><path d="M769.789,777.327c-3.85,0-7.011-3.128-7.011-7.028s3.121-7.028,7.011-7.028,7.011,3.169,7.011,7.028-3.161,7.028-7.011,7.028Z" style="fill:#5cffd1;"/><path d="M769.788,776.475c-3.404,0-6.16-2.762-6.16-6.175s2.756-6.175,6.16-6.175,6.16,2.763,6.16,6.175-2.756,6.175-6.16,6.175Z" style="fill:#5cffd1;"/><path d="M744.256,779.887c-5.269,0-9.564-4.306-9.564-9.587s4.296-9.587,9.564-9.587,9.564,4.306,9.564,9.587-4.296,9.587-9.564,9.587Z" style="fill:#5cffd1;"/><path d="M744.255,779.033c-4.782,0-8.713-3.9-8.713-8.734s3.891-8.734,8.713-8.734,8.713,3.9,8.713,8.734-3.891,8.734-8.713,8.734Z" style="fill:#5cffd1;"/><path d="M808.086,798.939c-1.662,0-3.04-1.381-3.04-3.047s1.378-3.047,3.04-3.047,3.04,1.381,3.04,3.047-1.378,3.047-3.04,3.047Z" style="fill:#5cffd1;"/><path d="M808.085,798.087c-1.216,0-2.189-.975-2.189-2.194s.973-2.194,2.189-2.194,2.188.975,2.188,2.194-.973,2.194-2.188,2.194Z" style="fill:#5cffd1;"/><path d="M782.553,801.499c-3.08,0-5.593-2.519-5.593-5.606s2.513-5.606,5.593-5.606,5.593,2.519,5.593,5.606-2.513,5.606-5.593,5.606Z" style="fill:#5cffd1;"/><path d="M782.556,800.645c-2.594,0-4.742-2.112-4.742-4.753s2.107-4.753,4.742-4.753,4.742,2.112,4.742,4.753-2.107,4.753-4.742,4.753Z" style="fill:#5cffd1;"/><path d="M757.02,803.976c-4.458,0-8.065-3.616-8.065-8.084s3.607-8.084,8.065-8.084,8.065,3.616,8.065,8.084-3.607,8.084-8.065,8.084Z" style="fill:#5cffd1;"/><path d="M757.024,803.124c-3.972,0-7.214-3.25-7.214-7.231s3.242-7.231,7.214-7.231,7.214,3.25,7.214,7.231-3.242,7.231-7.214,7.231Z" style="fill:#5cffd1;"/><path d="M731.491,806.536c-5.836,0-10.618-4.794-10.618-10.644s4.782-10.644,10.618-10.644,10.618,4.753,10.618,10.644-4.782,10.644-10.618,10.644Z" style="fill:#5cffd1;"/><ellipse cx="731.49" cy="795.892" rx="9.767" ry="9.791" style="fill:#5cffd1;"/><path d="M795.319,823.07c-.851,0-1.54-.691-1.54-1.544s.689-1.544,1.54-1.544,1.54.691,1.54,1.544-.689,1.544-1.54,1.544Z" style="fill:#5cffd1;"/><path d="M795.322,822.218c-.405,0-.689-.325-.689-.691s.324-.691.689-.691.689.325.689.691-.324.691-.689.691Z" style="fill:#5cffd1;"/><path d="M769.79,825.63c-2.27,0-4.093-1.828-4.093-4.103s1.864-4.103,4.093-4.103,4.093,1.828,4.093,4.103-1.824,4.103-4.093,4.103Z" style="fill:#5cffd1;"/><path d="M769.789,824.776c-1.783,0-3.242-1.463-3.242-3.25s1.459-3.25,3.242-3.25,3.242,1.463,3.242,3.25-1.459,3.25-3.242,3.25Z" style="fill:#5cffd1;"/><path d="M744.257,828.148c-3.688,0-6.646-3.006-6.646-6.662s2.999-6.662,6.646-6.662,6.646,3.006,6.646,6.662-2.999,6.662-6.646,6.662Z" style="fill:#5cffd1;"/><path d="M744.256,827.296c-3.202,0-5.795-2.6-5.795-5.809s2.594-5.809,5.795-5.809,5.795,2.6,5.795,5.809-2.594,5.809-5.795,5.809Z" style="fill:#5cffd1;"/><path d="M718.723,830.708c-5.066,0-9.2-4.144-9.2-9.222s4.134-9.222,9.2-9.222,9.2,4.144,9.2,9.222-4.134,9.222-9.2,9.222Z" style="fill:#5cffd1;"/><path d="M718.727,829.854c-4.62,0-8.349-3.737-8.349-8.369s3.728-8.369,8.349-8.369,8.349,3.737,8.349,8.369-3.728,8.369-8.349,8.369Z" style="fill:#5cffd1;"/><path d="M693.193,832.414c-5.998,0-10.902-4.916-10.902-10.928s4.904-10.928,10.902-10.928,10.902,4.916,10.902,10.928-4.904,10.928-10.902,10.928Z" style="fill:#5cffd1;"/><ellipse cx="693.192" cy="821.485" rx="10.051" ry="10.075" style="fill:#5cffd1;"/><path d="M667.661,832.414c-5.998,0-10.902-4.916-10.902-10.928s4.904-10.928,10.902-10.928,10.902,4.916,10.902,10.928-4.904,10.928-10.902,10.928Z" style="fill:#5cffd1;"/><ellipse cx="667.66" cy="821.485" rx="10.051" ry="10.075" style="fill:#5cffd1;"/><path d="M642.129,832.414c-5.998,0-10.902-4.916-10.902-10.928s4.904-10.928,10.902-10.928,10.902,4.916,10.902,10.928-4.904,10.928-10.902,10.928Z" style="fill:#5cffd1;"/><ellipse cx="642.128" cy="821.485" rx="10.051" ry="10.075" style="fill:#5cffd1;"/><path d="M616.596,832.414c-5.998,0-10.902-4.916-10.902-10.928s4.904-10.928,10.902-10.928,10.902,4.916,10.902,10.928-4.904,10.928-10.902,10.928Z" style="fill:#5cffd1;"/><ellipse cx="616.595" cy="821.485" rx="10.051" ry="10.075" style="fill:#5cffd1;"/><path d="M591.064,832.414c-5.998,0-10.902-4.916-10.902-10.928s4.904-10.928,10.902-10.928,10.902,4.916,10.902,10.928-4.904,10.928-10.902,10.928Z" style="fill:#5cffd1;"/><ellipse cx="591.063" cy="821.485" rx="10.051" ry="10.075" style="fill:#5cffd1;"/><path d="M565.532,832.414c-5.998,0-10.902-4.916-10.902-10.928s4.904-10.928,10.902-10.928,10.902,4.916,10.902,10.928-4.904,10.928-10.902,10.928Z" style="fill:#5cffd1;"/><ellipse cx="565.535" cy="821.485" rx="10.051" ry="10.075" style="fill:#5cffd1;"/><path d="M539.999,832.414c-5.998,0-10.902-4.916-10.902-10.928s4.904-10.928,10.902-10.928,10.902,4.916,10.902,10.928-4.904,10.928-10.902,10.928Z" style="fill:#5cffd1;"/><ellipse cx="540.003" cy="821.485" rx="10.051" ry="10.075" style="fill:#5cffd1;"/><path d="M782.557,849.721c-1.459,0-2.634-1.178-2.634-2.6s1.175-2.6,2.634-2.6,2.634,1.178,2.634,2.6-1.175,2.6-2.634,2.6Z" style="fill:#5cffd1;"/><path d="M782.555,848.867c-.973,0-1.783-.772-1.783-1.747s.81-1.788,1.783-1.788,1.783.772,1.783,1.788-.811,1.747-1.783,1.747Z" style="fill:#5cffd1;"/><ellipse cx="757.021" cy="847.12" rx="5.147" ry="5.159" style="fill:#5cffd1;"/><path d="M757.025,851.427c-2.391,0-4.296-1.95-4.296-4.306s1.945-4.306,4.296-4.306,4.296,1.95,4.296,4.306-1.945,4.306-4.296,4.306Z" style="fill:#5cffd1;"/><path d="M731.492,854.84c-4.255,0-7.7-3.453-7.7-7.719s3.445-7.719,7.7-7.719,7.7,3.453,7.7,7.719-3.445,7.719-7.7,7.719Z" style="fill:#5cffd1;"/><path d="M731.491,853.985c-3.769,0-6.849-3.087-6.849-6.866s3.08-6.866,6.849-6.866,6.849,3.087,6.849,6.866-3.08,6.866-6.849,6.866Z" style="fill:#5cffd1;"/><path d="M705.961,855.123c-4.417,0-7.984-3.575-7.984-8.003s3.566-8.003,7.984-8.003,7.984,3.616,7.984,8.003-3.566,8.003-7.984,8.003Z" style="fill:#5cffd1;"/><path d="M705.959,854.23c3.939,0,7.133-3.201,7.133-7.15s-3.193-7.15-7.133-7.15-7.133,3.201-7.133,7.15,3.193,7.15,7.133,7.15Z" style="fill:#5cffd1;"/><path d="M680.428,855.123c-4.417,0-7.984-3.575-7.984-8.003s3.607-8.003,7.984-8.003,7.984,3.616,7.984,8.003-3.566,8.003-7.984,8.003Z" style="fill:#5cffd1;"/><path d="M680.427,854.23c3.939,0,7.133-3.201,7.133-7.15s-3.193-7.15-7.133-7.15-7.133,3.201-7.133,7.15,3.193,7.15,7.133,7.15Z" style="fill:#5cffd1;"/><path d="M654.896,855.123c-4.417,0-7.984-3.575-7.984-8.003s3.566-8.003,7.984-8.003,7.984,3.616,7.984,8.003-3.607,8.003-7.984,8.003Z" style="fill:#5cffd1;"/><path d="M654.895,854.271c-3.931,0-7.133-3.209-7.133-7.15s3.202-7.15,7.133-7.15,7.133,3.209,7.133,7.15-3.202,7.15-7.133,7.15Z" style="fill:#5cffd1;"/><path d="M629.364,855.123c-4.417,0-7.984-3.575-7.984-8.003s3.566-8.003,7.984-8.003,7.984,3.616,7.984,8.003-3.566,8.003-7.984,8.003Z" style="fill:#5cffd1;"/><path d="M629.362,854.271c-3.931,0-7.133-3.209-7.133-7.15s3.202-7.15,7.133-7.15,7.133,3.209,7.133,7.15-3.202,7.15-7.133,7.15Z" style="fill:#5cffd1;"/><path d="M603.831,855.123c-4.417,0-7.984-3.575-7.984-8.003s3.566-8.003,7.984-8.003,7.984,3.616,7.984,8.003-3.566,8.003-7.984,8.003Z" style="fill:#5cffd1;"/><path d="M603.83,854.23c3.939,0,7.133-3.201,7.133-7.15s-3.193-7.15-7.133-7.15-7.133,3.201-7.133,7.15,3.193,7.15,7.133,7.15Z" style="fill:#5cffd1;"/><path d="M578.299,855.123c-4.417,0-7.984-3.575-7.984-8.003s3.566-8.003,7.984-8.003,7.984,3.616,7.984,8.003-3.566,8.003-7.984,8.003Z" style="fill:#5cffd1;"/><path d="M578.298,854.23c3.939,0,7.133-3.201,7.133-7.15s-3.193-7.15-7.133-7.15-7.133,3.201-7.133,7.15,3.193,7.15,7.133,7.15Z" style="fill:#5cffd1;"/><path d="M552.767,855.123c-4.417,0-7.984-3.575-7.984-8.003s3.607-8.003,7.984-8.003,7.984,3.616,7.984,8.003-3.566,8.003-7.984,8.003Z" style="fill:#5cffd1;"/><path d="M552.765,854.23c3.939,0,7.133-3.201,7.133-7.15s-3.193-7.15-7.133-7.15-7.133,3.201-7.133,7.15,3.193,7.15,7.133,7.15Z" style="fill:#5cffd1;"/><path d="M527.234,855.123c-4.417,0-7.984-3.575-7.984-8.003s3.566-8.003,7.984-8.003,7.984,3.616,7.984,8.003-3.566,8.003-7.984,8.003Z" style="fill:#5cffd1;"/><path d="M527.233,854.271c-3.931,0-7.133-3.209-7.133-7.15s3.202-7.15,7.133-7.15,7.133,3.209,7.133,7.15-3.202,7.15-7.133,7.15Z" style="fill:#5cffd1;"/><path d="M769.789,873.809c-.608,0-1.135-.487-1.135-1.137s.486-1.137,1.135-1.137,1.135.488,1.135,1.137-.486,1.137-1.135,1.137Z" style="fill:#5cffd1;"/><path d="M769.789,873.809c-.608,0-1.135-.487-1.135-1.137s.486-1.137,1.135-1.137,1.135.488,1.135,1.137-.486,1.137-1.135,1.137Z" style="fill:#5cffd1;"/><path d="M744.256,876.37c-2.026,0-3.688-1.666-3.688-3.697s1.662-3.697,3.688-3.697,3.688,1.666,3.688,3.697-1.662,3.697-3.688,3.697Z" style="fill:#5cffd1;"/><path d="M744.255,875.516c-1.54,0-2.837-1.259-2.837-2.844s1.256-2.844,2.837-2.844,2.837,1.259,2.837,2.844-1.256,2.844-2.837,2.844Z" style="fill:#5cffd1;"/><path d="M718.726,877.71c-2.756,0-5.025-2.275-5.025-5.037s2.27-5.037,5.025-5.037,5.025,2.275,5.025,5.037-2.269,5.037-5.025,5.037Z" style="fill:#5cffd1;"/><path d="M718.725,876.858c-2.31,0-4.174-1.869-4.174-4.184s1.864-4.184,4.174-4.184,4.174,1.869,4.174,4.184-1.864,4.184-4.174,4.184Z" style="fill:#5cffd1;"/><path d="M693.194,877.71c-2.756,0-5.025-2.275-5.025-5.037s2.27-5.037,5.025-5.037,5.025,2.275,5.025,5.037-2.27,5.037-5.025,5.037Z" style="fill:#5cffd1;"/><path d="M693.192,876.858c-2.31,0-4.174-1.869-4.174-4.184s1.864-4.184,4.174-4.184,4.174,1.869,4.174,4.184-1.864,4.184-4.174,4.184Z" style="fill:#5cffd1;"/><path d="M667.661,877.71c-2.756,0-5.025-2.275-5.025-5.037s2.269-5.037,5.025-5.037,5.025,2.275,5.025,5.037-2.27,5.037-5.025,5.037Z" style="fill:#5cffd1;"/><path d="M667.66,876.858c-2.31,0-4.174-1.869-4.174-4.184s1.864-4.184,4.174-4.184,4.174,1.869,4.174,4.184-1.864,4.184-4.174,4.184Z" style="fill:#5cffd1;"/><path d="M642.129,877.71c-2.756,0-5.025-2.275-5.025-5.037s2.269-5.037,5.025-5.037,5.025,2.275,5.025,5.037-2.27,5.037-5.025,5.037Z" style="fill:#5cffd1;"/><path d="M642.128,876.858c-2.31,0-4.174-1.869-4.174-4.184s1.864-4.184,4.174-4.184,4.174,1.869,4.174,4.184-1.864,4.184-4.174,4.184Z" style="fill:#5cffd1;"/><path d="M616.597,877.71c-2.756,0-5.025-2.275-5.025-5.037s2.269-5.037,5.025-5.037,5.025,2.275,5.025,5.037-2.27,5.037-5.025,5.037Z" style="fill:#5cffd1;"/><path d="M616.595,876.858c-2.31,0-4.174-1.869-4.174-4.184s1.864-4.184,4.174-4.184,4.174,1.869,4.174,4.184-1.864,4.184-4.174,4.184Z" style="fill:#5cffd1;"/><path d="M591.064,877.71c-2.756,0-5.025-2.275-5.025-5.037s2.27-5.037,5.025-5.037,5.025,2.275,5.025,5.037-2.27,5.037-5.025,5.037Z" style="fill:#5cffd1;"/><path d="M591.063,876.858c-2.31,0-4.174-1.869-4.174-4.184s1.864-4.184,4.174-4.184,4.174,1.869,4.174,4.184-1.864,4.184-4.174,4.184Z" style="fill:#5cffd1;"/><path d="M565.532,877.71c-2.756,0-5.025-2.275-5.025-5.037s2.269-5.037,5.025-5.037,5.025,2.275,5.025,5.037-2.27,5.037-5.025,5.037Z" style="fill:#5cffd1;"/><path d="M565.531,876.858c-2.31,0-4.174-1.869-4.174-4.184s1.864-4.184,4.174-4.184,4.174,1.869,4.174,4.184-1.864,4.184-4.174,4.184Z" style="fill:#5cffd1;"/><path d="M539.999,877.71c-2.756,0-5.025-2.275-5.025-5.037s2.269-5.037,5.025-5.037,5.025,2.275,5.025,5.037-2.27,5.037-5.025,5.037Z" style="fill:#5cffd1;"/><path d="M540.003,876.858c-2.31,0-4.174-1.869-4.174-4.184s1.864-4.184,4.174-4.184,4.174,1.869,4.174,4.184-1.864,4.184-4.174,4.184Z" style="fill:#5cffd1;"/><path d="M514.467,877.71c-2.756,0-5.025-2.275-5.025-5.037s2.269-5.037,5.025-5.037,5.025,2.275,5.025,5.037-2.27,5.037-5.025,5.037Z" style="fill:#5cffd1;"/><path d="M514.47,876.858c-2.31,0-4.174-1.869-4.174-4.184s1.864-4.184,4.174-4.184,4.174,1.869,4.174,4.184-1.864,4.184-4.174,4.184Z" style="fill:#5cffd1;"/><path d="M757.021,900.42c-1.175,0-2.107-.934-2.107-2.112s.932-2.112,2.107-2.112,2.107.934,2.107,2.112-.973,2.112-2.107,2.112Z" style="fill:#5cffd1;"/><circle cx="757.024" cy="898.307" r="1.256" style="fill:#5cffd1;"/><path d="M731.489,900.42c-1.175,0-2.107-.934-2.107-2.112s.932-2.112,2.107-2.112,2.107.934,2.107,2.112-.973,2.112-2.107,2.112Z" style="fill:#5cffd1;"/><circle cx="731.492" cy="898.307" r="1.256" style="fill:#5cffd1;"/><path d="M705.961,900.42c-1.175,0-2.107-.934-2.107-2.112s.973-2.112,2.107-2.112,2.107.934,2.107,2.112-.932,2.112-2.107,2.112Z" style="fill:#5cffd1;"/><path d="M705.96,899.566c-.689,0-1.256-.569-1.256-1.259s.567-1.259,1.256-1.259,1.256.569,1.256,1.259-.567,1.259-1.256,1.259Z" style="fill:#5cffd1;"/><path d="M680.428,900.42c-1.175,0-2.107-.934-2.107-2.112s.973-2.112,2.107-2.112,2.107.934,2.107,2.112-.932,2.112-2.107,2.112Z" style="fill:#5cffd1;"/><path d="M680.427,899.566c-.689,0-1.256-.569-1.256-1.259s.567-1.259,1.256-1.259,1.256.569,1.256,1.259-.567,1.259-1.256,1.259Z" style="fill:#5cffd1;"/><path d="M654.896,900.42c-1.175,0-2.107-.934-2.107-2.112s.932-2.112,2.107-2.112,2.107.934,2.107,2.112-.973,2.112-2.107,2.112Z" style="fill:#5cffd1;"/><path d="M654.895,899.566c-.689,0-1.256-.569-1.256-1.259s.567-1.259,1.256-1.259,1.256.569,1.256,1.259-.567,1.259-1.256,1.259Z" style="fill:#5cffd1;"/><path d="M629.364,900.42c-1.175,0-2.107-.934-2.107-2.112s.932-2.112,2.107-2.112,2.107.934,2.107,2.112-.973,2.112-2.107,2.112Z" style="fill:#5cffd1;"/><path d="M629.363,899.566c-.689,0-1.256-.569-1.256-1.259s.567-1.259,1.256-1.259,1.256.569,1.256,1.259-.567,1.259-1.256,1.259Z" style="fill:#5cffd1;"/><path d="M603.831,900.42c-1.175,0-2.107-.934-2.107-2.112s.932-2.112,2.107-2.112,2.107.934,2.107,2.112-.973,2.112-2.107,2.112Z" style="fill:#5cffd1;"/><path d="M603.83,899.566c-.689,0-1.256-.569-1.256-1.259s.567-1.259,1.256-1.259,1.256.569,1.256,1.259-.567,1.259-1.256,1.259Z" style="fill:#5cffd1;"/><path d="M578.299,900.42c-1.175,0-2.107-.934-2.107-2.112s.973-2.112,2.107-2.112,2.107.934,2.107,2.112-.932,2.112-2.107,2.112Z" style="fill:#5cffd1;"/><path d="M578.298,899.566c-.689,0-1.256-.569-1.256-1.259s.567-1.259,1.256-1.259,1.256.569,1.256,1.259-.567,1.259-1.256,1.259Z" style="fill:#5cffd1;"/><path d="M552.767,900.42c-1.175,0-2.107-.934-2.107-2.112s.973-2.112,2.107-2.112,2.107.934,2.107,2.112-.932,2.112-2.107,2.112Z" style="fill:#5cffd1;"/><path d="M552.766,899.566c-.689,0-1.256-.569-1.256-1.259s.567-1.259,1.256-1.259,1.256.569,1.256,1.259-.567,1.259-1.256,1.259Z" style="fill:#5cffd1;"/><path d="M527.234,900.42c-1.175,0-2.107-.934-2.107-2.112s.932-2.112,2.107-2.112,2.107.934,2.107,2.112-.932,2.112-2.107,2.112Z" style="fill:#5cffd1;"/><path d="M527.233,899.566c-.689,0-1.256-.569-1.256-1.259s.567-1.259,1.256-1.259,1.256.569,1.256,1.259-.567,1.259-1.256,1.259Z" style="fill:#5cffd1;"/><path d="M501.702,900.42c-1.175,0-2.107-.934-2.107-2.112s.932-2.112,2.107-2.112,2.107.934,2.107,2.112-.973,2.112-2.107,2.112Z" style="fill:#5cffd1;"/><circle cx="501.701" cy="898.307" r="1.256" style="fill:#5cffd1;"/><path d="M339.11,564.934c.756.471.688.505,1.479,1.23.722.632,71.183,64.526,104.901,92.085.33.253.625.535.921.821.165.126,8.896,7.639,23.314,7.639h185.212c.165,0,11.819-.598,22.291-12.125,14.675-16.163,28.53-32.798,41.106-49.437l.364-.471c6.041-7.955,10.835-15.186,8.338-23.044-1.183-3.693-3.937-12.28-22.688-14.015-16.677-1.545-334.307-28.507-353.583-30.149-3.544.126-11.063,1.545-14.185,10.89-3.35,10.069.79,15.06,2.531,16.605v-.029ZM469.72,702.321c-27.415,0-44.786-13.86-48.562-17.203-33.194-27.151-97.813-85.612-105.361-92.464-10.181-7.892-23.707-27.496-14.481-55.181,9.72-29.265,37.528-36.209,50.894-35.675.33,0,.654,0,.95.063,13.759,1.166,337.492,28.662,354.765,30.242,27.973,2.59,47.345,16.445,54.569,39.018,8.174,25.537-7.253,45.836-13.826,54.486l-.359.471c-13.235,17.49-27.779,34.946-43.176,51.896-21.573,23.739-47.51,24.182-50.269,24.308h-185.144v.039Z" style="fill:#5cffd1;"/><path d="M438.282,399.768c-4.237,0-7.485.821-9.72,2.43-4.237,3.096-7.127,10.672-8.208,21.402-2.167,21.591,7.156,24.371,17.763,25.474,15.795,1.643,202.156,17.995,209.903,18.437.296-.034,10.346.063,12.115-9.471,1.348-7.387-6.007-10.735-12.411-12.28-29.548-7.042-185.872-42.619-201.497-45.268-2.923-.505-5.58-.758-7.912-.758l-.034.034ZM647.957,503.152c-.625,0-1.217,0-1.774-.034-8.634-.379-201.007-17.456-212.07-18.593-35.395-3.659-54.341-27.715-50.661-64.337,2.133-21.31,9.783-36.904,22.689-46.342,11.984-8.777,27.648-11.619,46.492-8.427,17.138,2.906,176.282,39.178,203.959,45.744,23.741,5.652,45.343,24.245,39.991,53.096-5.284,28.662-31.88,38.892-48.625,38.892Z" style="fill:#5cffd1;"/></svg>