<?xml version="1.0" encoding="UTF-8"?>
<svg id="Layer_1" xmlns="http://www.w3.org/2000/svg" version="1.1" viewBox="0 0 1080 1080">
  <!-- Generator: Adobe Illustrator 29.0.0, SVG Export Plug-In . SVG Version: 2.1.0 Build 186)  -->
  <defs>
    <style>
      .st0 {
        fill: #fff;
      }
    </style>
  </defs>
  <path class="st0" d="M540,0h0c298.2,0,540,241.8,540,540h0c0,298.2-241.8,540-540,540h0C241.8,1080,0,838.2,0,540h0C0,241.8,241.8,0,540,0Z"/>
  <path d="M499.8,606.4c-14.4-7.1-29.3-7-44.1-7.4-9.5-.3-13.5-3.9-13.4-13.9.5-48.5.2-97,.9-145.5.2-18.5,7.4-26,26-26.6,39.6-1.4,79.1-4,118.7.9,42.4,5.2,65.6,28.9,69.8,71.5,3.5,35.4,2.8,70.9,2.7,106.4,0,12.6,2.7,18.1,16.6,17.7,33.1-.9,66.2-.4,99.3-.5,4.1,0,8.3-.5,12.2-1.7,9.8-2.9,14.5-9.8,13.6-20-1-10.9-7.9-15.2-18.1-15.3-16.5-.3-33-.7-49.5-3-60.5-8.8-89.3-74.1-54.9-125.1,14.2-21,35.8-27.9,59.6-29.8,31.9-2.6,63.8-1.6,95.7,0,18.5.9,28.5,10.5,28.9,28.3.5,16.9-10.3,29.2-28,30-16.5.8-33.1-.3-49.7-.1-13.6.2-27.2-.7-40.6,2.5-10,2.4-18.1,6.3-17.7,18.4.4,10.3,7.3,16,21,16.7,17.7.9,35.5.2,53,3.4,39,7,61.6,35,61.6,76.7,0,43.2-19.1,67.4-59.8,75-8.1,1.5-16.4,2.8-24.6,2.8-48.5.3-97,.5-145.5.3-25.7,0-33.9-8.3-34.1-34.1-.3-41.4,0-82.8-.3-124.2-.2-29-8.1-36.7-36.9-37-14.2-.1-28.4,0-42.6.2-16.1.2-16.4.3-16.4,17.3-.2,31.9,0,63.9-.1,95.8,0,6.3,1.5,13-3.4,20.6h0Z"/>
  <path d="M310.3,609.2h151.1c7.7,0,15.3-.2,22.6,3.3,12.3,5.9,18.9,16.8,17.6,29.9-1.2,12.7-10.4,22.2-24,24.8-3.5.7-7.1.6-10.6.7-69.2.4-138.4.8-207.6,1.2-5.3,0-10.7-.2-15.9-.8-21.9-2.6-32.8-21.2-23.6-41.2,2.6-5.8,6.9-11,10.9-16.1,35.4-45.1,70.9-90.1,106.6-135.3-3.9-5.1-8.9-3-13.1-3-26.6-.2-53.2,0-79.9-.2-17.9-.2-27.5-9.7-28.2-27-.8-17.9,8.7-30.3,26.5-31.2,52.7.2,108.4.2,163.2,0,24.3,1.2,33.4,20.3,21.3,41.7-4.1,7.2-9.4,13.6-14.4,20.2-30,38.9-60,77.7-90,116.5-3.5,4.5-6.7,9.3-12.2,16.9h0s0,0,0,0Z"/>
</svg>