<?xml version="1.0" encoding="UTF-8"?><svg id="Layer_1" xmlns="http://www.w3.org/2000/svg" width="1080" height="1080" viewBox="0 0 1080 1080"><path d="M540,0h0c298.22,0,540,241.78,540,540h0c0,298.22-241.78,540-540,540h0C241.78,1080,0,838.22,0,540h0C0,241.78,241.78,0,540,0Z"/><g id="Page-1"><g id="BandWebsite_Desktop_UI_Home"><path id="Logo1" d="M764.06,420.91c0-46.66-21.6-86.54-56.59-111.6l93.31-93.31h-55.01l-73.3,75.02c-13.39-5.04-28.37-6.62-43.34-6.62h-253.15v364.75l304.85-309.89c28.37,16.7,44.93,48.24,44.93,83.23,0,55.01-43.34,98.35-98.21,98.35h-8.35l-339.84,343.15h55.01l66.67-68.26h226.51c75.02,0,136.66-61.63,136.66-138.24,0-49.97-26.64-94.9-66.67-118.22,38.3-25.06,66.67-68.26,66.67-118.22h0l-.14-.14ZM412.56,550.8v-229.82h226.51s-226.51,229.82-226.51,229.82ZM724.03,657.5c0,55.01-43.34,98.21-98.21,98.21h-186.62l194.98-196.56c49.97,5.04,90,46.66,90,98.21h0l-.14.14Z" style="fill:#fff;"/></g></g></svg>