<?xml version="1.0" encoding="UTF-8"?><svg id="Layer_1" xmlns="http://www.w3.org/2000/svg" width="1080" height="1080" viewBox="0 0 1080 1080"><path d="M540,0h0c298.22,0,540,241.78,540,540h0c0,298.22-241.78,540-540,540h0C241.78,1080,0,838.22,0,540h0C0,241.78,241.78,0,540,0Z"/><path id="Path-1-Copy-9" d="M274.46,744.19c26.35,27.79,172.37,162.43,401.04,7.2,165.31-128.88,160.99-408.24,145.3-492.19-5.04,12.1-197.28,433.15-546.34,485.86h0v-.72h0v-.14ZM820.08,258.34c-2.16-.72-215.14-29.95-425.23,105.41-130.32,84.1-148.18,207.36-141.7,289.15,306.29-34.13,559.87-385.34,567.07-394.56h-.14Z" style="fill:#9fc364;"/></svg>