<?xml version="1.0" encoding="UTF-8"?><svg id="Layer_1" xmlns="http://www.w3.org/2000/svg" width="1080" height="1080" xmlns:xlink="http://www.w3.org/1999/xlink" viewBox="0 0 1080 1080"><defs><linearGradient id="linear-gradient" x1="764.34" y1="2174.84" x2="579.44" y2="1891.16" gradientTransform="translate(0 -1494)" gradientUnits="userSpaceOnUse"><stop offset=".41" stop-color="#e37a39"/><stop offset=".5" stop-color="#e07538"/><stop offset=".62" stop-color="#d76535"/><stop offset=".75" stop-color="#ca4d33"/><stop offset=".81" stop-color="#c34032"/></linearGradient></defs><path d="M540,0h0c298.22,0,540,241.78,540,540h0c0,298.22-241.78,540-540,540h0C241.78,1080,0,838.22,0,540h0C0,241.78,241.78,0,540,0Z"/><path d="M324.29,370.37h92.16l-71.71,175.39s-37.44-.58-48.96-33.41c-3.17-9.79-3.46-20.16-.72-30.1l29.23-112.03h0v.14Z" style="fill:#c34032;"/><path d="M681.98,374.11l-117.36-2.02,26.35-87.12c8.64-28.22-7.2-58.03-35.42-66.67-5.04-1.58-10.22-2.3-15.41-2.3h-106.99l-122.4,439.49s-43.92,187.92,122.4,205.06c0,0,262.8,53.71,347.04-263.81,0,0,44.5-192.1-98.21-222.62h0ZM601.78,592.13s-4.61,81.07-65.81,95.33c-9.07,2.3-18.58,1.3-26.93-2.74-9.65-4.9-19.44-15.12-19.3-36.43.14-6.19,1.15-12.24,2.88-18.14l22.61-84.38h61.63s27.94,9.07,24.77,46.37h.14Z" style="fill:#e37a39;"/><path d="M785.95,508.18c-11.23-129.02-103.97-134.06-103.97-134.06l-117.36-2.02-50.4,174.67h61.49c11.23.58,31.97,19.3,25.2,52.27" style="fill:url(#linear-gradient);"/></svg>