<?xml version="1.0" encoding="UTF-8"?><svg id="Layer_1" xmlns="http://www.w3.org/2000/svg" width="1080" height="1080" viewBox="0 0 1080 1080"><circle cx="540" cy="540" r="540"/><g id="_编组"><path d="M782.58,394.4c-.78-11.99-2.66-23.4-5.58-34.42,2.98,10.24,4.93,21.65,5.58,34.42Z" style="fill:#fff;"/><path d="M781.74,522.11l-.19-.06c-1.1-.97-2.27-1.82-3.44-2.72,21.91-31.51,32.87-69.82,32.93-115.07,0-67.03-23.01-119.48-69.04-157.33l-.39-.06c-46.03-37.92-109.36-56.85-189.88-56.85h-200.77v28.07h197.14c68.52,0,130.56,14.13,168.42,46.8,27.55,23.79,50.18,56.14,60.48,95.1,2.98,10.24,4.99,21.65,5.58,34.42-.78-11.99-2.66-23.4-5.58-34.42-10.37-35.98-32.93-57.44-52.38-72.22l-.06-.26c-28.65-21.72-61.52-39.22-154.55-39.22h-154.87v27.36s69.24-.91,151.37,0c79.35.84,108.46,9.79,135.16,29.5,34.16,25.28,55.36,56.46,55.36,100.09,0,33.65-13.81,59.38-36.89,81.29-2.66-1.1-5.38-2.07-8.1-3.05.78-.45,1.69-.97,2.53-1.36,25.09-13.87,41.88-42.33,41.88-78.83,0-40.84-22.82-65.35-45.77-79.67h.13c-21.46-13.42-40.32-22.43-129.26-22.43h-111.37v17.89h108.26c78.76,0,108.58,14,117.66,19.58,17.89,10.83,41.04,28.52,41.04,64.5,0,23.01-13.42,51.86-33.71,63.21-5.45,3.05-12.12,6.03-20.49,8.62-27.49-6.48-57.89-9.79-91.28-9.79h-134.45v20.68h-228.13v17.89h364.91c30.08,0,51.8-1.36,68.72-4.08,10.76,2.01,21.07,4.54,30.86,7.52-14.85,8.95-32.09,14.13-48.56,17.18-10.63-.65-22.24-.97-35.01-.97h-210.56v27.36s32.93-.19,76.11-.32v6.03s53.09.78,85.96,0c29.89-.65,54.91-1.75,76.88-4.8,21.52,1.1,38.38,3.05,52.32,6.03-20.1,9.98-44.02,17.24-69.82,21.98h-141.32v7.07h-167.12v28.07h228.19c45.64,0,85.77-5.32,120.71-16.01h.13c47.32,3.7,67.61,13.03,74.75,17.31,17.63,10.5,41.04,27.49,41.04,62.23,0,22.43-13.42,50.11-33.71,61-18.28,9.92-51.8,18.86-110.72,18.86h-363.68v17.37h364.85c71.12,0,95.55-7.58,120.58-20.94,25.02-13.29,41.81-40.91,41.81-76.17,0-39.35-22.75-63.01-45.64-76.82v-.26c-12.77-7.71-24.57-13.94-50.5-17.7,8.75-4.28,16.98-8.95,24.89-14,5.9,3.11,11.28,6.61,16.6,10.5,34.23,25.28,55.43,56.4,55.43,100.03s-21.52,71.7-55.88,97.11c-35.14,25.87-88.81,26.19-110.72,26.9h-114.94v27.36s53.16.71,85.96,0c75.26-1.75,119.99-6.22,161.61-37.08,39.03-29.04,59.71-67.23,59.71-115.65.06.91.06,1.82.06,2.66,0,58.02-24.83,101-64.18,133.54-39.35,32.54-109.62,46.87-179.96,46.87h-226.25v28.07h227.93c84.79,0,151.05-18.41,198.69-55.23s71.57-88.62,71.7-155.39c-.13-66.97-23.14-119.41-69.17-157.27ZM721,538.12c-5.58-2.07-11.67-3.95-18.41-5.64,7.07-3.7,13.87-7.97,20.55-12.97.19-.13.39-.26.58-.45,3.89,1.94,7.65,3.89,11.28,6.03-4.41,4.54-9.08,8.88-14,13.03ZM782.84,403.86c0-2.01-.06-3.95-.06-5.9.19,2.85.19,5.64.19,8.49,0,38.12-10.76,69.82-29.3,96.27-2.33-1.36-4.73-2.72-7.2-4.02,23.92-25.8,36.37-57.24,36.37-94.84ZM815.71,630.95c-10.96-33.45-32.41-53.87-51.15-68.07l.06-.19c-4.99-3.76-10.11-7.46-15.69-10.89,3.44-2.98,6.81-6.16,9.92-9.34,25.41,22.56,46.35,52.57,56.85,88.49,4.21,12.97,6.87,27.88,7.07,45.12-.45-15.88-2.98-30.99-7.07-45.12Z" style="fill:#fff;"/><path d="M782.58,394.4c-.78-11.99-2.66-23.4-5.58-34.42,2.98,10.24,4.93,21.65,5.58,34.42Z" style="fill:#fff;"/></g><path d="M822.77,676.07c-.45-15.88-2.98-30.99-7.07-45.12,4.21,12.97,6.87,27.88,7.07,45.12Z" style="fill:#fff;"/><path d="M822.77,676.07c-.45-15.88-2.98-30.99-7.07-45.12,4.21,12.97,6.87,27.88,7.07,45.12Z" style="fill:#fff;"/><polygon id="Fill-83" points="444.45 655.52 641.71 655.52 641.71 640.22 444.45 640.22 444.45 655.52" style="fill:#fff;"/><polygon id="Fill-84" points="525.8 708.94 640.61 708.94 640.61 695.84 525.8 695.84 525.8 708.94" style="fill:#fff;"/><polygon id="Fill-85" points="352.33 655.52 410.8 655.52 410.8 640.22 352.33 640.22 352.33 655.52" style="fill:#fff;"/><polygon id="Fill-86" points="315.89 710.04 493.45 710.04 493.45 694.74 315.89 694.74 315.89 710.04" style="fill:#fff;"/><polygon id="Fill-87" points="359.65 317.84 428.82 317.84 428.82 305.26 359.65 305.26 359.65 317.84" style="fill:#fff;"/><polygon id="Fill-88" points="311.49 420.14 469.92 420.14 469.92 405.48 311.49 405.48 311.49 420.14" style="fill:#fff;"/><polygon id="Fill-89" points="315.89 829.58 482.95 829.58 482.95 811.3 315.89 811.3 315.89 829.58" style="fill:#fff;"/><polygon id="Fill-90" points="274.27 889.03 316.02 889.03 316.02 862.51 274.27 862.51 274.27 889.03" style="fill:#fff;"/><polygon id="Fill-91" points="378.65 375.34 640.94 375.34 640.94 360.69 378.65 360.69 378.65 375.34" style="fill:#fff;"/><polygon id="Fill-92" points="509.86 420.14 636.01 420.14 636.01 405.48 509.86 405.48 509.86 420.14" style="fill:#fff;"/></svg>