<?xml version="1.0" encoding="UTF-8"?><svg id="Layer_1" xmlns="http://www.w3.org/2000/svg" width="1080" height="1080" viewBox="0 0 1080 1080"><path d="M540,0h0c298.22,0,540,241.78,540,540h0c0,298.22-241.78,540-540,540h0C241.78,1080,0,838.22,0,540h0C0,241.78,241.78,0,540,0Z"/><rect x="259.2" y="258.48" width="561.6" height="561.6" style="fill:#33019e;"/><path d="M561.6,820.08h-66.24c0-38.88-1.44-76.32-1.44-115.2v-2.88c-7.2-1.44-12.96-2.88-23.04-5.76v-112.32h0c-7.2-1.44-15.84-2.88-23.04-4.32v-18.72h23.04v-23.04h23.04v23.04h0v23.04h46.08v-46.08h70.56v46.08h47.52v116.64h-23.04v2.88c-1.44,5.76-2.88,11.52-4.32,17.28-7.2,1.44-12.96,2.88-18.72,4.32-1.44,7.2-2.88,12.96-4.32,20.16h-61.92c-1.44-7.2-2.88-11.52-4.32-17.28v-2.88h-23.04v23.04h0c7.2,1.44,12.96,2.88,20.16,4.32,1.44,5.76,2.88,11.52,2.88,17.28v2.88c5.76,1.44,12.96,2.88,21.6,5.76-1.44,12.96-1.44,27.36-1.44,41.76ZM564.48,655.92h23.04v-24.48h-24.48v2.88c0,7.2,1.44,14.4,1.44,21.6ZM542.88,678.96c-1.44,7.2-1.44,14.4-2.88,23.04h72c-1.44-8.64-2.88-15.84-2.88-23.04h-66.24Z" style="fill:#e1ad73;"/><path d="M540,772.56v-24.48h70.56v24.48h-23.04v46.08h-23.04v-47.52c-8.64,1.44-15.84,1.44-24.48,1.44Z" style="fill:#040003;"/><path d="M493.92,703.44v118.08h-23.04v-116.64h0c7.2-1.44,14.4-1.44,23.04-1.44Z" style="fill:#040003;"/><path d="M493.92,820.08v-115.2c0,38.88,1.44,76.32,1.44,115.2h-1.44Z" style="fill:#d7af85;"/><path d="M540,772.56h23.04v47.52h-2.88v-41.76c-7.2-2.88-12.96-4.32-20.16-5.76Z" style="fill:#d7af85;"/><path d="M610.56,772.56v-24.48h23.04v-23.04h23.04v-185.76h46.08v69.12c7.2,1.44,14.4,1.44,21.6,2.88v162.72h-44.64c-1.44,8.64-1.44,14.4-2.88,23.04h-69.12c2.88-8.64,2.88-17.28,2.88-24.48Z" style="fill:#6a0007;"/><path d="M633.6,399.6c7.2,1.44,15.84,1.44,23.04,2.88v20.16c7.2,1.44,12.96,2.88,21.6,4.32v41.76h-228.96v-41.76c8.64-1.44,14.4-2.88,21.6-4.32v-2.88c1.44-5.76,2.88-11.52,2.88-18.72,14.4-1.44,28.8-1.44,43.2-2.88h23.04v23.04h93.6v-21.6h0Z" style="fill:#536169;"/><path d="M704.16,539.28h-280.8c-5.76,0-12.96-1.44-18.72-1.44,0-7.2-1.44-14.4-2.88-21.6h0c-7.2-7.2-15.84-7.2-23.04,0h-24.48v-23.04h116.64v21.6h210.24v-21.6h93.6v17.28c-15.84,2.88-31.68,4.32-46.08,7.2v2.88c-1.44,5.76-2.88,11.52-4.32,17.28-7.2-1.44-14.4,0-20.16,1.44Z" style="fill:#556169;"/><path d="M470.88,493.2h-23.04v-24.48h233.28c0,7.2,1.44,15.84,1.44,23.04h-1.44c-70.56,1.44-141.12,1.44-210.24,1.44Z" style="fill:#263742;"/><path d="M470.88,703.44h-23.04v-96.48c0-7.2,0-14.4,1.44-21.6h23.04c-2.88,40.32-1.44,79.2-1.44,118.08h0Z" style="fill:#040003;"/><path d="M447.84,586.8c0,7.2,0,14.4-1.44,21.6-1.01,0-1.87.43-2.88,1.44-2.88,0-7.2,1.44-10.08,1.44-1.44,0-2.88-1.44-4.32-1.44v-67.68c14.4,1.44,28.8,1.44,41.76,2.88v18.72h-23.04v18.72s0,1.44,0,4.32Z" style="fill:#6a0007;"/><path d="M540,376.56h70.56v23.04h-70.56v-23.04Z" style="fill:#3c4e56;"/><path d="M516.96,399.6c-14.4,1.44-28.8,1.44-43.2,2.88-1.44,7.2-2.88,12.96-2.88,18.72v-17.28c7.2-1.44,14.4-2.88,21.6-5.76,1.44-5.76,1.44-12.96,2.88-20.16h21.6s0,21.6,0,21.6Z" style="fill:#3c4e56;"/><path d="M516.96,399.6v-23.04h23.04v23.04h-23.04Z" style="fill:#263742;"/><path d="M610.56,399.6v-23.04h24.48v23.04h-24.48Z" style="fill:#536169;"/><path d="M449.28,468.72h-1.44v-47.52h23.04c-5.76,1.44-12.96,2.88-21.6,4.32v43.2Z" style="fill:#536169;"/><path d="M607.68,678.96c1.44,7.2,2.88,14.4,2.88,23.04h-72c1.44-7.2,1.44-15.84,2.88-23.04h66.24Z" style="fill:#4c0607;"/><path d="M493.92,539.28h46.08v23.04c-7.2,0-15.84,0-23.04,1.44h-23.04v-24.48Z" style="fill:#b47b3e;"/><path d="M610.56,539.28h46.08v23.04h-46.08v-23.04Z" style="fill:#b47b3e;"/><path d="M540,726.48v24.48h-23.04v-23.04h0c8.64-1.44,15.84-1.44,23.04-1.44Z" style="fill:#040003;"/><path d="M516.96,563.76c7.2,0,15.84,0,23.04-1.44v23.04h-23.04v-21.6Z" style="fill:#fefefe;"/><path d="M656.64,703.44v23.04h-23.04v-24.48h21.6c0,1.44,1.44,1.44,1.44,1.44Z" style="fill:#040003;"/><path d="M584.64,632.88h2.88v24.48h-23.04v-24.48h20.16Z" style="fill:#040003;"/><path d="M633.6,562.32h23.04v23.04h-23.04v-23.04Z" style="fill:#fefefe;"/><path d="M470.88,703.44v-116.64,112.32c10.08,2.88,17.28,4.32,23.04,5.76-8.64-1.44-15.84-1.44-23.04-1.44Z" style="fill:#d7af85;"/><path d="M427.68,608.4c-1.44,1.44-2.88,1.44-4.32,2.88v-72h46.08v4.32c-14.4-1.44-27.36-1.44-41.76-2.88v67.68Z" style="fill:#4c0607;"/><path d="M540,749.52v-21.6c1.44,5.76,2.88,11.52,4.32,17.28h61.92c1.44-7.2,2.88-12.96,4.32-20.16h0v23.04h0c-23.04,1.44-47.52,1.44-70.56,1.44Z" style="fill:#d7af85;"/><path d="M516.96,582.48v4.32h-23.04v-23.04h4.32c-1.44,5.76-1.44,12.96-2.88,21.6,8.64-1.44,15.84-2.88,21.6-2.88Z" style="fill:#792fb8;"/><path d="M516.96,749.52h23.04v21.6c-1.44-5.76-2.88-11.52-2.88-17.28-7.2-1.44-12.96-2.88-20.16-4.32Z" style="fill:#d7af85;"/><path d="M633.6,704.88v21.6h-23.04c5.76-1.44,12.96-2.88,18.72-4.32,1.44-5.76,2.88-11.52,4.32-17.28Z" style="fill:#d7af85;"/><path d="M447.84,586.8v-4.32c7.2,1.44,15.84,2.88,23.04,4.32h-23.04Z" style="fill:#d7af85;"/><path d="M493.92,585.36h23.04c-7.2,1.44-15.84,1.44-23.04,0Z" style="fill:#d7af85;"/><path d="M655.2,702h-21.6c7.2,1.44,14.4,1.44,21.6,0Z" style="fill:#d7af85;"/><path d="M563.04,635.76v21.6c1.44-8.64,0-15.84,0-21.6Z" style="fill:#d7af85;"/><path d="M610.56,726.48h23.04v23.04h-23.04v-23.04Z" style="fill:#040003;"/><path d="M540,399.6h70.56v23.04h-70.56v-23.04Z" style="fill:#263742;"/><path d="M610.56,422.64v-23.04h23.04v23.04h-23.04Z" style="fill:#3c4e56;"/><path d="M470.88,493.2h210.24v21.6h-210.24s0-21.6,0-21.6Z" style="fill:#3c4e56;"/><path d="M400.32,516.24h-24.48c8.64-7.2,17.28-7.2,24.48,0Z" style="fill:#556169;"/><path d="M400.32,539.28v-23.04c0,7.2,1.44,14.4,2.88,21.6v1.44h-2.88Z" style="fill:#556169;"/><path d="M401.76,539.28v-1.44c5.76,0,12.96,1.44,18.72,1.44h-18.72Z" style="fill:#536169;"/><path d="M516.96,582.48c-5.76,1.44-12.96,1.44-21.6,2.88,1.44-8.64,1.44-15.84,2.88-21.6h18.72v18.72Z" style="fill:#792fb8;"/><path d="M633.6,585.36h-23.04v-23.04h23.04v4.32c-5.76-1.44-12.96-1.44-20.16-2.88v20.16c7.2-1.44,14.4-1.44,20.16-2.88v4.32h0Z" style="fill:#792fb8;"/><path d="M633.6,582.48c-5.76,1.44-12.96,1.44-20.16,2.88v-20.16c7.2,1.44,14.4,1.44,20.16,2.88v14.4Z" style="fill:#792fb8;"/><rect x="305.28" y="258.48" width="24.48" height="95.04" style="fill:#58d350;"/><rect x="305.28" y="401.04" width="24.48" height="208.8" style="fill:#58d350;"/><rect x="305.28" y="632.88" width="24.48" height="95.04" style="fill:#58d350;"/><rect x="305.28" y="749.52" width="24.48" height="69.12" style="fill:#58d350;"/><rect x="352.8" y="740.88" width="24.48" height="79.2" style="fill:#58d350;"/><rect x="352.8" y="514.8" width="24.48" height="142.56" style="fill:#58d350;"/><rect x="352.8" y="421.2" width="24.48" height="72" style="fill:#58d350;"/><rect x="352.8" y="258.48" width="24.48" height="142.56" style="fill:#58d350;"/><rect x="397.44" y="258.48" width="24.48" height="188.64" style="fill:#58d350;"/><rect x="397.44" y="540.72" width="24.48" height="139.68" style="fill:#58d350;"/><rect x="397.44" y="702" width="24.48" height="116.64" style="fill:#58d350;"/></svg>