<?xml version="1.0" encoding="UTF-8"?><svg id="Layer_1" xmlns="http://www.w3.org/2000/svg" width="1080" height="1080" viewBox="0 0 1080 1080"><path d="M540,0h0c298.22,0,540,241.78,540,540h0c0,298.22-241.78,540-540,540h0C241.78,1080,0,838.22,0,540h0C0,241.78,241.78,0,540,0Z"/><path d="M723.31,617.76v-221.76h44.21v221.76h-44.21Z" style="fill:#eaa93b;"/><path d="M203.33,684h-95.33v-221.76h91.87c44.21,0,70.42,24.19,70.42,62.21s-16.56,40.75-28.37,45.65c13.82,6.19,31.1,20.02,31.1,49.68s-28.94,64.22-69.7,64.22h0ZM196.42,500.26h-43.49v51.12h43.49c19.3,0,29.66-10.37,29.66-25.63s-10.37-25.63-29.66-25.63h0v.14ZM199.15,590.83h-46.22v54.58h46.22c20.02,0,29.66-12.38,29.66-27.65s-9.65-26.93-29.66-26.93Z" style="fill:#fff;"/><path d="M409.1,592.85v91.15h-44.21v-91.15l-68.4-130.46h48.38l42.77,89.71,42.19-89.86h48.38l-68.4,130.61h-.72Z" style="fill:#fff;"/><path d="M604.51,684h-95.33v-221.76h91.87c44.21,0,70.42,24.19,70.42,62.21s-16.56,40.75-28.37,45.65c13.82,6.19,31.1,20.02,31.1,49.68s-28.94,64.22-69.7,64.22h0ZM597.02,500.26h-43.49v51.12h43.49c19.3,0,29.66-10.37,29.66-25.63s-10.37-25.63-29.66-25.63h0v.14ZM599.76,590.83h-46.22v54.58h46.22c20.02,0,29.66-12.38,29.66-27.65s-9.65-26.93-29.66-26.93Z" style="fill:#fff;"/><path d="M911.23,500.26v183.02h-44.21v-183.02h-59.33v-38.74h164.45v38.74h-60.91Z" style="fill:#fff;"/></svg>