<?xml version="1.0" encoding="UTF-8"?><svg id="Layer_1" xmlns="http://www.w3.org/2000/svg" width="1080" height="1080" viewBox="0 0 1080 1080"><path d="M540,0h0c298.22,0,540,241.78,540,540h0c0,298.22-241.78,540-540,540h0C241.78,1080,0,838.22,0,540h0C0,241.78,241.78,0,540,0Z"/><circle cx="301.68" cy="622.8" r="131.04" style="fill:#454545;"/><circle cx="778.32" cy="622.8" r="131.04" style="fill:#ddd;"/><path d="M831.6,519.12c-15.84-37.44-38.88-72-67.68-100.8-28.8-28.8-63.36-51.84-100.8-67.68-38.88-17.28-80.64-24.48-123.84-24.48s-84.96,8.64-123.84,24.48c-37.44,15.84-72,38.88-100.8,67.68-28.8,28.8-51.84,63.36-67.68,100.8-12.96,31.68-21.6,63.36-24.48,97.92h38.88c5.76-64.8,34.56-123.84,80.64-169.92,51.84-51.84,122.4-82.08,197.28-82.08s144,28.8,197.28,82.08c46.08,46.08,74.88,106.56,80.64,169.92h40.32c-4.32-33.12-12.96-66.24-25.92-97.92Z" style="fill:#e9bcff;"/><path d="M735.12,447.12c-53.28-53.28-122.4-82.08-197.28-82.08s-144,28.8-197.28,82.08c-46.08,46.08-74.88,106.56-80.64,169.92h40.32c5.76-53.28,30.24-103.68,67.68-142.56,44.64-44.64,105.12-69.12,168.48-69.12s123.84,24.48,168.48,69.12c38.88,38.88,61.92,87.84,67.68,142.56h40.32c-4.32-64.8-31.68-123.84-77.76-169.92Z" style="fill:#2e9af3;"/><path d="M706.32,474.48c-44.64-44.64-105.12-70.56-168.48-70.56s-123.84,24.48-168.48,70.56c-38.88,38.88-61.92,89.28-69.12,142.56h40.32c12.96-96.48,96.48-172.8,197.28-172.8s184.32,74.88,197.28,172.8h40.32c-5.76-53.28-30.24-103.68-69.12-142.56Z" style="fill:#57c971;"/><path d="M537.84,444.24c-100.8,0-184.32,74.88-197.28,172.8h40.32c12.96-74.88,77.76-132.48,155.52-132.48s144,57.6,155.52,132.48h40.32c-10.08-96.48-93.6-172.8-194.4-172.8Z" style="fill:#feca42;"/></svg>