<?xml version="1.0" encoding="UTF-8"?><svg id="Layer_1" xmlns="http://www.w3.org/2000/svg" width="1080" height="1080" viewBox="0 0 1080 1080"><path d="M540,0h0c298.08,0,540,241.92,540,540h0c0,298.08-241.92,540-540,540h0C241.92,1080,0,838.08,0,540h0C0,241.92,241.92,0,540,0Z"/><path d="M264.96,406.08c-4.32-5.76-10.08-10.08-15.84-12.96-5.76-1.44-12.96-4.32-18.72-4.32s-12.96,0-21.6,2.88c-5.76,1.44-11.52,5.76-15.84,10.08s-7.2,10.08-10.08,15.84c-4.32,12.96-4.32,27.36,0,40.32,1.44,5.76,5.76,11.52,10.08,15.84s10.08,8.64,15.84,10.08,12.96,4.32,21.6,2.88c5.76,0,12.96,0,18.72-4.32,5.76-2.88,11.52-7.2,15.84-12.96l-10.08-8.64c-1.44,4.32-5.76,5.76-10.08,8.64s-10.08,4.32-12.96,4.32-10.08,0-14.4-1.44-8.64-4.32-11.52-7.2-5.76-7.2-7.2-12.96c-2.88-10.08-2.88-20.16,0-28.8,0-4.32,4.32-8.64,7.2-12.96,2.88-2.88,7.2-5.76,11.52-7.2s10.08-2.88,14.4-1.44c5.76,0,10.08,0,12.96,4.32,4.32,1.44,7.2,5.76,10.08,8.64l10.08-8.64h0ZM298.08,486.72h12.96v-47.52c0-7.2,0-12.96,4.32-20.16,1.44-4.32,5.76-8.64,10.08-10.08,2.88-1.44,5.76-4.32,10.08-4.32h5.76c10.08,0,17.28,2.88,20.16,8.64,4.32,7.2,5.76,15.84,5.76,24.48v51.84h12.96v-59.04c0-10.08-1.44-20.16-8.64-27.36-5.76-5.76-14.4-10.08-25.92-10.08s-5.76,0-10.08,0c-2.88,0-5.76,1.44-8.64,4.32-2.88,0-5.76,2.88-7.2,5.76s-4.32,4.32-5.76,7.2h0v-73.44h-12.96v151.2h0s-2.88-1.44-2.88-1.44ZM482.4,440.64v7.2c0,4.32,0,8.64-1.44,11.52,0,2.88-2.88,7.2-5.76,10.08s-5.76,5.76-8.64,5.76c-4.32,1.44-8.64,1.44-12.96,1.44h-8.64c-1.44,0-5.76-1.44-7.2-2.88s-4.32-2.88-5.76-5.76-1.44-5.76-1.44-8.64v-5.76c0-1.44,1.44-4.32,4.32-5.76,2.88-2.88,7.2-5.76,11.52-5.76s10.08-1.44,14.4-1.44c0,0,21.6,0,21.6,0ZM476.64,429.12h-18.72c-5.76,0-12.96,1.44-18.72,4.32-5.76,1.44-10.08,5.76-14.4,10.08-4.32,5.76-5.76,11.52-5.76,17.28s0,8.64,1.44,12.96c1.44,2.88,4.32,5.76,7.2,8.64s5.76,4.32,10.08,5.76c4.32,1.44,8.64,1.44,12.96,1.44,5.76,0,12.96,0,18.72-4.32,5.76-2.88,10.08-7.2,12.96-12.96h0v14.4h12.96v-63.36c0-5.76,0-10.08-2.88-14.4s-4.32-7.2-7.2-10.08-7.2-5.76-10.08-5.76c-4.32,0-8.64-1.44-12.96-1.44-17.28,0-31.68,4.32-40.32,12.96l8.64,10.08c7.2-7.2,17.28-11.52,28.8-11.52,15.84,0,24.48,8.64,24.48,24.48v2.88h-5.76l-1.44-1.44ZM540,393.12v93.6h12.96v-47.52c0-7.2,0-12.96,4.32-20.16,1.44-4.32,5.76-8.64,10.08-10.08,2.88-1.44,5.76-4.32,10.08-4.32h5.76c10.08,0,17.28,2.88,20.16,8.64,4.32,7.2,5.76,15.84,5.76,24.48v51.84h12.96v-59.04c0-10.08-1.44-20.16-8.64-27.36-5.76-5.76-14.4-10.08-25.92-10.08s-5.76,0-10.08,0c-2.88,0-5.76,1.44-8.64,4.32-2.88,0-5.76,2.88-7.2,5.76-1.44,1.44-4.32,4.32-5.76,7.2h0v-14.4h-15.84s0-2.88,0-2.88ZM679.68,424.8c1.44-4.32,4.32-8.64,7.2-11.52s7.2-5.76,10.08-7.2c4.32-1.44,8.64-2.88,12.96-2.88s10.08,0,14.4,2.88,8.64,4.32,11.52,7.2c2.88,2.88,5.76,7.2,7.2,11.52,1.44,4.32,1.44,10.08,1.44,12.96s0,10.08-1.44,14.4c-1.44,4.32-4.32,8.64-7.2,11.52-7.2,5.76-15.84,10.08-24.48,10.08s-10.08,0-12.96-2.88-7.2-4.32-10.08-7.2-5.76-7.2-7.2-11.52c-5.76-10.08-5.76-20.16,0-28.8h0s-1.44,1.44-1.44,1.44ZM663.84,516.96c5.76,5.76,12.96,10.08,20.16,14.4,8.64,2.88,17.28,5.76,24.48,4.32,8.64,0,17.28,0,24.48-5.76,5.76-2.88,11.52-7.2,15.84-12.96,4.32-4.32,5.76-10.08,7.2-15.84s1.44-10.08,1.44-17.28v-93.6h-12.96v17.28h0c-4.32-5.76-10.08-11.52-17.28-14.4-2.88,0-5.76-1.44-10.08-2.88s-5.76,0-8.64,0c-5.76,0-12.96,0-18.72,4.32-5.76,1.44-10.08,5.76-14.4,10.08s-7.2,10.08-10.08,15.84c-1.44,5.76-4.32,12.96-4.32,18.72s0,12.96,4.32,18.72c1.44,5.76,5.76,10.08,10.08,15.84,4.32,4.32,10.08,7.2,15.84,10.08,5.76,1.44,12.96,4.32,18.72,4.32s12.96,0,20.16-4.32c5.76-2.88,11.52-7.2,15.84-12.96h0v17.28c0,5.76,0,10.08-1.44,14.4,0,4.32-2.88,8.64-5.76,11.52s-7.2,5.76-11.52,8.64c-5.76,1.44-11.52,2.88-17.28,2.88s-14.4,0-21.6-5.76c-5.76-2.88-11.52-7.2-15.84-12.96l-10.08,10.08h1.44ZM813.6,432c0-4.32,0-7.2,1.44-11.52,1.44-4.32,4.32-7.2,7.2-10.08s5.76-5.76,10.08-7.2,8.64-1.44,12.96-1.44,8.64,0,12.96,1.44c4.32,0,7.2,4.32,10.08,5.76,1.44,2.88,5.76,5.76,5.76,10.08s1.44,7.2,1.44,11.52h-63.36s1.44,1.44,1.44,1.44ZM891.36,443.52v-5.76c0-5.76,0-12.96-2.88-17.28-1.44-5.76-5.76-10.08-8.64-14.4-4.32-4.32-8.64-7.2-12.96-10.08-5.76-1.44-12.96-4.32-18.72-4.32s-12.96,0-18.72,4.32c-5.76,1.44-10.08,5.76-14.4,10.08-4.32,4.32-7.2,10.08-10.08,15.84-1.44,5.76-4.32,12.96-4.32,20.16s0,12.96,4.32,20.16c1.44,5.76,5.76,11.52,10.08,15.84,4.32,4.32,10.08,8.64,15.84,10.08s12.96,4.32,18.72,4.32,14.4,0,21.6-4.32c7.2-2.88,12.96-8.64,18.72-15.84l-10.08-8.64c-2.88,4.32-7.2,8.64-11.52,11.52-5.76,2.88-11.52,5.76-18.72,5.76s-8.64,0-12.96-1.44c-8.64-2.88-14.4-10.08-17.28-17.28-1.44-4.32-2.88-8.64-2.88-12.96l76.32-2.88s-1.44-2.88-1.44-2.88Z" style="fill:#fff;"/><path d="M192.96,738.72h33.12v-145.44h0l93.6,145.44h43.2v-190.08h-33.12v141.12h0l-92.16-141.12h-44.64v190.08ZM416.16,685.44c4.32,11.52,11.52,21.6,21.6,31.68,8.64,8.64,20.16,15.84,31.68,20.16,12.96,5.76,25.92,7.2,40.32,7.2s28.8-1.44,40.32-7.2c11.52-4.32,23.04-11.52,31.68-21.6,8.64-8.64,15.84-20.16,21.6-31.68,5.76-12.96,7.2-25.92,7.2-40.32s-1.44-28.8-7.2-40.32c-4.32-11.52-11.52-23.04-21.6-31.68-10.08-8.64-20.16-15.84-31.68-20.16-12.96-4.32-27.36-7.2-40.32-5.76-12.96,0-27.36,1.44-40.32,7.2-11.52,4.32-23.04,11.52-31.68,20.16-10.08,8.64-15.84,20.16-21.6,31.68-5.76,12.96-7.2,27.36-7.2,41.76s2.88,27.36,7.2,40.32h0v-1.44ZM449.28,616.32c2.88-8.64,7.2-15.84,12.96-21.6,5.76-5.76,12.96-11.52,20.16-14.4,8.64-4.32,17.28-5.76,25.92-5.76s18.72,1.44,25.92,5.76c7.2,4.32,14.4,8.64,21.6,14.4,5.76,5.76,10.08,12.96,12.96,21.6s4.32,17.28,4.32,25.92,0,18.72-4.32,28.8c-2.88,8.64-7.2,15.84-12.96,21.6-5.76,5.76-12.96,11.52-21.6,14.4-8.64,4.32-17.28,5.76-25.92,5.76s-18.72-1.44-25.92-5.76c-7.2-4.32-14.4-8.64-20.16-14.4-5.76-5.76-10.08-12.96-12.96-21.6-2.88-10.08-5.76-18.72-4.32-28.8,0-8.64,0-17.28,4.32-25.92h0ZM691.2,738.72h31.68l44.64-144h0l44.64,144h33.12l56.16-190.08h-34.56l-37.44,136.8h0l-41.76-136.8h-33.12l-43.2,136.8h0l-36-136.8h-36l56.16,190.08s-4.32,0-4.32,0Z" style="fill:#72bb7e;"/></svg>