<?xml version="1.0" encoding="UTF-8"?><svg id="Layer_1" xmlns="http://www.w3.org/2000/svg" width="1080" height="1080" viewBox="0 0 1080 1080"><path d="M540,0h0c298.08,0,540,241.92,540,540h0c0,298.08-241.92,540-540,540h0C241.92,1080,0,838.08,0,540h0C0,241.92,241.92,0,540,0Z"/><path d="M538.56,210.24c-21.6,0-43.2,5.76-63.36,15.84l-188.64,103.68c-38.88,21.6-63.36,61.92-64.8,106.56v207.36c0,44.64,24.48,84.96,64.8,106.56l188.64,103.68c40.32,21.6,87.84,21.6,128.16,0l188.64-103.68c38.88-20.16,63.36-61.92,63.36-106.56v-207.36c0-44.64-24.48-84.96-63.36-106.56l-188.64-103.68c-20.16-11.52-43.2-17.28-64.8-15.84h0Z" style="fill:#0b65ff;"/><path d="M540,593.28v214.56c0,17.28-15.84,31.68-33.12,30.24-5.76,0-10.08-1.44-14.4-4.32l-194.4-106.56c-28.8-15.84-47.52-46.08-47.52-79.2v-214.56c0-17.28,14.4-30.24,31.68-30.24,5.76,0,11.52,0,17.28,4.32l194.4,108c28.8,15.84,47.52,46.08,47.52,79.2h0s-1.44-1.44-1.44-1.44Z" style="fill:#fff;"/></svg>