<?xml version="1.0" encoding="UTF-8"?><svg id="Layer_1" xmlns="http://www.w3.org/2000/svg" width="1080" height="1080" xmlns:xlink="http://www.w3.org/1999/xlink" viewBox="0 0 1080 1080"><defs><linearGradient id="linear-gradient" x1="-1949.25" y1="2660.52" x2="-1951.7" y2="2660.52" gradientTransform="translate(518988.57 738702.7) scale(265.8 -277.45)" gradientUnits="userSpaceOnUse"><stop offset="0" stop-color="#22e6b8"/><stop offset="1" stop-color="#00c1ce"/></linearGradient></defs><path d="M540,0h0c298.08,0,540,241.92,540,540h0c0,298.08-241.92,540-540,540h0C241.92,1080,0,838.08,0,540h0C0,241.92,241.92,0,540,0Z"/><path id="Shape-Copy-14" d="M650.88,451.44c-51.7-50.98-135.07-50.98-186.91,0-51.7,51.98-50.69,136.22.43,188.21,51.26,51.7,134.64,52.42,186.34,1.3l.72-.72c1.01-1.01,4.32-4.61,11.23-11.95l-62.06-62.64c-2.88,4.18-6.48,7.92-10.22,11.38-17.42,17.42-45.94,17.42-63.65,0-18.58-15.98-20.74-44.35-4.61-62.78,15.98-18.58,44.35-20.74,62.78-4.61,1.73,1.44,3.17,2.88,4.32,4.32,0,0,55.73,55.73,166.46,167.04-46.22,67.39-122.69,107.71-204.62,108.14-136.22,0-247.1-111.6-247.1-249.55s110.74-249.55,247.1-249.55c78.48,0,151.78,37.58,197.86,101.09-7.49,8.35-25.92,29.81-56.02,64.37l61.63,61.63,101.95-115.49c-53.42-121.25-173.23-199.58-305.71-199.58-184.75,0-335.09,151.34-335.09,337.97s149.9,338.26,335.09,338.26c84.1,0,153.94-26.78,221.9-84.82,61.92-52.7,91.01-126.14,91.01-126.14l-213.26-215.57h.14l.29-.29Z" style="fill:url(#linear-gradient);"/></svg>