<?xml version="1.0" encoding="UTF-8"?><svg id="Layer_1" xmlns="http://www.w3.org/2000/svg" width="1080" height="1080" viewBox="0 0 1080 1080"><path d="M540,0h0c298.08,0,540,241.92,540,540h0c0,298.08-241.92,540-540,540h0C241.92,1080,0,838.08,0,540h0C0,241.92,241.92,0,540,0Z"/><path d="M734.62,240h-389.23c-61.54,0-110.77,49.23-110.77,109.23v381.54c0,60,49.23,109.23,110.77,109.23h389.23c61.54,0,110.77-49.23,110.77-109.23v-381.54c0-60-49.23-109.23-110.77-109.23h0ZM639.23,390.77c44.62,0,83.08,35.38,83.08,81.54,0,13.85-3.08,27.69-9.23,38.46-10.77-7.69-23.08-15.38-33.85-20,3.08-6.15,4.62-13.85,4.62-20,0-23.08-20-41.54-41.54-41.54-24.62,0-41.54,20-41.54,41.54,0,7.69,1.54,13.85,4.62,20-12.31,4.62-24.62,10.77-33.85,20-7.69-12.31-9.23-26.15-9.23-38.46-3.08-46.15,32.31-81.54,76.92-81.54ZM440.77,689.23c-44.62,0-83.08-35.38-83.08-81.54h38.46c0,23.08,20,41.54,41.54,41.54s41.54-20,41.54-41.54h38.46c4.62,46.15-32.31,81.54-76.92,81.54h0ZM440.77,576.92c-52.31,0-93.85-41.54-93.85-92.31s41.54-93.85,93.85-93.85,95.38,41.54,95.38,93.85-43.08,92.31-95.38,92.31h0ZM639.23,689.23c-52.31,0-95.38-41.54-95.38-92.31s41.54-93.85,95.38-93.85,93.85,41.54,93.85,93.85c3.08,50.77-41.54,92.31-93.85,92.31h0ZM696.15,595.38c0,30.77-26.15,55.38-56.92,55.38s-56.92-26.15-56.92-55.38c0-30.77,26.15-55.38,56.92-55.38,32.31,1.54,56.92,26.15,56.92,55.38ZM496.15,484.62c0,30.77-26.15,55.38-56.92,55.38s-56.92-26.15-56.92-55.38c0-30.77,26.15-55.38,56.92-55.38,32.31,0,56.92,23.08,56.92,55.38h0Z" style="fill:#d9b432;"/></svg>