<?xml version="1.0" encoding="UTF-8"?><svg id="Layer_1" xmlns="http://www.w3.org/2000/svg" width="1080" height="1080" viewBox="0 0 1080 1080"><path d="M540,0h0c298.22,0,540,241.78,540,540h0c0,298.22-241.78,540-540,540h0C241.78,1080,0,838.22,0,540h0C0,241.78,241.78,0,540,0Z"/><path d="M206.93,577.44l23.9,20.59c-4.61,6.48-10.08,12.1-16.42,16.85-7.78,6.19-16.56,11.09-25.78,14.69-10.22,4.03-21.17,6.05-32.26,5.9-16.85.29-33.41-4.03-47.81-12.24-13.68-7.92-24.91-19.44-32.54-33.41-8.06-14.69-12.1-31.1-11.81-47.95,0-12.53,2.16-25.06,6.62-36.86,4.46-11.38,10.94-21.6,19.3-30.38,8.21-8.78,18.14-15.7,29.23-20.45,12.1-5.04,24.91-7.63,37.87-7.49,15.55-.58,30.96,3.02,44.64,10.37,11.23,6.62,21.02,15.26,28.66,25.78l-24.19,21.31c-5.33-7.92-12.24-14.69-20.16-20.02-8.78-5.33-18.86-7.92-28.94-7.49-10.94-.29-21.6,2.74-30.53,8.78-8.64,6.05-15.41,14.26-19.87,23.76-4.61,9.94-7.06,20.88-7.06,31.97s2.3,21.46,7.06,31.1c4.46,9.07,10.94,16.85,19.3,22.46,8.78,5.62,18.86,8.5,29.23,8.21,8.78.43,17.57-1.3,25.63-4.46,5.76-2.59,11.09-6.19,15.55-10.66l10.37-10.22" style="fill:#364d87;"/><path d="M240.19,567.22c0-11.81,2.88-23.33,8.64-33.7,5.76-10.08,14.11-18.58,24.19-24.48,22.32-12.1,49.25-12.1,71.57,0,10.08,5.9,18.29,14.4,24.05,24.48,17.86,33.55,5.18,75.17-28.37,93.17-32.4,17.42-72.86,6.05-91.58-25.63-5.76-10.22-8.78-21.89-8.64-33.7v-.29h.14v.14ZM308.45,607.68c7.2.29,14.4-1.87,20.16-6.19,5.33-4.03,9.5-9.22,12.1-15.41,2.59-5.76,4.03-12.1,4.03-18.43s-1.44-12.53-4.03-18.43c-2.59-6.19-6.91-11.52-12.1-15.41-12.24-8.21-28.22-8.21-40.32,0-5.18,4.03-9.22,9.22-11.81,15.12-2.59,5.76-4.03,12.1-4.03,18.43s1.44,12.82,4.03,18.58c2.59,6.19,6.91,11.52,12.1,15.41,5.9,4.32,12.96,6.48,20.16,6.19" style="fill:#364d87;"/><path d="M383.62,450.86h31.97v33.7h-31.97v-33.7ZM383.62,504.14h31.97v126.58h-31.97v-126.58h0Z" style="fill:#364d87;"/><path d="M428.11,630.72v-126.43h30.53l.86,14.4c4.32-4.46,9.07-8.06,14.26-11.23,7.34-4.32,15.7-6.34,24.19-5.9,13.54-.86,26.78,4.32,36.29,14.11,8.93,10.66,13.39,24.34,12.53,38.16v76.75h-32.11v-76.61c.43-6.91-2.02-13.68-6.62-18.58-2.16-2.16-4.9-4.03-7.92-5.04-3.02-1.15-6.19-1.73-9.22-1.44-8.35-.29-16.42,3.31-22.03,9.65-5.76,6.62-8.93,14.98-8.64,23.76v68.54h-31.97l-.14-.14Z" style="fill:#364d87;"/><path d="M941.9,534.38l56.45-83.38h-53.42l-29.23,46.66-30.1-46.66h-59.18l2.74,3.74-1.87-.86c-13.97-5.18-28.8-7.78-43.78-7.63-17.28-.29-34.13,4.03-49.25,12.53-10.66,6.19-20.02,14.54-27.07,24.48-7.92-9.79-18-17.57-29.52-22.46-15.84-6.62-32.83-9.79-49.82-9.65h-69.55v179.71h69.26c17.28.29,34.13-3.02,49.82-9.79,11.52-4.9,21.6-12.53,29.52-22.18,7.34,10.08,16.85,18.43,27.65,24.48,14.98,8.21,31.82,12.24,48.96,12.1,16.13.29,32.11-3.17,46.8-10.08l-3.89,5.62h52.56l35.14-55.15,36.29,55.15h60.19l-68.69-96.48h.14l-.14-.14ZM662.26,575.42c-9.79,9.22-23.18,14.26-36.43,13.39h-19.58v-96.05h19.58c13.82-1.3,27.65,3.74,37.58,13.39,8.35,9.65,12.53,22.03,12.24,34.7.29,12.67-4.46,25.2-13.39,34.42h0v.14ZM854.93,588.38l-22.75-21.17c-5.33,6.91-11.81,12.67-19.3,17.42-7.92,4.03-16.99,6.05-25.78,5.62-8.93.29-17.57-2.02-25.34-6.48-7.06-4.32-12.96-10.37-16.7-18-4.03-8.06-6.05-16.99-5.9-25.78,0-8.78,1.73-17.42,5.62-25.34,3.74-7.34,9.5-13.54,16.42-18,7.92-4.61,16.99-7.06,26.06-6.62,8.5,0,16.85,1.87,24.19,6.19,7.06,4.32,13.39,9.79,18.29,16.56l23.9-23.76,34.85,49.82-33.7,49.54h.14Z" style="fill:#f94a29;"/></svg>