<?xml version="1.0" encoding="UTF-8"?><svg id="Layer_1" xmlns="http://www.w3.org/2000/svg" width="1080" height="1080" xmlns:xlink="http://www.w3.org/1999/xlink" viewBox="0 0 1080 1080"><defs><linearGradient id="linear-gradient" x1="318.41" y1="915.03" x2="762.16" y2="1358.78" gradientTransform="translate(0 -598)" gradientUnits="userSpaceOnUse"><stop offset=".1" stop-color="#00abff"/><stop offset=".37" stop-color="#a800ff"/><stop offset=".6" stop-color="#d82cc1"/><stop offset=".9" stop-color="#fa8659"/></linearGradient></defs><circle cx="540" cy="540" r="540"/><path d="M890,530.69c-1.44,31.69-15.84,56.17-36.01,76.34-40.33,40.33-82.1,82.1-122.43,122.43-7.2,7.2-10.08,12.96-4.32,23.05,11.52,23.05,4.32,44.65-15.84,59.05-17.28,12.96-40.33,10.08-57.61-7.2-17.28-15.84-33.13-33.13-48.97-48.97-25.93-25.93-51.85-51.85-77.78-77.78-4.32-4.32-8.64-8.64-12.96-14.4-14.4-20.16-15.84-37.45-4.32-53.29,15.84-20.16,38.89-25.93,60.49-15.84,10.08,4.32,20.16,12.96,27.37,20.16,18.72,18.72,37.45,37.45,56.17,57.61,5.76,5.76,10.08,7.2,17.28,1.44,36.01-36.01,72.02-70.58,106.58-106.58,23.05-23.05,23.05-40.33-1.44-64.81-38.89-38.89-79.22-77.78-118.11-116.67-17.28-17.28-18.72-40.33-4.32-59.05,10.08-14.4,25.93-20.16,43.21-14.4,12.96,4.32,23.05,10.08,31.69,18.72,44.65,43.21,89.3,87.86,132.51,132.51,17.28,18.72,27.37,41.77,28.81,67.7ZM228.89,624.31c38.89,40.33,77.78,79.22,118.11,118.11,7.2,7.2,15.84,14.4,24.49,20.16,11.52,5.76,23.05,10.08,37.45,5.76,28.81-11.52,38.89-50.41,15.84-72.02-40.33-40.33-80.66-79.22-120.99-118.11-18.72-18.72-21.6-34.57-8.64-53.29,2.88-4.32,7.2-10.08,11.52-14.4,33.13-34.57,67.7-67.7,102.26-102.26,7.2-7.2,12.96-7.2,18.72,0,18.72,20.16,38.89,38.89,57.61,57.61,10.08,10.08,20.16,17.28,33.13,21.6,20.16,5.76,38.89-1.44,53.29-18.72,11.52-14.4,10.08-28.81-1.44-47.53-2.88-4.32-5.76-8.64-10.08-12.96-44.65-44.65-89.3-89.3-133.95-133.95-17.28-15.84-40.33-18.72-57.61-5.76-21.6,14.4-28.81,37.45-17.28,59.05,5.76,10.08,2.88,15.84-4.32,23.05-40.33,38.89-79.22,77.78-118.11,116.67-21.6,21.6-38.89,46.09-38.89,70.58,1.44,38.89,17.28,63.37,38.89,86.42Z" style="fill:url(#linear-gradient);"/></svg>