<?xml version="1.0" encoding="UTF-8"?><svg id="Layer_1" xmlns="http://www.w3.org/2000/svg" width="1080" height="1080" viewBox="0 0 1080 1080"><path d="M540,0h0c298.22,0,540,241.78,540,540h0c0,298.22-241.78,540-540,540h0C241.78,1080,0,838.22,0,540h0C0,241.78,241.78,0,540,0Z"/><path d="M871.78,399.74c-18.14-42.91-44.06-81.5-77.18-114.34-33.12-33.12-71.71-59.04-114.34-77.18-44.35-18.72-91.58-28.22-140.26-28.22s-95.9,9.5-140.26,28.22c-42.91,18.14-81.5,44.06-114.34,77.18-32.83,33.12-59.04,71.71-77.18,114.34-18.72,44.35-28.22,91.58-28.22,140.26s9.5,95.9,28.22,140.26c18.14,42.91,44.06,81.5,77.18,114.34,33.12,33.12,71.71,59.04,114.34,77.18,44.35,18.72,91.58,28.22,140.26,28.22s95.9-9.5,140.26-28.22c42.91-18.14,81.5-44.06,114.34-77.18,33.12-33.12,59.04-71.71,77.18-114.34,18.72-44.35,28.22-91.58,28.22-140.26s-9.5-95.9-28.22-140.26ZM540,590.11c-27.65,0-50.11-22.46-50.11-50.11s22.46-50.11,50.11-50.11,50.11,22.46,50.11,50.11-22.46,50.11-50.11,50.11ZM836.64,665.28c-16.13,38.3-39.46,72.86-69.12,102.24-29.66,29.38-63.94,52.7-102.24,69.12-34.27,14.4-70.27,22.75-107.42,24.77v-235.3c40.03-8.35,70.27-43.78,70.27-86.11,0-48.38-39.46-88.13-88.13-88.13s-88.13,39.74-88.13,88.13c0,42.34,30.24,78.05,70.27,86.11v235.3c-37.15-2.02-73.15-10.37-107.42-24.77-38.3-16.13-72.86-39.46-102.24-69.12-29.38-29.66-52.7-63.94-69.12-102.24-16.7-39.74-25.34-81.79-25.34-125.28s8.64-85.54,25.34-125.28c16.13-38.3,39.46-72.86,69.12-102.24,29.66-29.38,63.94-52.7,102.24-69.12,39.74-16.7,81.79-25.34,125.28-25.34s85.54,8.64,125.28,25.34c38.3,16.13,72.86,39.46,102.24,69.12s52.7,63.94,69.12,102.24c16.7,39.74,25.34,81.79,25.34,125.28s-8.35,85.54-25.34,125.28Z" style="fill:#fff;"/><circle cx="299.81" cy="487.01" r="25.06" style="fill:#fff;"/><circle cx="381.6" cy="514.08" r="25.06" style="fill:#fff;"/><circle cx="699.26" cy="514.08" r="25.06" style="fill:#fff;"/><circle cx="780.19" cy="487.01" r="25.06" style="fill:#fff;"/></svg>