<?xml version="1.0" encoding="UTF-8"?><svg id="Layer_1" xmlns="http://www.w3.org/2000/svg" width="1080" height="1080" viewBox="0 0 1080 1080"><path d="M540,0h0c298.22,0,540,241.78,540,540h0c0,298.22-241.78,540-540,540h0C241.78,1080,0,838.22,0,540h0C0,241.78,241.78,0,540,0Z"/><g id="sidebar"><g id="mini-sidebar"><g id="sidebar-small"><g id="logo-mini"><path id="Path" d="M786.24,651.6c0,92.16-76.32,168.48-169.92,168.48h-322.56v-112.32h322.56c30.24,0,56.16-24.48,56.16-56.16s-24.48-56.16-56.16-56.16h-113.76v-112.32h113.76c30.24,0,56.16-24.48,56.16-56.16s-24.48-56.16-56.16-56.16h-322.56v-110.88h322.56c93.6,0,169.92,74.88,169.92,168.48,0,41.76-15.84,80.64-43.2,112.32,28.8,30.24,43.2,70.56,43.2,110.88h0Z" style="fill:#ed8768; isolation:isolate; opacity:.8;"/><path id="Shape" d="M293.76,707.76h276.48c-59.04,67.68-152.64,112.32-257.76,112.32h-18.72s0-112.32,0-112.32ZM629.28,595.44h-106.56v-112.32h106.56c8.64,37.44,8.64,76.32,0,112.32h0ZM571.68,372.24h-277.92v-112.32h18.72c106.56,0,198.72,44.64,259.2,112.32h0Z" style="isolation:isolate; opacity:.12;"/><path id="Path-2" d="M293.76,259.92c156.96,0,283.68,125.28,283.68,279.36s-126.72,280.8-283.68,280.8v-112.32c93.6,0,169.92-74.88,169.92-168.48s-76.32-168.48-169.92-168.48c0,0,0-110.88,0-110.88Z" style="fill:#ec6c46;"/></g></g></g></g></svg>