<?xml version="1.0" encoding="UTF-8"?><svg id="Layer_1" xmlns="http://www.w3.org/2000/svg" width="1080" height="1080" viewBox="0 0 1080 1080"><path d="M540,0h0c298.22,0,540,241.78,540,540h0c0,298.22-241.78,540-540,540h0C241.78,1080,0,838.22,0,540h0C0,241.78,241.78,0,540,0Z"/><rect x="192.19" y="360" width="458.21" height="122.69" transform="translate(-174.54 421.31) rotate(-45)" style="fill:#7200d3;"/><polygon points="864 540 791.86 612.14 746.93 574.85 746.06 657.94 540 864 341.86 665.86 414 593.57 519.26 698.83 634.46 581.62 634.46 550.51 625.82 549.65 520.13 659.95 506.88 500.69 665.86 341.86 864 540" style="fill:#03ffc8;"/></svg>