<?xml version="1.0" encoding="UTF-8"?><svg id="Layer_1" xmlns="http://www.w3.org/2000/svg" width="1080" height="1080" xmlns:xlink="http://www.w3.org/1999/xlink" viewBox="0 0 1080 1080"><defs><linearGradient id="linear-gradient" x1="417.15" y1="-159.71" x2="587.33" y2="-204.22" gradientTransform="translate(0 356.1) scale(1 -1)" gradientUnits="userSpaceOnUse"><stop offset=".21" stop-color="#a0bfa2"/><stop offset=".33" stop-color="#a0bfa2" stop-opacity=".98"/><stop offset=".44" stop-color="#a0bfa2" stop-opacity=".9"/><stop offset=".56" stop-color="#a0bfa2" stop-opacity=".86"/><stop offset=".66" stop-color="#a0bfa2" stop-opacity=".75"/><stop offset=".77" stop-color="#a0bfa2" stop-opacity=".61"/><stop offset=".88" stop-color="#a0bfa2" stop-opacity=".43"/><stop offset=".95" stop-color="#a0bfa2" stop-opacity=".3"/></linearGradient><linearGradient id="linear-gradient-2" x1="527.88" y1="-320.41" x2="527.88" y2="-45.37" xlink:href="#linear-gradient"/><linearGradient id="linear-gradient-3" x1="574.98" y1="-201.82" x2="804.76" y2="-161.29" xlink:href="#linear-gradient"/><linearGradient id="linear-gradient-4" x1="725.42" y1="-284.38" x2="867.71" y2="-114.84" xlink:href="#linear-gradient"/><linearGradient id="linear-gradient-5" x1="785.9" y1="-125.85" x2="698.98" y2="-364.69" xlink:href="#linear-gradient"/><linearGradient id="linear-gradient-6" x1="889.53" y1="-328.95" x2="805.3" y2="-280.3" xlink:href="#linear-gradient"/><linearGradient id="linear-gradient-7" x1="120.69" y1="-135.37" x2="364.12" y2="-241.02" xlink:href="#linear-gradient"/><linearGradient id="linear-gradient-8" x1="347.6" y1="-130.92" x2="229.29" y2="-306.32" xlink:href="#linear-gradient"/><linearGradient id="linear-gradient-9" x1="162.61" y1="-175.52" x2="378.2" y2="-97.06" xlink:href="#linear-gradient"/></defs><path d="M540,0h0c298.24,0,540,241.76,540,540h0c0,298.24-241.76,540-540,540h0C241.76,1080,0,838.24,0,540h0C0,241.76,241.76,0,540,0Z"/><path d="M363.46,446.54h0c-24.24-32.31-78.47-56.53-139.62-56.53l-42.7,28.84v246.92h11.53-11.53l53.08,23.08s114.24-1.15,148.85-101.53c3.46-9.23,4.62-18.46,4.62-26.54h0c1.15-1.15,15-63.46-24.24-114.24h0ZM268.85,611.54v-130.38c17.31,4.62,57.69,20.76,69.24,60-5.77,42.7-36.92,62.31-69.24,70.39h0ZM338.08,543.46h0v3.46-3.46Z" style="fill:#fff;"/><polygon points="504.23 663.47 503.08 663.47 551.53 676.15 503.08 688.85 455.77 676.15 455.77 676.15 455.77 676.15 503.08 663.47 455.77 676.15 455.77 401.54 503.08 388.84 551.53 401.54 504.23 413.08 504.23 413.08 503.08 413.08 504.23 413.08 504.23 413.08 551.53 401.54 551.53 676.15 504.23 663.47" style="fill:#fff;"/><path d="M831.92,612.69h0l25.39,54.23h42.7l-124.62-273.46h-64.61l-120,257.31,24.24,40.38h39.23l25.39-54.23h124.62l25.39,54.23h43.85l25.39-23.08h-42.7l-24.24-55.38h-.01ZM709.62,575.77l-17.31,36.92,17.31-36.92h0l33.47-73.84-10.38-23.08,45,96.93h-68.08Z" style="fill:#fff;"/><path d="M504.23,413.08l47.3-12.69-48.46-11.53-48.46,12.69v274.62l48.46-12.69,1.15-250.39h0Z" style="fill:url(#linear-gradient);"/><path d="M455.77,676.15l48.46,11.53,47.3-11.53-47.3-12.69s-48.46,12.69-48.46,12.69Z" style="fill:#a0bfa2;"/><path d="M504.23,413.08v250.39l47.3,12.69v-274.62l-47.3,11.53h0Z" style="fill:url(#linear-gradient-2);"/><path d="M723.46,459.23l54.23,115.39h38.07l-80.77-181.15h-23.08l-121.15,257.31,24.24,40.38s108.46-231.93,108.46-231.93Z" style="fill:url(#linear-gradient-3);"/><path d="M735,393.47l79.62,182.3h-106.16l-16.16,36.92h138.46l25.39,55.38h43.85l-124.62-274.62h-40.38,0Z" style="fill:url(#linear-gradient-4);"/><path d="M692.31,612.69l50.77-110.76-19.61-42.7-107.31,231.93h39.23l25.39-54.23h124.62l26.54-24.24h-139.62Z" style="fill:url(#linear-gradient-5);"/><path d="M900,666.92h-43.85l-25.39-55.38-26.54,24.24,25.39,54.23h43.85l26.54-23.08Z" style="fill:url(#linear-gradient-6);"/><path d="M181.15,417.69l42.7-28.84v228.46c42.7-2.3,106.16-15,111.92-77.31,0,0,10.38,38.07-12.69,69.24-24.24,32.31-80.77,55.38-143.08,55.38l1.15-246.92h0Z" style="fill:url(#linear-gradient-7);"/><path d="M268.85,443.07v38.07c17.31,4.62,57.69,20.76,69.24,60v2.3c1.15,9.23,5.77,40.38-13.85,65.76-23.08,32.31-81.92,55.38-143.08,55.38l53.08,23.08s114.24-1.15,148.85-101.53c3.46-9.23,4.62-18.46,4.62-27.69-2.3-69.24-60-108.46-118.84-115.39h-.01Z" style="fill:url(#linear-gradient-8);"/><path d="M363.46,446.54c-24.24-32.31-78.47-56.53-139.62-56.53v228.46c8.08,0,16.16-1.15,25.39-2.3,3.46,0,8.08-1.15,12.69-2.3,2.3,0,3.46-1.15,5.77-1.15v-169.62c58.85,5.77,117.69,46.15,120,116.54,1.15,0,15-62.31-24.24-113.08h.01Z" style="fill:url(#linear-gradient-9);"/></svg>