<?xml version="1.0" encoding="UTF-8"?><svg id="Layer_1" xmlns="http://www.w3.org/2000/svg" width="1080" height="1080" viewBox="0 0 1080 1080"><path d="M540,0h0c298.24,0,540,241.76,540,540h0c0,298.24-241.76,540-540,540h0C241.76,1080,0,838.24,0,540h0C0,241.76,241.76,0,540,0Z" style="fill:#2b60c2;"/><polygon points="540 258.12 216 525.63 216 822.37 540 525.63 864 822.37 864 525.63 540 258.12" style="fill:#909090;"/><polygon points="397.48 655.82 540 257.63 216 525.15 397.48 655.82" style="fill:#fff;"/><polygon points="540 257.63 682.52 655.82 864 525.15 540 257.63" style="fill:#fff;"/></svg>