<?xml version="1.0" encoding="UTF-8"?><svg id="Layer_1" xmlns="http://www.w3.org/2000/svg" width="1080" height="1080" viewBox="0 0 1080 1080"><circle cx="540" cy="540" r="540"/><path d="M824.44,540c0-57.85-17.38-111.69-47.15-156.67l88.31-88.31-79.42-79.42-88.07,88.07c-45.22-30.38-99.62-48.12-158.07-48.12s-111.69,17.38-156.67,47.15l-88.35-88.31-79.42,79.42,88.07,88.07c-30.38,45.22-48.12,99.62-48.12,158.07s17.38,111.69,47.15,156.67l-88.31,88.35,79.42,79.42,88.07-88.07c45.22,30.38,99.62,48.12,158.07,48.12s111.69-17.38,156.67-47.15l88.35,88.35,79.42-79.42-88.07-88.07c30.38-45.3,48.12-99.7,48.12-158.15h0ZM367.93,540c0-94.91,77.21-172.11,172.11-172.11s172.11,77.21,172.11,172.11-77.21,172.11-172.11,172.11-172.11-77.21-172.11-172.11Z" style="fill:#fff;"/></svg>