<?xml version="1.0" encoding="UTF-8"?><svg id="Layer_1" xmlns="http://www.w3.org/2000/svg" width="1080" height="1080" viewBox="0 0 1080 1080"><circle cx="540" cy="540" r="540"/><path d="M795.38,260l-3.08,9.23-10.77,27.69-7.69,18.46c-52.31,135.38-93.85,200-138.46,200-24.62,0-40-7.69-60-24.62l-6.15-4.62c-13.85-13.85-20-16.92-33.85-16.92-7.69,0-20,9.23-35.38,30.77-16.92,23.08-33.85,55.38-53.85,100l-1.54,4.62h190.77l-23.08,50.77h-175.38v204.62h-52.31V260h410.77ZM723.08,310.77h-286.15v200c33.85-61.54,67.69-92.31,101.54-92.31,27.69,0,43.08,7.69,63.08,26.15l6.15,6.15c12.31,12.31,18.46,15.38,29.23,15.38,12.31-1.54,44.62-53.85,86.15-155.38Z" style="fill:#fff; fill-rule:evenodd;"/></svg>