<?xml version="1.0" encoding="UTF-8"?><svg id="Layer_1" xmlns="http://www.w3.org/2000/svg" width="1080" height="1080" xmlns:xlink="http://www.w3.org/1999/xlink" viewBox="0 0 1080 1080"><defs><radialGradient id="radial-gradient" cx="-3660.44" cy="1376.84" fx="-3660.44" fy="1376.84" r="26.93" gradientTransform="translate(-47592.23 5316.28) rotate(149.79) scale(12.07 -14.48)" gradientUnits="userSpaceOnUse"><stop offset=".12" stop-color="#f0f0f0"/><stop offset=".73" stop-color="#646464"/><stop offset="1" stop-color="#8c8c8c"/></radialGradient><linearGradient id="linear-gradient" x1="539.87" y1="-1702.5" x2="539.87" y2="-2107.71" gradientTransform="translate(0 -1244) scale(1 -1)" gradientUnits="userSpaceOnUse"><stop offset="0" stop-color="#c8c8c8"/><stop offset=".47" stop-color="#f0f0f0"/><stop offset="1" stop-color="#828282"/></linearGradient><linearGradient id="linear-gradient-2" x1="636.04" y1="-1692.74" x2="636.04" y2="-2134.83" gradientTransform="translate(0 -1244) scale(1 -1)" gradientUnits="userSpaceOnUse"><stop offset="0" stop-color="#f0f0f0"/><stop offset="1" stop-color="#505050"/></linearGradient></defs><path d="M540,0h0c298.22,0,540,241.78,540,540h0c0,298.22-241.78,540-540,540h0C241.78,1080,0,838.22,0,540h0C0,241.78,241.78,0,540,0Z"/><path d="M716.83,404.64c0,9.07-8.35,15.26-17.42,14.54-22.03-2.3-42.48-2.02-61.34-.29-41.18,4.46-75.6,17.14-107.28,28.8h0c-1.87.72-3.89,1.3-5.76,2.02-33.7,12.38-64.51,23.04-101.23,24.05-14.83.29-30.24-.72-47.95-4.46-14.98-3.17-26.93-14.54-29.81-29.23-2.3-11.95-3.6-24.05-3.6-36.58,0-103.68,83.66-187.63,187.06-187.63s187.06,83.95,187.06,187.63c.29.29.29.72.29,1.01h0v.14Z" style="fill:url(#radial-gradient);"/><path d="M359.28,497.95c-13.97-3.31-26.93,11.66-19.87,24.34l183.74,337.39c2.88,5.47,10.66,5.47,13.68,0l202.61-372.38c7.2-13.25.29-29.81-14.54-32.69-32.11-6.48-59.33-7.06-83.66-4.61-37.3,3.89-68.11,15.26-100.22,27.22-1.87.58-3.31,1.3-5.18,1.87-33.7,12.38-68.98,24.91-111.46,25.92-19.87.72-41.47-1.58-65.09-7.06h0Z" style="fill:url(#linear-gradient);"/><path d="M529.78,488.02c0-3.89,2.3-7.49,6.19-8.78,1.87-.58,3.31-1.3,5.18-1.87,32.11-11.95,62.93-23.33,100.22-27.22,24.34-2.59,51.55-1.87,83.66,4.61,14.83,2.88,21.74,19.44,14.54,32.69l-202.61,372.38c-1.58,2.88-4.18,4.18-7.06,4.18v-375.98h-.29.14Z" style="fill:url(#linear-gradient-2);"/></svg>