<?xml version="1.0" encoding="UTF-8"?><svg id="Layer_1" xmlns="http://www.w3.org/2000/svg" width="1080" height="1080" viewBox="0 0 1080 1080"><path d="M540,0h0c298.22,0,540,241.78,540,540h0c0,298.22-241.78,540-540,540h0C241.78,1080,0,838.22,0,540h0C0,241.78,241.78,0,540,0Z"/><g id="kXAPXp.tif"><path d="M217.3,539.42v-231.7c0-7.49,1.3-9.94,8.64-9.94h106.56c7.49,0,9.94,1.3,9.94,9.94v167.33c0,7.49,1.3,9.94,9.94,9.94h180.86c7.49,0,9.94-2.45,8.64-9.94v-167.33c0-7.49,1.3-9.94,9.94-9.94h106.56c7.49,0,8.64,2.45,8.64,8.64v465.84c0,6.19-1.3,8.64-8.64,8.64h-107.86c-7.49,0-8.64-1.3-8.64-8.64v-174.67c0-7.49-1.3-9.94-9.94-9.94h-180.86c-7.49,0-9.94,2.45-9.94,9.94v174.67c0,7.49-2.45,9.94-9.94,9.94h-106.56c-7.49,0-8.64-2.45-8.64-9.94,1.3-78.05,1.3-156.1,1.3-232.99v.14Z" style="fill:#fff;"/><path d="M800.78,781.06h-55.73c-6.19,0-8.64-2.45-7.49-8.64v-107.86c0-6.19,1.3-8.64,7.49-8.64h111.46c4.9,0,7.49,1.3,7.49,7.49v110.3c0,4.9-2.45,6.19-7.49,6.19-17.42,1.3-36,1.3-55.73,1.3v-.14Z" style="fill:#fff;"/></g></svg>