<?xml version="1.0" encoding="UTF-8"?><svg id="Layer_1" xmlns="http://www.w3.org/2000/svg" width="1080" height="1080" viewBox="0 0 1080 1080"><path d="M540,0h0c298.22,0,540,241.78,540,540h0c0,298.22-241.78,540-540,540h0C241.78,1080,0,838.22,0,540h0C0,241.78,241.78,0,540,0Z"/><path d="M612.58,415.3c0-93.02-45.22-173.09-79.78-199.01,0,0-2.59-1.44-2.45,2.16-2.74,179.57-94.61,228.24-145.01,293.62-116.35,151.34-8.21,317.09,102.1,347.9,61.63,17.14-14.26-30.53-24.05-130.75-11.95-121.1,149.04-213.55,149.04-314.21h0v.29h.14Z" style="fill:#2d3775;"/><path d="M665.57,476.5c-.86-.43-1.73-.86-2.45.43-2.02,22.46-24.91,70.7-54.14,115.49-99.22,150.62-42.77,223.2-10.8,262.37,18.58,22.46,0,0,46.22-23.18,57.02-34.56,93.89-94.46,99.5-160.85,8.93-106.99-55.15-174.38-78.05-193.82h0l-.14-.14-.14-.29Z" style="fill:#679ed2;"/></svg>