<?xml version="1.0" encoding="UTF-8"?><svg id="Layer_1" xmlns="http://www.w3.org/2000/svg" width="1080" height="1080" xmlns:xlink="http://www.w3.org/1999/xlink" viewBox="0 0 1080 1080"><defs><linearGradient id="linear-gradient" x1="-2522.23" y1="68.05" x2="-2522.23" y2="69.49" gradientTransform="translate(1211211.5 -26990) scale(480 400)" gradientUnits="userSpaceOnUse"><stop offset="0" stop-color="#2e6ceb"/><stop offset="1" stop-color="#2860d2"/></linearGradient></defs><path d="M540,0h0c298.22,0,540,241.78,540,540h0c0,298.22-241.78,540-540,540h0C241.78,1080,0,838.22,0,540h0C0,241.78,241.78,0,540,0Z"/><g id="Group"><path id="Fill-4" d="M409.68,509.04v-118.08c38.88,7.2,82.08,11.52,131.04,11.52s92.16-4.32,131.04-11.52v118.08h-262.08ZM540.72,676.08c-48.96,0-92.16,4.32-131.04,11.52v-118.08h262.08v118.08c-38.88-7.2-82.08-11.52-131.04-11.52h0ZM759.6,367.92h1.44c38.88-12.96,70.56-30.24,96.48-46.08,11.52-7.2,18.72-20.16,18.72-34.56,0-23.04-25.92-36-44.64-23.04-28.8,18.72-69.12,40.32-125.28,54.72-1.44,0-2.88,1.44-4.32,1.44-7.2,1.44-15.84,4.32-24.48,5.76-2.88,0-5.76,1.44-7.2,1.44-7.2,1.44-14.4,2.88-21.6,4.32-1.44,0-4.32,1.44-5.76,1.44-10.08,1.44-18.72,2.88-28.8,2.88h-5.76c-8.64,1.44-17.28,1.44-27.36,1.44h-7.2c-11.52,0-21.6,1.44-34.56,1.44-11.52,0-23.04,0-33.12-1.44h-8.64c-8.64,0-17.28-1.44-25.92-1.44h-5.76c-10.08-1.44-18.72-1.44-27.36-2.88-2.88,0-5.76-1.44-8.64-1.44-5.76-1.44-11.52-1.44-17.28-2.88-2.88,0-7.2-1.44-10.08-1.44-5.76-1.44-11.52-2.88-17.28-4.32-5.76-1.44-10.08-2.88-14.4-4.32-53.28-14.4-92.16-34.56-120.96-53.28-18.72-12.96-44.64,1.44-44.64,24.48,0,14.4,7.2,27.36,18.72,34.56,25.92,15.84,57.6,31.68,96.48,46.08,0,0,1.44,0,1.44,1.44,7.2,2.88,15.84,5.76,24.48,7.2v132.48h-27.36c-12.96,0-23.04,10.08-23.04,23.04,0,21.6,17.28,38.88,38.88,38.88h12.96v132.48c-8.64,2.88-15.84,5.76-24.48,7.2-1.01,0-1.44.43-1.44,1.44-38.88,12.96-70.56,30.24-96.48,46.08-14.4,2.88-21.6,15.84-21.6,30.24,0,23.04,25.92,36,44.64,23.04,27.36-18.72,67.68-38.88,120.96-53.28,4.32-1.44,10.08-2.88,14.4-4.32,5.76-1.44,11.52-2.88,17.28-4.32,2.88-1.44,7.2-1.44,10.08-1.44,5.76-1.44,11.52-1.44,17.28-2.88,2.88,0,5.76-1.44,8.64-1.44,8.64-1.44,18.72-2.88,27.36-2.88h5.76c8.64-1.44,17.28-1.44,25.92-1.44h8.64c11.52,0,21.6-1.44,33.12-1.44s23.04,0,34.56,1.44h7.2c8.64,0,18.72,1.44,27.36,1.44h5.76c10.08,1.44,20.16,1.44,28.8,2.88,1.44,0,4.32,1.44,5.76,1.44,7.2,1.44,14.4,2.88,21.6,4.32,2.88,0,5.76,1.44,7.2,1.44,8.64,1.44,15.84,2.88,24.48,5.76,1.44,0,2.88,1.44,4.32,1.44,56.16,14.4,96.48,36,125.28,54.72,18.72,12.96,44.64,0,44.64-23.04,0-14.4-7.2-27.36-18.72-34.56-25.92-15.84-57.6-31.68-96.48-46.08h-1.44c-7.2-2.88-15.84-5.76-24.48-7.2v-132.48h28.8c12.96,0,23.04-10.08,23.04-23.04,0-21.6-17.28-38.88-38.88-38.88h-12.96v-132.48c10.08-4.32,18.72-7.2,25.92-10.08h0Z" style="fill:url(#linear-gradient); fill-rule:evenodd;"/></g></svg>