<?xml version="1.0" encoding="UTF-8"?><svg id="Layer_1" xmlns="http://www.w3.org/2000/svg" width="1080" height="1080" viewBox="0 0 1080 1080"><path d="M540,0h0c298.22,0,540,241.78,540,540h0c0,298.22-241.78,540-540,540h0C241.78,1080,0,838.22,0,540h0C0,241.78,241.78,0,540,0Z"/><path d="M429.98,540.14l191.81,191.81,121.25-121.25c21.17-21.17,56.3-21.17,77.47,0,21.17,21.17,21.17,56.3,0,77.47l-159.84,159.98c-21.17,21.17-56.3,21.17-77.47,0l-229.97-230.54v137.38c0,29.95-24.48,54.86-54.86,54.86s-54.86-24.48-54.86-54.86v-428.54c0-30.53,24.48-54.86,54.86-54.86s54.86,24.48,54.86,54.86v136.22l230.54-230.54c21.17-21.17,56.3-21.17,77.47,0l159.98,159.98c21.17,21.17,21.17,56.3,0,77.47-21.17,21.17-56.3,21.17-77.47,0l-121.25-121.25-192.38,191.81h0v.14h0l-.14-.14ZM622.37,485.14c-30.53,0-54.86,24.48-54.86,54.86s24.48,54.86,54.86,54.86,54.86-24.48,54.86-54.86c-.72-30.67-25.06-54.86-54.86-54.86Z" style="fill:#6fb591;"/></svg>