<?xml version="1.0" encoding="UTF-8"?><svg id="Layer_1" xmlns="http://www.w3.org/2000/svg" width="1080" height="1080" viewBox="0 0 1080 1080"><path d="M540,0h0c298.08,0,540,241.92,540,540h0c0,298.08-241.92,540-540,540h0C241.92,1080,0,838.08,0,540h0C0,241.92,241.92,0,540,0Z"/><path d="M771.84,568.8c-11.52-8.64-21.6-15.84-21.6-30.24s8.64-21.6,18.72-30.24c7.2-5.76,14.4-11.52,20.16-20.16,5.76-8.64,10.08-21.6,10.08-38.88,0-54.72,0-82.08-5.76-103.68-15.84-60.48-63.36-108-123.84-123.84-21.6-5.76-48.96-5.76-103.68-5.76h-203.04c-21.6,0-33.12,0-40.32,4.32-7.2,4.32-12.96,10.08-17.28,17.28-4.32,8.64-4.32,18.72-4.32,40.32v524.16c0,21.6,0,33.12,4.32,40.32s10.08,12.96,17.28,17.28c4.32,1.44,8.64,2.88,15.84,4.32h239.04c54.72,0,80.64,0,103.68-5.76,60.48-15.84,108-63.36,123.84-123.84,5.76-21.6,5.76-48.96,5.76-103.68s-20.16-51.84-36-61.92h-2.88ZM590.4,650.88c11.52,18.72,23.04,36,23.04,57.6,0,43.2-34.56,77.76-77.76,77.76s-77.76-34.56-77.76-77.76,11.52-37.44,23.04-57.6c17.28-25.92,37.44-57.6,37.44-110.88s-20.16-84.96-37.44-110.88c-12.96-18.72-23.04-36-23.04-57.6,0-41.76,34.56-77.76,77.76-77.76s77.76,34.56,77.76,77.76-10.08,37.44-23.04,57.6c-17.28,25.92-36,57.6-36,110.88s20.16,84.96,36,110.88Z" style="fill:#f3d86f; fill-rule:evenodd;"/></svg>