<?xml version="1.0" encoding="UTF-8"?><svg id="Layer_1" xmlns="http://www.w3.org/2000/svg" width="1080" height="1080" xmlns:xlink="http://www.w3.org/1999/xlink" viewBox="0 0 1080 1080"><defs><linearGradient id="linear-gradient" x1="374.81" y1="-202.03" x2="753.24" y2="-341.85" gradientTransform="translate(0 334) scale(1 -1)" gradientUnits="userSpaceOnUse"><stop offset="0" stop-color="#2f4b9b" stop-opacity="0"/><stop offset="1" stop-color="#2b4482"/></linearGradient></defs><path d="M540,0h0c298.22,0,540,241.78,540,540h0c0,298.22-241.78,540-540,540h0C241.78,1080,0,838.22,0,540h0C0,241.78,241.78,0,540,0Z"/><path d="M888.34,616.75l-155.66-270c-34.13-56.3-117.36-56.88-150.34,2.45l-163.44,280.8c-30.53,51.41,7.2,116.21,68.26,116.21h327.6c61.63,0,107.86-66.53,73.73-129.31h0l-.14-.14Z" style="fill:#3a55a3;"/><path d="M663.84,637.78l-9.65-16.7c-8.93-15.55-28.8-49.1-28.8-49.1l-131.76-228.82c-34.13-50.83-115.06-55.01-149.18,8.93l-153.22,265.25c-31.68,55.73,6.05,128.16,74.88,128.74h547.34c-84.53.58-111.46-43.2-149.76-108.43l.14.14Z" style="fill:#3770da;"/><path d="M663.84,637.78l-9.65-16.7c-8.93-15.55-28.8-49.1-28.8-49.1l-85.1-149.76-122.11,208.37c-30.53,51.41,7.2,116.21,68.26,116.21h327.02c-85.1-.58-111.46-43.78-149.76-109.01h.14Z" style="fill:url(#linear-gradient);"/></svg>