<?xml version="1.0" encoding="UTF-8"?><svg id="Layer_1" xmlns="http://www.w3.org/2000/svg" width="1080" height="1080" xmlns:xlink="http://www.w3.org/1999/xlink" viewBox="0 0 1080 1080"><defs><linearGradient id="linear-gradient" x1="648.79" y1="930.23" x2="-334.08" y2="2376.62" gradientTransform="translate(242.34 -906.96)" gradientUnits="userSpaceOnUse"><stop offset="0" stop-color="#1abc9c"/><stop offset="1" stop-color="#1a5daf"/></linearGradient><linearGradient id="linear-gradient-2" x1="296.21" y1="912.43" x2="144.49" y2="1924.85" gradientTransform="translate(242.34 -906.96)" xlink:href="#linear-gradient"/><linearGradient id="linear-gradient-3" x1="458.31" y1="936.73" x2="306.53" y2="1949.14" gradientTransform="translate(242.34 -906.96)" xlink:href="#linear-gradient"/></defs><g id="Layer_1-2"><circle cx="540" cy="540" r="540" style="fill:url(#linear-gradient);"/><path d="M578.77,750.46c-13.85,2.77-24.92,5.54-38.77,5.54-94.15,0-174.46-72-180-177.23,0-13.85,8.31-47.08,8.31-60.92l-146.77-60.92c-13.85,38.77-22.15,88.62-22.15,130.15,0,182.77,155.08,329.54,340.62,329.54,41.54,0,83.08-8.31,121.85-24.92l-83.08-141.23Z" style="fill:url(#linear-gradient-2);"/><path d="M540,235.38c-47.08,0-94.15,11.08-138.46,30.46l83.08,138.46c16.62-5.54,36-8.31,55.38-8.31,83.08,0,171.69,69.23,180,155.08h-238.15l371.08,157.85c19.38-41.54,24.92-91.38,24.92-141.23,0-180-155.08-332.31-337.85-332.31Z" style="fill:url(#linear-gradient-3);"/><path d="M578.77,714.46c-13.85,2.77-24.92,5.54-38.77,5.54-94.15,0-174.46-72-180-177.23,0-13.85,8.31-47.08,8.31-60.92l-146.77-60.92c-13.85,38.77-22.15,88.62-22.15,130.15,0,182.77,155.08,329.54,340.62,329.54,41.54,0,83.08-8.31,121.85-22.15l-83.08-144Z" style="fill:#fff;"/><path d="M540,199.38c-47.08,0-94.15,11.08-138.46,30.46l83.08,138.46c16.62-5.54,36-8.31,55.38-8.31,83.08,0,171.69,69.23,180,155.08h-238.15l368.31,155.08c19.38-41.54,24.92-91.38,24.92-141.23,2.77-177.23-152.31-329.54-335.08-329.54Z" style="fill:#fff;"/></g></svg>