<?xml version="1.0" encoding="UTF-8"?><svg id="Layer_1" xmlns="http://www.w3.org/2000/svg" width="1080" height="1080" viewBox="0 0 1080 1080"><path d="M540,0h0c298.08,0,540,241.92,540,540h0c0,298.08-241.92,540-540,540h0C241.92,1080,0,838.08,0,540h0C0,241.92,241.92,0,540,0Z"/><path d="M388.8,511.2h-4.32c0,1.44,0-122.4,0-122.4h17.28v142.56h-17.28l-93.6-122.4h4.32c0-1.44,0,122.4,0,122.4h-17.28v-142.56h17.28l93.6,122.4ZM505.44,534.24c-12.96,0-24.48-2.88-36-8.64-10.08-5.76-18.72-14.4-25.92-25.92-5.76-11.52-10.08-24.48-10.08-38.88s2.88-27.36,10.08-38.88c5.76-11.52,14.4-20.16,25.92-25.92,10.08-5.76,23.04-8.64,36-8.64s24.48,2.88,36,8.64c10.08,5.76,18.72,14.4,25.92,25.92,5.76,11.52,10.08,24.48,10.08,38.88s-2.88,27.36-10.08,38.88c-5.76,10.08-14.4,20.16-25.92,25.92-10.08,5.76-23.04,8.64-36,8.64ZM505.44,516.96c10.08,0,18.72-1.44,27.36-5.76s14.4-11.52,18.72-18.72c4.32-8.64,7.2-18.72,7.2-31.68s-2.88-23.04-7.2-31.68c-4.32-8.64-11.52-14.4-18.72-18.72-8.64-4.32-17.28-7.2-27.36-7.2s-18.72,2.88-27.36,7.2c-8.64,4.32-14.4,11.52-18.72,18.72-4.32,8.64-7.2,18.72-7.2,31.68s2.88,23.04,7.2,31.68c4.32,8.64,11.52,14.4,18.72,18.72,8.64,4.32,17.28,5.76,27.36,5.76ZM642.24,531.36l-51.84-142.56h18.72l44.64,123.84h-5.76l41.76-123.84h18.72l43.2,123.84h-5.76l44.64-123.84h18.72l-50.4,142.56h-18.72l-41.76-128.16h4.32l-41.76,128.16h-18.72Z" style="fill:#75a9f7;"/><path d="M180,545.76h48.96c23.04,0,36,14.4,36,36s-14.4,36-36,36h-33.12v48.96h-14.4v-120.96h-1.44ZM249.12,581.76c0-11.52-5.76-23.04-23.04-23.04h-33.12v46.08h33.12c15.84,0,23.04-11.52,23.04-23.04Z" style="fill:#fff;"/><path d="M272.16,643.68c0-17.28,12.96-24.48,31.68-27.36l25.92-4.32h0c0-12.96-7.2-21.6-17.28-21.6h-7.2c-10.08,0-17.28,5.76-17.28,17.28h-14.4c0-18.72,15.84-28.8,31.68-28.8h7.2c18.72,0,30.24,12.96,30.24,33.12v36c0,7.2,2.88,7.2,10.08,7.2v11.52h-10.08c-8.64,0-14.4-2.88-12.96-14.4-4.32,10.08-15.84,15.84-28.8,15.84s-27.36-8.64-27.36-24.48c0,0-1.44,0-1.44,0ZM302.4,655.2c15.84,0,27.36-10.08,27.36-27.36v-5.76l-23.04,4.32c-11.52,2.88-20.16,5.76-20.16,15.84s5.76,12.96,14.4,12.96h1.44Z" style="fill:#fff;"/><path d="M384.48,668.16c0-4.32,0-8.64-2.88-14.4l-27.36-74.88h14.4l20.16,57.6c1.44,4.32,4.32,12.96,4.32,12.96h0s2.88-8.64,4.32-12.96l20.16-57.6h14.4l-36,102.24c-4.32,12.96-11.52,20.16-24.48,20.16h-10.08v-11.52h8.64c11.52,0,14.4-14.4,14.4-20.16,0,0,0-1.44,0-1.44Z" style="fill:#fff;"/><path d="M446.4,578.88h14.4v14.4c4.32-8.64,12.96-15.84,21.6-15.84h7.2c12.96,0,18.72,7.2,24.48,15.84,4.32-8.64,14.4-15.84,23.04-15.84h7.2c15.84,0,25.92,12.96,25.92,31.68v56.16h-14.4v-54.72c0-11.52-5.76-21.6-15.84-21.6h-5.76c-11.52,0-20.16,14.4-20.16,28.8v46.08h-14.4v-54.72c0-11.52-5.76-21.6-14.4-21.6h-5.76c-11.52,0-20.16,14.4-20.16,28.8v46.08h-14.4v-86.4l1.44,2.88h0Z" style="fill:#fff;"/><path d="M623.52,577.44h7.2c20.16,0,34.56,18.72,34.56,40.32s0,4.32,0,7.2h-63.36c0,18.72,11.52,30.24,23.04,30.24h7.2c11.52,0,18.72-8.64,20.16-17.28h12.96c-1.44,15.84-15.84,28.8-33.12,28.8h-7.2c-20.16,0-36-18.72-36-44.64s18.72-44.64,36-44.64c0,0-1.44,0-1.44,0ZM650.88,613.44c0-11.52-8.64-23.04-20.16-23.04h-7.2c-10.08,0-18.72,8.64-21.6,23.04h48.96Z" style="fill:#fff;"/><path d="M682.56,578.88h14.4v14.4c4.32-8.64,12.96-15.84,24.48-15.84h8.64c14.4,0,27.36,14.4,27.36,33.12v54.72h-14.4v-53.28c0-12.96-7.2-21.6-17.28-21.6h-7.2c-12.96,0-21.6,14.4-21.6,28.8v46.08h-14.4v-86.4Z" style="fill:#fff;"/><path d="M797.76,550.08v28.8h27.36v11.52h-27.36v51.84c0,7.2,4.32,10.08,10.08,10.08h15.84v11.52h-18.72c-14.4,0-20.16-7.2-20.16-21.6v-53.28h-18.72v-11.52h18.72v-21.6l12.96-8.64s0,2.88,0,2.88Z" style="fill:#fff;"/><path d="M833.76,640.8h14.4c0,8.64,8.64,14.4,15.84,14.4h7.2c7.2,0,15.84-4.32,15.84-12.96s-4.32-11.52-12.96-12.96l-15.84-2.88c-14.4-2.88-21.6-11.52-21.6-23.04s12.96-24.48,27.36-24.48h7.2c14.4,0,27.36,10.08,27.36,24.48h-12.96c0-7.2-7.2-12.96-14.4-12.96h-7.2c-7.2,0-12.96,4.32-12.96,11.52s2.88,10.08,11.52,11.52l15.84,2.88c12.96,2.88,23.04,7.2,23.04,24.48s-14.4,25.92-28.8,25.92h-7.2c-15.84,0-30.24-10.08-30.24-25.92h-1.44Z" style="fill:#fff;"/></svg>