<?xml version="1.0" encoding="UTF-8"?><svg id="Layer_1" xmlns="http://www.w3.org/2000/svg" width="1080" height="1080" viewBox="0 0 1080 1080"><path d="M540,0h0c298.08,0,540,241.92,540,540h0c0,298.08-241.92,540-540,540h0C241.92,1080,0,838.08,0,540h0C0,241.92,241.92,0,540,0Z"/><path d="M480.96,462.24c-17.28,2.88-28.8,18.72-25.92,36,2.88,17.28,18.72,28.8,36,25.92l-10.08-61.92h0ZM830.88,596.16c0,17.28,14.4,31.68,31.68,31.68s31.68-14.4,31.68-31.68h-63.36,0ZM236.16,534.24c-10.08-14.4-30.24-15.84-44.64-5.76s-15.84,30.24-5.76,44.64l50.4-38.88ZM525.6,637.92l12.96,28.8c10.08-4.32,15.84-12.96,17.28-24.48,1.44-10.08-1.44-21.6-10.08-27.36l-21.6,23.04h1.44ZM480.96,576l30.24-8.64h0l-30.24,8.64ZM512.64,502.56c4.32-17.28-7.2-33.12-24.48-37.44s-33.12,7.2-37.44,24.48l61.92,14.4h0v-1.44ZM836.64,540c0,159.84-132.48,289.44-296.64,289.44v63.36c198.72,0,360-156.96,360-352.8h-63.36ZM540,829.44c-164.16,0-296.64-131.04-296.64-289.44h-63.36c0,195.84,161.28,352.8,360,352.8v-63.36ZM243.36,540c0-159.84,132.48-289.44,296.64-289.44v-63.36c-198.72,0-360,156.96-360,352.8h63.36ZM540,250.56c164.16,0,296.64,131.04,296.64,289.44h63.36c0-195.84-161.28-352.8-360-352.8v63.36ZM491.04,525.6c43.2-7.2,131.04-28.8,211.68-25.92,40.32,1.44,72,8.64,95.04,23.04,20.16,12.96,33.12,34.56,33.12,72h63.36c0-57.6-23.04-99.36-61.92-125.28-36-24.48-83.52-33.12-128.16-34.56-89.28-2.88-188.64,21.6-224.64,27.36l10.08,61.92h0s1.44,1.44,1.44,1.44ZM187.2,573.12c69.12,89.28,148.32,118.08,217.44,120.96,66.24,2.88,119.52-18.72,135.36-27.36l-27.36-57.6c-11.52,5.76-53.28,23.04-105.12,21.6-50.4-1.44-112.32-23.04-168.48-96.48l-50.4,38.88h-1.44ZM547.2,614.88c-17.28-15.84-30.24-31.68-34.56-47.52l-60.48,15.84c8.64,34.56,34.56,60.48,53.28,77.76l43.2-46.08h-1.44ZM512.64,567.36c-4.32-18.72-5.76-41.76,0-64.8l-61.92-14.4c-7.2,31.68-7.2,64.8,0,95.04l60.48-15.84h1.44Z" style="fill:#f5f6fc;"/></svg>