<?xml version="1.0" encoding="UTF-8"?><svg id="Layer_1" xmlns="http://www.w3.org/2000/svg" width="1080" height="1080" viewBox="0 0 1080 1080"><path d="M540,0h0c298.22,0,540,241.78,540,540h0c0,298.22-241.78,540-540,540h0C241.78,1080,0,838.22,0,540h0C0,241.78,241.78,0,540,0Z"/><path d="M773.14,379.3c-28.37-43.34-68.26-78.34-116.64-99.94-46.66-21.6-99.94-29.95-151.63-23.33-51.7,6.62-101.66,26.64-141.55,60.05l-101.66-99.94v338.11c1.73,51.7,18.29,103.25,46.66,146.59,28.37,43.34,68.26,78.34,116.64,99.94,46.66,21.6,99.94,29.95,151.63,23.33,51.7-6.62,101.66-26.64,141.55-60.05l99.94,99.94v-338.11c0-51.7-16.7-103.25-44.93-146.59h0ZM661.54,720.72c-31.68,21.6-68.26,33.26-108.29,34.99-38.3,1.73-76.61-6.62-110.02-25.06-33.41-18.43-61.63-44.93-81.65-78.34-20.02-33.41-29.95-69.98-29.95-110.02v-161.57l13.25,13.25,321.55,321.55-5.04,5.04h0l.14.14ZM749.95,697.39l-13.39-13.39-321.55-321.55,5.04-3.31c31.68-21.6,68.26-33.26,108.29-34.99,38.3-1.73,76.61,6.62,110.02,25.06,33.41,18.43,61.63,44.93,81.65,78.34,20.02,33.41,29.95,69.98,29.95,109.87v159.98h0Z" style="fill:#fff;"/></svg>