<?xml version="1.0" encoding="UTF-8"?><svg id="Layer_1" xmlns="http://www.w3.org/2000/svg" width="1080" height="1080" viewBox="0 0 1080 1080"><path d="M1080,540c0,298.23-241.77,540-540,540-102.45,0-198.24-28.53-279.85-78.09-35.32-21.43-67.98-46.8-97.37-75.51C62.35,828.34,0,691.45,0,540,0,241.77,241.77,0,540,0s540,241.77,540,540Z"/><path d="M365.87,688.08l-86.97,85.26c-50.23-57.47-83.62-131.14-87.11-208.2h120.26c5.79,45,23.49,88.99,53.82,122.95Z" style="fill:#ff8200;"/><path d="M514.87,767.95v120.25c-74.78-3.94-149.61-34.64-204.58-85.26l85.2-84.83c34.97,26.91,75.2,44.63,119.38,49.83Z" style="fill:#ff8200;"/><path d="M728.31,835.1c-51.84,33.01-110.75,50.86-172.15,54.9v-122.05c45.7-3.17,92.02-20.16,126.54-50.23,8.61,11.92,84.09,79.54,85.12,85.48.83,4.8-33.58,28.13-39.51,31.91Z" style="fill:#ff8200;"/><path d="M888.2,565.13c-3.71,77.76-37.21,152.55-88.85,209.96l-85.06-85.48c26.35-36.73,49.6-78.03,51.86-124.48h122.05Z" style="fill:#ff8200;"/><path d="M890,523.85h-122.05c-3.28-47.36-22.12-90.49-50.13-128.09l85.13-85.47c53.4,57.69,81.99,135.35,87.05,213.55Z" style="fill:#ff8200;"/><path d="M773.33,278.9l-85.23,86.57c-38.37-29.85-82.7-50.27-131.95-53.42v-122.05c80.53,4.95,157.15,35.18,217.18,88.9Z" style="fill:#ff8200;"/><path d="M514.87,191.79v122.05c-46.52,2.23-88.11,24.57-124.49,51.86l-85.48-85.07c57.49-51.48,132.15-85.21,209.97-88.85Z" style="fill:#ff8200;"/><path d="M362.28,397.31c-29.58,34.57-48.18,80.76-50.23,126.54h-122.05c4.16-59.06,20.38-116.21,51.3-166.78,4.08-6.68,30.31-45.8,35.51-44.88,6,1.06,73.52,76.49,85.47,85.12Z" style="fill:#ff8200;"/></svg>