<?xml version="1.0" encoding="UTF-8"?><svg id="Layer_1" xmlns="http://www.w3.org/2000/svg" width="1080" height="1080" viewBox="0 0 1080 1080"><path d="M540,0h0c298.22,0,540,241.78,540,540h0c0,298.22-241.78,540-540,540h0C241.78,1080,0,838.22,0,540h0C0,241.78,241.78,0,540,0Z"/><path d="M866.16,609.12c0-92.16-37.44-181.44-103.68-247.68-66.24-64.8-155.52-102.24-249.12-102.24h-37.44v144l-144-144h-103.68l177.12,175.68h-191.52v36c0,92.16,37.44,181.44,103.68,247.68,66.24,64.8,155.52,102.24,249.12,102.24h37.44v-144l142.56,141.12h103.68l-174.24-172.8h190.08v-36ZM550.8,571.68h-95.04c-10.08,0-18.72,4.32-25.92,10.08s-10.08,15.84-10.08,25.92,4.32,18.72,10.08,25.92c7.2,7.2,15.84,10.08,25.92,10.08h74.88v100.8c-60.48-8.64-116.64-36-159.84-79.2-43.2-43.2-70.56-99.36-79.2-158.4h334.08c4.32,0,10.08-1.44,14.4-2.88s8.64-4.32,12.96-7.2c4.32-2.88,5.76-7.2,8.64-11.52,1.44-4.32,2.88-10.08,2.88-14.4s-1.44-10.08-2.88-14.4c-1.44-4.32-4.32-8.64-8.64-11.52s-7.2-5.76-12.96-7.2c-4.32-1.44-10.08-2.88-14.4-2.88h-76.32v-100.8c60.48,8.64,116.64,36,159.84,79.2s70.56,99.36,79.2,158.4c0,0-237.6,0-237.6,0ZM591.12,469.44c0-5.76,1.44-11.52,4.32-15.84s7.2-8.64,12.96-10.08c5.76-1.44,11.52-2.88,17.28-1.44s11.52,4.32,15.84,7.2c4.32,4.32,7.2,8.64,8.64,14.4,1.44,5.76,0,11.52-1.44,17.28-1.44,5.76-5.76,10.08-10.08,12.96s-10.08,4.32-15.84,4.32c-7.2,0-15.84-2.88-20.16-8.64-8.64-4.32-11.52-11.52-11.52-20.16Z" style="fill:#fff;"/><path d="M634.32,483.84c0-2.88-1.44-5.76-2.88-7.2s-4.32-4.32-5.76-4.32c-2.88-1.44-5.76-1.44-7.2-1.44-2.88,0-4.32,1.44-7.2,4.32-1.44,1.44-2.88,4.32-4.32,7.2,0,2.88,0,5.76,1.44,7.2s2.88,4.32,4.32,5.76c1.44,1.44,4.32,2.88,7.2,2.88,4.32,0,7.2-1.44,10.08-4.32,2.88-4.32,4.32-7.2,4.32-10.08Z" style="fill:#fff;"/></svg>