<?xml version="1.0" encoding="UTF-8"?><svg id="Layer_1" xmlns="http://www.w3.org/2000/svg" width="1080" height="1080" viewBox="0 0 1080 1080"><path d="M540,0h0c298.22,0,540,241.78,540,540h0c0,298.22-241.78,540-540,540h0C241.78,1080,0,838.22,0,540h0C0,241.78,241.78,0,540,0Z"/><g id="RedStone_logo"><g id="Group-3-Copy"><path id="Fill-1" d="M752.31,520l-89.23-146.15,46.15-75.38,133.85,221.54h-90.77ZM449.23,726.15h180l44.62,73.85h-267.69l43.08-73.85ZM629.23,353.85h-180l-43.08-73.85h269.23l-46.15,73.85ZM629.23,687.69h-180l-89.23-147.69,89.23-147.69h180l89.23,147.69-89.23,147.69ZM370.77,298.46l44.62,75.38-89.23,146.15h-90.77l135.38-221.54ZM236.92,560h90.77l89.23,147.69-46.15,73.85-133.85-221.54ZM709.23,783.08l-46.15-75.38,89.23-147.69h90.77l-133.85,223.08ZM726.15,249.23c-3.08-6.15-10.77-9.23-16.92-9.23h-338.46c-6.15,0-13.85,3.08-16.92,9.23l-169.23,280c-3.08,6.15-3.08,13.85,0,20l169.23,280c3.08,7.69,10.77,10.77,16.92,10.77h338.46c6.15,0,13.85-3.08,16.92-9.23l169.23-280c3.08-6.15,3.08-13.85,0-20l-169.23-281.54Z" style="fill:#ea6c7c; fill-rule:evenodd;"/><path id="Fill-4" d="M641.54,570.77c-9.23-6.15-21.54-3.08-27.69,6.15l-35.38,55.38c-6.15,9.23-3.08,21.54,6.15,27.69,3.08,1.54,6.15,3.08,10.77,3.08,6.15,0,12.31-3.08,16.92-9.23l35.38-55.38c4.62-9.23,3.08-21.54-6.15-27.69" style="fill:#ea6c7c; fill-rule:evenodd;"/><path id="Fill-6" d="M669.23,520c-9.23-6.15-21.54-3.08-26.15,6.15l-3.08,4.62c-6.15,9.23-1.54,21.54,6.15,27.69,3.08,1.54,6.15,3.08,10.77,3.08,6.15,0,13.85-3.08,16.92-9.23l3.08-4.62c4.62-9.23,1.54-21.54-7.69-27.69" style="fill:#ea6c7c; fill-rule:evenodd;"/></g></g></svg>