<?xml version="1.0" encoding="UTF-8"?><svg id="Layer_1" xmlns="http://www.w3.org/2000/svg" width="1080" height="1080" xmlns:xlink="http://www.w3.org/1999/xlink" viewBox="0 0 1080 1080"><defs><linearGradient id="linear-gradient" x1="533.57" y1="-41.4" x2="476.4" y2="-439.85" gradientTransform="translate(0 332) scale(1 -1)" gradientUnits="userSpaceOnUse"><stop offset="0" stop-color="#624aff"/><stop offset=".98" stop-color="#dd09ff"/></linearGradient><linearGradient id="linear-gradient-2" x1="497.62" y1="-554.87" x2="588.77" y2="193.93" gradientTransform="translate(0 332) scale(1 -1)" gradientUnits="userSpaceOnUse"><stop offset="0" stop-color="#ef41ff"/><stop offset=".67" stop-color="#1f6bff"/><stop offset="1" stop-color="#7defff"/></linearGradient><linearGradient id="linear-gradient-3" x1="746.75" y1="132.42" x2="658.48" y2="-255.51" gradientTransform="translate(0 332) scale(1 -1)" gradientUnits="userSpaceOnUse"><stop offset="0" stop-color="#7defff"/><stop offset=".98" stop-color="#5707ff"/></linearGradient></defs><path d="M540,0h0c298.22,0,540,241.78,540,540h0c0,298.22-241.78,540-540,540h0C241.78,1080,0,838.22,0,540h0C0,241.78,241.78,0,540,0Z"/><path d="M538.99,787.54l148.75-85.82v-246.24l-213.26-123.12-148.61,85.82,213.12,123.12v246.53-.29Z" style="fill:url(#linear-gradient);"/><path d="M540,251.71l78.62-45.65-70.85-40.9c-4.9-2.88-10.94-2.88-15.84,0l-312.62,180.58c-4.9,2.88-7.92,8.06-7.92,13.68v361.01c0,5.62,3.02,10.8,7.92,13.68l312.62,180.58c4.9,2.88,10.94,2.88,15.84,0l312.62-180.58c4.9-2.88,7.92-8.06,7.92-13.68v-81.79l-78.77,45.5-249.55,144.14-249.55-144.14v-288.29l249.55-144.14h0Z" style="fill:url(#linear-gradient-2); fill-rule:evenodd;"/><path d="M720.72,682.42l147.6-85.25v-237.17c0-5.62-3.02-10.8-7.92-13.68l-205.49-118.66-145.73,84.1,211.39,122.11v248.4h0l.14.14Z" style="fill:url(#linear-gradient-3);"/></svg>