<?xml version="1.0" encoding="UTF-8"?><svg id="Layer_1" xmlns="http://www.w3.org/2000/svg" width="1080" height="1080" xmlns:xlink="http://www.w3.org/1999/xlink" viewBox="0 0 1080 1080"><defs><linearGradient id="linear-gradient" x1="545.98" y1="2310" x2="545.98" y2="2957.71" gradientTransform="translate(0 -2094)" gradientUnits="userSpaceOnUse"><stop offset="0" stop-color="#00deff"/><stop offset="1" stop-color="#ad62ff"/></linearGradient><linearGradient id="linear-gradient-2" x1="644.67" y1="2885.66" x2="644.67" y2="2465.18" xlink:href="#linear-gradient"/><linearGradient id="linear-gradient-3" x1="327.74" y1="2593.93" x2="544.61" y2="2593.93" xlink:href="#linear-gradient"/></defs><path d="M540,0h0c298.22,0,540,241.78,540,540h0c0,298.22-241.78,540-540,540h0C241.78,1080,0,838.22,0,540h0C0,241.78,241.78,0,540,0Z"/><path d="M692.93,697.82c-1.58,3.31-8.35,8.35-14.98,16.56h0c-6.62,6.62-13.25,14.98-20.02,21.6-21.6,21.6-41.62,44.78-63.22,66.38l-24.91,24.91c-5.04,5.04-8.35,9.94-13.25,14.98l-1.58,1.58-3.31,3.31c-3.31,3.31-6.62,8.35-9.94,11.66l-1.58,1.58-3.31,3.31h0l-1.58-1.58c-11.66-13.25-21.6-24.91-33.26-38.16-24.91-33.26-41.47-71.42-48.24-114.62h0c-6.62-43.2,1.73-69.84,3.31-74.74v-1.58c3.31-9.94,6.62-18.29,11.66-28.22,14.98-31.54,34.85-59.76,56.45-86.4,16.56-20.02,33.26-41.47,44.78-64.8,6.62-16.56,11.66-33.26,11.66-49.82,0-13.25-3.31-26.64-6.62-39.89-5.04-18.29-11.66-34.85-20.02-48.24,0-1.73-1.58-1.73-1.58-3.31-1.58-1.73-1.58-3.31-3.31-3.31h0c-51.55-59.76-124.56,39.89-151.2,63.07,11.66-11.66,23.33-23.33,33.26-34.85,38.16-39.89,74.74-79.78,113.04-117.94l3.31-3.31h0l3.31,3.31c13.25,14.98,26.64,29.95,38.16,46.51,21.6,31.54,36.58,66.38,41.62,104.69,3.31,13.25,3.31,61.49-3.31,76.46h0c-13.25,41.47-36.58,78.05-64.8,109.73-23.18,26.64-41.62,54.86-53.14,87.98-5.04,14.98-8.35,29.95-5.04,44.78,5.04,33.26,16.56,59.76,24.91,73.15,1.58,1.58,1.58,3.31,3.31,5.04,1.58,1.58,1.58,3.31,3.31,3.31h0c48.24,53.14,93.02-9.94,156.24-73.15h-.14Z" style="fill:url(#linear-gradient);"/><path d="M752.69,560.02c0-44.78-13.25-86.4-41.62-122.98-20.02-24.91-44.78-44.93-73.15-59.76-3.31-1.73-5.04-3.31-5.04-6.62h0c3.31,13.25,3.31,61.49-3.31,76.46,1.15-2.16,2.74-2.16,5.04,0,38.16,28.22,56.45,66.53,58.18,113.04,0,29.95-11.66,56.45-29.95,78.05-16.56,20.02-34.85,38.16-53.14,56.45-23.18,24.91-46.51,49.82-69.84,74.74l-3.31,3.31c48.24,51.55,93.02-11.66,156.24-74.74-1.58,3.31-8.35,8.35-14.98,16.56,11.66-11.66,21.6-23.18,33.26-36.58,26.64-34.85,43.2-73.15,41.62-117.94h0Z" style="fill:url(#linear-gradient-2);"/><path d="M545.04,309.02l-3.31,3.31c-24.91,24.91-48.24,51.55-73.15,76.46-16.56,16.56-33.26,33.26-48.24,51.55-19.87,23.33-31.54,49.82-31.54,81.36,1.73,46.51,19.87,84.82,58.18,113.04,2.16,1.15,3.89,1.15,5.04,0-1.73,6.62-9.94,33.26-3.31,74.74,0-3.31-1.73-5.04-5.04-6.62-33.26-16.56-63.07-39.89-83.09-71.42-34.85-54.86-43.2-113.04-21.6-174.38,8.35-24.91,24.91-44.93,41.47-64.8,5.04-6.62,11.66-11.66,16.56-18.29,28.22-24.91,101.38-124.56,147.89-64.8h.14v-.14Z" style="fill:url(#linear-gradient-3);"/></svg>