<?xml version="1.0" encoding="UTF-8"?><svg id="Layer_1" xmlns="http://www.w3.org/2000/svg" width="1080" height="1080" viewBox="0 0 1080 1080"><path d="M540,0h0c298.08,0,540,241.92,540,540h0c0,298.08-241.92,540-540,540h0C241.92,1080,0,838.08,0,540h0C0,241.92,241.92,0,540,0Z"/><path d="M702.72,478.08c-11.52-11.52-7.2-25.92-7.2-38.88v-46.08c0-10.08,0-18.72,8.64-25.92-11.52,0-17.28-5.76-23.04-14.4-5.76-10.08-14.4-17.28-21.6-27.36-4.32-5.76-8.64-12.96-5.76-21.6,0-2.88-1.44-4.32-4.32-5.76-1.44,0-4.32,0-5.76-1.44-11.52-2.88-15.84-5.76-17.28-18.72-1.44-12.96-2.88-12.96-14.4-12.96h-139.68c-11.52,0-12.96,1.44-14.4,12.96-1.44,11.52-7.2,18.72-18.72,20.16-7.2,1.44-8.64,2.88-7.2,10.08,0,4.32,0,8.64-4.32,12.96-10.08,12.96-20.16,25.92-28.8,37.44-2.88,2.88-5.76,5.76-10.08,5.76-2.88,0-5.76,1.44-10.08,2.88,11.52,8.64,10.08,20.16,10.08,30.24v51.84c0,11.52,0,21.6-11.52,30.24,12.96,0,20.16,7.2,25.92,14.4,7.2,10.08,14.4,18.72,21.6,27.36,4.32,5.76,5.76,11.52,5.76,17.28,0,4.32,0,7.2,5.76,7.2h5.76c7.2,1.44,12.96,4.32,14.4,12.96,2.88,7.2,2.88,15.84-4.32,21.6s-5.76,10.08,0,14.4c4.32,4.32,5.76,10.08,5.76,14.4v64.8c0,10.08-5.76,15.84-15.84,18.72h-2.88c-7.2,0-11.52,5.76-11.52,12.96-1.44,11.52-7.2,18.72-20.16,18.72h-63.36c-14.4,0-20.16-5.76-21.6-20.16,0-6.72-3.36-10.08-10.08-10.08-10.08,0-17.28-4.32-21.6-12.96s-2.88-15.84,4.32-21.6c7.2-5.76,7.2-7.2,0-14.4-4.32-2.88-5.76-7.2-5.76-11.52v-56.16c0-5.76,2.88-12.96,7.2-15.84,2.88-2.88,2.88-4.32,0-7.2-7.2-8.64-10.08-7.2-10.08-25.92-11.52,4.32-20.16-1.44-28.8-8.64-11.52-10.08-23.04-18.72-36-27.36-7.2-5.76-10.08-12.96-7.2-21.6,2.88-8.64,10.08-14.4,18.72-15.84,4.32,0,8.64,0,12.96,4.32,15.84,11.52,31.68,24.48,47.52,36,2.88,2.88,5.76,5.76,4.32,10.08,0,5.76,2.88,8.64,7.2,8.64h5.76c14.4,2.88,21.6,15.84,14.4,28.8,0,2.88-2.88,4.32-4.32,5.76-2.88,4.32-2.88,7.2,0,10.08,4.32,4.32,5.76,10.08,5.76,15.84v53.28c0,7.2-2.88,12.96-7.2,18.72-4.32,2.88-4.32,5.76,0,10.08,5.76,5.76,8.64,11.52,8.64,20.16s2.88,8.64,7.2,8.64h72c4.32,0,7.2-1.44,7.2-5.76v-64.8c0-7.2,1.44-14.4,7.2-20.16,4.32-2.88,2.88-8.64-2.88-12.96-4.32-2.88-5.76-7.2-5.76-12.96-1.44-11.52-2.88-12.96-14.4-14.4-4.32,0-8.64-2.88-11.52-7.2-7.2-12.96-18.72-23.04-27.36-36-2.88-4.32-4.32-10.08-2.88-14.4,2.88-7.2,0-14.4-5.76-20.16s-8.64-14.4-8.64-23.04v-66.24c0-7.2,1.44-12.96,7.2-18.72,5.76-5.76,7.2-12.96,7.2-20.16s1.44-14.4,5.76-20.16c10.08-11.52,18.72-23.04,27.36-34.56,2.88-4.32,7.2-7.2,12.96-7.2s10.08-2.88,10.08-10.08v-7.2c2.88-8.64,8.64-12.96,17.28-12.96s11.52-1.44,12.96-11.52c1.44-14.4,5.76-20.16,21.6-20.16,47.52-1.44,95.04-1.44,142.56,0,14.4,0,20.16,5.76,21.6,21.6,0,7.2,2.88,10.08,10.08,10.08,14.4,1.44,18.72,4.32,20.16,20.16.96,6.72,4.8,10.08,11.52,10.08,10.08,0,7.2,2.88,11.52,5.76,10.08,12.96,20.16,25.92,30.24,38.88,2.88,4.32,4.32,8.64,4.32,12.96,0,10.08,2.88,18.72,10.08,25.92,4.32,4.32,4.32,8.64,4.32,14.4v73.44c0,24.48-1.44,11.52-5.76,15.84-7.2,5.76-10.08,14.4-7.2,24.48,1.44,4.32,0,7.2-2.88,10.08-10.08,12.96-20.16,25.92-28.8,37.44-4.32,5.76-10.08,8.64-15.84,8.64s-10.08,4.32-10.08,11.52-2.88,11.52-5.76,14.4-5.76,10.08,0,14.4c4.32,4.32,5.76,11.52,5.76,17.28v54.72c0,15.84,0,17.28,15.84,17.28h61.92c4.32,0,8.64-1.44,8.64-7.2,0-8.64,2.88-14.4,8.64-20.16,5.76-5.76,4.32-5.76,0-8.64-5.76-4.32-8.64-12.96-8.64-20.16v-54.72c0-5.76,1.44-10.08,5.76-14.4,4.32-2.88,2.88-5.76,0-10.08s-4.32-7.2-5.76-12.96c-2.88-8.64,0-14.4,7.2-20.16,4.32-2.88,8.64-2.88,12.96-4.32,4.32,0,8.64-2.88,7.2-8.64,0-4.32,2.88-8.64,5.76-11.52,15.84-11.52,30.24-23.04,46.08-36,10.08-7.2,20.16-4.32,27.36,4.32s5.76,20.16-2.88,27.36c-14.4,12.96-30.24,24.48-46.08,37.44-4.32,2.88-8.64,2.88-14.4,1.44-2.88,0-4.32,0-5.76,4.32,0,7.2-2.88,14.4-10.08,20.16-4.32,2.88-4.32,5.76,0,8.64s5.76,7.2,5.76,12.96c0,18.72,1.44,37.44,2.88,56.16,0,7.2-2.88,14.4-10.08,20.16-4.32,2.88-2.88,5.76,0,8.64l2.88,2.88c7.2,7.2,8.64,14.4,4.32,21.6s-11.52,12.96-21.6,12.96-7.2,1.44-10.08,7.2v4.32c0,11.52-7.2,18.72-18.72,18.72h-63.36c-14.4,0-20.16-5.76-21.6-20.16,0-5.76-4.32-8.64-10.08-10.08h-4.32c-10.08-1.44-15.84-7.2-15.84-17.28v-69.12c0-4.32,1.44-8.64,4.32-11.52,5.76-7.2,5.76-8.64,0-15.84-5.76-5.76-5.76-12.96-4.32-20.16,1.44-7.2,7.2-12.96,14.4-14.4,4.32,0,8.64,1.44,11.52-1.44,2.88-2.88,0-7.2,0-11.52s4.32-8.64,5.76-12.96c8.64-11.52,17.28-21.6,25.92-33.12,4.32-4.32,10.08-8.64,17.28-8.64h12.96,0Z" style="fill:#6df866;"/><path d="M338.4,815.04h33.12c7.2,0,10.08-1.44,10.08-10.08,0-5.76,2.88-11.52,5.76-15.84,21.6-21.6,43.2-41.76,64.8-63.36,4.32-4.32,8.64-5.76,12.96-5.76,6.72,0,10.56-3.84,11.52-11.52,0-10.08,5.76-15.84,14.4-18.72,8.64-2.88,15.84,0,21.6,5.76,10.08,10.08,4.32,27.36-8.64,31.68h-4.32c-11.52,1.44-11.52,2.88-12.96,12.96,0,4.32-2.88,8.64-5.76,12.96-21.6,21.6-44.64,43.2-66.24,63.36-4.32,4.32-10.08,5.76-14.4,5.76-7.2,0-10.08,2.88-11.52,10.08-2.88,18.72-5.76,21.6-24.48,21.6h-54.72c-4.32,0-7.2,0-11.52-1.44-8.64-2.88-11.52-10.08-12.96-17.28v-5.76c0-5.76-2.88-7.2-8.64-7.2h-5.76c-11.52-2.88-17.28-10.08-15.84-21.6,0-11.52,8.64-17.28,20.16-15.84,11.52,0,20.16,7.2,20.16,18.72s1.44,11.52,12.96,11.52c0,0,30.24,0,30.24,0Z" style="fill:#6df866;"/><path d="M744.48,855.36h-30.24c-14.4,0-20.16-5.76-23.04-18.72v-4.32c0-4.32-2.88-5.76-5.76-5.76-10.08,0-15.84-4.32-23.04-10.08-18.72-18.72-38.88-37.44-59.04-56.16-5.76-5.76-8.64-11.52-8.64-18.72s-1.44-8.64-8.64-10.08c-2.88,0-5.76,0-7.2-1.44-11.52-2.88-17.28-11.52-14.4-23.04,1.44-10.08,11.52-15.84,23.04-14.4,11.52,1.44,15.84,5.76,18.72,18.72.96,7.68,5.28,12,12.96,12.96,4.32,0,8.64,2.88,12.96,5.76,21.6,20.16,43.2,41.76,64.8,61.92,4.32,4.32,5.76,10.08,5.76,15.84s2.88,10.08,10.08,10.08h67.68c8.64,0,10.08-1.44,10.08-10.08,1.44-15.84,11.52-23.04,25.92-20.16,10.08,2.88,14.4,10.08,12.96,21.6,0,10.08-5.76,14.4-14.4,15.84-10.08,1.44-14.4,7.2-15.84,15.84-1.44,11.52-5.76,14.4-15.84,15.84-11.52,1.44-23.04,0-33.12,0h-1.44s-4.32-1.44-4.32-1.44Z" style="fill:#6df866;"/><path d="M469.44,516.96v-18.72c1.44-10.08,10.08-14.4,20.16-14.4s18.72,5.76,20.16,14.4c1.44,11.52,1.44,24.48,0,36-1.44,8.64-10.08,14.4-20.16,14.4s-18.72-5.76-20.16-14.4c-1.44-5.76,0-11.52,0-17.28h0Z" style="fill:#6df866;"/><path d="M612,515.52v12.96c0,11.52-7.2,20.16-20.16,20.16s-20.16-7.2-20.16-20.16v-25.92c0-11.52,8.64-18.72,21.6-18.72s18.72,7.2,20.16,18.72v12.96h-1.44Z" style="fill:#6df866;"/></svg>