<?xml version="1.0" encoding="UTF-8"?><svg id="Layer_1" xmlns="http://www.w3.org/2000/svg" width="1080" height="1080" viewBox="0 0 1080 1080"><path d="M540,0h0c298.22,0,540,241.78,540,540h0c0,298.22-241.78,540-540,540h0C241.78,1080,0,838.22,0,540h0C0,241.78,241.78,0,540,0Z"/><path d="M710.5,708.19c-48.24,48.38-96.48,96.62-144.86,144.86-7.2,7.2-15.84,11.09-25.2,10.94-17.28.14-33.26-13.1-36.29-29.52-2.3-12.53.86-23.33,9.94-32.4,47.81-47.66,95.76-95.33,143.28-143.42,19.58-19.87,52.85-12.82,61.34,16.27,3.74,12.38.86,24.05-8.35,33.26h.14Z" style="fill:#fff;"/><path d="M792.29,252.86c-.29,20.16-15.84,35.86-36.14,35.86s-36.58-15.84-36.58-36.29,16.13-36.43,36.43-36.29c20.74,0,36.58,17.57,36.29,36.86h0v-.14Z" style="fill:#fff;"/><path d="M503.42,216c-119.52.29-215.57,96.77-215.86,215.42-.29,119.38,96.05,216.14,215.28,216.43,119.66.29,216.43-96.19,216.43-215.71s-96.77-215.86-216-216h0l.14-.14ZM501.55,574.99c-78.77-1.01-140.98-64.22-141.26-143.28.29-78.91,63.22-143.71,144.72-142.99,78.05.72,141.7,62.93,141.55,143.42,0,80.06-64.08,144-145.15,142.99h0l.14-.14Z" style="fill:#fff;"/></svg>