<?xml version="1.0" encoding="UTF-8"?><svg id="Layer_1" xmlns="http://www.w3.org/2000/svg" width="1080" height="1080" viewBox="0 0 1080 1080"><path d="M540,0h0c298.08,0,540,241.92,540,540h0c0,298.08-241.92,540-540,540h0C241.92,1080,0,838.08,0,540h0C0,241.92,241.92,0,540,0Z"/><path d="M721.44,845.28h-210.24c-5.76,0-11.52-2.88-14.4-8.64-2.88-4.32-2.88-11.52,0-15.84l36-63.36h-99.36c-4.32,0-8.64-2.88-11.52-7.2h0s-1.44-1.44-2.88-2.88l-38.88-64.8-37.44,64.8c-2.88,4.32-7.2,7.2-14.4,7.2h0c-5.76,0-10.08-2.88-14.4-7.2l-112.32-197.28c-2.88-4.32-2.88-10.08,0-15.84l112.32-188.64c2.88-4.32,7.2-7.2,14.4-7.2h0c5.76,0,10.08,2.88,14.4,7.2l36,59.04,40.32-67.68s0-1.44,1.44-2.88l4.32-7.2h109.44l-44.64-80.64,7.2-12.96h233.28l4.32,7.2,110.88,192.96c2.88,4.32,2.88,10.08,0,15.84-2.88,5.76-7.2,7.2-12.96,7.2h-79.2l46.08,77.76c2.88,2.88,2.88,7.2,2.88,10.08s0,7.2-1.44,10.08l-44.64,77.76h76.32c5.76,0,11.52,2.88,14.4,8.64s2.88,11.52,0,15.84l-109.44,182.88c-2.88,5.76-8.64,8.64-14.4,8.64h-2.88l1.44-2.88ZM527.04,819.36h187.2l97.92-162.72h-73.44l-54.72,93.6c-2.88,4.32-7.2,7.2-12.96,7.2h-110.88l-34.56,61.92h1.44ZM443.52,750.24h0ZM577.44,731.52h87.84l43.2-74.88h-89.28l-41.76,74.88ZM455.04,731.52h90.72l51.84-92.16c2.88-5.76,8.64-8.64,14.4-8.64h110.88l43.2-74.88h-207.36l-105.12,175.68h1.44ZM394.56,656.64l37.44,61.92,105.12-175.68-105.12-175.68-38.88,63.36,63.36,103.68c2.88,4.32,2.88,10.08,0,15.84,0,0-61.92,106.56-61.92,106.56ZM228.96,541.44l99.36,175.68,34.56-60.48-64.8-106.56c-2.88-4.32-2.88-10.08,0-15.84l63.36-103.68-33.12-56.16-99.36,168.48h0s0-1.44,0-1.44ZM326.88,541.44l53.28,89.28,51.84-89.28-53.28-87.84-51.84,86.4h0v1.44ZM560.16,528.48h207.36l-44.64-74.88h-118.08l-4.32-7.2-51.84-93.6h-93.6l105.12,175.68h0ZM737.28,427.68h76.32l-97.92-169.92h-188.64l37.44,67.68h103.68c5.76,0,11.52,2.88,14.4,8.64l56.16,92.16h0l-1.44,1.44ZM619.2,427.68h87.84l-44.64-74.88h-83.52l40.32,74.88h0ZM443.52,334.08h0Z" style="fill:#fff;"/></svg>