<?xml version="1.0" encoding="UTF-8"?><svg id="Layer_1" xmlns="http://www.w3.org/2000/svg" width="1080" height="1080" viewBox="0 0 1080 1080"><path d="M540,0h0c298.24,0,540,241.76,540,540h0c0,298.24-241.76,540-540,540h0C241.76,1080,0,838.24,0,540h0C0,241.76,241.76,0,540,0Z"/><path d="M499.84,606.41c-14.44-7.07-29.33-7.01-44.06-7.43-9.5-.27-13.51-3.92-13.39-13.94.55-48.5.22-97,.88-145.48.24-18.48,7.4-25.98,26.02-26.65,39.56-1.43,79.14-3.97,118.71.92,42.38,5.24,65.62,28.86,69.84,71.51,3.5,35.41,2.76,70.91,2.65,106.37-.04,12.63,2.69,18.06,16.56,17.67,33.09-.94,66.23-.36,99.35-.55,4.08-.03,8.29-.5,12.18-1.67,9.79-2.91,14.54-9.78,13.64-20.02-.96-10.9-7.93-15.18-18.12-15.34-16.55-.26-33.05-.65-49.52-3.04-60.47-8.81-89.28-74.12-54.86-125.14,14.18-21.04,35.77-27.88,59.6-29.81,31.9-2.56,63.82-1.56,95.73-.04,18.55.88,28.45,10.45,28.94,28.3.46,16.89-10.31,29.2-28.04,30.02-16.52.76-33.11-.33-49.67-.1-13.56.19-27.19-.66-40.62,2.53-10.05,2.39-18.1,6.28-17.68,18.37.36,10.32,7.33,16.04,21.01,16.7,17.7.85,35.47.24,53.05,3.41,38.95,7.03,61.56,34.99,61.6,76.67.04,43.23-19.14,67.42-59.8,74.97-8.11,1.5-16.39,2.75-24.6,2.81-48.5.35-97,.46-145.5.3-25.73-.09-33.9-8.35-34.06-34.11-.27-41.4-.07-82.8-.35-124.2-.19-28.97-8.08-36.73-36.92-36.95-14.2-.1-28.4,0-42.58.19-16.14.23-16.36.33-16.44,17.29-.16,31.94.04,63.88-.13,95.82-.03,6.32,1.53,12.99-3.44,20.62h.01Z" style="fill:#fff;"/><path d="M310.33,609.24h151.13c7.68,0,15.29-.22,22.58,3.31,12.28,5.93,18.86,16.76,17.58,29.92-1.22,12.67-10.35,22.2-24.05,24.77-3.46.65-7.07.63-10.6.65-69.19.42-138.4.82-207.59,1.15-5.31.03-10.67-.17-15.94-.79-21.89-2.61-32.75-21.25-23.63-41.21,2.65-5.82,6.87-11,10.87-16.08,35.4-45.07,70.91-90.07,106.56-135.32-3.89-5.1-8.93-3.01-13.09-3.05-26.61-.23-53.24.09-79.85-.24-17.94-.22-27.5-9.72-28.25-27.01-.76-17.91,8.74-30.31,26.5-31.18,52.73.22,108.37.22,163.17-.09,24.31,1.24,33.38,20.32,21.28,41.66-4.06,7.16-9.39,13.61-14.44,20.16-29.97,38.87-60.03,77.66-90.03,116.51-3.51,4.55-6.74,9.32-12.18,16.88v-.03Z" style="fill:#fff;"/></svg>