<?xml version="1.0" encoding="UTF-8"?><svg id="Layer_1" xmlns="http://www.w3.org/2000/svg" width="1080" height="1080" viewBox="0 0 1080 1080"><path d="M1080,540c0,298.23-241.77,540-540,540-102.45,0-198.24-28.53-279.85-78.09-35.32-21.43-67.98-46.8-97.37-75.51C62.35,828.34,0,691.45,0,540,0,241.77,241.77,0,540,0s540,241.77,540,540Z"/><path d="M622.31,240v69.23h98.46l-481.54,461.54v69.23h553.85c12.31,0,23.08-4.62,32.31-13.85,9.23-9.23,13.85-20,13.85-32.31v-253.85h-69.23v232.31h-430.77l432.31-416.92v103.08h69.23v-169.23c0-26.15-21.54-47.69-47.69-47.69h-170.77v-1.54Z" style="fill:#fff;"/><path d="M308.46,309.23h232.31v-69.23h-255.38c-12.31,0-23.08,4.62-32.31,13.85s-13.85,20-13.85,32.31v273.85h69.23v-250.77Z" style="fill:#fff;"/></svg>